<svg xmlns="http://www.w3.org/2000/svg" xmlns:xlink="http://www.w3.org/1999/xlink" width="1600" height="900" viewBox="0 0 1600 900"><defs><style>.cls-1{isolation:isolate;}.cls-2{fill:url(#linear-gradient);}.cls-3{fill:url(#New_Gradient_Swatch_2);}.cls-4{fill:url(#linear-gradient-2);}.cls-5{fill:url(#linear-gradient-3);}.cls-6{fill:url(#linear-gradient-4);}.cls-7{fill:#fff;}.cls-8{fill:#0a4929;}.cls-9{fill:url(#linear-gradient-5);}.cls-10{fill:url(#linear-gradient-6);}.cls-11{fill:url(#linear-gradient-7);}.cls-12{fill:url(#linear-gradient-8);}.cls-13{fill:url(#linear-gradient-9);}.cls-14{fill:url(#linear-gradient-10);}.cls-15{fill:url(#linear-gradient-11);}.cls-16{fill:#c6c4c4;}.cls-17{fill:#112d07;}.cls-18,.cls-19,.cls-32{fill:#ccc;}.cls-18,.cls-19,.cls-31,.cls-59{stroke:#000;stroke-miterlimit:10;}.cls-18{stroke-width:4px;}.cls-19{stroke-width:3px;}.cls-20{fill:#333;}.cls-21{fill:url(#linear-gradient-12);}.cls-22{fill:url(#linear-gradient-13);}.cls-23{fill:url(#linear-gradient-14);}.cls-24{fill:url(#linear-gradient-15);}.cls-25{fill:url(#linear-gradient-16);}.cls-26{fill:url(#linear-gradient-17);}.cls-27{fill:url(#linear-gradient-18);}.cls-28{fill:#2d130b;}.cls-29{fill:#3f2917;}.cls-30{fill:#4d4d4d;}.cls-31,.cls-53{fill:none;}.cls-33{fill:#5d605d;}.cls-34{fill:#373a37;}.cls-35{fill:#cc1919;}.cls-36{fill:gray;}.cls-37{fill:#ff0;}.cls-38{fill:url(#linear-gradient-19);}.cls-39{opacity:0.6;}.cls-40{fill:url(#New_Gradient_Swatch_1);}.cls-41{fill:url(#linear-gradient-20);}.cls-42{fill:#e2af20;}.cls-43,.cls-48{opacity:0.65;}.cls-44{fill:#3f2300;}.cls-45{fill:url(#New_Gradient_Swatch_2-2);}.cls-46{fill:url(#New_Gradient_Swatch_2-3);}.cls-47{fill:url(#New_Gradient_Swatch_2-4);}.cls-49{fill:url(#New_Gradient_Swatch_2-5);}.cls-50{fill:#052d14;}.cls-51{fill:#07210f;}.cls-52{fill:#033d16;}.cls-54{fill:url(#New_Gradient_Swatch_2-6);}.cls-55{fill:#27140b;}.cls-56{fill:#e85c0f;}.cls-57{fill:#ee6e08;}.cls-58{fill:#f47f00;}.cls-60,.cls-61,.cls-62{mix-blend-mode:screen;}.cls-60{fill:url(#linear-gradient-21);}.cls-61{fill:url(#linear-gradient-22);}.cls-62{fill:url(#linear-gradient-23);}.cls-63{fill:url(#linear-gradient-24);}.cls-64{fill:#dd0a0a;}.cls-65{fill:#383536;}.cls-66{opacity:0.48;}.cls-67{fill:#606060;}.cls-68{fill:url(#linear-gradient-25);}.cls-69{fill:url(#linear-gradient-26);}.cls-70{fill:url(#linear-gradient-27);}.cls-71{fill:url(#linear-gradient-28);}.cls-72{fill:url(#linear-gradient-29);}.cls-73{fill:url(#linear-gradient-30);}.cls-74{fill:url(#linear-gradient-31);}.cls-75{fill:url(#linear-gradient-32);}.cls-76{fill:url(#linear-gradient-33);}.cls-77{fill:url(#linear-gradient-34);}.cls-78{fill:url(#White_Black);}.cls-79{fill:url(#linear-gradient-35);}</style><linearGradient id="linear-gradient" x1="798.5" y1="277" x2="798.5" gradientUnits="userSpaceOnUse"><stop offset="0" stop-color="#e85c0f"/><stop offset="0.27" stop-color="#393332"/><stop offset="0.28" stop-color="#373232"/><stop offset="0.42" stop-color="#212135"/><stop offset="0.57" stop-color="#121437"/><stop offset="0.75" stop-color="#090d38"/><stop offset="1" stop-color="#060b38"/></linearGradient><linearGradient id="New_Gradient_Swatch_2" x1="245" y1="31" x2="1357" y2="1143" gradientUnits="userSpaceOnUse"><stop offset="0" stop-color="#005f02"/><stop offset="0.37" stop-color="#004506"/><stop offset="0.74" stop-color="#00310a"/><stop offset="1" stop-color="#002a0b"/></linearGradient><linearGradient id="linear-gradient-2" x1="808" y1="586.5" x2="1030" y2="586.5" gradientUnits="userSpaceOnUse"><stop offset="0" stop-color="#5e4734"/><stop offset="0.46" stop-color="#5d4632"/><stop offset="0.66" stop-color="#58412b"/><stop offset="0.81" stop-color="#51381e"/><stop offset="0.94" stop-color="#462b0c"/><stop offset="1" stop-color="#3f2300"/></linearGradient><linearGradient id="linear-gradient-3" x1="578.15" y1="584.93" x2="1037.92" y2="584.93" gradientTransform="translate(0.01 0.22)" gradientUnits="userSpaceOnUse"><stop offset="0" stop-color="#5e4734"/><stop offset="0.42" stop-color="#5d4532"/><stop offset="0.63" stop-color="#58402a"/><stop offset="0.8" stop-color="#50371d"/><stop offset="0.94" stop-color="#452a0a"/><stop offset="1" stop-color="#3f2300"/></linearGradient><linearGradient id="linear-gradient-4" x1="793.17" y1="579.29" x2="1252.94" y2="579.29" gradientUnits="userSpaceOnUse"><stop offset="0" stop-color="#5e4734"/><stop offset="0.18" stop-color="#573f28"/><stop offset="0.7" stop-color="#462b0b"/><stop offset="1" stop-color="#3f2300"/></linearGradient><linearGradient id="linear-gradient-5" x1="28" y1="74" x2="158" y2="74" gradientUnits="userSpaceOnUse"><stop offset="0" stop-color="#fff"/><stop offset="0.15" stop-color="#fefefd"/><stop offset="0.17" stop-color="#fdfdfb"/><stop offset="1" stop-color="#e9ff6a"/></linearGradient><linearGradient id="linear-gradient-6" x1="126.45" y1="58.09" x2="135.45" y2="58.09" gradientTransform="translate(12.42 -22.36) rotate(10.24)" xlink:href="#linear-gradient-5"/><linearGradient id="linear-gradient-7" x1="133.2" y1="53.49" x2="155.23" y2="53.49" xlink:href="#linear-gradient-5"/><linearGradient id="linear-gradient-8" x1="107.19" y1="56.94" x2="128.89" y2="56.94" xlink:href="#linear-gradient-5"/><linearGradient id="linear-gradient-9" x1="127.57" y1="57.24" x2="129.33" y2="57.24" xlink:href="#linear-gradient-5"/><linearGradient id="linear-gradient-10" x1="130.29" y1="56.58" x2="132.05" y2="56.58" xlink:href="#linear-gradient-5"/><linearGradient id="linear-gradient-11" x1="836.3" y1="80.07" x2="836.3" y2="234.43" gradientTransform="translate(-217.66 432.05) rotate(-15.15)" gradientUnits="userSpaceOnUse"><stop offset="0" stop-color="#c6c4c4"/><stop offset="0.1" stop-color="#bfbbba"/><stop offset="0.26" stop-color="#aca59e"/><stop offset="0.47" stop-color="#8d7f72"/><stop offset="0.73" stop-color="#634d34"/><stop offset="0.92" stop-color="#3f2100"/><stop offset="0.93" stop-color="#3a250e"/><stop offset="0.93" stop-color="#35291f"/><stop offset="0.94" stop-color="#312d2a"/><stop offset="0.96" stop-color="#2f2e31"/><stop offset="1" stop-color="#2e2f33"/></linearGradient><linearGradient id="linear-gradient-12" x1="771.6" y1="145.3" x2="1064.97" y2="145.3" gradientUnits="userSpaceOnUse"><stop offset="0" stop-color="#999"/><stop offset="0.58" stop-color="#393332"/><stop offset="0.68" stop-color="#363333"/><stop offset="1" stop-color="#333"/></linearGradient><linearGradient id="linear-gradient-13" x1="772.59" y1="183.68" x2="818.08" y2="183.68" gradientUnits="userSpaceOnUse"><stop offset="0" stop-color="#999"/><stop offset="0.16" stop-color="#898888"/><stop offset="0.49" stop-color="#615d5d"/><stop offset="0.77" stop-color="#393332"/><stop offset="0.82" stop-color="#363333"/><stop offset="1" stop-color="#333"/></linearGradient><linearGradient id="linear-gradient-14" x1="771.18" y1="61.67" x2="819.1" y2="61.67" xlink:href="#linear-gradient-13"/><linearGradient id="linear-gradient-15" x1="1026.28" y1="175.91" x2="1064.15" y2="175.91" gradientUnits="userSpaceOnUse"><stop offset="0" stop-color="#999"/><stop offset="0.17" stop-color="#898888"/><stop offset="0.52" stop-color="#615d5d"/><stop offset="0.81" stop-color="#393332"/><stop offset="0.86" stop-color="#363333"/><stop offset="1" stop-color="#333"/></linearGradient><linearGradient id="linear-gradient-16" x1="1025.1" y1="39.95" x2="1065" y2="39.95" xlink:href="#linear-gradient-15"/><linearGradient id="linear-gradient-17" x1="967.53" y1="78.45" x2="1026.51" y2="78.45" xlink:href="#linear-gradient-15"/><linearGradient id="linear-gradient-18" x1="967.53" y1="183.76" x2="1026.51" y2="183.76" xlink:href="#linear-gradient-15"/><linearGradient id="linear-gradient-19" x1="1467.54" y1="219.1" x2="1542.2" y2="219.1" gradientUnits="userSpaceOnUse"><stop offset="0" stop-color="#999"/><stop offset="0.2" stop-color="#969696"/><stop offset="0.36" stop-color="#8d8c8c"/><stop offset="0.5" stop-color="#7e7c7c"/><stop offset="0.64" stop-color="#686564"/><stop offset="0.76" stop-color="#4c4747"/><stop offset="0.83" stop-color="#393332"/><stop offset="0.87" stop-color="#363333"/><stop offset="1" stop-color="#333"/></linearGradient><linearGradient id="New_Gradient_Swatch_1" x1="1471.39" y1="77.99" x2="1528.61" y2="77.99" gradientUnits="userSpaceOnUse"><stop offset="0" stop-color="#fff"/><stop offset="0.17" stop-color="#fdfdfb"/><stop offset="1" stop-color="#e9ff6a"/></linearGradient><linearGradient id="linear-gradient-20" x1="1467.54" y1="414.23" x2="1542.2" y2="414.23" gradientUnits="userSpaceOnUse"><stop offset="0" stop-color="#f40600"/><stop offset="0.66" stop-color="#4f0200"/><stop offset="1"/></linearGradient><linearGradient id="New_Gradient_Swatch_2-2" x1="51.25" y1="175.26" x2="105.74" y2="175.26" xlink:href="#New_Gradient_Swatch_2"/><linearGradient id="New_Gradient_Swatch_2-3" x1="157.13" y1="83.93" x2="233.87" y2="83.93" xlink:href="#New_Gradient_Swatch_2"/><linearGradient id="New_Gradient_Swatch_2-4" x1="287.25" y1="163.26" x2="341.74" y2="163.26" xlink:href="#New_Gradient_Swatch_2"/><linearGradient id="New_Gradient_Swatch_2-5" x1="1278.99" y1="67.9" x2="1370" y2="67.9" xlink:href="#New_Gradient_Swatch_2"/><linearGradient id="New_Gradient_Swatch_2-6" x1="1209.25" y1="191.26" x2="1263.74" y2="191.26" xlink:href="#New_Gradient_Swatch_2"/><linearGradient id="linear-gradient-21" x1="1959.67" y1="-614.88" x2="1959.67" y2="-580.37" gradientTransform="translate(665.9 -1438.01) rotate(90)" gradientUnits="userSpaceOnUse"><stop offset="0" stop-color="#fff"/><stop offset="0.07" stop-color="#dedede"/><stop offset="0.22" stop-color="#a4a4a4"/><stop offset="0.36" stop-color="#727272"/><stop offset="0.5" stop-color="#494949"/><stop offset="0.64" stop-color="#292929"/><stop offset="0.77" stop-color="#121212"/><stop offset="0.89" stop-color="#050505"/><stop offset="1"/></linearGradient><linearGradient id="linear-gradient-22" x1="2185.6" y1="-1375.01" x2="2185.6" y2="-1351.34" gradientTransform="matrix(0, 1.02, -1.03, 0, -63.91, -1745.46)" xlink:href="#linear-gradient-21"/><linearGradient id="linear-gradient-23" x1="1611.77" y1="-19.63" x2="1611.77" y2="4.04" gradientTransform="matrix(0, 1.02, -1.03, 0, 1374.58, -1106)" xlink:href="#linear-gradient-21"/><linearGradient id="linear-gradient-24" x1="1142.51" y1="696.01" x2="1274.41" y2="696.01" gradientUnits="userSpaceOnUse"><stop offset="0" stop-color="#452a0b"/><stop offset="0.38" stop-color="#2a1907"/><stop offset="1"/></linearGradient><linearGradient id="linear-gradient-25" x1="-0.23" y1="765.19" x2="-0.23" y2="775.41" gradientTransform="translate(855.2 687.03) rotate(87.14)" gradientUnits="userSpaceOnUse"><stop offset="0" stop-color="#fff"/><stop offset="0.34" stop-color="#a7a7a7"/><stop offset="1"/></linearGradient><linearGradient id="linear-gradient-26" x1="55.2" y1="768.65" x2="55.2" y2="773.67" gradientTransform="translate(55.61 -44.43) rotate(-2.27)" xlink:href="#linear-gradient-25"/><linearGradient id="linear-gradient-27" x1="55.81" y1="772.23" x2="55.81" y2="777.25" gradientTransform="translate(55.61 -44.43) rotate(-2.27)" xlink:href="#linear-gradient-25"/><linearGradient id="linear-gradient-28" x1="-54.81" y1="767.78" x2="-54.81" y2="772.8" gradientTransform="translate(55.61 -44.43) rotate(-2.27)" xlink:href="#linear-gradient-25"/><linearGradient id="linear-gradient-29" x1="-55.08" y1="763.34" x2="-55.08" y2="768.35" gradientTransform="translate(55.61 -44.43) rotate(-2.27)" xlink:href="#linear-gradient-25"/><linearGradient id="linear-gradient-30" x1="-27.59" y1="733.32" x2="-27.59" y2="738.34" gradientTransform="translate(55.61 -44.43) rotate(-2.27)" gradientUnits="userSpaceOnUse"><stop offset="0" stop-color="#fff"/><stop offset="0.09" stop-color="#f7f7f7"/><stop offset="0.22" stop-color="#e0e0e0"/><stop offset="0.39" stop-color="#bababa"/><stop offset="0.58" stop-color="#868686"/><stop offset="0.8" stop-color="#444"/><stop offset="1"/></linearGradient><linearGradient id="linear-gradient-31" x1="-30.08" y1="736.29" x2="-30.08" y2="741.31" xlink:href="#linear-gradient-30"/><linearGradient id="linear-gradient-32" x1="-0.12" y1="736.54" x2="-0.12" y2="793.01" gradientTransform="translate(628.02 180.49) rotate(45.15)" xlink:href="#linear-gradient-30"/><linearGradient id="linear-gradient-33" x1="26.63" y1="791.96" x2="26.63" y2="796.14" gradientTransform="translate(313.6 -20.97) rotate(16.5)" xlink:href="#linear-gradient-30"/><linearGradient id="linear-gradient-34" x1="29.71" y1="789.61" x2="29.71" y2="793.79" gradientTransform="translate(312.96 -22.06) rotate(16.5)" xlink:href="#linear-gradient-30"/><linearGradient id="White_Black" x1="-2.53" y1="729.7" x2="19.22" y2="767.37" gradientTransform="translate(55.61 -44.43) rotate(-2.27)" gradientUnits="userSpaceOnUse"><stop offset="0" stop-color="#fff"/><stop offset="1"/></linearGradient><linearGradient id="linear-gradient-35" x1="100.23" y1="776.48" x2="100.6" y2="797.89" gradientTransform="matrix(0.9, -0.24, 0.22, 0.97, -172.64, -22.74)" gradientUnits="userSpaceOnUse"><stop offset="0" stop-color="#fff"/><stop offset="0.14" stop-color="#d0d0d0"/><stop offset="0.38" stop-color="#878787"/><stop offset="0.59" stop-color="#4d4d4d"/><stop offset="0.77" stop-color="#232323"/><stop offset="0.92" stop-color="#090909"/><stop offset="1"/></linearGradient></defs><title>Game screen clean</title><g class="cls-1"><g id="Layer_1" data-name="Layer 1"><rect class="cls-2" x="-3" width="1603" height="277"/><rect class="cls-3" x="2" y="274" width="1598" height="626"/><rect class="cls-4" x="808" y="273" width="222" height="627"/><polygon class="cls-5" points="1037.92 908.67 808.04 907 578.15 905.33 695.45 583.55 812.74 261.77 925.33 585.22 1037.92 908.67"/><polygon class="cls-6" points="1252.94 901.8 1023.05 900.13 793.17 898.46 910.45 577.62 1027.74 256.77 1140.34 579.29 1252.94 901.8"/><polygon class="cls-7" points="658.59 118.8 651.27 115.39 645.81 121.34 645.1 113.3 637.22 111.54 643.83 106.91 641.41 99.2 648.73 102.61 654.19 96.66 654.9 104.7 662.78 106.46 656.17 111.09 658.59 118.8"/><polygon class="cls-7" points="381.57 120.69 374.47 118.36 368.8 123.23 368.45 117.01 360.71 115.99 367.47 112.09 365.41 106.2 372.51 108.53 378.19 103.66 378.54 109.89 386.27 110.91 379.51 114.81 381.57 120.69"/><polygon class="cls-7" points="440.38 37.42 436.66 38.77 436.83 42.73 433.79 40.19 430.45 42.31 431.13 38.41 427.62 36.58 431.34 35.23 431.17 31.27 434.21 33.81 437.55 31.69 436.87 35.59 440.38 37.42"/><polygon class="cls-7" points="631.38 201.42 627.66 202.78 627.83 206.73 624.79 204.19 621.45 206.31 622.13 202.41 618.62 200.58 622.34 199.22 622.17 195.27 625.21 197.81 628.55 195.69 627.87 199.59 631.38 201.42"/><ellipse class="cls-8" cx="419.5" cy="419" rx="21.5" ry="21.3"/><polygon class="cls-7" points="264.59 43.8 257.27 40.39 251.81 46.34 251.1 38.3 243.22 36.54 249.83 31.91 247.41 24.2 254.73 27.61 260.19 21.66 260.9 29.7 268.78 31.46 262.17 36.09 264.59 43.8"/><polygon class="cls-7" points="723.38 45.42 719.66 46.77 719.83 50.73 716.79 48.19 713.45 50.31 714.13 46.41 710.62 44.58 714.34 43.23 714.17 39.27 717.21 41.81 720.55 39.69 719.87 43.59 723.38 45.42"/><polygon class="cls-7" points="275.38 135.42 271.66 136.78 271.83 140.73 268.79 138.19 265.45 140.31 266.13 136.41 262.62 134.58 266.34 133.22 266.17 129.27 269.21 131.81 272.55 129.69 271.87 133.59 275.38 135.42"/><polygon class="cls-7" points="175.38 30.42 171.66 31.77 171.83 35.73 168.79 33.19 165.45 35.31 166.13 31.41 162.62 29.58 166.34 28.23 166.17 24.27 169.21 26.81 172.55 24.69 171.87 28.59 175.38 30.42"/><polygon class="cls-7" points="806.38 17.42 802.66 18.77 802.83 22.73 799.79 20.19 796.45 22.31 797.13 18.41 793.62 16.58 797.34 15.22 797.17 11.27 800.21 13.81 803.55 11.69 802.87 15.59 806.38 17.42"/><polygon class="cls-7" points="1145.38 37.42 1141.66 38.77 1141.83 42.73 1138.79 40.19 1135.45 42.31 1136.13 38.41 1132.62 36.58 1136.34 35.23 1136.17 31.27 1139.21 33.81 1142.55 31.69 1141.87 35.59 1145.38 37.42"/><polygon class="cls-7" points="495.59 90.8 488.27 87.39 482.81 93.34 482.1 85.3 474.22 83.54 480.83 78.91 478.41 71.2 485.73 74.61 491.19 68.66 491.9 76.7 499.78 78.46 493.17 83.09 495.59 90.8"/><polygon class="cls-7" points="1181.59 190.79 1174.27 187.39 1168.81 193.34 1168.1 185.29 1160.22 183.54 1166.83 178.91 1164.41 171.21 1171.73 174.61 1177.19 168.66 1177.9 176.71 1185.78 178.46 1179.17 183.09 1181.59 190.79"/><polygon class="cls-7" points="1454.59 36.8 1447.27 33.39 1441.81 39.34 1441.1 31.3 1433.22 29.54 1439.83 24.91 1437.41 17.2 1444.73 20.61 1450.19 14.66 1450.9 22.7 1458.78 24.46 1452.17 29.09 1454.59 36.8"/><polygon class="cls-7" points="1578.59 118.8 1571.27 115.39 1565.81 121.34 1565.1 113.3 1557.22 111.54 1563.83 106.91 1561.41 99.2 1568.73 102.61 1574.19 96.66 1574.9 104.7 1582.78 106.46 1576.17 111.09 1578.59 118.8"/><polygon class="cls-7" points="1181.38 119.42 1177.66 120.78 1177.83 124.73 1174.79 122.19 1171.45 124.31 1172.13 120.41 1168.62 118.58 1172.34 117.22 1172.17 113.27 1175.21 115.81 1178.55 113.69 1177.87 117.59 1181.38 119.42"/><polygon class="cls-7" points="1418.38 68.42 1414.66 69.78 1414.83 73.73 1411.79 71.19 1408.45 73.31 1409.13 69.41 1405.62 67.58 1409.34 66.22 1409.17 62.27 1412.21 64.81 1415.55 62.69 1414.87 66.59 1418.38 68.42"/><polygon class="cls-7" points="1543.38 48.42 1539.66 49.77 1539.83 53.73 1536.79 51.19 1533.45 53.31 1534.13 49.41 1530.62 47.58 1534.34 46.23 1534.17 42.27 1537.21 44.81 1540.55 42.69 1539.87 46.59 1543.38 48.42"/><polygon class="cls-7" points="1420.38 140.42 1416.66 141.78 1416.83 145.73 1413.79 143.19 1410.45 145.31 1411.13 141.41 1407.62 139.58 1411.34 138.22 1411.17 134.27 1414.21 136.81 1417.55 134.69 1416.87 138.59 1420.38 140.42"/><circle class="cls-9" cx="93" cy="74" r="65"/><ellipse class="cls-10" cx="130.95" cy="58.09" rx="4.5" ry="4.54" transform="translate(-8.24 24.21) rotate(-10.24)"/><path class="cls-11" d="M133.28,58a1.65,1.65,0,0,0,.94.93c-.25-1.12.78-2.48,2.38-3.12s3.41-.28,3.82.87c-.41-1.15.64-2.64,2.33-3.32s3.42-.28,3.83.88c-.41-1.16.63-2.64,2.33-3.32s3.41-.28,3.82.88a2,2,0,0,1-.34,1.8c2.06-1.59,3.15-3.17,2.76-4.28-.73-2-6.21-1.75-12.25.65S132.55,56,133.28,58Z"/><path class="cls-12" d="M128.88,58.88A1.71,1.71,0,0,1,128.3,60c-.09-1.14-1.35-2.16-2.94-2.31s-3.1.7-3.16,1.93c.06-1.23-1.26-2.35-3-2.52s-3.1.7-3.15,1.93c.05-1.23-1.27-2.35-2.95-2.51s-3.1.7-3.16,1.92a2.07,2.07,0,0,0,.78,1.63c-2.24-.94-3.63-2.13-3.58-3.31.1-2.16,5-3.44,11-2.86S129,56.72,128.88,58.88Z"/><circle class="cls-13" cx="128.45" cy="57.24" r="0.88"/><circle class="cls-14" cx="131.17" cy="56.58" r="0.88"/><rect class="cls-15" x="587.65" y="296.92" width="86.04" height="136.62" transform="translate(184.3 -210.87) rotate(22.16)"/><polygon class="cls-16" points="678.37 226.31 687.76 272.32 697.16 318.34 656.02 302.77 614.89 287.2 646.63 256.75 678.37 226.31"/><ellipse class="cls-17" cx="604.63" cy="429.39" rx="21.22" ry="68.02" transform="translate(104.72 977.16) rotate(-83)"/><path d="M636.15,318.79v-.05a3.51,3.51,0,0,0-.23-2,2.89,2.89,0,0,0-1.12-1.18,5,5,0,0,0-1.67-.61q-.95-.18-1.92-.3l-.29-.06-.27,0a6.06,6.06,0,0,0-2.86.33,7.53,7.53,0,0,0-2.53,1.52,8.94,8.94,0,0,0-1.92,2.47,8.77,8.77,0,0,0-1,3.12l-.25,0c0-.35,0-.69,0-1s0-.64.08-1a9.22,9.22,0,0,1,1.28-3.22,8.89,8.89,0,0,1,2.33-2.48,9.54,9.54,0,0,1,3.17-1.49,9.74,9.74,0,0,1,3.75-.23l.58.07.29.05.27.07a15.79,15.79,0,0,1,2.41.57,5.13,5.13,0,0,1,1.85,1,3.69,3.69,0,0,1,1.08,1.77,6.93,6.93,0,0,1,.13,2.76,3.87,3.87,0,0,1-1.07,2.32,6.82,6.82,0,0,1-2.25,1.5.14.14,0,0,0-.06.12l.64.93L639,333.8l0,.25a3.78,3.78,0,0,0,.2,1.58c.19.58.39,1.16.61,1.74l-.06.27a1.9,1.9,0,0,1-.79-.56,7.9,7.9,0,0,1-.79-1.06c-.26-.41-.52-.86-.78-1.37s-.49-1-.71-1.49-.41-1-.59-1.42-.33-.85-.46-1.18c0-.05-.06-.12-.1-.2s-.12-.23-.22-.46-.27-.55-.48-1l-.89-1.82a2.87,2.87,0,0,1-.24-.59c-.09-.28-.18-.57-.27-.89s-.17-.6-.26-.88-.14-.48-.17-.6l-.22-.07-.22,0a2.06,2.06,0,0,0-.8,0,2,2,0,0,1-.4.08l-.31,5.35a2.77,2.77,0,0,0,.06,1.11,2.38,2.38,0,0,0,.36.75,2.24,2.24,0,0,0,.51.51c.2.13.37.26.52.37l0,.25c-.57-.12-1.15-.23-1.73-.33s-1.17-.2-1.77-.27a4.29,4.29,0,0,0-1,0l-1.15.17c-.4.07-.78.14-1.16.19a4.67,4.67,0,0,1-1,0l0-.25a.16.16,0,0,0,.09,0,6.89,6.89,0,0,0,.79-.41,4.3,4.3,0,0,0,1-.87,6,6,0,0,0,1-1.51,7.77,7.77,0,0,0,.62-2.36l.36-2.93a1.6,1.6,0,0,1-.56-.19,2,2,0,0,1-.67-.66l0-.3,1.32.16.2-1.64c.07-.59.12-1.15.15-1.66a5.28,5.28,0,0,0-.08-1.45,3.77,3.77,0,0,0-.51-1.27,4.64,4.64,0,0,0-1.12-1.15l0-.34.34.07a2.2,2.2,0,0,0,.37.06l.72.09c1,.12,1.9.21,2.82.28l2.72.18-.05.42a1,1,0,0,0-.62.2,2.54,2.54,0,0,0-.58.56,3.39,3.39,0,0,0-.45.76,2.86,2.86,0,0,0-.22.79l-.84,4.18c.36-.09.79-.23,1.29-.41a6.86,6.86,0,0,0,1.47-.76,5.25,5.25,0,0,0,1.26-1.23A3.76,3.76,0,0,0,636.15,318.79Z"/><path d="M655.2,317.53a1.19,1.19,0,0,0-1.06.42,4.74,4.74,0,0,0-.84,1.47,15.28,15.28,0,0,0-.64,2.37c-.18.92-.34,1.95-.48,3.08s-.24,2.15-.35,3.33-.19,2.4-.26,3.67a1.65,1.65,0,0,0,.1.78,5,5,0,0,0,.35.79,4.34,4.34,0,0,0,.5.69,4.5,4.5,0,0,0,.5.49l0,.24c-.57-.12-1.15-.23-1.73-.33s-1.17-.2-1.77-.27-1.2-.13-1.82-.18l-1.85-.1,0-.25.24-.09a3.75,3.75,0,0,0,.63-.32,2.21,2.21,0,0,0,.67-.64,4.69,4.69,0,0,0,.61-1.25,11.15,11.15,0,0,0,.44-2.14l.83-6.75.05-.39a2.15,2.15,0,0,0,0-.23.67.67,0,0,0,0-.2c0-.65.07-1.25.07-1.79a6.12,6.12,0,0,0-.15-1.44,2.32,2.32,0,0,0-.49-1,1.71,1.71,0,0,0-.93-.52l0-.34,1.62.12c.5,0,1,.07,1.47.13a3,3,0,0,0-1-.39,10.71,10.71,0,0,0-1.15-.2,6,6,0,0,0-2.85.33,7.72,7.72,0,0,0-2.53,1.54,9.55,9.55,0,0,0-2,2.47,9.71,9.71,0,0,0-1.11,3.08,8.77,8.77,0,0,1,0-1q0-.48.09-1a8.64,8.64,0,0,1,1-2.67,9,9,0,0,1,1.73-2.23,9.37,9.37,0,0,1,2.43-1.65,10.71,10.71,0,0,1,3.08-.9l.64,0,.61.06a13,13,0,0,1,1.82.34,6.13,6.13,0,0,1,1.35.54,6,6,0,0,1,1.08.8,14.54,14.54,0,0,1,1.05,1.11Z"/><path d="M667.21,322.48v-.05a3.43,3.43,0,0,0-.23-2,2.87,2.87,0,0,0-1.11-1.18,5.08,5.08,0,0,0-1.68-.61c-.63-.12-1.27-.22-1.91-.3a6.77,6.77,0,0,0-5.13,1.09,6.7,6.7,0,0,0-2.34,4.77l-.25,0a8.74,8.74,0,0,1,0-1c0-.33,0-.65.08-1a6.59,6.59,0,0,1,1-2.9,5.69,5.69,0,0,1,2.12-1.92,9,9,0,0,1,3.1-.93,16.59,16.59,0,0,1,3.91,0,14.31,14.31,0,0,1,2.52.53,4.93,4.93,0,0,1,1.88,1,3.77,3.77,0,0,1,1.08,1.78,7.08,7.08,0,0,1,.12,2.78,5.2,5.2,0,0,1-.93,2.34,10.23,10.23,0,0,1-1.91,2,12.58,12.58,0,0,1-2.52,1.61,12.4,12.4,0,0,1-2.7,1l-.24,3.62a1.88,1.88,0,0,0,.16,1.13,2.71,2.71,0,0,0,.65.78,4.57,4.57,0,0,0,.85.55c.3.14.57.28.81.41l0,.25-1-.19-1.22-.21-1.24-.19-1-.14a10.24,10.24,0,0,0-1.11-.08h-2.75c-.44,0-.82,0-1.14,0l0-.25.08,0a7.74,7.74,0,0,0,1.46-.27,2.92,2.92,0,0,0,1.18-.68,3.7,3.7,0,0,0,.87-1.34,8.6,8.6,0,0,0,.53-2.3l.78-6.32c.07-.6.12-1.12.14-1.55a3.76,3.76,0,0,0-.12-1.19,2.84,2.84,0,0,0-.54-1,6.28,6.28,0,0,0-1.14-1l0-.34.34.07a2,2,0,0,0,.37.06l.72.09c1,.12,1.89.21,2.81.28l2.72.18,0,.42a1,1,0,0,0-.63.22,2.64,2.64,0,0,0-.69,1,11.9,11.9,0,0,0-.7,2.23,38.19,38.19,0,0,0-.65,3.92l-.15,1.22a11.9,11.9,0,0,0,3.21-2.61A6.93,6.93,0,0,0,667.21,322.48Z"/><line class="cls-18" x1="638.09" y1="347.69" x2="622.39" y2="389.69"/><line class="cls-19" x1="647.94" y1="367.65" x2="613.17" y2="359.86"/><rect class="cls-20" x="829.57" y="52.3" width="28.49" height="131.46"/><polygon class="cls-21" points="910.05 14.31 987.51 145.3 1064.97 276.28 918.29 274.63 771.6 272.98 840.83 143.65 910.05 14.31"/><rect class="cls-22" x="772.59" y="93.73" width="45.49" height="179.92"/><polygon class="cls-23" points="819.1 94.22 795.14 94.61 771.18 94.99 782.63 61.67 794.08 28.34 806.59 61.28 819.1 94.22"/><rect class="cls-24" x="1026.28" y="75.67" width="37.87" height="200.47"/><polygon class="cls-25" points="1065 76.22 1045.05 76.65 1025.1 77.08 1034.64 39.95 1044.17 2.82 1054.58 39.52 1065 76.22"/><polygon class="cls-20" points="858.2 53.58 843.82 53.67 829.44 53.76 836.49 32.06 843.55 10.36 850.87 31.97 858.2 53.58"/><path class="cls-26" d="M997,93.54l-29.49.07v-.07C967.53,77,980.84,63.3,997,63.3s29.49,13.65,29.49,30.24Z"/><rect class="cls-27" x="967.53" y="92.79" width="58.98" height="181.94"/><rect class="cls-28" x="878.06" y="225.25" width="40.99" height="49.48"/><path class="cls-28" d="M898.55,225.5l-20.49,0c0-8.08,9.26-14.72,20.49-14.72S919,217.41,919,225.5Z"/><rect class="cls-29" x="881.55" y="232.75" width="15" height="17.99"/><rect class="cls-29" x="901.55" y="232.5" width="15.5" height="17.99"/><rect class="cls-29" x="880.3" y="255.49" width="15.5" height="17.99"/><rect class="cls-29" x="901.3" y="255.49" width="15.5" height="17.99"/><ellipse class="cls-30" cx="896.55" cy="253.99" rx="1.05" ry="1.5"/><ellipse class="cls-30" cx="901.05" cy="253.99" rx="1.05" ry="1.5"/><path class="cls-7" d="M860.31,204.5l-7.74.2v-.2c0-7.26,3.49-13.24,7.74-13.24s7.75,6,7.75,13.24Z"/><line class="cls-31" x1="860.31" y1="194.26" x2="860.31" y2="206.25"/><line class="cls-31" x1="866.06" y1="198.01" x2="854.57" y2="198.01"/><path class="cls-7" d="M912.3,74.05l-7.75.19v-.19c0-7.27,3.5-13.25,7.75-13.25s7.75,6,7.75,13.25Z"/><line class="cls-31" x1="912.3" y1="63.8" x2="912.3" y2="75.8"/><line class="cls-31" x1="918.05" y1="67.55" x2="906.55" y2="67.55"/><path class="cls-7" d="M796.83,109.53l-7.74.2v-.2c0-7.26,3.49-13.24,7.74-13.24s7.75,6,7.75,13.24Z"/><line class="cls-31" x1="796.83" y1="99.29" x2="796.83" y2="111.28"/><line class="cls-31" x1="802.58" y1="103.04" x2="791.09" y2="103.04"/><path class="cls-7" d="M796.83,161.52l-7.74.19v-.19c0-7.27,3.49-13.25,7.74-13.25s7.75,6,7.75,13.25Z"/><line class="cls-31" x1="796.83" y1="151.27" x2="796.83" y2="163.27"/><line class="cls-31" x1="802.58" y1="155.02" x2="791.09" y2="155.02"/><path class="cls-7" d="M790.83,203l-7.74.2V203c0-7.26,3.49-13.24,7.74-13.24s7.75,6,7.75,13.24Z"/><line class="cls-31" x1="790.83" y1="192.76" x2="790.83" y2="204.75"/><line class="cls-31" x1="796.58" y1="196.5" x2="785.09" y2="196.5"/><path class="cls-7" d="M843.82,77l-7.75.2V77c0-7.26,3.5-13.24,7.75-13.24s7.75,6,7.75,13.24Z"/><line class="cls-31" x1="843.82" y1="66.8" x2="843.82" y2="78.79"/><line class="cls-31" x1="849.57" y1="70.55" x2="838.07" y2="70.55"/><path class="cls-7" d="M946.79,204.5l-7.75.2v-.2c0-7.26,3.5-13.24,7.75-13.24s7.74,6,7.74,13.24Z"/><line class="cls-31" x1="946.79" y1="194.26" x2="946.79" y2="206.25"/><line class="cls-31" x1="952.54" y1="198.01" x2="941.04" y2="198.01"/><path class="cls-7" d="M912.3,127l-7.75.19V127c0-7.27,3.5-13.25,7.75-13.25s7.75,6,7.75,13.25Z"/><line class="cls-31" x1="912.3" y1="116.78" x2="912.3" y2="128.78"/><line class="cls-31" x1="918.05" y1="120.53" x2="906.55" y2="120.53"/><path class="cls-7" d="M981.28,122.53l-7.75.2v-.2c0-7.27,3.5-13.25,7.75-13.25s7.74,6,7.74,13.25Z"/><line class="cls-31" x1="981.28" y1="112.28" x2="981.28" y2="124.28"/><line class="cls-31" x1="987.02" y1="116.03" x2="975.53" y2="116.03"/><path class="cls-7" d="M1011.27,121.53l-7.75.2v-.2c0-7.27,3.5-13.24,7.75-13.24s7.74,6,7.74,13.24Z"/><line class="cls-31" x1="1011.27" y1="111.28" x2="1011.27" y2="123.28"/><line class="cls-31" x1="1017.02" y1="115.03" x2="1005.52" y2="115.03"/><path class="cls-7" d="M1046.76,90.54l-7.75.2v-.2c0-7.27,3.5-13.25,7.75-13.25s7.74,6,7.74,13.25Z"/><line class="cls-31" x1="1046.76" y1="80.29" x2="1046.76" y2="92.29"/><line class="cls-31" x1="1052.5" y1="84.04" x2="1041.01" y2="84.04"/><path class="cls-7" d="M1046.76,140.52l-7.75.2v-.2c0-7.26,3.5-13.24,7.75-13.24s7.74,6,7.74,13.24Z"/><line class="cls-31" x1="1046.76" y1="130.28" x2="1046.76" y2="142.27"/><line class="cls-31" x1="1052.5" y1="134.03" x2="1041.01" y2="134.03"/><path class="cls-7" d="M997.27,163l-7.75.19V163c0-7.27,3.5-13.25,7.75-13.25s7.75,6,7.75,13.25Z"/><line class="cls-31" x1="997.27" y1="152.77" x2="997.27" y2="164.77"/><line class="cls-31" x1="1003.02" y1="156.52" x2="991.52" y2="156.52"/><path class="cls-7" d="M981.28,206l-7.75.2V206c0-7.26,3.5-13.24,7.75-13.24s7.74,6,7.74,13.24Z"/><line class="cls-31" x1="981.28" y1="195.76" x2="981.28" y2="207.75"/><line class="cls-31" x1="987.02" y1="199.51" x2="975.53" y2="199.51"/><path class="cls-7" d="M1013.27,206l-7.75.2V206c0-7.26,3.5-13.24,7.75-13.24s7.74,6,7.74,13.24Z"/><line class="cls-31" x1="1013.27" y1="195.76" x2="1013.27" y2="207.75"/><line class="cls-31" x1="1019.01" y1="199.51" x2="1007.52" y2="199.51"/><polygon class="cls-32" points="784.52 221.87 782.78 222.53 781.05 223.18 780.45 218.98 779.86 214.78 782.19 218.33 784.52 221.87"/><polygon class="cls-32" points="794.52 223.55 792.74 223.03 790.95 222.52 792.95 218.96 794.94 215.39 794.73 219.47 794.52 223.55"/><ellipse class="cls-33" cx="786.7" cy="258.09" rx="14.5" ry="24.74"/><ellipse class="cls-34" cx="804.85" cy="268.49" rx="12.88" ry="5.22" transform="translate(324.54 967.91) rotate(-73.97)"/><ellipse class="cls-34" cx="768.88" cy="269.94" rx="5.22" ry="13.22" transform="translate(-45.98 276.74) rotate(-19.82)"/><path class="cls-34" d="M778.27,242.1l-4.6,4.6a2.73,2.73,0,0,1-.23-.25c-3.68-4.09-4.52-9.41-1.87-11.8s7.86-1,11.54,3.1Z"/><path class="cls-34" d="M794.91,242.1l-5.2-3.92.21-.26c3.54-4.21,8.7-5.79,11.43-3.5s2.07,7.65-1.46,11.86Z"/><ellipse class="cls-34" cx="780.19" cy="267.05" rx="3.73" ry="17.06"/><ellipse class="cls-34" cx="792.56" cy="267.05" rx="3.73" ry="17.06"/><ellipse class="cls-34" cx="787.76" cy="231.01" rx="10.66" ry="10.02"/><polygon class="cls-35" points="780.94 228.78 781.88 227.45 782.81 226.11 783.84 227.83 784.88 229.55 782.91 229.16 780.94 228.78"/><polygon class="cls-35" points="791.74 226.31 792.73 227.6 793.71 228.9 791.76 229.36 789.81 229.82 790.77 228.06 791.74 226.31"/><ellipse class="cls-7" cx="786.42" cy="231.66" rx="0.28" ry="0.39"/><polygon class="cls-7" points="782.75 236.9 782.35 235.83 781.94 234.76 783.07 234.94 784.2 235.12 783.48 236.01 782.75 236.9"/><polygon class="cls-7" points="786.59 237.76 786.18 236.69 785.77 235.61 786.91 235.79 788.04 235.98 787.32 236.87 786.59 237.76"/><ellipse cx="783.1" cy="228.52" rx="0.34" ry="0.69"/><ellipse cx="791.35" cy="228.52" rx="0.34" ry="0.69" transform="translate(-19.35 82.83) rotate(-5.92)"/><ellipse class="cls-7" cx="787.8" cy="231.66" rx="0.28" ry="0.39"/><polygon class="cls-32" points="1034.52 224.87 1032.78 225.53 1031.05 226.18 1030.45 221.98 1029.86 217.78 1032.19 221.33 1034.52 224.87"/><polygon class="cls-32" points="1044.52 226.55 1042.74 226.03 1040.95 225.52 1042.95 221.96 1044.94 218.39 1044.73 222.47 1044.52 226.55"/><ellipse class="cls-33" cx="1036.7" cy="261.09" rx="14.5" ry="24.74"/><ellipse class="cls-34" cx="1054.85" cy="271.49" rx="12.88" ry="5.22" transform="translate(502.63 1210.36) rotate(-73.97)"/><ellipse class="cls-34" cx="1018.88" cy="272.94" rx="5.22" ry="13.22" transform="translate(-32.18 361.7) rotate(-19.82)"/><path class="cls-34" d="M1028.27,245.1l-4.6,4.6a2.73,2.73,0,0,1-.23-.25c-3.68-4.09-4.52-9.41-1.87-11.8s7.86-1,11.54,3.1Z"/><path class="cls-34" d="M1044.91,245.1l-5.2-3.92.21-.26c3.54-4.21,8.7-5.79,11.43-3.5s2.07,7.65-1.46,11.86Z"/><ellipse class="cls-34" cx="1030.19" cy="270.05" rx="3.73" ry="17.06"/><ellipse class="cls-34" cx="1042.56" cy="270.05" rx="3.73" ry="17.06"/><ellipse class="cls-34" cx="1037.76" cy="234.01" rx="10.66" ry="10.02"/><polygon class="cls-35" points="1030.94 231.78 1031.88 230.45 1032.81 229.11 1033.84 230.83 1034.88 232.55 1032.91 232.16 1030.94 231.78"/><polygon class="cls-35" points="1041.74 229.31 1042.73 230.6 1043.71 231.9 1041.76 232.36 1039.81 232.82 1040.78 231.06 1041.74 229.31"/><ellipse class="cls-7" cx="1036.42" cy="234.66" rx="0.28" ry="0.39"/><polygon class="cls-7" points="1032.75 239.9 1032.35 238.83 1031.94 237.76 1033.07 237.94 1034.2 238.12 1033.48 239.01 1032.75 239.9"/><polygon class="cls-7" points="1036.59 240.76 1036.18 239.69 1035.78 238.61 1036.91 238.79 1038.04 238.98 1037.32 239.87 1036.59 240.76"/><ellipse cx="1033.1" cy="231.52" rx="0.34" ry="0.69"/><ellipse cx="1041.35" cy="231.52" rx="0.34" ry="0.69" transform="translate(-18.33 108.63) rotate(-5.92)"/><ellipse class="cls-7" cx="1037.8" cy="234.66" rx="0.28" ry="0.39"/><circle class="cls-36" cx="1515" cy="163" r="2.83"/><polygon class="cls-37" points="1527.04 555.18 1519.62 546.4 1512.2 537.62 1529.69 530.38 1547.17 523.13 1537.1 539.16 1527.04 555.18"/><polygon class="cls-37" points="1521.04 566.59 1523.77 557.69 1526.49 548.78 1538.48 557.32 1550.47 565.87 1535.75 566.23 1521.04 566.59"/><polygon class="cls-37" points="1509.66 575.59 1517.38 570.37 1525.1 565.15 1533.04 585.21 1540.98 605.26 1525.32 590.42 1509.66 575.59"/><polygon class="cls-37" points="1496.76 540.01 1489.96 550.59 1483.16 561.18 1469.55 544.96 1455.94 528.74 1476.35 534.37 1496.76 540.01"/><ellipse class="cls-7" cx="1520.27" cy="186.9" rx="8.13" ry="26.5" transform="translate(-11.29 165.33) rotate(-6.2)"/><circle class="cls-36" cx="1482.5" cy="71.5" r="4"/><circle class="cls-36" cx="1494.09" cy="87.09" r="1.91"/><circle class="cls-36" cx="1481.09" cy="99.09" r="1.91"/><path class="cls-38" d="M1504.87,316.66l-37.33-.17c0-107,16.86-195,37.33-195s37.33,88.09,37.33,195.13Z"/><g class="cls-39"><ellipse class="cls-36" cx="1504.29" cy="80.33" rx="41.31" ry="27.54"/><ellipse class="cls-36" cx="1476.75" cy="59.24" rx="23.24" ry="18.5"/><ellipse class="cls-36" cx="1534.84" cy="57.95" rx="22.81" ry="19.79"/><ellipse class="cls-36" cx="1554.64" cy="89.36" rx="19.36" ry="16.78"/><ellipse class="cls-36" cx="1531.4" cy="109.16" rx="31.41" ry="13.34"/><ellipse class="cls-36" cx="1477.61" cy="100.12" rx="34.42" ry="22.38"/><ellipse class="cls-36" cx="1506.44" cy="47.19" rx="17.64" ry="9.04"/><ellipse class="cls-36" cx="1459.97" cy="78.61" rx="16.78" ry="11.19"/></g><path class="cls-40" d="M1505.25,78l23.36,27.52A32,32,0,0,1,1505.25,116c-18.58,0-33.86-17.16-33.86-38s15.28-38,33.86-38a31,31,0,0,1,15.44,4.18Z"/><path class="cls-41" d="M1504.87,316.66l37.33.18c0,107-16.86,195-37.33,195s-37.33-88.09-37.33-195.14Z"/><polygon class="cls-37" points="1515.29 535.49 1498.92 541.75 1482.55 548.02 1484.29 528.05 1486.03 508.08 1500.66 521.78 1515.29 535.49"/><polygon class="cls-37" points="1520.9 541.92 1509.82 538.86 1498.73 535.81 1509.07 519.95 1519.4 504.1 1520.15 523.01 1520.9 541.92"/><polygon class="cls-37" points="1492.3 563.05 1504.88 563.08 1517.46 563.11 1511.13 584.16 1504.79 605.2 1498.55 584.13 1492.3 563.05"/><polygon class="cls-37" points="1483.19 563.28 1494.14 569.48 1505.09 575.68 1492.48 585.17 1479.88 594.66 1481.53 578.97 1483.19 563.28"/><polygon class="cls-37" points="1496.43 549.69 1498.02 558.91 1499.61 568.14 1471.09 568.29 1442.58 568.44 1469.51 559.07 1496.43 549.69"/><ellipse class="cls-42" cx="1504.1" cy="552.1" rx="22.32" ry="22.99"/><polygon class="cls-43" points="70.22 310.44 79.45 303 128.72 360.07 119.49 367.51 70.22 310.44"/><polygon class="cls-43" points="106.59 375.7 122.81 362.86 139.02 350.02 149.51 378.37 160 406.73 133.3 391.21 106.59 375.7"/><rect class="cls-44" x="70.33" y="208.68" width="15.62" height="104.37"/><polygon class="cls-45" points="105.74 213.52 78.5 213.28 51.25 213.03 65.22 175.02 79.18 137 92.46 175.26 105.74 213.52"/><polygon class="cls-43" points="184 276.92 194.93 267 267.77 324.46 256.84 334.38 184 276.92"/><polygon class="cls-43" points="242.69 346.7 261.93 329.54 281.17 312.38 299.11 343.1 317.04 373.82 279.86 360.26 242.69 346.7"/><rect class="cls-44" x="184" y="131" width="22" height="147"/><polygon class="cls-46" points="233.87 137.82 195.5 137.48 157.13 137.13 176.79 83.59 196.46 30.05 215.16 83.93 233.87 137.82"/><polygon class="cls-43" points="306 296.04 315.83 289 362.8 349.76 352.97 356.8 306 296.04"/><polygon class="cls-43" points="339.33 366.45 356.58 354.33 373.83 342.2 382.92 371.6 392 401 365.66 383.73 339.33 366.45"/><rect class="cls-44" x="306.33" y="196.68" width="15.62" height="104.37"/><polygon class="cls-47" points="341.74 201.52 314.5 201.28 287.25 201.03 301.22 163.02 315.18 125 328.46 163.26 341.74 201.52"/><polygon class="cls-43" points="1377 368.15 1393 348.67 1409 329.2 1429.4 360.1 1449.8 391 1413.4 379.58 1377 368.15"/><polygon class="cls-43" points="1311 296.09 1320.07 284.84 1398.33 342.09 1389.26 353.33 1311 296.09"/><g class="cls-48"><polygon points="1276.3 371.81 1285.21 357.28 1294.13 342.75 1310.01 362.5 1325.89 382.25 1301.09 377.03 1276.3 371.81"/><rect x="1254.92" y="309.09" width="9.77" height="65.31" transform="matrix(-0.52, 0.86, -0.86, -0.52, 2201.93, -561.75)"/></g><rect class="cls-44" x="1310.86" y="123.72" width="26.09" height="174.33"/><polygon class="cls-49" points="1370 131.81 1324.5 131.4 1278.99 130.99 1302.31 67.5 1325.63 4 1347.82 67.9 1370 131.81"/><rect class="cls-44" x="1228.33" y="224.68" width="15.62" height="104.37"/><ellipse class="cls-50" cx="388.5" cy="644" rx="106.5" ry="83"/><ellipse class="cls-8" cx="420.5" cy="538" rx="53.5" ry="53"/><ellipse class="cls-8" cx="248.5" cy="439" rx="53.5" ry="53"/><ellipse class="cls-50" cx="335.5" cy="415" rx="53.5" ry="53"/><ellipse class="cls-51" cx="409.5" cy="444" rx="64.5" ry="58"/><ellipse class="cls-50" cx="463.5" cy="391" rx="21.5" ry="21.3"/><ellipse class="cls-51" cx="207.5" cy="633" rx="106.5" ry="83"/><ellipse class="cls-50" cx="195.5" cy="526" rx="53.5" ry="53"/><ellipse class="cls-52" cx="313.5" cy="533" rx="106.5" ry="83"/><path class="cls-53" d="M295.21,558.5Q304,575.22,322,567.33c6.73-5.61,10.67-12.55,5.53-23.83"/><circle class="cls-7" cx="274.5" cy="670.5" r="0.5"/><polygon class="cls-54" points="1263.74 229.52 1236.5 229.28 1209.25 229.03 1223.22 191.02 1237.18 153 1250.46 191.26 1263.74 229.52"/><polygon class="cls-55" points="1313.56 423 1320.46 440.33 1327.37 457.66 1327.25 447.67 1327.13 437.67 1320.35 430.34 1313.56 423"/><ellipse class="cls-43" cx="1297.07" cy="594.9" rx="75.73" ry="128.25" transform="translate(647.76 1865.61) rotate(-87.57)"/><circle class="cls-56" cx="1300.94" cy="492.46" r="43.79"/><ellipse class="cls-56" cx="1330.59" cy="500.69" rx="43.79" ry="40.8" transform="translate(492.35 1648.96) rotate(-74.49)"/><circle class="cls-57" cx="1301.57" cy="493.19" r="41.24"/><ellipse class="cls-57" cx="1329.5" cy="500.94" rx="41.24" ry="38.42" transform="translate(491.32 1648.09) rotate(-74.49)"/><circle class="cls-58" cx="1302.21" cy="493.91" r="38.69"/><ellipse class="cls-58" cx="1328.41" cy="501.18" rx="38.69" ry="36.04" transform="translate(490.29 1647.22) rotate(-74.49)"/><polygon points="1297.5 486.94 1289 484.67 1280.49 482.4 1286.94 475.3 1293.4 468.2 1295.45 477.57 1297.5 486.94"/><polygon class="cls-58" points="1284.66 482.81 1283.12 482.42 1281.58 482.03 1282.53 481.54 1283.47 481.05 1284.06 481.93 1284.66 482.81"/><rect class="cls-58" x="1283.24" y="482.72" width="12.31" height="1.41" transform="translate(176.2 -327.16) rotate(15.51)"/><polygon class="cls-58" points="1296.52 486.1 1295.2 485.77 1293.88 485.43 1294.71 484.92 1295.55 484.4 1296.03 485.25 1296.52 486.1"/><rect class="cls-58" x="1279.82" y="475.79" width="15.52" height="0.9" transform="translate(81.93 1132.81) rotate(-48.87)"/><polygon class="cls-58" points="1291.53 471.52 1292.34 470.21 1293.15 468.9 1293.1 469.77 1293.04 470.64 1292.29 471.08 1291.53 471.52"/><rect x="1281.4" y="481.2" width="3.58" height="0.35" transform="translate(-80.18 621.05) rotate(-26.41)"/><polygon points="1340.2 498.79 1331.7 496.52 1323.19 494.25 1329.64 487.15 1336.1 480.05 1338.15 489.42 1340.2 498.79"/><polygon class="cls-58" points="1327.36 494.66 1325.82 494.27 1324.28 493.88 1325.23 493.39 1326.17 492.9 1326.76 493.78 1327.36 494.66"/><rect class="cls-58" x="1325.94" y="494.57" width="12.31" height="1.41" transform="translate(180.92 -338.14) rotate(15.51)"/><polygon class="cls-58" points="1339.22 497.95 1337.9 497.62 1336.58 497.28 1337.41 496.76 1338.25 496.25 1338.73 497.1 1339.22 497.95"/><rect class="cls-58" x="1322.52" y="487.64" width="15.52" height="0.9" transform="translate(87.61 1169.02) rotate(-48.87)"/><polygon class="cls-58" points="1334.23 483.37 1335.04 482.06 1335.85 480.75 1335.8 481.62 1335.74 482.49 1334.98 482.93 1334.23 483.37"/><rect x="1324.1" y="493.04" width="3.58" height="0.35" transform="translate(-81 641.28) rotate(-26.41)"/><polygon class="cls-59" points="1272.15 488.3 1279.11 498.09 1290.35 495.85 1298.82 504.8 1312.69 503.77 1323.45 512.12 1338.28 509.23 1342.56 516.51 1351.13 511.76 1339.27 527.98 1329.85 520.89 1313.89 524.73 1307.84 514.78 1293.9 517.5 1286.45 508 1276.37 510.58 1272.15 488.3"/><polygon class="cls-58" points="1280.65 508.87 1279 509.35 1277.34 509.83 1275.65 500.93 1273.96 492.02 1277.31 500.45 1280.65 508.87"/><polygon class="cls-58" points="1297.27 514.98 1295.96 516.09 1294.64 517.21 1291.71 512.43 1288.78 507.66 1293.02 511.31 1297.27 514.98"/><polygon class="cls-58" points="1317.29 522.04 1315.97 523.16 1314.66 524.28 1311.7 519.47 1308.73 514.65 1313.01 518.35 1317.29 522.04"/><polygon class="cls-58" points="1340.68 524.85 1339.91 526.04 1339.15 527.23 1335.15 523.82 1331.15 520.42 1335.91 522.63 1340.68 524.85"/><polygon class="cls-58" points="1314.44 524.09 1314.22 523.14 1314.01 522.18 1319.19 521.5 1324.38 520.81 1319.41 522.45 1314.44 524.09"/><polygon class="cls-58" points="1294.26 517.11 1294.11 516.14 1293.95 515.18 1298.73 514.9 1303.51 514.63 1298.88 515.87 1294.26 517.11"/><circle class="cls-56" cx="1204.06" cy="559.62" r="68.76"/><ellipse class="cls-56" cx="1252.34" cy="561.66" rx="68.76" ry="64.07" transform="translate(638.13 1789.09) rotate(-87.57)"/><circle class="cls-57" cx="1205.29" cy="560.5" r="64.76"/><ellipse class="cls-57" cx="1250.77" cy="562.43" rx="64.76" ry="60.34" transform="translate(635.86 1788.25) rotate(-87.57)"/><circle class="cls-58" cx="1206.53" cy="561.38" r="60.75"/><ellipse class="cls-58" cx="1249.19" cy="563.19" rx="60.75" ry="56.6" transform="translate(633.59 1787.4) rotate(-87.57)"/><polygon class="cls-55" points="1198.68 448.88 1215.4 472.93 1232.13 496.99 1228.4 481.74 1224.66 466.49 1211.67 457.69 1198.68 448.88"/><polygon points="1196.85 552.39 1183.03 551.95 1169.21 551.49 1176.56 538.34 1183.9 525.18 1190.38 538.79 1196.85 552.39"/><polygon class="cls-58" points="1175.73 550.64 1173.24 550.59 1170.75 550.54 1172.02 549.45 1173.29 548.37 1174.51 549.5 1175.73 550.64"/><rect class="cls-58" x="1173.53" y="548.78" width="19.33" height="2.21" transform="matrix(1, 0.04, -0.04, 1, 24.35, -49.63)"/><polygon class="cls-58" points="1195.04 551.46 1192.91 551.41 1190.77 551.37 1191.86 550.28 1192.95 549.19 1194 550.33 1195.04 551.46"/><rect class="cls-58" x="1165.68" y="538.85" width="24.38" height="1.42" transform="translate(147.81 1325.35) rotate(-61.95)"/><polygon class="cls-58" points="1182.23 530.93 1183 528.63 1183.78 526.34 1184 527.69 1184.23 529.04 1183.23 529.99 1182.23 530.93"/><rect x="1170.16" y="548.68" width="5.63" height="0.55" transform="translate(-81.34 871.32) rotate(-39.49)"/><polygon points="1266.38 555.34 1252.56 554.89 1238.74 554.44 1246.09 541.28 1253.43 528.13 1259.9 541.73 1266.38 555.34"/><polygon class="cls-58" points="1245.26 553.59 1242.77 553.54 1240.28 553.48 1241.55 552.4 1242.81 551.32 1244.04 552.45 1245.26 553.59"/><rect class="cls-58" x="1243.05" y="551.73" width="19.33" height="2.21" transform="translate(24.54 -52.57) rotate(2.43)"/><polygon class="cls-58" points="1264.57 554.41 1262.43 554.36 1260.3 554.32 1261.39 553.23 1262.48 552.14 1263.53 553.27 1264.57 554.41"/><rect class="cls-58" x="1235.2" y="541.8" width="24.38" height="1.42" transform="translate(182.04 1388.27) rotate(-61.95)"/><polygon class="cls-58" points="1251.76 533.87 1252.53 531.58 1253.3 529.28 1253.53 530.64 1253.76 531.99 1252.76 532.93 1251.76 533.87"/><rect x="1239.68" y="551.63" width="5.63" height="0.55" transform="translate(-67.34 916.21) rotate(-39.49)"/><ellipse class="cls-60" cx="1263.53" cy="521.67" rx="17.26" ry="35.09" transform="translate(350.56 1539.08) rotate(-70.53)"/><polygon class="cls-59" points="1158.56 563.48 1172.67 575.98 1189.08 568.56 1205.21 579.25 1226.06 572.74 1245.49 581.68 1267.14 571.99 1276.27 581.6 1287.7 571.29 1275.32 600.31 1258.38 592.82 1235.35 604.37 1222.55 591.3 1202.2 600.42 1187.42 588.52 1172.93 596.06 1158.56 563.48"/><polygon class="cls-58" points="1206.45 595.35 1204.84 597.53 1203.23 599.71 1197.05 593.44 1190.86 587.18 1198.66 591.26 1206.45 595.35"/><polygon class="cls-58" points="1239.59 599.05 1237.97 601.23 1236.36 603.41 1230.12 597.1 1223.87 590.79 1231.73 594.92 1239.59 599.05"/><polygon class="cls-58" points="1276.36 595.04 1275.62 597.13 1274.87 599.22 1267.54 595.43 1260.21 591.64 1268.28 593.34 1276.36 595.04"/><polygon class="cls-58" points="1235.96 603.19 1235.29 601.81 1234.62 600.43 1242.3 597.54 1249.99 594.64 1242.97 598.92 1235.96 603.19"/><polygon class="cls-58" points="1202.61 599.68 1202.03 598.26 1201.45 596.84 1208.66 594.73 1215.87 592.61 1209.24 596.14 1202.61 599.68"/><circle class="cls-56" cx="1347.48" cy="575.58" r="49.45"/><ellipse class="cls-56" cx="1381" cy="566.39" rx="46.07" ry="49.45" transform="translate(-100.6 385.23) rotate(-15.33)"/><circle class="cls-57" cx="1348.52" cy="575.91" r="46.57"/><ellipse class="cls-57" cx="1380.08" cy="567.26" rx="43.39" ry="46.57" transform="translate(-100.86 385.02) rotate(-15.33)"/><circle class="cls-58" cx="1349.56" cy="576.24" r="43.69"/><ellipse class="cls-58" cx="1379.17" cy="568.13" rx="40.71" ry="43.69" transform="translate(-101.12 384.81) rotate(-15.33)"/><polygon class="cls-55" points="1319.5 500.91 1336.24 513.72 1352.97 526.53 1347.07 516.9 1341.17 507.28 1330.34 504.1 1319.5 500.91"/><polygon points="1340.96 572.21 1331.39 574.93 1321.83 577.66 1323.98 567.03 1326.12 556.41 1333.54 564.31 1340.96 572.21"/><polygon class="cls-58" points="1326.11 575.64 1324.39 576.15 1322.67 576.66 1323.31 575.64 1323.94 574.62 1325.02 575.13 1326.11 575.64"/><rect class="cls-58" x="1324.1" y="572.7" width="13.9" height="1.59" transform="translate(-104.25 372.28) rotate(-15.33)"/><polygon class="cls-58" points="1339.52 571.97 1338.04 572.4 1336.57 572.84 1337.08 571.86 1337.59 570.88 1338.55 571.42 1339.52 571.97"/><rect class="cls-58" x="1316.37" y="567.07" width="17.53" height="1.02" transform="translate(529.91 1769.98) rotate(-79.71)"/><polygon class="cls-58" points="1326.24 560.72 1326.26 558.97 1326.29 557.23 1326.74 558.11 1327.19 558.99 1326.71 559.85 1326.24 560.72"/><rect x="1321.83" y="574.9" width="4.05" height="0.4" transform="translate(124 1377.38) rotate(-57.25)"/><polygon points="1389.22 558.98 1379.66 561.7 1370.1 564.43 1372.24 553.8 1374.39 543.18 1381.8 551.08 1389.22 558.98"/><polygon class="cls-58" points="1374.37 562.41 1372.66 562.92 1370.94 563.43 1371.57 562.41 1372.2 561.39 1373.29 561.9 1374.37 562.41"/><rect class="cls-58" x="1372.37" y="559.47" width="13.9" height="1.59" transform="matrix(0.96, -0.26, 0.26, 0.96, -99.04, 384.57)"/><polygon class="cls-58" points="1387.78 558.74 1386.31 559.17 1384.83 559.61 1385.34 558.63 1385.85 557.64 1386.82 558.19 1387.78 558.74"/><rect class="cls-58" x="1364.64" y="553.84" width="17.53" height="1.02" transform="translate(582.57 1806.6) rotate(-79.71)"/><polygon class="cls-58" points="1374.5 547.49 1374.53 545.74 1374.55 544 1375 544.88 1375.46 545.76 1374.98 546.62 1374.5 547.49"/><rect x="1370.09" y="561.67" width="4.05" height="0.4" transform="translate(157.28 1411.9) rotate(-57.25)"/><polygon class="cls-59" points="1317.16 588.2 1329.57 593.67 1339.18 584.99 1352.57 588.77 1365.43 579.74 1380.69 581.6 1393.4 570.22 1401.76 574.8 1407.33 565.23 1405.21 587.82 1391.97 586.4 1378.72 599.36 1367.09 593.22 1355.16 603.93 1342.42 599.02 1334.15 607.37 1317.16 588.2"/><polygon class="cls-58" points="1337.31 603.23 1335.98 604.65 1334.65 606.08 1327.86 598.42 1321.07 590.76 1329.19 597 1337.31 603.23"/><polygon class="cls-58" points="1356.96 599.53 1356.33 601.37 1355.7 603.22 1350.09 600.28 1344.48 597.35 1350.72 598.44 1356.96 599.53"/><polygon class="cls-58" points="1380.46 594.79 1379.83 596.64 1379.21 598.48 1373.55 595.53 1367.89 592.58 1374.17 593.69 1380.46 594.79"/><polygon class="cls-58" points="1404.77 583.98 1404.71 585.57 1404.66 587.17 1398.81 586.18 1392.96 585.19 1398.86 584.59 1404.77 583.98"/><polygon class="cls-58" points="1378.88 598.42 1378.12 597.63 1377.36 596.83 1381.99 593.16 1386.62 589.49 1382.75 593.96 1378.88 598.42"/><polygon class="cls-58" points="1355.27 603.34 1354.57 602.49 1353.86 601.64 1358.33 598.61 1362.81 595.58 1359.04 599.46 1355.27 603.34"/><ellipse class="cls-61" cx="1344.38" cy="477.9" rx="12.23" ry="24.49" transform="translate(258.32 1403.21) rotate(-60)"/><ellipse class="cls-62" cx="1382.63" cy="533.61" rx="12.23" ry="24.49" transform="translate(681.48 1839.3) rotate(-82.87)"/><path d="M1167.79,904.23l-176.75-1c.74-91.27,76.1-167,169.87-170.79,96.89-3.88,179.72,70.47,183.5,164.69Z"/><path d="M1414.09,903.72l-187.29-1.27c.69-109.82,85.45-199.71,188-199.36,101.8.34,185.61,89.53,186.6,198.57Z"/><polygon class="cls-63" points="1142.51 635.73 1208.46 696.01 1274.41 756.28 1253.04 713.45 1231.66 670.62 1187.09 653.18 1142.51 635.73"/><path class="cls-7" d="M1472.11,807l-4.65-7.07q-1.92-2.91-3.53-5.27t-3.1-4.55c-1-1.47-2.11-3.14-3.35-5v-.06c0-.12.31-.29.93-.49s1.29-.41,2-.59l2-.53a3,3,0,0,0,.93-.31h-.12a15.37,15.37,0,0,0-7,1.67,19.86,19.86,0,0,0-5.86,4.53,23.39,23.39,0,0,0-4.12,6.64,24,24,0,0,0-1.83,8,20.92,20.92,0,0,1-.34-2.51c-.06-.8-.09-1.6-.09-2.39a27,27,0,0,1,1.55-7.47,19.79,19.79,0,0,1,3.81-6.48,18.1,18.1,0,0,1,6.29-4.55,21.69,21.69,0,0,1,9-1.71c.7,0,1.42,0,2.14.1l2.26.21.07.75a1,1,0,0,0-.75.37,2.85,2.85,0,0,0-.49.87,5,5,0,0,0-.28,1.08,6.62,6.62,0,0,0-.1,1.15,3.16,3.16,0,0,0,.28,1c.19.46.59,1.26,1.21,2.42s1.52,2.8,2.7,4.93,2.78,5,4.8,8.58h.62a29,29,0,0,0,2.82-5.92c.73-2.08,1.36-4,1.9-5.79a7.17,7.17,0,0,0,.18-1.55,1.75,1.75,0,0,0-.49-1.34,4.08,4.08,0,0,0-2.11-.65v-.74a29.29,29.29,0,0,1,3.28-.19c1,0,2,0,2.89.1s1.74.09,2.57.09,1.66,0,2.76-.09,2.08-.1,2.94-.1a5.91,5.91,0,0,1,1.86.19v.74a7.28,7.28,0,0,0-1.89.34,16.76,16.76,0,0,0-2.32.9,11.93,11.93,0,0,0-2.23,1.37,7,7,0,0,0-1.68,1.73l-8.18,13.08a3.93,3.93,0,0,0-.25.63,2.17,2.17,0,0,0-.12.68c.2.45.48,1,.83,1.7s.85,1.68,1.49,3l2.57,5.21q1.62,3.25,4,8l5.64,11.47q.75,3,1.52,5.46a17.11,17.11,0,0,0,2,4.28h-1.12l-21.58-32.37q-1.8,3.16-3.25,6.33t-2.45,5.83c-.08.41-.17.77-.25,1.08a3.6,3.6,0,0,0-.12.9v.06a.88.88,0,0,0,.43.78,4.06,4.06,0,0,0,1.12.46c.45.13,1,.24,1.49.34l1.61.34.06.87h-5.77l-.31,0-.62-.06-1.17-.06c-.5,0-1.14,0-1.93,0-.49,0-1.06,0-1.7.09l-2,.19-1.9.15c-.59,0-1.14.06-1.64.06a2.59,2.59,0,0,1-1.24-.18l.06-1a10.64,10.64,0,0,0,2-.65,14.9,14.9,0,0,0,2.17-1.17,17.66,17.66,0,0,0,2.1-1.65,10.63,10.63,0,0,0,1.77-2Z"/><path class="cls-7" d="M1506.52,787.19q6,.43,12,.62a60.71,60.71,0,0,0,12-.81c-.7,3.15-1.36,6.51-2,10.11a22.52,22.52,0,0,1-.93-4.12,3.88,3.88,0,0,0-2.42-3.2,7.42,7.42,0,0,0-5-.58q-3,.52-2.14,3.75a4.1,4.1,0,0,0,2,4.49,33.66,33.66,0,0,1,4.3,3,23.69,23.69,0,0,1,5.12,4.83,5,5,0,0,1,.15,6.45,18.55,18.55,0,0,1-9.36,5.61,36.41,36.41,0,0,0-10.17,4.25c-.16-2.52-.29-5-.37-7.56s-.27-5-.56-7.57c.5-.7,1-1.41,1.46-2.14s1-1.43,1.46-2.14c0,2.4-.12,4.81-.34,7.23a23.11,23.11,0,0,0,.46,7.22,7.06,7.06,0,0,0,4.13.28,10.72,10.72,0,0,0,4.12-1.8,9.61,9.61,0,0,0,2.91-3.28,5.48,5.48,0,0,0,.44-4.19,13.81,13.81,0,0,0-5.34-5.49,22.13,22.13,0,0,0-7.25-2.69q-.18-2.79-.59-6.58a4.44,4.44,0,0,0-4.06-4.34Z"/><ellipse class="cls-64" cx="1412.71" cy="831.02" rx="18.82" ry="23.06" transform="translate(-53.2 97.92) rotate(-3.9)"/><polygon class="cls-64" points="1427.51 817.36 1411.78 818.52 1396.06 819.68 1402.95 805.92 1409.84 792.17 1418.67 804.76 1427.51 817.36"/><ellipse class="cls-7" cx="1423.25" cy="823.79" rx="4.51" ry="9.99" transform="translate(-182.4 468.61) rotate(-17.59)"/><ellipse class="cls-7" cx="1425.66" cy="837.36" rx="2.71" ry="3.05" transform="translate(386.46 2123.35) rotate(-81.49)"/><ellipse class="cls-7" cx="1095.95" cy="845.34" rx="23" ry="28.18" transform="translate(-54.91 76.43) rotate(-3.9)"/><polygon class="cls-7" points="1114.04 828.64 1094.82 830.06 1075.6 831.48 1084.02 814.67 1092.44 797.86 1103.24 813.25 1114.04 828.64"/><ellipse class="cls-7" cx="1108.83" cy="836.51" rx="5.51" ry="12.21" transform="translate(-200.95 374.19) rotate(-17.59)"/><ellipse class="cls-7" cx="1111.78" cy="853.1" rx="3.32" ry="3.73" transform="translate(103.49 1826.33) rotate(-81.49)"/><ellipse class="cls-64" cx="1096.9" cy="844.51" rx="18.82" ry="23.06" transform="translate(-54.85 76.49) rotate(-3.9)"/><polygon class="cls-64" points="1111.7 830.85 1095.97 832.01 1080.24 833.17 1087.13 819.41 1094.03 805.66 1102.86 818.25 1111.7 830.85"/><ellipse class="cls-7" cx="1107.44" cy="837.28" rx="4.51" ry="9.99" transform="translate(-201.25 373.81) rotate(-17.59)"/><ellipse class="cls-7" cx="1109.85" cy="850.86" rx="2.71" ry="3.05" transform="translate(104.06 1822.51) rotate(-81.49)"/><ellipse class="cls-7" cx="1176.9" cy="841.84" rx="23" ry="28.18" transform="translate(-54.48 81.92) rotate(-3.9)"/><polygon class="cls-7" points="1194.99 825.13 1175.77 826.55 1156.55 827.97 1164.97 811.16 1173.39 794.35 1184.19 809.74 1194.99 825.13"/><ellipse class="cls-7" cx="1189.78" cy="833" rx="5.51" ry="12.21" transform="translate(-196.1 398.49) rotate(-17.59)"/><ellipse class="cls-7" cx="1192.73" cy="849.59" rx="3.32" ry="3.73" transform="translate(175.92 1903.4) rotate(-81.49)"/><ellipse class="cls-64" cx="1177.84" cy="841" rx="18.82" ry="23.06" transform="translate(-54.43 81.98) rotate(-3.9)"/><polygon class="cls-64" points="1192.65 827.34 1176.92 828.5 1161.19 829.66 1168.08 815.9 1174.98 802.15 1183.81 814.75 1192.65 827.34"/><ellipse class="cls-7" cx="1188.39" cy="833.77" rx="4.51" ry="9.99" transform="translate(-196.4 398.11) rotate(-17.59)"/><ellipse class="cls-7" cx="1190.8" cy="847.35" rx="2.71" ry="3.05" transform="translate(176.49 1899.58) rotate(-81.49)"/><ellipse class="cls-7" cx="1257.71" cy="836.33" rx="23" ry="28.18" transform="translate(-53.92 87.4) rotate(-3.9)"/><polygon class="cls-7" points="1275.8 819.63 1256.58 821.05 1237.36 822.47 1245.78 805.66 1254.2 788.85 1265 804.24 1275.8 819.63"/><ellipse class="cls-7" cx="1270.6" cy="827.5" rx="5.51" ry="12.21" transform="translate(-190.66 422.66) rotate(-17.59)"/><ellipse class="cls-7" cx="1273.54" cy="844.09" rx="3.32" ry="3.73" transform="translate(250.22 1978.63) rotate(-81.49)"/><ellipse class="cls-64" cx="1258.66" cy="835.5" rx="18.82" ry="23.06" transform="translate(-53.86 87.46) rotate(-3.9)"/><polygon class="cls-64" points="1273.46 821.84 1257.73 822.99 1242 824.15 1248.9 810.4 1255.79 796.65 1264.62 809.24 1273.46 821.84"/><ellipse class="cls-7" cx="1269.2" cy="828.27" rx="4.51" ry="9.99" transform="translate(-190.96 422.27) rotate(-17.59)"/><ellipse class="cls-7" cx="1271.61" cy="841.84" rx="2.71" ry="3.05" transform="translate(250.79 1974.81) rotate(-81.49)"/><ellipse class="cls-7" cx="1330.54" cy="831.37" rx="23" ry="28.18" transform="translate(-53.42 92.33) rotate(-3.9)"/><polygon class="cls-7" points="1348.63 814.67 1329.41 816.09 1310.19 817.5 1318.61 800.7 1327.04 783.88 1337.84 799.28 1348.63 814.67"/><ellipse class="cls-7" cx="1343.43" cy="822.54" rx="5.51" ry="12.21" transform="translate(-185.76 444.43) rotate(-17.59)"/><ellipse class="cls-7" cx="1346.37" cy="839.13" rx="3.32" ry="3.73" transform="matrix(0.15, -0.99, 0.99, 0.15, 317.17, 2046.43)"/><ellipse class="cls-64" cx="1331.49" cy="830.54" rx="18.82" ry="23.06" transform="translate(-53.36 92.4) rotate(-3.9)"/><polygon class="cls-64" points="1346.29 816.87 1330.56 818.03 1314.84 819.19 1321.73 805.44 1328.62 791.69 1337.45 804.28 1346.29 816.87"/><ellipse class="cls-7" cx="1342.03" cy="823.31" rx="4.51" ry="9.99" transform="translate(-186.05 444.05) rotate(-17.59)"/><ellipse class="cls-7" cx="1344.44" cy="836.88" rx="2.71" ry="3.05" transform="translate(317.74 2042.61) rotate(-81.49)"/><ellipse class="cls-7" cx="1405.37" cy="826.27" rx="23" ry="28.18" transform="matrix(1, -0.07, 0.07, 1, -52.9, 97.41)"/><polygon class="cls-7" points="1423.46 809.57 1404.24 810.99 1385.02 812.41 1393.44 795.6 1401.86 778.79 1412.66 794.18 1423.46 809.57"/><ellipse class="cls-7" cx="1418.25" cy="817.44" rx="5.51" ry="12.21" transform="translate(-180.72 466.81) rotate(-17.59)"/><ellipse class="cls-7" cx="1421.2" cy="834.03" rx="3.32" ry="3.73" transform="translate(385.96 2116.09) rotate(-81.49)"/><ellipse class="cls-64" cx="1406.31" cy="825.44" rx="18.82" ry="23.06" transform="translate(-52.84 97.47) rotate(-3.9)"/><polygon class="cls-64" points="1421.12 811.78 1405.39 812.94 1389.66 814.1 1396.55 800.34 1403.45 786.59 1412.28 799.18 1421.12 811.78"/><ellipse class="cls-7" cx="1416.86" cy="818.21" rx="4.51" ry="9.99" transform="matrix(0.95, -0.3, 0.3, 0.95, -181.02, 466.42)"/><ellipse class="cls-7" cx="1419.27" cy="831.79" rx="2.71" ry="3.05" transform="translate(386.53 2112.27) rotate(-81.49)"/><ellipse class="cls-65" cx="1247.04" cy="85.85" rx="32.11" ry="39.82" transform="translate(1065 1322.52) rotate(-85.56)"/><ellipse class="cls-65" cx="1189.59" cy="81.07" rx="31.24" ry="25.19" transform="translate(-0.64 152.17) rotate(-7.32)"/><ellipse class="cls-65" cx="1131.33" cy="96.25" rx="32.11" ry="39.82" transform="translate(947.88 1216.76) rotate(-85.56)"/><ellipse class="cls-65" cx="1152.01" cy="49.88" rx="28.73" ry="29.34" transform="translate(1013.19 1194.58) rotate(-85.56)"/><ellipse class="cls-65" cx="1244.12" cy="40.32" rx="19.51" ry="17.99" transform="translate(854.35 1222.49) rotate(-73.61)"/><ellipse class="cls-65" cx="1205.22" cy="44.15" rx="25.11" ry="31.13" transform="translate(1068 1242.35) rotate(-85.56)"/><ellipse class="cls-65" cx="1206.21" cy="103.5" rx="12.08" ry="11.14" transform="translate(766.53 1231.48) rotate(-73.61)"/><g class="cls-66"><path class="cls-67" d="M1209.76,119.47l-57.26,5.4q-.06-.39-.09-.78c-1.16-14.36,23.78-28.26,55.24-30.79s58.3,7.19,59.46,21.54Z"/><ellipse class="cls-67" cx="1252.95" cy="124.58" rx="28.3" ry="17.69" transform="translate(-5.96 101.09) rotate(-4.61)"/><ellipse class="cls-67" cx="1201.35" cy="128.74" rx="28.3" ry="17.69" transform="translate(-6.46 96.96) rotate(-4.61)"/><ellipse class="cls-67" cx="1156.69" cy="130.84" rx="28.3" ry="17.69" transform="translate(-6.77 93.38) rotate(-4.61)"/><ellipse class="cls-67" cx="1163.83" cy="108.23" rx="20.85" ry="15.83" transform="translate(-4.93 93.88) rotate(-4.61)"/><ellipse class="cls-67" cx="1246.05" cy="101.6" rx="21.04" ry="17.69" transform="translate(-4.13 100.46) rotate(-4.61)"/><ellipse class="cls-67" cx="1202.11" cy="101.03" rx="28.3" ry="17.69" transform="translate(-4.23 96.93) rotate(-4.61)"/></g><ellipse class="cls-43" cx="87.95" cy="724.74" rx="22.74" ry="54.64" transform="translate(-639.93 668.4) rotate(-78.65)"/><ellipse class="cls-68" cx="85.85" cy="725.28" rx="4.32" ry="54.88" transform="translate(-640.29 803.57) rotate(-89.4)"/><circle class="cls-69" cx="141.27" cy="723.94" r="2.51"/><circle class="cls-70" cx="142.02" cy="727.5" r="2.51"/><circle class="cls-71" cx="31.32" cy="727.43" r="2.51"/><circle class="cls-72" cx="30.87" cy="723" r="2.51"/><circle class="cls-73" cx="57.15" cy="691.92" r="2.51"/><circle class="cls-74" cx="54.78" cy="694.99" r="2.51"/><ellipse class="cls-75" cx="85.74" cy="719.75" rx="3.71" ry="39.86" transform="translate(-502.23 295.86) rotate(-47.42)"/><ellipse class="cls-76" cx="113.63" cy="747.95" rx="2.17" ry="2.08" transform="translate(-234.57 76.31) rotate(-18.77)"/><ellipse class="cls-77" cx="116.62" cy="745.48" rx="2.17" ry="2.08" transform="translate(-233.62 77.14) rotate(-18.77)"/><circle class="cls-78" cx="93.56" cy="703.2" r="21.75"/><rect class="cls-79" x="66.46" y="712.85" width="47.19" height="11.71" rx="5.86" transform="translate(143.15 -3.67) rotate(11.35)"/><circle cx="82.68" cy="693.62" r="4.18"/><circle cx="98.38" cy="697.62" r="4.18"/><rect x="74.43" y="711.73" width="3.9" height="3.9" transform="translate(141.89 -1.08) rotate(11.35)"/><rect x="79.24" y="711.62" width="4.46" height="4.46" transform="translate(142.03 -2.08) rotate(11.35)"/><rect x="84.1" y="714.3" width="4.46" height="4.46" transform="translate(142.65 -2.98) rotate(11.35)"/><rect x="89.74" y="713.38" width="3.9" height="3.9" transform="translate(142.52 -4.06) rotate(11.35)"/><rect x="93.95" y="716.5" width="3.9" height="3.9" transform="translate(143.21 -4.83) rotate(11.35)"/><rect x="98.99" y="715.97" width="2.79" height="2.79" transform="translate(143.09 -5.73) rotate(11.35)"/><ellipse class="cls-65" cx="659.01" cy="113.51" rx="32.11" ry="39.82" transform="translate(487.57 759.87) rotate(-84.92)"/><ellipse class="cls-65" cx="601.63" cy="108.07" rx="31.24" ry="25.19" transform="translate(-8.48 70.61) rotate(-6.67)"/><ellipse class="cls-65" cx="543.2" cy="122.6" rx="32.11" ry="39.82" transform="translate(372.96 652.8) rotate(-84.92)"/><ellipse class="cls-65" cx="564.4" cy="76.46" rx="28.73" ry="29.34" transform="translate(438.23 631.86) rotate(-84.92)"/><ellipse class="cls-65" cx="656.61" cy="67.94" rx="19.51" ry="17.99" transform="translate(399.25 675.82) rotate(-72.96)"/><ellipse class="cls-65" cx="617.67" cy="71.33" rx="25.11" ry="31.13" transform="translate(491.9 680.25) rotate(-84.92)"/><ellipse class="cls-65" cx="617.99" cy="130.69" rx="12.08" ry="11.14" transform="translate(311.95 683.26) rotate(-72.96)"/><g class="cls-66"><path class="cls-67" d="M621.35,146.7,564,151.45c0-.26-.06-.52-.08-.78-1-14.37,24.09-28,55.58-30.16s58.22,7.84,59.21,22.21Z"/><ellipse class="cls-67" cx="664.48" cy="152.29" rx="28.3" ry="17.69" transform="translate(-8.93 46.28) rotate(-3.96)"/><ellipse class="cls-67" cx="612.84" cy="155.87" rx="28.3" ry="17.69" transform="translate(-9.31 42.72) rotate(-3.96)"/><ellipse class="cls-67" cx="568.16" cy="157.47" rx="28.3" ry="17.69" transform="translate(-9.52 39.63) rotate(-3.96)"/><ellipse class="cls-67" cx="575.56" cy="134.94" rx="20.85" ry="15.83" transform="translate(-7.95 40.09) rotate(-3.96)"/><ellipse class="cls-67" cx="657.85" cy="129.24" rx="21.04" ry="17.69" transform="translate(-7.36 45.76) rotate(-3.96)"/><ellipse class="cls-67" cx="613.91" cy="128.17" rx="28.3" ry="17.69" transform="matrix(1, -0.07, 0.07, 1, -7.39, 42.73)"/></g></g></g></svg>