<svg xmlns="http://www.w3.org/2000/svg" xmlns:xlink="http://www.w3.org/1999/xlink" width="1600" height="900" viewBox="0 0 1600 900"><defs><style>.cls-1,.cls-123{fill:none;}.cls-2{isolation:isolate;}.cls-3{fill:url(#linear-gradient);}.cls-4{fill:url(#New_Gradient_Swatch_2);}.cls-5{fill:url(#New_Gradient_Swatch_2-2);}.cls-6{fill:url(#New_Gradient_Swatch_2-3);}.cls-7{fill:url(#New_Gradient_Swatch_2-4);}.cls-8{fill:url(#New_Gradient_Swatch_1);}.cls-44,.cls-82,.cls-9{fill:#fff;}.cls-10{fill:#383536;}.cls-11,.cls-14{opacity:0.65;}.cls-12{fill:#3f2300;}.cls-13{fill:url(#New_Gradient_Swatch_2-5);}.cls-15{fill:#020202;}.cls-16{fill:url(#New_Gradient_Swatch_2-6);}.cls-17{fill:url(#linear-gradient-2);}.cls-18{fill:#c6c4c4;}.cls-19{fill:url(#linear-gradient-3);}.cls-20,.cls-21{fill:#ccc;}.cls-20,.cls-21,.cls-38,.cls-44{stroke:#000;}.cls-123,.cls-20,.cls-21,.cls-38,.cls-44{stroke-miterlimit:10;}.cls-20{stroke-width:4px;}.cls-21{stroke-width:3px;}.cls-22{fill:url(#linear-gradient-4);}.cls-23{fill:url(#linear-gradient-5);}.cls-24{fill:url(#linear-gradient-6);}.cls-25{fill:url(#linear-gradient-7);}.cls-26{fill:url(#linear-gradient-8);}.cls-27{fill:url(#linear-gradient-9);}.cls-28{fill:url(#linear-gradient-10);}.cls-29{fill:url(#linear-gradient-11);}.cls-30{fill:url(#linear-gradient-12);}.cls-31{fill:url(#linear-gradient-13);}.cls-32{fill:url(#White_Black);}.cls-33{fill:url(#linear-gradient-14);}.cls-34{fill:#e85c0f;}.cls-35{fill:#ee6e08;}.cls-36{fill:#f47f00;}.cls-37{fill:#27140b;}.cls-39,.cls-40,.cls-41,.cls-75,.cls-76,.cls-79,.cls-82,.cls-86,.cls-93{mix-blend-mode:screen;}.cls-39{fill:url(#linear-gradient-15);}.cls-40{fill:url(#linear-gradient-16);}.cls-41{fill:url(#linear-gradient-17);}.cls-42{fill:#f40600;}.cls-43{fill:url(#linear-gradient-18);}.cls-45{fill:#010101;}.cls-46{fill:#030303;}.cls-47{fill:#040303;}.cls-48{fill:#050404;}.cls-49{fill:#060505;}.cls-50{fill:#070606;}.cls-51{fill:#080707;}.cls-52{fill:#090808;}.cls-53{fill:#0a0909;}.cls-54{fill:#0b0a0a;}.cls-55{fill:#0c0a0a;}.cls-56{fill:#0d0b0b;}.cls-57{fill:#0e0c0c;}.cls-58{fill:#0f0d0d;}.cls-59{fill:#0f0e0e;}.cls-60{fill:#100f0f;}.cls-61{fill:#111010;}.cls-62{fill:#121111;}.cls-63{fill:#131111;}.cls-64{fill:#141212;}.cls-65{fill:#151313;}.cls-66{fill:#161414;}.cls-67{fill:#171515;}.cls-68{fill:#181616;}.cls-69{fill:#191717;}.cls-70{fill:#1a1818;}.cls-71{fill:#1b1818;}.cls-72{fill:#1c1919;}.cls-73{fill:#1d1a1a;}.cls-74{fill:#1e1b1b;}.cls-75{fill:url(#linear-gradient-19);}.cls-76{fill:url(#linear-gradient-20);}.cls-77{fill:#ff0;}.cls-78{clip-path:url(#clip-path);}.cls-80{clip-path:url(#clip-path-5);}.cls-81{fill:url(#linear-gradient-21);}.cls-83{fill:#9f0800;}.cls-84{fill:#ae100b;}.cls-85{fill:#bc1915;}.cls-86{fill:url(#linear-gradient-22);}.cls-87{filter:url(#AI_Shadow_1);}.cls-88{opacity:0.48;}.cls-89{fill:#606060;}.cls-90{filter:url(#AI_BevelShadow_1);}.cls-91{fill:url(#New_Gradient_Swatch_2-7);}.cls-92{fill:#350e00;}.cls-93{fill:url(#linear-gradient-23);}.cls-94{fill:url(#New_Gradient_Swatch_5);}.cls-95{fill:url(#New_Gradient_Swatch_5-2);}.cls-96{fill:url(#New_Gradient_Swatch_5-3);}.cls-97{fill:#e8a7e8;}.cls-98{fill:#8a1300;}.cls-99{fill:#060323;}.cls-100{fill:#160e5e;}.cls-101{fill:#01010f;}.cls-102{fill:url(#linear-gradient-24);}.cls-103{fill:#b41400;}.cls-104{fill:#11093f;}.cls-105{fill:url(#linear-gradient-25);}.cls-106{fill:#d89144;}.cls-107{fill:url(#linear-gradient-26);}.cls-108{clip-path:url(#clip-path-6);}.cls-109{clip-path:url(#clip-path-10);}.cls-110{fill:url(#linear-gradient-27);}.cls-111{clip-path:url(#clip-path-11);}.cls-112{clip-path:url(#clip-path-15);}.cls-113{fill:url(#linear-gradient-28);}.cls-114{fill:#f2f2f1;}.cls-115{fill:#ccbb96;}.cls-116{fill:url(#New_Gradient_Swatch_3);}.cls-117{fill:url(#linear-gradient-29);}.cls-118{fill:url(#linear-gradient-30);}.cls-119{fill:url(#New_Gradient_Swatch_3-2);}.cls-120{fill:url(#New_Gradient_Swatch_3-3);}.cls-121{fill:url(#linear-gradient-31);}.cls-122{fill:url(#linear-gradient-32);}.cls-123{stroke:#fff;}</style><linearGradient id="linear-gradient" x1="800" y1="332" x2="800" gradientUnits="userSpaceOnUse"><stop offset="0" stop-color="#e85c0f"/><stop offset="0.27" stop-color="#393332"/><stop offset="0.31" stop-color="#312d33"/><stop offset="0.42" stop-color="#1e1e35"/><stop offset="0.54" stop-color="#101337"/><stop offset="0.7" stop-color="#080d38"/><stop offset="1" stop-color="#060b38"/></linearGradient><linearGradient id="New_Gradient_Swatch_2" x1="259.25" y1="69.75" x2="1346.75" y2="1157.25" gradientUnits="userSpaceOnUse"><stop offset="0" stop-color="#005f02"/><stop offset="0.37" stop-color="#004506"/><stop offset="0.74" stop-color="#00310a"/><stop offset="1" stop-color="#002a0b"/></linearGradient><linearGradient id="New_Gradient_Swatch_2-2" x1="255.3" y1="186.98" x2="369" y2="186.98" xlink:href="#New_Gradient_Swatch_2"/><linearGradient id="New_Gradient_Swatch_2-3" x1="1332.3" y1="281.76" x2="1446" y2="281.76" xlink:href="#New_Gradient_Swatch_2"/><linearGradient id="New_Gradient_Swatch_2-4" x1="1473.22" y1="313.3" x2="1589" y2="313.3" xlink:href="#New_Gradient_Swatch_2"/><linearGradient id="New_Gradient_Swatch_1" x1="235" y1="128" x2="7" y2="128" gradientUnits="userSpaceOnUse"><stop offset="0" stop-color="#fff"/><stop offset="0.17" stop-color="#fdfdfb"/><stop offset="1" stop-color="#e9ff6a"/></linearGradient><linearGradient id="New_Gradient_Swatch_2-5" x1="23.42" y1="368.04" x2="141.38" y2="436.15" xlink:href="#New_Gradient_Swatch_2"/><linearGradient id="New_Gradient_Swatch_2-6" x1="1241.17" y1="364.41" x2="1313.13" y2="364.41" xlink:href="#New_Gradient_Swatch_2"/><linearGradient id="linear-gradient-2" x1="1373.33" y1="546.36" x2="1373.33" y2="675.92" gradientTransform="translate(-118.49 378.69) rotate(-15.15)" gradientUnits="userSpaceOnUse"><stop offset="0" stop-color="#c6c4c4"/><stop offset="0.1" stop-color="#bfbbba"/><stop offset="0.26" stop-color="#aca59e"/><stop offset="0.47" stop-color="#8d7f72"/><stop offset="0.73" stop-color="#634d34"/><stop offset="0.92" stop-color="#3f2100"/><stop offset="0.93" stop-color="#3a250e"/><stop offset="0.93" stop-color="#35291f"/><stop offset="0.94" stop-color="#312d2a"/><stop offset="0.96" stop-color="#2f2e31"/><stop offset="1" stop-color="#2e2f33"/></linearGradient><linearGradient id="linear-gradient-3" x1="1287.38" y1="663.04" x2="1400.53" y2="663.04" gradientTransform="translate(1810.97 -760.95) rotate(81.9)" gradientUnits="userSpaceOnUse"><stop offset="0" stop-color="#002f0a"/><stop offset="1" stop-color="#2a170c"/></linearGradient><linearGradient id="linear-gradient-4" x1="1145.5" y1="508.15" x2="1145.5" y2="518.38" gradientTransform="translate(1600.89 -656.45) rotate(87.14)" gradientUnits="userSpaceOnUse"><stop offset="0" stop-color="#fff"/><stop offset="0.34" stop-color="#a7a7a7"/><stop offset="1"/></linearGradient><linearGradient id="linear-gradient-5" x1="1200.93" y1="511.61" x2="1200.93" y2="516.63" gradientTransform="matrix(1, 0, 0, 1, 0, 0)" xlink:href="#linear-gradient-4"/><linearGradient id="linear-gradient-6" x1="1201.54" y1="515.2" x2="1201.54" y2="520.21" gradientTransform="matrix(1, 0, 0, 1, 0, 0)" xlink:href="#linear-gradient-4"/><linearGradient id="linear-gradient-7" x1="1090.92" y1="510.75" x2="1090.92" y2="515.77" gradientTransform="matrix(1, 0, 0, 1, 0, 0)" xlink:href="#linear-gradient-4"/><linearGradient id="linear-gradient-8" x1="1090.65" y1="506.3" x2="1090.65" y2="511.32" gradientTransform="matrix(1, 0, 0, 1, 0, 0)" xlink:href="#linear-gradient-4"/><linearGradient id="linear-gradient-9" x1="1118.14" y1="476.29" x2="1118.14" y2="481.31" gradientUnits="userSpaceOnUse"><stop offset="0" stop-color="#fff"/><stop offset="0.09" stop-color="#f7f7f7"/><stop offset="0.22" stop-color="#e0e0e0"/><stop offset="0.39" stop-color="#bababa"/><stop offset="0.58" stop-color="#868686"/><stop offset="0.8" stop-color="#444"/><stop offset="1"/></linearGradient><linearGradient id="linear-gradient-10" x1="1115.66" y1="479.26" x2="1115.66" y2="484.28" xlink:href="#linear-gradient-9"/><linearGradient id="linear-gradient-11" x1="1145.61" y1="479.5" x2="1145.61" y2="535.97" gradientTransform="translate(697.64 -662.54) rotate(45.15)" xlink:href="#linear-gradient-9"/><linearGradient id="linear-gradient-12" x1="1172.36" y1="534.92" x2="1172.36" y2="539.1" gradientTransform="translate(200.77 -310.83) rotate(16.5)" xlink:href="#linear-gradient-9"/><linearGradient id="linear-gradient-13" x1="1175.44" y1="532.57" x2="1175.44" y2="536.76" gradientTransform="translate(200.23 -311.8) rotate(16.5)" xlink:href="#linear-gradient-9"/><linearGradient id="White_Black" x1="1143.2" y1="472.67" x2="1164.95" y2="510.34" gradientUnits="userSpaceOnUse"><stop offset="0" stop-color="#fff"/><stop offset="1"/></linearGradient><linearGradient id="linear-gradient-14" x1="1151.54" y1="496.58" x2="1151.91" y2="517.99" gradientTransform="matrix(0.9, -0.24, 0.22, 0.97, -0.51, 284.89)" gradientUnits="userSpaceOnUse"><stop offset="0" stop-color="#fff"/><stop offset="0.14" stop-color="#d0d0d0"/><stop offset="0.38" stop-color="#878787"/><stop offset="0.59" stop-color="#4d4d4d"/><stop offset="0.77" stop-color="#232323"/><stop offset="0.92" stop-color="#090909"/><stop offset="1"/></linearGradient><linearGradient id="linear-gradient-15" x1="134.5" y1="690.73" x2="134.5" y2="732.23" gradientTransform="translate(872.42 614.15) rotate(90)" gradientUnits="userSpaceOnUse"><stop offset="0" stop-color="#fff"/><stop offset="0.07" stop-color="#dedede"/><stop offset="0.22" stop-color="#a4a4a4"/><stop offset="0.36" stop-color="#727272"/><stop offset="0.5" stop-color="#494949"/><stop offset="0.64" stop-color="#292929"/><stop offset="0.77" stop-color="#121212"/><stop offset="0.89" stop-color="#050505"/><stop offset="1"/></linearGradient><linearGradient id="linear-gradient-16" x1="206.75" y1="613.85" x2="206.75" y2="642.32" gradientTransform="matrix(0, 1.02, -1.03, 0, 907.02, 485.69)" xlink:href="#linear-gradient-15"/><linearGradient id="linear-gradient-17" x1="278.59" y1="644.6" x2="278.59" y2="673.07" gradientTransform="matrix(0, 1.02, -1.03, 0, 984.78, 479.61)" xlink:href="#linear-gradient-15"/><linearGradient id="linear-gradient-18" x1="1092.12" y1="669.29" x2="1092.12" y2="786.59" gradientUnits="userSpaceOnUse"><stop offset="0" stop-color="#c6c4c4"/><stop offset="0.12" stop-color="#bbb9b9"/><stop offset="0.32" stop-color="#9e9b9b"/><stop offset="0.6" stop-color="#6f6b6a"/><stop offset="0.88" stop-color="#393332"/><stop offset="0.97" stop-color="#323033"/><stop offset="1" stop-color="#2e2f33"/></linearGradient><linearGradient id="linear-gradient-19" x1="967.88" y1="1140.7" x2="967.88" y2="1149.02" gradientTransform="matrix(0.32, 0, 0, 0.27, 756.75, 478.36)" xlink:href="#linear-gradient-15"/><linearGradient id="linear-gradient-20" x1="1534.98" y1="1053.63" x2="1534.98" y2="1061.95" gradientTransform="matrix(0, 0.32, -0.27, 0, 1405.21, 306.38)" xlink:href="#linear-gradient-15"/><clipPath id="clip-path"><rect class="cls-1" x="504.36" y="393.58" width="42.04" height="21.12" transform="translate(-115.06 233.3) rotate(-22.63)"/></clipPath><clipPath id="clip-path-5"><path class="cls-1" d="M545.73,398.43c1.51,5.5-6.38,12.51-17.62,15.66s-21.58,1.25-23.08-4.25,6.38-12.5,17.62-15.66,21.57-1.24,23.08,4.25"/></clipPath><linearGradient id="linear-gradient-21" x1="-970" y1="370" x2="-969" y2="370" gradientTransform="matrix(5.46, 19.91, 20.01, -5.61, -1585.87, 21783.55)" gradientUnits="userSpaceOnUse"><stop offset="0" stop-color="#fff"/><stop offset="0.07" stop-color="#dfdfdf"/><stop offset="0.22" stop-color="#a5a5a5"/><stop offset="0.36" stop-color="#727272"/><stop offset="0.5" stop-color="#494949"/><stop offset="0.64" stop-color="#292929"/><stop offset="0.77" stop-color="#121212"/><stop offset="0.89" stop-color="#050505"/><stop offset="1"/></linearGradient><linearGradient id="linear-gradient-22" x1="760.74" y1="419.68" x2="760.74" y2="445.38" gradientTransform="translate(-1.84 6.15)" gradientUnits="userSpaceOnUse"><stop offset="0" stop-color="#fff"/><stop offset="0.2" stop-color="#c3c3c3"/><stop offset="0.49" stop-color="#707070"/><stop offset="0.73" stop-color="#343434"/><stop offset="0.91" stop-color="#0e0e0e"/><stop offset="1"/></linearGradient><filter id="AI_Shadow_1" name="AI_Shadow_1"><feGaussianBlur result="blur" stdDeviation="2" in="SourceAlpha"/><feOffset result="offsetBlurredAlpha" dx="4" dy="4" in="blur"/><feMerge><feMergeNode in="offsetBlurredAlpha"/><feMergeNode in="SourceGraphic"/></feMerge></filter><filter id="AI_BevelShadow_1" x="-20" y="-20" width="140" height="140" name="AI_BevelShadow_1"><feGaussianBlur result="blur" stdDeviation="4" in="SourceAlpha"/><feOffset result="offsetBlur" dx="4" dy="4" in="blur"/><feSpecularLighting result="specOut" surfaceScale="5" specularExponent="10" in="blur"><fePointLight x="-5000" y="-10000" z="-20000"/></feSpecularLighting><feComposite result="specOut" operator="in" in="specOut" in2="SourceAlpha"/><feComposite result="litPaint" operator="arithmetic" k2="1" k3="1" in="SourceGraphic" in2="specOut"/><feMerge><feMergeNode in="offsetBlur"/><feMergeNode in="litPaint"/></feMerge></filter><linearGradient id="New_Gradient_Swatch_2-7" x1="108.17" y1="254.06" x2="244.08" y2="254.06" xlink:href="#New_Gradient_Swatch_2"/><linearGradient id="linear-gradient-23" x1="901.46" y1="526.23" x2="901.46" y2="582.23" gradientTransform="translate(1463.86 -357.87) rotate(90)" xlink:href="#linear-gradient-15"/><linearGradient id="New_Gradient_Swatch_5" x1="923.95" y1="467.38" x2="1002.2" y2="467.38" gradientTransform="matrix(0.94, -0.03, 0.14, 0.94, -8.91, 57.18)" gradientUnits="userSpaceOnUse"><stop offset="0" stop-color="#fff"/><stop offset="0.33" stop-color="#f9b56b"/><stop offset="0.57" stop-color="#f47f00"/><stop offset="0.62" stop-color="#d56f00"/><stop offset="0.81" stop-color="#633400"/><stop offset="0.94" stop-color="#1c0f00"/><stop offset="1"/></linearGradient><linearGradient id="New_Gradient_Swatch_5-2" x1="961.58" y1="477.13" x2="1057.42" y2="477.13" gradientTransform="matrix(1, 0, 0, 1, 0, 0)" xlink:href="#New_Gradient_Swatch_5"/><linearGradient id="New_Gradient_Swatch_5-3" x1="997.62" y1="517.4" x2="1051" y2="517.4" gradientTransform="translate(38.66 -70.69) rotate(4.03)" xlink:href="#New_Gradient_Swatch_5"/><linearGradient id="linear-gradient-24" x1="1245.54" y1="621.69" x2="1312.07" y2="621.69" gradientUnits="userSpaceOnUse"><stop offset="0.2" stop-color="#160e5e"/><stop offset="0.32" stop-color="#130c53"/><stop offset="0.76" stop-color="#0a0530"/><stop offset="1" stop-color="#060323"/></linearGradient><linearGradient id="linear-gradient-25" x1="1227.75" y1="650.32" x2="1351.6" y2="650.32" gradientTransform="translate(289.24 -391.46) rotate(19.4)" xlink:href="#linear-gradient-24"/><linearGradient id="linear-gradient-26" x1="1265.12" y1="773.03" x2="1346.61" y2="725.99" xlink:href="#linear-gradient-24"/><clipPath id="clip-path-6"><rect class="cls-1" x="1271.89" y="815.27" width="7.62" height="3.92" transform="translate(-176.89 386.82) rotate(-16.14)"/></clipPath><clipPath id="clip-path-10"><path class="cls-1" d="M1279.49,816.63c.17,1-1.4,2.16-3.49,2.49s-3.92-.24-4.08-1.29,1.39-2.16,3.48-2.49,3.92.25,4.09,1.29"/></clipPath><linearGradient id="linear-gradient-27" x1="-970" y1="370" x2="-969" y2="370" gradientTransform="matrix(0, 3.83, 3.77, 0, -119.64, 4530.26)" xlink:href="#linear-gradient-21"/><clipPath id="clip-path-11"><rect class="cls-1" x="1308.13" y="813.58" width="3.92" height="7.62" transform="translate(284.71 1971.98) rotate(-80.35)"/></clipPath><clipPath id="clip-path-15"><path class="cls-1" d="M1313.77,818.5c-.31,1-2.2,1.34-4.23.73s-3.42-1.93-3.12-2.94,2.2-1.34,4.23-.73,3.42,1.93,3.12,2.94"/></clipPath><linearGradient id="linear-gradient-28" x1="-970" y1="370" x2="-969" y2="370" gradientTransform="matrix(-3.83, 0, 0, 3.77, -2402.93, -577.95)" xlink:href="#linear-gradient-21"/><linearGradient id="New_Gradient_Swatch_3" x1="547.1" y1="768.4" x2="711.45" y2="768.4" gradientUnits="userSpaceOnUse"><stop offset="0" stop-color="#5c0074"/><stop offset="0.01" stop-color="#590070"/><stop offset="0.14" stop-color="#3e004e"/><stop offset="0.27" stop-color="#270032"/><stop offset="0.41" stop-color="#16001c"/><stop offset="0.57" stop-color="#0a000c"/><stop offset="0.75" stop-color="#020003"/><stop offset="1"/></linearGradient><linearGradient id="linear-gradient-29" x1="596.04" y1="637.98" x2="619.56" y2="637.98" gradientUnits="userSpaceOnUse"><stop offset="0.42" stop-color="#5c0074"/><stop offset="0.43" stop-color="#590070"/><stop offset="0.5" stop-color="#3e004e"/><stop offset="0.58" stop-color="#270032"/><stop offset="0.66" stop-color="#16001c"/><stop offset="0.75" stop-color="#0a000c"/><stop offset="0.85" stop-color="#020003"/><stop offset="1"/></linearGradient><linearGradient id="linear-gradient-30" x1="637.99" y1="638.07" x2="664.72" y2="638.07" gradientUnits="userSpaceOnUse"><stop offset="0.38" stop-color="#5c0074"/><stop offset="0.39" stop-color="#590070"/><stop offset="0.47" stop-color="#3e004e"/><stop offset="0.55" stop-color="#270032"/><stop offset="0.64" stop-color="#16001c"/><stop offset="0.73" stop-color="#0a000c"/><stop offset="0.84" stop-color="#020003"/><stop offset="1"/></linearGradient><linearGradient id="New_Gradient_Swatch_3-2" x1="571.29" y1="573.34" x2="641.49" y2="573.34" xlink:href="#New_Gradient_Swatch_3"/><linearGradient id="New_Gradient_Swatch_3-3" x1="546.44" y1="540.41" x2="588.93" y2="515.88" xlink:href="#New_Gradient_Swatch_3"/><linearGradient id="linear-gradient-31" x1="570.31" y1="736.7" x2="570.31" y2="806.37" gradientUnits="userSpaceOnUse"><stop offset="0" stop-color="#b40f00"/><stop offset="0.11" stop-color="#ae0e00"/><stop offset="0.27" stop-color="#9b0d00"/><stop offset="0.46" stop-color="#7e0a00"/><stop offset="0.66" stop-color="#540700"/><stop offset="0.88" stop-color="#200300"/><stop offset="1"/></linearGradient><linearGradient id="linear-gradient-32" x1="689.38" y1="736.7" x2="689.38" y2="806.37" gradientUnits="userSpaceOnUse"><stop offset="0" stop-color="#b40f00"/><stop offset="0.11" stop-color="#ad0e00"/><stop offset="0.27" stop-color="#990d00"/><stop offset="0.47" stop-color="#790a00"/><stop offset="0.69" stop-color="#4c0600"/><stop offset="0.92" stop-color="#140200"/><stop offset="1"/></linearGradient></defs><title>Titlescreen</title><g class="cls-2"><g id="Layer_1" data-name="Layer 1"><rect class="cls-3" width="1600" height="332"/><rect class="cls-4" x="2" y="327" width="1602" height="573"/><polygon class="cls-5" points="369 315 312.15 314.49 255.3 313.99 284.86 186.47 314.43 58.95 341.71 186.97 369 315"/><polygon class="cls-6" points="1446 370 1389.15 369.49 1332.3 368.99 1361.51 281.26 1390.72 193.53 1418.36 281.76 1446 370"/><polygon class="cls-7" points="1589 386.52 1531.11 386.01 1473.22 385.49 1502.81 312.79 1532.41 240.08 1560.7 313.3 1589 386.52"/><circle class="cls-8" cx="121" cy="128" r="114"/><polygon class="cls-9" points="906.78 91.08 903.57 85 896.79 86.22 900.46 80.39 896.01 75.14 902.89 75.4 905.22 68.92 908.43 75 915.21 73.78 911.54 79.61 915.99 84.86 909.11 84.6 906.78 91.08"/><polygon class="cls-9" points="824.61 54.84 820.72 54.63 819.35 58.28 817.58 54.8 813.74 55.44 815.86 52.17 813.39 49.16 817.28 49.37 818.65 45.72 820.42 49.2 824.26 48.56 822.14 51.83 824.61 54.84"/><polygon class="cls-9" points="981.36 31.01 972.4 34.28 972.81 43.81 965.5 37.68 957.45 42.8 959.1 33.41 950.64 28.99 959.6 25.72 959.19 16.19 966.5 22.32 974.55 17.2 972.9 26.59 981.36 31.01"/><polygon class="cls-9" points="799 38.85 791.42 41.62 791.76 49.68 785.57 44.5 778.76 48.83 780.16 40.88 773 37.15 780.58 34.38 780.24 26.32 786.43 31.5 793.24 27.17 791.84 35.12 799 38.85"/><polygon class="cls-9" points="813 166.85 805.42 169.62 805.76 177.68 799.57 172.5 792.76 176.83 794.16 168.88 787 165.15 794.58 162.38 794.24 154.32 800.43 159.5 807.24 155.17 805.84 163.12 813 166.85"/><polygon class="cls-9" points="1143.38 16.42 1139.66 17.77 1139.83 21.73 1136.79 19.19 1133.45 21.31 1134.13 17.41 1130.62 15.58 1134.34 14.22 1134.17 10.27 1137.21 12.81 1140.55 10.69 1139.87 14.59 1143.38 16.42"/><polygon class="cls-9" points="591.38 204.42 587.66 205.78 587.83 209.73 584.79 207.19 581.45 209.31 582.13 205.41 578.62 203.58 582.34 202.22 582.17 198.27 585.21 200.81 588.55 198.69 587.87 202.59 591.38 204.42"/><polygon class="cls-9" points="384.75 45.03 375.56 48.38 375.98 58.16 368.48 51.88 360.23 57.13 361.92 47.49 353.25 42.97 362.44 39.62 362.02 29.84 369.52 36.12 377.77 30.87 376.08 40.51 384.75 45.03"/><polygon class="cls-9" points="417 232.85 409.42 235.62 409.76 243.68 403.57 238.5 396.76 242.83 398.16 234.88 391 231.15 398.58 228.38 398.24 220.32 404.43 225.5 411.24 221.17 409.84 229.12 417 232.85"/><polygon class="cls-9" points="279 44.85 271.42 47.62 271.76 55.68 265.57 50.5 258.76 54.83 260.16 46.88 253 43.15 260.58 40.38 260.24 32.32 266.43 37.5 273.24 33.17 271.84 41.12 279 44.85"/><polygon class="cls-9" points="829.63 246.43 825.76 247.85 825.94 251.96 822.78 249.31 819.31 251.53 820.02 247.47 816.37 245.57 820.24 244.15 820.06 240.04 823.22 242.69 826.69 240.47 825.98 244.53 829.63 246.43"/><polygon class="cls-9" points="1308.36 267.01 1299.4 270.28 1299.81 279.81 1292.5 273.68 1284.45 278.8 1286.1 269.4 1277.64 264.99 1286.6 261.72 1286.19 252.19 1293.5 258.32 1301.55 253.2 1299.9 262.6 1308.36 267.01"/><polygon class="cls-9" points="1452.63 215.43 1448.76 216.85 1448.94 220.96 1445.78 218.31 1442.31 220.53 1443.02 216.47 1439.37 214.57 1443.24 213.15 1443.06 209.04 1446.22 211.69 1449.69 209.47 1448.98 213.53 1452.63 215.43"/><polygon class="cls-9" points="1342.59 66.8 1335.27 63.39 1329.81 69.34 1329.1 61.3 1321.22 59.54 1327.83 54.91 1325.41 47.2 1332.73 50.61 1338.19 44.66 1338.9 52.7 1346.78 54.46 1340.17 59.09 1342.59 66.8"/><polygon class="cls-9" points="367.38 150.42 363.66 151.78 363.83 155.73 360.79 153.19 357.45 155.31 358.13 151.41 354.62 149.58 358.34 148.22 358.17 144.27 361.21 146.81 364.55 144.69 363.87 148.59 367.38 150.42"/><polygon class="cls-9" points="255.38 215.42 251.66 216.78 251.83 220.73 248.79 218.19 245.45 220.31 246.13 216.41 242.62 214.58 246.34 213.22 246.17 209.27 249.21 211.81 252.55 209.69 251.87 213.59 255.38 215.42"/><polygon class="cls-9" points="577.38 249.42 573.66 250.78 573.83 254.73 570.79 252.19 567.45 254.31 568.13 250.41 564.62 248.58 568.34 247.22 568.17 243.27 571.21 245.81 574.55 243.69 573.87 247.59 577.38 249.42"/><polygon class="cls-9" points="1026.38 250.42 1022.66 251.78 1022.83 255.73 1019.79 253.19 1016.45 255.31 1017.13 251.41 1013.62 249.58 1017.34 248.22 1017.17 244.27 1020.21 246.81 1023.55 244.69 1022.87 248.59 1026.38 250.42"/><polygon class="cls-9" points="37.78 275.08 34.57 269 27.79 270.22 31.46 264.39 27.01 259.14 33.89 259.4 36.22 252.92 39.43 259 46.21 257.78 42.54 263.61 46.99 268.86 40.11 268.6 37.78 275.08"/><ellipse cx="1416.97" cy="318.14" rx="13.69" ry="13.55" transform="translate(957.44 1695.76) rotate(-84.21)"/><path d="M1423.74,319.94a5.08,5.08,0,0,0,1.94,3.47c.24-3.45,4.33-6.55,9.51-7.06,5.48-.54,10.11,2,10.33,5.72-.22-3.7,4-7.13,9.51-7.67s10.11,2,10.34,5.72c-.23-3.7,4-7.14,9.51-7.67s10.11,2,10.34,5.71a6.07,6.07,0,0,1-2.49,4.92c7.28-2.89,11.77-6.53,11.55-10.08-.4-6.51-16.52-10.24-36-8.32S1423.34,313.43,1423.74,319.94Z"/><path d="M1410.33,318.69a5.19,5.19,0,0,1-2.65,2.87c.7-3.39-2.12-7.38-6.61-9.14-4.74-1.88-9.55-.56-10.73,2.94,1.18-3.5-1.71-7.85-6.45-9.72s-9.55-.55-10.74,2.95c1.19-3.5-1.7-7.86-6.44-9.73s-9.56-.55-10.74,2.95a6.21,6.21,0,0,0,.92,5.35c-5.73-4.58-8.77-9.19-7.63-12.55,2.08-6.16,17.45-5.77,34.31.88S1412.41,312.53,1410.33,318.69Z"/><circle class="cls-9" cx="1410.31" cy="314.86" r="2.96"/><circle class="cls-9" cx="1424.31" cy="315.86" r="2.96"/><path class="cls-10" d="M602.8,81.89,492.5,89.75c-.06-.5-.11-1-.14-1.5C490.77,60.61,539.31,35,599.9,31.5s111.74,16.38,113.33,44Z"/><ellipse class="cls-10" cx="685.59" cy="93.61" rx="54.41" ry="34.01" transform="translate(-4.25 39.59) rotate(-3.3)"/><ellipse class="cls-10" cx="586.23" cy="99.34" rx="54.41" ry="34.01" transform="translate(-4.74 33.88) rotate(-3.3)"/><ellipse class="cls-10" cx="500.29" cy="101.42" rx="54.41" ry="34.01" transform="translate(-5.01 28.94) rotate(-3.3)"/><ellipse class="cls-10" cx="515.02" cy="58.26" rx="40.09" ry="30.43" transform="translate(-2.5 29.72) rotate(-3.3)"/><ellipse class="cls-10" cx="673.35" cy="49.14" rx="40.45" ry="34.01" transform="translate(-1.71 38.81) rotate(-3.3)"/><ellipse class="cls-10" cx="588.9" cy="46.11" rx="54.41" ry="34.01" transform="translate(-1.68 33.95) rotate(-3.3)"/><ellipse cx="518.67" cy="179.35" rx="9.7" ry="9.8" transform="translate(-29.38 208.11) rotate(-22.08)"/><path d="M523.56,178.23a3.64,3.64,0,0,0,2.38,1.55c-1-2.27.55-5.6,3.66-7.66,3.28-2.17,7.07-2.1,8.45.16-1.38-2.26.17-5.86,3.45-8s7.08-2.1,8.46.16c-1.38-2.26.16-5.86,3.45-8s7.08-2.1,8.46.16a4.37,4.37,0,0,1,.07,3.95c3.64-4.27,5.26-8.07,3.93-10.25-2.43-4-13.88-.95-25.56,6.79S521.12,174.24,523.56,178.23Z"/><path d="M514.65,181.93a3.73,3.73,0,0,1-.72,2.69c-.69-2.37-3.81-4-7.24-3.57-3.63.41-6.23,2.85-5.81,5.46-.42-2.61-3.71-4.4-7.34-4s-6.23,2.85-5.81,5.46c-.42-2.61-3.7-4.4-7.33-4s-6.23,2.84-5.81,5.46a4.48,4.48,0,0,0,2.37,3.07c-5.16-1-8.62-2.88-9-5.38-.74-4.6,9.12-9.5,22-10.93S513.9,177.33,514.65,181.93Z"/><ellipse class="cls-9" cx="512.93" cy="178.33" rx="1.36" ry="1.59" transform="translate(-17.04 296.79) rotate(-31.77)"/><ellipse class="cls-9" cx="518.22" cy="175.33" rx="1.36" ry="1.59" transform="matrix(0.85, -0.53, 0.53, 0.85, -14.67, 299.13)"/><ellipse cx="210.88" cy="157.71" rx="13.55" ry="13.69" transform="translate(-38.23 72.34) rotate(-17.88)"/><path d="M220.5,155.56a5.11,5.11,0,0,0,3.54,1.82c-1.72-3,0-7.86,4-11.15,4.26-3.48,9.53-3.91,11.77-1-2.24-3-.59-8.17,3.67-11.65s9.54-3.92,11.78-1c-2.24-3-.59-8.17,3.67-11.66s9.54-3.91,11.77-1a6.06,6.06,0,0,1,.65,5.48c4.47-6.44,6.19-12,4-14.79-3.94-5.2-19.42.62-34.58,13S216.56,150.36,220.5,155.56Z"/><path d="M203.45,161.43a5.14,5.14,0,0,1-1.88,3.41c-.13-3.45-3.83-6.64-8.61-7.27-5.06-.67-9.4,1.77-9.71,5.45.31-3.68-3.54-7.21-8.6-7.88s-9.4,1.76-9.71,5.45c.31-3.69-3.55-7.22-8.6-7.89s-9.41,1.77-9.71,5.45a6.22,6.22,0,0,0,2.18,5c-6.66-3.06-10.72-6.8-10.43-10.34.54-6.48,15.54-9.8,33.51-7.42S204,154.94,203.45,161.43Z"/><ellipse class="cls-9" cx="218.31" cy="152.86" rx="2.35" ry="3.14" transform="translate(-45.36 114.12) rotate(-26.64)"/><ellipse class="cls-9" cx="211.31" cy="157.86" rx="2.35" ry="3.14" transform="translate(-48.35 111.51) rotate(-26.64)"/><g class="cls-11"><polygon points="63.03 614.47 71.42 607 127.97 671.63 119.59 679.11 63.03 614.47"/><polygon points="99.36 691.66 121.2 672.54 143.04 653.42 169.02 705.92 195 758.42 147.18 725.04 99.36 691.66"/></g><rect class="cls-12" x="59.57" y="469.76" width="18.9" height="144.36"/><polygon class="cls-13" points="118 476.64 69.15 476.2 20.3 475.77 45.57 380.83 70.85 285.89 94.42 381.27 118 476.64"/><rect class="cls-14" x="213.87" y="472.9" width="22" height="147" transform="translate(740.01 835.8) rotate(141.7)"/><polygon class="cls-14" points="229.35 634.7 267.57 605.07 305.78 575.43 328.16 643.74 350.53 712.06 289.94 673.38 229.35 634.7"/><rect class="cls-12" x="168" y="349" width="22" height="147"/><g class="cls-11"><polygon class="cls-15" points="1301.23 620.6 1319.2 606.13 1337.17 591.67 1356.59 636.83 1376 682 1338.62 651.3 1301.23 620.6"/><polygon class="cls-15" points="1270.51 549.53 1277.41 543.87 1323.57 604.4 1316.66 610.06 1270.51 549.53"/></g><polygon class="cls-16" points="1313.13 437.83 1277.15 437.51 1241.16 437.18 1259.81 364.09 1278.46 291 1295.79 364.41 1313.13 437.83"/><rect class="cls-12" x="1270.09" y="435.3" width="13.92" height="117.72"/><polygon class="cls-14" points="1433.6 639.28 1464.99 611.72 1496.39 584.15 1526.79 650.44 1557.19 716.73 1495.4 678.01 1433.6 639.28"/><rect class="cls-14" x="1420.23" y="484.46" width="22" height="137" transform="translate(2914.58 160.75) rotate(144.07)"/><rect class="cls-12" x="1382" y="370" width="22" height="137"/><rect class="cls-14" x="1560.39" y="507.7" width="19.59" height="112" transform="translate(3112.37 -72.59) rotate(137.83)"/><rect class="cls-12" x="1523.89" y="386" width="19.59" height="146"/><ellipse cx="1486.41" cy="489.03" rx="25.03" ry="20.96" transform="matrix(0.01, -1, 1, 0.01, 988.62, 1972.53)"/><path d="M1496.1,488.73a9.83,9.83,0,0,0,4.5,5.39c-1.24-6.22,3.45-13.29,11-16.22,8-3.09,16.06-.37,18.11,6.08-2-6.45,2.73-14.19,10.69-17.29s16.06-.38,18.11,6.08c-2-6.46,2.73-14.2,10.69-17.3s16.06-.37,18.11,6.08a11.89,11.89,0,0,1-1.46,9.68c9.57-8,14.6-16.16,12.63-22.35-3.61-11.37-29.45-11.66-57.71-.65S1492.49,477.37,1496.1,488.73Z"/><path d="M1475.42,491a9.08,9.08,0,0,1-2.56,6.13c-.6-6.26-6.75-12.12-14.29-13.4-8-1.35-14.52,2.95-14.58,9.61.06-6.66-6.35-13.15-14.34-14.5s-14.51,2.95-14.58,9.61c.07-6.66-6.35-13.15-14.34-14.5s-14.51,3-14.57,9.61a13.11,13.11,0,0,0,4,9.05c-10.76-5.72-17.53-12.6-17.47-19,.12-11.73,23.22-17.34,51.6-12.55S1475.53,479.23,1475.42,491Z"/><circle class="cls-9" cx="1475.31" cy="488.86" r="2.96"/><circle class="cls-9" cx="1494.31" cy="483.86" r="2.96"/><rect class="cls-17" x="1330.73" y="552.28" width="72.22" height="114.67" transform="translate(351.72 -490.12) rotate(23.25)"/><polygon class="cls-18" points="1409.11 493.8 1416.25 532.56 1423.39 571.33 1389.12 557.6 1354.85 543.88 1381.98 518.84 1409.11 493.8"/><ellipse class="cls-19" cx="1343.96" cy="663.04" rx="17.81" ry="57.09" transform="translate(498.13 1900.13) rotate(-81.9)"/><path d="M1372.24,570.66v0a2.93,2.93,0,0,0-.17-1.7,2.4,2.4,0,0,0-.91-1,4.48,4.48,0,0,0-1.4-.53c-.52-.11-1.06-.21-1.6-.28a.91.91,0,0,0-.25-.06l-.22,0a5.07,5.07,0,0,0-2.41.23,6.45,6.45,0,0,0-2.15,1.24,7.66,7.66,0,0,0-1.64,2,7.14,7.14,0,0,0-.88,2.61l-.21,0a8.22,8.22,0,0,1,0-.86c0-.27,0-.54.09-.8a7.56,7.56,0,0,1,1.12-2.68,7.65,7.65,0,0,1,2-2,8.06,8.06,0,0,1,2.68-1.2,8.27,8.27,0,0,1,3.15-.13l.48.07.25,0a1.14,1.14,0,0,1,.22.07,12.4,12.4,0,0,1,2,.52,4.26,4.26,0,0,1,1.53.89,3.13,3.13,0,0,1,.88,1.51,5.65,5.65,0,0,1,.06,2.32,3.23,3.23,0,0,1-.93,1.93,5.86,5.86,0,0,1-1.91,1.22.21.21,0,0,0-.06.1l.53.79,1.86,8.47,0,.21a3.16,3.16,0,0,0,.14,1.33q.23.74.48,1.47l0,.23a1.64,1.64,0,0,1-.65-.49,6.16,6.16,0,0,1-.65-.9c-.21-.34-.42-.73-.63-1.15s-.4-.85-.57-1.27l-.48-1.2-.36-1-.08-.17a4.19,4.19,0,0,1-.18-.39c-.09-.18-.22-.47-.39-.85l-.71-1.54a2.62,2.62,0,0,1-.2-.49l-.21-.75c-.07-.27-.13-.52-.2-.75s-.11-.41-.14-.51l-.18-.06-.19,0a1.65,1.65,0,0,0-.67,0,1.17,1.17,0,0,1-.33,0l-.34,4.49a2.23,2.23,0,0,0,0,.94,2,2,0,0,0,.29.63,1.75,1.75,0,0,0,.43.43l.43.33,0,.21c-.48-.11-1-.22-1.45-.31s-1-.19-1.48-.26a4,4,0,0,0-.85,0l-1,.12c-.33.06-.66.1-1,.14a4.36,4.36,0,0,1-.87,0l0-.21.07,0c.17-.07.39-.18.68-.33a3.84,3.84,0,0,0,.87-.72,5,5,0,0,0,.84-1.25,6.81,6.81,0,0,0,.55-2l.35-2.45a1.77,1.77,0,0,1-.46-.17,1.69,1.69,0,0,1-.56-.57l0-.25,1.1.16.19-1.37c.08-.5.13-1,.16-1.4a4.89,4.89,0,0,0-.05-1.22,3.12,3.12,0,0,0-.41-1.07,3.49,3.49,0,0,0-.92-1l0-.29.29.07.31.06.6.08c.81.12,1.59.21,2.36.28s1.52.14,2.28.19l-.05.35a.9.9,0,0,0-.52.16,2.15,2.15,0,0,0-.5.46,3.12,3.12,0,0,0-.39.64,2.6,2.6,0,0,0-.2.66l-.77,3.49c.31-.07.67-.18,1.1-.32a5.75,5.75,0,0,0,1.24-.62,4.44,4.44,0,0,0,1.07-1A3.05,3.05,0,0,0,1372.24,570.66Z"/><path d="M1388.24,569.91a1,1,0,0,0-.89.34,3.7,3.7,0,0,0-.73,1.22,12.4,12.4,0,0,0-.58,2q-.24,1.17-.45,2.58c-.12.87-.24,1.8-.34,2.79s-.2,2-.28,3.08a1.36,1.36,0,0,0,.07.65,3.53,3.53,0,0,0,.28.67,3,3,0,0,0,.41.58,3.31,3.31,0,0,0,.41.42l0,.21-1.45-.31c-.48-.1-1-.18-1.48-.25s-1-.13-1.52-.18l-1.55-.11,0-.21.2-.08a4.12,4.12,0,0,0,.54-.25,2,2,0,0,0,.57-.53,4,4,0,0,0,.53-1,9.52,9.52,0,0,0,.4-1.79l.81-5.65,0-.33,0-.19a.48.48,0,0,0,0-.17q.08-.81.09-1.5a5.53,5.53,0,0,0-.1-1.21,2,2,0,0,0-.4-.86,1.34,1.34,0,0,0-.77-.45l0-.29c.48.05.94.1,1.36.13s.83.07,1.23.13a2.76,2.76,0,0,0-.83-.34c-.34-.08-.66-.15-1-.19a5,5,0,0,0-2.4.23,6.69,6.69,0,0,0-2.15,1.25,8.4,8.4,0,0,0-1.68,2,8.66,8.66,0,0,0-1,2.58,8.13,8.13,0,0,1,0-.86c0-.28,0-.54.08-.81a7.64,7.64,0,0,1,2.35-4.07,7.85,7.85,0,0,1,2.07-1.34,9.12,9.12,0,0,1,2.6-.71l.53.05a4,4,0,0,1,.51.06,10.78,10.78,0,0,1,1.53.31,4.56,4.56,0,0,1,1.12.48,4.9,4.9,0,0,1,.9.69,12.35,12.35,0,0,1,.86,1Z"/><path d="M1398.24,574.26v0a3,3,0,0,0-.16-1.7,2.43,2.43,0,0,0-.92-1,4.26,4.26,0,0,0-1.4-.54c-.52-.11-1.06-.2-1.6-.28a5.68,5.68,0,0,0-4.32.83,5.62,5.62,0,0,0-2,4l-.21,0a8.13,8.13,0,0,1,0-.86,7.4,7.4,0,0,1,.08-.81,5.52,5.52,0,0,1,.89-2.41,5,5,0,0,1,1.82-1.58,7.52,7.52,0,0,1,2.61-.73,13.61,13.61,0,0,1,3.28.1,11.94,11.94,0,0,1,2.11.48,4.23,4.23,0,0,1,1.56.89,3.15,3.15,0,0,1,.87,1.51,5.54,5.54,0,0,1,.06,2.33,4.24,4.24,0,0,1-.81,2,8.76,8.76,0,0,1-1.64,1.7,10.71,10.71,0,0,1-2.14,1.3,9.89,9.89,0,0,1-2.28.77l-.26,3a1.47,1.47,0,0,0,.12,1,2,2,0,0,0,.53.66,3.63,3.63,0,0,0,.7.48c.25.12.47.24.67.36l0,.2-.84-.17-1-.2-1-.18-.88-.13c-.25,0-.56-.06-.93-.08l-1.15,0c-.4,0-.78,0-1.15,0s-.7,0-1-.05l0-.2.07,0a6.58,6.58,0,0,0,1.23-.2,2.66,2.66,0,0,0,1-.55,3.17,3.17,0,0,0,.75-1.11,7.42,7.42,0,0,0,.48-1.92l.76-5.3c.07-.5.11-.93.14-1.3a3.16,3.16,0,0,0-.08-1,2.43,2.43,0,0,0-.44-.86,5.88,5.88,0,0,0-.94-.88l0-.29.28.08.31,0,.6.09c.81.11,1.59.21,2.36.28s1.53.14,2.28.19l-.05.35a.85.85,0,0,0-.53.18,2.18,2.18,0,0,0-.6.82,10.36,10.36,0,0,0-.62,1.87,32.58,32.58,0,0,0-.61,3.28l-.14,1a10.11,10.11,0,0,0,2.73-2.15A5.76,5.76,0,0,0,1398.24,574.26Z"/><line class="cls-20" x1="1373.35" y1="595.01" x2="1359.5" y2="630.01"/><line class="cls-21" x1="1381.3" y1="611.92" x2="1352.24" y2="604.82"/><ellipse class="cls-14" cx="1147.62" cy="512.81" rx="22.74" ry="54.64" transform="translate(379.12 1507.5) rotate(-76.39)"/><ellipse class="cls-22" cx="1145.5" cy="513.26" rx="4.32" ry="54.88" transform="translate(575.64 1631.69) rotate(-87.14)"/><circle class="cls-23" cx="1200.93" cy="514.12" r="2.51"/><circle class="cls-24" cx="1201.54" cy="517.7" r="2.51"/><circle class="cls-25" cx="1090.92" cy="513.26" r="2.51"/><circle class="cls-26" cx="1090.65" cy="508.81" r="2.51"/><circle class="cls-27" cx="1118.14" cy="478.8" r="2.51"/><circle class="cls-28" cx="1115.66" cy="481.77" r="2.51"/><ellipse class="cls-29" cx="1145.61" cy="507.73" rx="3.71" ry="39.86" transform="translate(-22.29 961.85) rotate(-45.15)"/><ellipse class="cls-30" cx="1172.36" cy="537.01" rx="2.17" ry="2.08" transform="translate(-104.24 355.05) rotate(-16.5)"/><ellipse class="cls-31" cx="1175.44" cy="534.66" rx="2.17" ry="2.08" transform="translate(-103.44 355.83) rotate(-16.5)"/><circle class="cls-32" cx="1154.08" cy="491.5" r="21.75"/><rect class="cls-33" x="1126.37" y="501" width="47.19" height="11.71" rx="5.86" transform="translate(151.6 -256.41) rotate(13.61)"/><circle cx="1143.59" cy="481.5" r="4.18"/><circle cx="1159.11" cy="486.12" r="4.18"/><rect x="1134.55" y="499.35" width="3.9" height="3.9" transform="translate(149.91 -253.4) rotate(13.61)"/><rect x="1139.34" y="499.44" width="4.46" height="4.46" transform="translate(150.14 -254.58) rotate(13.61)"/><rect x="1144.1" y="502.31" width="4.46" height="4.46" transform="translate(150.95 -255.62) rotate(13.61)"/><rect x="1149.78" y="501.6" width="3.9" height="3.9" transform="translate(150.87 -256.92) rotate(13.61)"/><rect x="1153.86" y="504.89" width="3.9" height="3.9" transform="translate(151.76 -257.79) rotate(13.61)"/><rect x="1158.94" y="504.53" width="2.79" height="2.79" transform="translate(151.67 -258.88) rotate(13.61)"/><circle class="cls-34" cx="205.91" cy="713.53" r="52.65"/><ellipse class="cls-34" cx="241.57" cy="723.42" rx="52.65" ry="49.06" transform="translate(-520.11 762.77) rotate(-74.49)"/><circle class="cls-35" cx="206.68" cy="714.4" r="49.59"/><ellipse class="cls-35" cx="240.26" cy="723.72" rx="49.59" ry="46.2" transform="translate(-521.35 761.72) rotate(-74.49)"/><circle class="cls-36" cx="207.44" cy="715.27" r="46.52"/><ellipse class="cls-36" cx="238.95" cy="724.01" rx="46.52" ry="43.34" transform="translate(-522.59 760.68) rotate(-74.49)"/><polygon class="cls-37" points="221.09 630 229.39 650.84 237.7 671.68 237.56 659.66 237.41 647.64 229.25 638.82 221.09 630"/><polygon points="201.78 706.89 191.55 704.16 181.33 701.43 189.09 692.89 196.84 684.35 199.31 695.62 201.78 706.89"/><polygon class="cls-36" points="186.34 701.92 184.49 701.46 182.64 700.98 183.77 700.4 184.91 699.81 185.62 700.87 186.34 701.92"/><rect class="cls-36" x="184.63" y="701.81" width="14.8" height="1.69" transform="translate(194.87 -25.76) rotate(15.51)"/><polygon class="cls-36" points="200.6 705.88 199.01 705.48 197.43 705.08 198.43 704.45 199.43 703.83 200.01 704.86 200.6 705.88"/><rect class="cls-36" x="180.52" y="693.49" width="18.67" height="1.08" transform="translate(-457.78 380.51) rotate(-48.87)"/><polygon class="cls-36" points="194.6 688.35 195.57 686.77 196.55 685.19 196.48 686.24 196.42 687.29 195.51 687.82 194.6 688.35"/><rect x="182.41" y="699.98" width="4.31" height="0.42" transform="translate(-292.2 155.19) rotate(-26.41)"/><polygon points="253.13 721.14 242.9 718.41 232.67 715.68 240.43 707.14 248.19 698.6 250.66 709.87 253.13 721.14"/><polygon class="cls-36" points="237.68 716.17 235.83 715.7 233.99 715.23 235.12 714.64 236.25 714.05 236.97 715.11 237.68 716.17"/><rect class="cls-36" x="235.97" y="716.06" width="14.8" height="1.69" transform="translate(200.55 -38.97) rotate(15.51)"/><polygon class="cls-36" points="251.94 720.13 250.36 719.73 248.77 719.32 249.77 718.7 250.78 718.08 251.36 719.1 251.94 720.13"/><rect class="cls-36" x="231.86" y="707.73" width="18.67" height="1.08" transform="translate(-450.94 424.06) rotate(-48.87)"/><polygon class="cls-36" points="245.94 702.6 246.92 701.02 247.89 699.44 247.83 700.49 247.76 701.54 246.85 702.07 245.94 702.6"/><rect x="233.76" y="714.23" width="4.31" height="0.42" transform="translate(-293.18 179.52) rotate(-26.41)"/><polygon class="cls-38" points="171.3 708.52 179.66 720.3 193.19 717.61 203.36 728.37 220.04 727.13 232.98 737.17 250.81 733.69 255.96 742.44 266.27 736.73 252 756.23 240.67 747.71 221.49 752.33 214.21 740.36 197.45 743.64 188.49 732.21 176.37 735.32 171.3 708.52"/><polygon class="cls-36" points="181.52 733.26 179.53 733.84 177.53 734.42 175.5 723.71 173.47 713 177.5 723.13 181.52 733.26"/><polygon class="cls-36" points="201.5 740.6 199.92 741.94 198.34 743.29 194.81 737.54 191.29 731.8 196.39 736.2 201.5 740.6"/><polygon class="cls-36" points="225.57 749.1 223.99 750.44 222.41 751.79 218.85 746 215.28 740.21 220.43 744.66 225.57 749.1"/><polygon class="cls-36" points="253.7 752.48 252.78 753.91 251.86 755.34 247.05 751.24 242.24 747.14 247.97 749.81 253.7 752.48"/><polygon class="cls-36" points="222.15 751.56 221.89 750.41 221.63 749.27 227.86 748.44 234.1 747.62 228.12 749.59 222.15 751.56"/><polygon class="cls-36" points="197.88 743.16 197.7 742 197.51 740.84 203.26 740.51 209 740.18 203.44 741.67 197.88 743.16"/><circle class="cls-34" cx="89.42" cy="794.28" r="82.68"/><ellipse class="cls-34" cx="147.48" cy="796.74" rx="82.68" ry="77.04" transform="translate(-654.8 910.34) rotate(-87.57)"/><circle class="cls-35" cx="90.9" cy="795.34" r="77.87"/><ellipse class="cls-35" cx="145.58" cy="797.66" rx="77.87" ry="72.55" transform="translate(-657.53 909.32) rotate(-87.57)"/><circle class="cls-36" cx="92.39" cy="796.4" r="73.05"/><ellipse class="cls-36" cx="143.68" cy="798.58" rx="73.05" ry="68.07" transform="translate(-660.26 908.3) rotate(-87.57)"/><polygon class="cls-37" points="82.94 661.12 103.06 690.04 123.17 718.97 118.68 700.63 114.19 682.3 98.57 671.71 82.94 661.12"/><polygon points="80.75 785.6 64.13 785.05 47.52 784.51 56.35 768.69 65.18 752.87 72.96 769.23 80.75 785.6"/><polygon class="cls-36" points="55.35 783.49 52.36 783.42 49.36 783.36 50.89 782.06 52.41 780.75 53.88 782.12 55.35 783.49"/><rect class="cls-36" x="52.7" y="781.25" width="23.24" height="2.66" transform="translate(33.21 -2.02) rotate(2.43)"/><polygon class="cls-36" points="78.58 784.47 76 784.42 73.44 784.36 74.75 783.06 76.06 781.75 77.32 783.11 78.58 784.47"/><rect class="cls-36" x="43.26" y="769.31" width="29.31" height="1.7" transform="translate(-649.01 459.11) rotate(-61.95)"/><polygon class="cls-36" points="63.17 759.78 64.1 757.02 65.03 754.26 65.3 755.89 65.57 757.51 64.37 758.65 63.17 759.78"/><rect x="48.65" y="781.13" width="6.77" height="0.66" transform="translate(-485.12 211.5) rotate(-39.49)"/><polygon points="164.35 789.14 147.74 788.6 131.12 788.06 139.95 772.24 148.79 756.41 156.57 772.78 164.35 789.14"/><polygon class="cls-36" points="138.96 787.03 135.96 786.97 132.97 786.91 134.49 785.6 136.02 784.3 137.49 785.66 138.96 787.03"/><rect class="cls-36" x="136.3" y="784.8" width="23.24" height="2.66" transform="translate(33.43 -5.56) rotate(2.43)"/><polygon class="cls-36" points="162.18 788.01 159.61 787.96 157.04 787.91 158.35 786.6 159.67 785.29 160.92 786.65 162.18 788.01"/><rect class="cls-36" x="126.87" y="772.85" width="29.31" height="1.7" transform="translate(-607.85 534.78) rotate(-61.95)"/><polygon class="cls-36" points="146.77 763.33 147.7 760.56 148.63 757.8 148.9 759.43 149.18 761.06 147.97 762.19 146.77 763.33"/><rect x="132.26" y="784.68" width="6.77" height="0.66" transform="matrix(0.77, -0.64, 0.64, 0.77, -468.29, 265.48)"/><ellipse class="cls-39" cx="160.93" cy="748.65" rx="20.75" ry="42.2" transform="translate(-598.54 650.85) rotate(-70.53)"/><polygon class="cls-38" points="34.7 798.93 51.67 813.96 71.4 805.04 90.8 817.88 115.87 810.06 139.23 820.81 165.27 809.16 176.25 820.72 189.99 808.32 175.1 843.22 154.74 834.2 127.04 848.09 111.65 832.37 87.19 843.35 69.41 829.04 51.98 838.1 34.7 798.93"/><polygon class="cls-36" points="59.12 833.13 56.28 834.72 53.44 836.32 46.53 820.65 39.62 805 49.37 819.06 59.12 833.13"/><polygon class="cls-36" points="92.3 837.25 90.36 839.87 88.42 842.49 80.98 834.96 73.54 827.42 82.92 832.34 92.3 837.25"/><polygon class="cls-36" points="132.14 841.7 130.2 844.32 128.26 846.94 120.75 839.35 113.24 831.76 122.69 836.73 132.14 841.7"/><polygon class="cls-36" points="176.36 836.87 175.46 839.39 174.57 841.9 165.75 837.34 156.93 832.78 166.65 834.83 176.36 836.87"/><polygon class="cls-36" points="127.78 846.68 126.97 845.02 126.16 843.36 135.4 839.88 144.65 836.4 136.21 841.54 127.78 846.68"/><polygon class="cls-36" points="87.67 842.46 86.98 840.75 86.28 839.04 94.95 836.5 103.62 833.95 95.65 838.21 87.67 842.46"/><circle class="cls-34" cx="261.88" cy="813.47" r="59.46"/><ellipse class="cls-34" cx="302.18" cy="802.42" rx="55.4" ry="59.46" transform="translate(-201.38 108.43) rotate(-15.33)"/><circle class="cls-35" cx="263.13" cy="813.87" r="56"/><ellipse class="cls-35" cx="301.08" cy="803.47" rx="52.18" ry="56" transform="translate(-201.69 108.18) rotate(-15.33)"/><circle class="cls-36" cx="264.38" cy="814.27" r="52.54"/><ellipse class="cls-36" cx="299.99" cy="804.51" rx="48.95" ry="52.54" transform="translate(-202.01 107.93) rotate(-15.33)"/><polygon class="cls-37" points="228.24 723.69 248.36 739.09 268.48 754.49 261.38 742.92 254.28 731.34 241.26 727.52 228.24 723.69"/><polygon points="254.03 809.43 242.53 812.7 231.04 815.97 233.62 803.2 236.19 790.42 245.11 799.93 254.03 809.43"/><polygon class="cls-36" points="236.18 813.55 234.11 814.16 232.05 814.78 232.81 813.55 233.57 812.32 234.87 812.94 236.18 813.55"/><rect class="cls-36" x="233.77" y="810.01" width="16.72" height="1.91" transform="translate(-205.77 92.86) rotate(-15.33)"/><polygon class="cls-36" points="252.3 809.13 250.53 809.66 248.76 810.19 249.37 809 249.98 807.82 251.14 808.48 252.3 809.13"/><rect class="cls-36" x="224.47" y="803.25" width="21.08" height="1.22" transform="translate(-597.9 891.45) rotate(-79.71)"/><polygon class="cls-36" points="236.33 795.6 236.36 793.51 236.39 791.41 236.94 792.47 237.48 793.52 236.91 794.56 236.33 795.6"/><rect x="231.03" y="812.65" width="4.87" height="0.48" transform="matrix(0.54, -0.84, 0.84, 0.54, -576.51, 569.48)"/><polygon points="312.07 793.52 300.57 796.79 289.08 800.06 291.65 787.29 294.23 774.51 303.15 784.02 312.07 793.52"/><polygon class="cls-36" points="294.22 797.64 292.15 798.26 290.09 798.87 290.85 797.64 291.61 796.41 292.91 797.03 294.22 797.64"/><rect class="cls-36" x="291.8" y="794.1" width="16.72" height="1.91" transform="translate(-199.5 107.64) rotate(-15.33)"/><polygon class="cls-36" points="310.34 793.22 308.57 793.75 306.8 794.28 307.41 793.09 308.02 791.91 309.18 792.57 310.34 793.22"/><rect class="cls-36" x="282.51" y="787.34" width="21.08" height="1.22" transform="translate(-534.58 935.49) rotate(-79.71)"/><polygon class="cls-36" points="294.37 779.69 294.4 777.6 294.43 775.5 294.98 776.56 295.52 777.61 294.94 778.65 294.37 779.69"/><rect x="289.07" y="796.75" width="4.87" height="0.48" transform="matrix(0.54, -0.84, 0.84, 0.54, -536.49, 610.99)"/><polygon class="cls-38" points="225.42 828.65 240.34 835.23 251.9 824.79 268 829.34 283.46 818.48 301.81 820.72 317.1 807.03 327.15 812.53 333.84 801.03 331.3 828.2 315.37 826.49 299.45 842.08 285.46 834.69 271.11 847.57 255.8 841.67 245.85 851.7 225.42 828.65"/><polygon class="cls-36" points="249.65 846.72 248.05 848.44 246.46 850.15 238.29 840.94 230.12 831.73 239.88 839.23 249.65 846.72"/><polygon class="cls-36" points="273.27 842.27 272.52 844.49 271.77 846.71 265.02 843.18 258.27 839.65 265.77 840.96 273.27 842.27"/><polygon class="cls-36" points="301.54 836.58 300.78 838.8 300.03 841.02 293.22 837.47 286.42 833.92 293.98 835.25 301.54 836.58"/><polygon class="cls-36" points="330.76 823.58 330.7 825.49 330.64 827.41 323.6 826.22 316.56 825.04 323.66 824.3 330.76 823.58"/><polygon class="cls-36" points="299.64 840.95 298.72 839.99 297.81 839.03 303.38 834.62 308.94 830.21 304.29 835.58 299.64 840.95"/><polygon class="cls-36" points="271.25 846.85 270.4 845.83 269.55 844.82 274.93 841.17 280.31 837.53 275.78 842.19 271.25 846.85"/><ellipse class="cls-40" cx="258.15" cy="696.01" rx="14.7" ry="29.45" transform="translate(-473.69 571.57) rotate(-60)"/><ellipse class="cls-41" cx="304.15" cy="763.01" rx="14.7" ry="29.45" transform="translate(-490.72 970.07) rotate(-82.87)"/><ellipse class="cls-14" cx="1092.16" cy="802.13" rx="63.44" ry="30.17"/><rect class="cls-42" x="1032.1" y="682.02" width="127.72" height="54.65" rx="12"/><rect x="1068.61" y="774.77" width="3.88" height="16.07"/><rect x="1107.87" y="776.74" width="3.88" height="15.16"/><path class="cls-18" d="M1092.12,669.84l-51.14.59c0-.19,0-.39,0-.59,0-32,23.09-58.33,51.15-58.33s51.14,26.33,51.14,58.33Z"/><path class="cls-43" d="M1143.26,669.29v110a31.92,31.92,0,0,0-11.07-1.87c-7.16,0-13.43,2.09-16.84,5.21-3.57-2.58-9.26-4.26-15.66-4.26-9.3,0-17.09,3.53-19.08,8.27h-1c-2-4.74-9.77-8.27-19.08-8.27s-17.08,3.53-19.07,8.27h-.5V669.29Z"/><ellipse class="cls-44" cx="1066.42" cy="644.04" rx="7.76" ry="7.88"/><ellipse class="cls-44" cx="1103.75" cy="648.96" rx="7.76" ry="7.88"/><ellipse class="cls-38" cx="1064.49" cy="641.82" rx="1.94" ry="1.72"/><ellipse class="cls-38" cx="1106.66" cy="650.68" rx="1.94" ry="1.72"/><path class="cls-42" d="M1143,709.08l.46,17.77c-6.09.16-11.31-7.73-11.56-17.47s4.54-17.91,10.63-18.07a6.89,6.89,0,0,1,.79,0Z"/><path class="cls-42" d="M1041.26,706.07l-.33-17.76h.33c6.09,0,11.11,8,11.11,17.77s-5,17.78-11.11,17.78h-.21Z"/><path class="cls-18" d="M1143.26,710.25l0,15.61h0c-2.59,0-4.73-7.05-4.73-15.61s2.14-15.62,4.73-15.62h.06Z"/><path class="cls-42" d="M1120.09,609.73l-13.74-8.84c5.65-9.1,14-14.81,21-15.16a11,11,0,0,1,6.61,1.62c7.56,4.82,7.53,18.89-.06,31.16Z"/><polygon class="cls-42" points="1133.24 618.25 1133.36 610.39 1133.48 602.52 1148.74 606.69 1164 610.87 1148.62 614.56 1133.24 618.25"/><ellipse cx="1079.41" cy="673.61" rx="14.19" ry="14.41"/><ellipse class="cls-18" cx="1080.59" cy="668.21" rx="14.19" ry="14.41"/><path class="cls-18" d="M1041.17,706.17l-.47-16.95a1.89,1.89,0,0,1,.47-.06c3.06,0,5.58,7.68,5.58,17s-2.52,17-5.58,17h-.23Z"/><path class="cls-9" d="M1120.35,606l-7.92-5.1c3.26-5.25,8.06-8.54,12.09-8.75a6.36,6.36,0,0,1,3.81.94c4.36,2.78,4.34,10.9,0,18Z"/><ellipse cx="1064.09" cy="793.53" rx="10.18" ry="5.42"/><ellipse class="cls-45" cx="1064.09" cy="793.55" rx="10.07" ry="5.34"/><ellipse class="cls-15" cx="1064.09" cy="793.57" rx="9.96" ry="5.27"/><ellipse class="cls-46" cx="1064.09" cy="793.58" rx="9.85" ry="5.2"/><ellipse class="cls-47" cx="1064.09" cy="793.6" rx="9.74" ry="5.13"/><ellipse class="cls-48" cx="1064.09" cy="793.61" rx="9.64" ry="5.06"/><ellipse class="cls-49" cx="1064.09" cy="793.63" rx="9.53" ry="4.99"/><ellipse class="cls-50" cx="1064.08" cy="793.65" rx="9.42" ry="4.91"/><ellipse class="cls-51" cx="1064.08" cy="793.66" rx="9.31" ry="4.84"/><ellipse class="cls-52" cx="1064.08" cy="793.68" rx="9.2" ry="4.77"/><ellipse class="cls-53" cx="1064.08" cy="793.69" rx="9.09" ry="4.7"/><ellipse class="cls-54" cx="1064.08" cy="793.71" rx="8.98" ry="4.63"/><ellipse class="cls-55" cx="1064.08" cy="793.73" rx="8.87" ry="4.55"/><ellipse class="cls-56" cx="1064.08" cy="793.74" rx="8.76" ry="4.48"/><ellipse class="cls-57" cx="1064.08" cy="793.76" rx="8.65" ry="4.41"/><ellipse class="cls-58" cx="1064.08" cy="793.77" rx="8.55" ry="4.34"/><ellipse class="cls-59" cx="1064.08" cy="793.79" rx="8.44" ry="4.27"/><ellipse class="cls-60" cx="1064.08" cy="793.81" rx="8.33" ry="4.19"/><ellipse class="cls-61" cx="1064.08" cy="793.82" rx="8.22" ry="4.12"/><ellipse class="cls-62" cx="1064.08" cy="793.84" rx="8.11" ry="4.05"/><ellipse class="cls-63" cx="1064.08" cy="793.85" rx="8" ry="3.98"/><ellipse class="cls-64" cx="1064.07" cy="793.87" rx="7.89" ry="3.91"/><ellipse class="cls-65" cx="1064.07" cy="793.89" rx="7.78" ry="3.84"/><ellipse class="cls-66" cx="1064.07" cy="793.9" rx="7.67" ry="3.76"/><ellipse class="cls-67" cx="1064.07" cy="793.92" rx="7.56" ry="3.69"/><ellipse class="cls-68" cx="1064.07" cy="793.93" rx="7.46" ry="3.62"/><ellipse class="cls-69" cx="1064.07" cy="793.95" rx="7.35" ry="3.55"/><ellipse class="cls-70" cx="1064.07" cy="793.97" rx="7.24" ry="3.48"/><ellipse class="cls-71" cx="1064.07" cy="793.98" rx="7.13" ry="3.4"/><ellipse class="cls-72" cx="1064.07" cy="794" rx="7.02" ry="3.33"/><ellipse class="cls-73" cx="1064.07" cy="794.01" rx="6.91" ry="3.26"/><ellipse class="cls-74" cx="1064.07" cy="794.03" rx="6.8" ry="3.19"/><ellipse class="cls-75" cx="1059.19" cy="790.75" rx="2.64" ry="1.13" transform="translate(-223.78 472.67) rotate(-22.82)"/><ellipse cx="1116.41" cy="794.6" rx="10.18" ry="5.42"/><ellipse class="cls-45" cx="1116.41" cy="794.61" rx="10.07" ry="5.34"/><ellipse class="cls-15" cx="1116.41" cy="794.63" rx="9.96" ry="5.27"/><ellipse class="cls-46" cx="1116.41" cy="794.65" rx="9.85" ry="5.2"/><ellipse class="cls-47" cx="1116.41" cy="794.66" rx="9.74" ry="5.13"/><ellipse class="cls-48" cx="1116.41" cy="794.68" rx="9.64" ry="5.06"/><ellipse class="cls-49" cx="1116.41" cy="794.69" rx="9.53" ry="4.99"/><ellipse class="cls-50" cx="1116.4" cy="794.71" rx="9.42" ry="4.91"/><ellipse class="cls-51" cx="1116.4" cy="794.72" rx="9.31" ry="4.84"/><ellipse class="cls-52" cx="1116.4" cy="794.74" rx="9.2" ry="4.77"/><ellipse class="cls-53" cx="1116.4" cy="794.76" rx="9.09" ry="4.7"/><ellipse class="cls-54" cx="1116.4" cy="794.77" rx="8.98" ry="4.63"/><ellipse class="cls-55" cx="1116.4" cy="794.79" rx="8.87" ry="4.55"/><ellipse class="cls-56" cx="1116.4" cy="794.8" rx="8.76" ry="4.48"/><ellipse class="cls-57" cx="1116.4" cy="794.82" rx="8.65" ry="4.41"/><ellipse class="cls-58" cx="1116.4" cy="794.84" rx="8.55" ry="4.34"/><ellipse class="cls-59" cx="1116.4" cy="794.85" rx="8.44" ry="4.27"/><ellipse class="cls-60" cx="1116.4" cy="794.87" rx="8.33" ry="4.19"/><ellipse class="cls-61" cx="1116.4" cy="794.88" rx="8.22" ry="4.12"/><ellipse class="cls-62" cx="1116.4" cy="794.9" rx="8.11" ry="4.05"/><ellipse class="cls-63" cx="1116.4" cy="794.92" rx="8" ry="3.98"/><ellipse class="cls-64" cx="1116.4" cy="794.93" rx="7.89" ry="3.91"/><ellipse class="cls-65" cx="1116.39" cy="794.95" rx="7.78" ry="3.84"/><ellipse class="cls-66" cx="1116.39" cy="794.96" rx="7.67" ry="3.76"/><ellipse class="cls-67" cx="1116.39" cy="794.98" rx="7.56" ry="3.69"/><ellipse class="cls-68" cx="1116.39" cy="795" rx="7.46" ry="3.62"/><ellipse class="cls-69" cx="1116.39" cy="795.01" rx="7.35" ry="3.55"/><ellipse class="cls-70" cx="1116.39" cy="795.03" rx="7.24" ry="3.48"/><ellipse class="cls-71" cx="1116.39" cy="795.04" rx="7.13" ry="3.4"/><ellipse class="cls-72" cx="1116.39" cy="795.06" rx="7.02" ry="3.33"/><ellipse class="cls-73" cx="1116.39" cy="795.08" rx="6.91" ry="3.26"/><ellipse class="cls-74" cx="1116.39" cy="795.09" rx="6.8" ry="3.19"/><ellipse class="cls-76" cx="1121.97" cy="791.82" rx="1.13" ry="2.63" transform="translate(22.38 1614.42) rotate(-72.01)"/><polygon class="cls-14" points="301.75 489.61 315.48 480.68 408.86 570.14 395.13 579.07 301.75 489.61"/><polygon class="cls-14" points="367.74 594.25 404.27 572.23 440.81 550.2 460.14 599.96 479.47 649.73 423.61 621.99 367.74 594.25"/><circle cx="296.46" cy="535.4" r="25.6"/><polygon points="304.27 499.03 310.22 509.28 316.17 519.53 304.26 519.59 292.35 519.65 298.31 509.34 304.27 499.03"/><polygon points="288.11 499.03 294.24 509.6 300.38 520.17 288.59 519.94 276.81 519.72 282.46 509.37 288.11 499.03"/><circle class="cls-77" cx="301.31" cy="527.86" r="2.96"/><circle class="cls-77" cx="281.91" cy="527.86" r="2.96"/><polygon class="cls-9" points="285.72 532.85 288.8 532.91 291.88 532.98 290.29 535.25 288.71 537.52 287.21 535.19 285.72 532.85"/><ellipse cx="383.23" cy="518.18" rx="10.72" ry="2.42" transform="translate(-229.3 317.73) rotate(-35.39)"/><ellipse cx="386.18" cy="506.57" rx="2.16" ry="9.16" transform="translate(-222.03 317.29) rotate(-35.39)"/><ellipse cx="316.67" cy="577.97" rx="3.23" ry="13.2"/><ellipse cx="330.14" cy="581.74" rx="3.23" ry="13.2"/><ellipse cx="373.25" cy="576.36" rx="3.23" ry="13.2"/><ellipse cx="360.85" cy="574.2" rx="3.23" ry="13.2"/><polygon class="cls-9" points="288.19 505.09 289.6 507.55 291 510 288.25 509.94 285.5 509.89 286.85 507.49 288.19 505.09"/><polygon class="cls-9" points="304 504 305.66 506.91 307.32 509.81 304.44 509.53 301.56 509.25 302.78 506.63 304 504"/><rect class="cls-12" x="301" y="315" width="22" height="179"/><g id="shiny"><g class="cls-78"><g class="cls-78"><g class="cls-78"><g class="cls-79"><g class="cls-78"><g class="cls-80"><polygon class="cls-81" points="543.77 384.23 551.29 411.63 506.98 424.05 499.46 396.65 543.77 384.23"/></g></g></g></g></g></g></g><path class="cls-9" d="M737.09,472.08a36.25,36.25,0,0,1-8.9,18.73,35.89,35.89,0,0,0-30.78-37.61c-19.64-2.7-37.82,11.23-40.63,31.12a36,36,0,0,0-30.47-40.89c-19.64-2.69-37.82,11.24-40.63,31.12a36,36,0,0,0-30.47-40.88c-19.64-2.7-37.82,11.24-40.63,31.12A36.38,36.38,0,0,0,521,491.15c-24.93-15.28-39.3-34.69-36.61-53.77,4.94-35,65.5-55.65,135.28-46.07S742,437.05,737.09,472.08Z"/><path class="cls-9" d="M797.53,462.83a37.5,37.5,0,0,0,14.6,15.07c-7-17.33.08-37,16.85-45,17.74-8.52,39.58-.83,48.77,17.19-9.19-18-2.26-39.53,15.48-48.05s39.58-.83,48.77,17.18c-9.19-18-2.26-39.52,15.48-48.05s39.58-.83,48.77,17.19a36.22,36.22,0,0,1,2.56,27c18.62-22.07,25.88-44.85,17.06-62.14-16.19-31.73-80.43-32.9-143.49-2.61S781.34,431.1,797.53,462.83Z"/><ellipse class="cls-9" cx="765.48" cy="459.38" rx="52.97" ry="47.03" transform="translate(-29.79 53.75) rotate(-3.94)"/><ellipse class="cls-9" cx="765.07" cy="459.31" rx="37.15" ry="38.19" transform="translate(251.5 1189.06) rotate(-85.84)"/><ellipse class="cls-9" cx="765.59" cy="463.81" rx="30.35" ry="31.2" transform="translate(247.49 1193.76) rotate(-85.84)"/><ellipse class="cls-9" cx="766.11" cy="468.32" rx="23.56" ry="24.22" transform="translate(243.48 1198.45) rotate(-85.84)"/><ellipse class="cls-82" cx="762.66" cy="438.59" rx="26.06" ry="12.7" transform="translate(-40.9 80.4) rotate(-5.88)"/><polygon class="cls-9" points="757.01 484.44 754.09 464.4 751.16 444.37 771.27 451.88 791.38 459.38 774.2 471.91 757.01 484.44"/><path d="M732.12,471.47A37.32,37.32,0,0,1,722.47,490c1.85-18.76-10.37-36-28.51-39.36-19.21-3.56-37.78,9.76-41.49,29.75,3.71-20-8.85-39.09-28.05-42.65s-37.77,9.75-41.48,29.75c3.71-20-8.85-39.09-28.05-42.65s-37.78,9.75-41.49,29.75a37.53,37.53,0,0,0,5.08,26.94c-23.81-16.52-37-36.76-33.47-55.95,6.53-35.22,67.15-53.51,135.39-40.84S738.66,436.25,732.12,471.47Z"/><path d="M792.07,464.69a37.37,37.37,0,0,0,13.66,15.86c-6.1-17.83,1.84-37.41,18.73-44.84,17.88-7.87,39,.84,47.2,19.46-8.19-18.62-.34-40.08,17.53-47.95s39,.85,47.2,19.46c-8.19-18.61-.34-40.08,17.54-47.94s39,.84,47.19,19.46a37.52,37.52,0,0,1,1.23,27.38c19.39-21.53,27.63-44.26,19.77-62.12-14.43-32.79-77.62-36.71-141.15-8.75S777.65,431.9,792.07,464.69Z"/><ellipse cx="760.68" cy="459.83" rx="52.22" ry="47.6" transform="translate(-28.39 50.62) rotate(-3.74)"/><circle class="cls-83" cx="760.28" cy="459.74" r="37.62"/><circle class="cls-84" cx="760.58" cy="464.32" r="30.74"/><circle class="cls-85" cx="760.88" cy="468.9" r="23.86"/><ellipse class="cls-86" cx="758.9" cy="438.68" rx="25.69" ry="12.85" transform="translate(-27.01 50.46) rotate(-3.74)"/><polygon points="751.15 484.82 749.22 464.43 747.29 444.04 766.74 452.49 786.18 460.94 768.66 472.88 751.15 484.82"/><image class="cls-87" width="1331" height="394" transform="translate(139.8 71.75)" xlink:href="Titlescreen1.png"/><circle class="cls-9" cx="1208.31" cy="154.86" r="2.96"/><circle class="cls-9" cx="1218.31" cy="156.86" r="2.96"/><g class="cls-88"><path class="cls-89" d="M461.23,118.58,393,120.65c0-.31,0-.62,0-.93-.29-17.1,30.3-31.68,67.76-32.3s68.52,12.92,68.81,30Z"/><ellipse class="cls-89" cx="512.01" cy="127.9" rx="33.6" ry="21" transform="translate(-2.06 8.56) rotate(-0.96)"/><ellipse class="cls-89" cx="450.57" cy="128.92" rx="33.6" ry="21" transform="translate(-2.09 7.54) rotate(-0.96)"/><ellipse class="cls-89" cx="397.51" cy="128.04" rx="33.6" ry="21" transform="translate(-2.08 6.65) rotate(-0.96)"/><ellipse class="cls-89" cx="407.68" cy="101.79" rx="24.75" ry="18.79" transform="translate(-1.64 6.82) rotate(-0.96)"/><ellipse class="cls-89" cx="505.58" cy="100.15" rx="24.98" ry="21" transform="translate(-1.6 8.45) rotate(-0.96)"/><ellipse class="cls-89" cx="453.56" cy="96.16" rx="33.6" ry="21" transform="translate(-1.54 7.58) rotate(-0.96)"/></g><path class="cls-10" d="M1163.76,125.49l-123.87,4.18q-.08-.84-.09-1.68c-.62-31,54.82-57.7,122.82-59.06S1287.1,92,1287.72,123Z"/><ellipse class="cls-10" cx="1256" cy="142.09" rx="60.99" ry="38.12" transform="translate(-2.61 25.31) rotate(-1.15)"/><ellipse class="cls-10" cx="1144.48" cy="144.34" rx="60.99" ry="38.12" transform="translate(-2.67 23.07) rotate(-1.15)"/><ellipse class="cls-10" cx="1048.13" cy="143.07" rx="60.99" ry="38.12" transform="translate(-2.67 21.13) rotate(-1.15)"/><ellipse class="cls-10" cx="1066.43" cy="95.34" rx="44.94" ry="34.11" transform="translate(-1.7 21.48) rotate(-1.15)"/><ellipse class="cls-10" cx="1244.15" cy="91.77" rx="45.34" ry="38.12" transform="translate(-1.6 25.06) rotate(-1.15)"/><ellipse class="cls-10" cx="1149.7" cy="84.84" rx="60.99" ry="38.12" transform="translate(-1.47 23.16) rotate(-1.15)"/><image class="cls-90" width="260" height="139" transform="translate(1094.55 82.72)" xlink:href="Titlescreen2.png"/><g class="cls-88"><path class="cls-89" d="M978.05,87.77l-68.27,0c0-.31,0-.62,0-.93C910,69.79,941,56.13,978.45,56.61s68.11,15,67.89,32.05Z"/><ellipse class="cls-89" cx="1028.53" cy="98.6" rx="21" ry="33.6" transform="translate(916.57 1125.76) rotate(-89.26)"/><ellipse class="cls-89" cx="967.09" cy="97.8" rx="21" ry="33.6" transform="translate(856.73 1063.54) rotate(-89.26)"/><ellipse class="cls-89" cx="914.07" cy="95.34" rx="21" ry="33.6" transform="translate(806.86 1008.1) rotate(-89.26)"/><ellipse class="cls-89" cx="925.02" cy="69.4" rx="18.79" ry="24.75" transform="translate(843.6 993.44) rotate(-89.26)"/><ellipse class="cls-89" cx="1022.92" cy="70.67" rx="21" ry="24.98" transform="translate(938.96 1092.59) rotate(-89.26)"/><ellipse class="cls-89" cx="971.05" cy="65.14" rx="21" ry="33.6" transform="translate(893.3 1035.26) rotate(-89.26)"/></g><image class="cls-87" width="1300" height="390" transform="translate(153.4 75.85)" xlink:href="Titlescreen3.png"/><g class="cls-88"><path class="cls-89" d="M97.23,207.58,29,209.65c0-.31,0-.62,0-.93-.29-17.1,30.3-31.68,67.76-32.3s68.52,12.92,68.81,30Z"/><ellipse class="cls-89" cx="148.01" cy="216.9" rx="33.6" ry="21" transform="translate(-3.6 2.5) rotate(-0.96)"/><ellipse class="cls-89" cx="86.57" cy="217.92" rx="33.6" ry="21" transform="translate(-3.63 1.48) rotate(-0.96)"/><ellipse class="cls-89" cx="33.51" cy="217.04" rx="33.6" ry="21" transform="translate(-3.62 0.59) rotate(-0.96)"/><ellipse class="cls-89" cx="43.68" cy="190.79" rx="24.75" ry="18.79" transform="translate(-3.18 0.76) rotate(-0.96)"/><ellipse class="cls-89" cx="141.58" cy="189.15" rx="24.98" ry="21" transform="translate(-3.14 2.39) rotate(-0.96)"/><ellipse class="cls-89" cx="89.56" cy="185.16" rx="33.6" ry="21" transform="translate(-3.08 1.52) rotate(-0.96)"/></g><polygon class="cls-91" points="244.09 349.5 176.13 348.89 108.17 348.29 143 253.46 177.82 158.63 210.96 254.06 244.09 349.5"/><ellipse cx="894.91" cy="566.07" rx="59.06" ry="58.71" transform="translate(135.85 1304.39) rotate(-76.52)"/><ellipse cx="935.04" cy="575.69" rx="59.06" ry="54.7" transform="translate(157.27 1350.79) rotate(-76.52)"/><ellipse cx="895.8" cy="567.01" rx="55.62" ry="55.29" transform="translate(135.61 1305.98) rotate(-76.52)"/><ellipse cx="933.59" cy="576.07" rx="55.62" ry="51.52" transform="translate(155.78 1349.68) rotate(-76.52)"/><ellipse cx="896.69" cy="567.96" rx="52.18" ry="51.87" transform="translate(135.37 1307.57) rotate(-76.52)"/><ellipse cx="932.14" cy="576.45" rx="52.18" ry="48.33" transform="translate(154.3 1348.56) rotate(-76.52)"/><circle class="cls-34" cx="885.28" cy="568.68" r="58.59"/><ellipse class="cls-34" cx="925.32" cy="578.27" rx="58.59" ry="54.59" transform="translate(147.3 1343.32) rotate(-76.52)"/><circle class="cls-35" cx="886.16" cy="569.61" r="55.18"/><ellipse class="cls-35" cx="923.88" cy="578.65" rx="55.18" ry="51.41" transform="translate(145.82 1342.21) rotate(-76.52)"/><circle class="cls-36" cx="887.05" cy="570.55" r="51.77"/><ellipse class="cls-36" cx="922.43" cy="579.03" rx="51.77" ry="48.23" transform="translate(144.35 1341.1) rotate(-76.52)"/><polygon class="cls-92" points="898.86 475.19 908.92 498.04 918.98 520.88 918.35 507.52 917.72 494.16 908.29 484.67 898.86 475.19"/><polygon points="880.42 561.46 868.94 558.83 857.46 556.19 865.75 546.39 874.04 536.58 877.23 549.02 880.42 561.46"/><polygon class="cls-36" points="863.05 556.54 860.98 556.09 858.9 555.64 860.14 554.94 861.38 554.24 862.21 555.39 863.05 556.54"/><rect class="cls-36" x="861.18" y="556.19" width="16.47" height="1.88" transform="translate(153.8 -187.3) rotate(13.48)"/><polygon class="cls-36" points="879.07 560.38 877.29 560 875.51 559.61 876.6 558.88 877.69 558.15 878.38 559.26 879.07 560.38"/><rect class="cls-36" x="856.26" y="547.02" width="20.77" height="1.21" transform="translate(-104.91 874.8) rotate(-50.9)"/><polygon class="cls-36" points="871.71 541.12 872.73 539.32 873.75 537.53 873.72 538.7 873.68 539.87 872.7 540.49 871.71 541.12"/><rect x="858.62" y="554.45" width="4.79" height="0.47" transform="translate(-160.25 477.03) rotate(-28.44)"/><polygon points="938.09 575.28 926.61 572.65 915.13 570.01 923.42 560.21 931.71 550.4 934.9 562.84 938.09 575.28"/><polygon class="cls-36" points="920.71 570.36 918.64 569.91 916.57 569.46 917.8 568.76 919.04 568.06 919.88 569.21 920.71 570.36"/><rect class="cls-36" x="918.84" y="570.01" width="16.47" height="1.88" transform="translate(158.61 -200.36) rotate(13.48)"/><polygon class="cls-36" points="936.73 574.2 934.95 573.82 933.17 573.43 934.26 572.7 935.35 571.97 936.04 573.08 936.73 574.2"/><rect class="cls-36" x="913.92" y="560.84" width="20.77" height="1.21" transform="translate(-94.34 924.65) rotate(-50.9)"/><polygon class="cls-36" points="929.37 554.94 930.39 553.14 931.41 551.35 931.38 552.52 931.35 553.69 930.36 554.31 929.37 554.94"/><rect x="916.28" y="568.27" width="4.79" height="0.47" transform="translate(-159.88 506.16) rotate(-28.44)"/><ellipse class="cls-93" cx="909.63" cy="543.59" rx="28" ry="56.94" transform="translate(169 1301.47) rotate(-76.52)"/><polygon points="940.31 508.75 932.74 501.63 925.17 494.5 967.09 457.54 1009 420.58 974.66 464.66 940.31 508.75"/><polygon class="cls-94" points="938.26 506.14 932.09 500.33 925.91 494.52 958.47 466.11 991.02 437.7 964.64 471.92 938.26 506.14"/><polygon points="988.24 533.93 974.05 521.75 959.87 509.56 1017.04 457.36 1074.22 405.15 1031.23 469.54 988.24 533.93"/><polygon class="cls-95" points="986.07 531.05 973.83 520.53 961.58 510.01 1009.5 466.61 1057.42 423.21 1021.75 477.13 986.07 531.05"/><polygon points="1006.4 563.7 999.65 559.25 992.9 554.81 1029.17 507.11 1065.43 459.42 1035.92 511.56 1006.4 563.7"/><polygon class="cls-96" points="1005.81 560.17 1000.32 556.56 994.83 552.94 1024.32 514.16 1053.81 475.38 1029.81 517.77 1005.81 560.17"/><path d="M833.83,591.17l-.25,0-.64-3.48c-.08-.64-.15-1.17-.22-1.6s-.14-.8-.21-1.13-.13-.61-.2-.88-.14-.54-.21-.85a11.57,11.57,0,0,0,.56-1.11c.13-.3.25-.64.38-1l.29-.09.23,1.22c0,.16,0,.37,0,.62s0,.59,0,1c0,.13,0,.27,0,.42s0,.28,0,.39l.44,2.47c0,.15.05.31.09.49a1.6,1.6,0,0,0,.2.51,1.44,1.44,0,0,0,.35.39.67.67,0,0,0,.51.11,4.18,4.18,0,0,0,1.61-.52,4.64,4.64,0,0,0,1.29-1.08,4.78,4.78,0,0,0,.81-1.47,3.87,3.87,0,0,0,.16-1.73,2.34,2.34,0,0,0-.84-1.56,13.34,13.34,0,0,0-1.73-1.22c-.67-.4-1.39-.84-2.15-1.32a9,9,0,0,1-2.09-1.89,3.12,3.12,0,0,1-.33-.68,4.18,4.18,0,0,1-.15-.77,2.86,2.86,0,0,1,.31-1.9,3.15,3.15,0,0,1,1.24-1.13,5.93,5.93,0,0,1,1.75-.6q1-.2,1.86-.33c.6-.09,1.13-.18,1.58-.27a1.32,1.32,0,0,0,.89-.47l.25,0c.07,0,.11,0,.13.15a4.2,4.2,0,0,1-.06,1c-.06.48-.12.94-.18,1.37a5.08,5.08,0,0,0-.06.67c0,.17,0,.43,0,.79s0,.62,0,.86,0,.38,0,.42l-.3,0-.05-.19c-.08-.36-.18-.76-.3-1.19a5.91,5.91,0,0,0-.46-1.18,2.55,2.55,0,0,0-.75-.87,1.53,1.53,0,0,0-1.14-.25,2.26,2.26,0,0,0-1.41.54,1.85,1.85,0,0,0-.27,1.47,2.72,2.72,0,0,0,.68,1.49,8.34,8.34,0,0,0,1.4,1.19q.83.55,1.74,1.08a20.22,20.22,0,0,1,1.75,1.13,7.36,7.36,0,0,1,1.41,1.3,3.07,3.07,0,0,1,.7,1.64,2.94,2.94,0,0,1-.38,1.87,6.42,6.42,0,0,1-1.36,1.57,13.39,13.39,0,0,1-1.91,1.33c-.71.41-1.4.8-2.07,1.16s-1.26.72-1.78,1A3.17,3.17,0,0,0,833.83,591.17Z"/><path d="M858.28,586.78l-.85,2a2.29,2.29,0,0,0-.17.46c-.08.25-.17.53-.26.84s-.2.64-.3,1a6.62,6.62,0,0,1-.32.83h-.33a6.56,6.56,0,0,0,.07-.92,2.92,2.92,0,0,0-.14-.86.51.51,0,0,0-.52-.4l-6.41.12-3.42,0c-1.1,0-2.07,0-2.9,0v-.39q0-.16.57-.27t1.23-.3a4.7,4.7,0,0,0,1.28-.56,1.37,1.37,0,0,0,.67-1.09l-.12-6.35c0-.07-.1-.11-.3-.1a3.15,3.15,0,0,0-.55.06l-.65.13-.55.12-.26.06.39-1.34c0-.09.14-.18.33-.28a5.08,5.08,0,0,1,.61-.26,6.75,6.75,0,0,1,.66-.19,3.42,3.42,0,0,1,.46-.08l-.23-3.17a13.86,13.86,0,0,0-.22-1.69,3.84,3.84,0,0,0-.86-1.66,2.41,2.41,0,0,0-.36-.31l-.66-.5-.67-.5a3.63,3.63,0,0,1-.38-.28v-.39c.89.06,1.77.1,2.65.12s1.8,0,2.74,0,2-.06,3-.11,2-.13,3.09-.22a1.76,1.76,0,0,0,.41-.06,4.74,4.74,0,0,0,.5-.15l.45-.17.29-.15.27,0a3.37,3.37,0,0,1-.12,1,9.4,9.4,0,0,1-.31,1l-.36,1a6.38,6.38,0,0,0-.24,1.07,3.31,3.31,0,0,1-.19.74c-.12.32-.24.64-.37,1s-.26.59-.37.82a1.36,1.36,0,0,1-.21.35H854l.28-4v-.25q0-.65-.51-.75a8.26,8.26,0,0,0-1.69-.12l-1.35,0c-.24,0-.42.15-.55.44a4,4,0,0,0-.25,1.07c0,.42-.07.88-.08,1.38s0,1,0,1.38l0,3c0,.05.25.09.73.12s1.07.06,1.75.08l2.07.1c.71,0,1.28.1,1.73.16l.5.58c0,.11-.08.21-.25.3a3.06,3.06,0,0,1-.63.25c-.25.07-.51.13-.79.18s-.51.09-.71.11a1.09,1.09,0,0,1-.31,0h-2.81l-1.16,0,0,2.81.15,1.24c0,.5.1,1,.16,1.45s.1.87.14,1.21a1.91,1.91,0,0,0,.1.51.45.45,0,0,0,.28.29,2.38,2.38,0,0,0,.54.13l.65,0h.61l1.05,0a9.08,9.08,0,0,0,1.43-.22,7.47,7.47,0,0,0,1.52-.54,4.37,4.37,0,0,0,1.32-1h.28Z"/><path d="M862.88,585.07l.78-9.08a9.4,9.4,0,0,0,0-1.32,6.49,6.49,0,0,0-.17-1.36,3.28,3.28,0,0,0-.45-1.09,1,1,0,0,0-.79-.5l-.16,0-.27,0a2.13,2.13,0,0,0-.71.1,3.44,3.44,0,0,0-.77.33,3.22,3.22,0,0,0-.69.54,1.49,1.49,0,0,0-.39.73l-.3,3.52-.36,0s0-.1-.09-.29-.08-.41-.13-.67-.1-.54-.14-.82-.06-.51-.07-.67a5.78,5.78,0,0,0-.19-1.18c-.1-.42-.2-.83-.31-1.25s-.18-.82-.25-1.21a4.33,4.33,0,0,1-.06-1.12h.28a1.22,1.22,0,0,0,.28.16l.43.21.49.18a2.06,2.06,0,0,0,.41.09c1.09.17,2.15.31,3.17.44s2.06.23,3.11.32c2.18.19,4.49.3,6.92.35a2.15,2.15,0,0,0,.42,0,4.59,4.59,0,0,0,.51-.1l.47-.12a1.65,1.65,0,0,0,.3-.12l.27.06a6.84,6.84,0,0,1-.23,1.17c-.12.43-.25.88-.39,1.34s-.29.91-.43,1.34-.27.84-.36,1.21a5.23,5.23,0,0,1-.18.65l-.27.78-.25.64c-.07.18-.12.27-.14.27l-.35,0V574.4a1.36,1.36,0,0,0-.22-.78,2.86,2.86,0,0,0-.56-.64,3.3,3.3,0,0,0-.7-.47,2.23,2.23,0,0,0-.66-.21h-.45a1,1,0,0,0-.92.4,3.59,3.59,0,0,0-.61,1.12,9.45,9.45,0,0,0-.37,1.46c-.09.52-.16,1-.19,1.42l-.75,8.69a8.17,8.17,0,0,0,0,2,6.8,6.8,0,0,0,.38,1.44,3.6,3.6,0,0,0,.55,1,3.29,3.29,0,0,0,.58.56l0,.27c-.63-.11-1.28-.21-1.93-.3s-1.3-.17-2-.22-1.33-.1-2-.11l-2.09,0,0-.27a6.56,6.56,0,0,1,.69-.33,2.52,2.52,0,0,0,.86-.63,5,5,0,0,0,.81-1.31A8.42,8.42,0,0,0,862.88,585.07Z"/><path d="M875.73,586.59l1.56-9a10,10,0,0,0,.15-1.32,6.84,6.84,0,0,0-.05-1.37,3.59,3.59,0,0,0-.35-1.12,1,1,0,0,0-.75-.57l-.16,0-.27-.06a1.7,1.7,0,0,0-.7,0,3.21,3.21,0,0,0-.81.27,3.08,3.08,0,0,0-.72.47,1.56,1.56,0,0,0-.46.69l-.61,3.48-.35-.06s0-.1-.06-.29,0-.42-.08-.69-.05-.54-.07-.82,0-.51,0-.67a6.35,6.35,0,0,0-.09-1.2c-.07-.42-.13-.84-.2-1.26s-.11-.84-.15-1.24a4.5,4.5,0,0,1,0-1.11l.28,0a1.45,1.45,0,0,0,.26.19l.42.24.47.22a1.59,1.59,0,0,0,.4.12q1.61.4,3.12.72c1,.21,2,.41,3.07.59,2.15.38,4.44.69,6.87.95a1.75,1.75,0,0,0,.41,0,3.15,3.15,0,0,0,.52,0l.47-.08a1.33,1.33,0,0,0,.31-.09l.27.08a6.43,6.43,0,0,1-.33,1.15c-.15.42-.32.85-.5,1.3s-.37.88-.55,1.3-.34.81-.46,1.17q-.07.24-.24.63c-.11.26-.22.51-.34.75l-.3.62c-.09.17-.14.26-.16.26l-.35-.07.36-4a1.4,1.4,0,0,0-.15-.8,2.65,2.65,0,0,0-.5-.69,3,3,0,0,0-.66-.52,1.92,1.92,0,0,0-.64-.27l-.28,0-.16,0a1,1,0,0,0-1,.31,3.44,3.44,0,0,0-.71,1.07,9.6,9.6,0,0,0-.5,1.43,13.7,13.7,0,0,0-.31,1.38l-1.5,8.6a8,8,0,0,0-.14,2,6.6,6.6,0,0,0,.25,1.48,3.45,3.45,0,0,0,.46,1,3.4,3.4,0,0,0,.53.61l-.05.27c-.63-.17-1.26-.32-1.89-.47s-1.29-.28-1.94-.4-1.32-.2-2-.28l-2.08-.21,0-.27q.27-.12.72-.27a2.63,2.63,0,0,0,.91-.55,4.66,4.66,0,0,0,.91-1.23A8.51,8.51,0,0,0,875.73,586.59Z"/><path d="M902.73,578.28a1.33,1.33,0,0,0-1.22.3,5.07,5.07,0,0,0-1.15,1.48,15.84,15.84,0,0,0-1.07,2.49c-.34,1-.68,2.08-1,3.28s-.61,2.32-.9,3.59-.59,2.6-.86,4a1.9,1.9,0,0,0,0,.86,5.7,5.7,0,0,0,.26.92,4.36,4.36,0,0,0,.44.83,4.49,4.49,0,0,0,.48.62l-.08.26c-.6-.22-1.22-.43-1.84-.64s-1.25-.39-1.89-.57-1.3-.33-2-.47l-2-.4.07-.27.28-.06a6.47,6.47,0,0,0,.74-.25,2.72,2.72,0,0,0,.83-.6,5.26,5.26,0,0,0,.86-1.27,12.22,12.22,0,0,0,.81-2.27l2-7.25.12-.43.06-.24a.78.78,0,0,0,0-.22c.16-.7.27-1.35.36-2a7.31,7.31,0,0,0,.06-1.59,2.54,2.54,0,0,0-.38-1.19,1.83,1.83,0,0,0-.94-.72l.1-.37c.63.15,1.22.28,1.76.39s1.07.23,1.59.37a3.89,3.89,0,0,0-1-.58c-.42-.16-.83-.29-1.22-.4a6.62,6.62,0,0,0-3.16-.08,8.51,8.51,0,0,0-3,1.29,10.54,10.54,0,0,0-2.52,2.39,11,11,0,0,0-1.7,3.2,9.76,9.76,0,0,1,.15-1.12c.07-.35.15-.7.24-1a9.53,9.53,0,0,1,1.48-2.78,10,10,0,0,1,2.24-2.17,10.62,10.62,0,0,1,2.91-1.41,11.75,11.75,0,0,1,3.52-.51l.69.14.65.17a13.26,13.26,0,0,1,1.94.65,6.85,6.85,0,0,1,1.39.8,6.58,6.58,0,0,1,1.06,1,14.75,14.75,0,0,1,1,1.38Z"/><path d="M917.65,607.07l-.37-.12c-.19-.08-.29-.28-.31-.61a6.82,6.82,0,0,1,0-1.09c0-.4.09-.79.13-1.16a1.74,1.74,0,0,0,0-.81,25.88,25.88,0,0,0-.61-3.66c-.29-1.19-.61-2.38-1-3.57s-.67-2.37-1-3.54a35.44,35.44,0,0,1-.8-3.6l-.18-.07L910,597.37a4.11,4.11,0,0,0-.35,1.56,3.75,3.75,0,0,0,.21,1.22,3.69,3.69,0,0,0,.47.91l.48.6-.16.38a29.59,29.59,0,0,0-2.84-1.36,23.84,23.84,0,0,0-2.74-1l.17-.38c0-.07.16-.12.4-.15a3.58,3.58,0,0,0,.86-.23,3.38,3.38,0,0,0,1-.69,4.11,4.11,0,0,0,1-1.51l4.84-11.59a3.45,3.45,0,0,0,.31-2.16,2.42,2.42,0,0,0-1.57-1.42,5.79,5.79,0,0,0-3-.39,8.93,8.93,0,0,0-3,1,11.14,11.14,0,0,0-4.7,4.87,10.8,10.8,0,0,1,.29-1.09c.11-.34.24-.67.37-1a9.9,9.9,0,0,1,1.83-2.55,10.21,10.21,0,0,1,2.52-1.86,10.77,10.77,0,0,1,3.07-1,12,12,0,0,1,3.55,0l.66.24.63.24a14.66,14.66,0,0,1,3.41,1.94,11.84,11.84,0,0,1,2.42,2.53l-.13.31a.89.89,0,0,0-1.09.17,3.77,3.77,0,0,0-.72,1.14,3.28,3.28,0,0,0-.2,1.31,12.91,12.91,0,0,0,.16,1.75c.1.64.24,1.31.4,2s.33,1.35.5,2l.51,1.77c.16.54.29,1,.38,1.33l.23.09,3-7.18a2.68,2.68,0,0,0,.23-.92,1.67,1.67,0,0,0-.11-.69,2.3,2.3,0,0,0-.35-.58c-.14-.18-.29-.37-.44-.58l.15-.35.34.19.37.17.74.31.19.11.23.09.44.18c.59.25,1.19.47,1.79.66s1.22.41,1.88.64l-.1.26a5.67,5.67,0,0,0-.9-.07,3.37,3.37,0,0,0-1.13.22,3.83,3.83,0,0,0-1.16.74,4.11,4.11,0,0,0-1,1.49Z"/><path d="M938.73,600.21q.59-1,.87-1.59a2.12,2.12,0,0,0,.24-1,1,1,0,0,0-.33-.68,5.89,5.89,0,0,0-.87-.62,8.17,8.17,0,0,0-.8-.41,10,10,0,0,0-1.07-.42,10.52,10.52,0,0,0-1.2-.3,3.64,3.64,0,0,0-1.18,0,5.37,5.37,0,0,0-1.6.43,7.32,7.32,0,0,0-1.68,1.07,12.29,12.29,0,0,0-1.81,1.85,23.42,23.42,0,0,0-1.91,2.79,10.79,10.79,0,0,0-1.2,2.85,5.34,5.34,0,0,0,0,2.86,4.43,4.43,0,0,1,.18.55,3.1,3.1,0,0,0,.27.6,3.54,3.54,0,0,0,.53.63,5.09,5.09,0,0,0,.92.69,3.84,3.84,0,0,0,1.89.68,1.89,1.89,0,0,0,1.41-.93L933,606.5a2.46,2.46,0,0,0,.37-1.26,3.06,3.06,0,0,0-.24-1.27,4.22,4.22,0,0,0-.76-1.16,4.68,4.68,0,0,0-1.13-.94,5.08,5.08,0,0,0-.57-.28c-.24-.1-.54-.21-.9-.32l.12-.21a6.78,6.78,0,0,1,.68.05,4.67,4.67,0,0,1,.82.2,7.83,7.83,0,0,1,.85.35c.25.13.47.25.68.38a6,6,0,0,1,.81.58c.22.2.42.4.61.61l.56.63a7.65,7.65,0,0,0,.64.62,1.4,1.4,0,0,0,.4.14l.75.23c.29.09.62.21,1,.35a7.59,7.59,0,0,1,1.06.54l-.08.14a1.13,1.13,0,0,0-.94.2,2.63,2.63,0,0,0-.79.86l-2.48,4.12a3.31,3.31,0,0,1-2,1.36.69.69,0,0,0-.42-.08,8.73,8.73,0,0,0-1,.2,7.1,7.1,0,0,1-.89.16,1.55,1.55,0,0,1-1-.24l-.8-.48a2.49,2.49,0,0,1-.33-.16l-.3-.19-.67-.39a22,22,0,0,1-2.29-1.61,7.88,7.88,0,0,1-1.91-2.17,5.77,5.77,0,0,1-.78-2.81,6.56,6.56,0,0,1,1.1-3.47l1.44-2.39c.41-.7.86-1.37,1.33-2a13.73,13.73,0,0,1,1.57-1.85,12.6,12.6,0,0,1,2-1.58,11.78,11.78,0,0,1,2.57-1.22,2.69,2.69,0,0,1,1.77,0,9.11,9.11,0,0,1,2,.91l1.19.71c.72.44,1.43.89,2.11,1.35s1.33.88,1.91,1.23a2.41,2.41,0,0,0,.38.16,4.67,4.67,0,0,0,.5.14l.48.09a1,1,0,0,0,.32,0l.22.17a5.34,5.34,0,0,1-.65.85l-.83.84-.87.83a9,9,0,0,0-.8.84c-.1.13-.25.3-.44.51l-.59.58-.51.46q-.21.2-.24.18l-.3-.18Z"/><path d="M932.75,616.5l-.27-.2,2.32-3.51c.47-.61.85-1.13,1.15-1.55s.55-.8.75-1.13.38-.63.53-.9l.49-.89a12.28,12.28,0,0,0,1.45-.48c.39-.15.79-.34,1.21-.55l.3.19-.84,1.24c-.12.16-.28.35-.47.56s-.49.49-.87.84a4.89,4.89,0,0,0-.62.68c-.14.19-.27.37-.39.55s-.23.35-.35.51q-.39.51-.63.9a6,6,0,0,1-.37.56,3.83,3.83,0,0,0-.31.47,2.18,2.18,0,0,0-.22.57,1.22,1.22,0,0,0,0,.6,1,1,0,0,0,.38.53,5.83,5.83,0,0,0,1.87,1,5.45,5.45,0,0,0,2,.22,5,5,0,0,0,2-.55,4.56,4.56,0,0,0,1.61-1.37,2.52,2.52,0,0,0,.51-1.28,5.31,5.31,0,0,0-.08-1.52,14.26,14.26,0,0,0-.43-1.71c-.19-.61-.37-1.24-.56-1.92s-.34-1.37-.46-2.1a9.62,9.62,0,0,1-.12-2.29,4.08,4.08,0,0,1,.23-.85,4.17,4.17,0,0,1,.48-.76,3.32,3.32,0,0,1,1.88-1.38A4,4,0,0,1,947,601a8.45,8.45,0,0,1,2.1,1c.69.45,1.34.89,2,1.33s1.17.82,1.66,1.13a1.82,1.82,0,0,0,1.2.36l.24.18s0,.11-.06.23a4.48,4.48,0,0,1-.54.54c-.25.22-.52.44-.8.67s-.58.45-.84.67-.47.38-.61.51-.31.28-.51.48l-.58.58-.5.48a.39.39,0,0,1-.53,0l.11-.2q.33-.57.72-1.29a5.93,5.93,0,0,0,.57-1.43,3,3,0,0,0,.06-1.4,2,2,0,0,0-.81-1.19,2.88,2.88,0,0,0-1.69-.73,2.15,2.15,0,0,0-1.45,1,3.15,3.15,0,0,0-.64,1.87,9.72,9.72,0,0,0,.24,2.22,22.69,22.69,0,0,0,.67,2.42,20.36,20.36,0,0,1,.66,2.45,9,9,0,0,1,.18,2.29,3.5,3.5,0,0,1-.72,2,3.32,3.32,0,0,1-1.92,1.26,7.74,7.74,0,0,1-2.53.16,15.86,15.86,0,0,1-2.83-.52l-2.8-.8c-.9-.27-1.72-.48-2.46-.65A3.86,3.86,0,0,0,932.75,616.5Z"/><ellipse class="cls-14" cx="1293.16" cy="835.13" rx="63.44" ry="30.17"/><polygon class="cls-97" points="1346.67 728.1 1292.36 727.36 1238.04 726.62 1265.84 679.95 1293.63 633.29 1320.15 680.69 1346.67 728.1"/><ellipse cx="1204.19" cy="658.98" rx="5.48" ry="8.01" transform="translate(-122.81 307.69) rotate(-13.86)"/><polygon points="1207.79 654.37 1203.26 656.44 1198.72 658.52 1198.77 652.62 1198.82 646.73 1203.31 650.55 1207.79 654.37"/><circle class="cls-98" cx="1323" cy="674.12" r="4.78"/><polygon class="cls-99" points="1276.32 625.84 1255.4 633.01 1234.48 640.19 1241.2 625.7 1247.92 611.22 1262.12 618.53 1276.32 625.84"/><circle class="cls-9" cx="1279.46" cy="686.87" r="10.62"/><circle class="cls-9" cx="1307.6" cy="686.87" r="10.62"/><polygon class="cls-100" points="1311.65 666.13 1306.8 658.86 1301.96 651.58 1319.46 645.18 1336.96 638.78 1324.31 652.46 1311.65 666.13"/><polygon class="cls-100" points="1273.9 665.82 1269.76 673.31 1265.63 680.8 1256.55 670.9 1247.47 661 1260.68 663.41 1273.9 665.82"/><ellipse class="cls-101" cx="1214.37" cy="673.99" rx="9.94" ry="15.62" transform="translate(-156.52 896.71) rotate(-38.26)"/><ellipse class="cls-99" cx="1250.11" cy="646.42" rx="54.2" ry="16.41" transform="translate(-47.42 1191.46) rotate(-50.13)"/><path class="cls-102" d="M1280.75,641.06l-31,11.32-.33-1c-8.86-26.88-2-53.66,15.17-59.32s38.62,11.79,47.48,38.67Z"/><rect class="cls-103" x="1246.16" y="632.77" width="67.33" height="13.27" rx="4.6" transform="translate(-139.72 461.42) rotate(-19.4)"/><polygon class="cls-99" points="1230.36 650.15 1227.67 653.24 1224.97 656.32 1223.65 652.45 1222.32 648.57 1226.34 649.36 1230.36 650.15"/><polygon class="cls-99" points="1227.55 683.61 1230.48 680.75 1233.41 677.89 1234.42 681.86 1235.43 685.83 1231.49 684.72 1227.55 683.61"/><polygon class="cls-99" points="1229.37 655.41 1228.01 651.54 1226.66 647.67 1230.69 648.44 1234.71 649.2 1232.04 652.3 1229.37 655.41"/><polygon class="cls-99" points="1216.57 681.62 1218.89 684.99 1221.21 688.37 1217.13 688.69 1213.04 689.02 1214.81 685.32 1216.57 681.62"/><polygon class="cls-100" points="1267.42 668.91 1266.76 674.67 1266.11 680.43 1248.91 675.56 1231.7 670.69 1249.56 669.8 1267.42 668.91"/><circle class="cls-104" cx="1276.81" cy="686.33" r="2.65"/><circle class="cls-104" cx="1304.41" cy="686.33" r="2.65"/><path class="cls-98" d="M1308.47,659.56l11.07,18.54-.18.12c-3.7,2.16-11.67-4.48-17.64-14.72s-7.85-20.44-4.14-22.6l.08,0Z"/><rect x="1320.47" y="673.33" width="2.02" height="7.89" transform="translate(1688.48 2116.13) rotate(-131.45)"/><rect x="1314.63" y="668.55" width="2.02" height="7.89" transform="translate(2231.51 1831.94) rotate(-155.38)"/><rect x="1307.72" y="666.96" width="2.02" height="7.89" transform="translate(2617.46 1341.81) rotate(180)"/><path class="cls-98" d="M1275,661.15l9-19.63.19.08c3.88,1.82,2.93,12.15-2.11,22.88s-12.38,18-16.27,16.22l-.08,0Z"/><polygon points="1296.79 695.01 1300.86 697.32 1304.93 699.63 1300.9 702 1296.87 704.37 1296.83 699.69 1296.79 695.01"/><polygon class="cls-97" points="1295.2 695.01 1299.27 697.32 1303.34 699.63 1299.31 702 1295.27 704.37 1295.23 699.69 1295.2 695.01"/><circle cx="1287.42" cy="709.7" r="2.65"/><circle class="cls-98" cx="1332.55" cy="674.65" r="3.72"/><circle class="cls-98" cx="1341.05" cy="677.31" r="3.19"/><circle class="cls-98" cx="1347.42" cy="682.09" r="2.65"/><polygon class="cls-98" points="1345.38 688.2 1349.64 685.37 1353.9 682.54 1354.42 687.95 1354.94 693.36 1350.16 690.78 1345.38 688.2"/><circle class="cls-98" cx="1261.44" cy="674.12" r="4.78"/><circle class="cls-98" cx="1251.35" cy="677.84" r="3.72"/><circle class="cls-98" cx="1243.38" cy="682.62" r="3.19"/><circle class="cls-98" cx="1241.26" cy="690.59" r="2.65"/><rect x="1277.01" y="667.14" width="2.02" height="7.89" transform="matrix(-1, 0.07, -0.07, -1, 2599.92, 1250.96)"/><rect x="1269.66" y="668.88" width="2.02" height="7.89" transform="translate(2708.48 671.51) rotate(152.05)"/><rect x="1264.2" y="673.39" width="2.02" height="7.89" transform="translate(2572.03 84.24) rotate(127.43)"/><polygon class="cls-98" points="1236 693.8 1241.11 694.14 1246.21 694.47 1243.34 699.09 1240.48 703.7 1238.24 698.75 1236 693.8"/><ellipse class="cls-105" cx="1289.67" cy="650.32" rx="65.56" ry="9.9" transform="translate(-142.79 465.31) rotate(-19.4)"/><circle class="cls-106" cx="1274.15" cy="699.61" r="1.59"/><circle class="cls-106" cx="1268.31" cy="699.08" r="1.06"/><circle class="cls-106" cx="1270.43" cy="702.79" r="1.06"/><circle class="cls-106" cx="1315.04" cy="699.34" r="1.59"/><circle class="cls-106" cx="1309.32" cy="700.65" r="1.06"/><circle class="cls-106" cx="1312.49" cy="703.53" r="1.06"/><polygon class="cls-100" points="1282.04 802.13 1254.69 802.49 1227.35 802.85 1240.52 764.29 1253.7 725.73 1267.87 763.93 1282.04 802.13"/><polygon class="cls-100" points="1356.9 802.13 1329.56 802.49 1302.21 802.85 1315.39 764.29 1328.56 725.73 1342.73 763.93 1356.9 802.13"/><polygon class="cls-107" points="1238.22 726.07 1292.59 726.16 1346.96 726.24 1319.7 772.99 1292.45 819.75 1265.33 772.91 1238.22 726.07"/><ellipse cx="1304.95" cy="819.6" rx="11.15" ry="5.84"/><ellipse cx="1279.46" cy="819.6" rx="11.15" ry="5.84"/><g id="shiny-2" data-name="shiny"><g class="cls-108"><g class="cls-108"><g class="cls-108"><g class="cls-79"><g class="cls-108"><g class="cls-109"><rect class="cls-110" x="1271.53" y="814.6" width="8.35" height="5.27" transform="translate(-112.21 209.8) rotate(-9.01)"/></g></g></g></g></g></g></g><g id="shiny-3" data-name="shiny"><g class="cls-111"><g class="cls-111"><g class="cls-111"><g class="cls-79"><g class="cls-111"><g class="cls-112"><rect class="cls-113" x="1307.46" y="813.22" width="5.27" height="8.35" transform="translate(149.3 1835.74) rotate(-73.22)"/></g></g></g></g></g></g></g><rect class="cls-98" x="1291.67" y="726.16" width="1.59" height="91.85"/><circle class="cls-114" cx="1300.17" cy="757.48" r="4.25"/><circle class="cls-114" cx="1300.17" cy="740.49" r="4.25"/><circle class="cls-114" cx="1284.77" cy="740.49" r="4.25"/><circle class="cls-114" cx="1284.77" cy="757.48" r="4.25"/><ellipse cx="372.98" cy="534.05" rx="14.01" ry="2.42" transform="translate(-240 754.47) rotate(-74.85)"/><path d="M379.18,555.88c0,9.67-15.81,17.51-35.3,17.51s-35.3-7.84-35.3-17.51c0-5,4.18-9.46,10.88-12.64,2.58,4.31,12.66,7.52,24.69,7.52,11.85,0,21.79-3.11,24.56-7.32C375.17,546.61,379.18,551,379.18,555.88Z"/><polygon class="cls-115" points="711.31 696.88 629.56 698 547.82 699.11 587.8 634.63 627.79 570.16 669.55 633.52 711.31 696.88"/><ellipse cx="646.77" cy="836.06" rx="16.67" ry="8.65"/><ellipse cx="612.64" cy="836.06" rx="16.67" ry="8.65"/><ellipse class="cls-9" cx="651.6" cy="831.33" rx="2.85" ry="4.32" transform="translate(-239.27 1398.83) rotate(-84.41)"/><ellipse class="cls-9" cx="606.47" cy="831.33" rx="4.32" ry="2.85" transform="translate(-121.46 103.98) rotate(-8.91)"/><ellipse class="cls-14" cx="632.49" cy="831.74" rx="87.31" ry="40.49"/><polygon class="cls-116" points="629.69 839.01 588.4 768.77 547.1 698.54 629.27 698.16 711.45 697.78 670.57 768.4 629.69 839.01"/><ellipse class="cls-9" cx="652.33" cy="642.63" rx="14.29" ry="14.15"/><ellipse class="cls-9" cx="605.5" cy="642.63" rx="14.29" ry="14.15"/><path class="cls-117" d="M596,632l22.88,15.46c1.62-7,.31-12.79-5.39-16.57C606.93,627.12,601.18,627.92,596,632Z"/><path class="cls-118" d="M638.91,647.49l25.81-11.92c-4.25-6.62-10.48-8.46-18.62-5.68C638.75,634.7,636.51,640.6,638.91,647.49Z"/><path class="cls-1" d="M639,647.74q6.94,13.15,21.24,6.94c5.34-4.41,8.46-9.86,4.38-18.73"/><path class="cls-1" d="M618.6,647.74c-4.2,10.18-11.81,11.08-21.5,6.34-6.15-6-8.79-12.7-1.42-21.74l14.69,9.37"/><ellipse cx="597.96" cy="639.09" rx="4.37" ry="5.11"/><ellipse cx="649.55" cy="647.74" rx="4.37" ry="5.11"/><path class="cls-119" d="M638.62,556.1l-52.73,47.31a8.78,8.78,0,0,1-12.33-.6h0a8.61,8.61,0,0,1,.61-12.22l52.74-47.31a8.78,8.78,0,0,1,12.33.6h0A8.6,8.6,0,0,1,638.62,556.1Z"/><polygon class="cls-120" points="602.92 540.12 576.24 564.07 532.45 516.17 559.14 492.23 602.92 540.12"/><polygon class="cls-9" points="614.8 553.73 588.65 577.19 575.91 563.26 602.06 539.79 614.8 553.73"/><polygon class="cls-121" points="610.78 805.89 570.31 806.13 529.85 806.37 549.87 771.53 569.9 736.7 590.34 771.29 610.78 805.89"/><polygon class="cls-122" points="729.85 805.89 689.38 806.13 648.91 806.37 668.94 771.53 688.96 736.7 709.4 771.29 729.85 805.89"/><line class="cls-123" x1="635.26" y1="698.85" x2="629.51" y2="835.61"/><ellipse class="cls-9" cx="622.96" cy="718.9" rx="4.37" ry="4.32"/><ellipse class="cls-9" cx="644" cy="718.51" rx="4.37" ry="4.32"/><ellipse class="cls-9" cx="623.36" cy="735.81" rx="4.37" ry="4.32"/><circle class="cls-9" cx="622.56" cy="735.81" r="0.4"/><ellipse class="cls-9" cx="643.2" cy="735.81" rx="4.37" ry="4.32"/><ellipse class="cls-9" cx="643.2" cy="752.32" rx="4.37" ry="4.32"/><ellipse class="cls-9" cx="623.36" cy="752.32" rx="4.37" ry="4.32"/><ellipse class="cls-9" cx="643.2" cy="771.19" rx="4.37" ry="4.32"/><ellipse class="cls-9" cx="622.56" cy="771.19" rx="4.37" ry="4.32"/><path d="M610.39,596.37l15.05-25.73c7.31,4.25,6.56,19.3-1.65,33.39s-21.06,22.29-28.41,18.09Z"/><path d="M644.58,594.33l17,26a10.26,10.26,0,0,1-1.34.92c-8.19,4.69-22-3.61-30.62-18.37-7.94-13.62-8.95-28.49-2.33-34.32Z"/><polygon points="619.52 674.11 623.16 659.36 626.8 644.6 647.78 657.5 668.76 670.39 644.14 672.25 619.52 674.11"/><polygon class="cls-115" points="619.27 675.69 622.94 659.46 626.62 643.22 643.53 655.5 660.45 667.79 639.86 671.74 619.27 675.69"/><rect class="cls-9" x="631.91" y="598.31" width="3.84" height="3.8" rx="1.9"/><rect class="cls-9" x="636.71" y="598.31" width="5.76" height="3.8" rx="1.9"/><polygon points="604.74 675.47 612.48 678.66 620.21 681.86 612.6 689.16 604.99 696.47 604.87 685.97 604.74 675.47"/><polygon class="cls-9" points="604.75 675.6 612.08 678.62 619.41 681.64 612.51 687.84 605.61 694.03 605.18 684.82 604.75 675.6"/><polygon points="627.37 683.37 632.85 684.83 638.33 686.3 633.83 692.02 629.33 697.74 628.35 690.56 627.37 683.37"/><polygon class="cls-9" points="627.39 683.45 632.58 684.84 637.77 686.23 633.65 691.12 629.54 696.01 628.47 689.73 627.39 683.45"/></g></g></svg>
