<svg xmlns="http://www.w3.org/2000/svg" xmlns:xlink="http://www.w3.org/1999/xlink" width="300" height="200" viewBox="0 0 300 200"><defs><style>.cls-1{isolation:isolate;}.cls-2{mix-blend-mode:screen;fill:url(#linear-gradient);}</style><linearGradient id="linear-gradient" x1="3131.38" y1="2901.99" x2="3131.38" y2="2943.2" gradientTransform="translate(-1339.01 -1421.94) scale(0.47 0.52)" gradientUnits="userSpaceOnUse"><stop offset="0" stop-color="#fff"/><stop offset="0.07" stop-color="#dedede"/><stop offset="0.22" stop-color="#a4a4a4"/><stop offset="0.36" stop-color="#727272"/><stop offset="0.5" stop-color="#494949"/><stop offset="0.64" stop-color="#292929"/><stop offset="0.77" stop-color="#121212"/><stop offset="0.89" stop-color="#050505"/><stop offset="1"/></linearGradient></defs><title>Artboard 29</title><g class="cls-1"><g id="Layer_1" data-name="Layer 1"><ellipse cx="144.38" cy="125.85" rx="34.5" ry="34.14" transform="translate(-22.17 220.42) rotate(-70.66)"/><path d="M167.85,128.11a22.77,22.77,0,0,0,1.91,10.75c1.37-10,8.45-17.72,16.41-17.54,8.43.18,14.67,9.13,13.93,20,.74-10.86,8.17-19.5,16.6-19.32s14.66,9.14,13.93,20c.73-10.85,8.16-19.5,16.59-19.31s14.67,9.14,13.93,20a23.82,23.82,0,0,1-5.2,13.55c11.84-6.1,19.68-15.27,20.38-25.69,1.3-19.12-21.93-35.15-51.89-35.82S169.15,109,167.85,128.11Z"/><path d="M130.61,110.23a17,17,0,0,1-6.92,6.07c4-7.48,2.48-16.74-3.75-21.24-6.59-4.77-15.93-2.4-20.86,5.28,4.93-7.68,3.59-17.77-3-22.54s-15.93-2.4-20.86,5.28c4.93-7.68,3.59-17.77-3-22.54s-15.93-2.4-20.86,5.28A18.52,18.52,0,0,0,48.5,77.89c-6-10.94-7.42-21.62-2.69-29C54.5,35.37,80.53,38.14,104,55.08S139.3,96.71,130.61,110.23Z"/><ellipse class="cls-2" cx="140.25" cy="106.18" rx="19.79" ry="10.77" transform="translate(-19.43 32.39) rotate(-12.33)"/></g></g></svg>