<svg xmlns="http://www.w3.org/2000/svg" xmlns:xlink="http://www.w3.org/1999/xlink" width="1600" height="900" viewBox="0 0 1600 900"><defs><style>.cls-1{isolation:isolate;}.cls-2{fill:#dd0a0a;}.cls-3{fill:url(#linear-gradient);}.cls-15,.cls-4{fill:#fff;}.cls-5{fill:url(#linear-gradient-2);}.cls-6{fill:gray;}.cls-7{fill:#dbdaaf;}.cls-14,.cls-8{fill:none;}.cls-15,.cls-16,.cls-25,.cls-26,.cls-8{stroke:#000;}.cls-14,.cls-15,.cls-16,.cls-25,.cls-26,.cls-8{stroke-miterlimit:10;}.cls-9{fill:#ff0;}.cls-10{fill:#e2af20;}.cls-11{fill:#f40600;}.cls-12{fill:#ffe6c1;}.cls-13{fill:#0060bf;}.cls-14{stroke:#fff;stroke-width:2px;}.cls-17{fill:#fff800;}.cls-18{fill:#005f02;}.cls-19{fill:#3f2300;}.cls-20{fill:#999;}.cls-21,.cls-25,.cls-26{fill:#ccc;}.cls-22{fill:url(#linear-gradient-3);}.cls-23{fill:#c6c4c4;}.cls-24{fill:#112d07;}.cls-25{stroke-width:4px;}.cls-26{stroke-width:3px;}.cls-27{fill:#e85c0f;}.cls-28{fill:#ee6e08;}.cls-29{fill:#f47f00;}.cls-30{fill:#511e05;}.cls-31,.cls-46,.cls-51,.cls-53,.cls-54,.cls-55,.cls-56{mix-blend-mode:screen;}.cls-31{fill:url(#linear-gradient-4);}.cls-32{opacity:0.65;}.cls-33{fill:url(#linear-gradient-5);}.cls-34{fill:url(#linear-gradient-6);}.cls-35{fill:url(#linear-gradient-7);}.cls-36{fill:url(#linear-gradient-8);}.cls-37{fill:url(#linear-gradient-9);}.cls-38{fill:url(#linear-gradient-10);}.cls-39{fill:url(#linear-gradient-11);}.cls-40{fill:url(#linear-gradient-12);}.cls-41{fill:url(#linear-gradient-13);}.cls-42{fill:url(#linear-gradient-14);}.cls-43{fill:url(#White_Black);}.cls-44{fill:url(#linear-gradient-15);}.cls-45{fill:#350e00;}.cls-46{fill:url(#linear-gradient-16);}.cls-47{fill:url(#New_Gradient_Swatch_5);}.cls-48{fill:url(#New_Gradient_Swatch_5-2);}.cls-49{fill:url(#New_Gradient_Swatch_5-3);}.cls-50{fill:#0dff00;}.cls-51{fill:url(#linear-gradient-17);}.cls-52{fill:red;}.cls-53{fill:url(#linear-gradient-18);}.cls-54{fill:url(#linear-gradient-19);}.cls-55{fill:url(#linear-gradient-20);}.cls-56{fill:url(#linear-gradient-21);}</style><linearGradient id="linear-gradient" x1="322" y1="282" x2="322" y2="456" gradientUnits="userSpaceOnUse"><stop offset="0" stop-color="#dd0a0a"/><stop offset="0.14" stop-color="#d90a0a"/><stop offset="0.28" stop-color="#ce0909"/><stop offset="0.41" stop-color="#bb0808"/><stop offset="0.54" stop-color="#a00707"/><stop offset="0.67" stop-color="#7d0606"/><stop offset="0.8" stop-color="#520404"/><stop offset="0.93" stop-color="#210101"/><stop offset="1"/></linearGradient><linearGradient id="linear-gradient-2" x1="1435" y1="312.75" x2="1532" y2="312.75" gradientUnits="userSpaceOnUse"><stop offset="0" stop-color="#fff"/><stop offset="0.13" stop-color="#fbfbfb"/><stop offset="0.26" stop-color="#f0f0f0"/><stop offset="0.38" stop-color="#ddd"/><stop offset="0.51" stop-color="#c1c1c1"/><stop offset="0.63" stop-color="#9f9f9f"/><stop offset="0.75" stop-color="#747474"/><stop offset="0.87" stop-color="#414141"/><stop offset="0.98" stop-color="#080808"/><stop offset="1"/></linearGradient><linearGradient id="linear-gradient-3" x1="506" y1="383.74" x2="506" y2="649.26" gradientTransform="translate(-117.41 150.22) rotate(-15.15)" gradientUnits="userSpaceOnUse"><stop offset="0" stop-color="#c6c4c4"/><stop offset="0.1" stop-color="#bfbbba"/><stop offset="0.26" stop-color="#aca59e"/><stop offset="0.47" stop-color="#8d7f72"/><stop offset="0.73" stop-color="#634d34"/><stop offset="0.92" stop-color="#3f2100"/><stop offset="0.93" stop-color="#3a250e"/><stop offset="0.93" stop-color="#35291f"/><stop offset="0.94" stop-color="#312d2a"/><stop offset="0.96" stop-color="#2f2e31"/><stop offset="1" stop-color="#2e2f33"/></linearGradient><linearGradient id="linear-gradient-4" x1="180" y1="494" x2="180" y2="613" gradientUnits="userSpaceOnUse"><stop offset="0" stop-color="#fff"/><stop offset="0.07" stop-color="#dedede"/><stop offset="0.22" stop-color="#a4a4a4"/><stop offset="0.36" stop-color="#727272"/><stop offset="0.5" stop-color="#494949"/><stop offset="0.64" stop-color="#292929"/><stop offset="0.77" stop-color="#121212"/><stop offset="0.89" stop-color="#050505"/><stop offset="1"/></linearGradient><linearGradient id="linear-gradient-5" x1="721.42" y1="783.83" x2="721.42" y2="812.41" gradientTransform="translate(1482.5 37.72) rotate(87.14)" gradientUnits="userSpaceOnUse"><stop offset="0" stop-color="#fff"/><stop offset="0.34" stop-color="#a7a7a7"/><stop offset="1"/></linearGradient><linearGradient id="linear-gradient-6" x1="876.28" y1="793.5" x2="876.28" y2="807.53" gradientTransform="matrix(1, 0, 0, 1, 0, 0)" xlink:href="#linear-gradient-5"/><linearGradient id="linear-gradient-7" x1="877.99" y1="803.52" x2="877.99" y2="817.54" gradientTransform="matrix(1, 0, 0, 1, 0, 0)" xlink:href="#linear-gradient-5"/><linearGradient id="linear-gradient-8" x1="568.96" y1="791.09" x2="568.96" y2="805.11" gradientTransform="matrix(1, 0, 0, 1, 0, 0)" xlink:href="#linear-gradient-5"/><linearGradient id="linear-gradient-9" x1="568.2" y1="778.66" x2="568.2" y2="792.68" gradientTransform="matrix(1, 0, 0, 1, 0, 0)" xlink:href="#linear-gradient-5"/><linearGradient id="linear-gradient-10" x1="644.99" y1="694.81" x2="644.99" y2="708.84" gradientUnits="userSpaceOnUse"><stop offset="0" stop-color="#fff"/><stop offset="0.09" stop-color="#f7f7f7"/><stop offset="0.22" stop-color="#e0e0e0"/><stop offset="0.39" stop-color="#bababa"/><stop offset="0.58" stop-color="#868686"/><stop offset="0.8" stop-color="#444"/><stop offset="1"/></linearGradient><linearGradient id="linear-gradient-11" x1="638.05" y1="703.11" x2="638.05" y2="717.14" xlink:href="#linear-gradient-10"/><linearGradient id="linear-gradient-12" x1="721.73" y1="703.79" x2="721.73" y2="861.55" gradientTransform="translate(767.62 -280.98) rotate(45.15)" xlink:href="#linear-gradient-10"/><linearGradient id="linear-gradient-13" x1="796.47" y1="858.62" x2="796.47" y2="870.3" gradientTransform="translate(278.29 -190.6) rotate(16.5)" xlink:href="#linear-gradient-10"/><linearGradient id="linear-gradient-14" x1="805.09" y1="852.06" x2="805.09" y2="863.75" gradientTransform="translate(276.78 -193.31) rotate(16.5)" xlink:href="#linear-gradient-10"/><linearGradient id="White_Black" x1="715.02" y1="684.7" x2="775.77" y2="789.94" gradientUnits="userSpaceOnUse"><stop offset="0" stop-color="#fff"/><stop offset="1"/></linearGradient><linearGradient id="linear-gradient-15" x1="592.3" y1="713.71" x2="593.43" y2="778.43" gradientTransform="matrix(0.9, -0.24, 0.22, 0.97, 35.69, 194.65)" gradientUnits="userSpaceOnUse"><stop offset="0" stop-color="#fff"/><stop offset="0.14" stop-color="#d0d0d0"/><stop offset="0.38" stop-color="#878787"/><stop offset="0.59" stop-color="#4d4d4d"/><stop offset="0.77" stop-color="#232323"/><stop offset="0.92" stop-color="#090909"/><stop offset="1"/></linearGradient><linearGradient id="linear-gradient-16" x1="771.49" y1="625.86" x2="771.49" y2="681.86" gradientTransform="translate(1458.49 -538.9) rotate(90)" xlink:href="#linear-gradient-4"/><linearGradient id="New_Gradient_Swatch_5" x1="760.07" y1="88.23" x2="838.31" y2="88.23" gradientTransform="matrix(0.94, -0.03, 0.14, 0.94, 93.04, 98.49)" gradientUnits="userSpaceOnUse"><stop offset="0" stop-color="#fff"/><stop offset="0.33" stop-color="#f9b56b"/><stop offset="0.57" stop-color="#f47f00"/><stop offset="0.62" stop-color="#d56f00"/><stop offset="0.81" stop-color="#633400"/><stop offset="0.94" stop-color="#1c0f00"/><stop offset="1"/></linearGradient><linearGradient id="New_Gradient_Swatch_5-2" x1="856.58" y1="166.13" x2="952.42" y2="166.13" gradientTransform="matrix(1, 0, 0, 1, 0, 0)" xlink:href="#New_Gradient_Swatch_5"/><linearGradient id="New_Gradient_Swatch_5-3" x1="875.03" y1="328.33" x2="928.42" y2="328.33" gradientTransform="translate(42.66 -184.48) rotate(4.03)" xlink:href="#New_Gradient_Swatch_5"/><linearGradient id="linear-gradient-17" x1="911.16" y1="587.72" x2="911.16" y2="628.52" gradientTransform="translate(129.76 -144.69) scale(0.92 0.78)" xlink:href="#linear-gradient-4"/><linearGradient id="linear-gradient-18" x1="827.6" y1="729.39" x2="827.6" y2="770.19" gradientTransform="translate(565.32 70.07) scale(0.47 0.52)" xlink:href="#linear-gradient-4"/><linearGradient id="linear-gradient-19" x1="956.12" y1="699.55" x2="956.12" y2="740.35" gradientTransform="matrix(0, 0.92, -0.78, 0, 1618.61, -409.83)" xlink:href="#linear-gradient-4"/><linearGradient id="linear-gradient-20" x1="1211.38" y1="1066.92" x2="1211.38" y2="1089.38" gradientTransform="translate(597.79 27.41) scale(0.47 0.52)" xlink:href="#linear-gradient-4"/><linearGradient id="linear-gradient-21" x1="833.36" y1="950.95" x2="833.36" y2="973.4" gradientTransform="translate(-1561.95 -167.22) scale(3.1 0.79)" xlink:href="#linear-gradient-4"/></defs><title>assets</title><g class="cls-1"><g id="Layer_1" data-name="Layer 1"><polygon class="cls-2" points="381.22 321.36 321.72 321.69 262.22 322.03 291.69 272.02 321.16 222.02 351.19 271.69 381.22 321.36"/><ellipse class="cls-3" cx="322" cy="369" rx="71" ry="87"/><ellipse class="cls-4" cx="363.54" cy="344.49" rx="17" ry="37.69" transform="translate(-71.22 95.85) rotate(-13.69)"/><ellipse class="cls-4" cx="369.13" cy="396.2" rx="10.24" ry="11.5" transform="translate(-97.15 671.56) rotate(-77.59)"/><path class="cls-5" d="M1483.5,439.5l-48.5-.23c0-139,21.91-253.27,48.5-253.27S1532,300.43,1532,439.5Z"/><ellipse class="cls-6" cx="1494.44" cy="120.78" rx="53.66" ry="35.78"/><ellipse class="cls-6" cx="1458.66" cy="93.39" rx="30.19" ry="24.04"/><ellipse class="cls-6" cx="1534.13" cy="91.71" rx="29.63" ry="25.71"/><ellipse class="cls-6" cx="1559.84" cy="132.52" rx="25.16" ry="21.8"/><ellipse class="cls-6" cx="1529.66" cy="158.24" rx="40.81" ry="17.33"/><ellipse class="cls-6" cx="1459.78" cy="146.5" rx="44.72" ry="29.07"/><ellipse class="cls-6" cx="1497.24" cy="77.74" rx="22.92" ry="11.74"/><ellipse class="cls-6" cx="1436.86" cy="118.55" rx="21.8" ry="14.53"/><path class="cls-7" d="M1484,134.63l20.31,43.79A40.13,40.13,0,0,1,1484,184c-24.14,0-44-22.29-44-49.37s19.86-49.37,44-49.37a40.18,40.18,0,0,1,20.06,5.43Z"/><circle class="cls-8" cx="1467" cy="117" r="3.5"/><circle class="cls-8" cx="1488.5" cy="167.5" r="8"/><ellipse class="cls-8" cx="1460" cy="148" rx="3.5" ry="4.5"/><ellipse class="cls-8" cx="1458" cy="130.5" rx="9.5" ry="5"/><circle class="cls-8" cx="1485" cy="105" r="3.5"/><circle class="cls-8" cx="1484" cy="91" r="3.5"/><ellipse class="cls-8" cx="1460.5" cy="107" rx="4" ry="3.5"/><ellipse class="cls-8" cx="1468" cy="168.5" rx="4.5" ry="3"/><ellipse class="cls-8" cx="1478" cy="147" rx="3.5" ry="2.5"/><ellipse class="cls-8" cx="1480" cy="126.5" rx="1.5" ry="2"/><path class="cls-2" d="M1483.5,439.5l48.5.23c0,139-21.91,253.27-48.5,253.27S1435,578.57,1435,439.5Z"/><polygon class="cls-9" points="1497.04 723.78 1475.77 731.92 1454.51 740.06 1456.77 714.11 1459.02 688.17 1478.03 705.97 1497.04 723.78"/><polygon class="cls-9" points="1504.32 732.13 1489.93 728.16 1475.53 724.19 1488.95 703.6 1502.38 683 1503.35 707.56 1504.32 732.13"/><polygon class="cls-9" points="1512.3 749.36 1502.66 737.95 1493.03 726.54 1515.74 717.14 1538.45 707.73 1525.37 728.54 1512.3 749.36"/><polygon class="cls-9" points="1504.5 764.18 1508.05 752.61 1511.59 741.04 1527.16 752.14 1542.73 763.24 1523.62 763.71 1504.5 764.18"/><polygon class="cls-9" points="1489.73 775.87 1499.75 769.09 1509.78 762.31 1520.09 788.37 1530.41 814.42 1510.07 795.15 1489.73 775.87"/><polygon class="cls-9" points="1467.17 759.59 1483.52 759.62 1499.86 759.66 1491.63 787 1483.4 814.35 1475.29 786.97 1467.17 759.59"/><polygon class="cls-9" points="1455.34 759.88 1469.56 767.94 1483.78 775.99 1467.41 788.32 1451.04 800.65 1453.18 780.27 1455.34 759.88"/><polygon class="cls-9" points="1472.96 729.65 1464.13 743.4 1455.29 757.15 1437.61 736.08 1419.93 715 1446.45 722.33 1472.96 729.65"/><polygon class="cls-9" points="1472.54 742.23 1474.6 754.21 1476.66 766.19 1439.62 766.39 1402.58 766.59 1437.56 754.41 1472.54 742.23"/><ellipse class="cls-10" cx="1482.5" cy="745.36" rx="29" ry="29.86"/><rect class="cls-11" x="30" y="227" width="216" height="91" rx="12"/><polygon class="cls-12" points="240.45 221.19 138.91 221.65 37.38 222.12 87.77 140.59 138.17 59.05 189.31 140.12 240.45 221.19"/><polygon class="cls-13" points="37.4 221.81 138.93 221.06 240.47 220.3 190.31 301.97 140.15 383.65 88.77 302.73 37.4 221.81"/><line class="cls-14" x1="139" y1="221" x2="139" y2="384"/><circle class="cls-4" cx="126.5" cy="241.5" r="5.5"/><circle class="cls-4" cx="127.5" cy="262.5" r="5.5"/><circle class="cls-4" cx="155.5" cy="262.5" r="5.5"/><circle class="cls-4" cx="155.5" cy="241.5" r="5.5"/><circle class="cls-4" cx="127.5" cy="282.5" r="5.5"/><circle class="cls-4" cx="155.5" cy="283.5" r="5.5"/><circle class="cls-15" cx="113" cy="146" r="16"/><circle class="cls-15" cx="164" cy="146" r="16"/><ellipse class="cls-16" cx="171.5" cy="145" rx="4" ry="3.5"/><ellipse class="cls-16" cx="120.5" cy="145" rx="4" ry="3.5"/><polyline class="cls-8" points="148.5 171.5 159.5 181.5 148.5 186.5"/><path class="cls-11" d="M137.5,102l-27.5-.12c0-17.91,6.89-33.44,16.6-40.23A18.87,18.87,0,0,1,137.5,58c15.09,0,27.5,19.86,27.5,44Z"/><polygon class="cls-11" points="128.36 71.89 119.18 86.94 110 102 84.72 76.26 59.44 50.52 93.9 61.21 128.36 71.89"/><ellipse cx="117" cy="382" rx="21" ry="11"/><ellipse cx="162" cy="382" rx="21" ry="11"/><path class="cls-11" d="M209.48,271.05,194,296.26c-8.78-5.4-9-21.23-.48-35.05s22.69-20.75,31.47-15.39Z"/><path class="cls-13" d="M209.55,271.34l-13.1,20.94,0,0c-4.13-2.59-1.61-14.17,5.58-25.65s16.53-18.79,20.66-16.2Z"/><path class="cls-11" d="M72.34,277.49,56.9,252.27c8.29-4.51,21.73,2.37,30.31,15.51,8.87,13.57,9.48,29.11,1.36,34.46Z"/><path class="cls-13" d="M73,277,59.35,256.48l.25-.18c4.34-2.81,14,4.23,21.34,15.61s9.85,23,5.5,25.86a3.61,3.61,0,0,1-.65.33Z"/><path class="cls-8" d="M105.5,181.5c4.49,18.5,17.07,27.69,36,29,20.8-1.6,30.93-11.54,34-27"/><circle cx="352.5" cy="782.5" r="47.5"/><polygon points="367 715 378.04 734.02 389.08 753.04 366.98 753.15 344.87 753.27 355.94 734.13 367 715"/><polygon points="337 715 348.38 734.62 359.77 754.23 337.9 753.81 316.03 753.39 326.52 734.2 337 715"/><circle class="cls-17" cx="361.5" cy="768.5" r="5.5"/><circle class="cls-9" cx="325.5" cy="768.5" r="5.5"/><polygon class="cls-4" points="332.58 777.77 338.29 777.88 344 778 341.06 782.21 338.12 786.43 335.35 782.1 332.58 777.77"/><path d="M506,820.5c0,18-29.33,32.5-65.5,32.5S375,838.45,375,820.5c0-9.23,7.75-17.55,20.19-23.46,4.79,8,23.48,14,45.81,14,22,0,40.44-5.78,45.58-13.59C498.57,803.3,506,811.47,506,820.5Z"/><ellipse cx="494.5" cy="780" rx="26" ry="4.5" transform="translate(-387.64 1053.43) rotate(-74.85)"/><ellipse cx="513.52" cy="750.54" rx="19.89" ry="4.5" transform="translate(-339.81 436.14) rotate(-35.39)"/><ellipse cx="519" cy="729" rx="4" ry="17" transform="translate(-326.32 435.33) rotate(-35.39)"/><ellipse cx="390" cy="861.5" rx="6" ry="24.5"/><ellipse cx="415" cy="868.5" rx="6" ry="24.5"/><ellipse cx="495" cy="858.5" rx="6" ry="24.5"/><ellipse cx="472" cy="854.5" rx="6" ry="24.5"/><polygon class="cls-4" points="372.11 739.88 367.7 739.98 363.28 740.08 365.37 734.57 367.45 729.06 369.78 734.47 372.11 739.88"/><polygon class="cls-4" points="341.13 738.88 336.71 738.98 332.28 739.08 334.4 734.53 336.51 729.99 338.82 734.44 341.13 738.88"/><circle class="cls-4" cx="393.5" cy="695.5" r="5.5"/><circle class="cls-4" cx="357.5" cy="695.5" r="5.5"/><polygon class="cls-4" points="364.58 704.77 370.29 704.88 376 705 373.06 709.21 370.12 713.43 367.35 709.1 364.58 704.77"/><polygon class="cls-4" points="419.11 369.88 414.7 369.98 410.28 370.08 412.37 364.57 414.45 359.06 416.78 364.47 419.11 369.88"/><polygon class="cls-4" points="388.13 368.88 383.71 368.98 379.28 369.08 381.4 364.53 383.51 359.99 385.82 364.44 388.13 368.88"/><ellipse class="cls-4" cx="1503.51" cy="270.92" rx="10.57" ry="34.43" transform="translate(-20.47 164.01) rotate(-6.2)"/><polygon class="cls-18" points="667.87 218.82 629.5 218.48 591.13 218.13 610.79 164.59 630.46 111.05 649.16 164.93 667.87 218.82"/><rect class="cls-19" x="618" y="212" width="22" height="147"/><ellipse class="cls-20" cx="688.84" cy="590.7" rx="40.66" ry="69.37"/><ellipse class="cls-6" cx="739.74" cy="619.86" rx="36.12" ry="14.65" transform="translate(-60.29 1159.68) rotate(-73.97)"/><ellipse class="cls-6" cx="638.88" cy="623.9" rx="14.65" ry="37.07" transform="translate(-173.72 253.63) rotate(-19.82)"/><path class="cls-6" d="M665.22,545.85l-12.9,12.9c-.22-.23-.44-.46-.65-.7-10.32-11.46-12.69-26.4-5.25-33.09s22-2.77,32.36,8.69Z"/><path class="cls-6" d="M711.87,545.85l-14.58-11c.2-.25.4-.5.61-.74,9.91-11.81,24.38-16.23,32-9.8s5.81,21.45-4.11,33.26Z"/><ellipse class="cls-6" cx="670.61" cy="615.81" rx="10.46" ry="47.84"/><ellipse class="cls-6" cx="705.29" cy="615.81" rx="10.46" ry="47.84"/><ellipse class="cls-6" cx="691.83" cy="514.75" rx="29.9" ry="28.11"/><polygon class="cls-21" points="682.74 489.13 677.87 490.97 673 492.8 671.34 481.02 669.67 469.24 676.21 479.19 682.74 489.13"/><polygon class="cls-21" points="710.78 493.83 705.78 492.38 700.79 490.94 706.38 480.95 711.97 470.95 711.38 482.39 710.78 493.83"/><polygon class="cls-4" points="672.71 508.5 675.33 504.76 677.94 501.01 680.85 505.83 683.75 510.64 678.23 509.57 672.71 508.5"/><polygon class="cls-4" points="703 501.55 705.76 505.19 708.52 508.83 703.05 510.12 697.57 511.4 700.28 506.48 703 501.55"/><ellipse class="cls-4" cx="686.15" cy="520.43" rx="1.49" ry="2.09"/><ellipse class="cls-4" cx="695.12" cy="520.43" rx="1.49" ry="2.09"/><polygon class="cls-4" points="677.79 531.27 676.65 528.27 675.5 525.27 678.67 525.78 681.85 526.28 679.82 528.78 677.79 531.27"/><polygon class="cls-4" points="688.56 533.67 687.41 530.66 686.26 527.66 689.44 528.17 692.61 528.68 690.58 531.17 688.56 533.67"/><rect class="cls-22" x="432" y="399" width="148" height="235" transform="translate(152.6 -114.3) rotate(15.15)"/><polygon class="cls-23" points="558.3 269.31 583.99 345.9 609.68 422.49 536.19 404.54 462.69 386.59 510.5 327.95 558.3 269.31"/><ellipse class="cls-24" cx="475" cy="631.5" rx="117" ry="36.5"/><path d="M505.66,436v-.08a6.06,6.06,0,0,0-.82-3.4,4.91,4.91,0,0,0-2.15-1.78,8.75,8.75,0,0,0-3-.69c-1.1-.07-2.21-.11-3.33-.11a2.32,2.32,0,0,0-.52,0h-.47a10.41,10.41,0,0,0-4.82,1.16,13,13,0,0,0-4,3.14,15.69,15.69,0,0,0-2.76,4.6,15.19,15.19,0,0,0-1,5.55h-.43c-.11-.61-.19-1.19-.24-1.75s-.06-1.11-.06-1.65a15.75,15.75,0,0,1,1.51-5.76,15.33,15.33,0,0,1,3.46-4.73,16.32,16.32,0,0,1,5.09-3.21,17,17,0,0,1,6.37-1.18h1l.51,0,.47.07a26.18,26.18,0,0,1,4.24.47,8.81,8.81,0,0,1,3.37,1.38,6.49,6.49,0,0,1,2.22,2.79,11.74,11.74,0,0,1,.8,4.69,6.69,6.69,0,0,1-1.34,4.19,12.09,12.09,0,0,1-3.52,3,.29.29,0,0,0-.09.22l1.29,1.46L513.66,461v.43a6.38,6.38,0,0,0,.66,2.67c.45.94.91,1.89,1.4,2.83l0,.48a3.27,3.27,0,0,1-1.47-.8,14.55,14.55,0,0,1-1.57-1.63c-.53-.65-1.06-1.37-1.61-2.17s-1-1.61-1.52-2.41-.91-1.57-1.31-2.3-.75-1.37-1-1.92l-.21-.32c-.09-.13-.25-.37-.48-.73l-1-1.61-1.89-2.93a5,5,0,0,1-.54-.94c-.21-.46-.43-1-.64-1.46l-.63-1.47c-.2-.45-.34-.78-.43-1l-.38-.06-.39,0a3.71,3.71,0,0,0-1.35.21,2.56,2.56,0,0,1-.67.22l.6,9.2a4.8,4.8,0,0,0,.32,1.89,4.35,4.35,0,0,0,.78,1.21,3.92,3.92,0,0,0,1,.75c.35.19.68.36,1,.54v.43c-1-.09-2-.16-3-.22s-2-.08-3.07-.08a7,7,0,0,0-1.72.23c-.63.16-1.28.34-1.94.54s-1.3.39-1.93.56a8.65,8.65,0,0,1-1.76.3V461a.23.23,0,0,0,.12-.09,10.56,10.56,0,0,0,1.27-.86,7.42,7.42,0,0,0,1.57-1.69,10.9,10.9,0,0,0,1.34-2.8,13.5,13.5,0,0,0,.55-4.15v-5.07a2.93,2.93,0,0,1-1-.22,3.19,3.19,0,0,1-1.29-1v-.51h2.27v-2.84c0-1,0-2-.08-2.88a10.16,10.16,0,0,0-.45-2.45,6.57,6.57,0,0,0-1.14-2.07,7.7,7.7,0,0,0-2.15-1.72v-.6q.3,0,.6.06a6.4,6.4,0,0,0,.64,0h1.25c1.66,0,3.28,0,4.86-.11s3.14-.17,4.69-.28v.73a1.8,1.8,0,0,0-1,.47,4.32,4.32,0,0,0-.88,1.08,6.06,6.06,0,0,0-.61,1.4,5.16,5.16,0,0,0-.21,1.39l-.56,7.31q.9-.34,2.13-1a11.42,11.42,0,0,0,2.34-1.62,8.77,8.77,0,0,0,1.89-2.36A6.44,6.44,0,0,0,505.66,436Z"/><path d="M537.91,429.83a2.06,2.06,0,0,0-1.72.95,7.82,7.82,0,0,0-1.12,2.69,24.18,24.18,0,0,0-.6,4.17c-.12,1.62-.18,3.4-.18,5.35s0,3.73.11,5.76.18,4.15.33,6.33a2.94,2.94,0,0,0,.32,1.31,8,8,0,0,0,.77,1.27,6.75,6.75,0,0,0,1,1.07,6.28,6.28,0,0,0,1,.73v.43c-1-.08-2-.16-3-.21s-2-.09-3.08-.09-2.08,0-3.14.09-2.12.13-3.18.21v-.43l.39-.21a10.32,10.32,0,0,0,1-.67,4,4,0,0,0,1-1.25,8.26,8.26,0,0,0,.77-2.25,18.87,18.87,0,0,0,.3-3.75V438.56a1.32,1.32,0,0,0,0-.34c-.06-1.12-.14-2.14-.26-3.07a10.13,10.13,0,0,0-.56-2.43,3.94,3.94,0,0,0-1.05-1.64,2.81,2.81,0,0,0-1.7-.69v-.6c1,0,1.94-.07,2.8-.13s1.7-.08,2.53-.08a5.39,5.39,0,0,0-1.78-.45,17.59,17.59,0,0,0-2-.11,10.24,10.24,0,0,0-4.79,1.16,13.32,13.32,0,0,0-4,3.16,16.54,16.54,0,0,0-2.82,4.62,17.14,17.14,0,0,0-1.25,5.51,16.51,16.51,0,0,1-.23-1.75c0-.55-.07-1.11-.07-1.65a15.5,15.5,0,0,1,1.1-4.77,15.76,15.76,0,0,1,6.3-7.49,18.77,18.77,0,0,1,5.07-2.19l1.1-.06,1.05,0a22.19,22.19,0,0,1,3.18.2,9.49,9.49,0,0,1,4.43,1.78,22.38,22.38,0,0,1,2,1.68Z"/><path d="M559.45,435.77v-.09a5.94,5.94,0,0,0-.82-3.39,4.87,4.87,0,0,0-2.15-1.79,8.74,8.74,0,0,0-3-.69c-1.11-.07-2.22-.1-3.34-.1q-5.55,0-8.53,2.92c-2,1.95-3,4.83-3,8.64h-.43a14,14,0,0,1-.24-1.74q-.06-.84-.06-1.65a11.33,11.33,0,0,1,1.12-5.16,9.92,9.92,0,0,1,3.22-3.72,15.09,15.09,0,0,1,5.1-2.24A27.46,27.46,0,0,1,554,426a24.91,24.91,0,0,1,4.41.36,8.74,8.74,0,0,1,3.42,1.36,6.55,6.55,0,0,1,2.21,2.81,11.91,11.91,0,0,1,.8,4.71,9,9,0,0,1-1.1,4.2,17.46,17.46,0,0,1-2.84,3.91,22.1,22.1,0,0,1-3.95,3.27,21.15,21.15,0,0,1-4.41,2.21l.34,6.24a3.25,3.25,0,0,0,.52,1.89,4.27,4.27,0,0,0,1.27,1.2,6.85,6.85,0,0,0,1.57.75c.54.19,1,.37,1.46.54v.43l-1.76-.11-2.13-.1-2.15-.07-1.83,0c-.51,0-1.15,0-1.91.11s-1.54.16-2.35.26l-2.34.28c-.76.08-1.41.14-2,.17V460l.13-.09a14.15,14.15,0,0,0,2.43-.77,5,5,0,0,0,1.87-1.4,6.56,6.56,0,0,0,1.21-2.47,15.82,15.82,0,0,0,.43-4v-11q0-1.55-.09-2.67a6.61,6.61,0,0,0-.45-2,4.61,4.61,0,0,0-1.14-1.62,11.14,11.14,0,0,0-2.15-1.5v-.6l.6.06.65,0H546c1.67,0,3.29,0,4.86-.11s3.14-.16,4.69-.28v.74a1.73,1.73,0,0,0-1,.51,4.42,4.42,0,0,0-1,1.85,21,21,0,0,0-.73,4,65.27,65.27,0,0,0-.28,6.83v2.11a20.15,20.15,0,0,0,4.92-5.14A11.69,11.69,0,0,0,559.45,435.77Z"/><line class="cls-25" x1="515" y1="485" x2="497" y2="560"/><line class="cls-26" x1="536" y1="517" x2="475" y2="511"/><circle class="cls-27" cx="138" cy="612" r="124.5"/><ellipse class="cls-27" cx="225.5" cy="612" rx="116" ry="124.5"/><circle class="cls-28" cx="140.3" cy="613.5" r="117.25"/><ellipse class="cls-28" cx="222.7" cy="613.5" rx="109.24" ry="117.25"/><circle class="cls-29" cx="142.6" cy="615" r="110"/><ellipse class="cls-29" cx="219.91" cy="615" rx="102.49" ry="110"/><polygon class="cls-30" points="119.77 412.08 151.87 454.32 183.97 496.55 176.05 469.25 168.13 441.96 143.95 427.02 119.77 412.08"/><path d="M58.36,661.12h-.64L57.19,653q0-2.25-.06-3.75c0-1-.09-1.87-.16-2.62s-.15-1.42-.24-2-.19-1.24-.29-2a24.9,24.9,0,0,0,1.68-2.43c.41-.7.81-1.46,1.21-2.28l.69,0,.16,2.89a13.16,13.16,0,0,1-.08,1.42c-.05.55-.17,1.33-.34,2.33a9.87,9.87,0,0,0-.16,1.77c0,.46,0,.9,0,1.31s.05.81.05,1.2c0,.82,0,1.53.08,2.12s.08,1,.08,1.31a8.58,8.58,0,0,0,.08,1.07,4.69,4.69,0,0,0,.32,1.15,2.55,2.55,0,0,0,.7.94,1.84,1.84,0,0,0,1.21.37,11.34,11.34,0,0,0,4-.72,10.68,10.68,0,0,0,3.4-2,10.06,10.06,0,0,0,2.36-3.14,9,9,0,0,0,.88-4,4.82,4.82,0,0,0-.72-2.57A10.34,10.34,0,0,0,70.2,641a29.91,29.91,0,0,0-2.68-2.14c-1-.72-2-1.48-3.11-2.31s-2.13-1.72-3.18-2.7a19.18,19.18,0,0,1-2.87-3.4,7.15,7.15,0,0,1-.64-1.58,7.45,7.45,0,0,1-.16-1.74,6.63,6.63,0,0,1,1.29-4.34,7.64,7.64,0,0,1,3.29-2.3,15.91,15.91,0,0,1,4.39-.93c1.59-.13,3.11-.21,4.58-.25s2.75-.1,3.88-.21a3.32,3.32,0,0,0,2.27-.86h.59c.11,0,.16.15.16.43a8.21,8.21,0,0,1-.18,1.47c-.13.63-.28,1.29-.46,2l-.51,2c-.16.65-.27,1.15-.34,1.5s-.15.81-.22,1.34-.14,1.06-.21,1.58-.15,1-.22,1.34-.35.56-.85.56l-.06-.43c-.1-.85-.24-1.8-.4-2.84a12.68,12.68,0,0,0-.8-2.89,6.06,6.06,0,0,0-1.56-2.22,3.82,3.82,0,0,0-2.65-.88,5.49,5.49,0,0,0-3.45.85c-.69.58-1,1.66-1,3.27a6.06,6.06,0,0,0,1.2,3.64,18.22,18.22,0,0,0,3,3.16,47,47,0,0,0,3.89,3,42.17,42.17,0,0,1,3.88,3,18.31,18.31,0,0,1,3,3.32,6.81,6.81,0,0,1,1.2,3.91,6.4,6.4,0,0,1-1.47,4.2A15.32,15.32,0,0,1,76,652.74a31.31,31.31,0,0,1-5,2.51c-1.82.74-3.58,1.42-5.27,2.06s-3.22,1.27-4.55,1.88A7.6,7.6,0,0,0,58.36,661.12Z"/><path d="M111.42,651.21l-1.71,3.86a4.78,4.78,0,0,0-.35.88c-.16.48-.34,1-.53,1.63s-.4,1.23-.62,1.88a12.62,12.62,0,0,1-.64,1.6h-.64a12.43,12.43,0,0,0,.16-1.76,5.7,5.7,0,0,0-.24-1.69,1,1,0,0,0-1-.78H93.43l-6.64,0c-2.14,0-4-.07-5.62-.14v-.75c0-.21.37-.38,1.1-.51s1.53-.3,2.41-.53a10,10,0,0,0,2.49-1,2.68,2.68,0,0,0,1.34-2.09V639.43c0-.14-.2-.21-.59-.21a6.73,6.73,0,0,0-1.07.1l-1.26.22c-.41.07-.77.14-1.07.21a3.3,3.3,0,0,1-.51.11l.8-2.57a1.22,1.22,0,0,1,.65-.53,8.53,8.53,0,0,1,1.2-.49,12.4,12.4,0,0,1,1.29-.34,4.82,4.82,0,0,1,.88-.14l-.32-6.16a28.9,28.9,0,0,0-.38-3.29,7.51,7.51,0,0,0-1.6-3.24,3.93,3.93,0,0,0-.7-.61l-1.26-1c-.44-.36-.87-.69-1.28-1a9,9,0,0,1-.72-.56v-.75c1.71.15,3.42.25,5.13.32s3.49.11,5.31.11,3.85,0,5.78-.11,3.92-.17,6-.32a3.85,3.85,0,0,0,.81-.1,8.62,8.62,0,0,0,1-.27l.89-.32a4.28,4.28,0,0,0,.56-.27l.53,0a7.47,7.47,0,0,1-.26,2c-.18.62-.4,1.26-.65,1.9s-.49,1.29-.72,2a11.71,11.71,0,0,0-.51,2.06,6.21,6.21,0,0,1-.4,1.42c-.23.63-.48,1.24-.75,1.85s-.52,1.13-.75,1.58a2.7,2.7,0,0,1-.4.67h-.7l.7-7.82v-.48c0-.82-.32-1.31-1-1.47a17.1,17.1,0,0,0-3.26-.3H97.24a1.18,1.18,0,0,0-1.08.83,7.52,7.52,0,0,0-.53,2.06,24.3,24.3,0,0,0-.19,2.68c0,1,0,1.86,0,2.68v5.83c0,.11.48.2,1.42.27s2.07.15,3.38.22,2.64.16,4,.26,2.49.24,3.35.38l1,1.12c0,.22-.17.41-.51.59a6,6,0,0,1-1.23.46c-.48.12-1,.23-1.52.32s-1,.15-1.4.19a2.37,2.37,0,0,1-.58,0h-.65c-.68,0-1.42,0-2.22,0s-1.67-.06-2.6-.06H95.58v5.46c.07.65.15,1.45.24,2.41s.17,1.9.26,2.81.17,1.7.25,2.36a3.39,3.39,0,0,0,.16,1A.86.86,0,0,0,97,654a3.57,3.57,0,0,0,1,.27c.41.05.83.09,1.25.11s.82,0,1.18,0,1.18,0,2,0a16.52,16.52,0,0,0,2.78-.37,15.23,15.23,0,0,0,3-1,8.51,8.51,0,0,0,2.6-1.85h.53Z"/><path d="M120.31,647V629.31a22,22,0,0,0-.16-2.57,12.76,12.76,0,0,0-.56-2.59,6.87,6.87,0,0,0-1-2,2,2,0,0,0-1.6-.83l-.32,0-.54,0a3.86,3.86,0,0,0-1.34.29,7.2,7.2,0,0,0-1.44.78,5.38,5.38,0,0,0-1.23,1.15,3,3,0,0,0-.65,1.47v6.86h-.69s-.11-.18-.22-.54-.23-.78-.37-1.28-.28-1-.4-1.56a9.34,9.34,0,0,1-.24-1.28,12.81,12.81,0,0,0-.57-2.25c-.26-.79-.53-1.57-.8-2.36s-.5-1.55-.7-2.3a8.71,8.71,0,0,1-.29-2.14l.54-.05a2.75,2.75,0,0,0,.56.26c.27.11.56.22.88.32a8.62,8.62,0,0,0,1,.27,4,4,0,0,0,.81.11q3.21.21,6.21.32c2,.07,4,.11,6.05.11q6.38,0,13.44-.48a4,4,0,0,0,.8-.11,8.62,8.62,0,0,0,1-.27c.33-.11.62-.21.89-.32a3.71,3.71,0,0,0,.56-.27l.54.06a12.76,12.76,0,0,1-.24,2.3c-.17.85-.34,1.74-.54,2.65s-.4,1.8-.62,2.68-.37,1.66-.48,2.38a9.34,9.34,0,0,1-.24,1.28c-.12.54-.26,1.06-.4,1.56s-.27.92-.38,1.28-.17.54-.21.54h-.7l-.64-7.82a2.6,2.6,0,0,0-.56-1.47,5.36,5.36,0,0,0-1.18-1.15,6.08,6.08,0,0,0-1.44-.78,3.81,3.81,0,0,0-1.32-.3,3.89,3.89,0,0,0-.53,0l-.32,0a2,2,0,0,0-1.72.91,7.2,7.2,0,0,0-1,2.27,18.47,18.47,0,0,0-.48,2.9c-.09,1-.13,1.93-.13,2.75V647a16,16,0,0,0,.4,3.86,13.89,13.89,0,0,0,1,2.73,7.17,7.17,0,0,0,1.23,1.79,6.28,6.28,0,0,0,1.21,1v.54q-1.87-.17-3.78-.27c-1.26-.07-2.54-.11-3.82-.11s-2.6,0-3.94.14-2.68.18-4,.29v-.53a13.34,13.34,0,0,1,1.28-.75,5.27,5.27,0,0,0,1.56-1.37,9,9,0,0,0,1.34-2.65A16.71,16.71,0,0,0,120.31,647Z"/><path d="M145.31,647V629.31a22,22,0,0,0-.16-2.57,12.12,12.12,0,0,0-.56-2.59,6.86,6.86,0,0,0-1-2,2,2,0,0,0-1.61-.83l-.32,0-.53,0a3.82,3.82,0,0,0-1.34.29,7.27,7.27,0,0,0-1.45.78,5.82,5.82,0,0,0-1.23,1.15,2.93,2.93,0,0,0-.64,1.47v6.86h-.7s-.11-.18-.21-.54-.23-.78-.38-1.28-.27-1-.4-1.56-.2-1-.24-1.28a13.68,13.68,0,0,0-.56-2.25l-.81-2.36c-.26-.78-.5-1.55-.69-2.3a8.29,8.29,0,0,1-.3-2.14l.54-.05a3.06,3.06,0,0,0,.56.26c.27.11.56.22.88.32a9.43,9.43,0,0,0,1,.27,4,4,0,0,0,.8.11q3.21.21,6.21.32t6.05.11q6.38,0,13.44-.48a3.87,3.87,0,0,0,.8-.11,8.21,8.21,0,0,0,1-.27c.32-.11.61-.21.88-.32a3.27,3.27,0,0,0,.56-.27l.54.06a12.76,12.76,0,0,1-.24,2.3c-.16.85-.34,1.74-.54,2.65s-.4,1.8-.61,2.68a22.29,22.29,0,0,0-.48,2.38,11.61,11.61,0,0,1-.25,1.28c-.12.54-.25,1.06-.4,1.56s-.26.92-.37,1.28-.18.54-.22.54h-.69l-.64-7.82a2.68,2.68,0,0,0-.57-1.47,5.54,5.54,0,0,0-1.17-1.15,6.15,6.15,0,0,0-1.45-.78,3.81,3.81,0,0,0-1.31-.3,4.06,4.06,0,0,0-.54,0l-.32,0a2,2,0,0,0-1.71.91,6.78,6.78,0,0,0-1,2.27,16.41,16.41,0,0,0-.48,2.9c-.09,1-.14,1.93-.14,2.75V647a16.53,16.53,0,0,0,.4,3.86,13.25,13.25,0,0,0,1,2.73,6.68,6.68,0,0,0,1.23,1.79,6.26,6.26,0,0,0,1.2,1v.54c-1.25-.11-2.5-.2-3.77-.27s-2.54-.11-3.83-.11-2.6,0-3.94.14-2.68.18-4,.29v-.53a12.5,12.5,0,0,1,1.29-.75,5.36,5.36,0,0,0,1.55-1.37,8.8,8.8,0,0,0,1.34-2.65A16.71,16.71,0,0,0,145.31,647Z"/><path d="M191.68,619.35a2.57,2.57,0,0,0-2.14,1.18,9.59,9.59,0,0,0-1.39,3.35,30.51,30.51,0,0,0-.75,5.19c-.14,2-.22,4.24-.22,6.67q0,3.38.14,7.17t.4,7.87a3.73,3.73,0,0,0,.4,1.64,9.58,9.58,0,0,0,1,1.58,8.22,8.22,0,0,0,1.23,1.33,7.3,7.3,0,0,0,1.2.91v.54c-1.25-.11-2.51-.2-3.77-.27s-2.55-.1-3.83-.1-2.59,0-3.91.1-2.64.16-4,.27v-.54l.48-.26a11.27,11.27,0,0,0,1.26-.83,5.21,5.21,0,0,0,1.26-1.56,10,10,0,0,0,1-2.81,23.23,23.23,0,0,0,.37-4.65V630.22a1.63,1.63,0,0,0,0-.43c-.07-1.39-.18-2.66-.32-3.82a13.27,13.27,0,0,0-.7-3,5.07,5.07,0,0,0-1.31-2,3.48,3.48,0,0,0-2.11-.86v-.75c1.25,0,2.41-.09,3.48-.16s2.12-.11,3.16-.11a7.06,7.06,0,0,0-2.23-.56,24.18,24.18,0,0,0-2.49-.13,13,13,0,0,0-6,1.44,16.75,16.75,0,0,0-5,3.94,20.48,20.48,0,0,0-3.51,5.75,21.34,21.34,0,0,0-1.55,6.86,17.62,17.62,0,0,1-.3-2.17c0-.7-.08-1.38-.08-2.06a19.18,19.18,0,0,1,1.37-6,19.53,19.53,0,0,1,3.1-5.19,20,20,0,0,1,4.74-4.12,22.88,22.88,0,0,1,6.32-2.73c.46,0,.92-.06,1.36-.08l1.31,0a28.26,28.26,0,0,1,4,.24,11.81,11.81,0,0,1,5.51,2.22,27.73,27.73,0,0,1,2.52,2.09Z"/><path d="M236.12,660.63l-.75.06c-.39,0-.73-.29-1-.86a12.45,12.45,0,0,1-.75-2c-.21-.75-.42-1.47-.64-2.17a3.57,3.57,0,0,0-.69-1.42,50.18,50.18,0,0,0-3.83-6.07c-1.41-1.91-2.87-3.81-4.37-5.68s-3-3.74-4.44-5.59a69.52,69.52,0,0,1-4.12-5.84h-.38V649a7.6,7.6,0,0,0,.54,3.05,6.85,6.85,0,0,0,1.28,2,6.63,6.63,0,0,0,1.53,1.26c.52.3,1,.55,1.31.72v.81a56.65,56.65,0,0,0-6.1-.32,49.7,49.7,0,0,0-5.63.32v-.81c0-.14.21-.33.62-.56a7.07,7.07,0,0,0,1.37-1.07,6.84,6.84,0,0,0,1.36-2A8,8,0,0,0,212,649V624.65a6.57,6.57,0,0,0-1.07-4.09c-.72-.91-2-1.37-3.86-1.37a11,11,0,0,0-5.62,1.53,17.35,17.35,0,0,0-4.66,4A21.9,21.9,0,0,0,192.06,637a17.36,17.36,0,0,1-.3-2.17c0-.7-.08-1.38-.08-2.06a19.05,19.05,0,0,1,1.37-5.94,19.42,19.42,0,0,1,3.1-5.2,20,20,0,0,1,4.74-4.12,22.88,22.88,0,0,1,6.32-2.73c.46,0,.92-.06,1.36-.08l1.32,0a28.85,28.85,0,0,1,7.54.91,23.22,23.22,0,0,1,6.22,2.73v.65a1.75,1.75,0,0,0-1.83,1.12,7.33,7.33,0,0,0-.42,2.57,6.43,6.43,0,0,0,.61,2.49,24.53,24.53,0,0,0,1.61,3c.66,1.07,1.39,2.15,2.19,3.26s1.6,2.16,2.39,3.16,1.52,1.93,2.22,2.78l1.68,2.09h.49v-15.1a5.14,5.14,0,0,0-.27-1.82,3.41,3.41,0,0,0-.72-1.15,4.74,4.74,0,0,0-1-.77l-1.23-.7v-.75c.25,0,.5.06.75.08s.52,0,.8,0h1.56a2,2,0,0,0,.42,0h1.4c1.25,0,2.48,0,3.69-.16s2.5-.2,3.86-.27v.54a9.52,9.52,0,0,0-1.66.56,6.22,6.22,0,0,0-1.85,1.23,7.27,7.27,0,0,0-1.53,2.2,7.94,7.94,0,0,0-.64,3.4Z"/><path d="M266.1,628.24c0-1.5,0-2.67-.13-3.51a4.14,4.14,0,0,0-.59-1.9,2,2,0,0,0-1.23-.8,10.41,10.41,0,0,0-2.06-.16c-.47,0-1,0-1.74.11a17.13,17.13,0,0,0-2.2.37,18.33,18.33,0,0,0-2.3.7,7,7,0,0,0-2,1.12,10.21,10.21,0,0,0-2.22,2.31,14.22,14.22,0,0,0-1.74,3.45,24.6,24.6,0,0,0-1.15,4.87,46.6,46.6,0,0,0-.4,6.56,20.81,20.81,0,0,0,.85,5.94,10.62,10.62,0,0,0,2.84,4.77,9.12,9.12,0,0,1,.86.72,4.34,4.34,0,0,0,1,.72,6.22,6.22,0,0,0,1.5.54,9.83,9.83,0,0,0,2.22.21,7.48,7.48,0,0,0,3.83-.75,3.62,3.62,0,0,0,1.42-2.94v-6.16a4.86,4.86,0,0,0-.64-2.46,6,6,0,0,0-1.69-1.88,8.44,8.44,0,0,0-2.41-1.17,9.16,9.16,0,0,0-2.81-.43,7.9,7.9,0,0,0-1.23.11,17.3,17.3,0,0,0-1.82.37v-.48a8.55,8.55,0,0,1,1.18-.59,7.72,7.72,0,0,1,1.55-.48,12.74,12.74,0,0,1,1.77-.27c.53,0,1,0,1.5,0a10.2,10.2,0,0,1,1.92.16,13.55,13.55,0,0,1,1.64.4l1.55.48a14.49,14.49,0,0,0,1.69.4,3.56,3.56,0,0,0,.8-.16c.39-.11.88-.23,1.47-.37s1.24-.27,2-.38a15.1,15.1,0,0,1,2.3-.16v.32a2.18,2.18,0,0,0-1.37,1.26,5.31,5.31,0,0,0-.45,2.22v9.32a6.4,6.4,0,0,1-1.93,4.23,1.37,1.37,0,0,0-.78.29,18,18,0,0,0-1.42,1.32,13,13,0,0,1-1.33,1.15,3,3,0,0,1-1.82.56H260.7a5.12,5.12,0,0,1-.7,0h-2.2a42,42,0,0,1-5.4-.37,15.06,15.06,0,0,1-5.36-1.72A11.14,11.14,0,0,1,243,652.2a12.6,12.6,0,0,1-1.64-6.88v-5.41c0-1.57.07-3.13.19-4.68a27.31,27.31,0,0,1,.78-4.63A23.93,23.93,0,0,1,244,626a23,23,0,0,1,3-4.6,5.36,5.36,0,0,1,3-1.74,18.28,18.28,0,0,1,4.21-.46h2.67c1.65,0,3.27,0,4.88.14s3.07.13,4.39.13a3.35,3.35,0,0,0,.8-.11c.32-.07.64-.16,1-.26l.89-.32a3.71,3.71,0,0,0,.56-.27l.53,0a9.67,9.67,0,0,1-.24,2.06c-.16.73-.34,1.47-.53,2.22s-.4,1.5-.62,2.25a18.52,18.52,0,0,0-.48,2.2,11.18,11.18,0,0,1-.24,1.28c-.13.54-.26,1.06-.4,1.56s-.27.92-.38,1.28-.18.54-.21.54h-.7Z"/><path d="M273.87,661.12h-.65l-.53-8.14c0-1.5,0-2.75-.05-3.75s-.09-1.87-.16-2.62-.16-1.42-.25-2-.18-1.24-.29-2a25.21,25.21,0,0,0,1.69-2.43q.62-1.05,1.2-2.28l.7,0,.16,2.89c0,.39,0,.87-.08,1.42s-.17,1.33-.35,2.33a9.87,9.87,0,0,0-.16,1.77c0,.46,0,.9,0,1.31s.06.81.06,1.2c0,.82,0,1.53.08,2.12s.08,1,.08,1.31a7,7,0,0,0,.08,1.07,4.29,4.29,0,0,0,.32,1.15,2.42,2.42,0,0,0,.69.94,1.86,1.86,0,0,0,1.21.37,11.34,11.34,0,0,0,4-.72,10.68,10.68,0,0,0,3.4-2,9.91,9.91,0,0,0,2.36-3.14,9,9,0,0,0,.88-4,4.82,4.82,0,0,0-.72-2.57,10.34,10.34,0,0,0-1.9-2.25A29.91,29.91,0,0,0,283,638.9c-1-.72-2-1.48-3.1-2.31s-2.14-1.72-3.19-2.7a18.72,18.72,0,0,1-2.86-3.4,7.25,7.25,0,0,1-.65-1.58,8,8,0,0,1-.16-1.74,6.63,6.63,0,0,1,1.29-4.34,7.7,7.7,0,0,1,3.29-2.3,15.91,15.91,0,0,1,4.39-.93c1.59-.13,3.12-.21,4.58-.25s2.76-.1,3.88-.21a3.35,3.35,0,0,0,2.28-.86h.59c.1,0,.16.15.16.43a8.4,8.4,0,0,1-.19,1.47c-.13.63-.28,1.29-.46,2s-.34,1.37-.5,2-.28,1.15-.35,1.5-.15.81-.22,1.34-.14,1.06-.21,1.58-.14,1-.21,1.34-.36.56-.86.56l0-.43c-.11-.85-.25-1.8-.41-2.84a12.19,12.19,0,0,0-.8-2.89,6,6,0,0,0-1.55-2.22,3.84,3.84,0,0,0-2.65-.88,5.51,5.51,0,0,0-3.46.85c-.69.58-1,1.66-1,3.27a6.06,6.06,0,0,0,1.2,3.64,18.29,18.29,0,0,0,3,3.16,46.82,46.82,0,0,0,3.88,3,40.86,40.86,0,0,1,3.88,3,17.94,17.94,0,0,1,3,3.32,6.82,6.82,0,0,1,1.21,3.91,6.41,6.41,0,0,1-1.48,4.2,15.32,15.32,0,0,1-3.72,3.22,31.31,31.31,0,0,1-5,2.51c-1.82.74-3.58,1.42-5.27,2.06s-3.21,1.27-4.55,1.88A7.46,7.46,0,0,0,273.87,661.12Z"/><polygon points="124.4 599.49 99.37 599.73 74.34 599.98 86.62 575.61 98.9 551.25 111.65 575.37 124.4 599.49"/><polygon class="cls-29" points="86.06 597.93 81.56 598.03 77.05 598.13 79.26 596.07 81.47 594.01 83.77 595.97 86.06 597.93"/><rect class="cls-29" x="82" y="594" width="35" height="4"/><polygon class="cls-29" points="121.06 597.93 117.19 598.02 113.32 598.1 115.22 596.05 117.11 594 119.08 595.97 121.06 597.93"/><rect class="cls-29" x="67.01" y="576.44" width="44.14" height="2.56" transform="translate(-470.35 408.21) rotate(-64.38)"/><polygon class="cls-29" points="96.31 561.77 97.53 557.56 98.75 553.35 99.27 555.78 99.78 558.21 98.04 559.99 96.31 561.77"/><rect x="75.85" y="594.6" width="10.19" height="1" transform="translate(-376.87 206.38) rotate(-41.92)"/><polygon points="250.4 599.49 225.37 599.73 200.34 599.98 212.62 575.61 224.9 551.25 237.65 575.37 250.4 599.49"/><polygon class="cls-29" points="212.06 597.93 207.56 598.03 203.05 598.13 205.26 596.07 207.47 594.01 209.77 595.97 212.06 597.93"/><rect class="cls-29" x="208" y="594" width="35" height="4"/><polygon class="cls-29" points="247.06 597.93 243.19 598.02 239.32 598.1 241.22 596.05 243.11 594 245.09 595.97 247.06 597.93"/><rect class="cls-29" x="193.01" y="576.44" width="44.14" height="2.56" transform="translate(-398.84 521.82) rotate(-64.38)"/><polygon class="cls-29" points="222.31 561.77 223.53 557.56 224.75 553.35 225.26 555.78 225.78 558.21 224.04 559.99 222.31 561.77"/><rect x="201.85" y="594.6" width="10.19" height="1" transform="translate(-344.63 290.56) rotate(-41.92)"/><ellipse class="cls-31" cx="180" cy="553.5" rx="121" ry="59.5"/><ellipse class="cls-32" cx="727.36" cy="796.85" rx="63.54" ry="152.64" transform="translate(-218.29 1316.24) rotate(-76.39)"/><ellipse class="cls-33" cx="721.42" cy="798.12" rx="12.07" ry="153.34" transform="translate(-111.74 1478.76) rotate(-87.14)"/><circle class="cls-34" cx="876.28" cy="800.51" r="7.01"/><circle class="cls-35" cx="877.99" cy="810.53" r="7.01"/><circle class="cls-36" cx="568.96" cy="798.1" r="7.01"/><circle class="cls-37" cx="568.2" cy="785.67" r="7.01"/><circle class="cls-38" cx="644.99" cy="701.82" r="7.01"/><circle class="cls-39" cx="638.05" cy="710.12" r="7.01"/><ellipse class="cls-40" cx="721.73" cy="782.67" rx="10.36" ry="111.35" transform="translate(-342.15 742.37) rotate(-45.15)"/><ellipse class="cls-41" cx="796.47" cy="864.46" rx="6.08" ry="5.82" transform="translate(-212.7 261.78) rotate(-16.5)"/><ellipse class="cls-42" cx="805.09" cy="857.91" rx="6.08" ry="5.82" transform="translate(-210.49 263.96) rotate(-16.5)"/><circle class="cls-43" cx="745.39" cy="737.32" r="60.76"/><rect class="cls-44" x="667.98" y="763.87" width="131.85" height="32.72" rx="5.86" transform="translate(204.25 -150.81) rotate(13.61)"/><circle cx="716.09" cy="709.39" r="11.68"/><circle cx="759.45" cy="722.29" r="11.68"/><rect x="690.83" y="759.25" width="10.91" height="10.91" transform="translate(199.54 -142.39) rotate(13.61)"/><rect x="704.23" y="759.5" width="12.46" height="12.46" transform="translate(200.18 -145.7) rotate(13.61)"/><rect x="717.52" y="767.52" width="12.46" height="12.46" transform="translate(202.44 -148.6) rotate(13.61)"/><rect x="733.39" y="765.55" width="10.91" height="10.91" transform="matrix(0.97, 0.24, -0.24, 0.97, 202.21, -152.23)"/><rect x="744.79" y="774.72" width="10.91" height="10.91" transform="translate(204.69 -154.66) rotate(13.61)"/><rect x="758.99" y="773.73" width="7.79" height="7.79" transform="translate(204.45 -157.71) rotate(13.61)"/><ellipse cx="789.91" cy="255.07" rx="59.06" ry="58.71" transform="translate(357.76 963.77) rotate(-76.52)"/><ellipse cx="830.04" cy="264.69" rx="59.06" ry="54.7" transform="translate(379.18 1010.17) rotate(-76.52)"/><ellipse cx="790.8" cy="256.01" rx="55.62" ry="55.29" transform="translate(357.52 965.36) rotate(-76.52)"/><ellipse cx="828.59" cy="265.07" rx="55.62" ry="51.52" transform="translate(377.69 1009.06) rotate(-76.52)"/><ellipse cx="791.69" cy="256.96" rx="52.18" ry="51.87" transform="translate(357.28 966.95) rotate(-76.52)"/><ellipse cx="827.14" cy="265.45" rx="52.18" ry="48.33" transform="translate(376.21 1007.94) rotate(-76.52)"/><circle class="cls-27" cx="780.28" cy="257.68" r="58.59"/><ellipse class="cls-27" cx="820.32" cy="267.27" rx="58.59" ry="54.59" transform="translate(369.21 1002.7) rotate(-76.52)"/><circle class="cls-28" cx="781.16" cy="258.61" r="55.18"/><ellipse class="cls-28" cx="818.88" cy="267.65" rx="55.18" ry="51.41" transform="translate(367.73 1001.59) rotate(-76.52)"/><circle class="cls-29" cx="782.05" cy="259.55" r="51.77"/><ellipse class="cls-29" cx="817.43" cy="268.03" rx="51.77" ry="48.23" transform="translate(366.25 1000.48) rotate(-76.52)"/><polygon class="cls-45" points="793.86 164.19 803.92 187.03 813.98 209.88 813.35 196.52 812.72 183.16 803.29 173.67 793.86 164.19"/><path d="M735.88,282.12l-.29-.07.64-3.79c.17-.68.3-1.26.39-1.72s.16-.87.21-1.22.09-.66.11-.94,0-.59.08-.93a12,12,0,0,0,1-.93c.27-.27.53-.58.8-.91l.33.05-.25,1.34a5.35,5.35,0,0,1-.19.65c-.08.24-.22.59-.41,1a4.35,4.35,0,0,0-.27.79c-.05.22-.09.42-.12.61a5,5,0,0,1-.11.56c-.09.37-.15.7-.19,1s-.08.48-.11.61-.06.32-.08.5a2.1,2.1,0,0,0,0,.56,1.17,1.17,0,0,0,.22.51.82.82,0,0,0,.51.3,5.12,5.12,0,0,0,1.91.11,4.88,4.88,0,0,0,1.78-.56,4.57,4.57,0,0,0,1.42-1.17,4.17,4.17,0,0,0,.85-1.74,2.25,2.25,0,0,0,0-1.26,4.74,4.74,0,0,0-.62-1.23,13,13,0,0,0-1-1.28c-.38-.43-.77-.9-1.17-1.39s-.79-1-1.16-1.59a8.62,8.62,0,0,1-.94-1.87,3.3,3.3,0,0,1-.12-.79,3.59,3.59,0,0,1,.12-.82,3.06,3.06,0,0,1,1.06-1.84,3.59,3.59,0,0,1,1.76-.69,7.52,7.52,0,0,1,2.11.05c.74.12,1.45.25,2.12.39s1.28.25,1.8.33a1.61,1.61,0,0,0,1.14-.14l.27.06s0,.08,0,.21a4,4,0,0,1-.24.66c-.13.27-.27.56-.43.85l-.45.87c-.15.27-.25.49-.33.65s-.15.35-.24.58-.18.48-.27.7-.17.43-.25.59-.22.22-.45.17l0-.21c0-.4.09-.85.13-1.34a6,6,0,0,0,0-1.41,2.84,2.84,0,0,0-.47-1.19,1.81,1.81,0,0,0-1.11-.69,2.6,2.6,0,0,0-1.68,0,1.93,1.93,0,0,0-.83,1.38,2.79,2.79,0,0,0,.15,1.8,7.94,7.94,0,0,0,1,1.77,22.25,22.25,0,0,0,1.45,1.78,17.78,17.78,0,0,1,1.45,1.79,8.37,8.37,0,0,1,1,1.85,3.16,3.16,0,0,1,.12,1.92,3,3,0,0,1-1.13,1.76,7.15,7.15,0,0,1-2.06,1.06,14.87,14.87,0,0,1-2.55.61c-.92.13-1.8.26-2.64.36s-1.61.23-2.29.36A3.42,3.42,0,0,0,735.88,282.12Z"/><path d="M761.25,283.4,760,285a2.08,2.08,0,0,0-.25.37l-.43.68-.49.79a4.51,4.51,0,0,1-.47.67l-.29-.07a6.77,6.77,0,0,0,.27-.79,2.8,2.8,0,0,0,.07-.8.44.44,0,0,0-.37-.46L752.4,284l-3-.74c-1-.24-1.83-.47-2.55-.68l.08-.34c0-.1.21-.13.56-.11s.73,0,1.16,0a4.49,4.49,0,0,0,1.25-.21,1.22,1.22,0,0,0,.84-.81l1.35-5.63c0-.07-.06-.12-.24-.16a2.14,2.14,0,0,0-.5-.07l-.6,0-.52,0H750l.65-1.09a.6.6,0,0,1,.35-.17,4.77,4.77,0,0,1,.6-.09c.22,0,.43,0,.63,0a2.66,2.66,0,0,1,.42,0l.53-2.86a15.37,15.37,0,0,0,.19-1.54,3.56,3.56,0,0,0-.38-1.66,2,2,0,0,0-.25-.36l-.47-.59-.48-.6-.27-.33.08-.35c.77.26,1.54.5,2.32.72s1.58.43,2.41.63,1.77.4,2.66.58,1.82.35,2.78.51a1.38,1.38,0,0,0,.38,0,3.7,3.7,0,0,0,.47,0L763,268l.29-.06.24.09a3.43,3.43,0,0,1-.34.86c-.15.27-.32.53-.5.8s-.37.54-.55.82a5.24,5.24,0,0,0-.46.88,2.64,2.64,0,0,1-.34.61c-.17.26-.35.51-.54.76s-.36.46-.52.64-.24.27-.25.26l-.32-.07,1.17-3.5.06-.22a.62.62,0,0,0-.28-.78,8,8,0,0,0-1.47-.5l-1.2-.28a.55.55,0,0,0-.58.26,3.58,3.58,0,0,0-.47.88c-.14.37-.26.77-.38,1.21s-.21.84-.3,1.22l-.64,2.67s.19.14.62.28.93.29,1.52.47,1.19.36,1.8.56,1.12.38,1.49.54l.32.62q0,.15-.3.21a2.58,2.58,0,0,1-.61.08l-.73,0c-.26,0-.48,0-.66-.07l-.28,0-.29-.07-1-.27c-.36-.1-.76-.21-1.18-.31l-1-.25-.6,2.5c0,.31-.09.68-.16,1.13s-.12.89-.18,1.32-.11.79-.15,1.1a1.4,1.4,0,0,0,0,.47.38.38,0,0,0,.18.32,1.89,1.89,0,0,0,.45.24,5.22,5.22,0,0,0,.56.18l.54.15.93.19a7.53,7.53,0,0,0,1.32.14,6.75,6.75,0,0,0,1.47-.13,3.91,3.91,0,0,0,1.39-.56l.24.06Z"/><path d="M765.78,282.44l1.94-8.08q.12-.54.21-1.2a5.84,5.84,0,0,0,0-1.25,3.24,3.24,0,0,0-.25-1,.94.94,0,0,0-.64-.56l-.15-.05-.24-.07a2,2,0,0,0-.65,0,3.25,3.25,0,0,0-.74.2,2.36,2.36,0,0,0-.69.39,1.35,1.35,0,0,0-.46.6l-.75,3.14-.32-.08a.72.72,0,0,1,0-.27q0-.26,0-.63c0-.24,0-.49,0-.75a4.82,4.82,0,0,1,0-.61,6.78,6.78,0,0,0,0-1.1c0-.38-.07-.77-.11-1.16s-.06-.77-.07-1.13a4.55,4.55,0,0,1,.1-1l.25,0a2.07,2.07,0,0,0,.23.18l.37.25.41.23a2,2,0,0,0,.36.13c1,.3,1.9.58,2.81.83s1.82.49,2.75.71c1.95.47,4,.89,6.21,1.26a2.77,2.77,0,0,0,.38,0l.47,0,.44-.05.28-.06.24.08a5.31,5.31,0,0,1-.36,1c-.17.37-.35.76-.54,1.15s-.38.78-.57,1.16a9.19,9.19,0,0,0-.48,1c-.06.14-.14.33-.26.56s-.23.45-.35.67l-.31.54c-.09.16-.14.23-.16.23l-.32-.08.57-3.65a1.23,1.23,0,0,0-.1-.73,2.62,2.62,0,0,0-.41-.66,2.56,2.56,0,0,0-.58-.51,1.66,1.66,0,0,0-.57-.28,1.57,1.57,0,0,0-.25-.05l-.15,0a.93.93,0,0,0-.88.23,3.15,3.15,0,0,0-.7.93,7.7,7.7,0,0,0-.54,1.27c-.15.46-.27.87-.36,1.25l-1.86,7.74a8.13,8.13,0,0,0-.24,1.81,6.51,6.51,0,0,0,.14,1.35,3.05,3.05,0,0,0,.37,1,3.09,3.09,0,0,0,.44.58l-.06.25c-.56-.19-1.12-.37-1.69-.54s-1.16-.32-1.74-.47-1.2-.26-1.82-.37l-1.88-.3.06-.25c.17-.06.39-.13.67-.2a2.51,2.51,0,0,0,.86-.46,4.16,4.16,0,0,0,.9-1.06A7.8,7.8,0,0,0,765.78,282.44Z"/><path d="M777.22,285.18l1.94-8.08a9.29,9.29,0,0,0,.21-1.2,6.59,6.59,0,0,0,0-1.25,3.24,3.24,0,0,0-.26-1,.92.92,0,0,0-.64-.56l-.15,0-.24-.08a1.92,1.92,0,0,0-.64,0,3.47,3.47,0,0,0-.75.2,2.93,2.93,0,0,0-.69.39,1.56,1.56,0,0,0-.46.6l-.75,3.14-.32-.08a.61.61,0,0,1,0-.26c0-.18,0-.39,0-.63s0-.5,0-.76a4.82,4.82,0,0,1,0-.61,5.7,5.7,0,0,0,0-1.09c0-.39-.07-.78-.11-1.17s-.06-.76-.06-1.13a3.65,3.65,0,0,1,.1-1l.25,0a1,1,0,0,0,.23.19l.36.24.42.23a2.11,2.11,0,0,0,.35.14c1,.3,1.9.57,2.81.82s1.82.49,2.76.72q2.91.69,6.2,1.25a1.84,1.84,0,0,0,.38,0,3.77,3.77,0,0,0,.47,0l.44,0,.28-.06.24.09a5.24,5.24,0,0,1-.36,1l-.53,1.16c-.19.39-.39.78-.58,1.15s-.35.73-.48,1c-.05.14-.14.33-.25.56s-.24.46-.36.67l-.31.55c-.09.15-.14.22-.16.22l-.31-.08.56-3.65a1.23,1.23,0,0,0-.1-.73,2.51,2.51,0,0,0-.41-.66,3.16,3.16,0,0,0-.58-.51,1.71,1.71,0,0,0-.56-.28l-.25,0-.15,0a1,1,0,0,0-.89.23,3.33,3.33,0,0,0-.7.93,9.15,9.15,0,0,0-.54,1.27c-.15.46-.27.87-.36,1.25l-1.86,7.74a8.13,8.13,0,0,0-.24,1.81,6.64,6.64,0,0,0,.15,1.36,3.37,3.37,0,0,0,.36.95,3.2,3.2,0,0,0,.45.59l-.06.24-1.7-.53c-.57-.18-1.15-.33-1.74-.47s-1.19-.27-1.82-.37l-1.88-.31L774,289c.17-.06.39-.13.67-.2a2.38,2.38,0,0,0,.86-.45,4,4,0,0,0,.9-1.07A7.66,7.66,0,0,0,777.22,285.18Z"/><path d="M801.47,277.63a1.18,1.18,0,0,0-1.11.3,4.73,4.73,0,0,0-1,1.38,14.34,14.34,0,0,0-.91,2.29c-.29.91-.57,1.92-.83,3s-.49,2.13-.73,3.3-.46,2.38-.68,3.65a1.63,1.63,0,0,0,0,.79,5,5,0,0,0,.26.83,4.44,4.44,0,0,0,.42.74,4,4,0,0,0,.45.55l-.06.25c-.56-.19-1.12-.37-1.69-.54s-1.16-.33-1.74-.47-1.19-.27-1.8-.38l-1.85-.31.06-.25.25-.07a3.92,3.92,0,0,0,.67-.24,2.14,2.14,0,0,0,.74-.57,4.46,4.46,0,0,0,.75-1.18,11.05,11.05,0,0,0,.69-2.09L795,282l.1-.39.05-.22a.65.65,0,0,0,0-.2c.12-.64.21-1.24.28-1.79a6.5,6.5,0,0,0,0-1.46,2.31,2.31,0,0,0-.38-1.07,1.68,1.68,0,0,0-.87-.63l.08-.34,1.61.31c.5.08,1,.18,1.46.3a3.33,3.33,0,0,0-1-.51c-.39-.13-.76-.24-1.12-.33a6,6,0,0,0-2.89,0,7.68,7.68,0,0,0-2.71,1.25,9.57,9.57,0,0,0-2.24,2.25,10,10,0,0,0-1.46,3,8.36,8.36,0,0,1,.1-1c.05-.32.12-.64.19-.95a9,9,0,0,1,1.28-2.57,9.13,9.13,0,0,1,4.61-3.4,10.82,10.82,0,0,1,3.19-.56l.63.11.61.14a12.8,12.8,0,0,1,1.78.54,5.65,5.65,0,0,1,1.29.7,5.75,5.75,0,0,1,1,.92,14,14,0,0,1,.93,1.23Z"/><path d="M817.28,301.39l-.35-.05c-.18,0-.3-.22-.37-.51a4.79,4.79,0,0,1-.12-1c0-.36,0-.72-.06-1.06a1.84,1.84,0,0,0-.16-.73,23.18,23.18,0,0,0-1.09-3.2c-.44-1-.89-2.05-1.37-3.07s-1-2-1.42-3a30.29,30.29,0,0,1-1.25-3.12l-.17,0-2,8.2a3.75,3.75,0,0,0-.09,1.46,3.29,3.29,0,0,0,.37,1.07,2.93,2.93,0,0,0,.56.74,6.65,6.65,0,0,0,.52.48l-.09.37a27.23,27.23,0,0,0-2.76-.82,22.83,22.83,0,0,0-2.61-.47l.09-.37c0-.06.13-.13.34-.19a3,3,0,0,0,.75-.34,3.09,3.09,0,0,0,.84-.77,3.75,3.75,0,0,0,.66-1.5l2.67-11.15a3.06,3.06,0,0,0,0-2,2.22,2.22,0,0,0-1.61-1.05,5.2,5.2,0,0,0-2.74.09,8,8,0,0,0-2.58,1.32,10.12,10.12,0,0,0-2.13,2.24,10.26,10.26,0,0,0-1.39,2.84c0-.36,0-.7.1-1s.12-.64.19-.95a9.23,9.23,0,0,1,1.28-2.57,9.29,9.29,0,0,1,4.61-3.4,10.82,10.82,0,0,1,3.19-.56l.64.12.6.13a13.61,13.61,0,0,1,3.36,1.24,11.14,11.14,0,0,1,2.54,1.93l-.07.3a.82.82,0,0,0-1,.31,3.54,3.54,0,0,0-.48,1.13,3.08,3.08,0,0,0,0,1.21,11.34,11.34,0,0,0,.41,1.56c.18.56.4,1.14.64,1.73s.5,1.17.75,1.71.48,1.05.71,1.52l.54,1.14.22.05,1.66-6.91a2.46,2.46,0,0,0,.07-.86,1.69,1.69,0,0,0-.2-.61,2.86,2.86,0,0,0-.39-.47l-.49-.45.08-.34.34.12.36.1.71.17.19.07.22.05.42.1a17.17,17.17,0,0,0,1.71.33l1.79.3-.06.25a5.42,5.42,0,0,0-.82.07,3.34,3.34,0,0,0-1,.36,3.45,3.45,0,0,0-.94.84,3.74,3.74,0,0,0-.67,1.49Z"/><path d="M834.56,289.86c.16-.69.27-1.23.32-1.62a2,2,0,0,0-.06-.94.9.9,0,0,0-.48-.5,5.84,5.84,0,0,0-.92-.3,7.36,7.36,0,0,0-.81-.14,8.67,8.67,0,0,0-1.05-.07,8.79,8.79,0,0,0-1.13.07,3.14,3.14,0,0,0-1,.29,5,5,0,0,0-1.27.81,7,7,0,0,0-1.17,1.39,11.09,11.09,0,0,0-1.06,2.1,22.93,22.93,0,0,0-.91,3,9.93,9.93,0,0,0-.26,2.82,5,5,0,0,0,.78,2.49,4.56,4.56,0,0,1,.31.42,2.35,2.35,0,0,0,.4.45,3,3,0,0,0,.63.41,4.51,4.51,0,0,0,1,.34,3.54,3.54,0,0,0,1.83.08,1.74,1.74,0,0,0,1-1.2l.67-2.81a2.32,2.32,0,0,0,0-1.2,2.83,2.83,0,0,0-.57-1,4.06,4.06,0,0,0-1-.8,4.3,4.3,0,0,0-1.24-.5,3.39,3.39,0,0,0-.58-.09q-.34,0-.87,0l.05-.22a5.22,5.22,0,0,1,.61-.14,3.83,3.83,0,0,1,.76-.05,6.78,6.78,0,0,1,.84.07l.69.14a5.08,5.08,0,0,1,.86.29,6.73,6.73,0,0,1,.71.36l.66.39a5.38,5.38,0,0,0,.72.37,1.85,1.85,0,0,0,.39,0h.71a7.79,7.79,0,0,1,.94,0,7.47,7.47,0,0,1,1.07.18l0,.14a1,1,0,0,0-.76.43,2.48,2.48,0,0,0-.45,1l-1,4.26a3,3,0,0,1-1.35,1.73.61.61,0,0,0-.39,0c-.14.07-.4.21-.79.45a5.68,5.68,0,0,1-.74.38,1.34,1.34,0,0,1-.89.06l-.84-.2-.32-.05-.32-.08-.68-.17a18.69,18.69,0,0,1-2.44-.76,7.2,7.2,0,0,1-2.26-1.37,5.28,5.28,0,0,1-1.45-2.23,5.91,5.91,0,0,1,0-3.32l.59-2.48c.17-.72.37-1.43.6-2.12a14,14,0,0,1,.86-2,11.52,11.52,0,0,1,1.29-1.92,10.59,10.59,0,0,1,1.91-1.77,2.53,2.53,0,0,1,1.55-.47,8.37,8.37,0,0,1,2,.25l1.22.3c.76.18,1.49.38,2.22.59s1.39.4,2,.55a2,2,0,0,0,.38,0,3.69,3.69,0,0,0,.47,0l.44-.05.29-.06.24.08a4.34,4.34,0,0,1-.34.92c-.15.31-.31.63-.49.95s-.34.65-.52,1a8.36,8.36,0,0,0-.47.95,4.52,4.52,0,0,1-.25.56c-.11.23-.23.45-.35.67s-.23.39-.31.54-.14.23-.16.22l-.32-.07Z"/><path d="M834.5,305.75l-.29-.07.65-3.78c.16-.69.29-1.26.38-1.72s.17-.87.22-1.22.08-.66.11-.94,0-.59.08-.93a13.69,13.69,0,0,0,1-.93c.26-.27.53-.58.8-.91l.32.05-.24,1.34c-.05.18-.11.4-.19.64s-.23.59-.42,1a6.72,6.72,0,0,0-.27.79c-.05.21-.09.42-.12.61a5,5,0,0,1-.1.56c-.09.37-.16.7-.2,1a4.66,4.66,0,0,1-.11.61c0,.15-.06.31-.08.5a2.1,2.1,0,0,0,0,.56,1.3,1.3,0,0,0,.22.51.82.82,0,0,0,.51.3,5.41,5.41,0,0,0,1.92.11,4.94,4.94,0,0,0,1.78-.56A4.68,4.68,0,0,0,842,302.1a4.28,4.28,0,0,0,.84-1.74,2.25,2.25,0,0,0,0-1.26,5,5,0,0,0-.62-1.24,14.29,14.29,0,0,0-1-1.27c-.38-.44-.77-.9-1.17-1.39s-.79-1-1.16-1.59a9.35,9.35,0,0,1-.94-1.87,3.3,3.3,0,0,1-.12-.79,3.59,3.59,0,0,1,.12-.82,3.11,3.11,0,0,1,1.06-1.84,3.63,3.63,0,0,1,1.76-.69,7.16,7.16,0,0,1,2.11,0c.74.11,1.45.25,2.13.39s1.27.25,1.8.33a1.58,1.58,0,0,0,1.13-.15l.27.07s.06.08,0,.21a3.61,3.61,0,0,1-.25.66c-.13.27-.27.55-.43.85s-.3.59-.45.87-.25.49-.32.64-.16.36-.25.59l-.27.7c-.09.23-.17.43-.24.59s-.23.22-.46.17l0-.21c0-.4.08-.85.12-1.34a5.49,5.49,0,0,0,0-1.41,2.91,2.91,0,0,0-.46-1.19,1.81,1.81,0,0,0-1.12-.69,2.57,2.57,0,0,0-1.67,0,1.93,1.93,0,0,0-.84,1.38,2.8,2.8,0,0,0,.15,1.8,9.39,9.39,0,0,0,1,1.77,20.69,20.69,0,0,0,1.46,1.77,20.79,20.79,0,0,1,1.45,1.8,8.52,8.52,0,0,1,1,1.85,3.15,3.15,0,0,1,.12,1.92,3,3,0,0,1-1.13,1.76,7.27,7.27,0,0,1-2.06,1.06,14.87,14.87,0,0,1-2.55.61l-2.64.36c-.85.11-1.61.23-2.29.36A3.55,3.55,0,0,0,834.5,305.75Z"/><polygon points="775.42 250.46 763.94 247.82 752.46 245.19 760.75 235.39 769.04 225.58 772.23 238.02 775.42 250.46"/><polygon class="cls-29" points="758.05 245.54 755.98 245.09 753.9 244.64 755.14 243.94 756.38 243.24 757.21 244.39 758.05 245.54"/><rect class="cls-29" x="756.18" y="245.19" width="16.47" height="1.88" transform="translate(78.42 -171.39) rotate(13.48)"/><polygon class="cls-29" points="774.07 249.38 772.29 249 770.51 248.61 771.6 247.88 772.69 247.15 773.38 248.26 774.07 249.38"/><rect class="cls-29" x="751.26" y="236.02" width="20.77" height="1.21" transform="translate(97.66 678.46) rotate(-50.9)"/><polygon class="cls-29" points="766.71 230.12 767.73 228.32 768.75 226.53 768.72 227.7 768.68 228.87 767.7 229.49 766.71 230.12"/><rect x="753.62" y="243.45" width="4.79" height="0.47" transform="translate(-24.81 389.48) rotate(-28.44)"/><polygon points="833.09 264.28 821.61 261.65 810.13 259.01 818.42 249.21 826.71 239.4 829.9 251.84 833.09 264.28"/><polygon class="cls-29" points="815.71 259.36 813.64 258.91 811.57 258.46 812.8 257.76 814.04 257.06 814.88 258.21 815.71 259.36"/><rect class="cls-29" x="813.84" y="259.01" width="16.47" height="1.88" transform="translate(83.23 -184.45) rotate(13.48)"/><polygon class="cls-29" points="831.73 263.2 829.95 262.82 828.17 262.43 829.26 261.7 830.35 260.97 831.04 262.08 831.73 263.2"/><rect class="cls-29" x="808.92" y="249.84" width="20.77" height="1.21" transform="translate(108.23 728.31) rotate(-50.9)"/><polygon class="cls-29" points="824.37 243.94 825.39 242.14 826.41 240.35 826.38 241.52 826.35 242.69 825.36 243.31 824.37 243.94"/><rect x="811.28" y="257.27" width="4.79" height="0.47" transform="translate(-24.43 418.62) rotate(-28.44)"/><ellipse class="cls-46" cx="804.63" cy="232.59" rx="28" ry="56.94" transform="translate(390.9 960.85) rotate(-76.52)"/><polygon points="835.31 197.75 827.74 190.63 820.17 183.5 862.09 146.54 904 109.58 869.66 153.66 835.31 197.75"/><polygon class="cls-47" points="833.26 195.15 827.09 189.34 820.91 183.53 853.47 155.11 886.02 126.7 859.64 160.92 833.26 195.15"/><polygon points="883.24 222.93 869.05 210.75 854.87 198.56 912.04 146.36 969.22 94.15 926.23 158.54 883.24 222.93"/><polygon class="cls-48" points="881.07 220.05 868.83 209.53 856.58 199.01 904.5 155.61 952.42 112.21 916.75 166.13 881.07 220.05"/><polygon points="901.4 252.7 894.65 248.25 887.9 243.81 924.17 196.11 960.43 148.42 930.92 200.56 901.4 252.7"/><polygon class="cls-49" points="900.81 249.17 895.32 245.56 889.83 241.94 919.32 203.16 948.81 164.38 924.81 206.78 900.81 249.17"/><ellipse class="cls-50" cx="994.99" cy="345.5" rx="83" ry="36.5" transform="translate(-2.32 6.75) rotate(-0.39)"/><ellipse class="cls-51" cx="969.21" cy="332.04" rx="38.22" ry="15.99" transform="translate(-48.54 214.58) rotate(-12.33)"/><ellipse class="cls-52" cx="1011.17" cy="482.82" rx="83" ry="36.5" transform="translate(-3.25 6.86) rotate(-0.39)"/><path d="M941.77,483.41a16.8,16.8,0,0,1-4.85,7.71c1.7-8.23-2.38-16.58-9.56-19.1-7.6-2.66-15.8,2.22-18.31,10.91,2.51-8.69-1.61-17.88-9.21-20.54s-15.8,2.22-18.31,10.9c2.51-8.68-1.61-17.87-9.21-20.53S856.52,455,854,463.66a18.29,18.29,0,0,0,.7,12.26c-8.82-8.67-13.15-18.42-10.74-26.75,4.42-15.29,29.9-20,56.91-10.57S946.19,468.11,941.77,483.41Z"/><ellipse cx="961.38" cy="481.59" rx="34.16" ry="33.8" transform="translate(188.63 1229.28) rotate(-70.66)"/><ellipse class="cls-53" cx="956.28" cy="462.11" rx="19.6" ry="10.67" transform="translate(-76.61 214.82) rotate(-12.33)"/><ellipse class="cls-54" cx="1054.21" cy="471.04" rx="15.99" ry="38.22" transform="translate(310.38 1354.2) rotate(-73.97)"/><path d="M981.32,469.42a22.62,22.62,0,0,0,4.52,9.81c-1.19-9.93,3.64-19.09,11.32-20.93,8.12-1.94,16.34,5.07,18.36,15.65-2-10.58,2.92-20.73,11-22.67s16.34,5.06,18.37,15.64c-2-10.58,2.92-20.73,11-22.67s16.34,5.07,18.36,15.65a23.57,23.57,0,0,1-1.58,14.28c9.81-8.81,15-19.57,13.07-29.72-3.56-18.64-29.84-28.16-58.7-21.27S977.76,450.78,981.32,469.42Z"/><ellipse class="cls-50" cx="1067.28" cy="604.21" rx="122.36" ry="20.09" transform="translate(-4.07 7.24) rotate(-0.39)"/><ellipse cx="1173.4" cy="601.3" rx="18.8" ry="18.6" transform="translate(217.5 1509.42) rotate(-70.66)"/><path d="M1186.19,599.78a12.39,12.39,0,0,0,1,5.86c.75-5.46,4.6-9.66,8.94-9.56,4.59.1,8,5,7.59,10.89.4-5.91,4.45-10.62,9-10.52s8,5,7.59,10.89c.4-5.91,4.45-10.62,9-10.52s8,5,7.58,10.89a12.94,12.94,0,0,1-2.83,7.38c6.45-3.32,10.72-8.32,11.11-14,.7-10.41-12-19.15-28.28-19.51S1186.89,589.37,1186.19,599.78Z"/><path d="M1164.8,596.09a9.3,9.3,0,0,1-3.77,3.31c2.19-4.08,1.35-9.12-2-11.57-3.59-2.6-8.68-1.31-11.36,2.87,2.68-4.18,2-9.68-1.64-12.28s-8.68-1.31-11.37,2.88c2.69-4.19,2-9.68-1.63-12.28s-8.68-1.31-11.37,2.87a10.12,10.12,0,0,0-1.55,6.58c-3.29-6-4-11.78-1.47-15.79,4.74-7.37,18.92-5.87,31.68,3.36S1169.53,588.72,1164.8,596.09Z"/><ellipse class="cls-55" cx="1170.05" cy="591.13" rx="10.78" ry="5.87" transform="translate(-99.23 263.44) rotate(-12.33)"/><ellipse class="cls-56" cx="1018.81" cy="596.33" rx="70.7" ry="8.91" transform="translate(-42.6 79.61) rotate(-4.38)"/></g></g></svg>
