<svg id="Layer_1" data-name="Layer 1" xmlns="http://www.w3.org/2000/svg" width="300" height="200" viewBox="0 0 300 200"><defs><style>.cls-1{fill:#fff;}</style></defs><title>bat 6</title><ellipse cx="144.98" cy="116.87" rx="13.52" ry="13.16" transform="translate(-4.45 5.75) rotate(-2.24)"/><path d="M151.74,118.6a4.85,4.85,0,0,0,1.93,3.34c.24-3.33,4.32-6.3,9.49-6.79,5.47-.52,10.09,1.94,10.32,5.5-.23-3.56,4-6.86,9.49-7.38s10.09,1.94,10.32,5.5c-.23-3.56,4-6.86,9.5-7.38s10.09,1.94,10.31,5.5a5.73,5.73,0,0,1-2.48,4.73c7.26-2.78,11.75-6.28,11.53-9.69-.41-6.27-16.49-9.85-35.93-8S151.34,112.34,151.74,118.6Z"/><path d="M138.35,117.4a5.06,5.06,0,0,1-2.65,2.75c.71-3.25-2.11-7.09-6.59-8.79-4.74-1.8-9.53-.53-10.72,2.84,1.19-3.37-1.7-7.55-6.43-9.35s-9.54-.53-10.72,2.83c1.18-3.36-1.7-7.55-6.44-9.35s-9.53-.53-10.71,2.83a5.82,5.82,0,0,0,.91,5.15c-5.71-4.41-8.74-8.84-7.61-12.07,2.08-5.93,17.42-5.55,34.25.85S140.43,111.47,138.35,117.4Z"/><ellipse class="cls-1" cx="138.33" cy="113.71" rx="2.96" ry="2.85"/><ellipse class="cls-1" cx="152.3" cy="114.67" rx="2.96" ry="2.85"/></svg>
