<svg id="Layer_1" data-name="Layer 1" xmlns="http://www.w3.org/2000/svg" width="300" height="200" viewBox="0 0 300 200"><defs><style>.cls-1{fill:#fff;}</style></defs><title>bat 5</title><ellipse cx="147.39" cy="110.58" rx="22.9" ry="23.15" transform="translate(30.35 252.9) rotate(-87.45)"/><path d="M159.29,111.92a8.51,8.51,0,0,0,4.14,5.27c-.46-5.78,5.68-11.9,14.31-14,9.13-2.23,17.59.88,18.9,6.94-1.31-6.06,5-12.78,14.16-15s17.59.87,18.9,6.94c-1.31-6.07,5-12.79,14.17-15s17.59.88,18.9,6.94c.63,3-.55,6.08-3,8.76,11.59-6.57,18.27-13.69,17-19.51-2.3-10.68-30.47-12.92-62.92-5S157,101.24,159.29,111.92Z"/><path d="M136.3,113.13a8.72,8.72,0,0,1-3.77,5.38c.35-5.78-5.42-11.69-13.44-13.52-8.49-1.94-16.29,1.42-17.42,7.5,1.13-6.08-4.83-12.58-13.32-14.52s-16.28,1.41-17.41,7.49c1.13-6.08-4.84-12.58-13.32-14.52s-16.29,1.42-17.42,7.5c-.55,3,.59,6,2.89,8.63C32.26,100.89,26,94,27.06,88.16c2-10.71,28.06-13.81,58.22-6.91S138.29,102.41,136.3,113.13Z"/><ellipse class="cls-1" cx="135.2" cy="104.66" rx="4.52" ry="4.43"/><ellipse class="cls-1" cx="149.52" cy="103.19" rx="4.52" ry="4.43"/></svg>
