<svg id="Layer_1" data-name="Layer 1" xmlns="http://www.w3.org/2000/svg" width="300" height="200" viewBox="0 0 300 200"><defs><style>.cls-1{fill:#fff;}</style></defs><title>bat 1</title><ellipse cx="139.8" cy="106.99" rx="13.11" ry="13.28" transform="translate(2.33 216.95) rotate(-76.08)"/><path d="M149.22,104.93a5,5,0,0,0,3.46,1.74c-1.68-2.89,0-7.53,3.92-10.69,4.18-3.34,9.34-3.75,11.53-.92-2.19-2.83-.58-7.84,3.59-11.18s9.33-3.75,11.52-.92c-2.19-2.83-.58-7.83,3.6-11.17s9.33-3.76,11.52-.93a5.73,5.73,0,0,1,.63,5.26c4.37-6.18,6-11.47,3.95-14.19-3.85-5-19,.6-33.84,12.47S145.37,99.94,149.22,104.93Z"/><path d="M132.54,110.56a4.93,4.93,0,0,1-1.84,3.27c-.13-3.31-3.76-6.37-8.43-7-5-.64-9.2,1.7-9.5,5.23.3-3.53-3.47-6.92-8.42-7.56s-9.2,1.7-9.5,5.23c.3-3.53-3.47-6.92-8.42-7.56s-9.2,1.69-9.5,5.22a5.92,5.92,0,0,0,2.13,4.77c-6.52-2.94-10.49-6.53-10.2-9.91.52-6.22,15.21-9.41,32.79-7.12S133.06,104.34,132.54,110.56Z"/><ellipse class="cls-1" cx="147.07" cy="102.34" rx="2.29" ry="3.02" transform="translate(-30.95 82.1) rotate(-28.35)"/><ellipse class="cls-1" cx="140.22" cy="107.13" rx="2.29" ry="3.02" transform="translate(-34.05 79.42) rotate(-28.35)"/></svg>
