<svg id="Layer_1" data-name="Layer 1" xmlns="http://www.w3.org/2000/svg" width="300" height="200" viewBox="0 0 300 200"><defs><style>.cls-1{fill:#fff;}</style></defs><title>bat 2</title><ellipse cx="149.56" cy="117.35" rx="11.41" ry="11.53" transform="translate(-18.48 28.46) rotate(-10.24)"/><path d="M155.46,117.24a4.3,4.3,0,0,0,2.38,2.36c-.61-2.86,2-6.32,6-7.93,4.32-1.72,8.66-.72,9.71,2.22-1-2.94,1.6-6.71,5.91-8.43s8.66-.71,9.7,2.23c-1-2.94,1.61-6.71,5.92-8.43s8.65-.71,9.7,2.23a5.11,5.11,0,0,1-.87,4.56c5.22-4,8-8,7-10.85-1.84-5.18-15.75-4.45-31.08,1.64S153.62,112.06,155.46,117.24Z"/><path d="M144.31,119.35a4.36,4.36,0,0,1-1.48,2.93c-.22-2.9-3.43-5.47-7.48-5.86-4.27-.41-7.86,1.77-8,4.88.14-3.11-3.21-6-7.49-6.37s-7.86,1.78-8,4.89c.14-3.11-3.21-6-7.49-6.38s-7.86,1.78-8,4.89a5.25,5.25,0,0,0,2,4.11c-5.7-2.37-9.23-5.4-9.1-8.38.26-5.48,12.79-8.73,28-7.27S144.56,113.87,144.31,119.35Z"/><circle class="cls-1" cx="143.21" cy="115.2" r="2.23"/><circle class="cls-1" cx="150.11" cy="113.52" r="2.23"/></svg>
