<svg id="Layer_1" data-name="Layer 1" xmlns="http://www.w3.org/2000/svg" width="300" height="200" viewBox="0 0 300 200"><defs><style>.cls-1{fill:#fff;}</style></defs><title>bat 7</title><ellipse cx="145.41" cy="112.2" rx="25.4" ry="20.84" transform="translate(32.44 257.02) rotate(-89.7)"/><path d="M155,111.91a10,10,0,0,0,4.48,5.46c-1.23-6.31,3.43-13.48,10.91-16.45,7.91-3.15,16-.39,18,6.16-2-6.55,2.72-14.4,10.63-17.54s16-.39,18,6.16c-2-6.55,2.72-14.4,10.63-17.55s16-.38,18,6.17a12.27,12.27,0,0,1-1.45,9.83c9.51-8.09,14.52-16.41,12.56-22.69-3.59-11.54-29.29-11.83-57.4-.66S151.45,100.37,155,111.91Z"/><path d="M134.47,114.16a9.28,9.28,0,0,1-2.54,6.23c-.6-6.35-6.71-12.31-14.22-13.6-7.94-1.37-14.43,3-14.5,9.75.07-6.76-6.31-13.34-14.26-14.71s-14.43,3-14.5,9.75c.07-6.76-6.31-13.34-14.26-14.71s-14.43,3-14.5,9.75a13.47,13.47,0,0,0,4,9.18C38.93,110,32.2,103,32.26,96.53c.12-11.89,23.09-17.59,51.32-12.72S134.59,102.27,134.47,114.16Z"/><ellipse class="cls-1" cx="134.37" cy="112.03" rx="2.95" ry="3.01"/><ellipse class="cls-1" cx="153.26" cy="106.96" rx="2.95" ry="3.01"/></svg>
