<svg id="Layer_1" data-name="Layer 1" xmlns="http://www.w3.org/2000/svg" width="300" height="200" viewBox="0 0 300 200"><defs><style>.cls-1{fill:#fff;}</style></defs><title>bat4</title><ellipse cx="154.51" cy="108.07" rx="22.63" ry="22.25" transform="translate(22.21 242.43) rotate(-80.41)"/><path d="M164.93,113a8.41,8.41,0,0,0,2.12,6.21c1.39-5.56,8.89-9.4,17.41-8.72,9,.72,15.75,6.24,15,12.32.7-6.08,8.57-10.43,17.59-9.7s15.75,6.23,15,12.32c.71-6.09,8.58-10.43,17.59-9.71s15.75,6.24,15,12.32c-.34,3-2.4,5.52-5.45,7.28,12.6-2.58,20.91-7.2,21.58-13,1.24-10.71-23.72-21.48-55.75-24S166.16,102.27,164.93,113Z"/><path d="M143.61,107a8.51,8.51,0,0,1-5.11,3.88c2.12-5.3-1.29-12.61-8-16.8-7.13-4.43-15.28-3.68-18.21,1.67,2.93-5.35-.47-13.28-7.6-17.71S89.4,74.4,86.47,79.75C89.4,74.4,86,66.47,78.87,62s-15.28-3.69-18.2,1.66a10.4,10.4,0,0,0-.07,9C52.67,63.55,49.1,55.16,51.91,50c5.16-9.42,29.86-4.3,55.19,11.45S148.77,97.62,143.61,107Z"/><ellipse class="cls-1" cx="145.26" cy="98.77" rx="4.35" ry="4.38"/><ellipse class="cls-1" cx="158.75" cy="101.81" rx="4.35" ry="4.38"/></svg>
