<svg id="Layer_1" data-name="Layer 1" xmlns="http://www.w3.org/2000/svg" width="300" height="200" viewBox="0 0 300 200"><defs><style>.cls-1{fill:#fff;}</style></defs><title>bat 3</title><ellipse cx="141.86" cy="104.11" rx="6.15" ry="6.21" transform="translate(-16.25 26.88) rotate(-10.24)"/><path d="M145,104a2.25,2.25,0,0,0,1.28,1.27c-.33-1.53,1.06-3.4,3.26-4.27s4.66-.38,5.22,1.2c-.56-1.58.87-3.61,3.19-4.54s4.66-.38,5.23,1.2c-.57-1.58.86-3.61,3.18-4.54s4.66-.38,5.23,1.2a2.79,2.79,0,0,1-.47,2.46c2.81-2.17,4.31-4.32,3.77-5.84-1-2.79-8.49-2.4-16.74.88S144.05,101.25,145,104Z"/><path d="M139,105.18a2.31,2.31,0,0,1-.8,1.58c-.11-1.56-1.84-3-4-3.16s-4.24,1-4.31,2.63c.07-1.67-1.73-3.21-4-3.43s-4.23,1-4.31,2.63c.08-1.67-1.72-3.21-4-3.43s-4.23,1-4.31,2.63a2.82,2.82,0,0,0,1.07,2.22c-3.07-1.28-5-2.91-4.9-4.52.14-3,6.89-4.7,15.07-3.91S139.17,102.23,139,105.18Z"/><circle class="cls-1" cx="138.44" cy="102.94" r="1.2"/><circle class="cls-1" cx="142.15" cy="102.04" r="1.2"/></svg>
