<svg id="Layer_1" data-name="Layer 1" xmlns="http://www.w3.org/2000/svg" xmlns:xlink="http://www.w3.org/1999/xlink" width="300" height="200" viewBox="0 0 300 200"><defs><style>.cls-1{fill:url(#linear-gradient);}.cls-2{fill:#fff;}.cls-3{fill:#dd0a0a;}</style><linearGradient id="linear-gradient" x1="77.18" y1="59.65" x2="139.85" y2="59.65" gradientUnits="userSpaceOnUse"><stop offset="0" stop-color="#452a0b"/><stop offset="0.38" stop-color="#2a1907"/><stop offset="1"/></linearGradient></defs><title>bloodpointsnew</title><path d="M89.19,176l-84-.55c.35-51,36.16-93.31,80.71-95.41,46-2.17,85.4,39.37,87.19,92Z"/><path d="M206.22,175.7l-89-.71c.33-61.36,40.6-111.58,89.31-111.38,48.37.19,88.2,50,88.67,110.94Z"/><polygon class="cls-1" points="77.18 25.98 108.52 59.65 139.85 93.33 129.7 69.4 119.54 45.47 98.36 35.73 77.18 25.98"/><path class="cls-2" d="M233.79,121.68l-2.21-4c-.61-1.08-1.17-2.07-1.68-2.94l-1.47-2.55c-.47-.82-1-1.75-1.59-2.79v0c0-.07.14-.16.44-.28s.61-.22,1-.33l.95-.29c.3-.1.44-.15.44-.18h0a6.45,6.45,0,0,0-3.32.94,9.63,9.63,0,0,0-2.78,2.53,13.56,13.56,0,0,0-2,3.7,15.69,15.69,0,0,0-.87,4.47c-.08-.48-.13-1-.16-1.4s-.05-.9-.05-1.33a17.7,17.7,0,0,1,.74-4.18,11.71,11.71,0,0,1,1.81-3.62,8.68,8.68,0,0,1,7.26-3.5,8.72,8.72,0,0,1,1,.06l1.07.12,0,.41a.43.43,0,0,0-.35.21,1.48,1.48,0,0,0-.23.49,3.31,3.31,0,0,0-.14.6,4.68,4.68,0,0,0,0,.64,1.9,1.9,0,0,0,.13.56c.09.25.28.7.58,1.35s.72,1.56,1.28,2.75,1.32,2.79,2.28,4.8h.29a17.5,17.5,0,0,0,1.34-3.31q.53-1.75.9-3.24a4.41,4.41,0,0,0,.09-.86,1.12,1.12,0,0,0-.23-.75,1.74,1.74,0,0,0-1-.36V109a12.38,12.38,0,0,1,1.57-.1c.49,0,.94,0,1.37,0s.83,0,1.22,0,.79,0,1.31,0,1,0,1.4,0a2.47,2.47,0,0,1,.88.1v.42a2.84,2.84,0,0,0-.9.19,7.09,7.09,0,0,0-1.1.5,5.9,5.9,0,0,0-1.06.76,4,4,0,0,0-.8,1l-3.89,7.31a3,3,0,0,0-.11.35,1.36,1.36,0,0,0-.06.38c.1.25.23.57.4,1l.7,1.66c.31.73.71,1.7,1.23,2.91s1.13,2.71,1.88,4.49,1.64,3.91,2.68,6.41c.24,1.11.48,2.12.72,3a10.64,10.64,0,0,0,.93,2.39h-.53l-10.25-18.08c-.57,1.18-1.09,2.36-1.55,3.54s-.85,2.26-1.16,3.25c0,.23-.08.44-.12.61a2.2,2.2,0,0,0-.06.5v0a.5.5,0,0,0,.21.43,1.87,1.87,0,0,0,.53.26c.21.07.45.13.71.19l.76.19,0,.48h-2.89l-.29,0-.56,0-.91,0c-.24,0-.51,0-.81.05l-.93.11-.9.08a7.41,7.41,0,0,1-.78,0,1,1,0,0,1-.59-.11l0-.55a5.13,5.13,0,0,0,.93-.36,8.05,8.05,0,0,0,1-.66,8.51,8.51,0,0,0,1-.92,6.7,6.7,0,0,0,.84-1.14Z"/><path class="cls-2" d="M250.14,110.6c1.88.16,3.78.27,5.68.34a24.75,24.75,0,0,0,5.69-.45q-.51,2.64-.94,5.65a14.56,14.56,0,0,1-.45-2.31,2.14,2.14,0,0,0-1.14-1.78,3.07,3.07,0,0,0-2.38-.33c-1,.2-1.29.9-1,2.1a2.46,2.46,0,0,0,1,2.51,15.48,15.48,0,0,1,2,1.68,12,12,0,0,1,2.43,2.7,3.16,3.16,0,0,1,.08,3.6,8.71,8.71,0,0,1-4.45,3.14,16,16,0,0,0-4.83,2.37q-.12-2.11-.18-4.23c0-1.4-.13-2.81-.26-4.22q.35-.59.69-1.2c.22-.4.45-.8.69-1.19,0,1.34,0,2.68-.16,4a14.82,14.82,0,0,0,.22,4,2.83,2.83,0,0,0,2,.15,4.7,4.7,0,0,0,2-1,5.16,5.16,0,0,0,1.38-1.84,3.49,3.49,0,0,0,.21-2.33,7.25,7.25,0,0,0-2.54-3.07,9.79,9.79,0,0,0-3.44-1.51c-.06-1-.16-2.26-.28-3.67a2.34,2.34,0,0,0-1.93-2.42Z"/><ellipse class="cls-3" cx="205.56" cy="135.08" rx="8.95" ry="12.88" transform="translate(-4.89 7.76) rotate(-2.14)"/><polygon class="cls-3" points="212.6 127.45 205.12 128.1 197.65 128.74 200.93 121.06 204.2 113.38 208.4 120.41 212.6 127.45"/><ellipse class="cls-2" cx="210.57" cy="131.04" rx="2.17" ry="5.51" transform="translate(-25.59 55.28) rotate(-14.11)"/><ellipse class="cls-2" cx="211.72" cy="138.63" rx="1.44" ry="1.53" transform="translate(-31.02 67.06) rotate(-16.79)"/><ellipse class="cls-2" cx="55.06" cy="143.08" rx="10.93" ry="15.74" transform="translate(-5.29 2.15) rotate(-2.14)"/><polygon class="cls-2" points="63.65 133.75 54.52 134.55 45.38 135.34 49.39 125.95 53.39 116.56 58.52 125.16 63.65 133.75"/><ellipse class="cls-2" cx="61.18" cy="138.15" rx="2.65" ry="6.74" transform="translate(-31.83 19.08) rotate(-14.11)"/><ellipse class="cls-2" cx="62.58" cy="147.42" rx="1.76" ry="1.87" transform="translate(-39.91 24.36) rotate(-16.79)"/><ellipse class="cls-3" cx="55.5" cy="142.62" rx="8.95" ry="12.88" transform="translate(-5.28 2.17) rotate(-2.14)"/><polygon class="cls-3" points="62.54 134.99 55.06 135.63 47.59 136.28 50.87 128.6 54.14 120.91 58.34 127.95 62.54 134.99"/><ellipse class="cls-2" cx="60.51" cy="138.58" rx="2.17" ry="5.51" transform="translate(-31.95 18.93) rotate(-14.11)"/><ellipse class="cls-2" cx="61.66" cy="146.16" rx="1.44" ry="1.53" transform="translate(-39.59 24.04) rotate(-16.79)"/><ellipse class="cls-2" cx="93.52" cy="141.12" rx="10.93" ry="15.74" transform="translate(-5.2 3.58) rotate(-2.14)"/><polygon class="cls-2" points="102.11 131.79 92.98 132.59 83.85 133.38 87.85 123.99 91.85 114.59 96.98 123.19 102.11 131.79"/><ellipse class="cls-2" cx="99.64" cy="136.19" rx="2.65" ry="6.74" transform="translate(-30.19 28.39) rotate(-14.11)"/><ellipse class="cls-2" cx="101.04" cy="145.46" rx="1.76" ry="1.87" transform="matrix(0.96, -0.29, 0.29, 0.96, -37.71, 35.38)"/><ellipse class="cls-3" cx="93.97" cy="140.66" rx="8.95" ry="12.88" transform="translate(-5.18 3.6) rotate(-2.14)"/><polygon class="cls-3" points="101 133.03 93.53 133.67 86.06 134.32 89.33 126.64 92.6 118.95 96.8 125.99 101 133.03"/><ellipse class="cls-2" cx="98.98" cy="136.62" rx="2.17" ry="5.51" transform="translate(-30.31 28.25) rotate(-14.11)"/><ellipse class="cls-2" cx="100.12" cy="144.2" rx="1.44" ry="1.53" transform="translate(-37.38 35.07) rotate(-16.79)"/><ellipse class="cls-2" cx="131.92" cy="138.05" rx="10.93" ry="15.74" transform="translate(-5.05 5.01) rotate(-2.14)"/><polygon class="cls-2" points="140.51 128.72 131.38 129.51 122.25 130.3 126.25 120.91 130.25 111.52 135.38 120.12 140.51 128.72"/><ellipse class="cls-2" cx="138.04" cy="133.11" rx="2.65" ry="6.74" transform="translate(-28.28 37.66) rotate(-14.11)"/><ellipse class="cls-2" cx="139.44" cy="142.38" rx="1.76" ry="1.87" transform="translate(-35.18 46.34) rotate(-16.79)"/><ellipse class="cls-3" cx="132.37" cy="137.58" rx="8.95" ry="12.88" transform="translate(-5.04 5.03) rotate(-2.14)"/><polygon class="cls-3" points="139.4 129.95 131.93 130.6 124.45 131.25 127.73 123.56 131 115.88 135.2 122.91 139.4 129.95"/><ellipse class="cls-2" cx="137.37" cy="133.55" rx="2.17" ry="5.51" transform="translate(-28.41 37.51) rotate(-14.11)"/><ellipse class="cls-2" cx="138.52" cy="141.13" rx="1.44" ry="1.53" transform="translate(-34.86 46.03) rotate(-16.79)"/><ellipse class="cls-2" cx="166.52" cy="135.28" rx="10.93" ry="15.74" transform="translate(-4.93 6.3) rotate(-2.14)"/><polygon class="cls-2" points="175.12 125.95 165.99 126.74 156.85 127.53 160.85 118.14 164.86 108.75 169.99 117.35 175.12 125.95"/><ellipse class="cls-2" cx="172.64" cy="130.34" rx="2.65" ry="6.74" transform="translate(-26.56 46.01) rotate(-14.11)"/><ellipse class="cls-2" cx="174.04" cy="139.61" rx="1.76" ry="1.87" transform="translate(-32.91 56.22) rotate(-16.79)"/><ellipse class="cls-3" cx="166.97" cy="134.81" rx="8.95" ry="12.88" transform="translate(-4.91 6.32) rotate(-2.14)"/><polygon class="cls-3" points="174 127.18 166.53 127.83 159.06 128.47 162.33 120.79 165.61 113.11 169.81 120.14 174 127.18"/><ellipse class="cls-2" cx="171.98" cy="130.77" rx="2.17" ry="5.51" transform="translate(-26.69 45.86) rotate(-14.11)"/><ellipse class="cls-2" cx="173.13" cy="138.36" rx="1.44" ry="1.53" transform="translate(-32.58 55.9) rotate(-16.79)"/><ellipse class="cls-2" cx="202.08" cy="132.43" rx="10.93" ry="15.74" transform="matrix(1, -0.04, 0.04, 1, -4.8, 7.62)"/><polygon class="cls-2" points="210.67 123.1 201.54 123.89 192.41 124.68 196.41 115.29 200.41 105.9 205.54 114.5 210.67 123.1"/><ellipse class="cls-2" cx="208.2" cy="127.49" rx="2.65" ry="6.74" transform="translate(-24.8 54.59) rotate(-14.11)"/><ellipse class="cls-2" cx="209.6" cy="136.76" rx="1.76" ry="1.87" transform="matrix(0.96, -0.29, 0.29, 0.96, -30.57, 66.37)"/><ellipse class="cls-3" cx="202.53" cy="131.97" rx="8.95" ry="12.88" transform="translate(-4.78 7.64) rotate(-2.14)"/><polygon class="cls-3" points="209.56 124.33 202.09 124.98 194.61 125.63 197.89 117.94 201.16 110.26 205.36 117.3 209.56 124.33"/><ellipse class="cls-2" cx="207.53" cy="127.93" rx="2.17" ry="5.51" transform="translate(-24.92 54.44) rotate(-14.11)"/><ellipse class="cls-2" cx="208.68" cy="135.51" rx="1.44" ry="1.53" transform="translate(-30.25 66.05) rotate(-16.79)"/></svg>
