<svg xmlns="http://www.w3.org/2000/svg" xmlns:xlink="http://www.w3.org/1999/xlink" width="200" height="320" viewBox="0 0 200 320"><defs><style>.cls-1{isolation:isolate;}.cls-2{fill:gray;}.cls-3{fill:#ff0;}.cls-4{opacity:0.6;}.cls-5{fill:url(#New_Gradient_Swatch_1);}.cls-6{fill:#e2af20;}.cls-7{fill:url(#linear-gradient);}.cls-8{fill:#dd0a0a;}.cls-10,.cls-9{mix-blend-mode:screen;}.cls-9{fill:url(#linear-gradient-2);}.cls-10{fill:url(#linear-gradient-3);}</style><linearGradient id="New_Gradient_Swatch_1" x1="72.3" y1="31.84" x2="115.51" y2="31.84" gradientUnits="userSpaceOnUse"><stop offset="0" stop-color="#fff"/><stop offset="0.17" stop-color="#fdfdfb"/><stop offset="1" stop-color="#e9ff6a"/></linearGradient><linearGradient id="linear-gradient" x1="62.28" y1="107.44" x2="130.53" y2="107.44" gradientUnits="userSpaceOnUse"><stop offset="0" stop-color="#fff"/><stop offset="0.13" stop-color="#fbfbfb"/><stop offset="0.26" stop-color="#f0f0f0"/><stop offset="0.38" stop-color="#ddd"/><stop offset="0.51" stop-color="#c1c1c1"/><stop offset="0.63" stop-color="#9f9f9f"/><stop offset="0.75" stop-color="#747474"/><stop offset="0.87" stop-color="#414141"/><stop offset="0.98" stop-color="#080808"/><stop offset="1"/></linearGradient><linearGradient id="linear-gradient-2" x1="-2298.02" y1="-3695.15" x2="-2298.02" y2="-3671.48" gradientTransform="matrix(-3.09, 0.22, -0.06, -0.79, -7189.18, -2209.42)" gradientUnits="userSpaceOnUse"><stop offset="0" stop-color="#fff"/><stop offset="0.07" stop-color="#dedede"/><stop offset="0.22" stop-color="#a4a4a4"/><stop offset="0.36" stop-color="#727272"/><stop offset="0.5" stop-color="#494949"/><stop offset="0.64" stop-color="#292929"/><stop offset="0.77" stop-color="#121212"/><stop offset="0.89" stop-color="#050505"/><stop offset="1"/></linearGradient><linearGradient id="linear-gradient-3" x1="-2171.31" y1="-2753.68" x2="-2171.31" y2="-2730.44" gradientTransform="matrix(-0.17, 3.09, -0.79, -0.04, -2418.89, 6713.67)" xlink:href="#linear-gradient-2"/></defs><title>bloodmeternew</title><g class="cls-1"><g id="Layer_1" data-name="Layer 1"><ellipse class="cls-2" cx="104.48" cy="80.09" rx="2.14" ry="1.29"/><polygon class="cls-3" points="113.57 290.92 107.97 286.92 102.37 282.92 115.57 279.63 128.77 276.33 121.17 283.62 113.57 290.92"/><polygon class="cls-3" points="100.45 300.2 106.28 297.83 112.11 295.45 118.1 304.58 124.1 313.71 112.27 306.96 100.45 300.2"/><polygon class="cls-3" points="90.7 284.01 85.57 288.83 80.43 293.64 70.16 286.26 59.88 278.88 75.29 281.44 90.7 284.01"/><ellipse class="cls-2" cx="89.44" cy="35.98" rx="1.45" ry="0.87"/><g class="cls-4"><ellipse class="cls-2" cx="97.15" cy="32.9" rx="31.2" ry="12.53"/><ellipse class="cls-2" cx="76.35" cy="23.31" rx="17.55" ry="8.42"/><ellipse class="cls-2" cx="120.22" cy="22.72" rx="17.22" ry="9.01"/><ellipse class="cls-2" cx="135.17" cy="37.02" rx="14.62" ry="7.64"/><ellipse class="cls-2" cx="117.62" cy="46.03" rx="23.72" ry="6.07"/><ellipse class="cls-2" cx="77" cy="41.91" rx="26" ry="10.18"/><ellipse class="cls-2" cx="98.77" cy="17.82" rx="13.32" ry="4.11"/><ellipse class="cls-2" cx="63.68" cy="32.12" rx="12.67" ry="5.09"/></g><path class="cls-5" d="M97.88,31.84l17.63,12.53a33,33,0,0,1-17.63,4.77c-14,0-25.58-7.81-25.58-17.3s11.54-17.3,25.58-17.3a35.9,35.9,0,0,1,11.66,1.9Z"/><polygon class="cls-3" points="104.7 281.95 92.34 284.8 79.98 287.66 81.29 278.57 82.6 269.48 93.65 275.71 104.7 281.95"/><polygon class="cls-3" points="108.93 284.88 100.56 283.49 92.2 282.1 100 274.88 107.8 267.67 108.37 276.27 108.93 284.88"/><polygon class="cls-3" points="87.34 294.5 96.84 294.51 106.34 294.52 101.56 304.1 96.77 313.68 92.06 304.09 87.34 294.5"/><polygon class="cls-3" points="80.46 294.6 88.72 297.42 96.99 300.25 87.47 304.57 77.96 308.89 79.21 301.75 80.46 294.6"/><polygon class="cls-3" points="90.46 288.42 91.66 292.61 92.85 296.81 71.32 296.88 49.79 296.95 70.13 292.68 90.46 288.42"/><ellipse class="cls-6" cx="96.25" cy="289.51" rx="16.86" ry="10.46"/><path class="cls-7" d="M96.41,161.2l-34.13-.1c0-58.94,15.42-107.41,34.13-107.41s34.12,48.53,34.12,107.51Z"/><path class="cls-8" d="M96.41,161.2l34.12.1c0,58.93-15.41,107.4-34.12,107.4S62.28,220.17,62.28,161.2Z"/><ellipse class="cls-9" cx="114.92" cy="206.93" rx="43.36" ry="8.9" transform="translate(-108.56 284.91) rotate(-80.19)"/><ellipse class="cls-10" cx="114.21" cy="115.75" rx="8.94" ry="43.2" transform="translate(-14.05 15.8) rotate(-7.45)"/></g></g></svg>
