<svg id="Layer_1" data-name="Layer 1" xmlns="http://www.w3.org/2000/svg" width="300" height="200" viewBox="0 0 300 200"><defs><style>.cls-1{fill:#ff0;}.cls-2{fill:#fff;}</style></defs><title>Cat</title><ellipse cx="115.81" cy="89.51" rx="25.34" ry="25.35"/><polygon points="123.55 53.49 129.43 63.64 135.32 73.79 123.53 73.85 111.74 73.91 117.64 63.7 123.55 53.49"/><polygon points="107.54 53.49 113.61 63.96 119.69 74.43 108.02 74.2 96.35 73.98 101.95 63.73 107.54 53.49"/><circle class="cls-1" cx="120.61" cy="82.04" r="2.93"/><circle class="cls-1" cx="101.41" cy="82.04" r="2.93"/><polygon class="cls-2" points="105.18 86.99 108.23 87.05 111.28 87.11 109.7 89.36 108.14 91.61 106.66 89.3 105.18 86.99"/><ellipse cx="201.71" cy="72.46" rx="10.61" ry="2.4" transform="translate(-4.68 130.27) rotate(-35.41)"/><ellipse cx="135.81" cy="131.68" rx="3.2" ry="13.08"/><ellipse cx="149.15" cy="135.41" rx="3.2" ry="13.08"/><ellipse cx="191.83" cy="130.07" rx="3.2" ry="13.08"/><ellipse cx="179.56" cy="127.94" rx="3.2" ry="13.08"/><ellipse cx="191.56" cy="88.18" rx="13.88" ry="2.4" transform="matrix(0.26, -0.97, 0.97, 0.26, 56.4, 250.05)"/><path d="M197.7,109.79c0,9.58-15.65,17.35-34.94,17.35s-34.95-7.77-34.95-17.35c0-4.92,4.14-9.36,10.77-12.52,2.56,4.27,12.53,7.45,24.44,7.45,11.73,0,21.58-3.08,24.32-7.25C193.73,100.61,197.7,105,197.7,109.79Z"/></svg>
