<svg id="Layer_1" data-name="Layer 1" xmlns="http://www.w3.org/2000/svg" width="300" height="200" viewBox="0 0 300 200"><defs><style>.cls-1{fill:#383536;}.cls-2{opacity:0.48;}.cls-3{fill:#606060;}</style></defs><title>clouds</title><ellipse class="cls-1" cx="197.2" cy="101.86" rx="32.21" ry="39.93" transform="translate(80.4 290.6) rotate(-85.56)"/><ellipse class="cls-1" cx="139.6" cy="97.06" rx="31.33" ry="25.27" transform="translate(-11.22 18.57) rotate(-7.32)"/><ellipse class="cls-1" cx="81.17" cy="112.29" rx="32.21" ry="39.93" transform="translate(-37.06 184.53) rotate(-85.56)"/><ellipse class="cls-1" cx="101.9" cy="65.78" rx="28.82" ry="29.42" transform="translate(28.44 162.29) rotate(-85.56)"/><ellipse class="cls-1" cx="194.28" cy="56.19" rx="19.57" ry="18.04" transform="translate(85.55 226.72) rotate(-73.61)"/><ellipse class="cls-1" cx="155.27" cy="60.03" rx="25.18" ry="31.22" transform="matrix(0.08, -1, 1, 0.08, 83.41, 210.2)"/><ellipse class="cls-1" cx="156.26" cy="119.56" rx="12.12" ry="11.17" transform="translate(-2.53 235.73) rotate(-73.61)"/><g class="cls-2"><path class="cls-3" d="M159.82,135.57,102.39,141q-.06-.39-.09-.78c-1.16-14.4,23.85-28.34,55.4-30.88s58.47,7.21,59.63,21.6Z"/><ellipse class="cls-3" cx="203.13" cy="140.7" rx="28.38" ry="17.74" transform="translate(-10.65 16.78) rotate(-4.61)"/><ellipse class="cls-3" cx="151.39" cy="144.87" rx="28.38" ry="17.74" transform="translate(-11.15 12.63) rotate(-4.61)"/><ellipse class="cls-3" cx="106.6" cy="146.98" rx="28.38" ry="17.74" transform="translate(-11.47 9.04) rotate(-4.61)"/><ellipse class="cls-3" cx="113.76" cy="124.3" rx="20.91" ry="15.87" transform="translate(-9.62 9.54) rotate(-4.61)"/><ellipse class="cls-3" cx="196.22" cy="117.65" rx="21.1" ry="17.74" transform="translate(-8.82 16.15) rotate(-4.61)"/><ellipse class="cls-3" cx="152.15" cy="117.08" rx="28.38" ry="17.74" transform="matrix(1, -0.08, 0.08, 1, -8.92, 12.61)"/></g></svg>
