<svg xmlns="http://www.w3.org/2000/svg" xmlns:xlink="http://www.w3.org/1999/xlink" width="1600" height="900" viewBox="0 0 1600 900"><defs><style>.cls-1{isolation:isolate;}.cls-2{fill:url(#New_Gradient_Swatch_2);}.cls-3{fill:url(#linear-gradient);}.cls-4{fill:#ccbb96;}.cls-5{fill:#fff;}.cls-6{mix-blend-mode:screen;fill:url(#linear-gradient-2);}.cls-7{opacity:0.65;}.cls-8{fill:#3f2300;}.cls-9{fill:url(#New_Gradient_Swatch_2-2);}.cls-10{fill:url(#New_Gradient_Swatch_2-3);}.cls-11{filter:url(#AI_Shadow_1);}.cls-12{filter:url(#AI_BevelShadow_1);}.cls-13{fill:url(#New_Gradient_Swatch_1);}.cls-14{fill:url(#New_Gradient_Swatch_3);}.cls-15{fill:url(#New_Gradient_Swatch_3-2);}.cls-16{fill:url(#New_Gradient_Swatch_3-3);}.cls-17{fill:url(#linear-gradient-3);}.cls-18{fill:url(#linear-gradient-4);}.cls-19,.cls-22{fill:none;}.cls-20{fill:url(#linear-gradient-5);}.cls-21{fill:url(#linear-gradient-6);}.cls-22{stroke:#fff;stroke-miterlimit:10;}.cls-23{fill:url(#linear-gradient-7);}.cls-24{fill:url(#New_Gradient_Swatch_6);}.cls-25{fill:url(#New_Gradient_Swatch_2-4);}.cls-26{fill:url(#New_Gradient_Swatch_2-5);}</style><linearGradient id="New_Gradient_Swatch_2" x1="260" y1="81" x2="1340" y2="1161" gradientUnits="userSpaceOnUse"><stop offset="0" stop-color="#005f02"/><stop offset="0.37" stop-color="#004506"/><stop offset="0.74" stop-color="#00310a"/><stop offset="1" stop-color="#002a0b"/></linearGradient><linearGradient id="linear-gradient" x1="800" y1="342" x2="800" gradientUnits="userSpaceOnUse"><stop offset="0" stop-color="#e85c0f"/><stop offset="0.27" stop-color="#393332"/><stop offset="0.31" stop-color="#312d33"/><stop offset="0.42" stop-color="#1e1e35"/><stop offset="0.54" stop-color="#101337"/><stop offset="0.7" stop-color="#080d38"/><stop offset="1" stop-color="#060b38"/></linearGradient><linearGradient id="linear-gradient-2" x1="1056" y1="3655.36" x2="1056" y2="3845.13" gradientTransform="translate(338.32 -1565.57) scale(0.47 0.52)" gradientUnits="userSpaceOnUse"><stop offset="0" stop-color="#fff"/><stop offset="0.07" stop-color="#dedede"/><stop offset="0.22" stop-color="#a4a4a4"/><stop offset="0.36" stop-color="#727272"/><stop offset="0.5" stop-color="#494949"/><stop offset="0.64" stop-color="#292929"/><stop offset="0.77" stop-color="#121212"/><stop offset="0.89" stop-color="#050505"/><stop offset="1"/></linearGradient><linearGradient id="New_Gradient_Swatch_2-2" x1="1432.42" y1="151.04" x2="1550.38" y2="219.15" xlink:href="#New_Gradient_Swatch_2"/><linearGradient id="New_Gradient_Swatch_2-3" x1="1507.91" y1="321.46" x2="1606.55" y2="378.42" xlink:href="#New_Gradient_Swatch_2"/><filter id="AI_Shadow_1" name="AI_Shadow_1"><feGaussianBlur result="blur" stdDeviation="2" in="SourceAlpha"/><feOffset result="offsetBlurredAlpha" dx="4" dy="4" in="blur"/><feMerge><feMergeNode in="offsetBlurredAlpha"/><feMergeNode in="SourceGraphic"/></feMerge></filter><filter id="AI_BevelShadow_1" x="-20" y="-20" width="140" height="140" name="AI_BevelShadow_1"><feGaussianBlur result="blur" stdDeviation="4" in="SourceAlpha"/><feOffset result="offsetBlur" dx="4" dy="4" in="blur"/><feSpecularLighting result="specOut" surfaceScale="5" specularExponent="10" in="blur"><fePointLight x="-5000" y="-10000" z="-20000"/></feSpecularLighting><feComposite result="specOut" operator="in" in="specOut" in2="SourceAlpha"/><feComposite result="litPaint" operator="arithmetic" k2="1" k3="1" in="SourceGraphic" in2="specOut"/><feMerge><feMergeNode in="offsetBlur"/><feMergeNode in="litPaint"/></feMerge></filter><linearGradient id="New_Gradient_Swatch_1" x1="246" y1="128" x2="18" y2="128" gradientUnits="userSpaceOnUse"><stop offset="0" stop-color="#fff"/><stop offset="0.17" stop-color="#fdfdfb"/><stop offset="1" stop-color="#e9ff6a"/></linearGradient><linearGradient id="New_Gradient_Swatch_3" x1="250.36" y1="273.04" x2="395.08" y2="273.04" gradientTransform="translate(266.83 -145.98) rotate(42.17)" gradientUnits="userSpaceOnUse"><stop offset="0" stop-color="#5c0074"/><stop offset="0.01" stop-color="#590070"/><stop offset="0.14" stop-color="#3e004e"/><stop offset="0.27" stop-color="#270032"/><stop offset="0.41" stop-color="#16001c"/><stop offset="0.57" stop-color="#0a000c"/><stop offset="0.75" stop-color="#020003"/><stop offset="1"/></linearGradient><linearGradient id="New_Gradient_Swatch_3-2" x1="204.91" y1="207.38" x2="288.28" y2="159.24" gradientTransform="matrix(0.74, 0.67, -0.67, 0.74, 186.89, -118.1)" xlink:href="#New_Gradient_Swatch_3"/><linearGradient id="New_Gradient_Swatch_3-3" x1="206.11" y1="660.31" x2="529.33" y2="660.31" gradientTransform="matrix(1, 0, 0, 1, 0, 0)" xlink:href="#New_Gradient_Swatch_3"/><linearGradient id="linear-gradient-3" x1="297.34" y1="395.14" x2="343.61" y2="395.14" gradientTransform="matrix(0.64, -0.8, 0.82, 0.66, -213.92, 394.63)" gradientUnits="userSpaceOnUse"><stop offset="0.42" stop-color="#5c0074"/><stop offset="0.43" stop-color="#590070"/><stop offset="0.5" stop-color="#3e004e"/><stop offset="0.58" stop-color="#270032"/><stop offset="0.66" stop-color="#16001c"/><stop offset="0.75" stop-color="#0a000c"/><stop offset="0.85" stop-color="#020003"/><stop offset="1"/></linearGradient><linearGradient id="linear-gradient-4" x1="389.41" y1="397.64" x2="441.98" y2="397.64" gradientTransform="translate(361 -170.96) rotate(40.67)" gradientUnits="userSpaceOnUse"><stop offset="0.38" stop-color="#5c0074"/><stop offset="0.39" stop-color="#590070"/><stop offset="0.47" stop-color="#3e004e"/><stop offset="0.55" stop-color="#270032"/><stop offset="0.64" stop-color="#16001c"/><stop offset="0.73" stop-color="#0a000c"/><stop offset="0.84" stop-color="#020003"/><stop offset="1"/></linearGradient><linearGradient id="linear-gradient-5" x1="251.76" y1="597.37" x2="251.76" y2="735.69" gradientUnits="userSpaceOnUse"><stop offset="0" stop-color="#b40f00"/><stop offset="0.11" stop-color="#ae0e00"/><stop offset="0.27" stop-color="#9b0d00"/><stop offset="0.46" stop-color="#7e0a00"/><stop offset="0.66" stop-color="#540700"/><stop offset="0.88" stop-color="#200300"/><stop offset="1"/></linearGradient><linearGradient id="linear-gradient-6" x1="485.93" y1="597.37" x2="485.93" y2="735.69" gradientUnits="userSpaceOnUse"><stop offset="0" stop-color="#b40f00"/><stop offset="0.11" stop-color="#ad0e00"/><stop offset="0.27" stop-color="#990d00"/><stop offset="0.47" stop-color="#790a00"/><stop offset="0.69" stop-color="#4c0600"/><stop offset="0.92" stop-color="#140200"/><stop offset="1"/></linearGradient><linearGradient id="linear-gradient-7" x1="304.97" y1="439.51" x2="304.97" y2="451.22" gradientUnits="userSpaceOnUse"><stop offset="0" stop-color="#55c8ff"/><stop offset="0.4" stop-color="#54c6fe"/><stop offset="0.54" stop-color="#51bffa"/><stop offset="0.64" stop-color="#4cb4f3"/><stop offset="0.72" stop-color="#44a3ea"/><stop offset="0.79" stop-color="#3a8ddd"/><stop offset="0.86" stop-color="#2e71cd"/><stop offset="0.91" stop-color="#1f51bb"/><stop offset="0.96" stop-color="#0e2da6"/><stop offset="1" stop-color="#000d94"/></linearGradient><linearGradient id="New_Gradient_Swatch_6" x1="305.16" y1="446.43" x2="304.44" y2="466.5" gradientTransform="translate(749.93 135.34) rotate(87.92)" gradientUnits="userSpaceOnUse"><stop offset="0" stop-color="#55c8ff"/><stop offset="0.15" stop-color="#53c4fd"/><stop offset="0.3" stop-color="#4eb9f6"/><stop offset="0.44" stop-color="#45a6eb"/><stop offset="0.59" stop-color="#398bdc"/><stop offset="0.73" stop-color="#2968c8"/><stop offset="0.87" stop-color="#163eb0"/><stop offset="1" stop-color="#000d94"/></linearGradient><linearGradient id="New_Gradient_Swatch_2-4" x1="39.91" y1="235.46" x2="138.55" y2="292.42" xlink:href="#New_Gradient_Swatch_2"/><linearGradient id="New_Gradient_Swatch_2-5" x1="129.53" y1="294.25" x2="223.72" y2="348.63" xlink:href="#New_Gradient_Swatch_2"/></defs><title>game over</title><g class="cls-1"><g id="Layer_1" data-name="Layer 1"><rect class="cls-2" x="-1" y="342" width="1602" height="558"/><rect class="cls-3" width="1600" height="342"/><polygon class="cls-4" points="529.06 518.32 368.29 520.53 207.52 522.75 286.16 394.73 364.8 266.72 446.93 392.52 529.06 518.32"/><path d="M397.82,314.71,431.3,366.3a18.83,18.83,0,0,1-2.63,1.84c-16.12,9.31-43.31-7.16-60.23-36.47-15.62-27.05-17.6-56.57-4.59-68.15Z"/><rect class="cls-5" x="372.91" y="322.62" width="7.55" height="7.55" rx="2"/><rect class="cls-5" x="382.35" y="322.62" width="11.33" height="7.55" rx="2"/><ellipse cx="856.23" cy="485.89" rx="158.89" ry="157.23" transform="translate(114.25 1132.94) rotate(-70.66)"/><path d="M964.29,496.32a105.16,105.16,0,0,0,8.79,49.48c6.33-46.08,38.92-81.6,75.6-80.78,38.82.86,67.54,42.07,64.14,92.06,3.4-50,37.62-89.81,76.44-88.94s67.54,42.07,64.14,92.06c3.4-50,37.62-89.81,76.45-88.94s67.53,42.07,64.14,92.06c-1.66,24.42-10.67,46.38-24,62.4,54.51-28.07,90.62-70.34,93.88-118.31,6-88-101-161.9-239-165S970.28,408.28,964.29,496.32Z"/><path d="M792.8,414A78.31,78.31,0,0,1,761,441.93c18.48-34.46,11.38-77.09-17.29-97.83-30.34-22-73.36-11.07-96.08,24.3,22.72-35.37,16.54-81.83-13.8-103.78s-73.36-11.07-96.09,24.3c22.73-35.37,16.55-81.83-13.8-103.78s-73.36-11.07-96.08,24.3A85.26,85.26,0,0,0,414.64,265c-27.76-50.38-34.16-99.56-12.35-133.5C442.31,69.23,562.17,82,670,160S832.82,351.68,792.8,414Z"/><ellipse class="cls-6" cx="837.17" cy="395.29" rx="91.15" ry="49.61" transform="translate(-65.09 187.85) rotate(-12.33)"/><path class="cls-5" d="M716.48,465.09v-8.91a10.12,10.12,0,0,0-.08-1.29,6.45,6.45,0,0,0-.28-1.31,3.44,3.44,0,0,0-.53-1,1,1,0,0,0-.81-.42h-.43a2.11,2.11,0,0,0-.68.14,3.2,3.2,0,0,0-.72.4,2.67,2.67,0,0,0-.63.58,1.49,1.49,0,0,0-.32.74v3.45h-.35s-.06-.09-.11-.26-.12-.4-.19-.65-.14-.52-.2-.79-.1-.48-.12-.64a6.82,6.82,0,0,0-.29-1.14c-.13-.39-.27-.79-.4-1.19s-.25-.78-.35-1.16a4.19,4.19,0,0,1-.15-1.08l.27,0a2,2,0,0,0,.28.13l.45.16a3.94,3.94,0,0,0,.49.14,2.28,2.28,0,0,0,.4.05c1.08.07,2.12.13,3.13.16s2,.06,3,.06q3.21,0,6.78-.24a1.68,1.68,0,0,0,.4-.06,3.92,3.92,0,0,0,.49-.13l.45-.17a1.25,1.25,0,0,0,.28-.13l.27,0a6.52,6.52,0,0,1-.12,1.16c-.08.43-.17.87-.27,1.33s-.2.91-.31,1.35-.19.85-.25,1.21a3.59,3.59,0,0,1-.12.64c-.06.27-.13.53-.2.79s-.13.46-.19.64-.09.27-.11.27h-.35l-.32-3.94a1.35,1.35,0,0,0-.28-.74,2.74,2.74,0,0,0-.6-.58,3.19,3.19,0,0,0-.73-.39,1.91,1.91,0,0,0-.66-.15h-.27l-.16,0a1,1,0,0,0-.86.46,3.15,3.15,0,0,0-.5,1.14,9.46,9.46,0,0,0-.25,1.46c0,.51-.07,1-.07,1.39v8.53a7.86,7.86,0,0,0,.21,2,6.21,6.21,0,0,0,.48,1.37,3.7,3.7,0,0,0,.62.91,3.85,3.85,0,0,0,.61.5v.27c-.63-.06-1.26-.1-1.9-.14s-1.28-.05-1.93-.05-1.31,0-2,.07l-2,.15v-.28c.16-.1.37-.23.64-.37a2.9,2.9,0,0,0,.79-.69,4.63,4.63,0,0,0,.67-1.34A8.1,8.1,0,0,0,716.48,465.09Z"/><path class="cls-5" d="M738.24,454.73v4.69c0,.18,0,.3.14.35a1.08,1.08,0,0,0,.21.11,2.57,2.57,0,0,1,1,.27l.85.25.7.18c.23.06.45.1.68.14a4.45,4.45,0,0,0,.77,0,4.91,4.91,0,0,0,.62,0,2.29,2.29,0,0,0,.65-.16,1.9,1.9,0,0,0,.5-.3.59.59,0,0,0,.2-.47v-5.61a6,6,0,0,0-.19-.79,3.34,3.34,0,0,0-.38-.81,2.58,2.58,0,0,0-.58-.65,1.33,1.33,0,0,0-.77-.29v-.49a17.68,17.68,0,0,0,1.92.27c.61.06,1.2.08,1.75.08s1.33,0,2-.09,1.37-.15,2.14-.26v.38a4.71,4.71,0,0,0-1.35,1.08,4,4,0,0,0-.71,1.3,6,6,0,0,0-.28,1.53c0,.56-.06,1.17-.06,1.81v7.35a9.66,9.66,0,0,0,.27,2.56,4.6,4.6,0,0,0,.66,1.47,2.51,2.51,0,0,0,.8.75l.67.37V470a4.08,4.08,0,0,0-1.08-.1,20.54,20.54,0,0,0-2.06.12,25.09,25.09,0,0,1-2.55.12l-1,0a10,10,0,0,1-1.07-.11v-.27a1.28,1.28,0,0,0,.78-.31,2.66,2.66,0,0,0,.61-.68,3.47,3.47,0,0,0,.39-.88,3.27,3.27,0,0,0,.14-.88v-3.35a1.81,1.81,0,0,0-.06-.58c0-.1-.07-.15-.1-.15a.43.43,0,0,0-.29.15,3.11,3.11,0,0,0-.29.33l-.27.32q-.12.15-.18.15a.49.49,0,0,1-.22.08.29.29,0,0,1-.21-.08,7.39,7.39,0,0,0-1.73-1.39,15.77,15.77,0,0,0-1.62-.83l-.67-.28a4.57,4.57,0,0,0-.71-.2V467a1.82,1.82,0,0,0,.21.82,4.35,4.35,0,0,0,.48.8,5.06,5.06,0,0,0,.62.68,4.45,4.45,0,0,0,.61.45V470c-.63,0-1.27-.12-1.93-.2a16.24,16.24,0,0,0-2-.12,15.79,15.79,0,0,0-1.94.12c-.65.08-1.31.15-2,.2v-.27l.67-.37a2.49,2.49,0,0,0,.79-.75,5.08,5.08,0,0,0,.66-1.47,9.2,9.2,0,0,0,.28-2.56v-3.94a7.61,7.61,0,0,0-.86.06,9.69,9.69,0,0,0-1.22.26v-.32a3.76,3.76,0,0,1,.8-.38,5.91,5.91,0,0,1,1.06-.3.26.26,0,0,0,.22-.27v-.19l0,0v-2.19c0-1,0-1.93-.09-2.66a2.87,2.87,0,0,0-.47-1.55l-.22-.27-.35-.41-.36-.4-.23-.24v-.38l1.75-.08q.81-.06,1.59-.06a2.61,2.61,0,0,0-1-.21c-.44,0-.89-.06-1.34-.06h-.84a6.87,6.87,0,0,0-3.06.72,8.86,8.86,0,0,0-2.62,2,10.56,10.56,0,0,0-1.88,2.87,9.92,9.92,0,0,0-.83,3.44,10.94,10.94,0,0,1-.15-1.09c0-.35,0-.7,0-1a9.64,9.64,0,0,1,.69-3,10.1,10.1,0,0,1,1.56-2.62,10.22,10.22,0,0,1,2.39-2.07,11.36,11.36,0,0,1,3.19-1.38l.69,0h.66a12.53,12.53,0,0,1,2.05.14,8.42,8.42,0,0,1,1.63.44,5.39,5.39,0,0,1,1.38.74c.42.3.86.66,1.31,1.05l0,.41a2.32,2.32,0,0,0-1,.46,2.17,2.17,0,0,0-.6.75,2.89,2.89,0,0,0-.25,1A8.51,8.51,0,0,0,738.24,454.73Z"/><path class="cls-5" d="M765.73,467.23l-.86,1.94a1.91,1.91,0,0,0-.18.45l-.27.82c-.1.31-.2.62-.31.94a7.2,7.2,0,0,1-.32.81h-.33a5.13,5.13,0,0,0,.08-.89,2.91,2.91,0,0,0-.12-.85.49.49,0,0,0-.5-.39h-9.61c-1.08,0-2,0-2.84-.07v-.38c0-.11.19-.19.56-.25s.77-.16,1.21-.27a5.35,5.35,0,0,0,1.26-.53,1.34,1.34,0,0,0,.67-1.05v-6.21c0-.08-.1-.11-.29-.11a4,4,0,0,0-.54.05l-.64.11-.54.11-.25.05.4-1.29a.64.64,0,0,1,.32-.27,5.93,5.93,0,0,1,.61-.25,6.28,6.28,0,0,1,.65-.17,2.14,2.14,0,0,1,.45-.07l-.17-3.11a13.77,13.77,0,0,0-.19-1.66,3.82,3.82,0,0,0-.81-1.63,1.75,1.75,0,0,0-.35-.31l-.63-.5c-.23-.18-.44-.35-.65-.5a3.84,3.84,0,0,1-.36-.28v-.38c.86.07,1.72.13,2.59.16s1.75.06,2.67.06,1.95,0,2.92-.06,2-.09,3-.16a2.38,2.38,0,0,0,.41-.05,4.34,4.34,0,0,0,.48-.14l.45-.16a1.76,1.76,0,0,0,.28-.14l.27,0a3.64,3.64,0,0,1-.13,1q-.14.47-.33,1l-.36,1a5.86,5.86,0,0,0-.26,1,3.37,3.37,0,0,1-.2.72c-.12.31-.24.62-.38.93s-.26.57-.38.79-.18.34-.2.34h-.35l.35-3.94v-.24c0-.42-.16-.67-.49-.75a8.63,8.63,0,0,0-1.64-.15h-1.33a.6.6,0,0,0-.54.42,4.23,4.23,0,0,0-.27,1q-.07.63-.09,1.35c0,.49,0,.94,0,1.35v2.95c0,.05.23.1.71.13l1.7.11,2,.13c.69.06,1.25.12,1.69.19l.48.57c0,.11-.08.21-.26.3a3.12,3.12,0,0,1-.62.23l-.76.16c-.28,0-.51.08-.71.09a.93.93,0,0,1-.29,0h-.33l-1.12,0-1.31,0h-1.13V464c0,.32.07.73.12,1.21s.09,1,.13,1.42.09.86.13,1.19a1.56,1.56,0,0,0,.08.5.4.4,0,0,0,.27.28,1.79,1.79,0,0,0,.52.14c.21,0,.42,0,.64.05l.59,0,1,0a8.34,8.34,0,0,0,1.4-.19,7,7,0,0,0,1.5-.5,4.13,4.13,0,0,0,1.31-.93h.27Z"/><path class="cls-5" d="M787,472.22h-.33l-.27-4.1q0-1.14,0-1.89c0-.51,0-1-.08-1.33s-.07-.71-.12-1-.09-.62-.15-1a11.66,11.66,0,0,0,.85-1.23c.21-.35.41-.74.61-1.15l.35,0,.08,1.46a6.75,6.75,0,0,1,0,.72c0,.28-.08.67-.17,1.17a4.6,4.6,0,0,0-.08.89c0,.24,0,.46,0,.66s0,.41,0,.61c0,.42,0,.77,0,1.07s0,.52,0,.66,0,.34,0,.54a2.38,2.38,0,0,0,.16.58,1.12,1.12,0,0,0,.36.47.88.88,0,0,0,.6.19,5.83,5.83,0,0,0,2-.36,5.46,5.46,0,0,0,1.71-1,5,5,0,0,0,1.19-1.58,4.53,4.53,0,0,0,.45-2,2.48,2.48,0,0,0-.37-1.3,5,5,0,0,0-1-1.13,13.28,13.28,0,0,0-1.35-1.08c-.5-.36-1-.75-1.56-1.16s-1.08-.87-1.61-1.37a9.65,9.65,0,0,1-1.44-1.71,3.49,3.49,0,0,1-.33-.8,4.12,4.12,0,0,1-.08-.88,3.33,3.33,0,0,1,.65-2.18,3.84,3.84,0,0,1,1.66-1.17,8.41,8.41,0,0,1,2.21-.47q1.2-.09,2.31-.12c.74,0,1.39-.05,2-.11a1.65,1.65,0,0,0,1.15-.43h.29c.06,0,.08.07.08.22a4.26,4.26,0,0,1-.09.74c-.06.31-.14.65-.23,1l-.26,1c-.08.33-.14.58-.17.76s-.07.4-.11.67-.07.54-.11.8-.07.48-.11.67-.18.29-.43.29l0-.22c-.06-.43-.13-.91-.21-1.43a6.15,6.15,0,0,0-.4-1.46,3.13,3.13,0,0,0-.78-1.12,1.93,1.93,0,0,0-1.34-.44,2.74,2.74,0,0,0-1.74.43,2.07,2.07,0,0,0-.53,1.65A3,3,0,0,0,791,456a8.56,8.56,0,0,0,1.5,1.59,22.62,22.62,0,0,0,1.95,1.49,18.39,18.39,0,0,1,2,1.51,9,9,0,0,1,1.5,1.68,3.45,3.45,0,0,1,.61,2,3.23,3.23,0,0,1-.75,2.12,7.86,7.86,0,0,1-1.87,1.62,15.48,15.48,0,0,1-2.51,1.26c-.92.37-1.81.72-2.66,1s-1.62.64-2.3.95A3.74,3.74,0,0,0,787,472.22Z"/><path class="cls-5" d="M806.23,449c.5-.07,1-.12,1.41-.14s.87,0,1.29,0a11.63,11.63,0,0,1,3.82.55,15,15,0,0,1,2.85,1.33v.3a2.52,2.52,0,0,0-1.17.5,2.58,2.58,0,0,0-.66.87,4.1,4.1,0,0,0-.31,1.08,8.86,8.86,0,0,0-.08,1.14v9.51a7,7,0,0,0,.16,1.5,3.34,3.34,0,0,0,.52,1.18,2.53,2.53,0,0,0,.89.8,2.62,2.62,0,0,0,1.29.3,6.53,6.53,0,0,0,1.46-.18,6.32,6.32,0,0,0,1.46-.52,4.28,4.28,0,0,0,1.16-.88,2.5,2.5,0,0,0,.62-1.26V453.38a2.6,2.6,0,0,0-.13-.92,1.61,1.61,0,0,0-.37-.58,2,2,0,0,0-.52-.39l-.63-.36v-.37l.38,0h1.19a.78.78,0,0,0,.22,0h.7c.63,0,1.25,0,1.86-.08s1.26-.1,2-.14v.27a6.24,6.24,0,0,0-.83.28,3.44,3.44,0,0,0-.92.63,3.38,3.38,0,0,0-.75,1.1,4.13,4.13,0,0,0-.31,1.72v12a2.33,2.33,0,0,0,.31,1.37,1.91,1.91,0,0,0,.74.62,3.56,3.56,0,0,0,.91.28,1.55,1.55,0,0,1,.76.32v.36l-1.9.25a13.86,13.86,0,0,0-1.9.37c-.31.09-.53.15-.65.2l-.31.11-.3.1-.63.23,0-.35a5,5,0,0,1,.76-.56,5.77,5.77,0,0,0,.89-.71,4.48,4.48,0,0,0-.07-.62.83.83,0,0,0-.2-.48,16.85,16.85,0,0,1-3.26,1.43,10.41,10.41,0,0,1-3.11.51,6.09,6.09,0,0,1-1.95-.3,4,4,0,0,1-1.54-.91,4.4,4.4,0,0,1-1-1.62,6.74,6.74,0,0,1-.38-2.43v-8.86a7.46,7.46,0,0,0-.2-1.62,6.47,6.47,0,0,0-.6-1.58,4.05,4.05,0,0,0-1-1.19,2,2,0,0,0-1.29-.47,6.61,6.61,0,0,0-3,.73,8.49,8.49,0,0,0-2.55,2,10.23,10.23,0,0,0-1.8,2.89,10.51,10.51,0,0,0-.79,3.48,7.3,7.3,0,0,1-.15-1.09c0-.35,0-.7,0-1a9.67,9.67,0,0,1,.65-2.86,9.18,9.18,0,0,1,1.51-2.55A10.71,10.71,0,0,1,803,450.5,13.05,13.05,0,0,1,806.23,449Z"/><path class="cls-5" d="M848,472l-.38,0c-.2,0-.37-.14-.52-.43a5.24,5.24,0,0,1-.37-1c-.11-.37-.22-.74-.33-1.09a1.71,1.71,0,0,0-.35-.71,24.07,24.07,0,0,0-1.93-3.07c-.71-1-1.44-1.92-2.2-2.86L839.68,460a34.65,34.65,0,0,1-2.08-2.95h-.19v9.05a3.9,3.9,0,0,0,.27,1.54,3.65,3.65,0,0,0,.65,1,3.4,3.4,0,0,0,.77.64l.66.36v.41a28.75,28.75,0,0,0-3.08-.16,25,25,0,0,0-2.83.16v-.41c0-.07.1-.16.31-.28a4,4,0,0,0,.69-.54,3.56,3.56,0,0,0,.69-1,4.15,4.15,0,0,0,.31-1.73V453.83a3.31,3.31,0,0,0-.54-2.06,2.35,2.35,0,0,0-1.95-.69,5.55,5.55,0,0,0-2.83.77,8.38,8.38,0,0,0-2.35,2,10.36,10.36,0,0,0-1.66,2.86,10.53,10.53,0,0,0-.74,3.3,7.12,7.12,0,0,1-.15-1.09c0-.35,0-.7,0-1a9.92,9.92,0,0,1,.68-3,10.13,10.13,0,0,1,1.57-2.62,10,10,0,0,1,2.39-2.07,11.36,11.36,0,0,1,3.19-1.38l.68,0h.67a14.62,14.62,0,0,1,3.8.45,11.91,11.91,0,0,1,3.14,1.38V451a.87.87,0,0,0-.92.56,3.51,3.51,0,0,0-.22,1.3,3.13,3.13,0,0,0,.31,1.25,12.8,12.8,0,0,0,.81,1.53q.49.81,1.11,1.65c.4.55.8,1.09,1.2,1.59l1.12,1.4.85,1.06h.24v-7.62a2.64,2.64,0,0,0-.13-.92,1.65,1.65,0,0,0-.37-.58,2.28,2.28,0,0,0-.52-.39c-.2-.11-.41-.22-.62-.35v-.38l.38,0,.4,0h.78a.86.86,0,0,0,.22,0h.7c.63,0,1.25,0,1.86-.08s1.26-.1,2-.13v.27a5.14,5.14,0,0,0-.84.28,3.28,3.28,0,0,0-.93.62,3.63,3.63,0,0,0-.77,1.11,4,4,0,0,0-.32,1.71Z"/><path class="cls-5" d="M882.23,455.54v4a4.66,4.66,0,0,0,1.54-.28,7.46,7.46,0,0,0,1.55-.77,8,8,0,0,0,1.34-1.12,4.81,4.81,0,0,0,.89-1.34,3,3,0,0,0,.29-1.29,2.18,2.18,0,0,0-.5-1.42,6.08,6.08,0,0,0-1.63-1.34,4.41,4.41,0,0,0-1.61-.63,8.87,8.87,0,0,0-1.74-.18h-2.29a6.57,6.57,0,0,0-3,.73,8.36,8.36,0,0,0-2.51,2,9.8,9.8,0,0,0-1.72,2.89,9.28,9.28,0,0,0-.65,3.48h-.27a10.94,10.94,0,0,1-.15-1.09c0-.35,0-.7,0-1a10,10,0,0,1,.94-3.62,9.84,9.84,0,0,1,2.18-3,10.47,10.47,0,0,1,3.2-2,10.61,10.61,0,0,1,4-.74h1l.29,0a17.39,17.39,0,0,1,3.12.45,11.85,11.85,0,0,1,2.8,1,6.28,6.28,0,0,1,2,1.61,3.39,3.39,0,0,1,.79,2.2,3,3,0,0,1-.31,1.2,6.28,6.28,0,0,1-.88,1.34,11.07,11.07,0,0,1-1.33,1.32,10.74,10.74,0,0,1-1.64,1.16H888a3.13,3.13,0,0,1,2.33.74,2.67,2.67,0,0,1,.7,1.88,5.73,5.73,0,0,1-.69,2.56,9.82,9.82,0,0,1-1.91,2.6,11,11,0,0,1-2.86,2.05,8.51,8.51,0,0,1-3.59.91,4.29,4.29,0,0,0-1,.65,6.79,6.79,0,0,0-.82.88,6,6,0,0,0-.61,1,5.21,5.21,0,0,0-.35.93l-.48.33V470a4,4,0,0,0-.6-.19c-.4-.1-.83-.23-1.31-.37s-.91-.3-1.31-.47-.59-.33-.59-.48l0-.35c0,.11.21.2.5.27a10.32,10.32,0,0,0,1,.18c.39,0,.79.08,1.22.1s.77,0,1,0c0-.62.06-1.22.09-1.83s0-1.2,0-1.79,0-1.3,0-1.95l-.09-1.94a1.35,1.35,0,0,1-.4-.19l-.52-.36a4.25,4.25,0,0,1-.5-.44,1.07,1.07,0,0,1-.29-.39l0-.27a5.66,5.66,0,0,1,.76.16,2.8,2.8,0,0,0,.89.11l.19-2.4a11.88,11.88,0,0,0-.14-1.39,4.87,4.87,0,0,0-.36-1.23,4,4,0,0,0-.7-1.05,4.5,4.5,0,0,0-1.18-.89v-.38l.38,0h1.19c1,0,2.06,0,3-.07s2-.1,2.94-.17v.46a1.26,1.26,0,0,0-.66.3,2.82,2.82,0,0,0-.61.67,3.78,3.78,0,0,0-.43.88A2.65,2.65,0,0,0,882.23,455.54Zm0,12.82-2.19.7a8.57,8.57,0,0,0,2.9-.7,10.16,10.16,0,0,0,2.39-1.43,7,7,0,0,0,1.62-1.82,3.66,3.66,0,0,0,.6-1.88,2.08,2.08,0,0,0-.29-1.08,2.63,2.63,0,0,0-.71-.81,3.38,3.38,0,0,0-1-.5,3.1,3.1,0,0,0-1-.17,1.88,1.88,0,0,0-.84.16,15.2,15.2,0,0,1-1.51.32c0,.61-.06,1.22-.08,1.82s0,1.2,0,1.8,0,1.21,0,1.81S882.19,467.77,882.23,468.36Z"/><path class="cls-5" d="M899.78,449c.5-.07,1-.12,1.42-.14s.86,0,1.28,0a11.59,11.59,0,0,1,3.82.55,15,15,0,0,1,2.85,1.33v.3a2.43,2.43,0,0,0-1.16.5,2.34,2.34,0,0,0-.66.87,3.77,3.77,0,0,0-.32,1.08,8.86,8.86,0,0,0-.08,1.14v9.51a6.44,6.44,0,0,0,.17,1.5,3.16,3.16,0,0,0,.51,1.18,2.53,2.53,0,0,0,.89.8,2.62,2.62,0,0,0,1.29.3,6.47,6.47,0,0,0,1.46-.18,6.16,6.16,0,0,0,1.46-.52,4.28,4.28,0,0,0,1.16-.88,2.42,2.42,0,0,0,.62-1.26V453.38a2.6,2.6,0,0,0-.13-.92,1.49,1.49,0,0,0-.37-.58,1.82,1.82,0,0,0-.52-.39l-.62-.36v-.37l.37,0h1.19a.83.83,0,0,0,.22,0h.7c.63,0,1.25,0,1.86-.08s1.26-.1,1.95-.14v.27a6.24,6.24,0,0,0-.83.28,3.25,3.25,0,0,0-.91.63,3.4,3.4,0,0,0-.76,1.1,4.13,4.13,0,0,0-.31,1.72v12a2.33,2.33,0,0,0,.31,1.37,2,2,0,0,0,.74.62,3.56,3.56,0,0,0,.91.28,1.63,1.63,0,0,1,.77.32v.36l-1.91.25a13.86,13.86,0,0,0-1.9.37l-.65.2-.31.11-.3.1a6.57,6.57,0,0,1-.63.23l0-.35a5.53,5.53,0,0,1,.76-.56,5.32,5.32,0,0,0,.89-.71,3.33,3.33,0,0,0-.07-.62.77.77,0,0,0-.2-.48,17,17,0,0,1-3.25,1.43,10.48,10.48,0,0,1-3.12.51,6.13,6.13,0,0,1-2-.3,4.06,4.06,0,0,1-1.54-.91,4.4,4.4,0,0,1-1-1.62,7,7,0,0,1-.38-2.43v-8.86a7.46,7.46,0,0,0-.2-1.62,6.47,6.47,0,0,0-.6-1.58,4.19,4.19,0,0,0-.95-1.19,2,2,0,0,0-1.3-.47,6.61,6.61,0,0,0-3,.73,8.49,8.49,0,0,0-2.55,2,10.23,10.23,0,0,0-1.8,2.89,10.76,10.76,0,0,0-.79,3.48c-.07-.38-.12-.74-.15-1.09s0-.7,0-1a9.67,9.67,0,0,1,.65-2.86,9.18,9.18,0,0,1,1.51-2.55,11,11,0,0,1,2.36-2.11A13.05,13.05,0,0,1,899.78,449Z"/><path class="cls-5" d="M934,455v0a3.83,3.83,0,0,0-.51-2.14,3.14,3.14,0,0,0-1.35-1.12,5.76,5.76,0,0,0-1.87-.43c-.7,0-1.4-.07-2.1-.07l-.32,0h-.3a6.5,6.5,0,0,0-3,.73,8.09,8.09,0,0,0-2.51,2,9.83,9.83,0,0,0-1.73,2.89,9.48,9.48,0,0,0-.65,3.48h-.27c-.07-.38-.12-.74-.15-1.09s0-.7,0-1a10,10,0,0,1,.95-3.62,9.81,9.81,0,0,1,2.17-3,10.22,10.22,0,0,1,3.2-2,10.47,10.47,0,0,1,4-.74h.94l.3,0a16.63,16.63,0,0,1,2.66.3,5.6,5.6,0,0,1,2.12.86,4.16,4.16,0,0,1,1.39,1.75,7.46,7.46,0,0,1,.5,2.95,4.2,4.2,0,0,1-.84,2.63,7.67,7.67,0,0,1-2.21,1.9.2.2,0,0,0-.06.14l.81.92L939,470.74V471a3.92,3.92,0,0,0,.42,1.67c.27.59.57,1.19.87,1.78l0,.3a2,2,0,0,1-.92-.5,8.2,8.2,0,0,1-1-1c-.33-.4-.67-.86-1-1.36s-.66-1-1-1.51-.57-1-.82-1.45-.47-.86-.65-1.2l-.14-.2-.29-.46c-.15-.22-.36-.56-.65-1l-1.19-1.84a3.2,3.2,0,0,1-.34-.59c-.13-.29-.27-.6-.4-.92s-.27-.63-.39-.92-.22-.49-.27-.62l-.25,0h-.24a2.34,2.34,0,0,0-.85.13,1.71,1.71,0,0,1-.42.14l.38,5.78a3,3,0,0,0,.2,1.18,2.69,2.69,0,0,0,.49.76,2.48,2.48,0,0,0,.62.47l.61.34v.27l-1.91-.14c-.63,0-1.28,0-1.93,0a4.5,4.5,0,0,0-1.08.15c-.39.1-.8.21-1.21.34l-1.22.35a5.91,5.91,0,0,1-1.1.19v-.27l.08-.06a7.08,7.08,0,0,0,.79-.54,4.45,4.45,0,0,0,1-1.06,7,7,0,0,0,.84-1.76,8.54,8.54,0,0,0,.35-2.61v-3.18a1.94,1.94,0,0,1-1.43-.76v-.32h1.43v-1.78c0-.65,0-1.25-.06-1.81a6.11,6.11,0,0,0-.28-1.54,4,4,0,0,0-.71-1.3,5,5,0,0,0-1.36-1.08v-.37l.38,0h1.19c1,0,2.06,0,3-.07s2-.1,2.94-.17v.45a1.14,1.14,0,0,0-.63.3,2.69,2.69,0,0,0-.55.68,3.38,3.38,0,0,0-.38.87,3.27,3.27,0,0,0-.14.88l-.35,4.59a11.14,11.14,0,0,0,1.34-.61,6.89,6.89,0,0,0,1.47-1,5.58,5.58,0,0,0,1.19-1.48A4.12,4.12,0,0,0,934,455Z"/><path class="cls-5" d="M961.42,472l-.38,0c-.2,0-.37-.14-.51-.43a5.23,5.23,0,0,1-.38-1l-.32-1.09a1.84,1.84,0,0,0-.35-.71,24.13,24.13,0,0,0-1.94-3.07c-.71-1-1.44-1.92-2.2-2.86L953.1,460c-.73-.94-1.43-1.92-2.08-2.95h-.18v9.05a3.9,3.9,0,0,0,.27,1.54,3.49,3.49,0,0,0,1.41,1.66l.66.36v.41a28.7,28.7,0,0,0-3.07-.16,25.22,25.22,0,0,0-2.84.16v-.41c0-.07.11-.16.31-.28a3.65,3.65,0,0,0,.69-.54,3.56,3.56,0,0,0,.69-1,4,4,0,0,0,.31-1.73V453.83a3.31,3.31,0,0,0-.54-2.06,2.34,2.34,0,0,0-1.94-.69,5.58,5.58,0,0,0-2.84.77,8.66,8.66,0,0,0-2.35,2,10.62,10.62,0,0,0-1.66,2.86,10.82,10.82,0,0,0-.74,3.3,10.94,10.94,0,0,1-.15-1.09c0-.35,0-.7,0-1a9.64,9.64,0,0,1,.69-3,10.1,10.1,0,0,1,1.56-2.62,10.22,10.22,0,0,1,2.39-2.07,11.36,11.36,0,0,1,3.19-1.38l.69,0h.66a14.75,14.75,0,0,1,3.81.45,11.85,11.85,0,0,1,3.13,1.38V451a.87.87,0,0,0-.92.56,3.73,3.73,0,0,0-.21,1.3,3.13,3.13,0,0,0,.31,1.25,10.43,10.43,0,0,0,.81,1.53c.33.54.7,1.09,1.1,1.65s.81,1.09,1.2,1.59l1.12,1.4.85,1.06h.25v-7.62a2.62,2.62,0,0,0-.14-.92,1.78,1.78,0,0,0-.36-.58,2.34,2.34,0,0,0-.53-.39l-.62-.35v-.38l.38,0,.4,0h.79a.75.75,0,0,0,.21,0h.7c.63,0,1.26,0,1.87-.08s1.26-.1,1.94-.13v.27a5.85,5.85,0,0,0-.84.28,3.28,3.28,0,0,0-.93.62,3.82,3.82,0,0,0-.77,1.11,4.11,4.11,0,0,0-.32,1.71Z"/><path class="cls-5" d="M979.54,467.23l-.87,1.94a2.9,2.9,0,0,0-.17.45l-.27.82c-.1.31-.21.62-.31.94a5.59,5.59,0,0,1-.33.81h-.32a6.34,6.34,0,0,0,.08-.89,2.91,2.91,0,0,0-.12-.85.49.49,0,0,0-.5-.39h-9.61c-1.08,0-2,0-2.84-.07v-.38c0-.11.19-.19.55-.25s.78-.16,1.22-.27a5.35,5.35,0,0,0,1.26-.53,1.34,1.34,0,0,0,.67-1.05v-6.21c0-.08-.1-.11-.3-.11a4.31,4.31,0,0,0-.54.05l-.63.11-.54.11-.26.05.41-1.29c0-.09.14-.18.32-.27a5.13,5.13,0,0,1,.61-.25,5.68,5.68,0,0,1,.65-.17,2,2,0,0,1,.44-.07l-.16-3.11a16.14,16.14,0,0,0-.19-1.66,3.82,3.82,0,0,0-.81-1.63,1.75,1.75,0,0,0-.35-.31l-.63-.5-.65-.5-.37-.28v-.38c.87.07,1.73.13,2.6.16s1.75.06,2.67.06,1.94,0,2.91-.06,2-.09,3-.16a2.28,2.28,0,0,0,.4-.05,4.5,4.5,0,0,0,.49-.14l.44-.16a2,2,0,0,0,.29-.14l.27,0a3.64,3.64,0,0,1-.14,1c-.09.31-.19.63-.32,1s-.25.65-.37,1a5.85,5.85,0,0,0-.25,1,4.11,4.11,0,0,1-.2.72c-.12.31-.25.62-.38.93s-.26.57-.38.79a1.83,1.83,0,0,1-.2.34h-.35l.35-3.94v-.24c0-.42-.17-.67-.49-.75a8.67,8.67,0,0,0-1.65-.15h-1.32a.6.6,0,0,0-.54.42,3.83,3.83,0,0,0-.27,1q-.08.63-.09,1.35c0,.49,0,.94,0,1.35v2.95c0,.05.24.1.72.13l1.7.11,2,.13c.7.06,1.26.12,1.69.19l.49.57c0,.11-.09.21-.26.3a3.38,3.38,0,0,1-.62.23c-.24.06-.5.11-.77.16s-.5.08-.7.09a1,1,0,0,1-.3,0h-.32l-1.12,0-1.31,0h-1.14V464c0,.32.08.73.13,1.21s.09,1,.13,1.42.09.86.12,1.19a2.89,2.89,0,0,0,.08.5.44.44,0,0,0,.27.28,1.86,1.86,0,0,0,.53.14c.21,0,.42,0,.63.05l.6,0,1,0a8.45,8.45,0,0,0,1.41-.19,7.34,7.34,0,0,0,1.5-.5,4.13,4.13,0,0,0,1.31-.93h.27Z"/><path class="cls-5" d="M979.75,463.09a2.52,2.52,0,0,1-.17-.72,6.56,6.56,0,0,1,0-.76,4.79,4.79,0,0,1,0-.55l.06-.5A12.46,12.46,0,0,1,981,455.9a14.09,14.09,0,0,1,2.8-3.73,13.08,13.08,0,0,1,3.69-2.48,10,10,0,0,1,4.11-.9,12.3,12.3,0,0,1,4,.62,9.43,9.43,0,0,1,3.06,1.66,7.38,7.38,0,0,1,1.93,2.35,5.76,5.76,0,0,1,.68,2.68,18.47,18.47,0,0,1-.55,4.36,13.59,13.59,0,0,1-1.79,4.13,12.25,12.25,0,0,1-3.16,3.31,11,11,0,0,1-4.68,1.89c-.33.09-.63.19-.92.28a2.37,2.37,0,0,0-.78.46,2.59,2.59,0,0,0-.6.84,4.81,4.81,0,0,0-.35,1.42l-.38.48v-3.34s-.1-.07-.32-.14l-.73-.25a3.82,3.82,0,0,1-.73-.36c-.21-.13-.32-.27-.32-.41l-.46-.49s.05,0,.2.07l.56.2c.21.07.44.14.68.2a2.31,2.31,0,0,0,.61.1c.31,0,.49-.08.54-.25V454.73a12.8,12.8,0,0,0-.08-1.5c0-.43-.18-.64-.38-.64h0a5.58,5.58,0,0,0-2,.76,9.41,9.41,0,0,0-1.86,1.46,12.29,12.29,0,0,0-1.61,1.94,17.28,17.28,0,0,0-1.25,2.19,11.85,11.85,0,0,0-.81,2.18A7.82,7.82,0,0,0,979.75,463.09Zm11.83,5.08-2,.92a7.9,7.9,0,0,0,3.77-1.43,9.94,9.94,0,0,0,2.59-2.82,12.62,12.62,0,0,0,1.49-3.63,17,17,0,0,0,.47-3.89,5.21,5.21,0,0,0-.49-2.28,5.35,5.35,0,0,0-1.27-1.77,5.56,5.56,0,0,0-1.81-1.14,5.64,5.64,0,0,0-2.1-.4h-.32l-.3,0Z"/><path class="cls-5" d="M721,481.21c.31,0,.62,0,.93,0l1,.1,0,.32a1.15,1.15,0,0,0-.54.57,2.49,2.49,0,0,0-.16.92,6.23,6.23,0,0,0,.26,1.64,19.94,19.94,0,0,0,.65,1.93c.26.68.56,1.36.89,2.06s.66,1.36,1,2h.27a10.66,10.66,0,0,0,.71-1.3c.21-.47.41-.94.59-1.42s.34-.94.49-1.4.27-.88.37-1.26a2.63,2.63,0,0,0,.09-.67.77.77,0,0,0-.22-.58,1.64,1.64,0,0,0-.92-.28v-.33a37.56,37.56,0,0,1,3.86-.24,6.52,6.52,0,0,1,2.11.24v.33a1.59,1.59,0,0,0-.52.16,3.76,3.76,0,0,0-.63.38,5,5,0,0,0-.67.58,3.18,3.18,0,0,0-.58.77l-4,6.85v4.89a9,9,0,0,0,.18,1.94,6.21,6.21,0,0,0,.48,1.37,4,4,0,0,0,.6.89,3.43,3.43,0,0,0,.6.5v.27c-.63-.06-1.27-.1-1.9-.14s-1.29-.05-1.94-.05-1.3,0-2,.05-1.33.08-2,.14v-.27a5.79,5.79,0,0,1,.66-.37,2.37,2.37,0,0,0,.81-.68,4.7,4.7,0,0,0,.69-1.35,7.76,7.76,0,0,0,.29-2.35v-4.84c-.09-.19-.25-.5-.47-.91l-.77-1.44-.93-1.71c-.33-.6-.66-1.19-1-1.77s-.61-1.11-.87-1.62-.47-.92-.63-1.24c0-.05.08-.13.34-.22s.55-.18.89-.27l.92-.24a2,2,0,0,0,.41-.13h0a6.73,6.73,0,0,0-3,.72,8.69,8.69,0,0,0-2.55,2,9.85,9.85,0,0,0-1.79,2.89,10.41,10.41,0,0,0-.8,3.48c-.07-.38-.12-.74-.15-1.1s0-.69,0-1a12.05,12.05,0,0,1,.67-3.25,8.74,8.74,0,0,1,1.67-2.82,7.74,7.74,0,0,1,2.74-2A9.34,9.34,0,0,1,721,481.21Z"/><path class="cls-5" d="M731.2,494.55a10.86,10.86,0,0,1,1-4.89,9.94,9.94,0,0,1,2.81-3.43,11.82,11.82,0,0,1,3.91-2.07,15.31,15.31,0,0,1,4.54-.68,10.56,10.56,0,0,1,2.94.43,8.14,8.14,0,0,1,2.51,1.41,6.85,6.85,0,0,1,1.76,2.29,7.46,7.46,0,0,1,.65,3.24,14.08,14.08,0,0,1-.41,3.43,12.06,12.06,0,0,1-1.29,3.16,11.17,11.17,0,0,1-2.25,2.62,9.33,9.33,0,0,1-3.21,1.75,5,5,0,0,0-1.35.33,4.33,4.33,0,0,1-.92.29,6.21,6.21,0,0,1-1.43.1c-.61,0-1.55-.1-2.83-.26a9.56,9.56,0,0,1-2.54-.78,5.87,5.87,0,0,1-2-1.46,6.31,6.31,0,0,1-1.38-2.29A9,9,0,0,1,731.2,494.55Zm4.64.59a5.63,5.63,0,0,0,.43,2.22,5.08,5.08,0,0,0,1.14,1.7,4.79,4.79,0,0,0,1.67,1.11,5.3,5.3,0,0,0,2,.37,4.45,4.45,0,0,0,2.67-.81,6.32,6.32,0,0,0,1.84-2,10.15,10.15,0,0,0,1-2.75,15.33,15.33,0,0,0,.32-3,8.93,8.93,0,0,0-.32-2.35,6.92,6.92,0,0,0-.89-2.19,5,5,0,0,0-1.57-1.56,3.76,3.76,0,0,0-2.21-.65h0a4,4,0,0,0-2.76,1.05,8.18,8.18,0,0,0-1.88,2.57,12.83,12.83,0,0,0-1.06,3.24A15.61,15.61,0,0,0,735.84,495.14Z"/><path class="cls-5" d="M759.14,481.38a13,13,0,0,1,1.42-.15c.44,0,.87,0,1.28,0a11.59,11.59,0,0,1,3.82.55,14.41,14.41,0,0,1,2.85,1.34v.29a2.48,2.48,0,0,0-1.16.5,2.43,2.43,0,0,0-.66.87,3.75,3.75,0,0,0-.31,1.08,7.37,7.37,0,0,0-.08,1.14v9.51a6.45,6.45,0,0,0,.16,1.5,3.52,3.52,0,0,0,.51,1.18,2.53,2.53,0,0,0,2.19,1.1,6.6,6.6,0,0,0,1.46-.18,5.82,5.82,0,0,0,1.45-.52,4.49,4.49,0,0,0,1.17-.88,2.5,2.5,0,0,0,.62-1.26V485.78a2.58,2.58,0,0,0-.14-.92,1.59,1.59,0,0,0-.36-.58,2,2,0,0,0-.53-.39l-.62-.36v-.37l.38,0h1.19a.76.76,0,0,0,.21,0h.7c.63,0,1.25,0,1.87-.08s1.26-.1,1.94-.14v.27a5.14,5.14,0,0,0-.82.29,3,3,0,0,0-.92.62,3.4,3.4,0,0,0-.76,1.1,4.3,4.3,0,0,0-.31,1.72v12a2.41,2.41,0,0,0,.31,1.37,2,2,0,0,0,.75.62,3.37,3.37,0,0,0,.9.28,1.55,1.55,0,0,1,.77.33V502l-1.9.25a14,14,0,0,0-1.91.37l-.65.2-.31.11-.29.1c-.12.05-.33.13-.64.23l0-.35a4.75,4.75,0,0,1,.75-.56,5.88,5.88,0,0,0,.89-.7,4.22,4.22,0,0,0-.06-.63.83.83,0,0,0-.21-.48,16.77,16.77,0,0,1-3.25,1.43,10.48,10.48,0,0,1-3.12.51,6.31,6.31,0,0,1-1.94-.29,4.06,4.06,0,0,1-1.54-.92,4.42,4.42,0,0,1-1-1.62,7,7,0,0,1-.38-2.43v-8.86a6.89,6.89,0,0,0-.2-1.62,6.07,6.07,0,0,0-.59-1.58,4.05,4.05,0,0,0-1-1.19,2,2,0,0,0-1.3-.47,6.64,6.64,0,0,0-3,.73,8.65,8.65,0,0,0-2.55,2,10.65,10.65,0,0,0-2.59,6.37c-.07-.38-.12-.74-.15-1.09s0-.7,0-1a9.67,9.67,0,0,1,.65-2.86,9.18,9.18,0,0,1,1.51-2.55,10.77,10.77,0,0,1,2.37-2.11A12.62,12.62,0,0,1,759.14,481.38Z"/><path class="cls-5" d="M793.38,487.42v-.05a3.77,3.77,0,0,0-.51-2.13,3.09,3.09,0,0,0-1.36-1.12,5.46,5.46,0,0,0-1.87-.44c-.69,0-1.39-.06-2.09-.06a1.37,1.37,0,0,0-.33,0h-.3a6.5,6.5,0,0,0-3,.73,8.21,8.21,0,0,0-2.51,2,9.83,9.83,0,0,0-1.73,2.89,9.48,9.48,0,0,0-.65,3.48h-.27a8.8,8.8,0,0,1-.14-1.09c0-.35-.05-.7-.05-1a10,10,0,0,1,1-3.62,9.81,9.81,0,0,1,2.17-3,10.22,10.22,0,0,1,3.2-2,10.5,10.5,0,0,1,4-.74h.94l.3,0a17.86,17.86,0,0,1,2.66.3,5.54,5.54,0,0,1,2.12.86,4.06,4.06,0,0,1,1.39,1.76,7.37,7.37,0,0,1,.5,2.94,4.18,4.18,0,0,1-.84,2.63,7.54,7.54,0,0,1-2.21,1.9.2.2,0,0,0-.06.14l.82.92,3.91,10.45v.27a3.92,3.92,0,0,0,.42,1.67c.28.59.57,1.19.88,1.78l0,.3a2,2,0,0,1-.92-.5,8.17,8.17,0,0,1-1-1,16,16,0,0,1-1-1.36c-.34-.5-.66-1-1-1.51s-.57-1-.82-1.45-.47-.85-.65-1.2l-.13-.2c-.06-.08-.15-.23-.3-.46l-.65-1c-.28-.45-.68-1.06-1.19-1.84a2.78,2.78,0,0,1-.33-.59c-.14-.29-.27-.59-.41-.92s-.26-.63-.39-.92l-.27-.62-.24,0h-.24a2.36,2.36,0,0,0-.86.13,1.85,1.85,0,0,1-.41.14l.37,5.78a2.83,2.83,0,0,0,.21,1.18,2.35,2.35,0,0,0,1.1,1.23l.61.34v.27l-1.9-.14c-.64,0-1.29-.05-1.93-.05a4.37,4.37,0,0,0-1.08.15c-.4.1-.8.21-1.22.34l-1.21.35a5.38,5.38,0,0,1-1.11.19v-.27s0,0,.08-.06a8.05,8.05,0,0,0,.8-.54,4.64,4.64,0,0,0,1-1.06,6.41,6.41,0,0,0,.84-1.76,8.52,8.52,0,0,0,.35-2.6v-3.19a2,2,0,0,1-.62-.14,2,2,0,0,1-.81-.62v-.32h1.43v-1.78c0-.65,0-1.25,0-1.81a6.1,6.1,0,0,0-.29-1.54,4,4,0,0,0-.71-1.3,5.08,5.08,0,0,0-1.35-1.08V485l.38,0H785c1,0,2.06,0,3-.07s2-.1,3-.17v.46a1.06,1.06,0,0,0-.64.29,2.92,2.92,0,0,0-.55.68,3.76,3.76,0,0,0-.38.87,3.23,3.23,0,0,0-.13.88l-.35,4.59a13.59,13.59,0,0,0,1.33-.6,6.81,6.81,0,0,0,1.47-1,5.58,5.58,0,0,0,1.19-1.48A4,4,0,0,0,793.38,487.42Z"/><path class="cls-5" d="M819.52,487.29v-.06a3.79,3.79,0,0,0-.51-2.13,3.08,3.08,0,0,0-1.35-1.12,5.57,5.57,0,0,0-1.88-.43c-.69-.05-1.39-.07-2.09-.07a7.33,7.33,0,0,0-5.36,1.84,7.25,7.25,0,0,0-1.88,5.42h-.27a10.94,10.94,0,0,1-.15-1.09c0-.35,0-.7,0-1a7.15,7.15,0,0,1,.71-3.24,6.11,6.11,0,0,1,2-2.33,9.48,9.48,0,0,1,3.2-1.41,17.46,17.46,0,0,1,4.2-.47,15.75,15.75,0,0,1,2.77.23,5.4,5.4,0,0,1,2.14.85,4,4,0,0,1,1.39,1.77,7.31,7.31,0,0,1,.5,2.95,5.62,5.62,0,0,1-.69,2.64,10.55,10.55,0,0,1-1.78,2.45,13.86,13.86,0,0,1-2.48,2.06,13.55,13.55,0,0,1-2.77,1.39l.22,3.91a2.06,2.06,0,0,0,.32,1.19,2.6,2.6,0,0,0,.8.75,4.68,4.68,0,0,0,1,.48c.35.11.65.23.92.34v.26l-1.11-.06L816,502.3l-1.35,0H813.5q-.48,0-1.2.06l-1.47.16-1.47.18c-.48.05-.89.09-1.23.11v-.27l.08-.06a8,8,0,0,0,1.52-.48,3.18,3.18,0,0,0,1.18-.88,4.15,4.15,0,0,0,.75-1.55,9.8,9.8,0,0,0,.27-2.54V490.1c0-.65,0-1.21,0-1.68a4.25,4.25,0,0,0-.28-1.25,3,3,0,0,0-.72-1,6.78,6.78,0,0,0-1.35-.94v-.38l.38,0h1.19c1,0,2.06,0,3-.06s2-.11,2.94-.18v.46a1.2,1.2,0,0,0-.65.32,2.82,2.82,0,0,0-.6,1.17,12.13,12.13,0,0,0-.46,2.48,40.6,40.6,0,0,0-.18,4.29v1.33a13,13,0,0,0,3.09-3.23A7.35,7.35,0,0,0,819.52,487.29Z"/><path class="cls-5" d="M833.32,496.22a1.83,1.83,0,0,1-.22.25l-.35.35-.36.35-.26.22-.13,0h-.1a1.71,1.71,0,0,1-.38-.34,4.52,4.52,0,0,0-1-.71,8.12,8.12,0,0,0-1.22-.61l-.46-.18a.78.78,0,0,0-.27-.06.2.2,0,0,0-.19.08,1,1,0,0,0-.1.21l-.84,2.35L827,499.4c-.1.28-.15.46-.17.54a.88.88,0,0,0,0,.2,1.36,1.36,0,0,0,.47,1,3.15,3.15,0,0,0,1.31.64v.3c-.68,0-1.29,0-1.82,0s-1,.06-1.52.11l-1.49.11c-.5,0-1.06,0-1.67,0H820.9v-.24a12.69,12.69,0,0,0,1.47-.86,12.23,12.23,0,0,0,1.4-1.09A11.25,11.25,0,0,0,825,499a8.1,8.1,0,0,0,.93-1.4c.22-.54.38-1,.5-1.26l.27-.66c.06-.14.1-.23.11-.27a.25.25,0,0,0,0-.08c0-.14-.13-.23-.39-.26s-.47,0-.63,0a4.47,4.47,0,0,0-.67.06,8.33,8.33,0,0,0-1,.19v-.33a3.53,3.53,0,0,1,.49-.16l.68-.16a4.57,4.57,0,0,1,.74-.12,5.92,5.92,0,0,1,.7,0,2.15,2.15,0,0,1,.46,0c.07,0,.2-.17.38-.51s.38-.78.61-1.31.46-1.12.71-1.78.49-1.3.72-1.92l.61-1.7c.18-.51.3-.9.37-1.17a1.12,1.12,0,0,0-.26-.72,3,3,0,0,0-.67-.55,6,6,0,0,0-.78-.42c-.26-.12-.47-.22-.63-.31v-.14s.13-.05.4-.05.53,0,.89,0l1,.09.87.1.32,0a2.23,2.23,0,0,0,.54-.1l.93-.19,1.23-.18a9.18,9.18,0,0,1,1.41-.1v.19a1.52,1.52,0,0,0-.84.78,3,3,0,0,0-.3,1.38v.27a.82.82,0,0,0,0,.27q.1.78.36,2l.58,2.65c.22.94.46,1.91.72,2.89s.51,1.89.74,2.74.46,1.57.66,2.17a7.14,7.14,0,0,0,.5,1.2,4.28,4.28,0,0,0,1.19,1.34c.43.3.81.53,1.14.72v.24a17.17,17.17,0,0,1-2.22.11,9.68,9.68,0,0,0-2.13.18,1.79,1.79,0,0,1-.43,0,1,1,0,0,1-.83-.4,4.15,4.15,0,0,1-.58-1,9.07,9.07,0,0,1-.4-1.38c-.11-.5-.2-1-.29-1.48s-.16-.93-.24-1.32A3.31,3.31,0,0,0,833.32,496.22Zm-4-1.62c.25.06.47.11.65.17l.51.15a4,4,0,0,0,.5.1,3.45,3.45,0,0,0,.58,0,3.85,3.85,0,0,0,.73-.05,1.89,1.89,0,0,0,.73-.38,6.56,6.56,0,0,0-.07-.8c0-.36-.1-.79-.19-1.26s-.18-1-.29-1.48-.25-1-.38-1.41a11.81,11.81,0,0,0-.42-1.14,1.25,1.25,0,0,0-.43-.58l-2.32,6.32C828.92,494.44,829.05,494.55,829.32,494.6Z"/><path class="cls-5" d="M858.24,501.54c-.63.08-1.21.14-1.73.19a13.88,13.88,0,0,1-1.59.08h-.54l-.54,0a8.08,8.08,0,0,0-1.3-.05,7.43,7.43,0,0,1-1.32-.08c-.25,0-.55-.07-.88-.09l-1.09,0c-.76,0-1.52,0-2.3.09a20,20,0,0,0-2.05.26v-.38q0-.14.51-.27a8.48,8.48,0,0,0,1.19-.41,8,8,0,0,0,1.34-.68,2.48,2.48,0,0,0,1-1.12c.05-1.21.1-2.44.13-3.69s.06-2.37.06-3.36a40.08,40.08,0,0,0-.19-4.16,4.69,4.69,0,0,0-.7-2.32,1.31,1.31,0,0,0-.34-.26l-.62-.38-.64-.37a4.13,4.13,0,0,1-.35-.23v-.38l1.76-.08q.81-.06,1.59-.06a3.74,3.74,0,0,0-1.12-.28c-.44,0-.86-.07-1.26-.07a6.59,6.59,0,0,0-3,.73,8.52,8.52,0,0,0-2.51,2,10.2,10.2,0,0,0-1.77,2.9,10.69,10.69,0,0,0-.78,3.45,10.94,10.94,0,0,1-.15-1.09c0-.35,0-.7,0-1a9.64,9.64,0,0,1,.69-3,9.91,9.91,0,0,1,1.57-2.61,9.79,9.79,0,0,1,2.38-2.08,11.36,11.36,0,0,1,3.19-1.38l.69,0h.66a14.18,14.18,0,0,1,4.06.55,7.77,7.77,0,0,1,3.07,1.79l0,.41a3.12,3.12,0,0,0-1.56.78,3.88,3.88,0,0,0-.87,1.28,6,6,0,0,0-.4,1.49,12.3,12.3,0,0,0-.09,1.42c-.09.86-.14,1.72-.16,2.56s0,1.71,0,2.59a12.74,12.74,0,0,0,.07,1.44c0,.43.09.85.15,1.25s.11.82.17,1.26.11.91.15,1.43l-1.86.83,1.51-.21,2.59-.54a1.92,1.92,0,0,0,.47-.15,4.52,4.52,0,0,1,.5-.18l1-.13q.84-.1,1.47-.12c.42,0,.8,0,1.12-.06a2.89,2.89,0,0,0,.85-.18,2,2,0,0,0,.72-.56h.27v0a1.7,1.7,0,0,1-.31.85c-.19.28-.4.59-.62.94a8.28,8.28,0,0,0-.64,1.23,5.24,5.24,0,0,0-.35,1.73c-.05.31-.1.56-.13.76s-.08.29-.11.29h-.35v-.54c0-.21,0-.43,0-.66a4.86,4.86,0,0,0-.06-.6,1.24,1.24,0,0,0-.18-.45.36.36,0,0,0-.31-.18Z"/><path class="cls-5" d="M875.79,499.63l-.87,1.94a3.44,3.44,0,0,0-.17.45l-.27.82c-.1.31-.2.62-.31.94a5.59,5.59,0,0,1-.33.81h-.32a5,5,0,0,0,.08-.89,2.91,2.91,0,0,0-.12-.85.49.49,0,0,0-.5-.39h-9.61c-1.08,0-2,0-2.84-.07V502c0-.11.19-.19.56-.25s.77-.16,1.21-.27a5.35,5.35,0,0,0,1.26-.53,1.32,1.32,0,0,0,.67-1.05v-6.21c0-.07-.1-.11-.29-.11a4,4,0,0,0-.54.05l-.64.11-.54.11-.26,0,.41-1.29a.64.64,0,0,1,.32-.27,5.93,5.93,0,0,1,.61-.25,6.28,6.28,0,0,1,.65-.17,2.06,2.06,0,0,1,.45-.07l-.17-3.1a13.71,13.71,0,0,0-.19-1.67,3.82,3.82,0,0,0-.81-1.63,1.75,1.75,0,0,0-.35-.31l-.63-.5c-.23-.18-.44-.35-.65-.5a3.84,3.84,0,0,1-.36-.28v-.38c.86.07,1.72.13,2.59.16s1.75.06,2.67.06,2,0,2.92-.06,2-.09,3-.16a2.5,2.5,0,0,0,.41-.05,4.34,4.34,0,0,0,.48-.14l.45-.16a1.18,1.18,0,0,0,.28-.14l.27,0a3.64,3.64,0,0,1-.13,1q-.13.47-.33,1l-.36,1a5.86,5.86,0,0,0-.26,1,3.37,3.37,0,0,1-.2.72c-.12.31-.24.62-.38.93s-.26.57-.38.79-.18.34-.2.34h-.35l.35-3.94v-.24c0-.42-.16-.67-.49-.75a8,8,0,0,0-1.64-.14h-1.33a.59.59,0,0,0-.54.41,4.23,4.23,0,0,0-.27,1q-.08.63-.09,1.35c0,.49,0,.94,0,1.35v2.95c0,.05.23.1.71.13l1.7.11,2,.13c.69.06,1.25.12,1.68.19l.49.57c0,.11-.08.21-.26.3a3.12,3.12,0,0,1-.62.23c-.24.06-.5.11-.77.16s-.5.08-.7.09a.93.93,0,0,1-.29,0h-.33l-1.12,0-1.31,0H867.8v2.75c0,.32.07.73.12,1.22s.09.95.13,1.41.09.86.12,1.19a1.71,1.71,0,0,0,.09.5.4.4,0,0,0,.27.28,1.79,1.79,0,0,0,.52.14c.21,0,.42,0,.64.05l.59,0,1,0a8.34,8.34,0,0,0,1.4-.19,7.34,7.34,0,0,0,1.5-.5,4.13,4.13,0,0,0,1.31-.93h.27Z"/><path class="cls-5" d="M883.82,504.62h-.33l-.27-4.1q0-1.14,0-1.89c0-.51,0-.95-.08-1.33s-.07-.71-.12-1-.09-.62-.15-1a11.66,11.66,0,0,0,.85-1.23c.21-.35.41-.74.61-1.15l.35,0,.08,1.46a6.75,6.75,0,0,1,0,.72c0,.28-.08.67-.17,1.17a4.6,4.6,0,0,0-.08.89c0,.24,0,.46,0,.66s0,.41,0,.61c0,.42,0,.77,0,1.07s0,.52,0,.66a3.62,3.62,0,0,0,0,.54,2.38,2.38,0,0,0,.16.58,1.12,1.12,0,0,0,.36.47.88.88,0,0,0,.6.19,5.83,5.83,0,0,0,2-.36,5.46,5.46,0,0,0,1.71-1,5,5,0,0,0,1.19-1.58,4.5,4.5,0,0,0,.45-2,2.48,2.48,0,0,0-.37-1.3,5,5,0,0,0-1-1.13,13.28,13.28,0,0,0-1.35-1.08c-.5-.36-1-.75-1.56-1.16s-1.08-.87-1.61-1.37a9.31,9.31,0,0,1-1.44-1.71,3.09,3.09,0,0,1-.33-.8,4.12,4.12,0,0,1-.08-.88,3.33,3.33,0,0,1,.65-2.18,3.74,3.74,0,0,1,1.66-1.16,8,8,0,0,1,2.21-.48q1.2-.09,2.31-.12c.74,0,1.39-.05,2-.11a1.65,1.65,0,0,0,1.15-.43h.29c.06,0,.08.07.08.22a4.15,4.15,0,0,1-.09.74c-.06.31-.14.65-.23,1l-.26,1c-.08.33-.14.58-.17.76s-.07.4-.11.67-.07.54-.11.8a6.69,6.69,0,0,1-.11.67c0,.19-.18.29-.43.29l0-.22c-.06-.43-.13-.91-.21-1.43a6.15,6.15,0,0,0-.4-1.46,3,3,0,0,0-.79-1.12,1.94,1.94,0,0,0-1.33-.44,2.74,2.74,0,0,0-1.74.43,2.07,2.07,0,0,0-.53,1.65,3,3,0,0,0,.61,1.83,8.56,8.56,0,0,0,1.5,1.59,22.62,22.62,0,0,0,2,1.49,21,21,0,0,1,2,1.51,9,9,0,0,1,1.5,1.68,3.45,3.45,0,0,1,.61,2,3.23,3.23,0,0,1-.75,2.12,7.86,7.86,0,0,1-1.87,1.62,16.36,16.36,0,0,1-2.51,1.27l-2.66,1c-.86.33-1.62.64-2.3.95A3.77,3.77,0,0,0,883.82,504.62Z"/><path class="cls-5" d="M908.84,493.74v5.67a2.72,2.72,0,0,0,.21,1.17,2.46,2.46,0,0,0,1.1,1.23l.61.36v.26c-1.24-.1-2.52-.16-3.83-.16s-2.62.06-4,.16v-.26a.19.19,0,0,1,.11-.07.2.2,0,0,0,.1-.07,6.62,6.62,0,0,0,.68-.43,2.75,2.75,0,0,0,.71-.81,4.93,4.93,0,0,0,.57-1.46,10.22,10.22,0,0,0,.23-2.38v-7.83a15.06,15.06,0,0,0-.27-2.26,3.07,3.07,0,0,0-.54-1.35,1.31,1.31,0,0,0-.34-.26l-.62-.38-.63-.38a1.51,1.51,0,0,1-.35-.23v-.37c.63,0,1.21-.05,1.75-.09s1.07-.05,1.6-.05a3.46,3.46,0,0,0-1.13-.28,11,11,0,0,0-1.25-.07,6.43,6.43,0,0,0-3,.73,8.36,8.36,0,0,0-2.51,2,10.4,10.4,0,0,0-1.77,2.91,10.63,10.63,0,0,0-.78,3.45,7.3,7.3,0,0,1-.15-1.09c0-.35,0-.7,0-1a9.58,9.58,0,0,1,.69-3,9.93,9.93,0,0,1,1.56-2.62,10.49,10.49,0,0,1,2.39-2.08,11.64,11.64,0,0,1,3.19-1.37l.69,0,.66,0c.77,0,1.47,0,2.09.08a10.49,10.49,0,0,1,1.71.29,5.86,5.86,0,0,1,1.46.58,6.9,6.9,0,0,1,1.35,1l0,.4a2.41,2.41,0,0,0-1.66,1.05,4.63,4.63,0,0,0-.64,1.79v5.15c.76-.55,1.51-1.14,2.24-1.76s1.41-1.24,2-1.84a12.38,12.38,0,0,0,1.43-1.69,2.47,2.47,0,0,0,.54-1.29c0-.49-.39-.74-1.18-.76l-1.41-.27,0-.38c.86.09,1.71.16,2.55.2s1.66.07,2.47.07,1.6,0,2.39-.07,1.56-.11,2.33-.2v.38l-.46.05a3.37,3.37,0,0,0-1.1.35,11.15,11.15,0,0,0-1.83,1.1,21.12,21.12,0,0,0-2.26,1.9,22.7,22.7,0,0,0-2.45,2.76.31.31,0,0,0,.18.18l.34.17a1.91,1.91,0,0,1,.32.16.22.22,0,0,1,.13.19l4.81,11.88V503a5.44,5.44,0,0,0,.34,1.77,14.17,14.17,0,0,0,.79,1.87l0,.3a2.11,2.11,0,0,1-1-.61,13,13,0,0,1-1.16-1.29c-.4-.52-.81-1.09-1.21-1.72s-.8-1.25-1.16-1.86-.71-1.18-1-1.72-.54-1-.72-1.31a1.17,1.17,0,0,1-.12-.2l-.3-.47-.66-1c-.29-.44-.68-1.05-1.19-1.82a4.64,4.64,0,0,1-.29-.48c-.11-.19-.23-.38-.34-.59l-.34-.61a4.24,4.24,0,0,1-.24-.49l-.25,0h-.24Z"/><path class="cls-5" d="M935.36,483.56a1.29,1.29,0,0,0-1.08.6,4.74,4.74,0,0,0-.7,1.68,15.62,15.62,0,0,0-.38,2.62c-.07,1-.11,2.14-.11,3.36s0,2.34.07,3.62.11,2.6.2,4a1.9,1.9,0,0,0,.2.82,5,5,0,0,0,.49.8,4.47,4.47,0,0,0,.62.68,4.87,4.87,0,0,0,.61.46v.26l-1.91-.13c-.63,0-1.28-.05-1.93-.05s-1.3,0-2,.05l-2,.13v-.26l.25-.14a4.92,4.92,0,0,0,.63-.42,2.48,2.48,0,0,0,.64-.78,5.2,5.2,0,0,0,.48-1.42,11.44,11.44,0,0,0,.19-2.35v-8a.76.76,0,0,0,0-.21c0-.7-.09-1.35-.16-1.93a6.65,6.65,0,0,0-.35-1.53,2.62,2.62,0,0,0-.66-1,1.79,1.79,0,0,0-1.07-.43v-.38c.63,0,1.22,0,1.76-.08s1.07-.05,1.59-.05a3.4,3.4,0,0,0-1.12-.28,11.08,11.08,0,0,0-1.25-.07,6.4,6.4,0,0,0-3,.73,8.25,8.25,0,0,0-2.52,2,10.93,10.93,0,0,0-2.55,6.36c-.07-.38-.12-.74-.15-1.09s0-.7,0-1a9.58,9.58,0,0,1,.69-3,10,10,0,0,1,1.57-2.62,10.08,10.08,0,0,1,2.39-2.08,11.58,11.58,0,0,1,3.18-1.37c.24,0,.47,0,.69,0l.66,0a14.31,14.31,0,0,1,2,.12,6.06,6.06,0,0,1,1.51.41,6.56,6.56,0,0,1,1.27.71,13.43,13.43,0,0,1,1.27,1.06Z"/><path class="cls-5" d="M957.77,504.38l-.38,0c-.2,0-.37-.15-.51-.44a5.23,5.23,0,0,1-.38-1l-.32-1.09a1.7,1.7,0,0,0-.36-.71,24.07,24.07,0,0,0-1.93-3.07c-.71-1-1.44-1.92-2.2-2.86l-2.24-2.82a34.65,34.65,0,0,1-2.08-2.95h-.19v9a3.9,3.9,0,0,0,.27,1.54,3.65,3.65,0,0,0,.65,1,3.4,3.4,0,0,0,.77.64l.66.36v.41a28.7,28.7,0,0,0-3.07-.16,25.22,25.22,0,0,0-2.84.16v-.41c0-.07.1-.16.31-.28a3.65,3.65,0,0,0,.69-.54,3.56,3.56,0,0,0,.69-1,4.15,4.15,0,0,0,.31-1.73V486.23a3.31,3.31,0,0,0-.54-2.06,2.35,2.35,0,0,0-2-.69,5.57,5.57,0,0,0-2.83.77,8.52,8.52,0,0,0-2.35,2,10.62,10.62,0,0,0-1.66,2.86,10.82,10.82,0,0,0-.74,3.3,10.94,10.94,0,0,1-.15-1.09c0-.35,0-.7,0-1a9.64,9.64,0,0,1,.69-3,9.88,9.88,0,0,1,1.56-2.61,10,10,0,0,1,2.39-2.08,11.36,11.36,0,0,1,3.19-1.38l.69,0h.66a14.75,14.75,0,0,1,3.81.45,11.85,11.85,0,0,1,3.13,1.38v.33a.87.87,0,0,0-.92.56,3.73,3.73,0,0,0-.22,1.3,3.3,3.3,0,0,0,.31,1.25,12.8,12.8,0,0,0,.81,1.53q.51.81,1.11,1.65c.41.55.81,1.09,1.2,1.59l1.12,1.4.85,1.06H956v-7.62a2.62,2.62,0,0,0-.14-.92,1.78,1.78,0,0,0-.36-.58,2.59,2.59,0,0,0-.53-.39l-.62-.35v-.38a2.33,2.33,0,0,0,.38,0l.4,0h.79a.75.75,0,0,0,.21,0h.7c.63,0,1.25,0,1.87-.08s1.26-.1,1.94-.13v.27a5.85,5.85,0,0,0-.84.28,3.28,3.28,0,0,0-.93.62,3.63,3.63,0,0,0-.77,1.11,4.11,4.11,0,0,0-.32,1.71Z"/><path class="cls-5" d="M972.73,497.49v-8.91a10.12,10.12,0,0,0-.08-1.29,6.45,6.45,0,0,0-.28-1.31,3.44,3.44,0,0,0-.53-1,1,1,0,0,0-.81-.42h-.43a1.91,1.91,0,0,0-.68.15,2.81,2.81,0,0,0-.72.39,2.45,2.45,0,0,0-.62.58,1.42,1.42,0,0,0-.33.74v3.46h-.35s0-.09-.11-.27-.12-.4-.19-.65-.14-.52-.2-.78-.1-.49-.12-.65a7.86,7.86,0,0,0-.28-1.14c-.14-.39-.27-.79-.41-1.19s-.25-.78-.35-1.16a4.13,4.13,0,0,1-.15-1.08l.27,0a2.72,2.72,0,0,0,.28.13,4.72,4.72,0,0,0,.45.16,3.94,3.94,0,0,0,.49.14,2.28,2.28,0,0,0,.4.05c1.08.07,2.12.13,3.13.16s2,.06,3,.06q3.23,0,6.78-.24a1.83,1.83,0,0,0,.41-.06,4.27,4.27,0,0,0,.48-.13l.45-.17a1.25,1.25,0,0,0,.28-.13l.27,0a6.44,6.44,0,0,1-.12,1.16c-.08.43-.17.87-.27,1.33s-.2.91-.31,1.35a12.23,12.23,0,0,0-.24,1.21,5.15,5.15,0,0,1-.13.64c-.06.27-.13.53-.2.79s-.13.46-.19.64-.09.27-.11.27h-.35l-.32-3.94a1.38,1.38,0,0,0-.28-.74,3,3,0,0,0-.6-.58,3.19,3.19,0,0,0-.73-.39,1.91,1.91,0,0,0-.66-.15h-.27l-.16,0a1,1,0,0,0-.86.46,3.15,3.15,0,0,0-.5,1.14,9.46,9.46,0,0,0-.25,1.46c0,.51-.06,1-.06,1.39v8.53a7.9,7.9,0,0,0,.2,1.95,6.78,6.78,0,0,0,.48,1.37,3.5,3.5,0,0,0,1.23,1.41v.27c-.63-.06-1.26-.1-1.9-.14s-1.28-.05-1.93-.05-1.31,0-2,.07l-2,.15v-.27a6,6,0,0,1,.64-.38,2.76,2.76,0,0,0,.79-.69,4.63,4.63,0,0,0,.67-1.34A8.1,8.1,0,0,0,972.73,497.49Z"/><path class="cls-5" d="M980.81,494.55a10.86,10.86,0,0,1,1.05-4.89,9.94,9.94,0,0,1,2.81-3.43,11.82,11.82,0,0,1,3.91-2.07,15.31,15.31,0,0,1,4.54-.68,10.56,10.56,0,0,1,2.94.43,8.14,8.14,0,0,1,2.51,1.41,7,7,0,0,1,1.76,2.29,7.46,7.46,0,0,1,.64,3.24,14.08,14.08,0,0,1-.4,3.43,11.75,11.75,0,0,1-1.3,3.16,11.13,11.13,0,0,1-2.24,2.62,9.42,9.42,0,0,1-3.21,1.75,5,5,0,0,0-1.35.33,4.52,4.52,0,0,1-.92.29,6.21,6.21,0,0,1-1.43.1c-.61,0-1.56-.1-2.83-.26a9.56,9.56,0,0,1-2.54-.78,5.87,5.87,0,0,1-2-1.46,6.31,6.31,0,0,1-1.38-2.29A9,9,0,0,1,980.81,494.55Zm4.64.59a5.63,5.63,0,0,0,.43,2.22,5.08,5.08,0,0,0,1.14,1.7,4.79,4.79,0,0,0,1.67,1.11,5.3,5.3,0,0,0,2,.37,4.45,4.45,0,0,0,2.67-.81,6.32,6.32,0,0,0,1.84-2,10.15,10.15,0,0,0,1-2.75,15.33,15.33,0,0,0,.32-3,8.93,8.93,0,0,0-.32-2.35,6.72,6.72,0,0,0-.9-2.19,4.84,4.84,0,0,0-1.56-1.56,3.77,3.77,0,0,0-2.22-.65h0a4,4,0,0,0-2.76,1.05,8.36,8.36,0,0,0-1.89,2.57,13.22,13.22,0,0,0-1.05,3.24A15.61,15.61,0,0,0,985.45,495.14Z"/><path class="cls-5" d="M722.39,528.63a1.56,1.56,0,0,1-.21.24l-.35.35-.37.35a2.74,2.74,0,0,1-.25.22l-.14,0H721a1.5,1.5,0,0,1-.38-.34,4.91,4.91,0,0,0-1-.71,9.15,9.15,0,0,0-1.21-.61l-.46-.18a.83.83,0,0,0-.27-.06.2.2,0,0,0-.19.08,1,1,0,0,0-.11.21c-.36,1-.64,1.79-.83,2.35l-.45,1.26a3.8,3.8,0,0,0-.17.54.88.88,0,0,0,0,.2,1.33,1.33,0,0,0,.47,1,3,3,0,0,0,1.31.64v.3c-.68,0-1.29,0-1.82,0s-1,.06-1.53.11-1,.08-1.48.11-1.06,0-1.68,0H710v-.24a12,12,0,0,0,1.48-.86,12.23,12.23,0,0,0,1.4-1.09,11.25,11.25,0,0,0,1.22-1.27A8.72,8.72,0,0,0,715,530c.21-.54.38-1,.5-1.26s.2-.52.27-.66a1.17,1.17,0,0,0,.1-.27.31.31,0,0,0,0-.08c0-.14-.13-.23-.39-.26l-.64,0a4.46,4.46,0,0,0-.66.06,8.9,8.9,0,0,0-1,.19v-.33a3.73,3.73,0,0,1,.5-.16l.68-.16a4.57,4.57,0,0,1,.74-.12,5.8,5.8,0,0,1,.7,0,3.39,3.39,0,0,1,.46,0c.07,0,.2-.17.38-.51s.38-.78.61-1.31.46-1.12.71-1.78l.72-1.92.6-1.7c.18-.51.31-.9.38-1.17a1.08,1.08,0,0,0-.27-.72,2.76,2.76,0,0,0-.66-.55,6,6,0,0,0-.78-.42l-.64-.31v-.14s.14,0,.41,0,.53,0,.89,0l1.05.09.87.1.32,0a2.23,2.23,0,0,0,.54-.1q.38-.09.93-.18c.37-.07.78-.13,1.23-.19a9.14,9.14,0,0,1,1.4-.1v.19a1.5,1.5,0,0,0-.83.78,3,3,0,0,0-.3,1.38v.27a.82.82,0,0,0,0,.27q.11.78.36,2c.17.82.37,1.7.58,2.65s.46,1.91.72,2.89.51,1.89.74,2.74.45,1.57.66,2.17a6.07,6.07,0,0,0,.5,1.2,4.28,4.28,0,0,0,1.19,1.34c.43.3.81.53,1.13.72v.24a16.94,16.94,0,0,1-2.21.11,9.68,9.68,0,0,0-2.13.18,1.84,1.84,0,0,1-.44,0,1,1,0,0,1-.82-.4,3.47,3.47,0,0,1-.58-1,8.05,8.05,0,0,1-.4-1.38c-.11-.5-.21-1-.29-1.48s-.16-.93-.24-1.32A3.07,3.07,0,0,0,722.39,528.63Zm-4-1.63c.25.06.47.11.65.17l.51.15a4,4,0,0,0,.5.1,3.37,3.37,0,0,0,.58,0,3.85,3.85,0,0,0,.73-.05,1.89,1.89,0,0,0,.73-.38,6.29,6.29,0,0,0-.07-.79c0-.37-.11-.8-.19-1.27s-.18-1-.3-1.47-.24-1-.37-1.42a11.81,11.81,0,0,0-.42-1.14,1.32,1.32,0,0,0-.43-.58L718,526.68C718,526.84,718.13,527,718.4,527Z"/><path class="cls-5" d="M728.44,537h-.32l-.27-4.1q0-1.14,0-1.89c0-.51,0-.95-.08-1.32s-.07-.72-.12-1-.09-.62-.15-1a13.4,13.4,0,0,0,.85-1.23c.21-.35.41-.73.61-1.15l.35,0,.08,1.46a6.75,6.75,0,0,1,0,.72c0,.28-.08.67-.17,1.17a4.63,4.63,0,0,0-.09.89q0,.36,0,.66c0,.21,0,.41,0,.61,0,.42,0,.77,0,1.07s0,.52,0,.66a3.62,3.62,0,0,0,0,.54,2.38,2.38,0,0,0,.16.58,1.19,1.19,0,0,0,.35.47.93.93,0,0,0,.61.19,5.73,5.73,0,0,0,2-.36,5.62,5.62,0,0,0,1.72-1,5.18,5.18,0,0,0,1.19-1.58,4.64,4.64,0,0,0,.44-2,2.47,2.47,0,0,0-.36-1.3,5,5,0,0,0-1-1.13,15.94,15.94,0,0,0-1.35-1.08c-.5-.36-1-.75-1.57-1.16s-1.07-.87-1.6-1.37a9.76,9.76,0,0,1-1.45-1.71,3.4,3.4,0,0,1-.32-.8,4.12,4.12,0,0,1-.08-.88,3.28,3.28,0,0,1,.65-2.18,3.82,3.82,0,0,1,1.66-1.16,8,8,0,0,1,2.21-.48q1.2-.09,2.31-.12c.74,0,1.39-.05,2-.11a1.62,1.62,0,0,0,1.14-.43h.3c.06,0,.08.07.08.22a4.15,4.15,0,0,1-.09.74c-.07.32-.14.65-.23,1l-.26,1c-.08.33-.14.58-.17.76a6.23,6.23,0,0,0-.11.67c0,.27-.07.54-.11.8s-.07.49-.11.67-.18.29-.43.29l0-.22c0-.43-.12-.91-.2-1.43a6.66,6.66,0,0,0-.4-1.46,3,3,0,0,0-.79-1.12,2,2,0,0,0-1.33-.44,2.79,2.79,0,0,0-1.75.43,2.07,2.07,0,0,0-.52,1.65,3,3,0,0,0,.61,1.83,9.23,9.23,0,0,0,1.49,1.6c.6.5,1.25,1,2,1.48a21,21,0,0,1,2,1.51,9,9,0,0,1,1.5,1.68,3.45,3.45,0,0,1,.61,2,3.23,3.23,0,0,1-.75,2.12,7.86,7.86,0,0,1-1.87,1.62,16.83,16.83,0,0,1-2.51,1.27l-2.66,1c-.86.33-1.62.64-2.3.95A3.91,3.91,0,0,0,728.44,537Z"/><path class="cls-5" d="M753.58,519.53v4.69a.43.43,0,0,0,.13.36,1,1,0,0,0,.22.1,2.63,2.63,0,0,1,1,.27l.85.25.7.18c.22.06.45.1.67.14a4.6,4.6,0,0,0,.77.05,5.06,5.06,0,0,0,.63,0,2.15,2.15,0,0,0,.64-.16,1.62,1.62,0,0,0,.5-.3.57.57,0,0,0,.21-.47V519a6,6,0,0,0-.19-.79,3.73,3.73,0,0,0-.38-.81,2.55,2.55,0,0,0-.58-.64,1.36,1.36,0,0,0-.77-.3V516a17,17,0,0,0,1.92.27c.61.06,1.19.08,1.75.08s1.33,0,2-.09,1.37-.15,2.14-.26v.38a4.71,4.71,0,0,0-1.35,1.08,4,4,0,0,0-.71,1.3,6,6,0,0,0-.29,1.53c0,.56-.05,1.17-.05,1.81v7.35a9.66,9.66,0,0,0,.27,2.56,4.6,4.6,0,0,0,.66,1.47,2.51,2.51,0,0,0,.8.75c.27.14.49.27.67.38v.26a4.08,4.08,0,0,0-1.08-.1,20.54,20.54,0,0,0-2.06.12,25.44,25.44,0,0,1-2.56.12l-1,0a9.7,9.7,0,0,1-1.07-.11v-.26a1.35,1.35,0,0,0,.78-.32,2.5,2.5,0,0,0,.61-.68,3.47,3.47,0,0,0,.39-.88,3.27,3.27,0,0,0,.14-.88v-3.35a1.81,1.81,0,0,0-.06-.58c0-.1-.07-.15-.11-.15a.41.41,0,0,0-.28.15l-.3.33-.27.32c-.08.1-.14.15-.17.15a.49.49,0,0,1-.22.08.29.29,0,0,1-.21-.08,7.39,7.39,0,0,0-1.73-1.39,18.12,18.12,0,0,0-1.62-.83c-.24-.1-.46-.2-.68-.28a4.44,4.44,0,0,0-.7-.2v5.83a1.9,1.9,0,0,0,.2.82,5,5,0,0,0,.49.8,4.47,4.47,0,0,0,.62.68,4.87,4.87,0,0,0,.61.46v.26c-.63-.05-1.28-.12-1.93-.2a16.24,16.24,0,0,0-2-.12,15.67,15.67,0,0,0-1.94.12c-.65.08-1.31.15-2,.2v-.26c.18-.11.41-.24.68-.38a2.37,2.37,0,0,0,.78-.75,4.83,4.83,0,0,0,.66-1.47,9.14,9.14,0,0,0,.29-2.56v-3.94a7.77,7.77,0,0,0-.87.06,10,10,0,0,0-1.21.26v-.32a3.9,3.9,0,0,1,.79-.38,6,6,0,0,1,1.07-.3.25.25,0,0,0,.22-.27v-.19l0,0v-2.19c0-1,0-1.93-.09-2.66a2.94,2.94,0,0,0-.48-1.55,2.61,2.61,0,0,0-.21-.27l-.35-.4-.37-.41a3,3,0,0,0-.23-.24v-.38l1.76-.08q.81-.06,1.59-.06a2.88,2.88,0,0,0-1-.21c-.45,0-.89-.06-1.34-.06h-.84a6.87,6.87,0,0,0-3.06.72,8.74,8.74,0,0,0-2.62,2A10.49,10.49,0,0,0,741,521.4a10.16,10.16,0,0,0-.84,3.44,8.56,8.56,0,0,1-.14-1.09c0-.35,0-.7,0-1a9.85,9.85,0,0,1,4.64-7.69,11.36,11.36,0,0,1,3.19-1.38l.68,0h.67a13.85,13.85,0,0,1,2,.14,8.42,8.42,0,0,1,1.63.44,5.91,5.91,0,0,1,1.38.74c.42.3.86.66,1.31,1.05l0,.41a2.37,2.37,0,0,0-1,.46,2.14,2.14,0,0,0-.59.75,3.25,3.25,0,0,0-.26.95C753.6,518.87,753.58,519.2,753.58,519.53Z"/><path class="cls-5" d="M781.07,532,780.2,534a3.44,3.44,0,0,0-.17.45l-.27.82c-.1.31-.21.62-.31.94a6.3,6.3,0,0,1-.33.82h-.32a6.47,6.47,0,0,0,.08-.9,2.91,2.91,0,0,0-.12-.85.49.49,0,0,0-.5-.39h-9.61c-1.08,0-2,0-2.84-.07v-.38c0-.11.19-.19.56-.25s.77-.16,1.21-.27a5.35,5.35,0,0,0,1.26-.53,1.32,1.32,0,0,0,.67-1.05v-6.21c0-.07-.1-.11-.3-.11a4.31,4.31,0,0,0-.54,0l-.63.11-.54.11a1.36,1.36,0,0,1-.26,0l.41-1.29c0-.09.14-.18.32-.27a5.13,5.13,0,0,1,.61-.25,5.68,5.68,0,0,1,.65-.17,2,2,0,0,1,.44-.07l-.16-3.1a15.52,15.52,0,0,0-.19-1.66,3.79,3.79,0,0,0-.81-1.64,1.75,1.75,0,0,0-.35-.31l-.63-.5-.65-.5-.37-.28v-.38c.87.07,1.73.13,2.6.16s1.75.06,2.67.06,1.94,0,2.91-.06,2-.09,3-.16a2.28,2.28,0,0,0,.4,0,3.94,3.94,0,0,0,.49-.14l.44-.16a1.3,1.3,0,0,0,.29-.14l.27,0a3.64,3.64,0,0,1-.14,1c-.09.31-.19.63-.32,1s-.25.65-.36,1a5.11,5.11,0,0,0-.26,1,4.11,4.11,0,0,1-.2.72c-.12.31-.25.62-.38.93s-.26.57-.38.79a1.83,1.83,0,0,1-.2.34H777l.35-3.94V518a.67.67,0,0,0-.49-.75,8.08,8.08,0,0,0-1.65-.14h-1.32a.6.6,0,0,0-.54.41,4.23,4.23,0,0,0-.27,1q-.08.63-.09,1.35c0,.49,0,.94,0,1.35v3s.24.1.72.13l1.7.11c.66,0,1.33.08,2,.14s1.26.11,1.69.18l.49.57c0,.11-.09.21-.26.3a3.38,3.38,0,0,1-.62.23c-.24.06-.5.11-.77.16s-.5.08-.7.09a1,1,0,0,1-.3,0h-.32l-1.12,0-1.31,0h-1.14v2.75c0,.33.08.73.13,1.22s.09,1,.13,1.41.09.86.12,1.19a2.65,2.65,0,0,0,.08.5.44.44,0,0,0,.27.28,1.86,1.86,0,0,0,.53.14,4.46,4.46,0,0,0,.63,0l.6,0,1,0a8.45,8.45,0,0,0,1.41-.19,7.34,7.34,0,0,0,1.5-.5,4.13,4.13,0,0,0,1.31-.93h.27Z"/><path class="cls-5" d="M781.47,537h-.32l-.27-4.1q0-1.14,0-1.89c0-.51,0-.95-.08-1.32s-.08-.72-.12-1-.1-.62-.15-1a13.4,13.4,0,0,0,.85-1.23c.21-.35.41-.73.61-1.15l.35,0,.08,1.46a6.75,6.75,0,0,1,0,.72q0,.42-.18,1.17a5.55,5.55,0,0,0-.08.89q0,.36,0,.66c0,.21,0,.41,0,.61,0,.42,0,.77,0,1.07s0,.52,0,.66a3.62,3.62,0,0,0,0,.54,2,2,0,0,0,.16.58,1.19,1.19,0,0,0,.35.47.91.91,0,0,0,.61.19,5.73,5.73,0,0,0,2-.36,5.62,5.62,0,0,0,1.72-1,5.18,5.18,0,0,0,1.19-1.58,4.64,4.64,0,0,0,.44-2,2.47,2.47,0,0,0-.36-1.3,5.55,5.55,0,0,0-1-1.13,15.94,15.94,0,0,0-1.35-1.08c-.51-.36-1-.75-1.57-1.16s-1.07-.87-1.6-1.37a9,9,0,0,1-1.45-1.71,3.4,3.4,0,0,1-.32-.8,3.56,3.56,0,0,1-.08-.88,3.33,3.33,0,0,1,.64-2.18,3.91,3.91,0,0,1,1.67-1.16,8,8,0,0,1,2.21-.48q1.2-.09,2.31-.12c.74,0,1.39-.05,2-.11a1.65,1.65,0,0,0,1.15-.43h.3c.05,0,.08.07.08.22a4.15,4.15,0,0,1-.09.74c-.07.32-.14.65-.23,1l-.26,1c-.08.33-.14.58-.18.76s-.07.4-.1.67-.08.54-.11.8-.07.49-.11.67-.18.29-.43.29l0-.22c-.05-.43-.12-.91-.2-1.43a6.16,6.16,0,0,0-.41-1.46,3.13,3.13,0,0,0-.78-1.12,2,2,0,0,0-1.34-.44,2.74,2.74,0,0,0-1.74.43,2.07,2.07,0,0,0-.52,1.65,3.08,3.08,0,0,0,.6,1.83,9.71,9.71,0,0,0,1.5,1.6c.6.5,1.25,1,2,1.48a22.46,22.46,0,0,1,2,1.51,9,9,0,0,1,1.5,1.68,3.44,3.44,0,0,1,.6,2,3.22,3.22,0,0,1-.74,2.12,7.72,7.72,0,0,1-1.88,1.62,15.91,15.91,0,0,1-2.51,1.27c-.91.36-1.8.71-2.66,1s-1.62.64-2.29.95A3.82,3.82,0,0,0,781.47,537Z"/><path class="cls-5" d="M793,532.59a5.74,5.74,0,0,1,2.95-4,2,2,0,0,1,.24,3A2.64,2.64,0,0,1,793,532.59Z"/><path class="cls-5" d="M797.48,532.59a5.74,5.74,0,0,1,2.95-4,2,2,0,0,1,.24,3A2.64,2.64,0,0,1,797.48,532.59Z"/><path class="cls-5" d="M802,532.59a5.75,5.75,0,0,1,2.94-4,2,2,0,0,1,.25,3A2.65,2.65,0,0,1,802,532.59Z"/><path class="cls-5" d="M817.71,529.89V521a10.25,10.25,0,0,0-.09-1.29,5.84,5.84,0,0,0-.28-1.31,3.22,3.22,0,0,0-.53-1,1,1,0,0,0-.81-.42h-.43a1.82,1.82,0,0,0-.67.15,3,3,0,0,0-.73.39,2.63,2.63,0,0,0-.62.58,1.5,1.5,0,0,0-.33.74v3.46h-.35s0-.09-.11-.27-.11-.4-.19-.65-.13-.52-.2-.78-.1-.49-.12-.65a6.74,6.74,0,0,0-.28-1.14c-.14-.39-.27-.79-.41-1.19s-.25-.78-.35-1.16a4.13,4.13,0,0,1-.15-1.08l.27,0a2.24,2.24,0,0,0,.29.13,3.72,3.72,0,0,0,.44.16,4.5,4.5,0,0,0,.49.14,2.28,2.28,0,0,0,.4,0c1.08.07,2.13.13,3.13.16s2,.06,3.06.06q3.21,0,6.77-.24a1.76,1.76,0,0,0,.41-.06,4.27,4.27,0,0,0,.48-.13l.45-.17a1.25,1.25,0,0,0,.28-.13l.27,0a6.44,6.44,0,0,1-.12,1.16c-.08.43-.17.88-.27,1.33s-.2.91-.31,1.35a12.23,12.23,0,0,0-.24,1.21c0,.16-.06.37-.12.64s-.13.53-.21.79-.13.47-.19.65a.86.86,0,0,1-.1.26h-.35l-.33-3.94a1.38,1.38,0,0,0-.28-.74,2.75,2.75,0,0,0-.6-.58A3.13,3.13,0,0,0,824,517a2,2,0,0,0-.67-.15H823l-.16,0a1,1,0,0,0-.86.46,3.33,3.33,0,0,0-.5,1.14,9.46,9.46,0,0,0-.25,1.46c0,.51-.06,1-.06,1.39v8.53a7.9,7.9,0,0,0,.2,2,6.75,6.75,0,0,0,.49,1.37,3.4,3.4,0,0,0,1.22,1.41v.27c-.63-.06-1.26-.1-1.9-.14s-1.28,0-1.93,0-1.31,0-2,.07l-2,.15v-.27a6.31,6.31,0,0,1,.65-.38,2.73,2.73,0,0,0,.78-.69,4.39,4.39,0,0,0,.67-1.34A8.41,8.41,0,0,0,817.71,529.89Z"/><path class="cls-5" d="M840.71,519.82v-.05a3.77,3.77,0,0,0-.51-2.13,3.09,3.09,0,0,0-1.36-1.12,5.46,5.46,0,0,0-1.87-.44c-.69,0-1.39-.06-2.09-.06a1.37,1.37,0,0,0-.33,0h-.3a6.5,6.5,0,0,0-3,.73,8.21,8.21,0,0,0-2.51,2,9.83,9.83,0,0,0-1.73,2.89,9.48,9.48,0,0,0-.65,3.48h-.27a8.8,8.8,0,0,1-.14-1.09c0-.35,0-.7,0-1a10,10,0,0,1,1-3.62,9.81,9.81,0,0,1,2.17-3,10.22,10.22,0,0,1,3.2-2,10.5,10.5,0,0,1,4-.74h.94l.3,0a17.86,17.86,0,0,1,2.66.3,5.54,5.54,0,0,1,2.12.86,4.06,4.06,0,0,1,1.39,1.76,7.37,7.37,0,0,1,.5,2.94,4.18,4.18,0,0,1-.84,2.63,7.56,7.56,0,0,1-2.21,1.91.16.16,0,0,0-.06.13l.82.92,3.91,10.45v.27a3.92,3.92,0,0,0,.42,1.67c.28.6.57,1.19.88,1.78l0,.3a2,2,0,0,1-.92-.5,8.17,8.17,0,0,1-1-1,16,16,0,0,1-1-1.36c-.34-.5-.66-1-1-1.51s-.58-1-.83-1.45-.47-.85-.65-1.2l-.13-.2c-.06-.08-.15-.23-.3-.46l-.65-1c-.28-.45-.68-1.06-1.19-1.84a2.78,2.78,0,0,1-.33-.59c-.14-.29-.27-.59-.41-.92s-.26-.63-.39-.92L838,526l-.24,0h-.24a2.36,2.36,0,0,0-.86.13,1.85,1.85,0,0,1-.41.14l.37,5.78a2.83,2.83,0,0,0,.21,1.18,2.47,2.47,0,0,0,.48.76,2.26,2.26,0,0,0,.62.47l.61.34V535l-1.9-.14c-.64,0-1.29-.05-1.93-.05a4.37,4.37,0,0,0-1.08.15c-.4.1-.8.21-1.22.34l-1.21.35a5.38,5.38,0,0,1-1.11.19v-.27s0,0,.08-.06a6.6,6.6,0,0,0,.8-.54,4.64,4.64,0,0,0,1-1.06,6.41,6.41,0,0,0,.84-1.76,8.52,8.52,0,0,0,.35-2.6v-3.19a1.9,1.9,0,0,1-.62-.13,2.12,2.12,0,0,1-.81-.63v-.32h1.43v-1.78c0-.65,0-1.25,0-1.81a6.1,6.1,0,0,0-.29-1.54,4,4,0,0,0-.71-1.3,5.08,5.08,0,0,0-1.35-1.08v-.37l.38,0h1.18c1.05,0,2.06,0,3.05-.07s2-.1,2.95-.17v.46a1.06,1.06,0,0,0-.64.29,2.92,2.92,0,0,0-.55.68,3.66,3.66,0,0,0-.38.88,3.11,3.11,0,0,0-.13.87l-.35,4.59a13.59,13.59,0,0,0,1.33-.6,6.81,6.81,0,0,0,1.47-1,5.58,5.58,0,0,0,1.19-1.48A4,4,0,0,0,840.71,519.82Z"/><path class="cls-5" d="M854.69,513.61c.31,0,.62,0,.94,0l1,.1,0,.32a1.15,1.15,0,0,0-.54.57,2.3,2.3,0,0,0-.16.92,6.18,6.18,0,0,0,.25,1.64,19.94,19.94,0,0,0,.65,1.93c.26.68.56,1.36.89,2.06s.66,1.36,1,2H859a12.2,12.2,0,0,0,.7-1.3c.22-.47.41-.94.59-1.42s.35-.94.49-1.4l.38-1.25a3.31,3.31,0,0,0,.08-.68.73.73,0,0,0-.22-.58,1.64,1.64,0,0,0-.92-.28V516a37.74,37.74,0,0,1,3.87-.24,6.41,6.41,0,0,1,2.1.24v.33a1.62,1.62,0,0,0-.51.16,3.45,3.45,0,0,0-.64.38,5,5,0,0,0-.67.58,3.18,3.18,0,0,0-.58.77l-4,6.85v4.89a8.46,8.46,0,0,0,.19,2,5.67,5.67,0,0,0,.47,1.36,3.74,3.74,0,0,0,.61.89,3.08,3.08,0,0,0,.59.5v.27c-.63-.06-1.26-.1-1.9-.14s-1.28,0-1.93,0-1.3,0-2,0-1.33.08-2,.14v-.27a5.79,5.79,0,0,1,.66-.37,2.37,2.37,0,0,0,.81-.68,4.7,4.7,0,0,0,.69-1.35,7.41,7.41,0,0,0,.3-2.35V525c-.09-.19-.25-.5-.48-.91l-.77-1.44q-.42-.81-.93-1.71l-1-1.77c-.31-.57-.6-1.11-.86-1.62l-.64-1.24c0-.05.08-.13.34-.22s.56-.18.89-.27l.92-.24a1.94,1.94,0,0,0,.42-.13h-.06a6.57,6.57,0,0,0-3,.73,8.41,8.41,0,0,0-2.56,2,10.28,10.28,0,0,0-1.79,2.89,10.41,10.41,0,0,0-.8,3.48c-.07-.38-.12-.74-.15-1.1s0-.69,0-1a11.69,11.69,0,0,1,.68-3.26,8.72,8.72,0,0,1,1.66-2.82,7.83,7.83,0,0,1,2.74-2A9.37,9.37,0,0,1,854.69,513.61Z"/><path class="cls-5" d="M882.07,528.63a2.46,2.46,0,0,1-.21.24l-.36.35-.36.35a2.53,2.53,0,0,1-.26.22l-.13,0h-.1a1.55,1.55,0,0,1-.37-.34,4.91,4.91,0,0,0-1-.71,9.15,9.15,0,0,0-1.21-.61,4.46,4.46,0,0,1-.46-.18.83.83,0,0,0-.27-.06c-.09,0-.16,0-.19.08a1,1,0,0,0-.11.21l-.84,2.35c-.2.56-.34,1-.44,1.26s-.16.46-.18.54a.88.88,0,0,0,0,.2,1.34,1.34,0,0,0,.48,1,3,3,0,0,0,1.31.64v.3c-.69,0-1.3,0-1.83,0s-1,.06-1.52.11-1,.08-1.49.11-1.06,0-1.67,0h-1.19v-.24a11.21,11.21,0,0,0,1.47-.86,11.52,11.52,0,0,0,1.41-1.09,11.16,11.16,0,0,0,1.21-1.27,8.1,8.1,0,0,0,.93-1.4c.22-.54.39-1,.5-1.26l.27-.66a1.45,1.45,0,0,0,.11-.27.25.25,0,0,0,0-.08c0-.14-.13-.23-.39-.26s-.47,0-.63,0a4.46,4.46,0,0,0-.66.06,8.9,8.9,0,0,0-1,.19v-.33a3.3,3.3,0,0,1,.5-.16l.67-.16a4.69,4.69,0,0,1,.75-.12,5.8,5.8,0,0,1,.7,0,3.51,3.51,0,0,1,.46,0c.07,0,.19-.17.38-.51s.38-.78.6-1.31.47-1.12.72-1.78.49-1.3.71-1.92.43-1.19.61-1.7.31-.9.38-1.17a1.08,1.08,0,0,0-.27-.72,2.76,2.76,0,0,0-.66-.55,5.47,5.47,0,0,0-.79-.42c-.26-.12-.47-.22-.63-.31v-.14s.13,0,.41,0,.53,0,.89,0l1,.09.86.1.33,0a2.4,2.4,0,0,0,.54-.1q.38-.09.93-.18c.37-.07.78-.13,1.23-.19a9.14,9.14,0,0,1,1.4-.1v.19a1.52,1.52,0,0,0-.84.78,3.18,3.18,0,0,0-.29,1.38v.27a1.47,1.47,0,0,0,0,.27c.08.52.2,1.19.37,2s.36,1.7.58,2.65.45,1.91.71,2.89.51,1.89.75,2.74.45,1.57.66,2.17a5.5,5.5,0,0,0,.5,1.2,4.16,4.16,0,0,0,1.19,1.34c.43.3.81.53,1.13.72v.24a16.94,16.94,0,0,1-2.21.11,9.72,9.72,0,0,0-2.14.18,1.73,1.73,0,0,1-.43,0,1,1,0,0,1-.82-.4,3.47,3.47,0,0,1-.58-1,9,9,0,0,1-.41-1.38c-.11-.5-.2-1-.28-1.48s-.16-.93-.24-1.32A3.41,3.41,0,0,0,882.07,528.63Zm-4-1.63c.25.06.46.11.64.17l.52.15a4,4,0,0,0,.5.1,3.37,3.37,0,0,0,.58,0,3.92,3.92,0,0,0,.73-.05,1.87,1.87,0,0,0,.72-.38c0-.16,0-.43-.06-.79s-.11-.8-.19-1.27-.18-1-.3-1.47-.24-1-.38-1.42a8.14,8.14,0,0,0-.42-1.14,1.19,1.19,0,0,0-.43-.58l-2.32,6.32C877.67,526.84,877.81,527,878.08,527Z"/><path class="cls-5" d="M900,520.44c0-.75,0-1.34-.06-1.76a2.09,2.09,0,0,0-.3-1,1,1,0,0,0-.62-.41,5.7,5.7,0,0,0-1-.08,10.83,10.83,0,0,0-2,.24,9.06,9.06,0,0,0-1.16.36,3.65,3.65,0,0,0-1,.56,5.17,5.17,0,0,0-1.12,1.16,7.43,7.43,0,0,0-.88,1.74,13.11,13.11,0,0,0-.58,2.46,24.6,24.6,0,0,0-.2,3.31,10.51,10.51,0,0,0,.43,3,5.38,5.38,0,0,0,1.43,2.4,4.82,4.82,0,0,1,.43.36,2.37,2.37,0,0,0,.53.37,3.2,3.2,0,0,0,.76.27,4.91,4.91,0,0,0,1.12.11,3.81,3.81,0,0,0,1.93-.38,1.85,1.85,0,0,0,.71-1.49v-3.1a2.39,2.39,0,0,0-.32-1.24,3,3,0,0,0-.85-1,4.19,4.19,0,0,0-1.22-.59,4.52,4.52,0,0,0-1.41-.22,4.22,4.22,0,0,0-.63.06,7.58,7.58,0,0,0-.91.18v-.24a4.5,4.5,0,0,1,.59-.3,5,5,0,0,1,.78-.24,5.31,5.31,0,0,1,.89-.13l.76,0a5.68,5.68,0,0,1,1,.08,6.72,6.72,0,0,1,.83.2l.78.25a8.21,8.21,0,0,0,.85.2,2.26,2.26,0,0,0,.41-.08c.19-.06.44-.12.74-.19s.62-.14,1-.19a8.45,8.45,0,0,1,1.16-.08v.16a1.08,1.08,0,0,0-.68.63,2.58,2.58,0,0,0-.23,1.12v4.7a3.23,3.23,0,0,1-1,2.14.74.74,0,0,0-.39.14,7.91,7.91,0,0,0-.71.67,8.2,8.2,0,0,1-.68.58,1.48,1.48,0,0,1-.92.28h-.91a2,2,0,0,1-.36,0h-1.1a22.41,22.41,0,0,1-2.73-.19,7.78,7.78,0,0,1-2.7-.87,5.67,5.67,0,0,1-2.07-2,6.48,6.48,0,0,1-.82-3.47v-2.73c0-.79,0-1.58.1-2.36a13.45,13.45,0,0,1,.39-2.34,12.12,12.12,0,0,1,.86-2.32,11.51,11.51,0,0,1,1.54-2.32,2.7,2.7,0,0,1,1.5-.88,9.31,9.31,0,0,1,2.12-.23h1.35c.83,0,1.65,0,2.46.07s1.54.07,2.21.07a1.83,1.83,0,0,0,.41-.06,4.27,4.27,0,0,0,.48-.13l.45-.16a1.76,1.76,0,0,0,.28-.14l.27,0a5,5,0,0,1-.12,1c-.08.37-.17.74-.27,1.12s-.2.75-.31,1.13A7.91,7.91,0,0,0,901,520a5.25,5.25,0,0,1-.13.65c-.06.27-.13.53-.2.78s-.13.47-.19.65-.09.27-.11.27H900Z"/><path class="cls-5" d="M913.88,528.63l-.22.24-.35.35-.36.35-.26.22-.14,0h-.09a1.71,1.71,0,0,1-.38-.34,4.52,4.52,0,0,0-1-.71,9.21,9.21,0,0,0-1.22-.61l-.46-.18a.83.83,0,0,0-.27-.06.2.2,0,0,0-.19.08,1,1,0,0,0-.1.21l-.84,2.35-.45,1.26c-.1.28-.15.46-.17.54a.88.88,0,0,0,0,.2,1.36,1.36,0,0,0,.47,1,3.09,3.09,0,0,0,1.31.64v.3c-.68,0-1.29,0-1.82,0s-1,.06-1.53.11-1,.08-1.48.11-1.06,0-1.67,0h-1.19v-.24a12.69,12.69,0,0,0,1.47-.86,12.23,12.23,0,0,0,1.4-1.09,11.25,11.25,0,0,0,1.22-1.27,8.1,8.1,0,0,0,.93-1.4c.22-.54.38-1,.5-1.26l.27-.66c.06-.14.1-.23.11-.27a.25.25,0,0,0,0-.08c0-.14-.13-.23-.39-.26s-.47,0-.64,0a4.46,4.46,0,0,0-.66.06,8.9,8.9,0,0,0-1,.19v-.33a4.27,4.27,0,0,1,.5-.16l.68-.16a4.57,4.57,0,0,1,.74-.12,5.92,5.92,0,0,1,.7,0,3.27,3.27,0,0,1,.46,0c.07,0,.2-.17.38-.51s.38-.78.61-1.31.46-1.12.71-1.78l.72-1.92.61-1.7c.18-.51.3-.9.37-1.17a1.08,1.08,0,0,0-.27-.72,2.76,2.76,0,0,0-.66-.55,6,6,0,0,0-.78-.42c-.26-.12-.47-.22-.63-.31v-.14s.13,0,.4,0,.53,0,.89,0l1.05.09.87.1.32,0a2.23,2.23,0,0,0,.54-.1c.25-.06.57-.12.93-.18s.78-.13,1.23-.19a9.18,9.18,0,0,1,1.41-.1v.19a1.52,1.52,0,0,0-.84.78,3,3,0,0,0-.3,1.38v.27a.82.82,0,0,0,0,.27q.11.78.36,2c.17.82.37,1.7.58,2.65s.46,1.91.72,2.89.51,1.89.74,2.74.46,1.57.66,2.17a6.77,6.77,0,0,0,.5,1.2,4.28,4.28,0,0,0,1.19,1.34c.43.3.81.53,1.14.72v.24a17.17,17.17,0,0,1-2.22.11,9.68,9.68,0,0,0-2.13.18,1.79,1.79,0,0,1-.43,0,1,1,0,0,1-.83-.4,3.71,3.71,0,0,1-.58-1,9.07,9.07,0,0,1-.4-1.38c-.11-.5-.2-1-.29-1.48s-.16-.93-.24-1.32A3.11,3.11,0,0,0,913.88,528.63Zm-4-1.63c.25.06.47.11.65.17l.51.15a4,4,0,0,0,.5.1,3.45,3.45,0,0,0,.58,0,3.85,3.85,0,0,0,.73-.05,1.89,1.89,0,0,0,.73-.38,6.29,6.29,0,0,0-.07-.79c0-.37-.1-.8-.19-1.27s-.18-1-.29-1.47-.25-1-.38-1.42a11.81,11.81,0,0,0-.42-1.14,1.25,1.25,0,0,0-.43-.58l-2.32,6.32C909.48,526.84,909.61,527,909.88,527Z"/><path class="cls-5" d="M934.78,516a1.27,1.27,0,0,0-1.08.6,4.73,4.73,0,0,0-.71,1.68,15.7,15.7,0,0,0-.37,2.62c-.08,1-.11,2.14-.11,3.36s0,2.34.07,3.62.11,2.6.2,4a1.77,1.77,0,0,0,.2.82,5,5,0,0,0,.49.8,4.47,4.47,0,0,0,.62.68,4.84,4.84,0,0,0,.6.46v.26l-1.9-.13c-.64,0-1.28-.05-1.93-.05s-1.3,0-2,.05l-2,.13v-.26l.24-.14a5.78,5.78,0,0,0,.64-.42,2.46,2.46,0,0,0,.63-.78,5.06,5.06,0,0,0,.49-1.42,11.44,11.44,0,0,0,.19-2.35v-8a.76.76,0,0,0,0-.21c0-.7-.09-1.35-.16-1.93a6.65,6.65,0,0,0-.35-1.53,2.51,2.51,0,0,0-.66-1,1.76,1.76,0,0,0-1.07-.44v-.38c.63,0,1.22,0,1.76-.08s1.07-.05,1.59-.05a3.47,3.47,0,0,0-1.12-.28,11.13,11.13,0,0,0-1.26-.07,6.46,6.46,0,0,0-3,.73,8.49,8.49,0,0,0-2.51,2,10.4,10.4,0,0,0-1.77,2.91,10.63,10.63,0,0,0-.78,3.45c-.07-.38-.12-.74-.15-1.09s0-.7,0-1a9.58,9.58,0,0,1,.69-3,10,10,0,0,1,1.57-2.62,10.23,10.23,0,0,1,2.38-2.08,11.64,11.64,0,0,1,3.19-1.37l.69,0,.66,0a14.41,14.41,0,0,1,2,.12,6.06,6.06,0,0,1,1.51.41,6.87,6.87,0,0,1,1.27.71,13.43,13.43,0,0,1,1.27,1.06Z"/><path class="cls-5" d="M957.19,536.78l-.38,0c-.2,0-.37-.15-.52-.44a5.4,5.4,0,0,1-.37-1c-.11-.38-.22-.75-.33-1.1a1.71,1.71,0,0,0-.35-.71,24.07,24.07,0,0,0-1.93-3.07c-.71-1-1.44-1.92-2.2-2.86l-2.24-2.82c-.74-.94-1.43-1.92-2.08-2.94h-.19v9a3.6,3.6,0,0,0,.92,2.57,3.62,3.62,0,0,0,.77.63l.66.36v.41a28.88,28.88,0,0,0-3.08-.16,25,25,0,0,0-2.83.16v-.41c0-.07.1-.16.31-.28a4.41,4.41,0,0,0,.69-.54,3.35,3.35,0,0,0,.68-1,4,4,0,0,0,.32-1.73V518.63a3.31,3.31,0,0,0-.54-2.06,2.36,2.36,0,0,0-2-.69,5.55,5.55,0,0,0-2.83.77,8.38,8.38,0,0,0-2.35,2,10.36,10.36,0,0,0-1.66,2.86,10.83,10.83,0,0,0-.75,3.3,8.56,8.56,0,0,1-.14-1.09c0-.35,0-.7,0-1a9.85,9.85,0,0,1,4.64-7.69,11.36,11.36,0,0,1,3.19-1.38l.68,0H944a14.62,14.62,0,0,1,3.8.45,11.71,11.71,0,0,1,3.13,1.38v.33a.87.87,0,0,0-.91.56,3.51,3.51,0,0,0-.22,1.3,3.13,3.13,0,0,0,.31,1.25,12.8,12.8,0,0,0,.81,1.53q.5.81,1.11,1.65c.4.55.8,1.09,1.2,1.59s.77,1,1.12,1.4l.85,1.06h.24v-7.62a2.64,2.64,0,0,0-.13-.92,1.65,1.65,0,0,0-.37-.58,2.28,2.28,0,0,0-.52-.39c-.2-.11-.41-.22-.62-.35v-.38a2.33,2.33,0,0,0,.37,0l.41,0h.78a.82.82,0,0,0,.22,0h.7c.63,0,1.25,0,1.86-.08s1.26-.1,1.95-.13V516a5.14,5.14,0,0,0-.84.28,3.28,3.28,0,0,0-.93.62,3.63,3.63,0,0,0-.77,1.11,4,4,0,0,0-.32,1.71Z"/><path class="cls-5" d="M961.61,515.69a15.19,15.19,0,0,0,3.62.37,10.67,10.67,0,0,1,3.56.52,2.59,2.59,0,0,1,1.79,2.16,3.45,3.45,0,0,1-.62,2.78,9.33,9.33,0,0,1-3.05,2.77,7.14,7.14,0,0,0-2.84,2.9,3.45,3.45,0,0,0,1.28,3.81,5.81,5.81,0,0,0,4,1.46,16.75,16.75,0,0,0,.33-4.23c-.07-1.41-.15-2.82-.24-4.22l.86,1.16c.29.4.58.8.86,1.21a37.94,37.94,0,0,0-.35,4.12c0,1.38-.1,2.76-.19,4.15a23.37,23.37,0,0,0-5.59-2.42,7.37,7.37,0,0,1-4.56-3.6,3.5,3.5,0,0,1,.89-3.35,26.12,26.12,0,0,1,2.84-2.46,15.2,15.2,0,0,0,2.62-2.48,3.23,3.23,0,0,0,.24-3.43,9.31,9.31,0,0,1-1.77,0,1.42,1.42,0,0,0-1.44.79,7.27,7.27,0,0,0-.64,1.8c-.13.64-.28,1.26-.44,1.88-.15-1-.31-1.94-.49-2.91S961.86,516.61,961.61,515.69Zm1.81,23a5.74,5.74,0,0,1,3-4,2,2,0,0,1,.24,3A2.68,2.68,0,0,1,963.42,538.72Z"/><polygon class="cls-7" points="69.85 443.88 77.2 438.41 127.19 493.23 119.84 498.7 69.85 443.88"/><polygon class="cls-7" points="105.18 508.01 124.74 494.51 144.3 481.01 154.65 511.5 165 542 135.09 525 105.18 508.01"/><rect class="cls-8" x="70.14" y="320.53" width="15.81" height="120.72"/><polygon class="cls-7" points="160.4 497.89 167.68 489.44 215.46 512.39 208.18 520.84 160.4 497.89"/><polygon class="cls-7" points="1468.85 397.88 1476.2 392.41 1526.19 447.23 1518.84 452.7 1468.85 397.88"/><polygon class="cls-7" points="1504.18 462.01 1523.74 448.51 1543.3 435.01 1553.65 465.5 1564 496 1534.09 479 1504.18 462.01"/><rect class="cls-8" x="1468.57" y="252.76" width="18.9" height="144.36"/><polygon class="cls-9" points="1527 259.64 1478.15 259.2 1429.3 258.77 1454.57 163.83 1479.85 68.89 1503.42 164.27 1527 259.64"/><rect class="cls-8" x="1538.14" y="406.53" width="15.81" height="120.72"/><polygon class="cls-10" points="1587 412.28 1546.15 411.91 1505.3 411.55 1526.43 332.16 1547.57 252.77 1567.29 332.52 1587 412.28"/><polygon class="cls-7" points="1539.85 528.88 1547.29 523.51 1610.78 594.7 1603.35 600.07 1539.85 528.88"/><image class="cls-11" width="838" height="583" transform="translate(468.03 73.2)" xlink:href="game%20over1.png"/><image class="cls-12" width="1173" height="816" transform="translate(287.41 -43.41)" xlink:href="game%20over2.png"/><circle class="cls-13" cx="132" cy="128" r="114"/><rect class="cls-14" x="235.58" y="255.87" width="174.27" height="34.35" rx="9.09" transform="matrix(0.74, -0.67, 0.67, 0.74, -99.77, 287.32)"/><rect class="cls-15" x="211.19" y="119.17" width="70.82" height="128.28" transform="translate(-59.23 212.99) rotate(-42.17)"/><path d="M330.57,318.76l29.6-51.08c14.38,8.43,12.92,38.32-3.24,66.3s-41.41,44.25-55.88,35.9Z"/><ellipse cx="402.14" cy="794.65" rx="32.78" ry="17.17"/><ellipse cx="335.01" cy="794.65" rx="32.78" ry="17.17"/><ellipse class="cls-5" cx="411.62" cy="785.26" rx="5.66" ry="8.5" transform="translate(-410.8 1116.45) rotate(-84.27)"/><ellipse class="cls-5" cx="322.87" cy="785.26" rx="8.5" ry="5.66" transform="translate(-120.48 61.16) rotate(-9.13)"/><ellipse class="cls-7" cx="374.04" cy="786.06" rx="171.73" ry="80.4"/><polygon class="cls-16" points="368.54 800.5 287.33 661.06 206.11 521.61 367.72 520.86 529.33 520.11 448.94 660.31 368.54 800.5"/><circle class="cls-5" cx="413.07" cy="410.61" r="28.1"/><circle class="cls-5" cx="320.96" cy="410.61" r="28.1"/><path class="cls-17" d="M291.83,411.68l54.07-15.49c-9.48-11.8-20.52-17.29-33.87-13.34C297.51,388.18,291.58,398.23,291.83,411.68Z"/><path class="cls-18" d="M386.38,399.8l53.92,15.12c2.23-15.41-4.68-26.16-20.4-32.42C402.71,380.32,391.73,386.34,386.38,399.8Z"/><path class="cls-19" d="M386.86,420.76q13.68,26.1,41.78,13.78c10.5-8.76,16.65-19.59,8.62-37.2"/><path class="cls-19" d="M346.72,420.75c-8.26,20.21-23.23,22-42.27,12.6-12.1-11.81-17.3-25.22-2.79-43.16l28.88,18.6"/><ellipse cx="332.13" cy="422.58" rx="8.59" ry="10.15"/><ellipse cx="405.6" cy="419.75" rx="8.59" ry="10.15"/><polygon class="cls-20" points="331.35 734.75 251.76 735.22 172.17 735.69 211.56 666.53 250.94 597.37 291.15 666.06 331.35 734.75"/><polygon class="cls-21" points="565.52 734.75 485.93 735.22 406.34 735.69 445.73 666.53 485.11 597.37 525.32 666.06 565.52 734.75"/><line class="cls-22" x1="379.5" y1="522.23" x2="368.19" y2="793.76"/><circle class="cls-5" cx="355.3" cy="562.04" r="8.59"/><circle class="cls-5" cx="396.67" cy="561.26" r="8.59"/><circle class="cls-5" cx="356.08" cy="595.6" r="8.59"/><circle class="cls-5" cx="354.52" cy="595.6" r="0.78"/><circle class="cls-5" cx="395.11" cy="595.6" r="8.59"/><circle class="cls-5" cx="395.11" cy="628.39" r="8.59"/><circle class="cls-5" cx="356.08" cy="628.39" r="8.59"/><circle class="cls-5" cx="395.11" cy="665.85" r="8.59"/><circle class="cls-5" cx="354.52" cy="665.85" r="8.59"/><polygon points="348.53 473.12 355.69 443.82 362.85 414.52 404.12 440.13 445.39 465.73 396.96 469.42 348.53 473.12"/><polygon class="cls-4" points="346.04 476.24 353.27 444.01 360.49 411.78 393.76 436.17 427.03 460.55 386.54 468.39 346.04 476.24"/><polygon points="323.98 492.45 340.45 491.7 356.92 490.95 349.56 510.45 342.2 529.96 333.09 511.2 323.98 492.45"/><polygon class="cls-5" points="324.12 492.67 339.71 491.95 355.31 491.24 348.27 508.15 341.23 525.06 332.68 508.86 324.12 492.67"/><polygon points="367.56 490.44 378.71 489.95 389.86 489.46 384.87 502.97 379.88 516.47 373.72 503.46 367.56 490.44"/><polygon class="cls-5" points="367.65 490.59 378.21 490.13 388.76 489.66 383.99 501.37 379.22 513.08 373.44 501.83 367.65 490.59"/><polygon class="cls-23" points="311.83 451.22 304.97 451.01 298.1 450.8 301.71 445.15 305.32 439.51 308.58 445.36 311.83 451.22"/><ellipse class="cls-24" cx="304.8" cy="456.47" rx="10.04" ry="8.2" transform="translate(-162.41 744.54) rotate(-87.92)"/><ellipse class="cls-5" cx="309.7" cy="453.81" rx="1.96" ry="4.35" transform="translate(-85.04 71.66) rotate(-11.62)"/><ellipse class="cls-5" cx="310.12" cy="459.8" rx="1.18" ry="1.33" transform="matrix(0.25, -0.97, 0.97, 0.25, -212.63, 645.06)"/><rect class="cls-5" x="266.31" y="224.9" width="69.39" height="37.32" transform="translate(-85.6 265.11) rotate(-42.17)"/><polygon class="cls-25" points="119 326.28 78.15 325.91 37.3 325.55 58.43 246.16 79.57 166.77 99.28 246.52 119 326.28"/><rect class="cls-8" x="160.31" y="380.5" width="13.49" height="120.52"/><polygon class="cls-26" points="202 386.24 167.15 385.88 132.3 385.51 150.33 306.26 168.36 227 185.18 306.62 202 386.24"/><polygon class="cls-5" points="782 69.85 774.42 72.62 774.76 80.68 768.57 75.5 761.76 79.83 763.16 71.88 756 68.15 763.58 65.38 763.24 57.32 769.43 62.5 776.24 58.17 774.84 66.12 782 69.85"/><polygon class="cls-5" points="873 128.85 865.42 131.62 865.76 139.68 859.57 134.5 852.76 138.83 854.16 130.88 847 127.15 854.58 124.38 854.24 116.32 860.43 121.5 867.24 117.17 865.84 125.12 873 128.85"/><polygon class="cls-5" points="724.83 116.25 722.6 117.07 722.7 119.44 720.88 117.91 718.87 119.19 719.28 116.85 717.17 115.75 719.4 114.93 719.3 112.56 721.13 114.09 723.13 112.81 722.72 115.15 724.83 116.25"/><polygon class="cls-5" points="537.98 61.59 532.74 63.5 532.98 69.07 528.71 65.49 524 68.48 524.96 62.99 520.02 60.41 525.26 58.5 525.02 52.93 529.29 56.51 534 53.52 533.04 59.01 537.98 61.59"/><polygon class="cls-5" points="1032.98 99.59 1027.74 101.5 1027.98 107.07 1023.71 103.49 1019 106.48 1019.96 100.99 1015.02 98.41 1020.26 96.5 1020.02 90.93 1024.29 94.51 1029 91.52 1028.04 97.01 1032.98 99.59"/><polygon class="cls-5" points="768.83 185.25 766.6 186.07 766.7 188.44 764.88 186.91 762.87 188.19 763.28 185.85 761.17 184.75 763.4 183.93 763.3 181.56 765.13 183.09 767.13 181.81 766.72 184.15 768.83 185.25"/><polygon class="cls-5" points="1057.47 193.82 1050.19 196.47 1050.53 204.21 1044.59 199.23 1038.06 203.39 1039.4 195.76 1032.53 192.18 1039.81 189.53 1039.47 181.79 1045.41 186.77 1051.94 182.61 1050.6 190.24 1057.47 193.82"/><ellipse class="cls-7" cx="968.04" cy="677.06" rx="117.98" ry="55.24" transform="translate(-171.31 364.97) rotate(-19.65)"/><ellipse class="cls-7" cx="1180.04" cy="717.06" rx="98.6" ry="46.16" transform="translate(-188.75 535.14) rotate(-23.71)"/></g></g></svg>