<svg id="Layer_1" data-name="Layer 1" xmlns="http://www.w3.org/2000/svg" xmlns:xlink="http://www.w3.org/1999/xlink" width="200" height="380" viewBox="0 0 200 380"><defs><style>.cls-1{opacity:0.51;}.cls-2{fill:#c6c4c4;}.cls-3{fill:url(#linear-gradient);}.cls-4{fill:#fff;}.cls-5{fill:#f40600;}</style><linearGradient id="linear-gradient" x1="91.34" y1="163.53" x2="91.34" y2="294.34" gradientTransform="matrix(-1, 0, 0, 1, 198.88, 0)" gradientUnits="userSpaceOnUse"><stop offset="0" stop-color="#c6c4c4"/><stop offset="0.12" stop-color="#bbb9b9"/><stop offset="0.32" stop-color="#9e9b9b"/><stop offset="0.6" stop-color="#6f6b6a"/><stop offset="0.88" stop-color="#393332"/><stop offset="0.97" stop-color="#323033"/><stop offset="1" stop-color="#2e2f33"/></linearGradient></defs><title>ghost_back</title><ellipse class="cls-1" cx="104.65" cy="289.35" rx="79.71" ry="30.98"/><path class="cls-2" d="M177.34,204.52l.06-17.41h-.06c-3.55,0-6.46,7.87-6.46,17.42s2.91,17.41,6.46,17.41h.07Z"/><rect x="134.33" y="281.16" width="5.29" height="8.79" transform="translate(273.96 571.11) rotate(-180)"/><rect x="80.74" y="283.36" width="5.29" height="8.79" transform="translate(166.78 575.5) rotate(-180)"/><path class="cls-2" d="M107.54,164l69.79.67c0-.22,0-.45,0-.67,0-35.68-31.51-65.05-69.8-65.05S37.74,128.34,37.74,164Z"/><path class="cls-3" d="M37.74,163.53V286.14a52.66,52.66,0,0,1,15.12-2.08c9.77,0,18.32,2.33,23,5.82,4.88-2.89,12.64-4.76,21.38-4.76,12.69,0,23.31,3.94,26,9.22h1.35c2.72-5.28,13.34-9.22,26-9.22s23.31,3.94,26,9.22h.68V163.53Z"/><ellipse cx="142.93" cy="293.79" rx="13.89" ry="6.04"/><ellipse cx="76.77" cy="295.99" rx="13.89" ry="6.04"/><ellipse class="cls-4" cx="71.15" cy="292.14" rx="2.96" ry="1.11" transform="translate(-46.14 15.28) rotate(-9.27)"/><ellipse class="cls-4" cx="149.22" cy="289.95" rx="1.1" ry="2.96" transform="translate(-158.56 397.7) rotate(-82.06)"/><path class="cls-5" d="M38.15,207.9l-.63,19.82c8.31.18,15.44-8.61,15.79-19.48s-6.21-20-14.52-20.15c-.36,0-.72,0-1.08,0Z"/><path class="cls-5" d="M177,204.55l.44-19.81H177c-8.32,0-15.16,9-15.16,19.82s6.84,19.83,15.16,19.83h.28Z"/><path class="cls-2" d="M37.74,209.21l-.07,17.41h.07c3.54,0,6.45-7.86,6.45-17.41s-2.91-17.42-6.45-17.42h-.07Z"/><path class="cls-5" d="M69.37,97.11l18.74-9.86C80.4,77.1,69.05,70.74,59.5,70.34a17.69,17.69,0,0,0-9,1.82c-10.31,5.37-10.27,21.06.09,34.75Z"/><polygon class="cls-5" points="51.41 106.62 51.25 97.84 51.09 89.07 30.26 93.72 9.44 98.38 30.43 102.5 51.41 106.62"/><path class="cls-4" d="M69.21,94.12l7.2-3.79c-3-3.9-7.33-6.35-11-6.5a6.73,6.73,0,0,0-3.46.69c-4,2.07-4,8.1,0,13.37Z"/><path class="cls-2" d="M177.34,204.52l.54-16a2.48,2.48,0,0,0-.54-.06c-3.55,0-6.46,7.26-6.46,16.08s2.91,16.07,6.46,16.07h.26Z"/><rect class="cls-5" x="15.14" y="177.73" width="174.3" height="60.95" rx="12" transform="translate(204.58 416.4) rotate(-180)"/></svg>
