<svg id="Layer_1" data-name="Layer 1" xmlns="http://www.w3.org/2000/svg" xmlns:xlink="http://www.w3.org/1999/xlink" width="200" height="380" viewBox="0 0 200 380"><defs><style>.cls-1{opacity:0.51;}.cls-2{fill:#c6c4c4;}.cls-3{fill:#f40600;}.cls-4{fill:url(#linear-gradient);}.cls-5,.cls-7{fill:#fff;}.cls-5,.cls-6{stroke:#000;stroke-miterlimit:10;}</style><linearGradient id="linear-gradient" x1="91.34" y1="163.53" x2="91.34" y2="294.34" gradientUnits="userSpaceOnUse"><stop offset="0" stop-color="#c6c4c4"/><stop offset="0.12" stop-color="#bbb9b9"/><stop offset="0.32" stop-color="#9e9b9b"/><stop offset="0.6" stop-color="#6f6b6a"/><stop offset="0.88" stop-color="#393332"/><stop offset="0.97" stop-color="#323033"/><stop offset="1" stop-color="#2e2f33"/></linearGradient></defs><title>Ghost copy</title><ellipse class="cls-1" cx="94.23" cy="289.35" rx="79.71" ry="30.98"/><path class="cls-2" d="M21.54,204.52l-.06-17.41h.06c3.54,0,6.46,7.87,6.46,17.42s-2.92,17.41-6.46,17.41h-.07Z"/><rect class="cls-3" x="9.44" y="177.73" width="174.3" height="60.95" rx="12"/><rect x="59.25" y="281.16" width="5.29" height="8.79"/><rect x="112.84" y="283.36" width="5.29" height="8.79"/><path class="cls-2" d="M91.34,164l-69.79.67c0-.22,0-.45,0-.67C21.54,128.34,53.05,99,91.34,99s69.8,29.37,69.8,65.05Z"/><path class="cls-4" d="M161.14,163.53V286.14A52.66,52.66,0,0,0,146,284.06c-9.77,0-18.32,2.33-23,5.82-4.88-2.89-12.64-4.76-21.38-4.76-12.69,0-23.31,3.94-26,9.22H74.29c-2.72-5.28-13.34-9.22-26-9.22s-23.31,3.94-26,9.22h-.68V163.53Z"/><ellipse class="cls-5" cx="56.28" cy="135.37" rx="10.59" ry="8.79"/><ellipse class="cls-5" cx="107.22" cy="140.86" rx="10.59" ry="8.79"/><ellipse class="cls-6" cx="53.63" cy="132.9" rx="2.65" ry="1.92"/><ellipse class="cls-6" cx="111.19" cy="142.78" rx="2.65" ry="1.92"/><ellipse cx="55.95" cy="293.79" rx="13.89" ry="6.04"/><ellipse cx="122.11" cy="295.99" rx="13.89" ry="6.04"/><ellipse class="cls-7" cx="127.73" cy="292.14" rx="1.11" ry="2.96" transform="translate(-181.18 371.13) rotate(-80.73)"/><ellipse class="cls-7" cx="49.66" cy="289.95" rx="2.96" ry="1.1" transform="translate(-39.56 9.63) rotate(-7.94)"/><path class="cls-3" d="M160.72,207.9l.64,19.82c-8.31.18-15.44-8.61-15.79-19.48s6.21-20,14.52-20.15c.36,0,.72,0,1.08,0Z"/><path class="cls-3" d="M21.93,204.55l-.45-19.81h.45c8.32,0,15.16,9,15.16,19.82s-6.84,19.83-15.16,19.83h-.28Z"/><path class="cls-2" d="M161.14,209.21l.07,17.41h-.07c-3.54,0-6.45-7.86-6.45-17.41s2.91-17.42,6.45-17.42h.07Z"/><path class="cls-3" d="M129.51,97.11l-18.74-9.86c7.7-10.15,19.06-16.51,28.6-16.91a17.71,17.71,0,0,1,9,1.82c10.31,5.37,10.27,21.06-.09,34.75Z"/><polygon class="cls-3" points="147.47 106.62 147.63 97.84 147.79 89.07 168.62 93.72 189.44 98.38 168.45 102.5 147.47 106.62"/><path class="cls-7" d="M129.67,94.12l-7.2-3.79c3-3.9,7.32-6.35,11-6.5a6.73,6.73,0,0,1,3.46.69c4,2.07,3.95,8.1,0,13.37Z"/><ellipse cx="73.99" cy="168.35" rx="19.37" ry="16.07"/><ellipse class="cls-2" cx="75.61" cy="162.32" rx="19.37" ry="16.07"/><path class="cls-2" d="M21.54,204.52l-.54-16a2.48,2.48,0,0,1,.54-.06c3.54,0,6.46,7.26,6.46,16.08s-2.92,16.07-6.46,16.07h-.26Z"/></svg>