<svg id="Layer_1" data-name="Layer 1" xmlns="http://www.w3.org/2000/svg" xmlns:xlink="http://www.w3.org/1999/xlink" width="200" height="380" viewBox="0 0 200 380"><defs><style>.cls-1{opacity:0.51;}.cls-2{fill:#c6c4c4;}.cls-3{fill:#f40600;}.cls-4{fill:url(#linear-gradient);}.cls-5,.cls-7{fill:#fff;}.cls-5,.cls-6{stroke:#000;stroke-miterlimit:10;}</style><linearGradient id="linear-gradient" x1="90.37" y1="152.1" x2="90.37" y2="329.94" gradientUnits="userSpaceOnUse"><stop offset="0" stop-color="#c6c4c4"/><stop offset="0.12" stop-color="#bbb9b9"/><stop offset="0.32" stop-color="#9e9b9b"/><stop offset="0.6" stop-color="#6f6b6a"/><stop offset="0.88" stop-color="#393332"/><stop offset="0.97" stop-color="#323033"/><stop offset="1" stop-color="#2e2f33"/></linearGradient></defs><title>Ghost copy</title><ellipse class="cls-1" cx="93.61" cy="323.14" rx="89.28" ry="42.11"/><path class="cls-2" d="M12.19,207.82l-.07-23.67h.07c4,0,7.23,10.69,7.23,23.67s-3.26,23.68-7.23,23.68h-.08Z"/><rect class="cls-3" x="-1.36" y="171.4" width="195.22" height="82.86" rx="12"/><rect x="54.43" y="312.02" width="5.93" height="11.94"/><rect x="114.45" y="315" width="5.93" height="11.94"/><path class="cls-2" d="M90.37,152.77l-78.17.9c0-.3,0-.6,0-.9,0-48.51,35.29-88.43,78.18-88.43s78.18,39.92,78.18,88.43Z"/><path class="cls-4" d="M168.55,152.1V318.79A49.46,49.46,0,0,0,151.61,316c-10.94,0-20.51,3.17-25.73,7.91-5.46-3.93-14.15-6.46-23.94-6.46-14.22,0-26.12,5.35-29.16,12.53H71.27c-3-7.18-14.94-12.53-29.16-12.53S16,322.76,13,329.94h-.76V152.1Z"/><ellipse class="cls-5" cx="51.1" cy="113.82" rx="11.86" ry="11.94"/><ellipse class="cls-5" cx="108.16" cy="121.28" rx="11.86" ry="11.94"/><ellipse class="cls-6" cx="48.13" cy="110.46" rx="2.96" ry="2.61"/><ellipse class="cls-6" cx="112.6" cy="123.89" rx="2.96" ry="2.61"/><ellipse cx="50.73" cy="329.19" rx="15.56" ry="8.21"/><ellipse cx="124.83" cy="332.18" rx="15.56" ry="8.21"/><ellipse class="cls-7" cx="131.13" cy="326.95" rx="1.49" ry="3.34" transform="translate(-216.04 386.63) rotate(-77.9)"/><ellipse class="cls-7" cx="43.69" cy="323.96" rx="3.34" ry="1.49" transform="translate(-57.6 13.16) rotate(-10.37)"/><path class="cls-3" d="M168.08,212.42l.71,26.94c-9.31.25-17.29-11.7-17.68-26.48s6.95-27.15,16.26-27.39a9.78,9.78,0,0,1,1.21,0Z"/><path class="cls-3" d="M12.63,207.87l-.5-26.94h.5c9.31,0,17,12.17,17,27s-7.67,26.95-17,26.95h-.32Z"/><path class="cls-2" d="M168.55,214.2l.07,23.67h-.07c-4,0-7.23-10.69-7.23-23.67s3.26-23.68,7.23-23.68h.08Z"/><path class="cls-3" d="M133.12,61.81l-21-13.41c8.63-13.79,21.35-22.45,32-23a17,17,0,0,1,10.1,2.47c11.55,7.31,11.5,28.63-.1,47.24Z"/><polygon class="cls-3" points="153.23 74.73 153.41 62.8 153.6 50.87 176.92 57.2 200.24 63.53 176.74 69.13 153.23 74.73"/><path class="cls-7" d="M133.3,57.74l-8.07-5.15c3.32-5.31,8.21-8.64,12.32-8.84a6.44,6.44,0,0,1,3.88.94c4.44,2.81,4.43,11,0,18.17Z"/><ellipse cx="70.94" cy="158.66" rx="21.69" ry="21.85"/><ellipse class="cls-2" cx="72.75" cy="150.46" rx="21.69" ry="21.85"/><path class="cls-2" d="M12.19,207.82l-.6-21.77a2.47,2.47,0,0,1,.6-.08c4,0,7.23,9.87,7.23,21.85s-3.26,21.86-7.23,21.86l-.29,0Z"/></svg>
