<svg xmlns="http://www.w3.org/2000/svg" xmlns:xlink="http://www.w3.org/1999/xlink" width="100" height="100" viewBox="0 0 100 100"><defs><style>.cls-1{isolation:isolate;}.cls-2{fill:#9f0800;}.cls-3{fill:#ae100b;}.cls-4{fill:#bc1915;}.cls-5{fill:none;stroke:#000;stroke-miterlimit:10;stroke-width:3px;}.cls-6{mix-blend-mode:screen;fill:url(#linear-gradient);}</style><linearGradient id="linear-gradient" x1="-260.08" y1="513.16" x2="-260.08" y2="538.86" gradientTransform="translate(306.38 -501)" gradientUnits="userSpaceOnUse"><stop offset="0" stop-color="#fff"/><stop offset="0.2" stop-color="#c3c3c3"/><stop offset="0.49" stop-color="#707070"/><stop offset="0.73" stop-color="#343434"/><stop offset="0.91" stop-color="#0e0e0e"/><stop offset="1"/></linearGradient></defs><title>return</title><g class="cls-1"><g id="Layer_1" data-name="Layer 1"><circle class="cls-2" cx="50.28" cy="45.74" r="37.62"/><circle class="cls-3" cx="51.14" cy="50.25" r="30.74"/><circle class="cls-4" cx="52.01" cy="54.75" r="23.86"/><path class="cls-5" d="M75.62,47.41A23.38,23.38,0,0,1,50.3,68.69a18.72,18.72,0,0,1-17-20.26A15,15,0,0,1,49.49,34.82a12,12,0,0,1,10.89,13A9.57,9.57,0,0,1,50,56.49a7.65,7.65,0,0,1-7-8.29,6.13,6.13,0,0,1,6.64-5.58,4.91,4.91,0,0,1,4.46,5.31,3.92,3.92,0,0,1-4.25,3.57A3.14,3.14,0,0,1,47,48.1"/><polygon points="82.85 56.13 74.3 51.49 65.75 46.85 74.04 41.77 82.33 36.69 82.59 46.41 82.85 56.13"/><ellipse class="cls-6" cx="46.3" cy="25.01" rx="25.69" ry="12.85" transform="matrix(0.98, -0.19, 0.19, 0.98, -3.88, 9.17)"/></g></g></svg>
