<svg xmlns="http://www.w3.org/2000/svg" xmlns:xlink="http://www.w3.org/1999/xlink" width="240" height="240" viewBox="0 0 240 240"><defs><style>.cls-1{isolation:isolate;}.cls-2{fill:#e85c0f;}.cls-3{fill:#ee6e08;}.cls-4{fill:#f47f00;}.cls-5{fill:#350e00;}.cls-6{mix-blend-mode:screen;fill:url(#linear-gradient);}</style><linearGradient id="linear-gradient" x1="-537.96" y1="1868.05" x2="-537.96" y2="1954.65" gradientTransform="translate(634.44 -1821.12)" gradientUnits="userSpaceOnUse"><stop offset="0" stop-color="#fff"/><stop offset="0.07" stop-color="#dedede"/><stop offset="0.22" stop-color="#a4a4a4"/><stop offset="0.36" stop-color="#727272"/><stop offset="0.5" stop-color="#494949"/><stop offset="0.64" stop-color="#292929"/><stop offset="0.77" stop-color="#121212"/><stop offset="0.89" stop-color="#050505"/><stop offset="1"/></linearGradient></defs><title>settingskanap copy</title><g class="cls-1"><g id="Layer_1" data-name="Layer 1"><ellipse cx="99.41" cy="131.67" rx="90.79" ry="91.33" transform="translate(-44.67 51.28) rotate(-23.79)"/><ellipse cx="157.79" cy="105.94" rx="84.59" ry="91.33" transform="translate(-29.32 72.65) rotate(-23.79)"/><ellipse cx="101.39" cy="132" rx="85.5" ry="86.01" transform="translate(-44.63 52.11) rotate(-23.79)"/><ellipse cx="156.37" cy="107.77" rx="79.67" ry="86.01" transform="translate(-30.18 72.23) rotate(-23.79)"/><ellipse cx="103.36" cy="132.33" rx="80.22" ry="80.69" transform="translate(-44.6 52.94) rotate(-23.79)"/><ellipse cx="154.95" cy="109.59" rx="74.74" ry="80.69" transform="translate(-31.04 71.81) rotate(-23.79)"/><circle class="cls-2" cx="89.99" cy="143.9" r="90.6"/><ellipse class="cls-2" cx="148.26" cy="118.22" rx="84.42" ry="90.6" transform="translate(-35.09 69.85) rotate(-23.79)"/><circle class="cls-3" cx="91.97" cy="144.23" r="85.33"/><ellipse class="cls-3" cx="146.84" cy="120.04" rx="79.5" ry="85.33" transform="translate(-35.94 69.43) rotate(-23.79)"/><circle class="cls-4" cx="93.94" cy="144.55" r="80.05"/><ellipse class="cls-4" cx="145.42" cy="121.86" rx="74.58" ry="80.05" transform="translate(-36.8 69.01) rotate(-23.79)"/><polygon class="cls-5" points="19.17 16.13 52.94 34.83 86.72 53.53 73.43 37.68 60.14 21.83 39.66 18.98 19.17 16.13"/><path d="M58.24,215.55l-.42.19-2.75-5.26c-.44-1-.82-1.83-1.14-2.48s-.61-1.22-.87-1.7-.52-.9-.75-1.27l-.77-1.21A19.23,19.23,0,0,0,52,201.7c.06-.58.11-1.21.13-1.87l.45-.24.95,1.88a9.64,9.64,0,0,1,.37,1q.18.57.45,1.65a7.28,7.28,0,0,0,.41,1.22c.14.31.28.6.42.86s.27.53.39.79c.24.55.47,1,.67,1.38s.36.66.44.85a5.9,5.9,0,0,0,.37.69,3.22,3.22,0,0,0,.55.67,1.67,1.67,0,0,0,.74.42,1.29,1.29,0,0,0,.91-.1,8.15,8.15,0,0,0,2.46-1.66,7.78,7.78,0,0,0,1.67-2.35,7.12,7.12,0,0,0,.65-2.78,6.52,6.52,0,0,0-.59-2.93,3.42,3.42,0,0,0-1.24-1.5,7.46,7.46,0,0,0-1.92-.94,20,20,0,0,0-2.41-.64c-.88-.18-1.79-.39-2.75-.62s-1.92-.52-2.91-.87a14,14,0,0,1-2.91-1.42,4.93,4.93,0,0,1-.89-.87,5.41,5.41,0,0,1-.62-1.11,4.8,4.8,0,0,1-.41-3.26,5.52,5.52,0,0,1,1.51-2.5,11.75,11.75,0,0,1,2.65-1.91c1-.55,2-1.06,3-1.51s1.8-.88,2.52-1.28a2.44,2.44,0,0,0,1.27-1.24l.39-.17c.07,0,.15.05.23.24a5.19,5.19,0,0,1,.31,1c.1.45.19.94.28,1.45s.17,1,.25,1.49.15.84.21,1.1.14.58.25,1,.21.74.32,1.11l.25.95c.06.27-.08.48-.41.63l-.16-.27c-.32-.54-.69-1.13-1.1-1.77a8.91,8.91,0,0,0-1.38-1.69,4.38,4.38,0,0,0-1.69-1,2.74,2.74,0,0,0-2,.19,4,4,0,0,0-2.05,1.58,3,3,0,0,0,.26,2.48,4.41,4.41,0,0,0,1.87,2.07A13.27,13.27,0,0,0,57,193.07a32.33,32.33,0,0,0,3.45.82,30.69,30.69,0,0,1,3.46.86,13.13,13.13,0,0,1,3,1.34,5,5,0,0,1,2,2.25,4.7,4.7,0,0,1,.25,3.23,11.19,11.19,0,0,1-1.54,3.23,22.84,22.84,0,0,1-2.57,3.14c-1,1-2,2-2.91,2.92s-1.77,1.79-2.48,2.58A5.57,5.57,0,0,0,58.24,215.55Z"/><path d="M90.67,193.38v3.07a3,3,0,0,0,0,.69c0,.37.07.78.12,1.25s.09.93.14,1.42a8.07,8.07,0,0,1,0,1.26l-.42.19a8.15,8.15,0,0,0-.42-1.22,3.66,3.66,0,0,0-.65-1,.71.71,0,0,0-.89-.23l-8.27,3.65-4.43,1.93q-2.14.91-3.78,1.56l-.22-.5c-.07-.14.13-.36.58-.66s.93-.65,1.45-1.07a7.28,7.28,0,0,0,1.35-1.42,2,2,0,0,0,.28-1.79L72,192.26q-.06-.13-.45,0a6.85,6.85,0,0,0-.69.39l-.77.51c-.25.17-.47.32-.65.46a2.13,2.13,0,0,1-.31.22l-.22-2a1,1,0,0,1,.27-.54,7,7,0,0,1,.66-.68c.26-.22.51-.43.76-.61a3.72,3.72,0,0,1,.55-.35l-2-4a22,22,0,0,0-1.22-2.08,5.46,5.46,0,0,0-2-1.69,2.79,2.79,0,0,0-.65-.2l-1.12-.3-1.15-.28a6.42,6.42,0,0,1-.65-.16l-.22-.5c1.19-.41,2.36-.84,3.52-1.29s2.35-1,3.56-1.49S71.69,176.6,73,176s2.56-1.27,3.9-2a2.75,2.75,0,0,0,.5-.31,6,6,0,0,0,.57-.46c.18-.16.34-.32.49-.47a3,3,0,0,0,.3-.35l.37-.12a4.92,4.92,0,0,1,.39,1.38,13.66,13.66,0,0,1,.13,1.46c0,.5.06,1,.1,1.51a7.22,7.22,0,0,0,.26,1.52,5,5,0,0,1,.15,1.06c0,.49,0,1,0,1.46s0,.9,0,1.27a2.5,2.5,0,0,1-.07.56l-.47.2-1.83-5.41-.14-.32c-.24-.54-.6-.78-1.07-.69a11.67,11.67,0,0,0-2.26.76l-1.75.77a.85.85,0,0,0-.47.87,5.51,5.51,0,0,0,.25,1.53,17.93,17.93,0,0,0,.66,1.83c.27.65.53,1.25.77,1.79l1.71,3.89q0,.1,1-.24c.65-.23,1.42-.51,2.31-.85l2.76-1c.94-.33,1.72-.57,2.33-.73l1,.47c.06.14,0,.32-.17.54a3.66,3.66,0,0,1-.69.66c-.28.23-.59.45-.92.67s-.62.39-.87.53a2.14,2.14,0,0,1-.38.21l-.43.19c-.45.2-1,.4-1.49.61s-1.13.46-1.75.73l-1.49.66,1.6,3.64q.36.6.87,1.53c.34.61.67,1.21,1,1.79l.85,1.5a2.6,2.6,0,0,0,.4.61.63.63,0,0,0,.52.22,2.64,2.64,0,0,0,.78-.13,8.17,8.17,0,0,0,.87-.3l.79-.32c.33-.15.78-.36,1.34-.64A12,12,0,0,0,87.42,197a10.61,10.61,0,0,0,1.69-1.54,6,6,0,0,0,1.19-2l.35-.15Z"/><path d="M95.34,188l-5.18-11.77a16.61,16.61,0,0,0-.86-1.66A10.06,10.06,0,0,0,88.16,173a5.14,5.14,0,0,0-1.29-1.05,1.44,1.44,0,0,0-1.32-.08l-.22.08a2.17,2.17,0,0,0-.36.14,2.67,2.67,0,0,0-.81.59,4.91,4.91,0,0,0-.73.94,3.78,3.78,0,0,0-.48,1.13,2.12,2.12,0,0,0,0,1.17l2,4.56-.46.2s-.12-.08-.3-.29l-.63-.75c-.24-.29-.48-.59-.72-.91a8.13,8.13,0,0,1-.54-.79,9.19,9.19,0,0,0-1-1.33l-1.23-1.33c-.41-.45-.79-.89-1.14-1.33a6.2,6.2,0,0,1-.82-1.34l.34-.19a2.87,2.87,0,0,0,.45,0c.21,0,.44,0,.68,0a5.43,5.43,0,0,0,.72-.1,2.45,2.45,0,0,0,.57-.17c1.47-.53,2.88-1.06,4.23-1.6s2.71-1.11,4.06-1.71q4.24-1.87,8.81-4.26a3.45,3.45,0,0,0,.5-.31c.19-.14.38-.3.56-.46s.35-.33.5-.48a2.09,2.09,0,0,0,.29-.34l.38-.12a8.88,8.88,0,0,1,.51,1.6q.23.93.42,1.92c.14.67.27,1.32.38,2s.24,1.22.38,1.73a7.72,7.72,0,0,1,.21.92c.08.4.14.78.19,1.15s.1.7.13,1,0,.41,0,.42l-.46.2-2.72-5a1.94,1.94,0,0,0-.81-.82,3.8,3.8,0,0,0-1.12-.42,4.74,4.74,0,0,0-1.19-.09,2.67,2.67,0,0,0-1,.19l-.35.17a1.08,1.08,0,0,1-.21.11,1.47,1.47,0,0,0-.87,1.11,5,5,0,0,0,0,1.81,13.13,13.13,0,0,0,.53,2.07c.24.7.48,1.33.72,1.87l5,11.27a11.93,11.93,0,0,0,1.4,2.45,10.31,10.31,0,0,0,1.45,1.53,5.05,5.05,0,0,0,1.34.84,5.11,5.11,0,0,0,1.1.3l.15.36c-.86.29-1.72.6-2.59.93s-1.72.67-2.58,1-1.72.79-2.58,1.24L95,196l-.15-.36c.15-.24.36-.53.63-.88a3.74,3.74,0,0,0,.64-1.36,6.86,6.86,0,0,0,.11-2.16A12.31,12.31,0,0,0,95.34,188Z"/><path d="M112,180.62l-5.18-11.77a16.61,16.61,0,0,0-.86-1.66,10.06,10.06,0,0,0-1.14-1.57,5.14,5.14,0,0,0-1.29-1.05,1.44,1.44,0,0,0-1.32-.08l-.22.08-.36.14a2.67,2.67,0,0,0-.81.59,5.24,5.24,0,0,0-.73.94,3.89,3.89,0,0,0-.48,1.13,2.12,2.12,0,0,0,0,1.17l2,4.56-.46.2s-.12-.08-.3-.29-.39-.45-.63-.75-.48-.59-.72-.91a8.13,8.13,0,0,1-.54-.79,9.76,9.76,0,0,0-1-1.33L96.7,167.9c-.41-.45-.79-.89-1.14-1.33a6.2,6.2,0,0,1-.82-1.34l.34-.19a2.87,2.87,0,0,0,.45,0c.21,0,.44,0,.68-.05a5.43,5.43,0,0,0,.72-.1,3.15,3.15,0,0,0,.57-.16c1.47-.54,2.88-1.07,4.23-1.61s2.71-1.11,4.06-1.71q4.24-1.87,8.81-4.26a3.45,3.45,0,0,0,.5-.31c.19-.14.38-.3.56-.46s.35-.33.5-.48a2.09,2.09,0,0,0,.29-.34l.38-.12a8.88,8.88,0,0,1,.51,1.6c.15.62.29,1.26.42,1.93s.27,1.31.38,2,.24,1.22.38,1.73a7.72,7.72,0,0,1,.21.92c.08.4.14.78.19,1.15s.1.7.13,1,0,.41,0,.42l-.46.2-2.72-5a1.94,1.94,0,0,0-.81-.82,4.1,4.1,0,0,0-1.12-.42,4.74,4.74,0,0,0-1.19-.09,2.67,2.67,0,0,0-1,.19l-.35.17a1.08,1.08,0,0,1-.21.11,1.47,1.47,0,0,0-.87,1.11,5,5,0,0,0,0,1.81,13.13,13.13,0,0,0,.53,2.07c.24.7.48,1.33.72,1.87l5,11.27A11.93,11.93,0,0,0,118,181a10.31,10.31,0,0,0,1.45,1.53,5.05,5.05,0,0,0,1.34.84,5.11,5.11,0,0,0,1.1.3l.15.36c-.86.29-1.72.6-2.59.93s-1.72.67-2.58,1.05-1.72.79-2.58,1.24l-2.61,1.39-.15-.36a9.87,9.87,0,0,1,.63-.87,3.7,3.7,0,0,0,.63-1.37,6.54,6.54,0,0,0,.12-2.16A12.31,12.31,0,0,0,112,180.62Z"/><path d="M134.76,148.61a1.86,1.86,0,0,0-1.08,1.41,7,7,0,0,0,.06,2.64,21.72,21.72,0,0,0,1,3.68q.75,2.07,1.81,4.5c.66,1.5,1.4,3.08,2.2,4.74s1.66,3.37,2.58,5.12a2.6,2.6,0,0,0,.74,1,6.65,6.65,0,0,0,1.11.77,6.74,6.74,0,0,0,1.21.53,6.39,6.39,0,0,0,1.07.25l.16.36c-.86.29-1.73.6-2.59.93s-1.73.67-2.58,1.05-1.72.78-2.57,1.22-1.72.88-2.56,1.34l-.16-.36.24-.32a5.86,5.86,0,0,0,.59-.92,3.64,3.64,0,0,0,.39-1.4,7.62,7.62,0,0,0-.19-2.16,17.65,17.65,0,0,0-1.11-3.21l-4.28-9.7-.25-.57-.14-.32a1.91,1.91,0,0,0-.16-.27c-.46-.9-.91-1.72-1.34-2.45a9.9,9.9,0,0,0-1.35-1.81,3.72,3.72,0,0,0-1.47-1,2.5,2.5,0,0,0-1.66.05l-.22-.5c.82-.39,1.58-.77,2.27-1.13s1.38-.69,2.07-1a5,5,0,0,0-1.65.28c-.6.2-1.17.41-1.69.64a9.22,9.22,0,0,0-3.55,2.72,11.93,11.93,0,0,0-2.16,4.08,14.69,14.69,0,0,0-.65,4.86,15.28,15.28,0,0,0,1,5,13.42,13.42,0,0,1-.83-1.36q-.36-.66-.66-1.35a13.93,13.93,0,0,1-.84-4.35,14.21,14.21,0,0,1,2.49-8.51,16.75,16.75,0,0,1,3.41-3.67l.88-.46.87-.4a19,19,0,0,1,2.71-1,8.67,8.67,0,0,1,2.23-.35,9.21,9.21,0,0,1,2.09.21,20.11,20.11,0,0,1,2.29.65Z"/><path d="M176.47,163.05l-.48.26a.92.92,0,0,1-.93-.27,8.7,8.7,0,0,1-1.08-1.1c-.37-.44-.72-.86-1.07-1.26a2.62,2.62,0,0,0-.88-.74A36.1,36.1,0,0,0,167.7,157q-2.25-1.29-4.57-2.5c-1.55-.81-3.08-1.61-4.6-2.42a49.68,49.68,0,0,1-4.46-2.68l-.25.11,5.26,11.95a5.56,5.56,0,0,0,1.26,1.87,5.09,5.09,0,0,0,1.45,1,5,5,0,0,0,1.38.39l1.09.1.23.53a43.22,43.22,0,0,0-4.15,1.58,34.9,34.9,0,0,0-3.65,1.86l-.24-.53c0-.1,0-.28.25-.56a5,5,0,0,0,.91-2.85,5.85,5.85,0,0,0-.6-2.46l-7.15-16.22a4.77,4.77,0,0,0-1.91-2.42,3.4,3.4,0,0,0-3,.23,7.89,7.89,0,0,0-3.29,2.66,12.48,12.48,0,0,0-1.93,4,15.51,15.51,0,0,0-.52,4.75,15.33,15.33,0,0,0,.94,4.8,13.42,13.42,0,0,1-.83-1.36q-.36-.68-.66-1.35a14.22,14.22,0,0,1-.84-4.36,14.34,14.34,0,0,1,2.49-8.5,16.79,16.79,0,0,1,3.41-3.68l.88-.45c.3-.14.58-.28.87-.4a20.52,20.52,0,0,1,5.29-1.61,16.69,16.69,0,0,1,4.94,0l.19.43a1.26,1.26,0,0,0-.88,1.28,5.05,5.05,0,0,0,.47,1.84,4.64,4.64,0,0,0,1.14,1.48,17.7,17.7,0,0,0,1.95,1.54q1.14.78,2.43,1.53c.85.5,1.69,1,2.51,1.41l2.3,1.2,1.73.89.32-.14-4.43-10.05a3.93,3.93,0,0,0-.71-1.14,2.46,2.46,0,0,0-.82-.55A3.52,3.52,0,0,0,161,138l-1-.1-.22-.5.52-.17a4.85,4.85,0,0,0,.55-.22l1-.45a1.32,1.32,0,0,0,.3-.09l.32-.14.61-.27c.83-.37,1.63-.77,2.41-1.19s1.61-.87,2.49-1.31l.16.35a7.77,7.77,0,0,0-.94.87,4.42,4.42,0,0,0-.87,1.36,5,5,0,0,0-.37,1.91,5.73,5.73,0,0,0,.57,2.45Z"/><path d="M186.93,132.68c-.44-1-.82-1.76-1.12-2.29a3,3,0,0,0-.95-1.1,1.45,1.45,0,0,0-1.06-.17,7.94,7.94,0,0,0-1.42.5,11.23,11.23,0,0,0-1.12.58,12.61,12.61,0,0,0-1.36.89,15.73,15.73,0,0,0-1.33,1.14,5.2,5.2,0,0,0-1,1.34,7.41,7.41,0,0,0-.81,2.19,10.9,10.9,0,0,0-.14,2.81,17.92,17.92,0,0,0,.66,3.58,34,34,0,0,0,1.66,4.48,15.13,15.13,0,0,0,2.32,3.71,7.57,7.57,0,0,0,3.28,2.34c.26.06.52.14.79.23a3.42,3.42,0,0,0,.9.18,4.86,4.86,0,0,0,1.16-.09,7.23,7.23,0,0,0,1.54-.51,5.39,5.39,0,0,0,2.33-1.62,2.64,2.64,0,0,0,.08-2.38l-1.81-4.1a3.49,3.49,0,0,0-1.15-1.45,4.28,4.28,0,0,0-1.67-.75,6,6,0,0,0-2-.08,7,7,0,0,0-2,.54,7.55,7.55,0,0,0-.79.43c-.31.2-.68.46-1.1.79l-.14-.32a6.13,6.13,0,0,1,.61-.74,6,6,0,0,1,.89-.78,11.52,11.52,0,0,1,1.1-.7c.35-.18.68-.33,1-.47a8.13,8.13,0,0,1,1.33-.46,9.32,9.32,0,0,1,1.21-.21l1.18-.14a10.5,10.5,0,0,0,1.24-.22,3.61,3.61,0,0,0,.48-.35l.87-.68c.36-.27.75-.54,1.2-.82a11.38,11.38,0,0,1,1.48-.78l.1.21a1.52,1.52,0,0,0-.54,1.24,3.66,3.66,0,0,0,.35,1.61l2.73,6.2a4.66,4.66,0,0,1,0,3.39.91.91,0,0,0-.43.42,11.1,11.1,0,0,0-.56,1.29,8.73,8.73,0,0,1-.56,1.16,2.12,2.12,0,0,1-1,.91l-1.21.53a3.21,3.21,0,0,1-.45.24l-.47.21-1,.44a31.38,31.38,0,0,1-3.72,1.34,11.27,11.27,0,0,1-4.06.43,8.22,8.22,0,0,1-3.87-1.39,9.13,9.13,0,0,1-3.11-4.1l-1.58-3.6c-.47-1-.88-2.1-1.26-3.17a20.43,20.43,0,0,1-.84-3.32,17.27,17.27,0,0,1-.21-3.56,17,17,0,0,1,.68-4,4,4,0,0,1,1.47-2,13,13,0,0,1,2.67-1.53l1.78-.79c1.09-.48,2.19-.93,3.28-1.34s2.09-.81,3-1.2a2.48,2.48,0,0,0,.51-.31,5.93,5.93,0,0,0,.56-.46l.5-.47a2.71,2.71,0,0,0,.29-.35l.37-.12a7.06,7.06,0,0,1,.45,1.45c.11.53.2,1.08.29,1.63s.18,1.12.25,1.68a12.56,12.56,0,0,0,.33,1.6,8.47,8.47,0,0,1,.21.93c.08.39.14.78.19,1.15s.1.7.13,1,0,.41,0,.42l-.46.2Z"/><path d="M201.75,152.29l-.43.19-2.75-5.26c-.44-1-.82-1.82-1.13-2.48s-.61-1.22-.88-1.7-.52-.9-.75-1.27l-.77-1.21a18.8,18.8,0,0,0,.41-2.12c.07-.58.11-1.2.13-1.87l.45-.24,1,1.88c.11.26.23.59.36,1s.28.94.45,1.65a8.45,8.45,0,0,0,.41,1.23c.14.31.28.59.42.85a8.23,8.23,0,0,1,.39.79c.24.55.47,1,.68,1.39s.35.66.44.85a5.05,5.05,0,0,0,.36.68,3.27,3.27,0,0,0,.56.68,1.79,1.79,0,0,0,.73.42,1.39,1.39,0,0,0,.92-.11,8.4,8.4,0,0,0,2.46-1.66,7.74,7.74,0,0,0,1.66-2.35,7.12,7.12,0,0,0,.65-2.78,6.52,6.52,0,0,0-.59-2.93,3.47,3.47,0,0,0-1.23-1.5,7.88,7.88,0,0,0-1.93-.94,21.47,21.47,0,0,0-2.41-.64c-.87-.18-1.79-.39-2.74-.62a29.09,29.09,0,0,1-2.92-.87,13.65,13.65,0,0,1-2.9-1.42,4.92,4.92,0,0,1-.89-.86,5.48,5.48,0,0,1-.62-1.11,4.78,4.78,0,0,1-.42-3.27,5.59,5.59,0,0,1,1.52-2.5,11.61,11.61,0,0,1,2.65-1.91c1-.55,2-1,3-1.51s1.81-.88,2.52-1.28a2.44,2.44,0,0,0,1.27-1.24l.39-.17c.07,0,.15,0,.23.24a5.41,5.41,0,0,1,.31,1c.1.46.19.94.28,1.46s.17,1,.25,1.48.15.85.21,1.1.14.58.25,1,.22.75.32,1.11.19.69.25,1-.07.48-.41.62l-.16-.27c-.32-.54-.69-1.13-1.1-1.77a9.24,9.24,0,0,0-1.38-1.69,4.43,4.43,0,0,0-1.69-1,2.75,2.75,0,0,0-2,.19,4,4,0,0,0-2.05,1.58,3,3,0,0,0,.26,2.48,4.43,4.43,0,0,0,1.88,2.07,13.19,13.19,0,0,0,2.9,1.24c1.08.31,2.23.59,3.45.82a28.86,28.86,0,0,1,3.47.85,13.26,13.26,0,0,1,2.95,1.34,5,5,0,0,1,2,2.25,4.7,4.7,0,0,1,.25,3.23,11,11,0,0,1-1.53,3.23,22.22,22.22,0,0,1-2.58,3.14c-1,1-2,2-2.91,2.92s-1.76,1.79-2.48,2.59A5.31,5.31,0,0,0,201.75,152.29Z"/><polygon points="77.27 139.57 60.67 147.07 44.08 154.59 45.1 134.75 46.12 114.93 61.69 127.25 77.27 139.57"/><polygon class="cls-4" points="51.28 149.78 48.31 151.17 45.33 152.56 46.2 150.54 47.07 148.52 49.17 149.15 51.28 149.78"/><rect class="cls-4" x="46.93" y="143.1" width="25.47" height="2.91" transform="translate(-53.24 36.35) rotate(-23.79)"/><polygon class="cls-4" points="74.59 139.51 72.03 140.7 69.48 141.89 70.14 139.97 70.8 138.05 72.69 138.78 74.59 139.51"/><rect class="cls-4" x="31.29" y="134.5" width="32.12" height="1.87" transform="translate(-89.53 178.43) rotate(-88.17)"/><polygon class="cls-4" points="47.49 122.7 47.07 119.53 46.64 116.37 47.7 117.84 48.75 119.31 48.12 121 47.49 122.7"/><rect x="43.33" y="149.04" width="7.41" height="0.73" transform="translate(-108.49 130.82) rotate(-65.71)"/><polygon points="161.17 102.58 144.57 110.09 127.98 117.6 129 97.77 130.03 77.94 145.6 90.26 161.17 102.58"/><polygon class="cls-4" points="135.18 112.8 132.21 114.19 129.24 115.57 130.1 113.55 130.97 111.53 133.08 112.17 135.18 112.8"/><rect class="cls-4" x="130.83" y="106.11" width="25.47" height="2.91" transform="translate(-31.19 67.05) rotate(-23.79)"/><polygon class="cls-4" points="158.49 102.52 155.94 103.72 153.38 104.91 154.04 102.99 154.7 101.06 156.59 101.79 158.49 102.52"/><rect class="cls-4" x="115.2" y="97.52" width="32.12" height="1.87" transform="translate(28.66 226.49) rotate(-88.17)"/><polygon class="cls-4" points="131.39 85.71 130.97 82.55 130.55 79.38 131.6 80.85 132.66 82.32 132.03 84.02 131.39 85.71"/><rect x="127.24" y="112.05" width="7.41" height="0.73" transform="translate(-25.39 185.52) rotate(-65.71)"/><ellipse class="cls-6" cx="96.47" cy="90.23" rx="88.05" ry="43.3" transform="translate(-28.2 46.58) rotate(-23.79)"/></g></g></svg>