<svg xmlns="http://www.w3.org/2000/svg" xmlns:xlink="http://www.w3.org/1999/xlink" width="1200" height="800" viewBox="0 0 1200 800"><defs><style>.cls-1{isolation:isolate;}.cls-2{filter:url(#AI_GaussianBlur_4);}.cls-3{fill:#fff;}.cls-4{fill:#474747;opacity:0.5;}.cls-5{fill:#e85c0f;}.cls-6{fill:#ee6e08;}.cls-7{fill:#f47f00;}.cls-8{fill:#350e00;}.cls-9{mix-blend-mode:screen;fill:url(#linear-gradient);}</style><filter id="AI_GaussianBlur_4" name="AI_GaussianBlur_4"><feGaussianBlur stdDeviation="4"/></filter><linearGradient id="linear-gradient" x1="-835.8" y1="1823.08" x2="-835.8" y2="1909.68" gradientTransform="translate(944.27 -1706.15)" gradientUnits="userSpaceOnUse"><stop offset="0" stop-color="#fff"/><stop offset="0.07" stop-color="#dedede"/><stop offset="0.22" stop-color="#a4a4a4"/><stop offset="0.36" stop-color="#727272"/><stop offset="0.5" stop-color="#494949"/><stop offset="0.64" stop-color="#292929"/><stop offset="0.77" stop-color="#121212"/><stop offset="0.89" stop-color="#050505"/><stop offset="1"/></linearGradient></defs><title>settings</title><g class="cls-1"><g id="Layer_1" data-name="Layer 1"><g class="cls-2"><polygon class="cls-3" points="466.59 149.79 459.27 146.39 453.81 152.34 453.1 144.29 445.22 142.54 451.83 137.91 449.41 130.21 456.73 133.61 462.19 127.66 462.9 135.71 470.78 137.46 464.17 142.09 466.59 149.79"/></g><g class="cls-2"><polygon class="cls-3" points="189.57 151.69 182.47 149.36 176.8 154.23 176.45 148.01 168.72 146.99 175.47 143.09 173.41 137.21 180.51 139.53 186.19 134.66 186.54 140.89 194.27 141.91 187.51 145.81 189.57 151.69"/></g><g class="cls-2"><polygon class="cls-3" points="248.38 68.42 244.66 69.78 244.83 73.73 241.79 71.19 238.45 73.31 239.13 69.41 235.62 67.58 239.34 66.22 239.17 62.27 242.21 64.81 245.55 62.69 244.87 66.59 248.38 68.42"/></g><g class="cls-2"><polygon class="cls-3" points="382.38 206.42 378.66 207.78 378.83 211.73 375.79 209.19 372.45 211.31 373.13 207.41 369.62 205.58 373.34 204.22 373.17 200.27 376.21 202.81 379.55 200.69 378.87 204.59 382.38 206.42"/></g><g class="cls-2"><polygon class="cls-3" points="388.38 76.42 384.66 77.78 384.83 81.73 381.79 79.19 378.45 81.31 379.13 77.41 375.62 75.58 379.34 74.22 379.17 70.27 382.21 72.81 385.55 70.69 384.87 74.59 388.38 76.42"/></g><g class="cls-2"><polygon class="cls-3" points="303.59 121.8 296.27 118.39 290.81 124.34 290.1 116.3 282.22 114.54 288.83 109.91 286.41 102.2 293.73 105.61 299.19 99.66 299.9 107.7 307.78 109.46 301.17 114.09 303.59 121.8"/></g><g class="cls-2"><polygon class="cls-3" points="675.16 110.31 682.07 114.49 688.14 109.17 687.97 117.24 695.62 119.84 688.54 123.73 690.11 131.65 683.21 127.47 677.13 132.79 677.3 124.72 669.66 122.12 676.74 118.23 675.16 110.31"/></g><g class="cls-2"><polygon class="cls-3" points="950.74 138.55 957.55 141.64 963.72 137.42 963.39 143.64 970.97 145.5 963.83 148.64 965.24 154.71 958.43 151.63 952.26 155.85 952.59 149.62 945.01 147.77 952.15 144.63 950.74 138.55"/></g><g class="cls-2"><polygon class="cls-3" points="883.23 214.94 887.08 213.99 887.34 210.04 890.08 212.9 893.63 211.15 892.53 214.95 895.82 217.16 891.97 218.1 891.71 222.05 888.97 219.19 885.42 220.94 886.52 217.14 883.23 214.94"/></g><g class="cls-2"><polygon class="cls-3" points="765.04 63.18 768.88 62.24 769.14 58.29 771.89 61.14 775.44 59.4 774.33 63.2 777.63 65.4 773.78 66.34 773.52 70.3 770.78 67.44 767.22 69.19 768.33 65.38 765.04 63.18"/></g><g class="cls-2"><polygon class="cls-3" points="744.93 191.76 748.78 190.81 749.04 186.86 751.78 189.72 755.33 187.97 754.23 191.77 757.52 193.98 753.67 194.92 753.41 198.87 750.67 196.01 747.12 197.76 748.23 193.96 744.93 191.76"/></g><g class="cls-2"><polygon class="cls-3" points="834.15 155.87 841.06 160.05 847.13 154.74 846.96 162.81 854.61 165.41 847.53 169.29 849.1 177.21 842.2 173.03 836.12 178.35 836.29 170.28 828.65 167.68 835.72 163.79 834.15 155.87"/></g><rect class="cls-4" x="31" y="158.67" width="1151" height="578.51" rx="139.1"/><path d="M235.44,302.44c2-.07,4-.16,6-.29v1a5.52,5.52,0,0,0-3.19.81,5.46,5.46,0,0,0-1.79,2.11,9,9,0,0,0-.78,2.93,32.14,32.14,0,0,0-.16,3.25V336.4a20.87,20.87,0,0,0,.33,3.67,11.45,11.45,0,0,0,1.07,3.32,7.41,7.41,0,0,0,1.85,2.37,4.06,4.06,0,0,0,2.67.91v1q-4.87-.39-9.69-.39-2.14,0-4.71.09t-4.71.3v-1c0-.13.24-.25.74-.36a3.47,3.47,0,0,0,1.66-1.1,8.59,8.59,0,0,0,1.66-3,19,19,0,0,0,.75-6.11v-24.9l-.52-1a32.47,32.47,0,0,0-1.53,4.71q-.62,2.5-1.2,4.84c-.44,1.3-.89,2.71-1.37,4.23s-.89,2.75-1.23,3.7q-.92,2.73-1.69,5.56c-.52,1.88-1,3.73-1.43,5.52s-.83,3.53-1.17,5.2l-1,4.65h-1c-.44-1.26-1-2.93-1.82-5s-1.64-4.35-2.57-6.76-1.91-4.83-2.93-7.28-2-4.66-2.82-6.63-1.62-3.58-2.25-4.84-1-1.88-1.2-1.88v21.9a9.32,9.32,0,0,0,.65,3.7,8.49,8.49,0,0,0,1.56,2.48,8.31,8.31,0,0,0,1.85,1.52c.63.37,1.16.66,1.6.88v1a70.74,70.74,0,0,0-7.41-.39,61.9,61.9,0,0,0-6.83.39v-1c0-.17.25-.4.75-.68a8.75,8.75,0,0,0,1.66-1.3,8.44,8.44,0,0,0,1.65-2.44,9.7,9.7,0,0,0,.75-4.16V309.62a7.77,7.77,0,0,0-1.33-4.65,4.22,4.22,0,0,0-3.41-1.91,15.37,15.37,0,0,0-7,1.95,20.5,20.5,0,0,0-5.85,4.81,25,25,0,0,0-4.1,6.85,25.77,25.77,0,0,0-1.82,8.16,26.22,26.22,0,0,1-.36-2.63c-.06-.85-.09-1.68-.09-2.5a23.93,23.93,0,0,1,1.65-7.28,24.22,24.22,0,0,1,3.81-6.44,26,26,0,0,1,13.45-8.58l1.66-.1,1.59,0a33.33,33.33,0,0,1,9.13,1.14,28.61,28.61,0,0,1,7.51,3.35h.13l-.13.78a2.54,2.54,0,0,0-1.82,1,3.15,3.15,0,0,0-.78,2,26.36,26.36,0,0,0,.42,4.45c.29,1.63.62,3.2,1,4.72.17.69.43,1.56.78,2.6l1.11,3.28c.39,1.15.79,2.3,1.2,3.44s.79,2.18,1.14,3.09.62,1.65.84,2.21a3.27,3.27,0,0,0,.39.85l2.8-7.22q.9-3.18,2-6.73c.71-2.36,1.43-4.72,2.14-7.08s1.42-4.63,2.12-6.79,1.34-4.12,2-5.85h1.1c-.09.73-.19,1.52-.32,2.37a14.4,14.4,0,0,0-.2,2.11q0,1.5,1.11,1.5C231.41,302.54,233.4,302.5,235.44,302.44Z"/><path d="M268.46,338a27.38,27.38,0,0,1-6.25,2.8,22.79,22.79,0,0,1-6.82,1.1,14.27,14.27,0,0,1-3.28-.36,7.36,7.36,0,0,1-2.7-1.2,5.86,5.86,0,0,1-1.82-2.11,6.93,6.93,0,0,1-.65-3.15v-3.19q0-2,0-5.91c0-2.65.06-6.33.1-11.05,0-.52,0-1,0-1.4a4.47,4.47,0,0,0-.23-1.2,6.72,6.72,0,0,0-.55-1.21,14.91,14.91,0,0,0-.94-1.39c-.09-.05-.33-.21-.72-.49s-.81-.61-1.27-1l-1.26-1a2.94,2.94,0,0,1-.65-.58V306h.45c1.56,0,3.11-.05,4.65-.16s3-.24,4.45-.39,2.76-.3,4-.46,2.35-.25,3.35-.29v.52a5.29,5.29,0,0,0-2.34,1,4.52,4.52,0,0,0-1.27,1.69,7.28,7.28,0,0,0-.55,2.11,18.56,18.56,0,0,0-.13,2.18v19.5a4.4,4.4,0,0,0,1.68,3.74,6.6,6.6,0,0,0,4,1.27,10.13,10.13,0,0,0,4.64-1.21,10.9,10.9,0,0,0,4.07-3.67v-19a22.75,22.75,0,0,0-.2-3,6.45,6.45,0,0,0-1.49-3.09,7.61,7.61,0,0,1-.72-.49c-.39-.28-.81-.6-1.27-1s-.87-.71-1.26-1a3.24,3.24,0,0,1-.65-.58v-.65a10,10,0,0,0,3.25.45,20.62,20.62,0,0,0,3.08-.23c1.06-.15,2.1-.31,3.12-.49l2.93-.48a15.89,15.89,0,0,1,2.5-.23v.52a5.82,5.82,0,0,0-2.57,1.17,6.17,6.17,0,0,0-1.56,1.92,7.47,7.47,0,0,0-.74,2.27,14.53,14.53,0,0,0-.2,2.31v23.21a10.62,10.62,0,0,0,.55,4,4.06,4.06,0,0,0,1.37,1.82,4.78,4.78,0,0,0,1.72.75,3.8,3.8,0,0,1,1.63.78v.85c-1.13,0-2.07,0-2.83.06a15.48,15.48,0,0,0-2,.23,12.82,12.82,0,0,0-1.65.42l-1.69.58c-.74.22-1.26.39-1.56.49l-.75.26-.72.26-1.52.56-.07-.85a11.67,11.67,0,0,1,1.82-1.36,14,14,0,0,0,2.15-1.69,8.88,8.88,0,0,0-.17-1.5A2,2,0,0,0,268.46,338Z"/><path d="M286.66,313.59a13.34,13.34,0,0,0-.2-2.25,9.29,9.29,0,0,0-.58-2,4.28,4.28,0,0,0-1-1.49,2.37,2.37,0,0,0-1.63-.59,1.09,1.09,0,0,1-.26,0,3.54,3.54,0,0,0-.52,0,6.12,6.12,0,0,0-2.27.49,2.2,2.2,0,0,0-1.43,1.92l-1,8.84a.89.89,0,0,1-.95-.91c-.06-.61-.14-1.3-.22-2.08s-.17-1.55-.23-2.31-.12-1.31-.16-1.66a10.36,10.36,0,0,0-.59-1.92c-.26-.62-.53-1.23-.81-1.82a15.06,15.06,0,0,1-.72-1.78,6.32,6.32,0,0,1-.29-1.89h.46l.61.23c.29.11.59.2.91.29l.95.26a2.75,2.75,0,0,0,.78.13q3.18.19,6.07.29t6,.1q3.19,0,6.5-.1c2.2-.06,4.42-.18,6.69-.35a6.35,6.35,0,0,0,1.78-.36,5.52,5.52,0,0,0,1.4-.56l.59.07a8.4,8.4,0,0,1-.26,2c-.18.7-.37,1.4-.59,2.12l-.65,2.14a13.2,13.2,0,0,0-.46,2.05c0,.35-.14.9-.29,1.66s-.3,1.53-.45,2.31-.38,1.75-.68,2.92h-1v-3.57c0-1-.05-2-.13-3.09a21.65,21.65,0,0,0-.52-3.29,1.91,1.91,0,0,0-.46-1.13,3,3,0,0,0-.94-.68,3.41,3.41,0,0,0-1.17-.33c-.41,0-.77-.06-1.07-.06a6,6,0,0,0-.62,0l-.42,0a2.08,2.08,0,0,0-1.6.68,5,5,0,0,0-1,1.73,9.38,9.38,0,0,0-.46,2.3c-.06.85-.1,1.66-.1,2.44l-.06,17.36a15,15,0,0,0,.39,3.67,11.31,11.31,0,0,0,1,2.6,7.62,7.62,0,0,0,1.23,1.72,7,7,0,0,0,1.17,1v.45c-1.21-.09-2.47-.16-3.77-.23s-2.58-.09-3.83-.09-2.54,0-3.84.13l-3.9.26v-.52l1.2-.69a5.81,5.81,0,0,0,1.53-1.33,8.16,8.16,0,0,0,1.37-2.53,14.71,14.71,0,0,0,.65-4.42Z"/><path d="M329.62,339.65a3.9,3.9,0,0,0-.39,1.17l-.59,2.37c-.21.89-.44,1.76-.68,2.6a9.16,9.16,0,0,1-.68,1.86c-.48,0-.68-.18-.62-.52a6.41,6.41,0,0,0,.1-1.24c0-.26,0-.63-.06-1.1s-.11-1-.2-1.47a7.34,7.34,0,0,0-.33-1.26c-.13-.35-.3-.52-.52-.52H313c-2.29,0-4.55,0-6.75,0s-4.1-.05-5.66-.09v-.85c0-.26.37-.45,1.1-.58s1.56-.31,2.48-.52a10,10,0,0,0,2.56-1,2.7,2.7,0,0,0,1.4-2.05V324.51c0-.13-.26-.2-.78-.2a6.71,6.71,0,0,0-1,.1c-.43.06-.85.14-1.23.23l-1.05.22a3.76,3.76,0,0,1-.52.1l.78-2.47a.94.94,0,0,1,.56-.58,5.52,5.52,0,0,1,1.14-.46c.43-.13.84-.24,1.23-.32a4.25,4.25,0,0,1,.91-.13V315c0-.56,0-1.17,0-1.82a9.54,9.54,0,0,0-.26-1.92,5.9,5.9,0,0,0-.75-1.75,4,4,0,0,0-1.43-1.33c-.17-.09-.45-.25-.81-.49l-1.17-.78c-.42-.28-.79-.53-1.14-.75a5.85,5.85,0,0,1-.65-.45v-.78c1.73.13,3.51.23,5.33.32s3.55.13,5.2.13q3.06,0,6-.13c2-.09,4.07-.19,6.27-.32a3.45,3.45,0,0,0,.75-.13l.94-.26a5.93,5.93,0,0,0,.82-.3,1.48,1.48,0,0,0,.48-.29l.59.06a7.23,7.23,0,0,1-.26,1.92,17.63,17.63,0,0,1-.62,1.86c-.24.6-.46,1.24-.68,1.91a8.16,8.16,0,0,0-.39,2.05A5.93,5.93,0,0,1,326,313c-.24.59-.5,1.16-.78,1.73s-.54,1.06-.78,1.49-.38.65-.43.65h-.84l.84-7.47v-.59c0-.82-.33-1.31-1-1.46a16.77,16.77,0,0,0-3.29-.23H317a1.06,1.06,0,0,0-1,.78,7.9,7.9,0,0,0-.49,1.95,21.74,21.74,0,0,0-.19,2.54c0,.91,0,1.75,0,2.53V321c0,.13.48.22,1.43.29s2.08.12,3.38.16,2.64.11,4,.2,2.48.19,3.35.32l.91,1c0,.22-.16.42-.49.62a4.9,4.9,0,0,1-1.17.49,13.34,13.34,0,0,1-1.49.32,8.65,8.65,0,0,1-1.4.13,4,4,0,0,1-.72.07h-.58c-.65,0-1.38,0-2.18-.07s-1.7-.06-2.7-.06h-2.34v5.26c.09.65.19,1.45.3,2.41s.21,1.86.32,2.73.23,1.92.36,3.18c0,.22.22.39.52.52a4.25,4.25,0,0,0,1,.29,7,7,0,0,0,1.24.1h1.17c.51,0,1.21,0,2.08-.06a22.69,22.69,0,0,0,2.82-.36,16.27,16.27,0,0,0,3.09-.94,9,9,0,0,0,2.73-1.76h.52Z"/><path class="cls-3" d="M233.84,313.59c1.94-.06,3.84-.16,5.7-.28v.93a5.32,5.32,0,0,0-3,.77,5.06,5.06,0,0,0-1.7,2,8.68,8.68,0,0,0-.75,2.79c-.1,1-.15,2.07-.15,3.1V346a20,20,0,0,0,.31,3.51,11.49,11.49,0,0,0,1,3.16,7.12,7.12,0,0,0,1.77,2.26,3.86,3.86,0,0,0,2.54.87v.93q-4.65-.37-9.24-.37c-1.36,0-2.86,0-4.49.09s-3.13.15-4.5.28v-.93c0-.13.24-.24.72-.34a3.41,3.41,0,0,0,1.58-1.06,8.13,8.13,0,0,0,1.58-2.88,18.31,18.31,0,0,0,.71-5.83V321.93l-.49-.93a31.07,31.07,0,0,0-1.46,4.49c-.39,1.59-.78,3.13-1.15,4.62-.41,1.24-.85,2.59-1.3,4s-.85,2.63-1.18,3.53c-.58,1.74-1.11,3.51-1.61,5.31s-1,3.55-1.36,5.27-.79,3.37-1.12,5-.64,3.07-.93,4.43h-.93q-.62-1.8-1.74-4.81c-.74-2-1.56-4.15-2.44-6.44s-1.82-4.61-2.8-6.95-1.87-4.44-2.69-6.32-1.54-3.42-2.14-4.62-1-1.8-1.15-1.8v20.9a8.93,8.93,0,0,0,.62,3.53,8.17,8.17,0,0,0,1.49,2.35,7.69,7.69,0,0,0,1.77,1.46c.6.35,1.1.63,1.52.84v.93a67.11,67.11,0,0,0-7.07-.37,58.4,58.4,0,0,0-6.51.37v-.93c0-.17.23-.38.71-.65a7.83,7.83,0,0,0,3.16-3.57,9.16,9.16,0,0,0,.72-4V320.44a7.35,7.35,0,0,0-1.28-4.43,4,4,0,0,0-3.25-1.83,14.76,14.76,0,0,0-6.7,1.86,19.85,19.85,0,0,0-5.58,4.59,23.74,23.74,0,0,0-3.9,6.54,24.82,24.82,0,0,0-1.74,7.78,23.84,23.84,0,0,1-.34-2.51c-.06-.81-.09-1.61-.09-2.39a22.67,22.67,0,0,1,1.58-6.94,22.92,22.92,0,0,1,3.63-6.14,24.49,24.49,0,0,1,5.51-4.93,25.12,25.12,0,0,1,7.32-3.26l1.58-.09,1.52,0a32,32,0,0,1,8.71,1.08,27.57,27.57,0,0,1,7.16,3.2h.13l-.13.74a2.38,2.38,0,0,0-1.73,1,3,3,0,0,0-.75,2,24.89,24.89,0,0,0,.41,4.24q.39,2.32,1,4.5c.16.66.41,1.49.74,2.48l1,3.13c.38,1.09.76,2.19,1.15,3.28s.76,2.08,1.09,2.95.59,1.57.8,2.11a3,3,0,0,0,.37.8l2.67-6.88q.87-3,1.89-6.42t2.05-6.75c.68-2.26,1.35-4.41,2-6.48s1.28-3.93,1.86-5.58h1.06c-.09.7-.19,1.45-.31,2.26a13,13,0,0,0-.19,2c0,1,.35,1.43,1,1.43C230,313.68,231.89,313.65,233.84,313.59Z"/><path class="cls-3" d="M265.33,347.47a26.21,26.21,0,0,1-5.95,2.67,21.68,21.68,0,0,1-6.51,1.05,13.53,13.53,0,0,1-3.13-.34,7.08,7.08,0,0,1-2.57-1.15,5.51,5.51,0,0,1-1.74-2,6.61,6.61,0,0,1-.62-3v-3q0-1.86,0-5.64t.1-10.54c0-.5,0-.94,0-1.33a4.49,4.49,0,0,0-.21-1.15,6.83,6.83,0,0,0-.53-1.15,15.74,15.74,0,0,0-.9-1.33c-.08,0-.31-.2-.68-.46s-.78-.58-1.21-.93l-1.21-1a2.93,2.93,0,0,1-.62-.55V317H240c1.49,0,3-.05,4.44-.16s2.88-.22,4.24-.37l3.82-.43c1.18-.15,2.24-.24,3.19-.28v.49a5.18,5.18,0,0,0-2.23,1,4.42,4.42,0,0,0-1.21,1.62,7.25,7.25,0,0,0-.53,2,19.08,19.08,0,0,0-.12,2.08v18.6a4.17,4.17,0,0,0,1.61,3.56,6.22,6.22,0,0,0,3.85,1.21,9.82,9.82,0,0,0,4.43-1.14,10.4,10.4,0,0,0,3.87-3.51v-18.1a22.49,22.49,0,0,0-.18-2.88,6.17,6.17,0,0,0-1.43-3,7.11,7.11,0,0,1-.68-.46c-.37-.27-.78-.58-1.21-.93s-.84-.68-1.21-1a3.15,3.15,0,0,1-.62-.56v-.62a9.49,9.49,0,0,0,3.1.43,20.22,20.22,0,0,0,2.95-.22c1-.14,2-.3,3-.46l2.79-.47a15.58,15.58,0,0,1,2.39-.21v.49a5.5,5.5,0,0,0-2.45,1.12,6,6,0,0,0-1.49,1.83,7.09,7.09,0,0,0-.71,2.17,13.09,13.09,0,0,0-.19,2.2v22.13a10.24,10.24,0,0,0,.53,3.82,3.89,3.89,0,0,0,1.3,1.73,4.87,4.87,0,0,0,1.64.72,3.54,3.54,0,0,1,1.55.74v.8c-1.07,0-2,0-2.69.07a15.64,15.64,0,0,0-1.92.21,11.75,11.75,0,0,0-1.58.41c-.5.16-1,.35-1.62.56s-1.2.36-1.49.46l-.71.25c-.18.06-.41.14-.68.25l-1.46.52-.06-.8a11,11,0,0,1,1.74-1.3,12.52,12.52,0,0,0,2-1.62,8.68,8.68,0,0,0-.15-1.42A1.93,1.93,0,0,0,265.33,347.47Z"/><path class="cls-3" d="M282.69,324.22a13.15,13.15,0,0,0-.18-2.14,8.93,8.93,0,0,0-.56-1.95,4.15,4.15,0,0,0-1-1.43,2.25,2.25,0,0,0-1.55-.56l-.25,0a3.25,3.25,0,0,0-.5,0,6,6,0,0,0-2.17.47,2.12,2.12,0,0,0-1.36,1.83l-1,8.43a.84.84,0,0,1-.9-.87c-.06-.58-.14-1.24-.22-2s-.15-1.48-.22-2.2-.11-1.25-.15-1.59a9.31,9.31,0,0,0-.56-1.82c-.25-.6-.51-1.18-.77-1.74a13.89,13.89,0,0,1-.69-1.71,5.93,5.93,0,0,1-.28-1.79h.44l.59.21a6.83,6.83,0,0,0,.87.28l.89.25a2.89,2.89,0,0,0,.75.12c2,.13,4,.22,5.8.28s3.73.1,5.68.1,4.1,0,6.2-.1,4.22-.17,6.38-.34a6,6,0,0,0,1.7-.34A5.09,5.09,0,0,0,301,315l.56.07a7.67,7.67,0,0,1-.25,1.92c-.16.66-.35,1.33-.56,2s-.41,1.37-.61,2a11.73,11.73,0,0,0-.44,2c0,.34-.13.86-.28,1.58s-.29,1.46-.43,2.21-.36,1.67-.65,2.79h-1v-3.41c0-.91,0-1.9-.12-2.95a20.79,20.79,0,0,0-.49-3.13,1.84,1.84,0,0,0-.44-1.09,3.15,3.15,0,0,0-.9-.65,3.82,3.82,0,0,0-1.11-.31c-.4,0-.74-.06-1-.06a5.68,5.68,0,0,0-.59,0l-.4,0a2,2,0,0,0-1.52.65,4.87,4.87,0,0,0-.93,1.65,8.59,8.59,0,0,0-.43,2.2c-.06.8-.1,1.58-.1,2.32l-.06,16.56a14.73,14.73,0,0,0,.37,3.5,10.91,10.91,0,0,0,.93,2.48,7.47,7.47,0,0,0,1.18,1.64,6.27,6.27,0,0,0,1.12.93v.44c-1.16-.08-2.36-.16-3.6-.22s-2.46-.09-3.66-.09-2.41,0-3.65.12l-3.72.25V350l1.14-.65a5.5,5.5,0,0,0,1.46-1.27,7.57,7.57,0,0,0,1.3-2.42,13.48,13.48,0,0,0,.62-4.21Z"/><path class="cls-3" d="M323.67,349.08a4.34,4.34,0,0,0-.37,1.12c-.16.66-.35,1.42-.56,2.26s-.42,1.68-.65,2.48a8.13,8.13,0,0,1-.65,1.77c-.45,0-.65-.17-.59-.5A6.54,6.54,0,0,0,321,355c0-.25,0-.6-.07-1.06s-.1-.92-.18-1.39a7.8,7.8,0,0,0-.31-1.21c-.13-.33-.29-.5-.5-.5h-12q-3.28,0-6.44,0t-5.4-.09V350c0-.25.35-.43,1.06-.56s1.48-.29,2.35-.49a9.47,9.47,0,0,0,2.45-1,2.57,2.57,0,0,0,1.33-2V334.64c0-.13-.24-.19-.74-.19a7.17,7.17,0,0,0-1,.09c-.42.07-.81.14-1.18.22l-1,.22-.5.09.75-2.36a.88.88,0,0,1,.52-.55,5.88,5.88,0,0,1,1.09-.44c.41-.12.8-.22,1.18-.31a4.41,4.41,0,0,1,.86-.12v-5.77c0-.53,0-1.11,0-1.73a8.67,8.67,0,0,0-.25-1.83,5.42,5.42,0,0,0-.71-1.68,3.87,3.87,0,0,0-1.36-1.27,7,7,0,0,1-.78-.46L299,317.8l-1.09-.71a4.92,4.92,0,0,1-.62-.43v-.75c1.65.13,3.35.23,5.09.31s3.38.13,5,.13c1.94,0,3.85,0,5.73-.13s3.88-.18,6-.31a3.11,3.11,0,0,0,.72-.12l.9-.25a4.94,4.94,0,0,0,.77-.28,1.55,1.55,0,0,0,.47-.28l.55.06a7,7,0,0,1-.24,1.83c-.17.6-.37,1.19-.59,1.77s-.45,1.19-.65,1.83a7.74,7.74,0,0,0-.38,1.95,5.58,5.58,0,0,1-.4,1.27c-.23.56-.47,1.11-.74,1.65s-.52,1-.75,1.42-.36.62-.4.62h-.81l.81-7.13v-.55a1.24,1.24,0,0,0-1-1.4,16.21,16.21,0,0,0-3.13-.22h-2.61a1,1,0,0,0-.93.75,7.64,7.64,0,0,0-.46,1.86,19.65,19.65,0,0,0-.19,2.42c0,.86,0,1.67,0,2.41v5.77c0,.12.46.22,1.37.28s2,.11,3.22.15,2.51.11,3.81.19,2.37.19,3.2.31l.86,1c0,.21-.15.4-.46.59a4.66,4.66,0,0,1-1.12.47c-.43.12-.91.22-1.42.31a8.93,8.93,0,0,1-1.34.12,3.51,3.51,0,0,1-.68.06h-.56q-.93,0-2.07-.06t-2.58-.06H310v5c.08.62.18,1.38.28,2.29s.21,1.78.31,2.61.22,1.84.34,3a.74.74,0,0,0,.5.49,4.44,4.44,0,0,0,1,.28,7.34,7.34,0,0,0,1.18.09h1.11c.5,0,1.16,0,2-.06a19.14,19.14,0,0,0,2.7-.34,15.44,15.44,0,0,0,2.94-.9,8.47,8.47,0,0,0,2.6-1.67h.5Z"/><ellipse cx="338.74" cy="328.79" rx="4.26" ry="4.25" transform="translate(-33.92 39.01) rotate(-6.28)"/><circle class="cls-3" cx="338.08" cy="328.98" r="3.57"/><ellipse cx="338.74" cy="347.79" rx="4.26" ry="4.25" transform="translate(-36 39.13) rotate(-6.28)"/><circle class="cls-3" cx="338.08" cy="347.98" r="3.57"/><path d="M201.16,554.26l6.57,21,2.79-7.21c.17-.7.47-1.79.88-3.29s.82-3,1.23-4.68.78-3.15,1.11-4.58a16.63,16.63,0,0,0,.49-3,5.23,5.23,0,0,0-.36-2.11,3.64,3.64,0,0,0-.91-1.3,3.82,3.82,0,0,0-1.17-.72,9.6,9.6,0,0,0-1.14-.35l-.13-.85c.95.09,1.84.15,2.67.2l2.4.13q1.17.06,2.34.06h4.49a.76.76,0,0,0,.39-.06.71.71,0,0,1,.35-.13c.2,0,.79-.11,1.79-.2v1a4.88,4.88,0,0,0-3.22,1.17,11.34,11.34,0,0,0-2.56,3.31,33,33,0,0,0-2.21,5.23c-.7,2.06-1.41,4.37-2.15,6.93-.39,1.3-.83,2.7-1.33,4.22s-.92,2.75-1.27,3.71a102.4,102.4,0,0,0-3.12,11.08c-.82,3.7-1.54,7-2.14,9.85h-1L188.88,548c0-.13.32-.3,1-.52s1.35-.43,2.11-.65,1.47-.41,2.12-.58a3.14,3.14,0,0,0,1-.33h-.13a16,16,0,0,0-7.31,1.76,20.71,20.71,0,0,0-6.15,4.74,24.77,24.77,0,0,0-4.32,7,25.42,25.42,0,0,0-1.91,8.38,21.48,21.48,0,0,1-.36-2.63c-.07-.85-.1-1.68-.1-2.5a28.45,28.45,0,0,1,1.63-7.84,20.91,20.91,0,0,1,4-6.79,19.36,19.36,0,0,1,6.6-4.78,22.83,22.83,0,0,1,9.43-1.78c.73,0,1.48,0,2.24.09l2.37.23.07.78a1,1,0,0,0-.78.39,3.25,3.25,0,0,0-.53.91,7.3,7.3,0,0,0-.29,1.14,8.28,8.28,0,0,0-.09,1.2,9.11,9.11,0,0,0,.19,1.56c.13.69.28,1.44.46,2.24s.35,1.6.55,2.38S201,553.74,201.16,554.26Z"/><path d="M222.29,571.35a23.88,23.88,0,0,1,1.56-9.23,19.74,19.74,0,0,1,4.22-6.43,16.55,16.55,0,0,1,6.31-4,19.22,19.22,0,0,1,7.15-1.37,9.34,9.34,0,0,1,4.35.91,14.27,14.27,0,0,1,4,2.54,20.75,20.75,0,0,1,2.79,4.42,17.46,17.46,0,0,1,1,6.24,29.24,29.24,0,0,1-.52,6.5,40.91,40.91,0,0,1-2,6,33.51,33.51,0,0,1-3.51,5.14,14,14,0,0,1-5.13,3.25,23.27,23.27,0,0,1-10.21.91,7.38,7.38,0,0,1-3.9-1.37,6.06,6.06,0,0,1-3.05-2.79,19.94,19.94,0,0,1-2.34-4.42A27.63,27.63,0,0,1,222.29,571.35Zm7.15.59a13.23,13.23,0,0,0,.71,4.35,10.42,10.42,0,0,0,1.89,3.25,6.15,6.15,0,0,0,2.53,2.15,7.08,7.08,0,0,0,3.06.65,5.46,5.46,0,0,0,4.09-1.69,12.92,12.92,0,0,0,2.8-3.64,37.45,37.45,0,0,0,1.62-5.33c.3-2.82.46-4.75.46-5.79,0-.65,0-1.32-.1-2s-.1-1.43-.1-2.21c-.17-.74-.56-2.13-1.17-4.16a17.79,17.79,0,0,0-1.88-3.25,5.36,5.36,0,0,0-3.06-1.17,6.63,6.63,0,0,0-3.44,1.17,11.47,11.47,0,0,0-3.45,3.25,21.84,21.84,0,0,0-2.73,6A27.76,27.76,0,0,0,229.44,571.94Z"/><path d="M259.27,566.15q0-9.55-1.89-12a4.19,4.19,0,0,0-.74-.49l-1.3-.74-1.27-.72a5.47,5.47,0,0,1-.72-.45V551c1.3,0,2.5-.1,3.58-.17s2.19-.18,3.31-.35h11.44l.07.71a6.59,6.59,0,0,0-3.15,1.46,7.11,7.11,0,0,0-1.82,2.47,10.65,10.65,0,0,0-.82,2.93,22,22,0,0,0-.19,2.76c0,3.86,0,6.92.1,9.2s.15,4.11.26,5.49.21,2.5.32,3.35.21,1.77.29,2.76L263,583.31l8.39-1.62a2.53,2.53,0,0,0,.88-.23,4,4,0,0,1,1.07-.29l2.08-.26c.61-.09,1.15-.16,1.62-.2s.94-.06,1.37-.06a18.2,18.2,0,0,0,3.18-.23,4.16,4.16,0,0,0,2.28-1.33h.58v.06a1.65,1.65,0,0,1-.35.59c-.24.3-.49.64-.75,1s-.51.74-.75,1.11a1.82,1.82,0,0,0-.36.81,6.3,6.3,0,0,0-1,2.31c-.29,1.06-.53,2.14-.75,3.25s-.4,2.07-.55,2.89-.27,1.24-.36,1.24h-.84v-1.3c0-.52,0-1,0-1.6a8.81,8.81,0,0,0-.16-1.46,3,3,0,0,0-.42-1.07.89.89,0,0,0-.75-.42h-.2l-3.51.35a33.39,33.39,0,0,1-3.38.17c-.34,0-.7,0-1.07,0s-.72-.05-1.07-.09a7.32,7.32,0,0,1-2.24-.52,9.08,9.08,0,0,0-2.51-.59,7.22,7.22,0,0,0-1.65.23,8.81,8.81,0,0,1-2,.23c-1.47,0-3,0-4.62.16a38.86,38.86,0,0,0-4.22.49v-.72c0-.17.35-.35,1-.52s1.51-.42,2.44-.75a13.59,13.59,0,0,0,2.73-1.3,4.66,4.66,0,0,0,1.91-2.17q.13-2.67.23-5.92t.1-6Z"/><path d="M311.4,583a27.92,27.92,0,0,1-6.24,2.79,22.61,22.61,0,0,1-6.83,1.11,14.27,14.27,0,0,1-3.28-.36,7.53,7.53,0,0,1-2.7-1.2,6,6,0,0,1-1.82-2.12,6.87,6.87,0,0,1-.65-3.15v-3.18c0-1.3,0-3.28,0-5.92s.05-6.33.09-11.05c0-.52,0-1,0-1.4a4.47,4.47,0,0,0-.23-1.2,6.35,6.35,0,0,0-.55-1.2,14.92,14.92,0,0,0-.94-1.4,5.93,5.93,0,0,1-.72-.49c-.39-.28-.81-.6-1.26-1s-.88-.71-1.27-1a3.24,3.24,0,0,1-.65-.58V551h.45c1.56,0,3.11-.06,4.65-.17s3-.23,4.45-.39,2.77-.3,4-.45,2.35-.25,3.35-.29v.52a5.18,5.18,0,0,0-2.34,1,4.55,4.55,0,0,0-1.27,1.69,7.53,7.53,0,0,0-.55,2.11,18.44,18.44,0,0,0-.13,2.18v19.5a4.36,4.36,0,0,0,1.69,3.73,6.5,6.5,0,0,0,4,1.27,10.28,10.28,0,0,0,4.65-1.2,11,11,0,0,0,4.06-3.67v-19a23,23,0,0,0-.2-3,6.38,6.38,0,0,0-1.49-3.08c-.09,0-.33-.21-.72-.49s-.81-.61-1.26-1l-1.27-1a3.14,3.14,0,0,1-.65-.59v-.65a10,10,0,0,0,3.25.46,22.3,22.3,0,0,0,3.09-.23c1.06-.15,2.1-.32,3.12-.49l2.92-.49a15.88,15.88,0,0,1,2.5-.22v.52a5.56,5.56,0,0,0-2.56,1.17,6,6,0,0,0-1.56,1.91,7.64,7.64,0,0,0-.75,2.28,14.43,14.43,0,0,0-.2,2.31v23.2a10.65,10.65,0,0,0,.56,4,4.09,4.09,0,0,0,1.36,1.82,4.85,4.85,0,0,0,1.72.75,3.8,3.8,0,0,1,1.63.78v.84c-1.13,0-2.07,0-2.83.07a17.15,17.15,0,0,0-2,.22,11.5,11.5,0,0,0-1.66.43c-.52.17-1.09.36-1.69.58s-1.26.38-1.56.49l-.75.26-.71.26-1.53.55-.07-.84a12.09,12.09,0,0,1,1.82-1.37,13,13,0,0,0,2.15-1.69,9.62,9.62,0,0,0-.16-1.49A1.94,1.94,0,0,0,311.4,583Z"/><path d="M352.71,547.66a10.06,10.06,0,0,0-.3,2c0,.52.22.78.65.78h8.84v.78a13,13,0,0,0-2.5,1.2,5,5,0,0,0-1.46,1.43,5.27,5.27,0,0,0-.72,1.95,16.29,16.29,0,0,0-.19,2.7V578c0,.91,0,1.81.1,2.7a6.66,6.66,0,0,0,.58,2.37,4.2,4.2,0,0,0,1.5,1.72,5.71,5.71,0,0,0,2.82.82v.71c-1.38-.09-2.76-.15-4.12-.19s-2.74-.07-4.13-.07-2.59,0-4,.07-2.74.1-4,.19v-.71a3.47,3.47,0,0,0,2.05-.88,5.34,5.34,0,0,0,1.3-1.92,9.48,9.48,0,0,0,.65-2.63,27,27,0,0,0,.16-3v-19.5l-.45-.85-7.09,19a49.26,49.26,0,0,0-1,7c-.13,2.14-.3,4.39-.52,6.73h-.85a13.58,13.58,0,0,1-.42-2.7c-.11-1.28-.27-2.72-.49-4.32a45,45,0,0,0-.94-4.91,15.13,15.13,0,0,0-1.79-4.39l-8-16.31v21a5.8,5.8,0,0,0,1.85,4.45,10.61,10.61,0,0,0,4.39,2.44v.72a7.87,7.87,0,0,0-1.11-.07h-1.17l-6,.65c-.86,0-1.79,0-2.79.07s-2,.1-3,.19v-.71a5.82,5.82,0,0,0,2.08-.91,4,4,0,0,0,1.2-1.43,7.27,7.27,0,0,0,.62-2,19.83,19.83,0,0,0,.26-2.5V556.34a7.4,7.4,0,0,0-.07-.91,3.48,3.48,0,0,0-.45-1.3,5.91,5.91,0,0,0-1.24-1.5,9,9,0,0,0-2.4-1.49v-.65q4,.39,8.19.39c2.81,0,5.7-.13,8.64-.39l-.06,1.17a4,4,0,0,0-1.11.19,6.84,6.84,0,0,0-1.26.52,4.74,4.74,0,0,0-1,.72,1.12,1.12,0,0,0-.43.84,10.13,10.13,0,0,0,1,3.9q1,2.34,2.31,4.75t2.34,4.45a9.94,9.94,0,0,1,1.2,3.09,36.06,36.06,0,0,0,2.47-4.2c.78-1.53,1.54-3.15,2.28-4.84s1.49-3.43,2.27-5.23,1.61-3.61,2.47-5.43c.31-.61.61-1.27.91-2s.59-1.4.85-2.05.46-1.2.62-1.66a3.69,3.69,0,0,0,.22-.87h1C353.19,545.5,352.9,546.77,352.71,547.66Z"/><path d="M389.72,584.68a4.32,4.32,0,0,0-.39,1.17c-.17.69-.37,1.48-.58,2.37s-.45,1.75-.68,2.6a9.16,9.16,0,0,1-.69,1.85c-.47,0-.68-.17-.61-.52a7.37,7.37,0,0,0,.09-1.23q0-.39-.06-1.11c-.05-.48-.11-1-.2-1.46a6.69,6.69,0,0,0-.32-1.27c-.13-.35-.31-.52-.52-.52H373.15q-3.45,0-6.76,0c-2.21,0-4.1-.06-5.66-.1v-.84c0-.26.37-.46,1.11-.59s1.56-.3,2.47-.52a9.83,9.83,0,0,0,2.57-1,2.65,2.65,0,0,0,1.39-2v-11.9c0-.13-.26-.19-.78-.19a8.07,8.07,0,0,0-1,.09c-.43.07-.84.14-1.23.23l-1,.23-.52.1.78-2.47a.94.94,0,0,1,.55-.59,6.77,6.77,0,0,1,1.14-.45q.64-.19,1.23-.33a4.33,4.33,0,0,1,.91-.13v-6c0-.57,0-1.17,0-1.82a9.54,9.54,0,0,0-.26-1.92,5.71,5.71,0,0,0-.75-1.76,4,4,0,0,0-1.43-1.33c-.17-.09-.44-.25-.81-.49s-.76-.49-1.17-.78-.79-.53-1.14-.74a5.15,5.15,0,0,1-.65-.46v-.78c1.74.13,3.51.24,5.33.33s3.56.13,5.2.13c2,0,4-.05,6-.13s4.06-.2,6.27-.33a3.07,3.07,0,0,0,.75-.13l.94-.26a6.31,6.31,0,0,0,.81-.29,2.07,2.07,0,0,0,.49-.29l.58.06a7,7,0,0,1-.26,1.92c-.17.63-.38,1.24-.61,1.85s-.47,1.25-.69,1.92a9,9,0,0,0-.39,2.05,6.09,6.09,0,0,1-.42,1.33c-.24.58-.5,1.16-.78,1.72s-.54,1.06-.78,1.5a2.44,2.44,0,0,1-.42.65h-.85l.85-7.48v-.58a1.31,1.31,0,0,0-1-1.47,16.91,16.91,0,0,0-3.28-.22h-2.73a1.07,1.07,0,0,0-1,.78,7.93,7.93,0,0,0-.48,1.95,21.47,21.47,0,0,0-.2,2.53c0,.91,0,1.76,0,2.54v6c0,.13.47.23,1.43.29s2.08.12,3.38.17,2.63.1,4,.19,2.48.2,3.34.33l.91,1c0,.21-.16.42-.48.61a4.84,4.84,0,0,1-1.17.49,14,14,0,0,1-1.5.33,10,10,0,0,1-1.4.13,3.84,3.84,0,0,1-.71.06h-.59c-.65,0-1.37,0-2.17-.06s-1.7-.07-2.7-.07h-2.34v5.27c.09.65.18,1.45.29,2.4s.22,1.86.33,2.73.22,1.93.35,3.19a.81.81,0,0,0,.52.52,4.91,4.91,0,0,0,1,.29,8.19,8.19,0,0,0,1.24.1h1.17c.52,0,1.21,0,2.08-.07a19.39,19.39,0,0,0,2.83-.36,15.69,15.69,0,0,0,3.08-.94,9,9,0,0,0,2.73-1.75h.52Z"/><path class="cls-3" d="M203.94,562.91l6.27,20,2.66-6.88c.17-.66.44-1.71.84-3.13s.78-2.92,1.18-4.47.74-3,1.05-4.37a15.09,15.09,0,0,0,.46-2.85,5,5,0,0,0-.34-2,3.47,3.47,0,0,0-.86-1.24,3.78,3.78,0,0,0-1.12-.68A11,11,0,0,0,213,557l-.12-.8c.91.08,1.76.14,2.54.18l2.3.13c.74,0,1.48.06,2.23.06h4.28a.67.67,0,0,0,.37-.06.66.66,0,0,1,.34-.13c.19,0,.75-.1,1.7-.18v.93a4.63,4.63,0,0,0-3.06,1.11,10.86,10.86,0,0,0-2.45,3.16,31.2,31.2,0,0,0-2.11,5q-1,3-2,6.61c-.37,1.24-.79,2.58-1.27,4s-.88,2.62-1.21,3.53a98.79,98.79,0,0,0-3,10.57q-1.19,5.31-2,9.4h-.93L192.22,556.9c0-.12.32-.29.93-.5s1.3-.41,2-.62l2-.55a3.59,3.59,0,0,0,.94-.31H198a15.2,15.2,0,0,0-7,1.67,19.44,19.44,0,0,0-5.86,4.53,23.5,23.5,0,0,0-4.13,6.63,24.24,24.24,0,0,0-1.82,8,24,24,0,0,1-.35-2.51c-.06-.81-.09-1.6-.09-2.39a27.31,27.31,0,0,1,1.55-7.47,19.94,19.94,0,0,1,3.81-6.48,18.3,18.3,0,0,1,6.3-4.56,21.82,21.82,0,0,1,9-1.7c.7,0,1.41,0,2.14.09s1.47.14,2.26.22l.06.74a.94.94,0,0,0-.74.37,2.87,2.87,0,0,0-.5.87,5.6,5.6,0,0,0-.28,1.09,7.49,7.49,0,0,0-.09,1.14,8.28,8.28,0,0,0,.19,1.49c.12.66.26,1.38.43,2.14s.34,1.52.53,2.26S203.78,562.42,203.94,562.91Z"/><path class="cls-3" d="M224.09,579.22a22.77,22.77,0,0,1,1.49-8.8,18.94,18.94,0,0,1,4-6.14,15.93,15.93,0,0,1,6-3.85,18.44,18.44,0,0,1,6.81-1.3,9,9,0,0,1,4.16.87,13.46,13.46,0,0,1,3.78,2.42,20.12,20.12,0,0,1,2.67,4.21,16.72,16.72,0,0,1,.93,6,27.51,27.51,0,0,1-.5,6.2,39.53,39.53,0,0,1-1.92,5.76,32.08,32.08,0,0,1-3.35,4.9,13.24,13.24,0,0,1-4.9,3.1,22.18,22.18,0,0,1-9.73.87,7.11,7.11,0,0,1-3.72-1.3,5.89,5.89,0,0,1-2.92-2.67,19.57,19.57,0,0,1-2.23-4.22A26.76,26.76,0,0,1,224.09,579.22Zm6.82.56a12.8,12.8,0,0,0,.68,4.15,9.94,9.94,0,0,0,1.8,3.1,6,6,0,0,0,2.42,2.05,6.74,6.74,0,0,0,2.91.62,5.21,5.21,0,0,0,3.91-1.61,12.18,12.18,0,0,0,2.67-3.48,34.48,34.48,0,0,0,1.55-5.08c.28-2.69.43-4.53.43-5.52q0-.93-.09-1.92c-.06-.66-.1-1.36-.1-2.11-.16-.7-.53-2-1.11-4a18.09,18.09,0,0,0-1.8-3.1,5.07,5.07,0,0,0-2.91-1.11,6.37,6.37,0,0,0-3.29,1.11,11.27,11.27,0,0,0-3.29,3.1,21,21,0,0,0-2.6,5.77A26.23,26.23,0,0,0,230.91,579.78Z"/><path class="cls-3" d="M259.37,574.26q0-9.12-1.8-11.41a4.27,4.27,0,0,0-.71-.46l-1.24-.72-1.21-.68a3.7,3.7,0,0,1-.68-.43v-.75c1.24,0,2.37-.09,3.41-.15s2.08-.18,3.16-.34h10.91l.06.68a6.25,6.25,0,0,0-3,1.39,6.83,6.83,0,0,0-1.74,2.36,10,10,0,0,0-.77,2.79,20,20,0,0,0-.19,2.64c0,3.67,0,6.6.09,8.77s.15,3.92.25,5.24.21,2.38.31,3.19.2,1.69.28,2.64l-3.6,1.61,8-1.55a2.26,2.26,0,0,0,.84-.22,4.1,4.1,0,0,1,1-.28l2-.25c.57-.08,1.09-.14,1.54-.18s.89-.06,1.31-.06a17.82,17.82,0,0,0,3-.22,4.06,4.06,0,0,0,2.17-1.27h.55v.06a1.46,1.46,0,0,1-.34.56c-.23.29-.46.61-.71,1s-.49.7-.71,1.05a1.68,1.68,0,0,0-.34.78,5.84,5.84,0,0,0-1,2.2c-.26,1-.5,2-.71,3.1s-.38,2-.53,2.76-.25,1.18-.34,1.18h-.8V598c0-.5,0-1,0-1.52a9.17,9.17,0,0,0-.16-1.4,2.79,2.79,0,0,0-.4-1,.84.84,0,0,0-.71-.4h-.19l-3.35.34c-1,.1-2.11.15-3.22.15l-1,0q-.52,0-1-.09a6.81,6.81,0,0,1-2.14-.5,8.77,8.77,0,0,0-2.38-.56,7.17,7.17,0,0,0-1.59.22,8,8,0,0,1-1.95.22c-1.4,0-2.87.05-4.4.15a38.45,38.45,0,0,0-4,.47v-.68c0-.17.33-.33,1-.5s1.44-.4,2.33-.71a14.33,14.33,0,0,0,2.6-1.24,4.43,4.43,0,0,0,1.83-2.08c.08-1.69.15-3.58.22-5.64s.09-4,.09-5.77Z"/><path class="cls-3" d="M309.09,590.32a26.2,26.2,0,0,1-5.95,2.66,21.39,21.39,0,0,1-6.51,1.06,14.1,14.1,0,0,1-3.13-.34,7.08,7.08,0,0,1-2.57-1.15,5.54,5.54,0,0,1-1.74-2,6.54,6.54,0,0,1-.62-3v-3q0-1.86,0-5.64c0-2.52,0-6,.1-10.54,0-.5,0-.94,0-1.34a4.41,4.41,0,0,0-.21-1.14,6.49,6.49,0,0,0-.53-1.15,14.28,14.28,0,0,0-.9-1.33c-.08,0-.31-.2-.68-.47s-.78-.58-1.21-.93l-1.21-1a2.84,2.84,0,0,1-.62-.56v-.62h.43q2.24,0,4.44-.15c1.46-.1,2.88-.23,4.24-.37s2.64-.29,3.82-.44,2.24-.23,3.19-.28v.5a5.18,5.18,0,0,0-2.23,1,4.39,4.39,0,0,0-1.21,1.61,7.32,7.32,0,0,0-.53,2,18.8,18.8,0,0,0-.12,2.08v18.6a4.17,4.17,0,0,0,1.61,3.56,6.22,6.22,0,0,0,3.85,1.21,9.71,9.71,0,0,0,4.43-1.15,10.29,10.29,0,0,0,3.87-3.5v-18.1a22.53,22.53,0,0,0-.18-2.89,6.14,6.14,0,0,0-1.43-2.94c-.08,0-.31-.2-.68-.47s-.78-.58-1.21-.93l-1.21-1a2.84,2.84,0,0,1-.62-.56V557a9.47,9.47,0,0,0,3.1.44,20.22,20.22,0,0,0,2.95-.22c1-.14,2-.3,3-.46l2.79-.47a15.7,15.7,0,0,1,2.39-.22v.5a5.5,5.5,0,0,0-2.45,1.12,5.83,5.83,0,0,0-1.49,1.82,7.24,7.24,0,0,0-.71,2.18,13,13,0,0,0-.19,2.2V586a10.15,10.15,0,0,0,.53,3.81,3.87,3.87,0,0,0,1.3,1.74,4.65,4.65,0,0,0,1.64.71,3.56,3.56,0,0,1,1.55.75v.8c-1.07,0-2,0-2.69.06a17.68,17.68,0,0,0-1.92.22,11.76,11.76,0,0,0-1.58.4l-1.62.56c-.7.21-1.2.36-1.49.47l-.71.24-.68.25c-.27.11-.75.28-1.46.53l-.06-.81a11.63,11.63,0,0,1,1.74-1.3,12.51,12.51,0,0,0,2-1.61,8.79,8.79,0,0,0-.15-1.43A1.89,1.89,0,0,0,309.09,590.32Z"/><path class="cls-3" d="M348.49,556.62a10.38,10.38,0,0,0-.28,1.89c0,.5.21.75.62.75h8.44V560a11.62,11.62,0,0,0-2.39,1.15,4.56,4.56,0,0,0-1.4,1.36,5.13,5.13,0,0,0-.68,1.86,15.9,15.9,0,0,0-.18,2.57v18.6q0,1.31.09,2.58a6.36,6.36,0,0,0,.56,2.26,4,4,0,0,0,1.42,1.64,5.51,5.51,0,0,0,2.7.78v.68c-1.32-.08-2.63-.15-3.94-.19s-2.61-.06-3.93-.06-2.47,0-3.82.06-2.61.11-3.81.19v-.68a3.29,3.29,0,0,0,1.95-.84,5,5,0,0,0,1.24-1.83,9,9,0,0,0,.62-2.51,24.52,24.52,0,0,0,.16-2.88v-18.6l-.44-.81-6.75,18.11a45.75,45.75,0,0,0-.93,6.66c-.13,2-.29,4.19-.5,6.42h-.81a12.89,12.89,0,0,1-.4-2.58c-.1-1.21-.26-2.59-.46-4.12a45.79,45.79,0,0,0-.9-4.68A14.48,14.48,0,0,0,333,581l-7.62-15.57v20a5.57,5.57,0,0,0,1.76,4.25,10.1,10.1,0,0,0,4.19,2.32v.68a8.78,8.78,0,0,0-1.06-.06h-1.11l-5.71.62c-.82,0-1.71,0-2.66.06s-1.9.11-2.85.19v-.68a5.68,5.68,0,0,0,2-.87,3.84,3.84,0,0,0,1.15-1.36,7,7,0,0,0,.59-1.9,20.13,20.13,0,0,0,.24-2.38V564.9a8.61,8.61,0,0,0-.06-.87,3.4,3.4,0,0,0-.43-1.24,5.77,5.77,0,0,0-1.18-1.43,8.89,8.89,0,0,0-2.29-1.42v-.62q3.78.38,7.81.37t8.25-.37l-.07,1.11a3.91,3.91,0,0,0-1.05.19,6.06,6.06,0,0,0-1.21.5,4.42,4.42,0,0,0-1,.68,1.1,1.1,0,0,0-.41.8,9.42,9.42,0,0,0,1,3.72q1,2.23,2.2,4.53c.8,1.53,1.55,2.94,2.23,4.25a10.18,10.18,0,0,1,1.15,2.94,34.87,34.87,0,0,0,2.35-4q1.13-2.19,2.17-4.62t2.17-5c.75-1.71,1.53-3.44,2.36-5.17.29-.58.58-1.21.87-1.9s.56-1.33.8-2,.45-1.15.59-1.58a3.36,3.36,0,0,0,.22-.84h1C349,554.57,348.68,555.77,348.49,556.62Z"/><path class="cls-3" d="M383.8,591.93a3.69,3.69,0,0,0-.37,1.12c-.17.66-.35,1.41-.56,2.26s-.42,1.67-.65,2.48a9.19,9.19,0,0,1-.65,1.77c-.45,0-.65-.17-.59-.5a6.67,6.67,0,0,0,.09-1.18q0-.37-.06-1c0-.46-.1-.92-.18-1.4a8.11,8.11,0,0,0-.31-1.21c-.13-.33-.29-.49-.5-.49H368q-3.28,0-6.45,0c-2.1,0-3.9-.05-5.39-.1v-.8c0-.25.35-.44,1.05-.56s1.49-.29,2.36-.5a8.93,8.93,0,0,0,2.45-1,2.54,2.54,0,0,0,1.33-1.95V577.48c0-.12-.25-.18-.74-.18a7.17,7.17,0,0,0-1,.09c-.42.06-.81.14-1.18.22l-1,.21a3.78,3.78,0,0,1-.5.1l.74-2.36a.93.93,0,0,1,.53-.56,5.9,5.9,0,0,1,1.09-.43c.41-.12.8-.23,1.17-.31a4.49,4.49,0,0,1,.87-.12v-5.77q0-.81,0-1.74a8.67,8.67,0,0,0-.25-1.83,5.47,5.47,0,0,0-.71-1.67,3.87,3.87,0,0,0-1.36-1.27,7.49,7.49,0,0,1-.78-.47c-.35-.22-.72-.47-1.11-.74s-.76-.51-1.09-.71a3.83,3.83,0,0,1-.62-.44v-.74c1.65.12,3.35.23,5.08.31s3.39.12,5,.12c1.95,0,3.86,0,5.74-.12s3.87-.19,6-.31a3.19,3.19,0,0,0,.72-.12l.89-.25a5.85,5.85,0,0,0,.78-.28,1.54,1.54,0,0,0,.46-.28l.56.06a6.68,6.68,0,0,1-.25,1.83,16,16,0,0,1-.59,1.77c-.22.58-.44,1.19-.65,1.83a8.19,8.19,0,0,0-.37,1.95,5.74,5.74,0,0,1-.4,1.27c-.23.56-.48,1.11-.75,1.64s-.51,1-.74,1.43a2.32,2.32,0,0,1-.4.62h-.81l.81-7.13v-.56a1.23,1.23,0,0,0-1-1.39,15.43,15.43,0,0,0-3.13-.22h-2.61a1,1,0,0,0-.93.74,7.43,7.43,0,0,0-.46,1.86,19.81,19.81,0,0,0-.19,2.42c0,.87,0,1.68,0,2.42v5.77c0,.12.45.21,1.36.28s2,.11,3.23.15,2.51.1,3.81.19,2.37.18,3.19.31l.87,1c0,.2-.15.4-.46.59a4.66,4.66,0,0,1-1.12.46,10.5,10.5,0,0,1-1.43.31,9,9,0,0,1-1.33.13,3.58,3.58,0,0,1-.68.06H377q-.93,0-2.07-.06c-.77,0-1.63-.07-2.58-.07H370.1v5c.08.62.18,1.38.28,2.29s.21,1.78.31,2.6.22,1.84.34,3c0,.21.21.37.5.5a4.86,4.86,0,0,0,1,.28,7.34,7.34,0,0,0,1.18.09h1.11c.5,0,1.16,0,2-.06a20.39,20.39,0,0,0,2.69-.34,15.53,15.53,0,0,0,2.95-.9,8.49,8.49,0,0,0,2.6-1.68h.5Z"/><ellipse cx="390.74" cy="474.79" rx="4.26" ry="4.25" transform="translate(-49.58 45.58) rotate(-6.28)"/><circle class="cls-3" cx="390.08" cy="474.98" r="3.57"/><ellipse cx="390.74" cy="459.79" rx="4.26" ry="4.25" transform="translate(-47.94 45.49) rotate(-6.28)"/><circle class="cls-3" cx="390.08" cy="459.98" r="3.57"/><ellipse cx="111.41" cy="201.67" rx="90.79" ry="91.33" transform="translate(-71.88 62.07) rotate(-23.79)"/><ellipse cx="169.79" cy="175.94" rx="84.59" ry="91.33" transform="translate(-56.54 83.44) rotate(-23.79)"/><ellipse cx="113.39" cy="202" rx="85.5" ry="86.01" transform="translate(-71.85 62.9) rotate(-23.79)"/><ellipse cx="168.37" cy="177.77" rx="79.67" ry="86.01" transform="translate(-57.4 83.02) rotate(-23.79)"/><ellipse cx="115.36" cy="202.33" rx="80.22" ry="80.69" transform="translate(-71.81 63.72) rotate(-23.79)"/><ellipse cx="166.95" cy="179.59" rx="74.74" ry="80.69" transform="translate(-58.26 82.6) rotate(-23.79)"/><circle class="cls-5" cx="101.99" cy="213.9" r="90.6"/><ellipse class="cls-5" cx="160.26" cy="188.22" rx="84.42" ry="90.6" transform="translate(-62.3 80.63) rotate(-23.79)"/><circle class="cls-6" cx="103.97" cy="214.23" r="85.33"/><ellipse class="cls-6" cx="158.84" cy="190.04" rx="79.5" ry="85.33" transform="translate(-63.16 80.21) rotate(-23.79)"/><circle class="cls-7" cx="105.94" cy="214.55" r="80.05"/><ellipse class="cls-7" cx="157.42" cy="191.86" rx="74.58" ry="80.05" transform="translate(-64.01 79.8) rotate(-23.79)"/><polygon class="cls-8" points="31.17 86.13 64.94 104.83 98.72 123.53 85.43 107.68 72.14 91.83 51.66 88.98 31.17 86.13"/><path d="M70.24,285.55l-.42.19-2.75-5.26c-.44-1-.82-1.83-1.14-2.48s-.61-1.22-.87-1.7-.52-.9-.75-1.27l-.77-1.21A19.23,19.23,0,0,0,64,271.7c.06-.58.11-1.21.13-1.87l.45-.24,1,1.88a9.64,9.64,0,0,1,.37,1q.18.57.45,1.65a7.28,7.28,0,0,0,.41,1.22c.14.31.28.6.42.86s.27.53.39.79c.24.55.47,1,.67,1.38s.36.66.44.85a5.9,5.9,0,0,0,.37.69,3.22,3.22,0,0,0,.55.67,1.67,1.67,0,0,0,.74.42,1.29,1.29,0,0,0,.91-.1,8.15,8.15,0,0,0,2.46-1.66,7.78,7.78,0,0,0,1.67-2.35,7.12,7.12,0,0,0,.65-2.78,6.52,6.52,0,0,0-.59-2.93,3.42,3.42,0,0,0-1.24-1.5,7.46,7.46,0,0,0-1.92-.94,20,20,0,0,0-2.41-.64c-.88-.18-1.79-.39-2.75-.62s-1.92-.52-2.91-.87a14,14,0,0,1-2.91-1.42,4.93,4.93,0,0,1-.89-.87,5.41,5.41,0,0,1-.62-1.11,4.8,4.8,0,0,1-.41-3.26,5.52,5.52,0,0,1,1.51-2.5,11.75,11.75,0,0,1,2.65-1.91c1-.55,2-1.06,3-1.51s1.8-.88,2.52-1.28a2.44,2.44,0,0,0,1.27-1.24l.39-.17c.07,0,.15.05.23.24a5.19,5.19,0,0,1,.31,1c.1.45.19.94.28,1.45s.17,1,.25,1.49.15.84.21,1.1.14.58.25,1,.21.74.32,1.11l.25.95c.06.27-.08.48-.41.63l-.16-.27c-.32-.54-.69-1.13-1.1-1.77a8.91,8.91,0,0,0-1.38-1.69,4.38,4.38,0,0,0-1.69-1,2.74,2.74,0,0,0-2,.19,4,4,0,0,0-2,1.58,3,3,0,0,0,.26,2.48,4.41,4.41,0,0,0,1.87,2.07A13.27,13.27,0,0,0,69,263.07a32.33,32.33,0,0,0,3.45.82,30.69,30.69,0,0,1,3.46.86,13.13,13.13,0,0,1,3,1.34,5,5,0,0,1,2,2.25,4.7,4.7,0,0,1,.25,3.23,11.19,11.19,0,0,1-1.54,3.23,22.84,22.84,0,0,1-2.57,3.14c-1,1-2,2-2.91,2.92s-1.77,1.79-2.48,2.58A5.57,5.57,0,0,0,70.24,285.55Z"/><path d="M102.67,263.38v3.07a3,3,0,0,0,0,.69c0,.37.07.78.12,1.25s.09.93.14,1.42a8.07,8.07,0,0,1,0,1.26l-.42.19a8.15,8.15,0,0,0-.42-1.22,3.66,3.66,0,0,0-.65-1.05.71.71,0,0,0-.89-.23l-8.27,3.65-4.43,1.93q-2.14.92-3.78,1.56l-.22-.5c-.07-.14.13-.36.58-.66s.93-.65,1.45-1.07a7.28,7.28,0,0,0,1.35-1.42,2,2,0,0,0,.28-1.79L84,262.26q-.06-.13-.45,0a6.85,6.85,0,0,0-.69.39l-.77.51c-.25.17-.47.32-.65.46a2.13,2.13,0,0,1-.31.22l-.22-1.95a1,1,0,0,1,.27-.54,7,7,0,0,1,.66-.68c.26-.22.51-.43.76-.61a3.72,3.72,0,0,1,.55-.35l-2-4a22,22,0,0,0-1.22-2.08,5.46,5.46,0,0,0-2-1.69,2.79,2.79,0,0,0-.65-.2l-1.12-.3-1.15-.28a6.42,6.42,0,0,1-.65-.16l-.22-.5c1.19-.41,2.36-.84,3.52-1.29s2.35-1,3.56-1.49S83.69,246.6,85,246s2.56-1.27,3.9-2a2.75,2.75,0,0,0,.5-.31,6,6,0,0,0,.57-.46c.18-.16.34-.32.49-.47a3,3,0,0,0,.3-.35l.37-.12a4.92,4.92,0,0,1,.39,1.38,13.66,13.66,0,0,1,.13,1.46c0,.5.06,1,.1,1.51a7.22,7.22,0,0,0,.26,1.52,5,5,0,0,1,.15,1.06c0,.49,0,1,0,1.46s0,.9,0,1.27a2.5,2.5,0,0,1-.07.56l-.47.2-1.83-5.41-.14-.32c-.24-.54-.6-.78-1.07-.69a11.67,11.67,0,0,0-2.26.76l-1.75.77a.85.85,0,0,0-.47.87,5.51,5.51,0,0,0,.25,1.53,17.93,17.93,0,0,0,.66,1.83c.27.65.53,1.25.77,1.79l1.71,3.89q0,.11,1-.24c.65-.23,1.42-.51,2.31-.85l2.76-1c.94-.33,1.72-.57,2.33-.73l1,.47c.06.14,0,.32-.17.54a3.66,3.66,0,0,1-.69.66c-.28.23-.59.45-.92.67s-.62.39-.87.53a2.14,2.14,0,0,1-.38.21l-.43.19c-.45.2-1,.4-1.49.61s-1.13.46-1.75.73l-1.49.66,1.6,3.64q.36.6.87,1.53c.34.61.67,1.21,1,1.79l.85,1.5a2.6,2.6,0,0,0,.4.61.63.63,0,0,0,.52.22,2.64,2.64,0,0,0,.78-.13,8.17,8.17,0,0,0,.87-.3l.79-.32c.33-.15.78-.36,1.34-.64A12,12,0,0,0,99.42,267a10.61,10.61,0,0,0,1.69-1.54,6,6,0,0,0,1.19-2l.35-.15Z"/><path d="M107.34,258l-5.18-11.77a16.61,16.61,0,0,0-.86-1.66,10.06,10.06,0,0,0-1.14-1.57,5.14,5.14,0,0,0-1.29-1.05,1.44,1.44,0,0,0-1.32-.08l-.22.08a2.17,2.17,0,0,0-.36.14,2.67,2.67,0,0,0-.81.59,4.91,4.91,0,0,0-.73.94,3.78,3.78,0,0,0-.48,1.13,2.12,2.12,0,0,0,0,1.17l2,4.56-.46.2s-.12-.08-.3-.29l-.63-.75c-.24-.29-.48-.59-.72-.91a8.13,8.13,0,0,1-.54-.79,9.19,9.19,0,0,0-1-1.33l-1.23-1.33c-.41-.45-.79-.89-1.14-1.33a6.2,6.2,0,0,1-.82-1.34l.34-.19a2.87,2.87,0,0,0,.45,0c.21,0,.44,0,.68,0a5.43,5.43,0,0,0,.72-.1,2.45,2.45,0,0,0,.57-.17c1.47-.53,2.88-1.06,4.23-1.6s2.71-1.11,4.06-1.71q4.24-1.87,8.81-4.26a3.45,3.45,0,0,0,.5-.31c.19-.14.38-.3.56-.46s.35-.33.5-.48a2.09,2.09,0,0,0,.29-.34l.38-.12a8.88,8.88,0,0,1,.51,1.6q.23.93.42,1.92c.14.67.27,1.32.38,2s.24,1.22.38,1.73a7.72,7.72,0,0,1,.21.92c.08.4.14.78.19,1.15s.1.7.13,1,0,.41,0,.42l-.46.2-2.72-5a1.94,1.94,0,0,0-.81-.82,3.8,3.8,0,0,0-1.12-.42,4.74,4.74,0,0,0-1.19-.09,2.67,2.67,0,0,0-1,.19l-.35.17a1.08,1.08,0,0,1-.21.11,1.47,1.47,0,0,0-.87,1.11,5,5,0,0,0,0,1.81,13.13,13.13,0,0,0,.53,2.07c.24.7.48,1.33.72,1.87l5,11.27a11.93,11.93,0,0,0,1.4,2.45,10.31,10.31,0,0,0,1.45,1.53,5.05,5.05,0,0,0,1.34.84,5.11,5.11,0,0,0,1.1.3l.15.36c-.86.29-1.72.6-2.59.93s-1.72.67-2.58,1.05-1.72.79-2.58,1.24L107,266l-.15-.36c.15-.24.36-.53.63-.88a3.74,3.74,0,0,0,.64-1.36,6.86,6.86,0,0,0,.11-2.16A12.31,12.31,0,0,0,107.34,258Z"/><path d="M124,250.62l-5.18-11.77a16.61,16.61,0,0,0-.86-1.66,10.06,10.06,0,0,0-1.14-1.57,5.14,5.14,0,0,0-1.29-1.05,1.44,1.44,0,0,0-1.32-.08l-.22.08-.36.14a2.67,2.67,0,0,0-.81.59,5.24,5.24,0,0,0-.73.94,3.89,3.89,0,0,0-.48,1.13,2.12,2.12,0,0,0,0,1.17l2,4.56-.46.2s-.12-.08-.3-.29-.39-.45-.63-.75-.48-.59-.72-.91a8.13,8.13,0,0,1-.54-.79,9.76,9.76,0,0,0-1-1.33l-1.23-1.33c-.41-.45-.79-.89-1.14-1.33a6.2,6.2,0,0,1-.82-1.34l.34-.19a2.87,2.87,0,0,0,.45,0c.21,0,.44,0,.68-.05a5.43,5.43,0,0,0,.72-.1,3.15,3.15,0,0,0,.57-.16c1.47-.54,2.88-1.07,4.23-1.61s2.71-1.11,4.06-1.71q4.24-1.87,8.81-4.26a3.45,3.45,0,0,0,.5-.31c.19-.14.38-.3.56-.46s.35-.33.5-.48a2.09,2.09,0,0,0,.29-.34l.38-.12a8.88,8.88,0,0,1,.51,1.6c.15.62.29,1.26.42,1.93s.27,1.31.38,2,.24,1.22.38,1.73a7.72,7.72,0,0,1,.21.92c.08.4.14.78.19,1.15s.1.7.13,1,0,.41,0,.42l-.46.2-2.72-5a1.94,1.94,0,0,0-.81-.82,4.1,4.1,0,0,0-1.12-.42,4.74,4.74,0,0,0-1.19-.09,2.67,2.67,0,0,0-1,.19l-.35.17a1.08,1.08,0,0,1-.21.11,1.47,1.47,0,0,0-.87,1.11,5,5,0,0,0,0,1.81,13.13,13.13,0,0,0,.53,2.07c.24.7.48,1.33.72,1.87l5,11.27A11.93,11.93,0,0,0,130,251a10.31,10.31,0,0,0,1.45,1.53,5.05,5.05,0,0,0,1.34.84,5.11,5.11,0,0,0,1.1.3l.15.36c-.86.29-1.72.6-2.59.93s-1.72.67-2.58,1.05-1.72.79-2.58,1.24l-2.61,1.39-.15-.36a9.87,9.87,0,0,1,.63-.87,3.7,3.7,0,0,0,.63-1.37,6.54,6.54,0,0,0,.12-2.16A12.31,12.31,0,0,0,124,250.62Z"/><path d="M146.76,218.61a1.86,1.86,0,0,0-1.08,1.41,7,7,0,0,0,.06,2.64,21.72,21.72,0,0,0,1,3.68q.75,2.07,1.81,4.5c.66,1.5,1.4,3.08,2.2,4.74s1.66,3.37,2.58,5.12a2.6,2.6,0,0,0,.74,1,6.65,6.65,0,0,0,1.11.77,6.74,6.74,0,0,0,1.21.53,6.39,6.39,0,0,0,1.07.25l.16.36c-.86.29-1.73.6-2.59.93s-1.73.67-2.58,1.05-1.72.78-2.57,1.22-1.72.88-2.56,1.34l-.16-.36.24-.32a5.86,5.86,0,0,0,.59-.92,3.64,3.64,0,0,0,.39-1.4,7.62,7.62,0,0,0-.19-2.16,17.65,17.65,0,0,0-1.11-3.21l-4.28-9.7-.25-.57-.14-.32a1.91,1.91,0,0,0-.16-.27c-.46-.9-.91-1.72-1.34-2.45a9.9,9.9,0,0,0-1.35-1.81,3.72,3.72,0,0,0-1.47-1,2.5,2.5,0,0,0-1.66.05l-.22-.5c.82-.39,1.58-.77,2.27-1.13s1.38-.69,2.07-1a5,5,0,0,0-1.65.28c-.6.2-1.17.41-1.69.64a9.22,9.22,0,0,0-3.55,2.72,11.93,11.93,0,0,0-2.16,4.08,14.69,14.69,0,0,0-.65,4.86,15.28,15.28,0,0,0,1,5,13.42,13.42,0,0,1-.83-1.36q-.36-.66-.66-1.35a13.93,13.93,0,0,1-.84-4.35,14.21,14.21,0,0,1,2.49-8.51,16.75,16.75,0,0,1,3.41-3.67l.88-.46.87-.4a19,19,0,0,1,2.71-1,8.67,8.67,0,0,1,2.23-.35,9.21,9.21,0,0,1,2.09.21,20.11,20.11,0,0,1,2.29.65Z"/><path d="M188.47,233.05l-.48.26a.92.92,0,0,1-.93-.27,8.7,8.7,0,0,1-1.08-1.1c-.37-.44-.72-.86-1.07-1.26a2.62,2.62,0,0,0-.88-.74A36.1,36.1,0,0,0,179.7,227q-2.25-1.29-4.57-2.5c-1.55-.81-3.08-1.61-4.6-2.42a49.68,49.68,0,0,1-4.46-2.68l-.25.11,5.26,11.95a5.56,5.56,0,0,0,1.26,1.87,5.09,5.09,0,0,0,1.45,1,5,5,0,0,0,1.38.39l1.09.1.23.53a43.22,43.22,0,0,0-4.15,1.58,34.9,34.9,0,0,0-3.65,1.86l-.24-.53c0-.1,0-.28.25-.56a5,5,0,0,0,.91-2.85,5.85,5.85,0,0,0-.6-2.46l-7.15-16.22a4.77,4.77,0,0,0-1.91-2.42,3.4,3.4,0,0,0-3,.23,7.89,7.89,0,0,0-3.29,2.66,12.48,12.48,0,0,0-1.93,4,15.51,15.51,0,0,0-.52,4.75,15.33,15.33,0,0,0,.94,4.8,13.42,13.42,0,0,1-.83-1.36q-.36-.68-.66-1.35a14.22,14.22,0,0,1-.84-4.36,14.34,14.34,0,0,1,2.49-8.5,16.79,16.79,0,0,1,3.41-3.68l.88-.45c.3-.14.58-.28.87-.4a20.52,20.52,0,0,1,5.29-1.61,16.69,16.69,0,0,1,4.94,0l.19.43a1.26,1.26,0,0,0-.88,1.28,5.05,5.05,0,0,0,.47,1.84,4.64,4.64,0,0,0,1.14,1.48,17.7,17.7,0,0,0,1.95,1.54q1.14.78,2.43,1.53c.85.5,1.69,1,2.51,1.41l2.3,1.2,1.73.89.32-.14-4.43-10.05a3.93,3.93,0,0,0-.71-1.14,2.46,2.46,0,0,0-.82-.55A3.52,3.52,0,0,0,173,208l-1-.1-.22-.5.52-.17a4.85,4.85,0,0,0,.55-.22l1-.45a1.32,1.32,0,0,0,.3-.09l.32-.14.61-.27c.83-.37,1.63-.77,2.41-1.19s1.61-.87,2.49-1.31l.16.35a7.77,7.77,0,0,0-.94.87,4.42,4.42,0,0,0-.87,1.36,5,5,0,0,0-.37,1.91,5.73,5.73,0,0,0,.57,2.45Z"/><path d="M198.93,202.68c-.44-1-.82-1.76-1.12-2.29a3,3,0,0,0-.95-1.1,1.45,1.45,0,0,0-1.06-.17,7.94,7.94,0,0,0-1.42.5,11.23,11.23,0,0,0-1.12.58,12.61,12.61,0,0,0-1.36.89,15.73,15.73,0,0,0-1.33,1.14,5.2,5.2,0,0,0-1,1.34,7.41,7.41,0,0,0-.81,2.19,10.9,10.9,0,0,0-.14,2.81,17.92,17.92,0,0,0,.66,3.58,34,34,0,0,0,1.66,4.48,15.13,15.13,0,0,0,2.32,3.71,7.57,7.57,0,0,0,3.28,2.34c.26.06.52.14.79.23a3.42,3.42,0,0,0,.9.18,4.86,4.86,0,0,0,1.16-.09,7.23,7.23,0,0,0,1.54-.51,5.39,5.39,0,0,0,2.33-1.62,2.64,2.64,0,0,0,.08-2.38l-1.81-4.1a3.49,3.49,0,0,0-1.15-1.45,4.28,4.28,0,0,0-1.67-.75,6,6,0,0,0-2-.08,7,7,0,0,0-2,.54,7.55,7.55,0,0,0-.79.43c-.31.2-.68.46-1.1.79l-.14-.32a6.13,6.13,0,0,1,.61-.74,6,6,0,0,1,.89-.78,11.52,11.52,0,0,1,1.1-.7c.35-.18.68-.33,1-.47a8.13,8.13,0,0,1,1.33-.46,9.32,9.32,0,0,1,1.21-.21l1.18-.14a10.5,10.5,0,0,0,1.24-.22,3.61,3.61,0,0,0,.48-.35l.87-.68c.36-.27.75-.54,1.2-.82a11.38,11.38,0,0,1,1.48-.78l.1.21a1.52,1.52,0,0,0-.54,1.24,3.66,3.66,0,0,0,.35,1.61l2.73,6.2a4.66,4.66,0,0,1,0,3.39.91.91,0,0,0-.43.42,11.1,11.1,0,0,0-.56,1.29,8.73,8.73,0,0,1-.56,1.16,2.12,2.12,0,0,1-1,.91l-1.21.53a3.21,3.21,0,0,1-.45.24l-.47.21-1,.44a31.38,31.38,0,0,1-3.72,1.34,11.27,11.27,0,0,1-4.06.43,8.22,8.22,0,0,1-3.87-1.39,9.13,9.13,0,0,1-3.11-4.1l-1.58-3.6c-.47-1-.88-2.1-1.26-3.17a20.43,20.43,0,0,1-.84-3.32,17.27,17.27,0,0,1-.21-3.56,17,17,0,0,1,.68-4,4,4,0,0,1,1.47-2,13,13,0,0,1,2.67-1.53l1.78-.79c1.09-.48,2.19-.93,3.28-1.34s2.09-.81,3-1.2a2.48,2.48,0,0,0,.51-.31,5.93,5.93,0,0,0,.56-.46l.5-.47a2.71,2.71,0,0,0,.29-.35l.37-.12a7.06,7.06,0,0,1,.45,1.45c.11.53.2,1.08.29,1.63s.18,1.12.25,1.68a12.56,12.56,0,0,0,.33,1.6,8.47,8.47,0,0,1,.21.93c.08.39.14.78.19,1.15s.1.7.13,1,0,.41,0,.42l-.46.2Z"/><path d="M213.75,222.29l-.43.19-2.75-5.26c-.44-1-.82-1.82-1.13-2.48s-.61-1.22-.88-1.7-.52-.9-.75-1.27l-.77-1.21a18.8,18.8,0,0,0,.41-2.12c.07-.58.11-1.2.13-1.87l.45-.24,1,1.88c.11.26.23.59.36,1s.28.94.45,1.65a8.45,8.45,0,0,0,.41,1.23c.14.31.28.59.42.85a8.23,8.23,0,0,1,.39.79c.24.55.47,1,.68,1.39s.35.66.44.85a5.05,5.05,0,0,0,.36.68,3.27,3.27,0,0,0,.56.68,1.79,1.79,0,0,0,.73.42,1.39,1.39,0,0,0,.92-.11,8.4,8.4,0,0,0,2.46-1.66,7.74,7.74,0,0,0,1.66-2.35,7.12,7.12,0,0,0,.65-2.78,6.52,6.52,0,0,0-.59-2.93,3.47,3.47,0,0,0-1.23-1.5,7.88,7.88,0,0,0-1.93-.94,21.47,21.47,0,0,0-2.41-.64c-.87-.18-1.79-.39-2.74-.62a29.09,29.09,0,0,1-2.92-.87,13.65,13.65,0,0,1-2.9-1.42,4.92,4.92,0,0,1-.89-.86,5.48,5.48,0,0,1-.62-1.11,4.78,4.78,0,0,1-.42-3.27,5.59,5.59,0,0,1,1.52-2.5,11.61,11.61,0,0,1,2.65-1.91c1-.55,2-1.05,3-1.51s1.81-.88,2.52-1.28a2.44,2.44,0,0,0,1.27-1.24l.39-.17c.07,0,.15,0,.23.24a5.41,5.41,0,0,1,.31,1c.1.46.19.94.28,1.46s.17,1,.25,1.48.15.85.21,1.1.14.58.25,1,.22.75.32,1.11.19.69.25,1-.07.48-.41.62l-.16-.27c-.32-.54-.69-1.13-1.1-1.77a9.24,9.24,0,0,0-1.38-1.69,4.43,4.43,0,0,0-1.69-1,2.75,2.75,0,0,0-2,.19,4,4,0,0,0-2.05,1.58,3,3,0,0,0,.26,2.48,4.43,4.43,0,0,0,1.88,2.07,13.19,13.19,0,0,0,2.9,1.24c1.08.31,2.23.59,3.45.82a28.86,28.86,0,0,1,3.47.85,13.26,13.26,0,0,1,2.95,1.34,5,5,0,0,1,2,2.25,4.7,4.7,0,0,1,.25,3.23,11,11,0,0,1-1.53,3.23,22.22,22.22,0,0,1-2.58,3.14c-1,1-2,2-2.91,2.92s-1.76,1.79-2.48,2.59A5.31,5.31,0,0,0,213.75,222.29Z"/><polygon points="89.27 209.57 72.67 217.07 56.08 224.59 57.1 204.75 58.12 184.93 73.69 197.25 89.27 209.57"/><polygon class="cls-7" points="63.28 219.78 60.31 221.17 57.33 222.56 58.2 220.54 59.07 218.52 61.17 219.15 63.28 219.78"/><rect class="cls-7" x="58.93" y="213.1" width="25.47" height="2.91" transform="translate(-80.45 47.13) rotate(-23.79)"/><polygon class="cls-7" points="86.59 209.51 84.03 210.7 81.48 211.89 82.14 209.97 82.8 208.05 84.69 208.78 86.59 209.51"/><rect class="cls-7" x="43.29" y="204.5" width="32.12" height="1.87" transform="translate(-147.88 258.19) rotate(-88.17)"/><polygon class="cls-7" points="59.49 192.7 59.07 189.53 58.64 186.37 59.7 187.84 60.75 189.31 60.12 191 59.49 192.7"/><rect x="55.33" y="219.04" width="7.41" height="0.73" transform="translate(-165.23 182.96) rotate(-65.71)"/><polygon points="173.17 172.58 156.57 180.09 139.98 187.6 141 167.77 142.03 147.94 157.6 160.26 173.17 172.58"/><polygon class="cls-7" points="147.18 182.8 144.21 184.19 141.24 185.57 142.1 183.55 142.97 181.53 145.08 182.17 147.18 182.8"/><rect class="cls-7" x="142.83" y="176.11" width="25.47" height="2.91" transform="translate(-58.41 77.83) rotate(-23.79)"/><polygon class="cls-7" points="170.49 172.52 167.94 173.72 165.38 174.91 166.04 172.99 166.7 171.06 168.59 171.79 170.49 172.52"/><rect class="cls-7" x="127.2" y="167.52" width="32.12" height="1.87" transform="translate(-29.69 306.24) rotate(-88.17)"/><polygon class="cls-7" points="143.39 155.71 142.97 152.55 142.55 149.38 143.6 150.85 144.66 152.32 144.03 154.02 143.39 155.71"/><rect x="139.24" y="182.05" width="7.41" height="0.73" transform="translate(-82.13 237.66) rotate(-65.71)"/><ellipse class="cls-9" cx="108.47" cy="160.23" rx="88.05" ry="43.3" transform="translate(-55.41 57.37) rotate(-23.79)"/><path d="M182.4,456.38h-.59l-.52-8.32c0-1.51,0-2.78-.06-3.8s-.1-1.92-.17-2.7-.14-1.48-.22-2.11-.18-1.31-.26-2.05q1-1.42,1.62-2.43t1.17-2.25l.72-.13.19,2.93a12.44,12.44,0,0,1-.1,1.46c-.06.59-.18,1.38-.35,2.37-.05.31-.09.63-.13,1a6.43,6.43,0,0,0-.07.91l.33,5.91c0,.35,0,.74.06,1.18a3.74,3.74,0,0,0,.33,1.23,3,3,0,0,0,.71,1,1.65,1.65,0,0,0,1.17.42,10.09,10.09,0,0,0,3.9-.78,10.62,10.62,0,0,0,5.62-5.36,9.18,9.18,0,0,0,.88-4A5.54,5.54,0,0,0,195.1,437a30.38,30.38,0,0,0-3.7-3.35c-1.45-1.12-3-2.36-4.65-3.7a20.1,20.1,0,0,1-4.35-5,8.41,8.41,0,0,1-.59-1.69,9.46,9.46,0,0,1-.13-1.81,6.7,6.7,0,0,1,1.27-4.36,7.54,7.54,0,0,1,3.22-2.31,14.66,14.66,0,0,1,4.25-.91c1.54-.11,3-.18,4.46-.22s2.68-.11,3.77-.2a3.14,3.14,0,0,0,2.21-.84h.58c.17,0,.26.13.26.38a11.14,11.14,0,0,1-.42,2.44q-.42,1.67-.81,3.15a10.11,10.11,0,0,0-.33,1.57c0,.38-.13,1-.26,1.81s-.24,1.46-.32,2-.13.89-.13,1h-.72l-.06-.45c-.09-.87-.21-1.82-.36-2.86a12.89,12.89,0,0,0-.75-2.89,6.07,6.07,0,0,0-1.49-2.25,3.69,3.69,0,0,0-2.6-.91,5.38,5.38,0,0,0-3.45.88c-.69.59-1,1.7-1,3.35a6.21,6.21,0,0,0,1.17,3.67,18,18,0,0,0,2.93,3.19c1.17,1,2.42,2,3.77,3a47,47,0,0,1,3.77,3.12,17.85,17.85,0,0,1,2.92,3.44,7.32,7.32,0,0,1,1.17,4,6.78,6.78,0,0,1-1.43,4.26,14.32,14.32,0,0,1-3.61,3.28,30.25,30.25,0,0,1-4.84,2.57q-2.67,1.14-5.17,2.15c-1.66.67-3.15,1.31-4.45,1.91A7.86,7.86,0,0,0,182.4,456.38Z"/><path d="M203.85,435.06a23.88,23.88,0,0,1,1.56-9.23,19.85,19.85,0,0,1,4.22-6.43,16.67,16.67,0,0,1,6.31-4,19.22,19.22,0,0,1,7.15-1.37,9.33,9.33,0,0,1,4.35.92,14,14,0,0,1,4,2.53,20.75,20.75,0,0,1,2.79,4.42,17.46,17.46,0,0,1,1,6.24,29.18,29.18,0,0,1-.52,6.5,40.91,40.91,0,0,1-2,6,33,33,0,0,1-3.51,5.14A13.89,13.89,0,0,1,224,449a23.27,23.27,0,0,1-10.21.91,7.3,7.3,0,0,1-3.9-1.37,6.06,6.06,0,0,1-3-2.79,19.73,19.73,0,0,1-2.34-4.42A27.57,27.57,0,0,1,203.85,435.06Zm7.15.59a13.14,13.14,0,0,0,.71,4.35,10.3,10.3,0,0,0,1.89,3.25,6.08,6.08,0,0,0,2.53,2.15,7.08,7.08,0,0,0,3.06.65,5.42,5.42,0,0,0,4.09-1.69,12.92,12.92,0,0,0,2.8-3.64,37,37,0,0,0,1.62-5.33c.3-2.82.46-4.75.46-5.79,0-.64,0-1.32-.1-2a22,22,0,0,1-.1-2.21c-.17-.74-.56-2.12-1.17-4.16a18.13,18.13,0,0,0-1.88-3.25,5.36,5.36,0,0,0-3.06-1.17,6.63,6.63,0,0,0-3.44,1.17,11.59,11.59,0,0,0-3.45,3.25,22,22,0,0,0-2.73,6A27.81,27.81,0,0,0,211,435.65Z"/><path d="M262,446.7a27.38,27.38,0,0,1-6.25,2.8,22.79,22.79,0,0,1-6.82,1.1,14.27,14.27,0,0,1-3.28-.36,7.53,7.53,0,0,1-2.7-1.2,5.86,5.86,0,0,1-1.82-2.11,7,7,0,0,1-.65-3.16v-3.18c0-1.3,0-3.27,0-5.92s.06-6.32.1-11c0-.53,0-1,0-1.4a4.62,4.62,0,0,0-.23-1.21,6.35,6.35,0,0,0-.55-1.2,14.92,14.92,0,0,0-.94-1.4,6.68,6.68,0,0,1-.72-.48c-.39-.28-.81-.61-1.27-1s-.87-.7-1.26-1a3.14,3.14,0,0,1-.65-.59v-.65h.45c1.56,0,3.11-.05,4.65-.16s3-.24,4.45-.39,2.76-.31,4-.46,2.35-.25,3.35-.29v.52a5.29,5.29,0,0,0-2.34,1,4.52,4.52,0,0,0-1.27,1.69,7.2,7.2,0,0,0-.55,2.11,18.56,18.56,0,0,0-.13,2.18v19.5a4.4,4.4,0,0,0,1.68,3.74,6.59,6.59,0,0,0,4,1.26,10.24,10.24,0,0,0,4.64-1.2,10.9,10.9,0,0,0,4.07-3.67v-19a22.75,22.75,0,0,0-.2-3,6.45,6.45,0,0,0-1.49-3.09,7.61,7.61,0,0,1-.72-.49c-.39-.28-.81-.6-1.27-1s-.87-.71-1.26-1a2.86,2.86,0,0,1-.65-.59v-.65a9.74,9.74,0,0,0,3.25.46,22,22,0,0,0,3.08-.23q1.59-.22,3.12-.48l2.93-.49a15.89,15.89,0,0,1,2.5-.23v.52a5.82,5.82,0,0,0-2.57,1.17,6.17,6.17,0,0,0-1.56,1.92,7.47,7.47,0,0,0-.74,2.27,14.43,14.43,0,0,0-.2,2.31v23.2a10.61,10.61,0,0,0,.55,4A4.06,4.06,0,0,0,268.1,448a4.78,4.78,0,0,0,1.72.75,3.8,3.8,0,0,1,1.63.78v.84c-1.13,0-2.07,0-2.83.07a15.48,15.48,0,0,0-2,.23,12.82,12.82,0,0,0-1.65.42c-.52.17-1.09.37-1.69.59s-1.26.37-1.56.48l-.75.26-.72.26-1.52.55-.07-.84a12.25,12.25,0,0,1,1.82-1.37,13.41,13.41,0,0,0,2.15-1.68,8.78,8.78,0,0,0-.17-1.5A2,2,0,0,0,262,446.7Z"/><path d="M272.42,414.23c1,.11,2,.19,3,.23l13-.46v.59a5.49,5.49,0,0,0-2.44.55,2,2,0,0,0-1.13,2,6,6,0,0,0,.61,2.4,21.26,21.26,0,0,0,1.63,2.89c.67,1,1.42,2.05,2.24,3.09s1.65,2,2.47,3,1.58,1.82,2.28,2.6,1.25,1.43,1.69,1.95h.45v-8.91c0-1.81,0-3.78,0-5.88s.11-4.1.26-6a43.63,43.63,0,0,1,.69-5.17,8.46,8.46,0,0,1,1.23-3.35h.65c-.09.91-.13,1.76-.13,2.54v2.08c0,1,0,1.95.07,2.86s.09,1.9.16,3,.14,2.29.23,3.7.16,3.11.22,5.1.12,4.38.17,7.16.06,6.06.06,9.87c0,2.08,0,4.05-.13,5.89s-.13,3.65-.13,5.42c0,.87,0,1.73.07,2.57s.1,1.68.19,2.5l-.84.07c-.39,0-.73-.44-1-1.33s-.54-1.89-.78-3-.46-2.16-.65-3.16a3.65,3.65,0,0,0-.68-1.82,55.33,55.33,0,0,0-3.9-5.75c-1.43-1.84-2.9-3.65-4.39-5.43s-3-3.55-4.45-5.33-2.86-3.61-4.16-5.52h-.59v17a6.43,6.43,0,0,0,.55,2.79,5.36,5.36,0,0,0,1.53,1.95,7.5,7.5,0,0,0,2.24,1.24,10.81,10.81,0,0,0,2.7.58l.07.79a11.88,11.88,0,0,0-1.95-.13H271.19a9.74,9.74,0,0,0-1.76.13v-.79c0-.17.3-.35.91-.55a10.86,10.86,0,0,0,2.05-.94,7,7,0,0,0,2.05-1.82,5.21,5.21,0,0,0,.91-3.25V420a5.6,5.6,0,0,0-.91-2.6,4.16,4.16,0,0,0-1.89-1.62,8.46,8.46,0,0,0-1.95-.68,2.73,2.73,0,0,1-1.23-.49v-.65Z"/><path d="M326.79,410.56c.69,0,1.47,0,2.34.07a11.83,11.83,0,0,1,2.68.45,10,10,0,0,1,2.67,1.23,8.46,8.46,0,0,1,2.35,2.41,13,13,0,0,1,1.66,4,24.32,24.32,0,0,1,.62,5.92,32.6,32.6,0,0,1-1.37,8.84,37.59,37.59,0,0,1-4.07,9.26,32.4,32.4,0,0,1-6.69,7.84,20.57,20.57,0,0,1-9.26,4.48,7.28,7.28,0,0,0-2.3,1.33,12.53,12.53,0,0,0-2.08,2.21,18.87,18.87,0,0,0-1.66,2.67,13.78,13.78,0,0,0-1,2.56l-1.17.79V456a6.36,6.36,0,0,0-1.43-.46c-1-.26-2-.56-3.15-.91a30,30,0,0,1-3.15-1.14q-1.44-.62-1.44-1.14l.07-.91c0,.27.35.48,1,.65a21.46,21.46,0,0,0,2.5.46c1,.13,2,.23,3,.29s1.88.1,2.57.1V424.73a31.5,31.5,0,0,0-.45-6,12.31,12.31,0,0,0-1.17-3.48,5,5,0,0,0-1.56-1.75,5.77,5.77,0,0,0-1.66-.72l-1.43-.32a1.05,1.05,0,0,1-.82-.65v-1a11.8,11.8,0,0,0,1.53.1l2.67.07,3.25.06,3.35.07,3,.06,2.14,0Zm-7.91,41.18a18.15,18.15,0,0,0,3.95-3.19,32.56,32.56,0,0,0,3.55-4.48,40.43,40.43,0,0,0,2.91-5.14,35.28,35.28,0,0,0,1.95-5.1,15.85,15.85,0,0,0,.72-4.36,27.51,27.51,0,0,0-.59-5.65,16.49,16.49,0,0,0-1.89-5,11.15,11.15,0,0,0-3.36-3.6,9,9,0,0,0-4.93-1.46h-.66a3.56,3.56,0,0,0-2.12.42,2.35,2.35,0,0,0-.49,1.79v35.16l-3.05,1.82A7.94,7.94,0,0,0,318.88,451.74Z"/><path d="M382.92,448.39a3.9,3.9,0,0,0-.39,1.17l-.59,2.37c-.21.89-.44,1.76-.68,2.6a8.8,8.8,0,0,1-.68,1.85c-.48,0-.68-.17-.62-.51a6.41,6.41,0,0,0,.1-1.24c0-.26,0-.63-.07-1.11s-.1-1-.19-1.46a7.48,7.48,0,0,0-.33-1.27c-.13-.34-.3-.52-.51-.52H366.34c-2.29,0-4.55,0-6.76,0s-4.09-.05-5.65-.1v-.84c0-.26.37-.46,1.11-.59s1.55-.3,2.46-.52a9.67,9.67,0,0,0,2.57-1,2.7,2.7,0,0,0,1.4-2.05V433.25c0-.13-.26-.2-.78-.2a6.71,6.71,0,0,0-1,.1c-.43.06-.85.14-1.24.23l-1,.22a4.06,4.06,0,0,1-.53.1l.78-2.47a1,1,0,0,1,.56-.59,6.33,6.33,0,0,1,1.13-.45c.44-.13.85-.24,1.24-.32a4.39,4.39,0,0,1,.91-.14v-6c0-.56,0-1.17,0-1.82a10.31,10.31,0,0,0-.26-1.92,5.79,5.79,0,0,0-.75-1.75,4,4,0,0,0-1.43-1.33c-.17-.09-.45-.25-.81-.49L357,415.6c-.42-.28-.79-.53-1.14-.75a4.45,4.45,0,0,1-.65-.46v-.77c1.73.13,3.51.23,5.33.32s3.55.13,5.2.13q3.06,0,6-.13c2-.09,4.06-.19,6.27-.32a3,3,0,0,0,.75-.14c.33-.08.64-.17.94-.26a4.88,4.88,0,0,0,.82-.29,1.78,1.78,0,0,0,.49-.29l.58.07a7.33,7.33,0,0,1-.26,1.91,16.73,16.73,0,0,1-.62,1.85c-.24.61-.46,1.25-.68,1.92a8.07,8.07,0,0,0-.39,2.05,6.51,6.51,0,0,1-.42,1.33c-.24.59-.5,1.16-.78,1.73l-.78,1.49c-.24.43-.38.65-.43.65h-.84l.84-7.47v-.59c0-.82-.33-1.31-1-1.46a16.84,16.84,0,0,0-3.29-.23h-2.73a1.06,1.06,0,0,0-1,.78,7.9,7.9,0,0,0-.49,1.95,21.73,21.73,0,0,0-.19,2.53c0,.91,0,1.76,0,2.54v6c0,.14.48.23,1.43.3s2.08.12,3.38.16,2.64.11,4,.19,2.48.2,3.35.33l.91,1c0,.22-.16.42-.49.62a4.91,4.91,0,0,1-1.17.48,13.26,13.26,0,0,1-1.49.33,8.75,8.75,0,0,1-1.4.13,4,4,0,0,1-.72.07h-.58c-.65,0-1.38,0-2.18-.07s-1.7-.06-2.7-.06h-2.34v5.26c.09.65.19,1.45.3,2.41s.21,1.86.32,2.72.23,1.93.36,3.19c0,.22.22.39.52.52a4.25,4.25,0,0,0,1,.29,7,7,0,0,0,1.23.1h1.17c.52,0,1.22,0,2.08-.07a20.76,20.76,0,0,0,2.83-.35,16.27,16.27,0,0,0,3.09-.94,9,9,0,0,0,2.73-1.76h.52Z"/><path d="M401.05,448.84v1l-6.63-.51a2.54,2.54,0,0,0-.58-.07h-1.63a34.38,34.38,0,0,0-4.58.29,28.43,28.43,0,0,1-4,.29h-.32V449c0-.26.26-.43.78-.52a12.8,12.8,0,0,0,1.79-.46,6.76,6.76,0,0,0,1.88-.94,2.74,2.74,0,0,0,1.07-2V433.25c0-.13-.26-.2-.78-.2a6.82,6.82,0,0,0-1,.1c-.43.06-.84.14-1.23.23l-1,.22a4.08,4.08,0,0,1-.52.1l.78-2.47c0-.17.23-.36.55-.55a4.9,4.9,0,0,1,1.11-.49,11.14,11.14,0,0,1,1.23-.32,4.93,4.93,0,0,1,.94-.14v-6c0-.56,0-1.17,0-1.82a9.54,9.54,0,0,0-.26-1.92,5.55,5.55,0,0,0-.75-1.75,3.91,3.91,0,0,0-1.43-1.33l-.78-.49-1.2-.75-1.14-.75a6.68,6.68,0,0,1-.65-.49v-.77c1.74.13,3.51.23,5.33.32s3.56.13,5.2.13q3.12,0,6.05-.13c1.95-.09,4-.19,6.24-.32a3.2,3.2,0,0,0,.75-.14l.94-.26a5.09,5.09,0,0,0,.81-.29,1.78,1.78,0,0,0,.49-.29l.58.07a6.28,6.28,0,0,1-.29,1.91c-.19.63-.4,1.26-.62,1.89s-.43,1.26-.65,1.91a8.7,8.7,0,0,0-.39,2,5.93,5.93,0,0,1-.42,1.33c-.24.59-.5,1.16-.78,1.73s-.54,1.06-.78,1.49a2.44,2.44,0,0,1-.42.65h-.85l.85-7.47v-.59a1.3,1.3,0,0,0-1-1.46,16.65,16.65,0,0,0-3.28-.23h-2.73a1.07,1.07,0,0,0-1,.78,7.93,7.93,0,0,0-.48,1.95,21.64,21.64,0,0,0-.2,2.53c0,.91,0,1.76,0,2.54v6c0,.14.48.23,1.43.3s2.08.13,3.38.19l4,.2a32.78,32.78,0,0,1,3.34.29l.91,1c0,.22-.16.42-.48.62a5.28,5.28,0,0,1-1.17.48,14,14,0,0,1-1.5.33,8.65,8.65,0,0,1-1.4.13,2.64,2.64,0,0,1-.71.07h-.59c-.65,0-1.37,0-2.17-.07s-1.7-.06-2.7-.06h-2.34v11.17a3.21,3.21,0,0,0,.55,1.86,5.67,5.67,0,0,0,1.33,1.39,5.78,5.78,0,0,0,1.66.88A5,5,0,0,0,401.05,448.84Z"/><path d="M426,448.84v1l-6.63-.51a2.62,2.62,0,0,0-.59-.07h-1.62a34.16,34.16,0,0,0-4.58.29,28.43,28.43,0,0,1-4,.29h-.33V449c0-.26.26-.43.78-.52a12.8,12.8,0,0,0,1.79-.46,7,7,0,0,0,1.89-.94,2.77,2.77,0,0,0,1.07-2V433.25c0-.13-.26-.2-.78-.2a6.71,6.71,0,0,0-1,.1c-.44.06-.85.14-1.24.23l-1,.22a3.76,3.76,0,0,1-.52.1l.78-2.47a1.12,1.12,0,0,1,.56-.55,4.82,4.82,0,0,1,1.1-.49,10.75,10.75,0,0,1,1.24-.32,4.82,4.82,0,0,1,.94-.14v-6c0-.56,0-1.17,0-1.82a10.31,10.31,0,0,0-.26-1.92,5.79,5.79,0,0,0-.75-1.75,4,4,0,0,0-1.43-1.33l-.78-.49-1.2-.75-1.14-.75a5.57,5.57,0,0,1-.65-.49v-.77c1.73.13,3.51.23,5.33.32s3.55.13,5.2.13q3.12,0,6-.13c1.95-.09,4-.19,6.24-.32a3,3,0,0,0,.75-.14c.33-.08.64-.17.94-.26a4.88,4.88,0,0,0,.82-.29,1.69,1.69,0,0,0,.48-.29l.59.07a6.61,6.61,0,0,1-.29,1.91c-.2.63-.4,1.26-.62,1.89s-.43,1.26-.65,1.91a7.77,7.77,0,0,0-.39,2,7.22,7.22,0,0,1-.42,1.33c-.24.59-.5,1.16-.78,1.73L430,425c-.24.43-.38.65-.43.65h-.84l.84-7.47v-.59c0-.82-.33-1.31-1-1.46a16.84,16.84,0,0,0-3.29-.23H422.5a1.06,1.06,0,0,0-1,.78,7.9,7.9,0,0,0-.49,1.95,21.73,21.73,0,0,0-.19,2.53c0,.91,0,1.76,0,2.54v6c0,.14.48.23,1.43.3s2.08.13,3.38.19l4,.2a33,33,0,0,1,3.35.29l.91,1c0,.22-.16.42-.49.62a4.91,4.91,0,0,1-1.17.48,13.26,13.26,0,0,1-1.49.33,8.75,8.75,0,0,1-1.4.13,2.73,2.73,0,0,1-.72.07H428c-.65,0-1.38,0-2.18-.07s-1.7-.06-2.7-.06h-2.34v11.17a3.22,3.22,0,0,0,.56,1.86,5.5,5.5,0,0,0,1.33,1.39,5.66,5.66,0,0,0,1.66.88A4.88,4.88,0,0,0,426,448.84Z"/><path d="M461.7,448.39a3.9,3.9,0,0,0-.39,1.17c-.18.69-.37,1.48-.59,2.37s-.44,1.76-.68,2.6a9.41,9.41,0,0,1-.68,1.85c-.48,0-.68-.17-.62-.51a6.41,6.41,0,0,0,.1-1.24c0-.26,0-.63-.07-1.11s-.11-1-.19-1.46a7.48,7.48,0,0,0-.33-1.27c-.13-.34-.3-.52-.52-.52H445.12c-2.29,0-4.55,0-6.76,0s-4.09-.05-5.65-.1v-.84c0-.26.37-.46,1.1-.59s1.56-.3,2.47-.52a9.67,9.67,0,0,0,2.57-1,2.7,2.7,0,0,0,1.4-2.05V433.25c0-.13-.26-.2-.78-.2a6.71,6.71,0,0,0-1,.1c-.44.06-.85.14-1.24.23l-1,.22a3.76,3.76,0,0,1-.52.1l.78-2.47a1,1,0,0,1,.56-.59,6.33,6.33,0,0,1,1.13-.45c.44-.13.85-.24,1.24-.32a4.39,4.39,0,0,1,.91-.14v-6c0-.56,0-1.17,0-1.82A10.31,10.31,0,0,0,440,420a6.05,6.05,0,0,0-.75-1.75,4.07,4.07,0,0,0-1.43-1.33,8.21,8.21,0,0,1-.81-.49l-1.17-.78-1.14-.75a3.92,3.92,0,0,1-.65-.46v-.77c1.73.13,3.51.23,5.33.32s3.55.13,5.2.13c2,0,4,0,6-.13s4.06-.19,6.27-.32a3,3,0,0,0,.75-.14c.33-.08.64-.17.94-.26a4.88,4.88,0,0,0,.82-.29,1.69,1.69,0,0,0,.48-.29l.59.07a7.33,7.33,0,0,1-.26,1.91,19.12,19.12,0,0,1-.62,1.85c-.24.61-.47,1.25-.68,1.92a8.07,8.07,0,0,0-.39,2.05,7.22,7.22,0,0,1-.42,1.33c-.24.59-.5,1.16-.78,1.73l-.78,1.49c-.24.43-.38.65-.43.65h-.84l.84-7.47v-.59c0-.82-.33-1.31-1-1.46a16.84,16.84,0,0,0-3.29-.23H449a1,1,0,0,0-1,.78,7.9,7.9,0,0,0-.49,1.95,21.73,21.73,0,0,0-.19,2.53c0,.91,0,1.76,0,2.54v6c0,.14.48.23,1.43.3s2.08.12,3.38.16,2.64.11,4,.19,2.48.2,3.35.33l.91,1c0,.22-.16.42-.49.62a4.91,4.91,0,0,1-1.17.48,13.26,13.26,0,0,1-1.49.33,8.75,8.75,0,0,1-1.4.13,4,4,0,0,1-.72.07h-.58c-.65,0-1.38,0-2.18-.07s-1.7-.06-2.7-.06h-2.34v5.26c.09.65.19,1.45.3,2.41s.21,1.86.32,2.72.23,1.93.36,3.19c0,.22.21.39.52.52a4.25,4.25,0,0,0,1,.29,7,7,0,0,0,1.23.1h1.17c.52,0,1.22,0,2.08-.07a20.76,20.76,0,0,0,2.83-.35,16.27,16.27,0,0,0,3.09-.94,9,9,0,0,0,2.73-1.76h.52Z"/><path d="M489.26,421.61c-.05.3-.12.7-.23,1.2s-.23,1-.36,1.46-.26.89-.39,1.24a.85.85,0,0,1-.91.52v-1.36c0-2,0-3.48-.06-4.59a6.71,6.71,0,0,0-.46-2.47,1.76,1.76,0,0,0-1.23-1,11.07,11.07,0,0,0-2.34-.19c-.48,0-1.06,0-1.76.1a16.07,16.07,0,0,0-2.21.36,20.07,20.07,0,0,0-2.3.64,7.9,7.9,0,0,0-2.05,1,9.54,9.54,0,0,0-3,3.35,17.93,17.93,0,0,0-1.66,4.36,27.23,27.23,0,0,0-.71,4.61c-.11,1.54-.17,2.92-.17,4.13a17.47,17.47,0,0,0,.95,5.69,10.3,10.3,0,0,0,2.82,4.45,9.59,9.59,0,0,0,4.07,1.72,28,28,0,0,0,5,.43,12.06,12.06,0,0,0,4.07-.66,17.82,17.82,0,0,0,3.21-1.46,15,15,0,0,0,2.28-1.62c.6-.54,1-.92,1.3-1.14h.58v.06a7.39,7.39,0,0,1-.42,1c-.19.41-.39.8-.58,1.17a10.16,10.16,0,0,1-.56.94c-.17.26-.28.39-.32.39a2,2,0,0,0-1.3.59l-1.5,1.89a8.31,8.31,0,0,1-1.82.64c-.82.22-1.76.43-2.82.62s-2.21.36-3.45.49a35.61,35.61,0,0,1-3.74.19,27.36,27.36,0,0,1-5.36-.52,13.65,13.65,0,0,1-4.71-1.82,9.83,9.83,0,0,1-3.38-3.54,11.3,11.3,0,0,1-1.3-5.75v-4.94c0-1.43,0-2.89.13-4.39a23.2,23.2,0,0,1,.71-4.48,25,25,0,0,1,1.69-4.52,20.06,20.06,0,0,1,3.06-4.48,5.17,5.17,0,0,1,3-1.66,20.52,20.52,0,0,1,4.26-.42H478c1.65,0,3.28,0,4.91.12s3.13.13,4.52.13a3.07,3.07,0,0,0,.75-.13l1-.25a8.83,8.83,0,0,0,.91-.3l.62-.23.45.07a7.59,7.59,0,0,1-.26,2c-.17.67-.37,1.37-.58,2.08s-.42,1.43-.62,2.15A14.85,14.85,0,0,0,489.26,421.61Z"/><path d="M502.52,422.33a13.34,13.34,0,0,0-.2-2.25,8.9,8.9,0,0,0-.58-2,4.23,4.23,0,0,0-1-1.5,2.36,2.36,0,0,0-1.63-.58l-.26,0a3.54,3.54,0,0,0-.52,0,6.12,6.12,0,0,0-2.27.49,2.2,2.2,0,0,0-1.43,1.91l-1,8.84a.87.87,0,0,1-.94-.91c-.07-.6-.15-1.3-.23-2.08s-.17-1.54-.23-2.3-.12-1.31-.16-1.66a10.36,10.36,0,0,0-.59-1.92c-.26-.63-.53-1.23-.81-1.82a13.07,13.07,0,0,1-.71-1.79,5.92,5.92,0,0,1-.3-1.88H490l.61.23c.29.11.59.2.91.29l.95.26a2.75,2.75,0,0,0,.78.13q3.18.19,6.08.29c1.92.07,3.91.1,5.95.1s4.3,0,6.5-.1,4.43-.18,6.69-.35a6.29,6.29,0,0,0,1.78-.36,6.64,6.64,0,0,0,1.4-.55l.59.06a8.55,8.55,0,0,1-.26,2c-.18.69-.37,1.39-.59,2.11s-.43,1.43-.65,2.14a12.07,12.07,0,0,0-.45,2c-.05.35-.14.9-.29,1.66s-.31,1.52-.46,2.3-.38,1.76-.68,2.93h-1V424.4c0-.95-.05-2-.13-3.08a21.33,21.33,0,0,0-.52-3.28,1.91,1.91,0,0,0-.46-1.14,3.14,3.14,0,0,0-.94-.69,3.63,3.63,0,0,0-1.17-.32c-.41,0-.77-.06-1.07-.06a6,6,0,0,0-.62,0l-.42,0a2.06,2.06,0,0,0-1.59.68,4.88,4.88,0,0,0-1,1.72,9.55,9.55,0,0,0-.46,2.31c-.06.85-.09,1.66-.09,2.44l-.07,17.35a15,15,0,0,0,.39,3.68,11.31,11.31,0,0,0,1,2.6,7.62,7.62,0,0,0,1.23,1.72,8,8,0,0,0,1.17,1v.45c-1.21-.09-2.47-.16-3.77-.23s-2.58-.09-3.83-.09-2.54,0-3.84.13l-3.9.25v-.51l1.2-.69a5.81,5.81,0,0,0,1.53-1.33,8.1,8.1,0,0,0,1.37-2.54,14.61,14.61,0,0,0,.65-4.42Z"/><path d="M518.51,456.38h-.59l-.52-8.32c0-1.51,0-2.78-.06-3.8s-.1-1.92-.17-2.7-.14-1.48-.22-2.11-.18-1.31-.26-2.05q1-1.42,1.62-2.43t1.17-2.25l.72-.13.19,2.93a12.44,12.44,0,0,1-.1,1.46c-.06.59-.18,1.38-.35,2.37-.05.31-.09.63-.13,1a6.43,6.43,0,0,0-.07.91l.33,5.91c0,.35,0,.74.06,1.18a3.74,3.74,0,0,0,.33,1.23,3,3,0,0,0,.71,1,1.65,1.65,0,0,0,1.17.42,10.13,10.13,0,0,0,3.9-.78,10.62,10.62,0,0,0,5.62-5.36,9.18,9.18,0,0,0,.88-4,5.54,5.54,0,0,0-1.53-3.87,30.38,30.38,0,0,0-3.7-3.35c-1.45-1.12-3-2.36-4.65-3.7a20.1,20.1,0,0,1-4.35-5,8.41,8.41,0,0,1-.59-1.69,9.46,9.46,0,0,1-.13-1.81,6.7,6.7,0,0,1,1.27-4.36,7.54,7.54,0,0,1,3.22-2.31,14.73,14.73,0,0,1,4.25-.91c1.54-.11,3-.18,4.46-.22s2.68-.11,3.77-.2a3.14,3.14,0,0,0,2.21-.84h.58c.17,0,.26.13.26.38a11.14,11.14,0,0,1-.42,2.44q-.42,1.67-.81,3.15a10.11,10.11,0,0,0-.33,1.57c0,.38-.13,1-.26,1.81s-.24,1.46-.32,2-.13.89-.13,1h-.72l-.06-.45c-.09-.87-.21-1.82-.36-2.86a12.89,12.89,0,0,0-.75-2.89,6.07,6.07,0,0,0-1.49-2.25,3.69,3.69,0,0,0-2.6-.91,5.38,5.38,0,0,0-3.45.88c-.69.59-1,1.7-1,3.35a6.21,6.21,0,0,0,1.17,3.67,18,18,0,0,0,2.93,3.19c1.17,1,2.42,2,3.77,3a47,47,0,0,1,3.77,3.12,17.85,17.85,0,0,1,2.92,3.44,7.32,7.32,0,0,1,1.17,4,6.78,6.78,0,0,1-1.43,4.26,14.49,14.49,0,0,1-3.61,3.28,30.25,30.25,0,0,1-4.84,2.57q-2.67,1.14-5.17,2.15c-1.66.67-3.15,1.31-4.45,1.91A7.86,7.86,0,0,0,518.51,456.38Z"/><path class="cls-3" d="M184.11,465.88h-.75l-.62-9.43c0-1.73,0-3.18-.06-4.34s-.1-2.17-.18-3-.18-1.65-.28-2.33-.22-1.44-.34-2.26a32.29,32.29,0,0,0,2-2.82c.47-.81.94-1.69,1.39-2.64L186,439l.19,3.35a15.32,15.32,0,0,1-.1,1.64c-.06.64-.19,1.54-.4,2.7a12.1,12.1,0,0,0-.19,2,14.51,14.51,0,0,0,.07,1.52c0,.48.06.94.06,1.4,0,.95,0,1.76.09,2.45s.09,1.18.09,1.52a9.79,9.79,0,0,0,.1,1.24,5,5,0,0,0,.37,1.33,2.73,2.73,0,0,0,.81,1.08,2.1,2.1,0,0,0,1.39.44,13.11,13.11,0,0,0,4.65-.84,12.35,12.35,0,0,0,3.94-2.36,11.8,11.8,0,0,0,2.73-3.62,10.56,10.56,0,0,0,1-4.65,5.57,5.57,0,0,0-.84-3,12.17,12.17,0,0,0-2.2-2.6,32,32,0,0,0-3.1-2.48q-1.74-1.25-3.6-2.67a47.41,47.41,0,0,1-3.68-3.13,22.11,22.11,0,0,1-3.32-3.94,8.43,8.43,0,0,1-.75-1.83,9.08,9.08,0,0,1-.18-2,7.61,7.61,0,0,1,1.49-5,8.86,8.86,0,0,1,3.81-2.67,18.4,18.4,0,0,1,5.08-1.08c1.84-.15,3.61-.24,5.3-.28s3.2-.13,4.5-.25a3.83,3.83,0,0,0,2.63-1h.69c.12,0,.18.16.18.49a8.82,8.82,0,0,1-.22,1.71c-.14.72-.32,1.49-.52,2.29s-.41,1.58-.59,2.33-.32,1.32-.4,1.73-.17.93-.25,1.55-.17,1.23-.25,1.83-.17,1.12-.25,1.55-.41.65-1,.65l-.06-.49c-.13-1-.28-2.09-.47-3.29a13.79,13.79,0,0,0-.93-3.35,6.93,6.93,0,0,0-1.8-2.57,4.42,4.42,0,0,0-3.06-1,6.34,6.34,0,0,0-4,1c-.81.66-1.21,1.92-1.21,3.78a7,7,0,0,0,1.39,4.22,21.32,21.32,0,0,0,3.44,3.66q2.06,1.73,4.5,3.41a45.45,45.45,0,0,1,4.49,3.47,20.52,20.52,0,0,1,3.45,3.84,7.94,7.94,0,0,1,1.39,4.53,7.44,7.44,0,0,1-1.7,4.86,17.73,17.73,0,0,1-4.31,3.72,35.78,35.78,0,0,1-5.77,2.92c-2.11.85-4.14,1.64-6.11,2.39s-3.72,1.46-5.27,2.17A8.58,8.58,0,0,0,184.11,465.88Z"/><path class="cls-3" d="M209.78,440.52a22.78,22.78,0,0,1,1.48-8.8,19.1,19.1,0,0,1,4-6.14,16,16,0,0,1,6-3.85,18.49,18.49,0,0,1,6.82-1.3,8.92,8.92,0,0,1,4.15.87,13.46,13.46,0,0,1,3.78,2.42,19.34,19.34,0,0,1,2.67,4.21,16.72,16.72,0,0,1,.93,6,27.51,27.51,0,0,1-.5,6.2,39.53,39.53,0,0,1-1.92,5.76,31.85,31.85,0,0,1-3.35,4.9,13.2,13.2,0,0,1-4.89,3.1,22.23,22.23,0,0,1-9.74.87,7.11,7.11,0,0,1-3.72-1.3,5.82,5.82,0,0,1-2.91-2.67,19.12,19.12,0,0,1-2.23-4.22A26.19,26.19,0,0,1,209.78,440.52Zm6.82.56a12.54,12.54,0,0,0,.68,4.15,9.94,9.94,0,0,0,1.8,3.1,5.86,5.86,0,0,0,2.41,2.05,6.76,6.76,0,0,0,2.92.62,5.19,5.19,0,0,0,3.9-1.61,12.18,12.18,0,0,0,2.67-3.48,34.48,34.48,0,0,0,1.55-5.08c.29-2.69.43-4.53.43-5.52q0-.93-.09-1.92c-.06-.66-.09-1.36-.09-2.11-.17-.7-.54-2-1.12-4a16.87,16.87,0,0,0-1.8-3.1A5.07,5.07,0,0,0,227,423.1a6.4,6.4,0,0,0-3.29,1.11,11.24,11.24,0,0,0-3.28,3.1,20.75,20.75,0,0,0-2.61,5.77A26.54,26.54,0,0,0,216.6,441.08Z"/><path class="cls-3" d="M265.2,451.62a26.2,26.2,0,0,1-5.95,2.66,21.39,21.39,0,0,1-6.51,1.06,14.16,14.16,0,0,1-3.13-.34,7.08,7.08,0,0,1-2.57-1.15,5.54,5.54,0,0,1-1.74-2,6.54,6.54,0,0,1-.62-3v-3q0-1.86,0-5.64c0-2.52,0-6,.09-10.54,0-.5,0-.94,0-1.34a4.41,4.41,0,0,0-.21-1.14A6.49,6.49,0,0,0,244,426a14.28,14.28,0,0,0-.9-1.33c-.08,0-.31-.2-.68-.47s-.78-.58-1.21-.93l-1.21-1a2.84,2.84,0,0,1-.62-.56v-.62h.44c1.48,0,3-.05,4.43-.15s2.88-.23,4.25-.37,2.63-.29,3.81-.44,2.24-.23,3.19-.28v.5a5.18,5.18,0,0,0-2.23,1,4.39,4.39,0,0,0-1.21,1.61,7.32,7.32,0,0,0-.53,2,18.8,18.8,0,0,0-.12,2.08v18.6a4.18,4.18,0,0,0,1.61,3.56,6.22,6.22,0,0,0,3.84,1.21,9.72,9.72,0,0,0,4.44-1.15,10.29,10.29,0,0,0,3.87-3.5v-18.1a22.53,22.53,0,0,0-.18-2.89,6.14,6.14,0,0,0-1.43-2.94c-.08,0-.31-.2-.68-.47s-.78-.58-1.21-.93l-1.21-1a2.84,2.84,0,0,1-.62-.56v-.62a9.47,9.47,0,0,0,3.1.44,20.22,20.22,0,0,0,2.95-.22c1-.14,2-.3,3-.46l2.79-.47a15.7,15.7,0,0,1,2.39-.22v.5a5.5,5.5,0,0,0-2.45,1.12,5.83,5.83,0,0,0-1.49,1.82,7.27,7.27,0,0,0-.71,2.17,13.2,13.2,0,0,0-.19,2.21v22.13a10.15,10.15,0,0,0,.53,3.81,3.87,3.87,0,0,0,1.3,1.74,4.62,4.62,0,0,0,1.65.71,3.67,3.67,0,0,1,1.55.75v.8q-1.62,0-2.7.06a15.49,15.49,0,0,0-1.92.22,12.31,12.31,0,0,0-1.59.4l-1.61.56c-.7.21-1.2.36-1.48.47l-.72.24-.68.25c-.27.11-.75.28-1.46.53l-.06-.81a11.63,11.63,0,0,1,1.74-1.3,12.51,12.51,0,0,0,2-1.61,8.79,8.79,0,0,0-.15-1.43A1.89,1.89,0,0,0,265.2,451.62Z"/><path class="cls-3" d="M275.19,420.65c.94.1,1.9.18,2.85.22l12.4-.44V421a5.27,5.27,0,0,0-2.33.53,1.92,1.92,0,0,0-1.08,1.89,5.58,5.58,0,0,0,.59,2.29,18.78,18.78,0,0,0,1.55,2.76c.64,1,1.35,2,2.13,3s1.58,1.94,2.36,2.85l2.17,2.48c.66.74,1.2,1.36,1.61,1.86h.44v-8.5q0-2.6,0-5.61c0-2,.1-3.91.25-5.73a42.32,42.32,0,0,1,.65-4.93,8.15,8.15,0,0,1,1.17-3.19h.63a23.26,23.26,0,0,0-.13,2.41v2q0,1.43.06,2.73c0,.86.1,1.8.16,2.82s.13,2.19.22,3.53.15,3,.21,4.87.12,4.17.16,6.82.06,5.78.06,9.42c0,2,0,3.86-.13,5.61s-.12,3.49-.12,5.18c0,.83,0,1.64.06,2.45s.11,1.6.19,2.39l-.81.06c-.37,0-.69-.43-1-1.27a28.75,28.75,0,0,1-.74-2.86c-.23-1.05-.44-2.05-.62-3a3.55,3.55,0,0,0-.65-1.74,52.93,52.93,0,0,0-3.72-5.49c-1.37-1.75-2.76-3.48-4.19-5.17s-2.84-3.39-4.24-5.09-2.73-3.45-4-5.27h-.56v16.25a6,6,0,0,0,.53,2.66,5,5,0,0,0,1.45,1.86A7.4,7.4,0,0,0,285,453a10.32,10.32,0,0,0,2.57.56l.07.74a12.06,12.06,0,0,0-1.86-.12H274a10,10,0,0,0-1.68.12v-.74c0-.16.29-.34.87-.53a9.62,9.62,0,0,0,1.95-.9,6.63,6.63,0,0,0,2-1.73,4.94,4.94,0,0,0,.86-3.1V426.14a5.27,5.27,0,0,0-.86-2.48,4,4,0,0,0-1.8-1.55,8.41,8.41,0,0,0-1.86-.66,2.57,2.57,0,0,1-1.18-.46v-.62C273.26,420.45,274.23,420.55,275.19,420.65Z"/><path class="cls-3" d="M327,417.15c.67,0,1.41,0,2.24.06a11.15,11.15,0,0,1,2.55.43,9.45,9.45,0,0,1,2.55,1.18,7.91,7.91,0,0,1,2.24,2.29,12.68,12.68,0,0,1,1.59,3.79,23.12,23.12,0,0,1,.59,5.64,31,31,0,0,1-1.31,8.43,35.81,35.81,0,0,1-3.89,8.83,30.44,30.44,0,0,1-6.37,7.48,19.65,19.65,0,0,1-8.83,4.27,7,7,0,0,0-2.2,1.27,12.14,12.14,0,0,0-2,2.11,18.54,18.54,0,0,0-1.58,2.54,14,14,0,0,0-1,2.45l-1.12.75v-8.19a7,7,0,0,0-1.36-.43c-.91-.25-1.91-.54-3-.87a28,28,0,0,1-3-1.08c-.91-.4-1.37-.76-1.37-1.09l.06-.87c0,.25.34.46,1,.62a22,22,0,0,0,2.38.44c.93.12,1.88.21,2.86.28s1.78.09,2.44.09V430.66a29.62,29.62,0,0,0-.43-5.67,11.11,11.11,0,0,0-1.12-3.32,4.66,4.66,0,0,0-1.48-1.67,5.47,5.47,0,0,0-1.58-.68c-.52-.13-1-.23-1.37-.31a1,1,0,0,1-.77-.62v-.93a13.31,13.31,0,0,0,1.45.09l2.55.06,3.1.06,3.19.06,2.85.07,2,0Zm-7.54,39.27a17,17,0,0,0,3.76-3,30.8,30.8,0,0,0,3.4-4.27,38.45,38.45,0,0,0,2.76-4.9,32.65,32.65,0,0,0,1.87-4.87,15,15,0,0,0,.69-4.15,26.47,26.47,0,0,0-.56-5.4,15.81,15.81,0,0,0-1.81-4.77,10.69,10.69,0,0,0-3.21-3.44,8.57,8.57,0,0,0-4.7-1.4h-.62a3.38,3.38,0,0,0-2,.41,2.25,2.25,0,0,0-.47,1.7v33.54l-2.91,1.74A7.54,7.54,0,0,0,319.5,456.42Z"/><path class="cls-3" d="M380.58,453.23a4,4,0,0,0-.37,1.12c-.16.66-.35,1.41-.56,2.26s-.42,1.67-.65,2.48a8.56,8.56,0,0,1-.65,1.77c-.45,0-.65-.17-.59-.5a6.58,6.58,0,0,0,.1-1.18c0-.25,0-.6-.07-1.05s-.1-.92-.18-1.4a8.11,8.11,0,0,0-.31-1.21c-.13-.33-.29-.49-.5-.49h-12q-3.28,0-6.44,0c-2.11,0-3.91-.05-5.4-.1v-.8c0-.25.35-.44,1.06-.56s1.48-.29,2.35-.5a8.81,8.81,0,0,0,2.45-1,2.54,2.54,0,0,0,1.33-1.95V438.78c0-.12-.24-.18-.74-.18a7.17,7.17,0,0,0-1,.09c-.42.06-.81.14-1.18.22l-1,.21a3.78,3.78,0,0,1-.5.1l.75-2.36a.91.91,0,0,1,.52-.56,5.9,5.9,0,0,1,1.09-.43c.41-.12.8-.23,1.18-.31a4.41,4.41,0,0,1,.86-.12v-5.77q0-.81,0-1.74a8.67,8.67,0,0,0-.25-1.83,5.47,5.47,0,0,0-.71-1.67,3.79,3.79,0,0,0-1.36-1.27,7.49,7.49,0,0,1-.78-.47c-.35-.22-.72-.47-1.11-.74s-.76-.51-1.09-.71a3.83,3.83,0,0,1-.62-.44v-.74c1.65.12,3.35.23,5.09.31s3.38.12,5,.12q2.91,0,5.73-.12c1.88-.08,3.88-.19,6-.31a3.11,3.11,0,0,0,.72-.12l.9-.25a6.23,6.23,0,0,0,.77-.28,1.78,1.78,0,0,0,.47-.28l.55.06a7.07,7.07,0,0,1-.24,1.83c-.17.6-.37,1.19-.59,1.77s-.45,1.19-.65,1.83a7.74,7.74,0,0,0-.38,1.95,5.74,5.74,0,0,1-.4,1.27c-.23.56-.47,1.11-.74,1.64s-.52,1-.75,1.43-.36.62-.4.62h-.81l.81-7.13v-.56a1.23,1.23,0,0,0-1-1.39,15.43,15.43,0,0,0-3.13-.22h-2.61a1,1,0,0,0-.93.74,7.89,7.89,0,0,0-.46,1.86,22,22,0,0,0-.19,2.42c0,.87,0,1.68,0,2.42v5.77c0,.12.46.21,1.37.27s2,.12,3.22.16,2.51.1,3.81.19,2.37.18,3.2.31l.86,1c0,.2-.15.4-.46.59a4.66,4.66,0,0,1-1.12.46,10.68,10.68,0,0,1-1.42.31,9.09,9.09,0,0,1-1.34.13,3.51,3.51,0,0,1-.68.06h-.56q-.93,0-2.07-.06c-.77-.05-1.63-.07-2.58-.07h-2.23v5c.08.62.18,1.38.28,2.29s.21,1.78.31,2.6.22,1.84.34,3c0,.21.21.37.5.5a5.05,5.05,0,0,0,1,.28,7.34,7.34,0,0,0,1.18.09h1.11c.5,0,1.16,0,2-.06a20.73,20.73,0,0,0,2.7-.34,15.44,15.44,0,0,0,2.94-.9,8.49,8.49,0,0,0,2.6-1.68h.5Z"/><path class="cls-3" d="M397.88,453.66v1l-6.32-.5a3.06,3.06,0,0,0-.56-.06h-1.55a31.28,31.28,0,0,0-4.37.28,29,29,0,0,1-3.81.28H381v-.81c0-.25.24-.41.74-.5a11.14,11.14,0,0,0,1.7-.43,6.9,6.9,0,0,0,1.8-.9,2.64,2.64,0,0,0,1-1.89V438.78q0-.18-.75-.18a7.17,7.17,0,0,0-1,.09c-.41.06-.81.14-1.18.22l-1,.21a3.78,3.78,0,0,1-.5.1l.75-2.36c0-.16.22-.34.52-.53a5.13,5.13,0,0,1,1.06-.46,12,12,0,0,1,1.18-.31,4.84,4.84,0,0,1,.9-.12v-5.77c0-.54,0-1.12,0-1.74a10.2,10.2,0,0,0-.25-1.83,5.75,5.75,0,0,0-.72-1.67,3.79,3.79,0,0,0-1.36-1.27l-.74-.47c-.38-.22-.76-.46-1.15-.71s-.76-.48-1.09-.71a5.62,5.62,0,0,1-.62-.47v-.74c1.66.12,3.35.23,5.09.31s3.39.12,5,.12q3,0,5.76-.12c1.86-.08,3.85-.19,6-.31a3.13,3.13,0,0,0,.71-.12l.9-.25a5.23,5.23,0,0,0,.77-.28,1.78,1.78,0,0,0,.47-.28l.56.06a6.35,6.35,0,0,1-.28,1.83c-.19.6-.39,1.2-.59,1.8s-.42,1.21-.62,1.83a7.34,7.34,0,0,0-.37,1.92,6.53,6.53,0,0,1-.41,1.27c-.22.56-.47,1.11-.74,1.64s-.52,1-.74,1.43a2.19,2.19,0,0,1-.41.62h-.8l.8-7.13v-.56a1.23,1.23,0,0,0-1-1.39,15.36,15.36,0,0,0-3.13-.22h-2.6a1,1,0,0,0-.93.74,7.4,7.4,0,0,0-.47,1.86c-.1.75-.16,1.55-.19,2.42s0,1.68,0,2.42v5.77c0,.12.46.21,1.37.27s2,.13,3.22.19l3.81.19a30.47,30.47,0,0,1,3.2.28l.87,1c0,.2-.16.4-.47.59a4.75,4.75,0,0,1-1.11.46,10.84,10.84,0,0,1-1.43.31,9.1,9.1,0,0,1-1.33.13,2.68,2.68,0,0,1-.69.06h-.55c-.62,0-1.32,0-2.08-.06s-1.62-.07-2.57-.07H393v10.67a3,3,0,0,0,.53,1.76,5.59,5.59,0,0,0,1.27,1.34,5.45,5.45,0,0,0,1.58.83A4.78,4.78,0,0,0,397.88,453.66Z"/><path class="cls-3" d="M421.63,453.66v1l-6.33-.5a2.88,2.88,0,0,0-.55-.06H413.2a31.43,31.43,0,0,0-4.38.28,28.75,28.75,0,0,1-3.81.28h-.31v-.81c0-.25.25-.41.75-.5a11.44,11.44,0,0,0,1.7-.43,6.9,6.9,0,0,0,1.8-.9,2.6,2.6,0,0,0,1-1.89V438.78c0-.12-.25-.18-.74-.18a7.17,7.17,0,0,0-1,.09c-.42.06-.81.14-1.18.22l-1,.21a3.78,3.78,0,0,1-.5.1l.74-2.36c0-.16.22-.34.53-.53a5,5,0,0,1,1.05-.46c.4-.12.79-.23,1.18-.31a4.84,4.84,0,0,1,.9-.12v-5.77q0-.81,0-1.74a8.67,8.67,0,0,0-.25-1.83,5.47,5.47,0,0,0-.71-1.67,3.87,3.87,0,0,0-1.36-1.27l-.75-.47-1.15-.71c-.39-.25-.75-.48-1.08-.71a4.74,4.74,0,0,1-.62-.47v-.74c1.65.12,3.35.23,5.08.31s3.39.12,5,.12c2,0,3.91,0,5.77-.12s3.84-.19,5.95-.31a3,3,0,0,0,.71-.12l.9-.25a5.85,5.85,0,0,0,.78-.28,1.69,1.69,0,0,0,.46-.28l.56.06a6,6,0,0,1-.28,1.83c-.18.6-.38,1.2-.59,1.8l-.62,1.83a7.77,7.77,0,0,0-.37,1.92,6.34,6.34,0,0,1-.4,1.27c-.23.56-.48,1.11-.75,1.64s-.51,1-.74,1.43a2.32,2.32,0,0,1-.4.62h-.81l.81-7.13v-.56a1.23,1.23,0,0,0-1-1.39,15.43,15.43,0,0,0-3.13-.22h-2.61a1,1,0,0,0-.93.74,7.43,7.43,0,0,0-.46,1.86,19.81,19.81,0,0,0-.19,2.42c0,.87,0,1.68,0,2.42v5.77c0,.12.45.21,1.36.27s2,.13,3.23.19l3.81.19a30.25,30.25,0,0,1,3.19.28l.87,1c0,.2-.15.4-.46.59a4.84,4.84,0,0,1-1.12.46,10.5,10.5,0,0,1-1.43.31,9,9,0,0,1-1.33.13,2.54,2.54,0,0,1-.68.06h-.56c-.62,0-1.31,0-2.08-.06s-1.62-.07-2.57-.07h-2.23v10.67a3,3,0,0,0,.53,1.76,5.4,5.4,0,0,0,1.27,1.34,5.33,5.33,0,0,0,1.58.83A4.73,4.73,0,0,0,421.63,453.66Z"/><path class="cls-3" d="M455.73,453.23a3.4,3.4,0,0,0-.37,1.12c-.17.66-.36,1.41-.56,2.26s-.43,1.67-.65,2.48a9.92,9.92,0,0,1-.65,1.77c-.46,0-.66-.17-.59-.5a6.67,6.67,0,0,0,.09-1.18q0-.37-.06-1.05c0-.46-.11-.92-.19-1.4a7,7,0,0,0-.31-1.21c-.12-.33-.29-.49-.49-.49h-12q-3.29,0-6.45,0c-2.11,0-3.91-.05-5.4-.1v-.8c0-.25.36-.44,1.06-.56s1.49-.29,2.35-.5a8.81,8.81,0,0,0,2.45-1,2.55,2.55,0,0,0,1.34-1.95V438.78q0-.18-.75-.18a7.3,7.3,0,0,0-1,.09c-.41.06-.81.14-1.18.22l-1,.21a3.81,3.81,0,0,1-.49.1l.74-2.36a.93.93,0,0,1,.53-.56,6.07,6.07,0,0,1,1.08-.43c.41-.12.81-.23,1.18-.31a4.4,4.4,0,0,1,.87-.12v-5.77q0-.81,0-1.74a10.2,10.2,0,0,0-.25-1.83,5.72,5.72,0,0,0-.71-1.67,3.9,3.9,0,0,0-1.37-1.27,9,9,0,0,1-.77-.47c-.36-.22-.73-.47-1.12-.74s-.75-.51-1.08-.71a4.09,4.09,0,0,1-.63-.44v-.74c1.66.12,3.35.23,5.09.31s3.39.12,5,.12q2.91,0,5.73-.12c1.88-.08,3.88-.19,6-.31a3.13,3.13,0,0,0,.71-.12l.9-.25a5.23,5.23,0,0,0,.77-.28,1.63,1.63,0,0,0,.47-.28l.56.06a7.08,7.08,0,0,1-.25,1.83,18.36,18.36,0,0,1-.59,1.77c-.23.58-.44,1.19-.65,1.83a7.72,7.72,0,0,0-.37,1.95,5.9,5.9,0,0,1-.41,1.27c-.22.56-.47,1.11-.74,1.64s-.52,1-.74,1.43a2.19,2.19,0,0,1-.41.62h-.8l.8-7.13v-.56a1.23,1.23,0,0,0-1-1.39,15.36,15.36,0,0,0-3.13-.22h-2.6a1,1,0,0,0-.93.74,7.4,7.4,0,0,0-.47,1.86,22.12,22.12,0,0,0-.18,2.42c0,.87,0,1.68,0,2.42v5.77c0,.12.45.21,1.36.27s2,.12,3.22.16,2.51.1,3.82.19,2.36.18,3.19.31l.87,1c0,.2-.16.4-.47.59a4.75,4.75,0,0,1-1.11.46,10.84,10.84,0,0,1-1.43.31,9.1,9.1,0,0,1-1.33.13,3.69,3.69,0,0,1-.69.06h-.55c-.62,0-1.32,0-2.08-.06s-1.62-.07-2.57-.07H442v5c.08.62.17,1.38.27,2.29s.21,1.78.31,2.6.22,1.84.35,3c0,.21.2.37.49.5a5.05,5.05,0,0,0,1,.28,7.43,7.43,0,0,0,1.18.09h1.12q.74,0,2-.06a20.32,20.32,0,0,0,2.7-.34,15.44,15.44,0,0,0,2.94-.9,8.54,8.54,0,0,0,2.61-1.68h.49Z"/><path class="cls-3" d="M482,427.69q-.06.44-.21,1.14c-.11.48-.22.94-.34,1.4s-.25.85-.38,1.18a.8.8,0,0,1-.86.49v-1.3c0-1.86,0-3.32-.07-4.37a6.23,6.23,0,0,0-.43-2.36,1.7,1.7,0,0,0-1.18-1,10.7,10.7,0,0,0-2.23-.18c-.45,0-1,0-1.67.09a17.38,17.38,0,0,0-2.11.34,21.14,21.14,0,0,0-2.2.62,7.45,7.45,0,0,0-1.95,1,9,9,0,0,0-2.86,3.19,17.26,17.26,0,0,0-1.58,4.16,26.79,26.79,0,0,0-.68,4.4c-.1,1.47-.15,2.78-.15,3.94a16.6,16.6,0,0,0,.89,5.42,9.85,9.85,0,0,0,2.7,4.25,9.19,9.19,0,0,0,3.88,1.64,26.43,26.43,0,0,0,4.8.41,11.74,11.74,0,0,0,3.88-.62,17.16,17.16,0,0,0,3.06-1.4,13.56,13.56,0,0,0,2.17-1.55c.58-.52,1-.88,1.24-1.08h.56v.06a7.45,7.45,0,0,1-.4,1c-.19.39-.37.76-.56,1.11a6.92,6.92,0,0,1-.53.9c-.16.25-.26.38-.31.38a1.88,1.88,0,0,0-1.24.55l-1.42,1.8a7.4,7.4,0,0,1-1.74.62c-.78.21-1.68.4-2.69.59s-2.11.34-3.29.47a35.26,35.26,0,0,1-3.57.18,26.34,26.34,0,0,1-5.11-.49,13.28,13.28,0,0,1-4.5-1.74,9.59,9.59,0,0,1-3.22-3.38,10.8,10.8,0,0,1-1.24-5.49v-4.71c0-1.36,0-2.76.12-4.18a21.81,21.81,0,0,1,.69-4.28,23.4,23.4,0,0,1,1.61-4.31,19.09,19.09,0,0,1,2.91-4.28,5,5,0,0,1,2.89-1.58,19.35,19.35,0,0,1,4.06-.4h2.54q2.35,0,4.68.12c1.55.08,3,.13,4.31.13a3.28,3.28,0,0,0,.71-.13l.93-.25a6.83,6.83,0,0,0,.87-.28l.59-.21.43.06a7.33,7.33,0,0,1-.25,1.89c-.16.64-.35,1.3-.55,2s-.41,1.37-.59,2.05A14.77,14.77,0,0,0,482,427.69Z"/><path class="cls-3" d="M494.66,428.37a13.06,13.06,0,0,0-.18-2.14,8.77,8.77,0,0,0-.56-2,4.06,4.06,0,0,0-1-1.43,2.25,2.25,0,0,0-1.55-.56l-.25,0a3.34,3.34,0,0,0-.5,0,6,6,0,0,0-2.17.46,2.13,2.13,0,0,0-1.36,1.83l-1,8.44a.84.84,0,0,1-.9-.87c-.07-.58-.14-1.24-.22-2s-.16-1.47-.22-2.2-.11-1.25-.15-1.58a10.15,10.15,0,0,0-.56-1.83c-.25-.6-.51-1.18-.77-1.73a13.89,13.89,0,0,1-.69-1.71,6,6,0,0,1-.28-1.8h.44l.59.22a8.68,8.68,0,0,0,.86.28l.9.25a2.89,2.89,0,0,0,.75.12c2,.13,4,.22,5.79.28s3.74.09,5.69.09,4.1,0,6.2-.09,4.22-.17,6.37-.34a6,6,0,0,0,1.71-.34,5.49,5.49,0,0,0,1.33-.53l.56.06a7.81,7.81,0,0,1-.25,1.93c-.16.66-.35,1.33-.56,2s-.41,1.36-.62,2.05a12.75,12.75,0,0,0-.43,1.95c0,.33-.13.86-.28,1.58s-.29,1.46-.43,2.2-.37,1.68-.65,2.79h-1v-3.41q0-1.37-.12-2.94a19.43,19.43,0,0,0-.5-3.13,1.77,1.77,0,0,0-.43-1.09,3,3,0,0,0-.9-.65,3.51,3.51,0,0,0-1.12-.31,10.17,10.17,0,0,0-1-.06,5.54,5.54,0,0,0-.59,0l-.4,0a2,2,0,0,0-1.52.65,4.73,4.73,0,0,0-.93,1.64,8.76,8.76,0,0,0-.43,2.2c-.06.81-.1,1.59-.1,2.33l-.06,16.55a14.76,14.76,0,0,0,.37,3.51,11.1,11.1,0,0,0,.93,2.48,7.47,7.47,0,0,0,1.18,1.64,6.83,6.83,0,0,0,1.12.93v.43q-1.74-.12-3.6-.21c-1.24-.07-2.46-.1-3.66-.1s-2.41.05-3.65.13l-3.72.25v-.5l1.14-.65a5.66,5.66,0,0,0,1.46-1.27,7.68,7.68,0,0,0,1.3-2.42,13.8,13.8,0,0,0,.62-4.22Z"/><path class="cls-3" d="M509.91,460.86h-.55l-.5-7.94q0-2.18-.06-3.63c0-1-.1-1.83-.16-2.57s-.13-1.42-.22-2-.16-1.24-.24-1.95c.66-.91,1.18-1.68,1.55-2.32s.74-1.36,1.11-2.14l.69-.13.18,2.79a13.45,13.45,0,0,1-.09,1.4c-.06.56-.18,1.31-.34,2.26,0,.29-.09.6-.13.93a7.34,7.34,0,0,0-.06.87l.31,5.64c0,.33,0,.7.06,1.12a4,4,0,0,0,.31,1.18,3,3,0,0,0,.69,1,1.54,1.54,0,0,0,1.11.4,9.76,9.76,0,0,0,3.72-.74,10.16,10.16,0,0,0,5.36-5.12,8.77,8.77,0,0,0,.84-3.81,5.27,5.27,0,0,0-1.46-3.69,28.19,28.19,0,0,0-3.53-3.19q-2.07-1.62-4.43-3.54a19.57,19.57,0,0,1-4.16-4.77,8.06,8.06,0,0,1-.55-1.61,8.8,8.8,0,0,1-.13-1.74,6.37,6.37,0,0,1,1.21-4.15,7.21,7.21,0,0,1,3.07-2.21,14.08,14.08,0,0,1,4.06-.86c1.47-.11,2.88-.18,4.25-.22s2.56-.1,3.59-.19a3,3,0,0,0,2.11-.8h.56c.16,0,.25.12.25.37a10.53,10.53,0,0,1-.41,2.32c-.27,1.06-.52,2.06-.77,3a10,10,0,0,0-.31,1.49c0,.37-.13.95-.25,1.74s-.23,1.38-.31,1.92-.12.84-.12.93h-.69l-.06-.44c-.08-.82-.19-1.73-.34-2.72a12.13,12.13,0,0,0-.71-2.76,5.72,5.72,0,0,0-1.43-2.14,3.47,3.47,0,0,0-2.48-.87,5.07,5.07,0,0,0-3.28.84c-.66.55-1,1.62-1,3.19a6,6,0,0,0,1.12,3.5,17.06,17.06,0,0,0,2.79,3q1.68,1.45,3.6,2.88a44.69,44.69,0,0,1,3.59,3,16.65,16.65,0,0,1,2.79,3.29,6.9,6.9,0,0,1,1.12,3.84,6.46,6.46,0,0,1-1.37,4.06,13.71,13.71,0,0,1-3.44,3.13,28.72,28.72,0,0,1-4.62,2.45c-1.69.72-3.33,1.41-4.92,2.05s-3,1.25-4.25,1.83A7.43,7.43,0,0,0,509.91,460.86Z"/><ellipse cx="551.74" cy="428.79" rx="4.26" ry="4.25" transform="translate(-43.58 62.91) rotate(-6.28)"/><circle class="cls-3" cx="551.08" cy="428.98" r="3.57"/><ellipse cx="551.74" cy="445.79" rx="4.26" ry="4.25" transform="translate(-45.44 63.01) rotate(-6.28)"/><circle class="cls-3" cx="551.08" cy="445.98" r="3.57"/></g></g></svg>
