<svg xmlns="http://www.w3.org/2000/svg" xmlns:xlink="http://www.w3.org/1999/xlink" width="170" height="190" viewBox="0 0 170 190"><defs><style>.cls-1{isolation:isolate;}.cls-2{fill:#e85c0f;}.cls-3{fill:#ee6e08;}.cls-4{fill:#f47f00;}.cls-5{fill:#350e00;}.cls-6{mix-blend-mode:screen;fill:url(#linear-gradient);}.cls-7{fill:url(#New_Gradient_Swatch_5);}.cls-8{fill:url(#New_Gradient_Swatch_5-2);}.cls-9{fill:url(#New_Gradient_Swatch_5-3);}</style><linearGradient id="linear-gradient" x1="346.68" y1="-295.44" x2="346.68" y2="-256.75" gradientTransform="translate(-213.69 -227.59) rotate(89.87)" gradientUnits="userSpaceOnUse"><stop offset="0" stop-color="#fff"/><stop offset="0.07" stop-color="#dedede"/><stop offset="0.22" stop-color="#a4a4a4"/><stop offset="0.36" stop-color="#727272"/><stop offset="0.5" stop-color="#494949"/><stop offset="0.64" stop-color="#292929"/><stop offset="0.77" stop-color="#121212"/><stop offset="0.89" stop-color="#050505"/><stop offset="1"/></linearGradient><linearGradient id="New_Gradient_Swatch_5" x1="-62.87" y1="192.89" x2="-9.09" y2="192.89" gradientTransform="matrix(0.93, -0.12, 0.24, 0.92, 79.34, -116.27)" gradientUnits="userSpaceOnUse"><stop offset="0" stop-color="#fff"/><stop offset="0.33" stop-color="#f9b56b"/><stop offset="0.57" stop-color="#f47f00"/><stop offset="0.62" stop-color="#d56f00"/><stop offset="0.81" stop-color="#633400"/><stop offset="0.94" stop-color="#1c0f00"/><stop offset="1"/></linearGradient><linearGradient id="New_Gradient_Swatch_5-2" x1="97.71" y1="70" x2="163.53" y2="70" gradientTransform="translate(-10.66 9.68) rotate(-6.04)" xlink:href="#New_Gradient_Swatch_5"/><linearGradient id="New_Gradient_Swatch_5-3" x1="220.51" y1="-12.61" x2="257.15" y2="-12.61" gradientTransform="translate(-98.76 113.13) rotate(-2.01)" xlink:href="#New_Gradient_Swatch_5"/></defs><title>settingskanap</title><g class="cls-1"><g id="Layer_1" data-name="Layer 1"><ellipse cx="54.8" cy="134.95" rx="40.81" ry="40.33" transform="translate(-80.63 188.56) rotate(-89.49)"/><ellipse cx="82.9" cy="138.67" rx="40.8" ry="37.58" transform="translate(-64.2 205.47) rotate(-83.55)"/><ellipse cx="55.47" cy="135.54" rx="38.43" ry="37.98" transform="translate(-80.55 189.81) rotate(-89.49)"/><ellipse cx="81.94" cy="139.04" rx="38.43" ry="35.39" transform="translate(-65.42 204.85) rotate(-83.55)"/><ellipse cx="56.15" cy="136.12" rx="36.06" ry="35.63" transform="translate(-80.47 191.07) rotate(-89.49)"/><ellipse cx="80.98" cy="139.4" rx="36.05" ry="33.2" transform="translate(-66.64 204.22) rotate(-83.55)"/><ellipse class="cls-2" cx="48.41" cy="137.44" rx="40.24" ry="40.49" transform="translate(-14.18 5.85) rotate(-6.04)"/><ellipse class="cls-2" cx="76.45" cy="141.15" rx="40.48" ry="37.5" transform="translate(-72.3 201.47) rotate(-83.63)"/><ellipse class="cls-3" cx="49.08" cy="138.02" rx="37.89" ry="38.13" transform="translate(-14.24 5.93) rotate(-6.04)"/><ellipse class="cls-3" cx="75.5" cy="141.51" rx="38.12" ry="35.32" transform="translate(-73.52 200.84) rotate(-83.63)"/><ellipse class="cls-4" cx="49.76" cy="138.6" rx="35.55" ry="35.78" transform="translate(-14.3 6) rotate(-6.04)"/><ellipse class="cls-4" cx="74.54" cy="141.88" rx="35.76" ry="33.13" transform="translate(-74.73 200.21) rotate(-83.63)"/><polygon class="cls-5" points="50.89 72.21 59.42 87.19 67.95 102.16 66.55 93.03 65.15 83.89 58.02 78.05 50.89 72.21"/><path d="M19.87,157.44l-.21,0,.17-2.65c.06-.48.11-.89.14-1.21s.05-.61.05-.85,0-.47,0-.66,0-.41,0-.64a8.81,8.81,0,0,0,.64-.72,8,8,0,0,0,.48-.68h.23l-.07.94c0,.13-.05.28-.09.46s-.11.42-.21.73a3,3,0,0,0-.12.56c0,.15,0,.3,0,.43l0,.39a4.71,4.71,0,0,0-.06.69q0,.28,0,.42a1.94,1.94,0,0,0,0,.35,1.74,1.74,0,0,0,.05.39.92.92,0,0,0,.19.33.58.58,0,0,0,.37.17,3.54,3.54,0,0,0,2.49-.58,3.18,3.18,0,0,0,.88-.91,2.88,2.88,0,0,0,.45-1.25,1.58,1.58,0,0,0-.12-.86,3,3,0,0,0-.52-.81,9.25,9.25,0,0,0-.76-.8c-.3-.28-.59-.57-.9-.88a12.59,12.59,0,0,1-.91-1,6.05,6.05,0,0,1-.78-1.22A2.4,2.4,0,0,1,21,147a2.91,2.91,0,0,1,0-.57,2.23,2.23,0,0,1,.59-1.34,2.44,2.44,0,0,1,1.16-.6,5.2,5.2,0,0,1,1.44-.12c.52,0,1,.07,1.48.12s.89.08,1.25.09a1,1,0,0,0,.77-.18l.19,0s0,0,0,.14a4.06,4.06,0,0,1-.12.47c-.07.2-.14.4-.23.62l-.25.63c-.07.2-.13.35-.17.46s-.08.26-.13.43-.09.33-.13.5-.09.3-.12.42-.14.17-.3.14v-.14c0-.28,0-.59,0-.93a4.19,4.19,0,0,0-.14-1,2,2,0,0,0-.4-.79,1.25,1.25,0,0,0-.82-.39,1.71,1.71,0,0,0-1.14.13,1.32,1.32,0,0,0-.47,1,2,2,0,0,0,.23,1.22,6.11,6.11,0,0,0,.83,1.14,13.15,13.15,0,0,0,1.12,1.12,14.87,14.87,0,0,1,1.12,1.13,5.76,5.76,0,0,1,.81,1.2,2.19,2.19,0,0,1,.22,1.31,2.07,2.07,0,0,1-.64,1.29,5.13,5.13,0,0,1-1.33.88,10.29,10.29,0,0,1-1.7.6l-1.78.44c-.57.14-1.08.27-1.53.41A2.46,2.46,0,0,0,19.87,157.44Z"/><path d="M37.28,156.5l-.71,1.17a2.55,2.55,0,0,0-.14.27c-.08.15-.16.31-.24.5l-.28.58a4.14,4.14,0,0,1-.27.49l-.21,0a4,4,0,0,0,.13-.56,2,2,0,0,0,0-.55.32.32,0,0,0-.28-.3l-4-.52-2.12-.29c-.69-.1-1.29-.19-1.8-.28l0-.24c0-.07.14-.11.38-.12s.5,0,.79-.07a3.49,3.49,0,0,0,.84-.23.9.9,0,0,0,.52-.62l.51-4s-.05-.08-.18-.1H29.9l-.41,0-.35,0-.17,0,.37-.8a.39.39,0,0,1,.22-.14,2.45,2.45,0,0,1,.41-.11l.43-.06h.28l.16-2c0-.38,0-.74,0-1.08a2.67,2.67,0,0,0-.38-1.11,1.84,1.84,0,0,0-.2-.23c-.12-.11-.24-.24-.36-.37l-.37-.38-.21-.21,0-.24c.54.12,1.09.23,1.63.32s1.11.18,1.7.26,1.23.15,1.85.21,1.27.11,1.94.15a1.12,1.12,0,0,0,.26,0l.32,0,.3-.07.19-.06.17,0a2.19,2.19,0,0,1-.17.62c-.08.19-.18.38-.28.58l-.32.6a4.47,4.47,0,0,0-.25.64,1.68,1.68,0,0,1-.18.44c-.1.2-.21.38-.32.57s-.21.34-.31.48a1.18,1.18,0,0,1-.15.2l-.23,0,.55-2.5,0-.15a.43.43,0,0,0-.24-.52,5.81,5.81,0,0,0-1-.23l-.84-.11a.38.38,0,0,0-.38.22,2.58,2.58,0,0,0-.26.64c-.06.26-.12.55-.17.86s-.08.6-.12.86l-.24,1.88s.14.09.44.15l1.08.21c.41.08.84.16,1.27.26s.79.18,1.06.26l.26.4c0,.07-.07.13-.19.17a1.89,1.89,0,0,1-.41.1,4.07,4.07,0,0,1-.5,0h-.65l-.2,0c-.22,0-.46-.06-.71-.11l-.83-.13L32.7,152l-.23,1.76c0,.21,0,.47,0,.79s0,.62,0,.91,0,.56,0,.77a1.64,1.64,0,0,0,0,.33.29.29,0,0,0,.15.2,1,1,0,0,0,.32.13,2.88,2.88,0,0,0,.4.09l.38.06.65.07a6.9,6.9,0,0,0,.91,0,4.55,4.55,0,0,0,1-.2,2.61,2.61,0,0,0,.9-.48l.18,0Z"/><path d="M40.31,155.51l.73-5.7a5.31,5.31,0,0,0,.06-.83,4.68,4.68,0,0,0-.07-.86,2.22,2.22,0,0,0-.25-.7.66.66,0,0,0-.48-.34l-.1,0L40,147a1.19,1.19,0,0,0-.45,0,3.3,3.3,0,0,0-.49.19,2,2,0,0,0-.44.32.88.88,0,0,0-.27.45l-.29,2.21-.22,0s0-.06,0-.18,0-.26-.06-.43,0-.34-.07-.52,0-.32,0-.42a3.33,3.33,0,0,0-.09-.75c0-.27-.1-.53-.16-.8s-.09-.52-.12-.77a2.75,2.75,0,0,1,0-.7h.18a.61.61,0,0,0,.16.11l.27.15.3.12a1.13,1.13,0,0,0,.26.07c.68.14,1.33.26,2,.37s1.29.2,1.94.29c1.36.18,2.8.32,4.32.41H47l.32,0,.29-.07a.7.7,0,0,0,.19-.06l.17,0a3.29,3.29,0,0,1-.17.73c-.09.27-.18.55-.28.83s-.21.57-.31.84a6,6,0,0,0-.25.75c0,.1-.07.23-.13.4s-.13.33-.2.48-.12.29-.17.4a.61.61,0,0,1-.09.17l-.23,0,.12-2.55a.88.88,0,0,0-.11-.5,2,2,0,0,0-.33-.42,1.94,1.94,0,0,0-.44-.31,1,1,0,0,0-.4-.15l-.18,0h-.1a.64.64,0,0,0-.59.22,2.29,2.29,0,0,0-.41.69,6,6,0,0,0-.27.91,7,7,0,0,0-.16.89l-.71,5.45a5.46,5.46,0,0,0,0,1.26,4.08,4.08,0,0,0,.2.92,1.86,1.86,0,0,0,.32.63,1.81,1.81,0,0,0,.34.37l0,.18-1.2-.25c-.4-.08-.81-.14-1.22-.2s-.84-.09-1.27-.12l-1.31-.08,0-.17c.12-.05.26-.12.45-.19a1.61,1.61,0,0,0,.55-.37,2.77,2.77,0,0,0,.54-.8A5.35,5.35,0,0,0,40.31,155.51Z"/><path d="M48.32,156.57l.74-5.7a7,7,0,0,0,0-.83,4,4,0,0,0-.07-.87,2.07,2.07,0,0,0-.25-.7.64.64,0,0,0-.48-.33l-.1,0a.61.61,0,0,0-.17,0,1.41,1.41,0,0,0-.44,0,3,3,0,0,0-.5.19,2,2,0,0,0-.44.32,1,1,0,0,0-.27.45l-.28,2.21-.23,0s0-.06,0-.18,0-.27-.07-.43l-.06-.52a4.06,4.06,0,0,1,0-.42,4,4,0,0,0-.08-.75c-.06-.27-.11-.53-.16-.8a7.28,7.28,0,0,1-.13-.77,2.73,2.73,0,0,1,0-.7h.17a.71.71,0,0,0,.17.11,1.71,1.71,0,0,0,.27.14l.3.13a1.07,1.07,0,0,0,.25.07c.68.14,1.34.26,2,.37l1.93.29c1.36.18,2.8.31,4.33.41H55a1.77,1.77,0,0,0,.32-.05l.3-.06.19-.06.17,0a4.28,4.28,0,0,1-.18.73c-.08.27-.18.54-.28.83s-.2.56-.31.84-.19.52-.25.74a3,3,0,0,1-.13.41c-.06.17-.13.33-.19.48l-.18.4c0,.11-.08.17-.09.16l-.22,0,.12-2.55a.88.88,0,0,0-.12-.5,1.7,1.7,0,0,0-.33-.42,1.88,1.88,0,0,0-.43-.31,1.09,1.09,0,0,0-.41-.15l-.17,0h-.11a.62.62,0,0,0-.58.22,2.31,2.31,0,0,0-.42.69,6,6,0,0,0-.27.91c-.07.33-.12.62-.16.88l-.7,5.46a5,5,0,0,0,0,1.26,4.88,4.88,0,0,0,.2.92,2.31,2.31,0,0,0,.32.63,1.81,1.81,0,0,0,.34.37l0,.18-1.2-.25c-.4-.08-.81-.14-1.22-.2s-.83-.09-1.27-.12l-1.3-.08,0-.17a4.08,4.08,0,0,1,.44-.19,1.65,1.65,0,0,0,.56-.37,3.24,3.24,0,0,0,.54-.8A5.39,5.39,0,0,0,48.32,156.57Z"/><path d="M64.34,149.62a.85.85,0,0,0-.74.29,3.19,3.19,0,0,0-.59,1,10.8,10.8,0,0,0-.45,1.64c-.13.65-.25,1.36-.35,2.15S62,156.21,62,157s-.14,1.68-.19,2.56a1,1,0,0,0,.06.54,2.7,2.7,0,0,0,.24.55,2.85,2.85,0,0,0,.34.49,2.71,2.71,0,0,0,.35.34l0,.17c-.39-.08-.79-.17-1.19-.24s-.81-.14-1.23-.2-.83-.1-1.25-.13L57.77,161l0-.17.16-.07a2.88,2.88,0,0,0,.44-.21,1.63,1.63,0,0,0,.47-.45,3.21,3.21,0,0,0,.42-.87,7.43,7.43,0,0,0,.32-1.48l.61-4.7,0-.28,0-.15a.33.33,0,0,0,0-.14c0-.45.06-.87.06-1.25a4.28,4.28,0,0,0-.1-1,1.84,1.84,0,0,0-.33-.72,1.16,1.16,0,0,0-.65-.36l0-.24,1.13.09c.34,0,.68.06,1,.1a2,2,0,0,0-.68-.27,6.54,6.54,0,0,0-.8-.15,4.13,4.13,0,0,0-2,.21A5.41,5.41,0,0,0,56.2,150a6.42,6.42,0,0,0-1.36,1.71,7,7,0,0,0-.79,2.14c0-.25,0-.48,0-.71s0-.45.06-.67a6.39,6.39,0,0,1,.68-1.86A6.47,6.47,0,0,1,56,149.05a6.32,6.32,0,0,1,1.69-1.13,7.43,7.43,0,0,1,2.13-.61l.45,0,.42,0a8.34,8.34,0,0,1,1.26.24,4,4,0,0,1,1.67,1,9.48,9.48,0,0,1,.72.78Z"/><path d="M76.86,164.81h-.24c-.13,0-.23-.12-.29-.32a3.88,3.88,0,0,1-.16-.67l-.12-.73a1.15,1.15,0,0,0-.16-.48,15.16,15.16,0,0,0-1-2.12c-.37-.68-.76-1.35-1.16-2l-1.19-2c-.39-.66-.75-1.35-1.08-2.06h-.12l-.74,5.78a2.55,2.55,0,0,0,0,1,2.33,2.33,0,0,0,.33.71,2.48,2.48,0,0,0,.43.47l.39.29,0,.25c-.64-.15-1.29-.27-1.94-.36a17.71,17.71,0,0,0-1.82-.13l0-.26s.08-.1.22-.16a2.09,2.09,0,0,0,.48-.28,2.38,2.38,0,0,0,.52-.59,2.59,2.59,0,0,0,.34-1.08l1-7.86a2.17,2.17,0,0,0-.18-1.36,1.48,1.48,0,0,0-1.18-.61,3.5,3.5,0,0,0-1.86.26,5.4,5.4,0,0,0-1.66,1.1,6.42,6.42,0,0,0-1.29,1.69,6.93,6.93,0,0,0-.75,2c0-.25,0-.49,0-.71s0-.45.06-.67a6.39,6.39,0,0,1,.68-1.86,6.49,6.49,0,0,1,1.21-1.54,6.66,6.66,0,0,1,1.69-1.13,7.28,7.28,0,0,1,2.14-.61,3.15,3.15,0,0,1,.44,0l.43,0a9.29,9.29,0,0,1,2.38.62,7.44,7.44,0,0,1,1.87,1.14l0,.21a.55.55,0,0,0-.63.28,2.2,2.2,0,0,0-.25.81,2,2,0,0,0,.1.83,7.26,7.26,0,0,0,.39,1.05c.16.37.35.75.56,1.14s.42.77.64,1.12.4.69.59,1l.45.75.16,0,.63-4.87a1.68,1.68,0,0,0,0-.6A1,1,0,0,0,77,152a1.18,1.18,0,0,0-.3-.29l-.36-.28,0-.24.23,0,.26.05.5.06.13,0,.16,0,.29,0c.4.05.8.09,1.19.1s.81,0,1.25.08l0,.17a3.9,3.9,0,0,0-.56.11,2,2,0,0,0-.64.32,2.26,2.26,0,0,0-.58.64,2.5,2.5,0,0,0-.35,1.07Z"/><path d="M87.82,155.64c.06-.48.09-.86.1-1.14a1.25,1.25,0,0,0-.11-.63.63.63,0,0,0-.36-.32,3.52,3.52,0,0,0-.65-.13,4.22,4.22,0,0,0-.57,0,5.77,5.77,0,0,0-.71,0,6.88,6.88,0,0,0-.77.13,2.13,2.13,0,0,0-.69.28,3.26,3.26,0,0,0-.81.65,4.59,4.59,0,0,0-.7,1A7.57,7.57,0,0,0,82,157a15,15,0,0,0-.41,2.1,7.08,7.08,0,0,0,0,1.95,3.46,3.46,0,0,0,.71,1.66,3.32,3.32,0,0,1,.25.27,1.59,1.59,0,0,0,.3.27,2,2,0,0,0,.46.24,3.32,3.32,0,0,0,.7.16,2.32,2.32,0,0,0,1.26-.08,1.19,1.19,0,0,0,.58-.89l.25-2a1.52,1.52,0,0,0-.1-.82,1.86,1.86,0,0,0-.46-.68,2.66,2.66,0,0,0-.72-.48,3,3,0,0,0-.89-.26l-.4,0c-.16,0-.36,0-.6,0l0-.16.41-.14a2.28,2.28,0,0,1,.51-.09,3.84,3.84,0,0,1,.58,0l.48,0a3.37,3.37,0,0,1,.62.13l.5.2.48.22a5.15,5.15,0,0,0,.52.2,1,1,0,0,0,.27,0l.49-.06a6.11,6.11,0,0,1,.64,0,4.78,4.78,0,0,1,.74,0V159a.67.67,0,0,0-.49.34,1.62,1.62,0,0,0-.24.7l-.39,3a2.12,2.12,0,0,1-.79,1.28.43.43,0,0,0-.26.06,3.66,3.66,0,0,0-.51.36A3.64,3.64,0,0,1,86,165a1,1,0,0,1-.61.1l-.58-.08a.91.91,0,0,1-.23,0l-.22,0-.48-.06a13.83,13.83,0,0,1-1.72-.35,4.87,4.87,0,0,1-1.64-.78,3.63,3.63,0,0,1-1.15-1.43,4.09,4.09,0,0,1-.24-2.28l.23-1.75c.06-.5.15-1,.25-1.5a9.77,9.77,0,0,1,.44-1.46A7.47,7.47,0,0,1,82,152.62a1.76,1.76,0,0,1,1-.43,5.31,5.31,0,0,1,1.37,0l.85.11c.53.07,1.05.15,1.56.25s1,.17,1.4.23h.26a1.64,1.64,0,0,0,.32-.05l.3-.06.19-.06.17,0a3.61,3.61,0,0,1-.16.65q-.12.34-.27.69c-.09.24-.19.47-.29.7a5.16,5.16,0,0,0-.24.69c0,.1-.07.24-.13.4s-.13.33-.2.49l-.17.4c0,.11-.08.16-.09.16l-.23,0Z"/><path d="M88.94,166.57l-.21,0,.17-2.65c.06-.48.11-.88.14-1.21s0-.6.06-.85,0-.46,0-.66,0-.4,0-.64a8.66,8.66,0,0,0,.64-.71q.24-.31.48-.69l.23,0-.07.94q0,.18-.09.45c0,.18-.11.42-.21.74a2.8,2.8,0,0,0-.12.56c0,.15,0,.29,0,.42a2.38,2.38,0,0,1,0,.39,4.82,4.82,0,0,0-.06.69c0,.19,0,.33,0,.43a1.83,1.83,0,0,0,0,.34,1.74,1.74,0,0,0,0,.39.78.78,0,0,0,.19.33.58.58,0,0,0,.37.17,3.67,3.67,0,0,0,1.32-.06,3.42,3.42,0,0,0,1.17-.51,3.35,3.35,0,0,0,.89-.91,3.27,3.27,0,0,0,.45-1.26,1.68,1.68,0,0,0-.13-.86,3.36,3.36,0,0,0-.51-.8,9.57,9.57,0,0,0-.77-.81q-.43-.4-.9-.87c-.31-.31-.61-.65-.91-1a6.05,6.05,0,0,1-.78-1.22,3,3,0,0,1-.14-.53,2.89,2.89,0,0,1,0-.57,2.18,2.18,0,0,1,.6-1.35,2.54,2.54,0,0,1,1.15-.6,5.2,5.2,0,0,1,1.44-.11c.52,0,1,.06,1.48.11s.89.08,1.25.1a1.12,1.12,0,0,0,.77-.18l.19,0s0,.06,0,.15a2,2,0,0,1-.12.46c-.07.2-.14.41-.23.62s-.17.43-.24.63l-.18.47a3.82,3.82,0,0,0-.12.42c0,.17-.09.34-.14.5s-.08.31-.12.42-.14.17-.3.15v-.14c0-.28,0-.59,0-.93a3.79,3.79,0,0,0-.14-1,2.06,2.06,0,0,0-.4-.78,1.26,1.26,0,0,0-.81-.4,1.8,1.8,0,0,0-1.15.13,1.37,1.37,0,0,0-.47,1,1.94,1.94,0,0,0,.24,1.22,5.41,5.41,0,0,0,.82,1.15,14.72,14.72,0,0,0,1.12,1.11,14.87,14.87,0,0,1,1.12,1.13,6.33,6.33,0,0,1,.81,1.2,2.28,2.28,0,0,1,.23,1.31,2.11,2.11,0,0,1-.65,1.29,4.89,4.89,0,0,1-1.33.88,10.29,10.29,0,0,1-1.7.6c-.61.16-1.21.31-1.78.44s-1.08.28-1.53.42A2.23,2.23,0,0,0,88.94,166.57Z"/><polygon points="44.57 132.83 36.54 131.85 28.51 130.87 33.46 123.53 38.41 116.2 41.49 124.52 44.57 132.83"/><polygon class="cls-4" points="32.35 130.71 30.9 130.55 29.45 130.39 30.25 129.82 31.04 129.25 31.69 129.98 32.35 130.71"/><polygon class="cls-4" points="42.26 132.04 31.04 130.56 31.21 129.27 42.43 130.75 42.26 132.04"/><polygon class="cls-4" points="43.57 132.19 42.32 132.05 41.08 131.92 41.77 131.33 42.46 130.75 43.02 131.47 43.57 132.19"/><polygon class="cls-4" points="38.39 118.53 30.62 130.56 29.92 130.1 37.7 118.08 38.39 118.53"/><polygon class="cls-4" points="37.14 119.48 37.71 118.17 38.27 116.87 38.34 117.67 38.4 118.48 37.77 118.98 37.14 119.48"/><polygon points="32.27 128.78 29.56 130.65 29.38 130.38 32.09 128.51 32.27 128.78"/><polygon points="84.96 138.17 76.92 137.19 68.89 136.21 73.84 128.87 78.79 121.53 81.87 129.85 84.96 138.17"/><polygon class="cls-4" points="72.73 136.04 71.28 135.88 69.83 135.72 70.63 135.15 71.42 134.58 72.08 135.31 72.73 136.04"/><polygon class="cls-4" points="82.65 137.37 71.43 135.89 71.59 134.6 82.81 136.08 82.65 137.37"/><polygon class="cls-4" points="83.95 137.52 82.71 137.39 81.46 137.25 82.16 136.67 82.85 136.09 83.4 136.81 83.95 137.52"/><polygon class="cls-4" points="78.78 123.87 71 135.89 70.31 135.44 78.08 123.41 78.78 123.87"/><polygon class="cls-4" points="77.52 124.82 78.09 123.51 78.66 122.2 78.72 123.01 78.78 123.81 78.15 124.32 77.52 124.82"/><polygon points="72.66 134.11 69.94 135.98 69.76 135.72 72.47 133.84 72.66 134.11"/><ellipse class="cls-6" cx="63.22" cy="118.44" rx="19.34" ry="39.12" transform="translate(-62.53 165.49) rotate(-82.42)"/><polygon points="81.64 92.28 75.95 87.93 70.26 83.59 96.2 55.16 122.15 26.73 101.89 59.51 81.64 92.28"/><polygon class="cls-7" points="80.05 90.64 75.41 87.09 70.77 83.55 90.94 61.67 111.11 39.79 95.58 65.22 80.05 90.64"/><polygon points="116.2 106.13 105.63 98.78 95.06 91.43 130.31 51.42 165.56 11.41 140.88 58.77 116.2 106.13"/><polygon class="cls-8" points="114.51 104.3 105.39 97.96 96.26 91.61 125.83 58.33 155.41 25.04 134.96 64.67 114.51 104.3"/><polygon points="130.77 125.28 125.84 122.71 120.91 120.14 142.21 84.74 163.51 49.34 147.14 87.31 130.77 125.28"/><polygon class="cls-9" points="130.11 122.89 126.1 120.81 122.09 118.72 139.41 89.94 156.73 61.15 143.42 92.02 130.11 122.89"/></g></g></svg>
