<svg xmlns="http://www.w3.org/2000/svg" xmlns:xlink="http://www.w3.org/1999/xlink" width="1600" height="900" viewBox="0 0 1600 900"><defs><style>.cls-1{fill:none;}.cls-2{isolation:isolate;}.cls-3{fill:url(#linear-gradient);}.cls-4{fill:url(#New_Gradient_Swatch_2);}.cls-5{fill:url(#New_Gradient_Swatch_2-2);}.cls-6{fill:url(#New_Gradient_Swatch_2-3);}.cls-7{fill:url(#New_Gradient_Swatch_2-4);}.cls-8{fill:url(#New_Gradient_Swatch_1);}.cls-45,.cls-9{fill:#fff;}.cls-10,.cls-13{opacity:0.65;}.cls-11{fill:#3f2300;}.cls-12{fill:url(#New_Gradient_Swatch_2-5);}.cls-14{fill:#020202;}.cls-15{fill:url(#New_Gradient_Swatch_2-6);}.cls-16{fill:url(#linear-gradient-2);}.cls-17{fill:#c6c4c4;}.cls-18{fill:url(#linear-gradient-3);}.cls-19,.cls-20{fill:#ccc;}.cls-19,.cls-20,.cls-37{stroke:#000;stroke-miterlimit:10;}.cls-19{stroke-width:4px;}.cls-20{stroke-width:3px;}.cls-21{fill:url(#linear-gradient-4);}.cls-22{fill:url(#linear-gradient-5);}.cls-23{fill:url(#linear-gradient-6);}.cls-24{fill:url(#linear-gradient-7);}.cls-25{fill:url(#linear-gradient-8);}.cls-26{fill:url(#linear-gradient-9);}.cls-27{fill:url(#linear-gradient-10);}.cls-28{fill:url(#linear-gradient-11);}.cls-29{fill:url(#linear-gradient-12);}.cls-30{fill:url(#linear-gradient-13);}.cls-31{fill:url(#White_Black);}.cls-32{fill:url(#linear-gradient-14);}.cls-33{fill:#e85c0f;}.cls-34{fill:#ee6e08;}.cls-35{fill:#f47f00;}.cls-36{fill:#27140b;}.cls-38,.cls-39,.cls-40,.cls-42,.cls-45{mix-blend-mode:screen;}.cls-38{fill:url(#linear-gradient-15);}.cls-39{fill:url(#linear-gradient-16);}.cls-40{fill:url(#linear-gradient-17);}.cls-41{clip-path:url(#clip-path);}.cls-43{clip-path:url(#clip-path-5);}.cls-44{fill:url(#linear-gradient-18);}.cls-46{filter:url(#AI_Shadow_1);}.cls-47{filter:url(#AI_BevelShadow_1);}.cls-48{opacity:0.48;}.cls-49{fill:#606060;}.cls-50{fill:url(#New_Gradient_Swatch_2-7);}</style><linearGradient id="linear-gradient" x1="800" y1="332" x2="800" gradientUnits="userSpaceOnUse"><stop offset="0" stop-color="#e85c0f"/><stop offset="0.27" stop-color="#393332"/><stop offset="0.31" stop-color="#312d33"/><stop offset="0.42" stop-color="#1e1e35"/><stop offset="0.54" stop-color="#101337"/><stop offset="0.7" stop-color="#080d38"/><stop offset="1" stop-color="#060b38"/></linearGradient><linearGradient id="New_Gradient_Swatch_2" x1="259.25" y1="69.75" x2="1346.75" y2="1157.25" gradientUnits="userSpaceOnUse"><stop offset="0" stop-color="#005f02"/><stop offset="0.37" stop-color="#004506"/><stop offset="0.74" stop-color="#00310a"/><stop offset="1" stop-color="#002a0b"/></linearGradient><linearGradient id="New_Gradient_Swatch_2-2" x1="255.3" y1="186.98" x2="369" y2="186.98" xlink:href="#New_Gradient_Swatch_2"/><linearGradient id="New_Gradient_Swatch_2-3" x1="1332.3" y1="281.76" x2="1446" y2="281.76" xlink:href="#New_Gradient_Swatch_2"/><linearGradient id="New_Gradient_Swatch_2-4" x1="1473.22" y1="313.3" x2="1589" y2="313.3" xlink:href="#New_Gradient_Swatch_2"/><linearGradient id="New_Gradient_Swatch_1" x1="235" y1="128" x2="7" y2="128" gradientUnits="userSpaceOnUse"><stop offset="0" stop-color="#fff"/><stop offset="0.17" stop-color="#fdfdfb"/><stop offset="1" stop-color="#e9ff6a"/></linearGradient><linearGradient id="New_Gradient_Swatch_2-5" x1="23.42" y1="368.04" x2="141.38" y2="436.15" xlink:href="#New_Gradient_Swatch_2"/><linearGradient id="New_Gradient_Swatch_2-6" x1="1241.17" y1="364.41" x2="1313.13" y2="364.41" xlink:href="#New_Gradient_Swatch_2"/><linearGradient id="linear-gradient-2" x1="1646.32" y1="527.02" x2="1646.32" y2="656.58" gradientTransform="translate(-376.93 468.7) rotate(-15.15)" gradientUnits="userSpaceOnUse"><stop offset="0" stop-color="#c6c4c4"/><stop offset="0.1" stop-color="#bfbbba"/><stop offset="0.26" stop-color="#aca59e"/><stop offset="0.47" stop-color="#8d7f72"/><stop offset="0.73" stop-color="#634d34"/><stop offset="0.92" stop-color="#3f2100"/><stop offset="0.93" stop-color="#3a250e"/><stop offset="0.93" stop-color="#35291f"/><stop offset="0.94" stop-color="#312d2a"/><stop offset="0.96" stop-color="#2f2e31"/><stop offset="1" stop-color="#2e2f33"/></linearGradient><linearGradient id="linear-gradient-3" x1="1287.38" y1="663.04" x2="1400.53" y2="663.04" gradientTransform="translate(1810.97 -760.95) rotate(81.9)" gradientUnits="userSpaceOnUse"><stop offset="0" stop-color="#002f0a"/><stop offset="1" stop-color="#2a170c"/></linearGradient><linearGradient id="linear-gradient-4" x1="1145.5" y1="508.15" x2="1145.5" y2="518.38" gradientTransform="translate(1600.89 -656.45) rotate(87.14)" gradientUnits="userSpaceOnUse"><stop offset="0" stop-color="#fff"/><stop offset="0.34" stop-color="#a7a7a7"/><stop offset="1"/></linearGradient><linearGradient id="linear-gradient-5" x1="1200.93" y1="511.61" x2="1200.93" y2="516.63" gradientTransform="matrix(1, 0, 0, 1, 0, 0)" xlink:href="#linear-gradient-4"/><linearGradient id="linear-gradient-6" x1="1201.54" y1="515.2" x2="1201.54" y2="520.21" gradientTransform="matrix(1, 0, 0, 1, 0, 0)" xlink:href="#linear-gradient-4"/><linearGradient id="linear-gradient-7" x1="1090.92" y1="510.75" x2="1090.92" y2="515.77" gradientTransform="matrix(1, 0, 0, 1, 0, 0)" xlink:href="#linear-gradient-4"/><linearGradient id="linear-gradient-8" x1="1090.65" y1="506.3" x2="1090.65" y2="511.32" gradientTransform="matrix(1, 0, 0, 1, 0, 0)" xlink:href="#linear-gradient-4"/><linearGradient id="linear-gradient-9" x1="1118.14" y1="476.29" x2="1118.14" y2="481.31" gradientUnits="userSpaceOnUse"><stop offset="0" stop-color="#fff"/><stop offset="0.09" stop-color="#f7f7f7"/><stop offset="0.22" stop-color="#e0e0e0"/><stop offset="0.39" stop-color="#bababa"/><stop offset="0.58" stop-color="#868686"/><stop offset="0.8" stop-color="#444"/><stop offset="1"/></linearGradient><linearGradient id="linear-gradient-10" x1="1115.66" y1="479.26" x2="1115.66" y2="484.28" xlink:href="#linear-gradient-9"/><linearGradient id="linear-gradient-11" x1="1145.61" y1="479.5" x2="1145.61" y2="535.97" gradientTransform="translate(697.64 -662.54) rotate(45.15)" xlink:href="#linear-gradient-9"/><linearGradient id="linear-gradient-12" x1="1172.36" y1="534.92" x2="1172.36" y2="539.1" gradientTransform="translate(200.77 -310.83) rotate(16.5)" xlink:href="#linear-gradient-9"/><linearGradient id="linear-gradient-13" x1="1175.44" y1="532.57" x2="1175.44" y2="536.76" gradientTransform="translate(200.23 -311.8) rotate(16.5)" xlink:href="#linear-gradient-9"/><linearGradient id="White_Black" x1="1143.2" y1="472.67" x2="1164.95" y2="510.34" gradientUnits="userSpaceOnUse"><stop offset="0" stop-color="#fff"/><stop offset="1"/></linearGradient><linearGradient id="linear-gradient-14" x1="1185.54" y1="504.81" x2="1185.92" y2="526.22" gradientTransform="matrix(0.9, -0.24, 0.22, 0.97, -33, 284.89)" gradientUnits="userSpaceOnUse"><stop offset="0" stop-color="#fff"/><stop offset="0.14" stop-color="#d0d0d0"/><stop offset="0.38" stop-color="#878787"/><stop offset="0.59" stop-color="#4d4d4d"/><stop offset="0.77" stop-color="#232323"/><stop offset="0.92" stop-color="#090909"/><stop offset="1"/></linearGradient><linearGradient id="linear-gradient-15" x1="780.1" y1="579.98" x2="780.1" y2="621.48" gradientTransform="translate(761.66 -31.46) rotate(90)" gradientUnits="userSpaceOnUse"><stop offset="0" stop-color="#fff"/><stop offset="0.07" stop-color="#dedede"/><stop offset="0.22" stop-color="#a4a4a4"/><stop offset="0.36" stop-color="#727272"/><stop offset="0.5" stop-color="#494949"/><stop offset="0.64" stop-color="#292929"/><stop offset="0.77" stop-color="#121212"/><stop offset="0.89" stop-color="#050505"/><stop offset="1"/></linearGradient><linearGradient id="linear-gradient-16" x1="1158.81" y1="300.61" x2="1158.81" y2="329.08" gradientTransform="matrix(0, 1.02, -1.03, 0, 583.41, -482.81)" xlink:href="#linear-gradient-15"/><linearGradient id="linear-gradient-17" x1="514.99" y1="568.04" x2="514.99" y2="596.51" gradientTransform="matrix(0, 1.02, -1.03, 0, 905.69, 239.12)" xlink:href="#linear-gradient-15"/><clipPath id="clip-path"><rect class="cls-1" x="504.36" y="393.58" width="42.04" height="21.12" transform="translate(-115.06 233.3) rotate(-22.63)"/></clipPath><clipPath id="clip-path-5"><path class="cls-1" d="M545.73,398.43c1.51,5.5-6.38,12.51-17.62,15.66s-21.58,1.25-23.08-4.25,6.38-12.5,17.62-15.66,21.57-1.24,23.08,4.25"/></clipPath><linearGradient id="linear-gradient-18" x1="-970" y1="-1567" x2="-969" y2="-1567" gradientTransform="matrix(5.46, 19.91, 20.01, -5.61, 37182.82, 10914.75)" gradientUnits="userSpaceOnUse"><stop offset="0" stop-color="#fff"/><stop offset="0.07" stop-color="#dfdfdf"/><stop offset="0.22" stop-color="#a5a5a5"/><stop offset="0.36" stop-color="#727272"/><stop offset="0.5" stop-color="#494949"/><stop offset="0.64" stop-color="#292929"/><stop offset="0.77" stop-color="#121212"/><stop offset="0.89" stop-color="#050505"/><stop offset="1"/></linearGradient><filter id="AI_Shadow_1" name="AI_Shadow_1"><feGaussianBlur result="blur" stdDeviation="2" in="SourceAlpha"/><feOffset result="offsetBlurredAlpha" dx="4" dy="4" in="blur"/><feMerge><feMergeNode in="offsetBlurredAlpha"/><feMergeNode in="SourceGraphic"/></feMerge></filter><filter id="AI_BevelShadow_1" x="-20" y="-20" width="140" height="140" name="AI_BevelShadow_1"><feGaussianBlur result="blur" stdDeviation="4" in="SourceAlpha"/><feOffset result="offsetBlur" dx="4" dy="4" in="blur"/><feSpecularLighting result="specOut" surfaceScale="5" specularExponent="10" in="blur"><fePointLight x="-5000" y="-10000" z="-20000"/></feSpecularLighting><feComposite result="specOut" operator="in" in="specOut" in2="SourceAlpha"/><feComposite result="litPaint" operator="arithmetic" k2="1" k3="1" in="SourceGraphic" in2="specOut"/><feMerge><feMergeNode in="offsetBlur"/><feMergeNode in="litPaint"/></feMerge></filter><linearGradient id="New_Gradient_Swatch_2-7" x1="108.17" y1="254.06" x2="244.08" y2="254.06" xlink:href="#New_Gradient_Swatch_2"/></defs><title>Titlescreen clean</title><g class="cls-2"><g id="Layer_1" data-name="Layer 1"><rect class="cls-3" width="1600" height="332"/><rect class="cls-4" x="2" y="327" width="1602" height="573"/><polygon class="cls-5" points="369 315 312.15 314.49 255.3 313.99 284.86 186.47 314.43 58.95 341.71 186.97 369 315"/><polygon class="cls-6" points="1446 370 1389.15 369.49 1332.3 368.99 1361.51 281.26 1390.72 193.53 1418.36 281.76 1446 370"/><polygon class="cls-7" points="1589 386.52 1531.11 386.01 1473.22 385.49 1502.81 312.79 1532.41 240.08 1560.7 313.3 1589 386.52"/><circle class="cls-8" cx="121" cy="128" r="114"/><polygon class="cls-9" points="667.78 80.08 664.57 74 657.79 75.22 661.46 69.39 657.01 64.14 663.89 64.4 666.22 57.92 669.43 64 676.21 62.78 672.54 68.61 676.99 73.86 670.11 73.6 667.78 80.08"/><polygon class="cls-9" points="824.61 54.84 820.72 54.63 819.35 58.28 817.58 54.8 813.74 55.44 815.86 52.17 813.39 49.16 817.28 49.37 818.65 45.72 820.42 49.2 824.26 48.56 822.14 51.83 824.61 54.84"/><polygon class="cls-9" points="1028.36 73.01 1019.4 76.28 1019.81 85.81 1012.5 79.68 1004.45 84.8 1006.1 75.41 997.64 70.99 1006.6 67.72 1006.19 58.19 1013.5 64.32 1021.55 59.2 1019.9 68.59 1028.36 73.01"/><polygon class="cls-9" points="799 38.85 791.42 41.62 791.76 49.68 785.57 44.5 778.76 48.83 780.16 40.88 773 37.15 780.58 34.38 780.24 26.32 786.43 31.5 793.24 27.17 791.84 35.12 799 38.85"/><polygon class="cls-9" points="813 166.85 805.42 169.62 805.76 177.68 799.57 172.5 792.76 176.83 794.16 168.88 787 165.15 794.58 162.38 794.24 154.32 800.43 159.5 807.24 155.17 805.84 163.12 813 166.85"/><polygon class="cls-9" points="1143.38 16.42 1139.66 17.77 1139.83 21.73 1136.79 19.19 1133.45 21.31 1134.13 17.41 1130.62 15.58 1134.34 14.22 1134.17 10.27 1137.21 12.81 1140.55 10.69 1139.87 14.59 1143.38 16.42"/><polygon class="cls-9" points="591.38 204.42 587.66 205.78 587.83 209.73 584.79 207.19 581.45 209.31 582.13 205.41 578.62 203.58 582.34 202.22 582.17 198.27 585.21 200.81 588.55 198.69 587.87 202.59 591.38 204.42"/><polygon class="cls-9" points="384.75 45.03 375.56 48.38 375.98 58.16 368.48 51.88 360.23 57.13 361.92 47.49 353.25 42.97 362.44 39.62 362.02 29.84 369.52 36.12 377.77 30.87 376.08 40.51 384.75 45.03"/><polygon class="cls-9" points="417 232.85 409.42 235.62 409.76 243.68 403.57 238.5 396.76 242.83 398.16 234.88 391 231.15 398.58 228.38 398.24 220.32 404.43 225.5 411.24 221.17 409.84 229.12 417 232.85"/><polygon class="cls-9" points="279 44.85 271.42 47.62 271.76 55.68 265.57 50.5 258.76 54.83 260.16 46.88 253 43.15 260.58 40.38 260.24 32.32 266.43 37.5 273.24 33.17 271.84 41.12 279 44.85"/><polygon class="cls-9" points="829.63 246.43 825.76 247.85 825.94 251.96 822.78 249.31 819.31 251.53 820.02 247.47 816.37 245.57 820.24 244.15 820.06 240.04 823.22 242.69 826.69 240.47 825.98 244.53 829.63 246.43"/><polygon class="cls-9" points="1308.36 267.01 1299.4 270.28 1299.81 279.81 1292.5 273.68 1284.45 278.8 1286.1 269.4 1277.64 264.99 1286.6 261.72 1286.19 252.19 1293.5 258.32 1301.55 253.2 1299.9 262.6 1308.36 267.01"/><polygon class="cls-9" points="1452.63 215.43 1448.76 216.85 1448.94 220.96 1445.78 218.31 1442.31 220.53 1443.02 216.47 1439.37 214.57 1443.24 213.15 1443.06 209.04 1446.22 211.69 1449.69 209.47 1448.98 213.53 1452.63 215.43"/><polygon class="cls-9" points="1342.59 66.8 1335.27 63.39 1329.81 69.34 1329.1 61.3 1321.22 59.54 1327.83 54.91 1325.41 47.2 1332.73 50.61 1338.19 44.66 1338.9 52.7 1346.78 54.46 1340.17 59.09 1342.59 66.8"/><polygon class="cls-9" points="367.38 150.42 363.66 151.78 363.83 155.73 360.79 153.19 357.45 155.31 358.13 151.41 354.62 149.58 358.34 148.22 358.17 144.27 361.21 146.81 364.55 144.69 363.87 148.59 367.38 150.42"/><polygon class="cls-9" points="255.38 215.42 251.66 216.78 251.83 220.73 248.79 218.19 245.45 220.31 246.13 216.41 242.62 214.58 246.34 213.22 246.17 209.27 249.21 211.81 252.55 209.69 251.87 213.59 255.38 215.42"/><polygon class="cls-9" points="577.38 249.42 573.66 250.78 573.83 254.73 570.79 252.19 567.45 254.31 568.13 250.41 564.62 248.58 568.34 247.22 568.17 243.27 571.21 245.81 574.55 243.69 573.87 247.59 577.38 249.42"/><polygon class="cls-9" points="1026.38 250.42 1022.66 251.78 1022.83 255.73 1019.79 253.19 1016.45 255.31 1017.13 251.41 1013.62 249.58 1017.34 248.22 1017.17 244.27 1020.21 246.81 1023.55 244.69 1022.87 248.59 1026.38 250.42"/><polygon class="cls-9" points="37.78 275.08 34.57 269 27.79 270.22 31.46 264.39 27.01 259.14 33.89 259.4 36.22 252.92 39.43 259 46.21 257.78 42.54 263.61 46.99 268.86 40.11 268.6 37.78 275.08"/><ellipse class="cls-9" cx="512.93" cy="178.33" rx="1.36" ry="1.59" transform="translate(-17.04 296.79) rotate(-31.77)"/><ellipse class="cls-9" cx="518.22" cy="175.33" rx="1.36" ry="1.59" transform="translate(-14.67 299.13) rotate(-31.77)"/><g class="cls-10"><polygon points="63.03 614.47 71.42 607 127.97 671.63 119.59 679.11 63.03 614.47"/><polygon points="99.36 691.66 121.2 672.54 143.04 653.42 169.02 705.92 195 758.42 147.18 725.04 99.36 691.66"/></g><rect class="cls-11" x="59.57" y="469.76" width="18.9" height="144.36"/><polygon class="cls-12" points="118 476.64 69.15 476.2 20.3 475.77 45.57 380.83 70.85 285.89 94.42 381.27 118 476.64"/><rect class="cls-13" x="213.87" y="472.9" width="22" height="147" transform="translate(740.01 835.8) rotate(141.7)"/><polygon class="cls-13" points="229.35 634.7 267.57 605.07 305.78 575.43 328.16 643.74 350.53 712.06 289.94 673.38 229.35 634.7"/><rect class="cls-11" x="168" y="349" width="22" height="147"/><g class="cls-10"><polygon class="cls-14" points="1301.23 620.6 1319.2 606.13 1337.17 591.67 1356.59 636.83 1376 682 1338.62 651.3 1301.23 620.6"/><polygon class="cls-14" points="1270.51 549.53 1277.41 543.87 1323.57 604.4 1316.66 610.06 1270.51 549.53"/></g><polygon class="cls-15" points="1313.13 437.83 1277.15 437.51 1241.16 437.18 1259.81 364.09 1278.46 291 1295.79 364.41 1313.13 437.83"/><rect class="cls-11" x="1270.09" y="435.3" width="13.92" height="117.72"/><polygon class="cls-13" points="1433.6 639.28 1464.99 611.72 1496.39 584.15 1526.79 650.44 1557.19 716.73 1495.4 678.01 1433.6 639.28"/><rect class="cls-13" x="1420.23" y="484.46" width="22" height="137" transform="translate(2914.58 160.75) rotate(144.07)"/><rect class="cls-11" x="1382" y="370" width="22" height="137"/><rect class="cls-13" x="1560.39" y="507.7" width="19.59" height="112" transform="translate(3112.37 -72.59) rotate(137.83)"/><rect class="cls-11" x="1523.89" y="386" width="19.59" height="146"/><rect class="cls-16" x="1330.73" y="552.28" width="72.22" height="114.67" transform="translate(351.72 -490.12) rotate(23.25)"/><polygon class="cls-17" points="1409.11 493.8 1416.25 532.56 1423.39 571.33 1389.12 557.6 1354.85 543.88 1381.98 518.84 1409.11 493.8"/><ellipse class="cls-18" cx="1343.96" cy="663.04" rx="17.81" ry="57.09" transform="matrix(0.14, -0.99, 0.99, 0.14, 498.13, 1900.13)"/><path d="M1372.24,570.66v0a3,3,0,0,0-.16-1.7,2.49,2.49,0,0,0-.92-1,4.48,4.48,0,0,0-1.4-.53c-.52-.11-1.06-.21-1.6-.28a.6.6,0,0,0-.25-.06l-.22,0a5.07,5.07,0,0,0-2.41.23,6.45,6.45,0,0,0-2.15,1.24,7.66,7.66,0,0,0-1.64,2,7.14,7.14,0,0,0-.88,2.61l-.21,0a8.22,8.22,0,0,1,0-.86c0-.27,0-.54.09-.8a7.75,7.75,0,0,1,1.12-2.68,7.65,7.65,0,0,1,2-2,8.06,8.06,0,0,1,2.68-1.2,8.31,8.31,0,0,1,3.16-.13l.47.07.25,0,.22.07a12.4,12.4,0,0,1,2,.52,4.39,4.39,0,0,1,1.54.89,3.19,3.19,0,0,1,.87,1.51,5.49,5.49,0,0,1,.06,2.32,3.23,3.23,0,0,1-.93,1.93,5.86,5.86,0,0,1-1.91,1.22.21.21,0,0,0-.06.1l.53.79,1.86,8.47,0,.21a3,3,0,0,0,.13,1.33q.23.74.48,1.47l0,.23a1.64,1.64,0,0,1-.65-.49,6.16,6.16,0,0,1-.65-.9c-.21-.34-.42-.73-.63-1.15s-.4-.85-.57-1.27-.33-.82-.47-1.2-.27-.72-.37-1l-.08-.17a4.19,4.19,0,0,1-.18-.39c-.09-.18-.22-.47-.39-.85l-.71-1.54a2.62,2.62,0,0,1-.2-.49l-.21-.75c-.07-.27-.13-.52-.2-.75s-.11-.41-.14-.51l-.18-.06-.19,0a1.6,1.6,0,0,0-.66,0,1.27,1.27,0,0,1-.34,0l-.34,4.49a2.23,2.23,0,0,0,0,.94,2,2,0,0,0,.29.63,1.75,1.75,0,0,0,.43.43l.43.33,0,.21c-.48-.11-1-.22-1.45-.31s-1-.19-1.48-.26a3.44,3.44,0,0,0-.85,0l-1,.12c-.33.06-.66.1-1,.14a3.68,3.68,0,0,1-.87,0l0-.2.06,0a6.08,6.08,0,0,0,.68-.32,3.84,3.84,0,0,0,.87-.72,5,5,0,0,0,.84-1.25,6.81,6.81,0,0,0,.55-2l.35-2.45a1.77,1.77,0,0,1-.46-.17,1.69,1.69,0,0,1-.56-.57l0-.25,1.1.16.2-1.37c.07-.5.12-1,.15-1.4a4.89,4.89,0,0,0-.05-1.22,3.12,3.12,0,0,0-.41-1.07,3.49,3.49,0,0,0-.92-1l0-.29.29.07.31.06.6.08c.81.12,1.59.21,2.36.28s1.52.14,2.28.19l-.05.35a1,1,0,0,0-.52.16,2.15,2.15,0,0,0-.5.46,3.12,3.12,0,0,0-.39.64,2.6,2.6,0,0,0-.2.66l-.77,3.49c.31-.07.67-.18,1.1-.32a5.75,5.75,0,0,0,1.24-.62,4.44,4.44,0,0,0,1.07-1A3.05,3.05,0,0,0,1372.24,570.66Z"/><path d="M1388.24,569.91a1,1,0,0,0-.89.34,3.7,3.7,0,0,0-.73,1.22,12.4,12.4,0,0,0-.58,2q-.24,1.17-.45,2.58c-.12.87-.24,1.8-.34,2.79s-.2,2-.28,3.07a1.39,1.39,0,0,0,.07.66,3.53,3.53,0,0,0,.28.67,3,3,0,0,0,.41.58,3.31,3.31,0,0,0,.41.42l0,.21-1.45-.31c-.48-.1-1-.18-1.47-.25s-1-.13-1.53-.18l-1.55-.11,0-.21.2-.08a3.59,3.59,0,0,0,.54-.25,2,2,0,0,0,.57-.53,4,4,0,0,0,.53-1,8.79,8.79,0,0,0,.4-1.79l.81-5.65,0-.33,0-.19a.48.48,0,0,0,0-.17q.08-.81.09-1.5a5.53,5.53,0,0,0-.1-1.21,2,2,0,0,0-.4-.86,1.34,1.34,0,0,0-.77-.45l0-.29c.48.05.94.1,1.36.13s.83.07,1.23.13a2.76,2.76,0,0,0-.83-.34c-.34-.08-.66-.15-1-.19a5,5,0,0,0-2.4.23,6.54,6.54,0,0,0-2.14,1.25,8,8,0,0,0-1.68,2,8.42,8.42,0,0,0-1,2.58,8.13,8.13,0,0,1,0-.86c0-.28,0-.54.08-.81a7.65,7.65,0,0,1,.86-2.23,7.76,7.76,0,0,1,1.49-1.84,7.85,7.85,0,0,1,2.07-1.34,9.12,9.12,0,0,1,2.6-.71l.54.05.51.06a10.91,10.91,0,0,1,1.52.31,4.56,4.56,0,0,1,1.12.48,4.9,4.9,0,0,1,.9.69,12.35,12.35,0,0,1,.86,1Z"/><path d="M1398.24,574.26v0a3,3,0,0,0-.16-1.7,2.43,2.43,0,0,0-.92-1,4.29,4.29,0,0,0-1.39-.54c-.53-.11-1.07-.2-1.61-.28a5.68,5.68,0,0,0-4.32.83,5.6,5.6,0,0,0-2,4l-.21,0a8.13,8.13,0,0,1,0-.86c0-.27,0-.54.08-.81a5.52,5.52,0,0,1,.89-2.41,5,5,0,0,1,1.82-1.58,7.52,7.52,0,0,1,2.61-.73,13.61,13.61,0,0,1,3.28.1,11.94,11.94,0,0,1,2.11.48,4.23,4.23,0,0,1,1.56.89,3.15,3.15,0,0,1,.87,1.51,5.55,5.55,0,0,1,.06,2.33,4.24,4.24,0,0,1-.81,2,8.76,8.76,0,0,1-1.64,1.7,10.71,10.71,0,0,1-2.14,1.3,9.89,9.89,0,0,1-2.28.77l-.26,3a1.47,1.47,0,0,0,.12,1,2,2,0,0,0,.53.66,3.63,3.63,0,0,0,.7.48,6.78,6.78,0,0,1,.67.36l0,.2-.84-.17-1-.2-1-.18-.88-.13a7.17,7.17,0,0,0-.93-.08l-1.15,0-1.15,0a8.58,8.58,0,0,1-1-.05l0-.2.07,0a6.58,6.58,0,0,0,1.23-.2,2.53,2.53,0,0,0,1-.55,3.17,3.17,0,0,0,.75-1.11,7.4,7.4,0,0,0,.48-1.93l.76-5.29c.07-.5.11-.93.14-1.3a3.16,3.16,0,0,0-.08-1,2.43,2.43,0,0,0-.44-.86,6.21,6.21,0,0,0-.93-.88l0-.29.28.08.31,0,.6.09c.81.11,1.59.21,2.36.28s1.53.14,2.28.19l-.05.35a.85.85,0,0,0-.53.18,2.18,2.18,0,0,0-.6.82,11.22,11.22,0,0,0-.62,1.87,32.58,32.58,0,0,0-.61,3.28l-.14,1a10.11,10.11,0,0,0,2.73-2.15A5.76,5.76,0,0,0,1398.24,574.26Z"/><line class="cls-19" x1="1373.35" y1="595.01" x2="1359.5" y2="630.01"/><line class="cls-20" x1="1381.3" y1="611.92" x2="1352.24" y2="604.82"/><ellipse class="cls-13" cx="1147.62" cy="512.81" rx="22.74" ry="54.64" transform="translate(379.12 1507.5) rotate(-76.39)"/><ellipse class="cls-21" cx="1145.5" cy="513.26" rx="4.32" ry="54.88" transform="translate(575.64 1631.69) rotate(-87.14)"/><circle class="cls-22" cx="1200.93" cy="514.12" r="2.51"/><circle class="cls-23" cx="1201.54" cy="517.7" r="2.51"/><circle class="cls-24" cx="1090.92" cy="513.26" r="2.51"/><circle class="cls-25" cx="1090.65" cy="508.81" r="2.51"/><circle class="cls-26" cx="1118.14" cy="478.8" r="2.51"/><circle class="cls-27" cx="1115.66" cy="481.77" r="2.51"/><ellipse class="cls-28" cx="1145.61" cy="507.73" rx="3.71" ry="39.86" transform="translate(-22.29 961.85) rotate(-45.15)"/><ellipse class="cls-29" cx="1172.36" cy="537.01" rx="2.17" ry="2.08" transform="matrix(0.96, -0.28, 0.28, 0.96, -104.24, 355.05)"/><ellipse class="cls-30" cx="1175.44" cy="534.66" rx="2.17" ry="2.08" transform="translate(-103.44 355.83) rotate(-16.5)"/><circle class="cls-31" cx="1154.08" cy="491.5" r="21.75"/><rect class="cls-32" x="1126.37" y="501" width="47.19" height="11.71" rx="5.86" transform="translate(151.6 -256.41) rotate(13.61)"/><circle cx="1143.59" cy="481.5" r="4.18"/><circle cx="1159.11" cy="486.12" r="4.18"/><rect x="1134.55" y="499.35" width="3.9" height="3.9" transform="translate(149.91 -253.4) rotate(13.61)"/><rect x="1139.34" y="499.44" width="4.46" height="4.46" transform="translate(150.14 -254.58) rotate(13.61)"/><rect x="1144.1" y="502.31" width="4.46" height="4.46" transform="translate(150.95 -255.62) rotate(13.61)"/><rect x="1149.78" y="501.6" width="3.9" height="3.9" transform="translate(150.87 -256.92) rotate(13.61)"/><rect x="1153.86" y="504.89" width="3.9" height="3.9" transform="translate(151.76 -257.79) rotate(13.61)"/><rect x="1158.94" y="504.53" width="2.79" height="2.79" transform="translate(151.67 -258.88) rotate(13.61)"/><circle class="cls-33" cx="205.91" cy="713.53" r="52.65"/><ellipse class="cls-33" cx="241.57" cy="723.42" rx="52.65" ry="49.06" transform="translate(-520.11 762.77) rotate(-74.49)"/><circle class="cls-34" cx="206.68" cy="714.4" r="49.59"/><ellipse class="cls-34" cx="240.26" cy="723.72" rx="49.59" ry="46.2" transform="translate(-521.35 761.72) rotate(-74.49)"/><circle class="cls-35" cx="207.44" cy="715.27" r="46.52"/><ellipse class="cls-35" cx="238.95" cy="724.01" rx="46.52" ry="43.34" transform="translate(-522.59 760.68) rotate(-74.49)"/><polygon class="cls-36" points="221.09 630 229.39 650.84 237.7 671.68 237.56 659.66 237.41 647.64 229.25 638.82 221.09 630"/><polygon points="201.78 706.89 191.55 704.16 181.33 701.43 189.09 692.89 196.84 684.35 199.31 695.62 201.78 706.89"/><polygon class="cls-35" points="186.34 701.92 184.49 701.46 182.64 700.98 183.77 700.4 184.91 699.81 185.62 700.87 186.34 701.92"/><rect class="cls-35" x="184.63" y="701.81" width="14.8" height="1.69" transform="translate(194.87 -25.76) rotate(15.51)"/><polygon class="cls-35" points="200.6 705.88 199.01 705.48 197.43 705.08 198.43 704.45 199.43 703.83 200.01 704.86 200.6 705.88"/><rect class="cls-35" x="180.52" y="693.49" width="18.67" height="1.08" transform="translate(-457.78 380.51) rotate(-48.87)"/><polygon class="cls-35" points="194.6 688.35 195.57 686.77 196.55 685.19 196.48 686.24 196.42 687.29 195.51 687.82 194.6 688.35"/><rect x="182.41" y="699.98" width="4.31" height="0.42" transform="translate(-292.2 155.19) rotate(-26.41)"/><polygon points="253.13 721.14 242.9 718.41 232.67 715.68 240.43 707.14 248.19 698.6 250.66 709.87 253.13 721.14"/><polygon class="cls-35" points="237.68 716.17 235.83 715.7 233.99 715.23 235.12 714.64 236.25 714.05 236.97 715.11 237.68 716.17"/><rect class="cls-35" x="235.97" y="716.06" width="14.8" height="1.69" transform="translate(200.55 -38.97) rotate(15.51)"/><polygon class="cls-35" points="251.94 720.13 250.36 719.73 248.77 719.32 249.77 718.7 250.78 718.08 251.36 719.1 251.94 720.13"/><rect class="cls-35" x="231.86" y="707.73" width="18.67" height="1.08" transform="translate(-450.94 424.06) rotate(-48.87)"/><polygon class="cls-35" points="245.94 702.6 246.92 701.02 247.89 699.44 247.83 700.49 247.76 701.54 246.85 702.07 245.94 702.6"/><rect x="233.76" y="714.23" width="4.31" height="0.42" transform="translate(-293.18 179.52) rotate(-26.41)"/><polygon class="cls-37" points="171.3 708.52 179.66 720.3 193.19 717.61 203.36 728.37 220.04 727.13 232.98 737.17 250.81 733.69 255.96 742.44 266.27 736.73 252 756.23 240.67 747.71 221.49 752.33 214.21 740.36 197.45 743.64 188.49 732.21 176.37 735.32 171.3 708.52"/><polygon class="cls-35" points="181.52 733.26 179.53 733.84 177.53 734.42 175.5 723.71 173.47 713 177.5 723.13 181.52 733.26"/><polygon class="cls-35" points="201.5 740.6 199.92 741.94 198.34 743.29 194.81 737.54 191.29 731.8 196.39 736.2 201.5 740.6"/><polygon class="cls-35" points="225.57 749.1 223.99 750.44 222.41 751.79 218.85 746 215.28 740.21 220.43 744.66 225.57 749.1"/><polygon class="cls-35" points="253.7 752.48 252.78 753.91 251.86 755.34 247.05 751.24 242.24 747.14 247.97 749.81 253.7 752.48"/><polygon class="cls-35" points="222.15 751.56 221.89 750.41 221.63 749.27 227.86 748.44 234.1 747.62 228.12 749.59 222.15 751.56"/><polygon class="cls-35" points="197.88 743.16 197.7 742 197.51 740.84 203.26 740.51 209 740.18 203.44 741.67 197.88 743.16"/><circle class="cls-33" cx="89.42" cy="794.28" r="82.68"/><ellipse class="cls-33" cx="147.48" cy="796.74" rx="82.68" ry="77.04" transform="translate(-654.8 910.34) rotate(-87.57)"/><circle class="cls-34" cx="90.9" cy="795.34" r="77.87"/><ellipse class="cls-34" cx="145.58" cy="797.66" rx="77.87" ry="72.55" transform="translate(-657.53 909.32) rotate(-87.57)"/><circle class="cls-35" cx="92.39" cy="796.4" r="73.05"/><ellipse class="cls-35" cx="143.68" cy="798.58" rx="73.05" ry="68.07" transform="translate(-660.26 908.3) rotate(-87.57)"/><polygon class="cls-36" points="82.94 661.12 103.06 690.04 123.17 718.97 118.68 700.63 114.19 682.3 98.57 671.71 82.94 661.12"/><polygon points="80.75 785.6 64.13 785.05 47.52 784.51 56.35 768.69 65.18 752.87 72.96 769.23 80.75 785.6"/><polygon class="cls-35" points="55.35 783.49 52.36 783.42 49.36 783.36 50.89 782.06 52.41 780.75 53.88 782.12 55.35 783.49"/><rect class="cls-35" x="52.7" y="781.25" width="23.24" height="2.66" transform="translate(33.21 -2.02) rotate(2.43)"/><polygon class="cls-35" points="78.58 784.47 76 784.42 73.44 784.36 74.75 783.06 76.06 781.75 77.32 783.11 78.58 784.47"/><rect class="cls-35" x="43.26" y="769.31" width="29.31" height="1.7" transform="translate(-649.01 459.11) rotate(-61.95)"/><polygon class="cls-35" points="63.17 759.78 64.1 757.02 65.03 754.26 65.3 755.89 65.57 757.51 64.37 758.65 63.17 759.78"/><rect x="48.65" y="781.13" width="6.77" height="0.66" transform="translate(-485.12 211.5) rotate(-39.49)"/><polygon points="164.35 789.14 147.74 788.6 131.12 788.06 139.95 772.24 148.79 756.41 156.57 772.78 164.35 789.14"/><polygon class="cls-35" points="138.96 787.03 135.96 786.97 132.97 786.91 134.49 785.6 136.02 784.3 137.49 785.66 138.96 787.03"/><rect class="cls-35" x="136.3" y="784.8" width="23.24" height="2.66" transform="translate(33.43 -5.56) rotate(2.43)"/><polygon class="cls-35" points="162.18 788.01 159.61 787.96 157.04 787.91 158.35 786.6 159.67 785.29 160.92 786.65 162.18 788.01"/><rect class="cls-35" x="126.87" y="772.85" width="29.31" height="1.7" transform="translate(-607.85 534.78) rotate(-61.95)"/><polygon class="cls-35" points="146.77 763.33 147.7 760.56 148.63 757.8 148.9 759.43 149.18 761.06 147.97 762.19 146.77 763.33"/><rect x="132.26" y="784.68" width="6.77" height="0.66" transform="translate(-468.29 265.48) rotate(-39.49)"/><ellipse class="cls-38" cx="160.93" cy="748.65" rx="20.75" ry="42.2" transform="matrix(0.33, -0.94, 0.94, 0.33, -598.54, 650.85)"/><polygon class="cls-37" points="34.7 798.93 51.67 813.96 71.4 805.04 90.8 817.88 115.87 810.06 139.23 820.81 165.27 809.16 176.25 820.72 189.99 808.32 175.1 843.22 154.74 834.2 127.04 848.09 111.65 832.37 87.19 843.35 69.41 829.04 51.98 838.1 34.7 798.93"/><polygon class="cls-35" points="59.12 833.13 56.28 834.72 53.44 836.32 46.53 820.65 39.62 805 49.37 819.06 59.12 833.13"/><polygon class="cls-35" points="92.3 837.25 90.36 839.87 88.42 842.49 80.98 834.96 73.54 827.42 82.92 832.34 92.3 837.25"/><polygon class="cls-35" points="132.14 841.7 130.2 844.32 128.26 846.94 120.75 839.35 113.24 831.76 122.69 836.73 132.14 841.7"/><polygon class="cls-35" points="176.36 836.87 175.46 839.39 174.57 841.9 165.75 837.34 156.93 832.78 166.65 834.83 176.36 836.87"/><polygon class="cls-35" points="127.78 846.68 126.97 845.02 126.16 843.36 135.4 839.88 144.65 836.4 136.21 841.54 127.78 846.68"/><polygon class="cls-35" points="87.67 842.46 86.98 840.75 86.28 839.04 94.95 836.5 103.62 833.95 95.65 838.21 87.67 842.46"/><circle class="cls-33" cx="261.88" cy="813.47" r="59.46"/><ellipse class="cls-33" cx="302.18" cy="802.42" rx="55.4" ry="59.46" transform="matrix(0.96, -0.26, 0.26, 0.96, -201.38, 108.43)"/><circle class="cls-34" cx="263.13" cy="813.87" r="56"/><ellipse class="cls-34" cx="301.08" cy="803.47" rx="52.18" ry="56" transform="translate(-201.69 108.18) rotate(-15.33)"/><circle class="cls-35" cx="264.38" cy="814.27" r="52.54"/><ellipse class="cls-35" cx="299.99" cy="804.51" rx="48.95" ry="52.54" transform="translate(-202.01 107.93) rotate(-15.33)"/><polygon class="cls-36" points="228.24 723.69 248.36 739.09 268.48 754.49 261.38 742.92 254.28 731.34 241.26 727.52 228.24 723.69"/><polygon points="254.03 809.43 242.53 812.7 231.04 815.97 233.62 803.2 236.19 790.42 245.11 799.93 254.03 809.43"/><polygon class="cls-35" points="236.18 813.55 234.11 814.16 232.05 814.78 232.81 813.55 233.57 812.32 234.87 812.94 236.18 813.55"/><rect class="cls-35" x="233.77" y="810.01" width="16.72" height="1.91" transform="translate(-205.77 92.86) rotate(-15.33)"/><polygon class="cls-35" points="252.3 809.13 250.53 809.66 248.76 810.19 249.37 809 249.98 807.82 251.14 808.48 252.3 809.13"/><rect class="cls-35" x="224.47" y="803.25" width="21.08" height="1.22" transform="translate(-597.9 891.45) rotate(-79.71)"/><polygon class="cls-35" points="236.33 795.6 236.36 793.51 236.39 791.41 236.94 792.47 237.48 793.52 236.91 794.56 236.33 795.6"/><rect x="231.03" y="812.65" width="4.87" height="0.48" transform="translate(-576.51 569.48) rotate(-57.25)"/><polygon points="312.07 793.52 300.57 796.79 289.08 800.06 291.65 787.29 294.23 774.51 303.15 784.02 312.07 793.52"/><polygon class="cls-35" points="294.22 797.64 292.15 798.26 290.09 798.87 290.85 797.64 291.61 796.41 292.91 797.03 294.22 797.64"/><rect class="cls-35" x="291.8" y="794.1" width="16.72" height="1.91" transform="translate(-199.5 107.64) rotate(-15.33)"/><polygon class="cls-35" points="310.34 793.22 308.57 793.75 306.8 794.28 307.41 793.09 308.02 791.91 309.18 792.57 310.34 793.22"/><rect class="cls-35" x="282.51" y="787.34" width="21.08" height="1.22" transform="translate(-534.58 935.49) rotate(-79.71)"/><polygon class="cls-35" points="294.37 779.69 294.4 777.6 294.43 775.5 294.98 776.56 295.52 777.61 294.94 778.65 294.37 779.69"/><rect x="289.07" y="796.75" width="4.87" height="0.48" transform="translate(-536.49 610.99) rotate(-57.25)"/><polygon class="cls-37" points="225.42 828.65 240.34 835.23 251.9 824.79 268 829.34 283.46 818.48 301.81 820.72 317.1 807.03 327.15 812.53 333.84 801.03 331.3 828.2 315.37 826.49 299.45 842.08 285.46 834.69 271.11 847.57 255.8 841.67 245.85 851.7 225.42 828.65"/><polygon class="cls-35" points="249.65 846.72 248.05 848.44 246.46 850.15 238.29 840.94 230.12 831.73 239.88 839.23 249.65 846.72"/><polygon class="cls-35" points="273.27 842.27 272.52 844.49 271.77 846.71 265.02 843.18 258.27 839.65 265.77 840.96 273.27 842.27"/><polygon class="cls-35" points="301.54 836.58 300.78 838.8 300.03 841.02 293.22 837.47 286.42 833.92 293.98 835.25 301.54 836.58"/><polygon class="cls-35" points="330.76 823.58 330.7 825.49 330.64 827.41 323.6 826.22 316.56 825.04 323.66 824.3 330.76 823.58"/><polygon class="cls-35" points="299.64 840.95 298.72 839.99 297.81 839.03 303.38 834.62 308.94 830.21 304.29 835.58 299.64 840.95"/><polygon class="cls-35" points="271.25 846.85 270.4 845.83 269.55 844.82 274.93 841.17 280.31 837.53 275.78 842.19 271.25 846.85"/><ellipse class="cls-39" cx="258.15" cy="696.01" rx="14.7" ry="29.45" transform="translate(-473.69 571.57) rotate(-60)"/><ellipse class="cls-40" cx="304.15" cy="763.01" rx="14.7" ry="29.45" transform="translate(-490.72 970.07) rotate(-82.87)"/><polygon class="cls-13" points="301.75 489.61 315.48 480.68 408.86 570.14 395.13 579.07 301.75 489.61"/><polygon class="cls-13" points="367.74 594.25 404.27 572.23 440.81 550.2 460.14 599.96 479.47 649.73 423.61 621.99 367.74 594.25"/><rect class="cls-11" x="301" y="315" width="22" height="179"/><g id="shiny"><g class="cls-41"><g class="cls-41"><g class="cls-41"><g class="cls-42"><g class="cls-41"><g class="cls-43"><polygon class="cls-44" points="543.77 384.23 551.29 411.63 506.98 424.05 499.46 396.65 543.77 384.23"/></g></g></g></g></g></g></g><path class="cls-9" d="M737.09,472.08a36.25,36.25,0,0,1-8.9,18.73,35.89,35.89,0,0,0-30.78-37.61c-19.64-2.7-37.82,11.23-40.63,31.12a36,36,0,0,0-30.47-40.89c-19.64-2.69-37.82,11.24-40.63,31.12a36,36,0,0,0-30.47-40.88c-19.64-2.7-37.82,11.24-40.63,31.12A36.38,36.38,0,0,0,521,491.15c-24.93-15.28-39.3-34.69-36.61-53.77,4.94-35,65.5-55.65,135.28-46.07S742,437.05,737.09,472.08Z"/><path class="cls-9" d="M797.53,462.83a37.5,37.5,0,0,0,14.6,15.07c-7-17.33.08-37,16.85-45,17.74-8.52,39.58-.83,48.77,17.19-9.19-18-2.26-39.53,15.48-48.05s39.58-.83,48.77,17.18c-9.19-18-2.26-39.52,15.48-48.05s39.58-.83,48.77,17.19a36.22,36.22,0,0,1,2.56,27c18.62-22.07,25.88-44.85,17.06-62.14-16.19-31.73-80.43-32.9-143.49-2.61S781.34,431.1,797.53,462.83Z"/><ellipse class="cls-9" cx="765.48" cy="459.38" rx="52.97" ry="47.03" transform="translate(-29.79 53.75) rotate(-3.94)"/><ellipse class="cls-9" cx="765.07" cy="459.31" rx="37.15" ry="38.19" transform="translate(251.5 1189.06) rotate(-85.84)"/><ellipse class="cls-9" cx="765.59" cy="463.81" rx="30.35" ry="31.2" transform="translate(247.49 1193.76) rotate(-85.84)"/><ellipse class="cls-9" cx="766.11" cy="468.32" rx="23.56" ry="24.22" transform="translate(243.48 1198.45) rotate(-85.84)"/><ellipse class="cls-45" cx="762.66" cy="438.59" rx="26.06" ry="12.7" transform="translate(-40.9 80.4) rotate(-5.88)"/><polygon class="cls-9" points="757.01 484.44 754.09 464.4 751.16 444.37 771.27 451.88 791.38 459.38 774.2 471.91 757.01 484.44"/><path d="M732.12,471.47A37.32,37.32,0,0,1,722.47,490c1.85-18.76-10.37-36-28.51-39.36-19.21-3.56-37.78,9.76-41.49,29.75,3.71-20-8.85-39.09-28.05-42.65s-37.77,9.75-41.48,29.75c3.71-20-8.85-39.09-28.05-42.65s-37.78,9.75-41.49,29.75a37.53,37.53,0,0,0,5.08,26.94c-23.81-16.52-37-36.76-33.47-55.95,6.53-35.22,67.15-53.51,135.39-40.84S738.66,436.25,732.12,471.47Z"/><path d="M792.07,464.69a37.37,37.37,0,0,0,13.66,15.86c-6.1-17.83,1.84-37.41,18.73-44.84,17.88-7.87,39,.84,47.2,19.46-8.19-18.62-.34-40.08,17.53-47.95s39,.85,47.2,19.46c-8.19-18.61-.34-40.08,17.54-47.94s39,.84,47.19,19.46a37.52,37.52,0,0,1,1.23,27.38c19.39-21.53,27.63-44.26,19.77-62.12-14.43-32.79-77.62-36.71-141.15-8.75S777.65,431.9,792.07,464.69Z"/><ellipse cx="760.68" cy="459.83" rx="52.22" ry="47.6" transform="translate(-28.39 50.62) rotate(-3.74)"/><image class="cls-46" width="1331" height="394" transform="translate(139.8 71.75)" xlink:href="Titlescreen%20clean1.png"/><circle class="cls-9" cx="1208.31" cy="154.86" r="2.96"/><circle class="cls-9" cx="1218.31" cy="156.86" r="2.96"/><image class="cls-47" width="260" height="139" transform="translate(1094.55 82.72)" xlink:href="Titlescreen%20clean2.png"/><image class="cls-46" width="1300" height="390" transform="translate(153.4 75.85)" xlink:href="Titlescreen%20clean3.png"/><g class="cls-48"><path class="cls-49" d="M97.23,207.58,29,209.65c0-.31,0-.62,0-.93-.29-17.1,30.3-31.68,67.76-32.3s68.52,12.92,68.81,30Z"/><ellipse class="cls-49" cx="148.01" cy="216.9" rx="33.6" ry="21" transform="matrix(1, -0.02, 0.02, 1, -3.6, 2.5)"/><ellipse class="cls-49" cx="86.57" cy="217.92" rx="33.6" ry="21" transform="translate(-3.63 1.48) rotate(-0.96)"/><ellipse class="cls-49" cx="33.51" cy="217.04" rx="33.6" ry="21" transform="translate(-3.62 0.59) rotate(-0.96)"/><ellipse class="cls-49" cx="43.68" cy="190.79" rx="24.75" ry="18.79" transform="translate(-3.18 0.76) rotate(-0.96)"/><ellipse class="cls-49" cx="141.58" cy="189.15" rx="24.98" ry="21" transform="translate(-3.14 2.39) rotate(-0.96)"/><ellipse class="cls-49" cx="89.56" cy="185.16" rx="33.6" ry="21" transform="translate(-3.08 1.52) rotate(-0.96)"/></g><polygon class="cls-50" points="244.09 349.5 176.13 348.89 108.17 348.29 143 253.46 177.82 158.63 210.96 254.06 244.09 349.5"/></g></g></svg>