<svg id="Layer_1" data-name="Layer 1" xmlns="http://www.w3.org/2000/svg" xmlns:xlink="http://www.w3.org/1999/xlink" width="200" height="380" viewBox="0 0 200 380"><defs><style>.cls-1{fill:#ccbb96;}.cls-2{fill:#fff;}.cls-3{opacity:0.65;}.cls-4{fill:url(#New_Gradient_Swatch_3);}.cls-5{fill:url(#linear-gradient);}.cls-6{fill:url(#linear-gradient-2);}.cls-12,.cls-7{fill:none;}.cls-8{fill:url(#New_Gradient_Swatch_3-2);}.cls-9{fill:url(#New_Gradient_Swatch_3-3);}.cls-10{fill:url(#linear-gradient-3);}.cls-11{fill:url(#linear-gradient-4);}.cls-12{stroke:#fff;stroke-miterlimit:10;}</style><linearGradient id="New_Gradient_Swatch_3" x1="26.38" y1="254.72" x2="174.29" y2="254.72" gradientUnits="userSpaceOnUse"><stop offset="0" stop-color="#5c0074"/><stop offset="0.01" stop-color="#590070"/><stop offset="0.14" stop-color="#3e004e"/><stop offset="0.27" stop-color="#270032"/><stop offset="0.41" stop-color="#16001c"/><stop offset="0.57" stop-color="#0a000c"/><stop offset="0.75" stop-color="#020003"/><stop offset="1"/></linearGradient><linearGradient id="linear-gradient" x1="70.42" y1="158.62" x2="91.59" y2="158.62" gradientUnits="userSpaceOnUse"><stop offset="0.42" stop-color="#5c0074"/><stop offset="0.43" stop-color="#590070"/><stop offset="0.5" stop-color="#3e004e"/><stop offset="0.58" stop-color="#270032"/><stop offset="0.66" stop-color="#16001c"/><stop offset="0.75" stop-color="#0a000c"/><stop offset="0.85" stop-color="#020003"/><stop offset="1"/></linearGradient><linearGradient id="linear-gradient-2" x1="108.17" y1="158.69" x2="132.23" y2="158.69" gradientUnits="userSpaceOnUse"><stop offset="0.38" stop-color="#5c0074"/><stop offset="0.39" stop-color="#590070"/><stop offset="0.47" stop-color="#3e004e"/><stop offset="0.55" stop-color="#270032"/><stop offset="0.64" stop-color="#16001c"/><stop offset="0.73" stop-color="#0a000c"/><stop offset="0.84" stop-color="#020003"/><stop offset="1"/></linearGradient><linearGradient id="New_Gradient_Swatch_3-2" x1="48.15" y1="111" x2="111.33" y2="111" xlink:href="#New_Gradient_Swatch_3"/><linearGradient id="New_Gradient_Swatch_3-3" x1="24.94" y1="89.22" x2="64.87" y2="66.17" xlink:href="#New_Gradient_Swatch_3"/><linearGradient id="linear-gradient-3" x1="47.27" y1="231.36" x2="47.27" y2="282.7" gradientUnits="userSpaceOnUse"><stop offset="0" stop-color="#b40f00"/><stop offset="0.11" stop-color="#ae0e00"/><stop offset="0.27" stop-color="#9b0d00"/><stop offset="0.46" stop-color="#7e0a00"/><stop offset="0.66" stop-color="#540700"/><stop offset="0.88" stop-color="#200300"/><stop offset="1"/></linearGradient><linearGradient id="linear-gradient-4" x1="154.43" y1="231.36" x2="154.43" y2="282.7" gradientUnits="userSpaceOnUse"><stop offset="0" stop-color="#b40f00"/><stop offset="0.11" stop-color="#ad0e00"/><stop offset="0.27" stop-color="#990d00"/><stop offset="0.47" stop-color="#790a00"/><stop offset="0.69" stop-color="#4c0600"/><stop offset="0.92" stop-color="#140200"/><stop offset="1"/></linearGradient></defs><title>vampire</title><polygon class="cls-1" points="174.16 202.03 100.59 202.85 27.02 203.67 63.01 156.16 98.99 108.65 136.58 155.34 174.16 202.03"/><ellipse cx="116.08" cy="304.58" rx="15" ry="6.37"/><ellipse cx="85.36" cy="304.58" rx="15" ry="6.37"/><ellipse class="cls-2" cx="120.42" cy="301.1" rx="2.11" ry="3.88" transform="matrix(0.06, -1, 1, 0.06, -187.73, 402.1)"/><ellipse class="cls-2" cx="79.81" cy="301.1" rx="3.88" ry="2.11" transform="translate(-30.15 9.65) rotate(-5.83)"/><ellipse class="cls-3" cx="103.22" cy="301.39" rx="78.58" ry="29.84"/><polygon class="cls-4" points="100.71 306.75 63.54 255 26.38 203.25 100.33 202.97 174.29 202.69 137.5 254.72 100.71 306.75"/><ellipse class="cls-2" cx="121.08" cy="162.05" rx="12.86" ry="10.43"/><ellipse class="cls-2" cx="78.93" cy="162.05" rx="12.86" ry="10.43"/><path class="cls-5" d="M70.42,154.24,91,165.63c1.46-5.19.28-9.42-4.85-12.21C80.22,150.62,75.05,151.21,70.42,154.24Z"/><path class="cls-6" d="M109,165.63l23.23-8.78c-3.83-4.88-9.43-6.23-16.75-4.19C108.86,156.2,106.85,160.55,109,165.63Z"/><path class="cls-7" d="M109.09,165.82q6.25,9.69,19.12,5.11c4.8-3.25,7.62-7.27,3.95-13.8"/><path class="cls-7" d="M90.72,165.82c-3.78,7.5-10.63,8.16-19.34,4.67-5.54-4.38-7.92-9.36-1.28-16l13.22,6.91"/><ellipse cx="72.15" cy="159.44" rx="3.93" ry="3.77"/><ellipse cx="118.58" cy="165.82" rx="3.93" ry="3.77"/><path class="cls-8" d="M108.74,98.29,61.28,133.15a9.2,9.2,0,0,1-11.1-.44h0c-2.91-2.61-2.66-6.64.55-9L98.19,88.84a9.2,9.2,0,0,1,11.1.45h0C112.21,91.9,112,95.93,108.74,98.29Z"/><polygon class="cls-9" points="76.62 86.52 52.6 104.16 13.19 68.87 37.21 51.23 76.62 86.52"/><polygon class="cls-2" points="87.3 96.54 63.77 113.83 52.3 103.56 75.84 86.28 87.3 96.54"/><polygon class="cls-10" points="83.69 282.35 47.27 282.52 10.85 282.7 28.87 257.03 46.89 231.36 65.29 256.86 83.69 282.35"/><polygon class="cls-11" points="190.85 282.35 154.43 282.52 118.01 282.7 136.03 257.03 154.05 231.36 172.45 256.86 190.85 282.35"/><line class="cls-12" x1="105.72" y1="203.48" x2="100.55" y2="304.25"/><ellipse class="cls-2" cx="94.65" cy="218.25" rx="3.93" ry="3.19"/><ellipse class="cls-2" cx="113.58" cy="217.96" rx="3.93" ry="3.19"/><ellipse class="cls-2" cx="95.01" cy="230.71" rx="3.93" ry="3.19"/><ellipse class="cls-2" cx="94.29" cy="230.71" rx="0.36" ry="0.29"/><ellipse class="cls-2" cx="112.87" cy="230.71" rx="3.93" ry="3.19"/><ellipse class="cls-2" cx="112.87" cy="242.87" rx="3.93" ry="3.19"/><ellipse class="cls-2" cx="95.01" cy="242.87" rx="3.93" ry="3.19"/><ellipse class="cls-2" cx="112.87" cy="256.78" rx="3.93" ry="3.19"/><ellipse class="cls-2" cx="94.29" cy="256.78" rx="3.93" ry="3.19"/><path d="M83.33,128,96.88,109c6.58,3.12,5.91,14.22-1.48,24.6s-19,16.43-25.58,13.33Z"/><path d="M114.1,126.46l15.33,19.15a8.38,8.38,0,0,1-1.21.68c-7.37,3.45-19.81-2.66-27.56-13.54-7.15-10-8.06-21-2.1-25.29Z"/><polygon points="91.55 185.25 94.83 174.38 98.1 163.5 116.99 173.01 135.87 182.51 113.71 183.88 91.55 185.25"/><polygon class="cls-1" points="91.33 186.41 94.63 174.45 97.94 162.49 113.16 171.54 128.39 180.59 109.86 183.5 91.33 186.41"/><rect class="cls-2" x="102.71" y="129.4" width="3.46" height="2.8" rx="1.25"/><rect class="cls-2" x="107.03" y="129.4" width="5.18" height="2.8" rx="1.25"/><polygon points="78.25 186.25 85.21 188.6 92.18 190.95 85.33 196.34 78.48 201.72 78.36 193.99 78.25 186.25"/><polygon class="cls-2" points="78.26 186.35 84.86 188.57 91.45 190.8 85.24 195.36 79.03 199.93 78.65 193.14 78.26 186.35"/><polygon points="98.62 192.07 103.55 193.15 108.48 194.23 104.43 198.44 100.38 202.66 99.5 197.37 98.62 192.07"/><polygon class="cls-2" points="98.64 192.13 103.31 193.15 107.97 194.17 104.27 197.78 100.57 201.38 99.6 196.76 98.64 192.13"/></svg>
