<svg id="Layer_1" data-name="Layer 1" xmlns="http://www.w3.org/2000/svg" xmlns:xlink="http://www.w3.org/1999/xlink" width="200" height="380" viewBox="0 0 200 380"><defs><style>.cls-1{fill:#ccbb96;}.cls-2{fill:#fff;}.cls-3{opacity:0.65;}.cls-4{fill:url(#New_Gradient_Swatch_3);}.cls-5{fill:url(#linear-gradient);}.cls-6{fill:url(#linear-gradient-2);}.cls-12,.cls-7{fill:none;}.cls-8{fill:url(#New_Gradient_Swatch_3-2);}.cls-9{fill:url(#New_Gradient_Swatch_3-3);}.cls-10{fill:url(#linear-gradient-3);}.cls-11{fill:url(#linear-gradient-4);}.cls-12{stroke:#fff;stroke-miterlimit:10;}</style><linearGradient id="New_Gradient_Swatch_3" x1="18.1" y1="277.4" x2="182.45" y2="277.4" gradientUnits="userSpaceOnUse"><stop offset="0" stop-color="#5c0074"/><stop offset="0.01" stop-color="#590070"/><stop offset="0.14" stop-color="#3e004e"/><stop offset="0.27" stop-color="#270032"/><stop offset="0.41" stop-color="#16001c"/><stop offset="0.57" stop-color="#0a000c"/><stop offset="0.75" stop-color="#020003"/><stop offset="1"/></linearGradient><linearGradient id="linear-gradient" x1="67.04" y1="146.98" x2="90.56" y2="146.98" gradientUnits="userSpaceOnUse"><stop offset="0.42" stop-color="#5c0074"/><stop offset="0.43" stop-color="#590070"/><stop offset="0.5" stop-color="#3e004e"/><stop offset="0.58" stop-color="#270032"/><stop offset="0.66" stop-color="#16001c"/><stop offset="0.75" stop-color="#0a000c"/><stop offset="0.85" stop-color="#020003"/><stop offset="1"/></linearGradient><linearGradient id="linear-gradient-2" x1="108.99" y1="147.07" x2="135.72" y2="147.07" gradientUnits="userSpaceOnUse"><stop offset="0.38" stop-color="#5c0074"/><stop offset="0.39" stop-color="#590070"/><stop offset="0.47" stop-color="#3e004e"/><stop offset="0.55" stop-color="#270032"/><stop offset="0.64" stop-color="#16001c"/><stop offset="0.73" stop-color="#0a000c"/><stop offset="0.84" stop-color="#020003"/><stop offset="1"/></linearGradient><linearGradient id="New_Gradient_Swatch_3-2" x1="42.29" y1="82.34" x2="112.49" y2="82.34" xlink:href="#New_Gradient_Swatch_3"/><linearGradient id="New_Gradient_Swatch_3-3" x1="17.44" y1="49.41" x2="59.93" y2="24.88" xlink:href="#New_Gradient_Swatch_3"/><linearGradient id="linear-gradient-3" x1="41.31" y1="245.7" x2="41.31" y2="315.37" gradientUnits="userSpaceOnUse"><stop offset="0" stop-color="#b40f00"/><stop offset="0.11" stop-color="#ae0e00"/><stop offset="0.27" stop-color="#9b0d00"/><stop offset="0.46" stop-color="#7e0a00"/><stop offset="0.66" stop-color="#540700"/><stop offset="0.88" stop-color="#200300"/><stop offset="1"/></linearGradient><linearGradient id="linear-gradient-4" x1="160.38" y1="245.7" x2="160.38" y2="315.37" gradientUnits="userSpaceOnUse"><stop offset="0" stop-color="#b40f00"/><stop offset="0.11" stop-color="#ad0e00"/><stop offset="0.27" stop-color="#990d00"/><stop offset="0.47" stop-color="#790a00"/><stop offset="0.69" stop-color="#4c0600"/><stop offset="0.92" stop-color="#140200"/><stop offset="1"/></linearGradient></defs><title>vampire</title><polygon class="cls-1" points="182.31 205.88 100.56 207 18.82 208.11 58.8 143.63 98.79 79.16 140.55 142.52 182.31 205.88"/><ellipse cx="117.77" cy="345.06" rx="16.67" ry="8.65"/><ellipse cx="83.64" cy="345.06" rx="16.67" ry="8.65"/><ellipse class="cls-2" cx="122.6" cy="340.33" rx="2.85" ry="4.32" transform="translate(-228.06 429.19) rotate(-84.41)"/><ellipse class="cls-2" cx="77.47" cy="340.33" rx="4.32" ry="2.85" transform="translate(-51.79 16.11) rotate(-8.91)"/><ellipse class="cls-3" cx="103.49" cy="340.74" rx="87.31" ry="40.49"/><polygon class="cls-4" points="100.69 348.01 59.4 277.77 18.1 207.54 100.27 207.16 182.45 206.78 141.57 277.4 100.69 348.01"/><ellipse class="cls-2" cx="123.33" cy="151.63" rx="14.29" ry="14.15"/><ellipse class="cls-2" cx="76.5" cy="151.63" rx="14.29" ry="14.15"/><path class="cls-5" d="M67,141l22.88,15.46c1.62-7.05.31-12.79-5.39-16.57C77.93,136.12,72.18,136.92,67,141Z"/><path class="cls-6" d="M109.91,156.49l25.81-11.92c-4.25-6.62-10.48-8.46-18.62-5.68C109.75,143.7,107.51,149.6,109.91,156.49Z"/><path class="cls-7" d="M110,156.74q6.94,13.15,21.24,6.94c5.34-4.41,8.46-9.86,4.38-18.73"/><path class="cls-7" d="M89.6,156.74c-4.2,10.18-11.81,11.08-21.5,6.34-6.15-6-8.79-12.7-1.42-21.74l14.69,9.37"/><ellipse cx="68.96" cy="148.09" rx="4.37" ry="5.11"/><ellipse cx="120.55" cy="156.74" rx="4.37" ry="5.11"/><path class="cls-8" d="M109.62,65.1,56.89,112.41a8.78,8.78,0,0,1-12.33-.6h0a8.61,8.61,0,0,1,.61-12.22L97.9,52.28a8.78,8.78,0,0,1,12.33.6h0A8.6,8.6,0,0,1,109.62,65.1Z"/><polygon class="cls-9" points="73.92 49.12 47.24 73.06 3.45 25.18 30.14 1.23 73.92 49.12"/><polygon class="cls-2" points="85.8 62.73 59.65 86.19 46.91 72.26 73.06 48.8 85.8 62.73"/><polygon class="cls-10" points="81.78 314.89 41.31 315.13 0.85 315.37 20.87 280.53 40.9 245.7 61.34 280.29 81.78 314.89"/><polygon class="cls-11" points="200.85 314.89 160.38 315.13 119.91 315.37 139.94 280.53 159.96 245.7 180.41 280.29 200.85 314.89"/><line class="cls-12" x1="106.26" y1="207.85" x2="100.51" y2="344.61"/><ellipse class="cls-2" cx="93.96" cy="227.9" rx="4.37" ry="4.32"/><ellipse class="cls-2" cx="115" cy="227.51" rx="4.37" ry="4.32"/><ellipse class="cls-2" cx="94.36" cy="244.81" rx="4.37" ry="4.32"/><circle class="cls-2" cx="93.56" cy="244.81" r="0.4"/><ellipse class="cls-2" cx="114.2" cy="244.81" rx="4.37" ry="4.32"/><ellipse class="cls-2" cx="114.2" cy="261.32" rx="4.37" ry="4.32"/><ellipse class="cls-2" cx="94.36" cy="261.32" rx="4.37" ry="4.32"/><ellipse class="cls-2" cx="114.2" cy="280.19" rx="4.37" ry="4.32"/><ellipse class="cls-2" cx="93.56" cy="280.19" rx="4.37" ry="4.32"/><path d="M81.39,105.37l15-25.73c7.31,4.25,6.56,19.3-1.65,33.39s-21.06,22.29-28.41,18.09Z"/><path d="M115.58,103.33l17,26a10.26,10.26,0,0,1-1.34.92c-8.19,4.69-22-3.61-30.62-18.37-7.94-13.62-9-28.49-2.33-34.32Z"/><polygon points="90.52 183.11 94.16 168.36 97.8 153.6 118.78 166.5 139.76 179.4 115.14 181.25 90.52 183.11"/><polygon class="cls-1" points="90.27 184.69 93.94 168.46 97.62 152.22 114.53 164.5 131.45 176.79 110.86 180.74 90.27 184.69"/><rect class="cls-2" x="102.91" y="107.31" width="3.84" height="3.8" rx="1.9"/><rect class="cls-2" x="107.71" y="107.31" width="5.76" height="3.8" rx="1.9"/><polygon points="75.74 184.47 83.47 187.66 91.21 190.85 83.6 198.16 75.99 205.47 75.86 194.97 75.74 184.47"/><polygon class="cls-2" points="75.75 184.6 83.08 187.62 90.41 190.64 83.51 196.84 76.61 203.03 76.18 193.82 75.75 184.6"/><polygon points="98.37 192.37 103.85 193.83 109.33 195.3 104.83 201.02 100.33 206.74 99.35 199.56 98.37 192.37"/><polygon class="cls-2" points="98.39 192.45 103.58 193.84 108.77 195.23 104.65 200.12 100.54 205.01 99.47 198.73 98.39 192.45"/></svg>
