<svg id="Layer_1" data-name="Layer 1" xmlns="http://www.w3.org/2000/svg" xmlns:xlink="http://www.w3.org/1999/xlink" width="200" height="380" viewBox="0 0 200 380"><defs><style>.cls-1{fill:#ccbb96;}.cls-2{fill:#fff;}.cls-3{opacity:0.65;}.cls-4{fill:url(#New_Gradient_Swatch_3);}.cls-5{fill:none;}.cls-6{fill:url(#New_Gradient_Swatch_3-2);}.cls-7{fill:url(#New_Gradient_Swatch_3-3);}.cls-8{fill:url(#linear-gradient);}.cls-9{fill:url(#linear-gradient-2);}.cls-10{fill:url(#linear-gradient-3);}</style><linearGradient id="New_Gradient_Swatch_3" x1="26.38" y1="248.74" x2="174.29" y2="248.74" gradientUnits="userSpaceOnUse"><stop offset="0" stop-color="#5c0074"/><stop offset="0.01" stop-color="#590070"/><stop offset="0.14" stop-color="#3e004e"/><stop offset="0.27" stop-color="#270032"/><stop offset="0.41" stop-color="#16001c"/><stop offset="0.57" stop-color="#0a000c"/><stop offset="0.75" stop-color="#020003"/><stop offset="1"/></linearGradient><linearGradient id="New_Gradient_Swatch_3-2" x1="197.25" y1="89.21" x2="243.24" y2="89.21" gradientTransform="translate(209.99 -101.08) rotate(92.75)" xlink:href="#New_Gradient_Swatch_3"/><linearGradient id="New_Gradient_Swatch_3-3" x1="181.28" y1="55.5" x2="206.86" y2="40.74" gradientTransform="translate(209.99 -101.08) rotate(92.75)" xlink:href="#New_Gradient_Swatch_3"/><linearGradient id="linear-gradient" x1="100.53" y1="202.11" x2="100.53" y2="273.65" gradientUnits="userSpaceOnUse"><stop offset="0" stop-color="#b40f00"/><stop offset="0.22" stop-color="#b10f00"/><stop offset="0.37" stop-color="#a80e00"/><stop offset="0.51" stop-color="#990d00"/><stop offset="0.62" stop-color="#830b00"/><stop offset="0.74" stop-color="#670900"/><stop offset="0.84" stop-color="#450600"/><stop offset="0.94" stop-color="#1d0200"/><stop offset="1"/></linearGradient><linearGradient id="linear-gradient-2" x1="154.43" y1="227.74" x2="154.43" y2="273.89" gradientUnits="userSpaceOnUse"><stop offset="0" stop-color="#b40f00"/><stop offset="0.11" stop-color="#ad0e00"/><stop offset="0.27" stop-color="#990d00"/><stop offset="0.47" stop-color="#790a00"/><stop offset="0.69" stop-color="#4c0600"/><stop offset="0.92" stop-color="#140200"/><stop offset="1"/></linearGradient><linearGradient id="linear-gradient-3" x1="47.27" y1="227.74" x2="47.27" y2="273.89" gradientUnits="userSpaceOnUse"><stop offset="0" stop-color="#b40f00"/><stop offset="0.11" stop-color="#ae0e00"/><stop offset="0.27" stop-color="#9b0d00"/><stop offset="0.46" stop-color="#7e0a00"/><stop offset="0.66" stop-color="#540700"/><stop offset="0.88" stop-color="#200300"/><stop offset="1"/></linearGradient></defs><title>vampire back</title><polygon class="cls-1" points="174.16 201.37 100.59 202.11 27.02 202.85 63.01 160.14 98.99 117.43 136.58 159.4 174.16 201.37"/><ellipse cx="116.08" cy="293.56" rx="15" ry="5.73"/><ellipse cx="85.36" cy="293.56" rx="15" ry="5.73"/><ellipse class="cls-2" cx="120.42" cy="290.43" rx="1.89" ry="3.88" transform="translate(-175.99 395.28) rotate(-86.96)"/><ellipse class="cls-2" cx="79.81" cy="290.43" rx="3.87" ry="1.9" transform="translate(-24.27 7.79) rotate(-4.85)"/><ellipse class="cls-3" cx="103.22" cy="290.7" rx="78.58" ry="26.82"/><polygon class="cls-4" points="100.71 295.52 63.54 248.99 26.38 202.47 100.33 202.22 174.29 201.97 137.5 248.74 100.71 295.52"/><path class="cls-5" d="M109.09,168.82q6.25,8.72,19.12,4.6c4.8-2.92,7.62-6.54,3.95-12.41"/><path class="cls-5" d="M90.72,168.82c-3.78,6.74-10.63,7.34-19.34,4.2-5.54-3.94-7.92-8.41-1.28-14.4l13.22,6.21"/><path class="cls-6" d="M124.42,136.5,84.16,100.1C81.44,97.64,81.92,94,85.24,92h0c3.32-2,8.23-1.67,11,.8l40.25,36.39c2.73,2.47,2.25,6.11-1.07,8.14h0C132.05,139.32,127.15,139,124.42,136.5Z"/><polygon class="cls-7" points="140.32 113.39 119.95 94.97 164.89 67.52 185.27 85.94 140.32 113.39"/><polygon class="cls-2" points="127.58 120.81 107.62 102.76 120.69 94.78 140.65 112.83 127.58 120.81"/><path d="M83.33,134.79l13.55-17c6.58,2.81,5.91,12.78-1.48,22.12s-19,14.76-25.58,12Z"/><path d="M114.1,133.44l15.33,17.21a9.17,9.17,0,0,1-1.21.62c-7.37,3.1-19.81-2.39-27.56-12.17-7.15-9-8.06-18.87-2.1-22.74Z"/><polygon points="129.73 151.32 114.37 170.52 99.02 189.73 84.28 170.42 69.54 151.11 99.63 151.21 129.73 151.32"/><rect x="81.18" y="142.5" width="36" height="11.92"/><rect x="84.78" y="135.21" width="26.1" height="11.92"/><rect class="cls-2" x="102.71" y="136.08" width="3.46" height="2.52" rx="1.26"/><rect class="cls-2" x="107.03" y="136.08" width="5.18" height="2.52" rx="1.26"/><rect class="cls-8" x="46.98" y="202.11" width="107.1" height="71.54"/><polygon class="cls-9" points="190.85 273.58 154.43 273.74 118.01 273.89 136.03 250.82 154.05 227.75 172.45 250.66 190.85 273.58"/><polygon class="cls-10" points="83.69 273.58 47.27 273.74 10.85 273.89 28.87 250.82 46.89 227.75 65.29 250.66 83.69 273.58"/></svg>