<svg xmlns="http://www.w3.org/2000/svg" xmlns:xlink="http://www.w3.org/1999/xlink" width="1600" height="900" viewBox="0 0 1600 900"><defs><style>.cls-1{isolation:isolate;}.cls-2{fill:url(#New_Gradient_Swatch_2);}.cls-3{fill:url(#linear-gradient);}.cls-4{fill:#ccbb96;}.cls-5{fill:#fff;}.cls-6{mix-blend-mode:screen;fill:url(#linear-gradient-2);}.cls-7{opacity:0.65;}.cls-8{fill:#3f2300;}.cls-9{fill:url(#New_Gradient_Swatch_2-2);}.cls-10{fill:url(#New_Gradient_Swatch_2-3);}.cls-11{filter:url(#AI_BevelShadow_1);}.cls-12{fill:url(#New_Gradient_Swatch_1);}.cls-13{fill:url(#New_Gradient_Swatch_3);}.cls-14{fill:url(#New_Gradient_Swatch_3-2);}.cls-15{fill:url(#New_Gradient_Swatch_3-3);}.cls-16{fill:url(#linear-gradient-3);}.cls-17{fill:url(#linear-gradient-4);}.cls-18,.cls-21{fill:none;}.cls-19{fill:url(#linear-gradient-5);}.cls-20{fill:url(#linear-gradient-6);}.cls-21{stroke:#fff;stroke-miterlimit:10;}.cls-22{fill:url(#New_Gradient_Swatch_2-4);}.cls-23{fill:url(#New_Gradient_Swatch_2-5);}.cls-24{fill:url(#linear-gradient-7);}.cls-25{fill:#dd0a0a;}.cls-26{fill:url(#linear-gradient-8);}.cls-27{fill:url(#linear-gradient-9);}.cls-28{fill:url(#linear-gradient-10);}.cls-29{fill:url(#linear-gradient-11);}</style><linearGradient id="New_Gradient_Swatch_2" x1="260" y1="81" x2="1340" y2="1161" gradientUnits="userSpaceOnUse"><stop offset="0" stop-color="#005f02"/><stop offset="0.37" stop-color="#004506"/><stop offset="0.74" stop-color="#00310a"/><stop offset="1" stop-color="#002a0b"/></linearGradient><linearGradient id="linear-gradient" x1="800" y1="342" x2="800" gradientUnits="userSpaceOnUse"><stop offset="0" stop-color="#e85c0f"/><stop offset="0.27" stop-color="#393332"/><stop offset="0.31" stop-color="#312d33"/><stop offset="0.42" stop-color="#1e1e35"/><stop offset="0.54" stop-color="#101337"/><stop offset="0.7" stop-color="#080d38"/><stop offset="1" stop-color="#060b38"/></linearGradient><linearGradient id="linear-gradient-2" x1="-692.39" y1="2986.92" x2="-692.39" y2="3176.69" gradientTransform="translate(1164.26 -1216.06) scale(0.47 0.52)" gradientUnits="userSpaceOnUse"><stop offset="0" stop-color="#fff"/><stop offset="0.07" stop-color="#dedede"/><stop offset="0.22" stop-color="#a4a4a4"/><stop offset="0.36" stop-color="#727272"/><stop offset="0.5" stop-color="#494949"/><stop offset="0.64" stop-color="#292929"/><stop offset="0.77" stop-color="#121212"/><stop offset="0.89" stop-color="#050505"/><stop offset="1"/></linearGradient><linearGradient id="New_Gradient_Swatch_2-2" x1="1432.42" y1="151.04" x2="1550.38" y2="219.15" xlink:href="#New_Gradient_Swatch_2"/><linearGradient id="New_Gradient_Swatch_2-3" x1="1507.91" y1="321.46" x2="1606.55" y2="378.42" xlink:href="#New_Gradient_Swatch_2"/><filter id="AI_BevelShadow_1" x="-20" y="-20" width="140" height="140" name="AI_BevelShadow_1"><feGaussianBlur result="blur" stdDeviation="4" in="SourceAlpha"/><feOffset result="offsetBlur" dx="4" dy="4" in="blur"/><feSpecularLighting result="specOut" surfaceScale="5" specularExponent="10" in="blur"><fePointLight x="-5000" y="-10000" z="-20000"/></feSpecularLighting><feComposite result="specOut" operator="in" in="specOut" in2="SourceAlpha"/><feComposite result="litPaint" operator="arithmetic" k2="1" k3="1" in="SourceGraphic" in2="specOut"/><feMerge><feMergeNode in="offsetBlur"/><feMergeNode in="litPaint"/></feMerge></filter><linearGradient id="New_Gradient_Swatch_1" x1="246" y1="128" x2="18" y2="128" gradientUnits="userSpaceOnUse"><stop offset="0" stop-color="#fff"/><stop offset="0.17" stop-color="#fdfdfb"/><stop offset="1" stop-color="#e9ff6a"/></linearGradient><linearGradient id="New_Gradient_Swatch_3" x1="250.36" y1="273.04" x2="395.08" y2="273.04" gradientTransform="translate(266.83 -145.98) rotate(42.17)" gradientUnits="userSpaceOnUse"><stop offset="0" stop-color="#5c0074"/><stop offset="0.01" stop-color="#590070"/><stop offset="0.14" stop-color="#3e004e"/><stop offset="0.27" stop-color="#270032"/><stop offset="0.41" stop-color="#16001c"/><stop offset="0.57" stop-color="#0a000c"/><stop offset="0.75" stop-color="#020003"/><stop offset="1"/></linearGradient><linearGradient id="New_Gradient_Swatch_3-2" x1="204.91" y1="207.38" x2="288.28" y2="159.24" gradientTransform="matrix(0.74, 0.67, -0.67, 0.74, 186.89, -118.1)" xlink:href="#New_Gradient_Swatch_3"/><linearGradient id="New_Gradient_Swatch_3-3" x1="206.11" y1="660.31" x2="529.33" y2="660.31" gradientTransform="matrix(1, 0, 0, 1, 0, 0)" xlink:href="#New_Gradient_Swatch_3"/><linearGradient id="linear-gradient-3" x1="935.38" y1="-811.12" x2="981.66" y2="-811.12" gradientTransform="matrix(0.97, -0.31, 0.32, 1.01, -349.01, 1515.15)" gradientUnits="userSpaceOnUse"><stop offset="0.42" stop-color="#5c0074"/><stop offset="0.43" stop-color="#590070"/><stop offset="0.5" stop-color="#3e004e"/><stop offset="0.58" stop-color="#270032"/><stop offset="0.66" stop-color="#16001c"/><stop offset="0.75" stop-color="#0a000c"/><stop offset="0.85" stop-color="#020003"/><stop offset="1"/></linearGradient><linearGradient id="linear-gradient-4" x1="780.67" y1="1464.54" x2="833.24" y2="1464.54" gradientTransform="translate(6.09 -1221.29) rotate(14.77)" gradientUnits="userSpaceOnUse"><stop offset="0.38" stop-color="#5c0074"/><stop offset="0.39" stop-color="#590070"/><stop offset="0.47" stop-color="#3e004e"/><stop offset="0.55" stop-color="#270032"/><stop offset="0.64" stop-color="#16001c"/><stop offset="0.73" stop-color="#0a000c"/><stop offset="0.84" stop-color="#020003"/><stop offset="1"/></linearGradient><linearGradient id="linear-gradient-5" x1="251.76" y1="597.37" x2="251.76" y2="735.69" gradientUnits="userSpaceOnUse"><stop offset="0" stop-color="#b40f00"/><stop offset="0.11" stop-color="#ae0e00"/><stop offset="0.27" stop-color="#9b0d00"/><stop offset="0.46" stop-color="#7e0a00"/><stop offset="0.66" stop-color="#540700"/><stop offset="0.88" stop-color="#200300"/><stop offset="1"/></linearGradient><linearGradient id="linear-gradient-6" x1="485.93" y1="597.37" x2="485.93" y2="735.69" gradientUnits="userSpaceOnUse"><stop offset="0" stop-color="#b40f00"/><stop offset="0.11" stop-color="#ad0e00"/><stop offset="0.27" stop-color="#990d00"/><stop offset="0.47" stop-color="#790a00"/><stop offset="0.69" stop-color="#4c0600"/><stop offset="0.92" stop-color="#140200"/><stop offset="1"/></linearGradient><linearGradient id="New_Gradient_Swatch_2-4" x1="39.91" y1="235.46" x2="138.55" y2="292.42" xlink:href="#New_Gradient_Swatch_2"/><linearGradient id="New_Gradient_Swatch_2-5" x1="129.53" y1="294.25" x2="223.72" y2="348.63" xlink:href="#New_Gradient_Swatch_2"/><linearGradient id="linear-gradient-7" x1="360.15" y1="499.26" x2="360.15" y2="520.39" gradientTransform="matrix(1.26, 0.02, 0.02, 1, -104.54, -6.84)" gradientUnits="userSpaceOnUse"><stop offset="0" stop-color="#dd0a0a"/><stop offset="0.43" stop-color="#9c0505"/><stop offset="0.81" stop-color="#690101"/><stop offset="1" stop-color="#500"/></linearGradient><linearGradient id="linear-gradient-8" x1="330" y1="515.99" x2="330" y2="528.25" gradientUnits="userSpaceOnUse"><stop offset="0" stop-color="#dd0a0a"/><stop offset="0.14" stop-color="#d90a0a"/><stop offset="0.28" stop-color="#ce0909"/><stop offset="0.41" stop-color="#bb0808"/><stop offset="0.54" stop-color="#a00707"/><stop offset="0.67" stop-color="#7d0606"/><stop offset="0.8" stop-color="#520404"/><stop offset="0.93" stop-color="#210101"/><stop offset="1"/></linearGradient><linearGradient id="linear-gradient-9" x1="398.19" y1="509.44" x2="398.19" y2="517.56" gradientTransform="translate(0.43 -0.12)" xlink:href="#linear-gradient-8"/><linearGradient id="linear-gradient-10" x1="399.69" y1="531.86" x2="399.69" y2="539.98" gradientTransform="translate(6.7 -1.56)" xlink:href="#linear-gradient-8"/><linearGradient id="linear-gradient-11" x1="314.56" y1="534.68" x2="314.56" y2="546.61" gradientTransform="translate(7.83 8.36)" xlink:href="#linear-gradient-8"/></defs><title>Victory</title><g class="cls-1"><g id="Layer_1" data-name="Layer 1"><rect class="cls-2" x="-1" y="342" width="1602" height="558"/><rect class="cls-3" width="1600" height="342"/><polygon class="cls-4" points="529.06 518.32 368.29 520.53 207.52 522.75 286.16 394.73 364.8 266.72 446.93 392.52 529.06 518.32"/><path d="M397.82,314.71,431.3,366.3a18.83,18.83,0,0,1-2.63,1.84c-16.12,9.31-43.31-7.16-60.23-36.47-15.62-27.05-17.6-56.57-4.59-68.15Z"/><rect class="cls-5" x="372.91" y="322.62" width="7.55" height="7.55" rx="2"/><rect class="cls-5" x="382.35" y="322.62" width="11.33" height="7.55" rx="2"/><ellipse cx="856.23" cy="485.89" rx="158.89" ry="157.23" transform="translate(114.25 1132.94) rotate(-70.66)"/><path d="M964.29,496.32a105.16,105.16,0,0,0,8.79,49.48c6.33-46.08,38.92-81.6,75.6-80.78,38.82.86,67.54,42.07,64.14,92.06,3.4-50,37.62-89.81,76.44-88.94s67.54,42.07,64.14,92.06c3.4-50,37.62-89.81,76.45-88.94s67.53,42.07,64.14,92.06c-1.66,24.42-10.67,46.38-24,62.4,54.51-28.07,90.62-70.34,93.88-118.31,6-88-101-161.9-239-165S970.28,408.28,964.29,496.32Z"/><path d="M792.8,414A78.31,78.31,0,0,1,761,441.93c18.48-34.46,11.38-77.09-17.29-97.83-30.34-22-73.36-11.07-96.08,24.3,22.72-35.37,16.54-81.83-13.8-103.78s-73.36-11.07-96.09,24.3c22.73-35.37,16.55-81.83-13.8-103.78s-73.36-11.07-96.08,24.3A85.26,85.26,0,0,0,414.64,265c-27.76-50.38-34.16-99.56-12.35-133.5C442.31,69.23,562.17,82,670,160S832.82,351.68,792.8,414Z"/><ellipse class="cls-6" cx="837.17" cy="395.29" rx="91.15" ry="49.61" transform="translate(-65.09 187.85) rotate(-12.33)"/><path class="cls-5" d="M721,448.81c.31,0,.62,0,.93,0l1,.1,0,.32a1.15,1.15,0,0,0-.54.57,2.49,2.49,0,0,0-.16.92,6.23,6.23,0,0,0,.26,1.64,19.94,19.94,0,0,0,.65,1.93c.26.68.56,1.36.89,2.06s.66,1.36,1,2h.27a10.66,10.66,0,0,0,.71-1.3c.21-.47.41-.94.59-1.42s.34-.94.49-1.4.27-.88.37-1.26a2.63,2.63,0,0,0,.09-.67.77.77,0,0,0-.22-.58,1.64,1.64,0,0,0-.92-.28v-.33a37.56,37.56,0,0,1,3.86-.24,6.52,6.52,0,0,1,2.11.24v.33a1.59,1.59,0,0,0-.52.16,3.76,3.76,0,0,0-.63.38,5,5,0,0,0-.67.58,3.18,3.18,0,0,0-.58.77l-4,6.85v4.89a9,9,0,0,0,.18,1.94,6.21,6.21,0,0,0,.48,1.37,4,4,0,0,0,.6.89,3.43,3.43,0,0,0,.6.5v.27c-.63-.06-1.27-.1-1.9-.14s-1.29-.05-1.94-.05-1.3,0-2,.05-1.33.08-2,.14v-.27a5.79,5.79,0,0,1,.66-.37,2.37,2.37,0,0,0,.81-.68,4.7,4.7,0,0,0,.69-1.35,7.76,7.76,0,0,0,.29-2.35v-4.84c-.09-.19-.25-.5-.47-.91l-.77-1.44-.93-1.71c-.33-.6-.66-1.19-1-1.77s-.61-1.11-.87-1.62-.47-.92-.63-1.24c0-.05.08-.13.34-.22s.55-.18.89-.27l.92-.24a1.23,1.23,0,0,0,.41-.14h0a6.74,6.74,0,0,0-3,.73,8.69,8.69,0,0,0-2.55,2,9.93,9.93,0,0,0-1.79,2.88,10.52,10.52,0,0,0-.8,3.49c-.07-.38-.12-.75-.15-1.1s0-.69,0-1a12.05,12.05,0,0,1,.67-3.25,8.74,8.74,0,0,1,1.67-2.82,7.88,7.88,0,0,1,2.74-2A9.5,9.5,0,0,1,721,448.81Z"/><path class="cls-5" d="M730.93,461.18a9.81,9.81,0,0,1,.65-3.84,8.18,8.18,0,0,1,1.75-2.67A6.93,6.93,0,0,1,736,453a7.92,7.92,0,0,1,3-.57,3.94,3.94,0,0,1,1.81.38,5.89,5.89,0,0,1,1.65,1.05,9.14,9.14,0,0,1,1.16,1.84,7.23,7.23,0,0,1,.4,2.59,11.58,11.58,0,0,1-.22,2.7,17.56,17.56,0,0,1-.83,2.51,13.93,13.93,0,0,1-1.46,2.13A5.82,5.82,0,0,1,739.3,467a9.52,9.52,0,0,1-4.24.38,3,3,0,0,1-1.62-.57,2.52,2.52,0,0,1-1.27-1.16,8.31,8.31,0,0,1-1-1.83A11.66,11.66,0,0,1,730.93,461.18Zm3,.24a5.77,5.77,0,0,0,.29,1.81,4.14,4.14,0,0,0,.79,1.35,2.56,2.56,0,0,0,1,.89,2.92,2.92,0,0,0,1.27.27,2.26,2.26,0,0,0,1.7-.7,5.41,5.41,0,0,0,1.16-1.51,15.45,15.45,0,0,0,.68-2.22c.12-1.17.19-2,.19-2.4a8.21,8.21,0,0,0,0-.84c0-.28,0-.59,0-.91s-.23-.89-.48-1.73a7.28,7.28,0,0,0-.79-1.35,2.17,2.17,0,0,0-1.26-.49,2.75,2.75,0,0,0-1.44.49,5,5,0,0,0-1.43,1.35,9,9,0,0,0-1.13,2.51A11.53,11.53,0,0,0,733.9,461.42Z"/><path class="cls-5" d="M755.07,466a11.07,11.07,0,0,1-2.6,1.16,9.25,9.25,0,0,1-2.83.46,6,6,0,0,1-1.37-.15,3.08,3.08,0,0,1-1.12-.5,2.42,2.42,0,0,1-.75-.87,2.89,2.89,0,0,1-.27-1.31v-1.33c0-.54,0-1.36,0-2.45s0-2.63,0-4.59c0-.22,0-.41,0-.58a1.65,1.65,0,0,0-.1-.5,2.23,2.23,0,0,0-.23-.5,3.68,3.68,0,0,0-.39-.58l-.29-.21c-.17-.11-.34-.25-.53-.4l-.53-.42a2.09,2.09,0,0,1-.27-.24v-.27H744c.65,0,1.29,0,1.93-.07s1.26-.1,1.85-.16l1.66-.19c.52-.06,1-.1,1.39-.12v.21a2.3,2.3,0,0,0-1,.43,2,2,0,0,0-.53.71,3.07,3.07,0,0,0-.22.88,7,7,0,0,0-.06.9v8.1a1.81,1.81,0,0,0,.7,1.55,2.74,2.74,0,0,0,1.68.53,4.3,4.3,0,0,0,1.93-.5,4.54,4.54,0,0,0,1.69-1.53v-7.88a8.69,8.69,0,0,0-.09-1.26,2.65,2.65,0,0,0-.62-1.28l-.29-.2c-.17-.12-.34-.25-.53-.41L753,452a1.39,1.39,0,0,1-.27-.25v-.27a4,4,0,0,0,1.35.19,9.66,9.66,0,0,0,1.29-.09c.44-.07.87-.13,1.29-.21l1.22-.2a6.75,6.75,0,0,1,1-.09v.21a2.41,2.41,0,0,0-1.07.49,2.47,2.47,0,0,0-.65.8,3.35,3.35,0,0,0-.31.94,6.43,6.43,0,0,0-.08,1v9.64a4.51,4.51,0,0,0,.23,1.66,1.62,1.62,0,0,0,.57.75,2,2,0,0,0,.71.32,1.58,1.58,0,0,1,.68.32v.35c-.47,0-.86,0-1.18,0s-.59.05-.83.09a5.75,5.75,0,0,0-.69.18l-.7.24-.65.2-.31.11-.3.11-.64.23,0-.35a4.14,4.14,0,0,1,.75-.57,5.31,5.31,0,0,0,.89-.7,4.11,4.11,0,0,0-.06-.62A.87.87,0,0,0,755.07,466Z"/><path class="cls-5" d="M774.18,459c0-2.65-.26-4.3-.78-5a2.08,2.08,0,0,0-.31-.2l-.54-.31-.53-.3a1.78,1.78,0,0,1-.3-.19v-.32l1.49-.07c.45,0,.91-.08,1.37-.15h4.76l0,.3a2.75,2.75,0,0,0-1.31.61,2.87,2.87,0,0,0-.75,1,4.26,4.26,0,0,0-.34,1.22,9.81,9.81,0,0,0-.08,1.14c0,1.61,0,2.88,0,3.83s.06,1.7.11,2.28.09,1,.13,1.39.09.73.12,1.14l-1.56.71,3.48-.68a1.14,1.14,0,0,0,.37-.09,1.56,1.56,0,0,1,.44-.13l.87-.1a6.34,6.34,0,0,1,.67-.08l.57,0a6.81,6.81,0,0,0,1.32-.1,1.7,1.7,0,0,0,.95-.55h.24v0a.64.64,0,0,1-.15.24l-.31.42c-.11.15-.21.31-.31.46a.71.71,0,0,0-.15.34,2.58,2.58,0,0,0-.42.95c-.12.45-.22.9-.31,1.35s-.16.86-.23,1.21-.11.51-.15.51h-.35v-.54c0-.22,0-.44,0-.66a3.53,3.53,0,0,0-.07-.61,1.14,1.14,0,0,0-.17-.45.38.38,0,0,0-.31-.17h-.09l-1.45.15c-.45,0-.92.07-1.41.07l-.44,0-.45,0a3,3,0,0,1-.93-.21,3.85,3.85,0,0,0-1-.25,2.67,2.67,0,0,0-.69.1,3.76,3.76,0,0,1-.85.09c-.61,0-1.25,0-1.92.07a15.19,15.19,0,0,0-1.75.2v-.3c0-.07.14-.14.43-.21s.63-.18,1-.31a6.57,6.57,0,0,0,1.14-.54,1.93,1.93,0,0,0,.79-.91c0-.73.07-1.55.1-2.45s0-1.74,0-2.51Z"/><path class="cls-5" d="M789.43,455c-.07.87-.11,1.72-.13,2.55s0,1.69,0,2.56,0,1.62,0,2.43.06,1.61.13,2.43a2.37,2.37,0,0,0,.37,1.22,2.33,2.33,0,0,0,1.12.94v.18l-1.46-.1c-.48,0-1-.06-1.48-.06s-1.06,0-1.61.07l-1.61.12v-.21l.11,0,.54-.38a1.71,1.71,0,0,0,.5-.62,4.54,4.54,0,0,0,.38-1.15,9.58,9.58,0,0,0,.15-1.9c0-.51.09-1,.11-1.5s0-1,0-1.5,0-1.25,0-1.88l-.09-1.87c0-.47,0-.86,0-1.16a2.19,2.19,0,0,0-.19-.81,1.78,1.78,0,0,0-.5-.64,5.69,5.69,0,0,0-1-.63v-.3l.35,0h4.69c.33,0,.71,0,1.15-.07v.3a1.1,1.1,0,0,0-.58.23,2,2,0,0,0-.45.5,3.28,3.28,0,0,0-.32.65A2.6,2.6,0,0,0,789.43,455Zm1.76-8.31a5.77,5.77,0,0,1-3.05,4.1,2,2,0,0,1-.23-3.13A2.76,2.76,0,0,1,791.19,446.71Z"/><path class="cls-5" d="M797.08,455.67l2,5.83c.3-.77.59-1.55.86-2.32s.51-1.49.7-2.15.36-1.22.47-1.7a4.79,4.79,0,0,0,.18-1,1.69,1.69,0,0,0-.12-.68,1.27,1.27,0,0,0-.3-.43,1.08,1.08,0,0,0-.38-.23,1.89,1.89,0,0,0-.36-.09l-.05-.27h.21l1.58.09c.46,0,1,0,1.63,0h.59l.12,0,.13,0a3.44,3.44,0,0,1,.6-.05v.29a1.52,1.52,0,0,0-1.16.48,5.28,5.28,0,0,0-.9,1.33c-.21.45-.42,1-.63,1.54s-.42,1.22-.64,1.92a17.42,17.42,0,0,0-1,2.71c-.3,1.05-.56,2.13-.8,3.24s-.43,2.18-.6,3.23-.32,1.92-.45,2.64h-.32a14,14,0,0,0-.52-3.51,31.69,31.69,0,0,0-1.28-3.72c-.53-1.3-1.13-2.68-1.8-4.15s-1.35-3-2.05-4.76a1.31,1.31,0,0,0-.39-.53,2.48,2.48,0,0,0-.54-.32,3.27,3.27,0,0,0-.55-.19l-.43-.1-.06-.27c.45,0,1,0,1.72.06s1.35,0,2,0l.87,0a6,6,0,0,0,.7-.09h.71l.06,0,.19,0,.52,0v.29a1.31,1.31,0,0,0-.93.25.82.82,0,0,0-.26.62,2.68,2.68,0,0,0,.26,1C796.8,455,797,455.33,797.08,455.67Z"/><path class="cls-5" d="M815.54,466.71a2,2,0,0,0-.16.49l-.24,1c-.09.37-.19.73-.29,1.08a3.19,3.19,0,0,1-.28.77c-.2,0-.28-.07-.26-.21a2.59,2.59,0,0,0,.05-.51c0-.11,0-.27,0-.46s-.05-.4-.08-.61a2.88,2.88,0,0,0-.14-.53q-.08-.21-.21-.21h-5.24l-2.81,0-2.35,0v-.35c0-.11.15-.19.46-.24l1-.22a4,4,0,0,0,1.06-.42,1.08,1.08,0,0,0,.58-.85v-4.94c0-.05-.1-.08-.32-.08a2.62,2.62,0,0,0-.43,0l-.52.1-.43.09-.21,0,.32-1a.4.4,0,0,1,.23-.24,3.05,3.05,0,0,1,.47-.19c.18,0,.35-.1.51-.13a1.78,1.78,0,0,1,.38-.06v-2.51c0-.23,0-.48,0-.75a4.28,4.28,0,0,0-.11-.8,2.47,2.47,0,0,0-.31-.73,1.65,1.65,0,0,0-.59-.55l-.34-.2-.49-.33-.47-.31a2,2,0,0,1-.27-.19v-.32c.72.05,1.46.1,2.21.13s1.48.06,2.17.06q1.26,0,2.49-.06c.82,0,1.69-.08,2.61-.13a1.24,1.24,0,0,0,.31-.06l.39-.1a2.2,2.2,0,0,0,.34-.13.58.58,0,0,0,.2-.12l.24,0a2.71,2.71,0,0,1-.11.8,7.66,7.66,0,0,1-.25.77c-.1.25-.19.51-.28.79a3.21,3.21,0,0,0-.17.85,2.66,2.66,0,0,1-.17.56c-.1.24-.21.48-.33.71s-.22.44-.32.62-.16.27-.18.27h-.35l.35-3.1v-.24c0-.35-.14-.55-.41-.61a7.13,7.13,0,0,0-1.37-.1h-1.13a.44.44,0,0,0-.41.33,3,3,0,0,0-.2.81c0,.32-.07.67-.08,1s0,.73,0,1.05V459c0,.06.19.1.59.13s.86.05,1.4.06l1.66.08c.57,0,1,.09,1.4.14l.37.43c0,.09-.06.18-.2.26a1.85,1.85,0,0,1-.49.2c-.18.05-.39.1-.62.14a4.4,4.4,0,0,1-.58.05,1.36,1.36,0,0,1-.29,0h-.25l-.9,0c-.34,0-.71,0-1.12,0h-1v2.19c0,.27.07.6.12,1s.09.77.13,1.13.1.8.15,1.33a.31.31,0,0,0,.22.21,1.68,1.68,0,0,0,.43.12,2.78,2.78,0,0,0,.51,0h.49l.86,0a9.29,9.29,0,0,0,1.18-.15,6.45,6.45,0,0,0,1.28-.39,3.79,3.79,0,0,0,1.13-.73h.22Z"/><path class="cls-5" d="M832.63,455.89a4.87,4.87,0,0,0-.08-.93,3.6,3.6,0,0,0-.24-.86,1.86,1.86,0,0,0-.43-.62,1,1,0,0,0-.68-.24h-.11l-.21,0a2.56,2.56,0,0,0-1,.21.91.91,0,0,0-.59.79l-.43,3.67a.35.35,0,0,1-.39-.37c0-.26-.06-.54-.1-.87s-.07-.64-.09-1-.05-.54-.07-.68a4.59,4.59,0,0,0-.24-.8c-.11-.26-.22-.51-.34-.76a5.21,5.21,0,0,1-.3-.74,2.54,2.54,0,0,1-.12-.78h.19l.26.09a2,2,0,0,0,.37.12l.4.11a1,1,0,0,0,.32.05c.88.06,1.72.1,2.52.13s1.63,0,2.48,0,1.78,0,2.7,0,1.84-.08,2.78-.15a2.66,2.66,0,0,0,.74-.15,2.84,2.84,0,0,0,.58-.23l.24,0a3.44,3.44,0,0,1-.11.83c-.07.29-.15.58-.24.88l-.27.89a6,6,0,0,0-.19.85q0,.22-.12.69c-.06.32-.13.64-.19,1s-.16.73-.28,1.22H839v-1.49c0-.4,0-.82,0-1.28a9.07,9.07,0,0,0-.21-1.37.87.87,0,0,0-.19-.47,1.15,1.15,0,0,0-.4-.28,1.56,1.56,0,0,0-.48-.14l-.45,0h-.43a.85.85,0,0,0-.66.29,2,2,0,0,0-.41.71,4,4,0,0,0-.18,1c0,.35,0,.69,0,1l0,7.21a6.14,6.14,0,0,0,.16,1.53A4.51,4.51,0,0,0,836,466a3.17,3.17,0,0,0,.51.71,3.1,3.1,0,0,0,.48.41v.19l-1.56-.1c-.54,0-1.07,0-1.59,0s-1.06,0-1.6.06l-1.62.1v-.21l.5-.29a2.38,2.38,0,0,0,.64-.55,3.41,3.41,0,0,0,.56-1,5.55,5.55,0,0,0,.27-1.84Z"/><path class="cls-5" d="M838.65,461.18a10,10,0,0,1,.65-3.84,8.19,8.19,0,0,1,1.76-2.67,6.86,6.86,0,0,1,2.62-1.67,7.92,7.92,0,0,1,3-.57,3.87,3.87,0,0,1,1.8.38,5.89,5.89,0,0,1,1.65,1.05,8.33,8.33,0,0,1,1.16,1.84,7.21,7.21,0,0,1,.41,2.59,11.58,11.58,0,0,1-.22,2.7,16.33,16.33,0,0,1-.84,2.51,13.85,13.85,0,0,1-1.45,2.13A5.78,5.78,0,0,1,847,467a9.51,9.51,0,0,1-4.24.38,3,3,0,0,1-1.62-.57,2.49,2.49,0,0,1-1.26-1.16,8.44,8.44,0,0,1-1-1.83A11.66,11.66,0,0,1,838.65,461.18Zm3,.24a5.5,5.5,0,0,0,.3,1.81,4.34,4.34,0,0,0,.78,1.35,2.65,2.65,0,0,0,1.06.89,2.89,2.89,0,0,0,1.27.27,2.26,2.26,0,0,0,1.7-.7,5.6,5.6,0,0,0,1.16-1.51,15.74,15.74,0,0,0,.67-2.22c.13-1.17.19-2,.19-2.4a8.13,8.13,0,0,0,0-.84,8.71,8.71,0,0,1,0-.91c-.07-.31-.23-.89-.49-1.73a6.7,6.7,0,0,0-.78-1.35,2.17,2.17,0,0,0-1.27-.49,2.72,2.72,0,0,0-1.43.49,4.83,4.83,0,0,0-1.43,1.35,9,9,0,0,0-1.13,2.51A11.22,11.22,0,0,0,841.62,461.42Z"/><path class="cls-5" d="M864.68,470h-.24l-.22-3.45c0-.63,0-1.16,0-1.58s0-.8-.06-1.12-.06-.62-.1-.88-.07-.54-.11-.85a12,12,0,0,0,.68-1q.24-.42.48-.93l.3-.06.08,1.22a4.85,4.85,0,0,1,0,.6,9.31,9.31,0,0,1-.15,1c0,.13,0,.26,0,.41a2.62,2.62,0,0,0,0,.37l.14,2.46c0,.14,0,.31,0,.49a1.75,1.75,0,0,0,.14.51,1.25,1.25,0,0,0,.3.42.64.64,0,0,0,.48.17,4.11,4.11,0,0,0,1.62-.32,4.4,4.4,0,0,0,2.34-2.23,3.87,3.87,0,0,0,.36-1.66A2.32,2.32,0,0,0,870,462a13.55,13.55,0,0,0-1.54-1.39c-.6-.46-1.25-1-1.93-1.54a8.3,8.3,0,0,1-1.81-2.07,3.1,3.1,0,0,1-.24-.71,3.64,3.64,0,0,1-.06-.75,2.79,2.79,0,0,1,.53-1.81,3.18,3.18,0,0,1,1.34-1,6.19,6.19,0,0,1,1.76-.38l1.85-.09c.6,0,1.12,0,1.57-.08a1.34,1.34,0,0,0,.92-.35h.24c.07,0,.11.05.11.16a4.56,4.56,0,0,1-.18,1c-.11.46-.23.9-.33,1.31a4.08,4.08,0,0,0-.14.65c0,.16,0,.41-.11.75s-.1.61-.13.84-.06.37-.06.41h-.29l0-.19c0-.36-.09-.76-.15-1.19a5.55,5.55,0,0,0-.31-1.2,2.42,2.42,0,0,0-.62-.93,1.49,1.49,0,0,0-1.08-.38,2.24,2.24,0,0,0-1.43.36,1.78,1.78,0,0,0-.43,1.39,2.62,2.62,0,0,0,.48,1.53,7.46,7.46,0,0,0,1.22,1.32c.48.42,1,.84,1.56,1.26a18.28,18.28,0,0,1,1.57,1.29,7.66,7.66,0,0,1,1.22,1.43,3.1,3.1,0,0,1,.48,1.68,2.88,2.88,0,0,1-.59,1.77,6.37,6.37,0,0,1-1.5,1.36,13.14,13.14,0,0,1-2,1.07l-2.15.89c-.69.28-1.31.54-1.85.79A3.42,3.42,0,0,0,864.68,470Z"/><path class="cls-5" d="M885.42,466.71a1.78,1.78,0,0,0-.17.49l-.24,1c-.09.37-.18.73-.28,1.08a3.59,3.59,0,0,1-.29.77c-.19,0-.28-.07-.25-.21a3.77,3.77,0,0,0,0-.51c0-.11,0-.27,0-.46s0-.4-.08-.61a4.12,4.12,0,0,0-.13-.53c-.06-.14-.13-.21-.22-.21h-5.24l-2.81,0-2.35,0v-.35c0-.11.16-.19.46-.24l1-.22a4.11,4.11,0,0,0,1.07-.42,1.13,1.13,0,0,0,.58-.85v-4.94c0-.05-.11-.08-.33-.08a2.62,2.62,0,0,0-.43,0l-.51.1-.44.09-.21,0,.32-1a.43.43,0,0,1,.23-.24,3.2,3.2,0,0,1,.48-.19c.17,0,.35-.1.51-.13a1.69,1.69,0,0,1,.38-.06v-2.51c0-.23,0-.48,0-.75a3.59,3.59,0,0,0-.11-.8,2.23,2.23,0,0,0-.31-.73,1.65,1.65,0,0,0-.59-.55l-.34-.2-.48-.33c-.17-.12-.33-.22-.48-.31a2,2,0,0,1-.27-.19v-.32c.72.05,1.46.1,2.22.13s1.47.06,2.16.06c.84,0,1.68,0,2.5-.06s1.68-.08,2.6-.13a1.17,1.17,0,0,0,.31-.06l.39-.1a2.2,2.2,0,0,0,.34-.13.49.49,0,0,0,.2-.12l.25,0a3.09,3.09,0,0,1-.11.8,7.75,7.75,0,0,1-.26.77c-.1.25-.19.51-.28.79a3.19,3.19,0,0,0-.16.85,2.84,2.84,0,0,1-.18.56c-.1.24-.21.48-.32.71s-.23.44-.33.62a1.34,1.34,0,0,1-.17.27h-.35l.35-3.1v-.24c0-.35-.14-.55-.42-.61a7,7,0,0,0-1.36-.1h-1.14c-.18,0-.31.11-.4.33a3.37,3.37,0,0,0-.21.81c0,.32-.07.67-.08,1s0,.73,0,1.05V459c0,.06.2.1.59.13s.87.05,1.41.06l1.66.08c.56,0,1,.09,1.39.14l.38.43c0,.09-.07.18-.21.26a1.78,1.78,0,0,1-.48.2l-.62.14a4.69,4.69,0,0,1-.58.05,1.39,1.39,0,0,1-.3,0h-.24l-.91,0c-.33,0-.71,0-1.12,0h-1v2.19c0,.27.08.6.12,1s.09.77.14,1.13.09.8.14,1.33a.31.31,0,0,0,.22.21,1.8,1.8,0,0,0,.43.12,2.78,2.78,0,0,0,.51,0h.49l.87,0a9.15,9.15,0,0,0,1.17-.15,6.45,6.45,0,0,0,1.28-.39,4,4,0,0,0,1.14-.73h.21Z"/><path class="cls-5" d="M897.46,466.71a1.58,1.58,0,0,0-.16.49c-.08.29-.16.62-.25,1s-.18.73-.28,1.08a3.69,3.69,0,0,1-.28.77c-.2,0-.29-.07-.26-.21a2.64,2.64,0,0,0,0-.51c0-.11,0-.27,0-.46s0-.4-.08-.61a2.93,2.93,0,0,0-.13-.53c-.06-.14-.13-.21-.22-.21h-5.24l-2.81,0-2.34,0v-.35c0-.11.15-.19.46-.24l1-.22a4.11,4.11,0,0,0,1.07-.42,1.13,1.13,0,0,0,.58-.85v-4.94c0-.05-.11-.08-.33-.08a2.72,2.72,0,0,0-.43,0l-.51.1-.43.09-.22,0,.33-1a.38.38,0,0,1,.22-.24,3.69,3.69,0,0,1,.48-.19c.18,0,.35-.1.51-.13a1.69,1.69,0,0,1,.38-.06v-2.51c0-.23,0-.48,0-.75a3.58,3.58,0,0,0-.1-.8,2.77,2.77,0,0,0-.31-.73,1.77,1.77,0,0,0-.6-.55l-.34-.2-.48-.33-.47-.31a1.19,1.19,0,0,1-.27-.19v-.32c.72.05,1.45.1,2.21.13s1.48.06,2.16.06c.85,0,1.68,0,2.5-.06s1.68-.08,2.6-.13a1.17,1.17,0,0,0,.31-.06l.39-.1a2.2,2.2,0,0,0,.34-.13.49.49,0,0,0,.2-.12l.25,0a3.09,3.09,0,0,1-.11.8,7.75,7.75,0,0,1-.26.77c-.1.25-.19.51-.28.79a3.64,3.64,0,0,0-.16.85,2.84,2.84,0,0,1-.18.56c-.1.24-.2.48-.32.71s-.23.44-.33.62-.15.27-.17.27h-.35l.35-3.1v-.24c0-.35-.14-.55-.42-.61a7,7,0,0,0-1.36-.1h-1.14c-.18,0-.31.11-.4.33a3,3,0,0,0-.2.81,8.23,8.23,0,0,0-.09,1c0,.38,0,.73,0,1.05V459c0,.06.2.1.59.13s.87.05,1.41.06l1.66.08c.57,0,1,.09,1.39.14l.38.43c0,.09-.07.18-.2.26a2,2,0,0,1-.49.2l-.62.14a4.69,4.69,0,0,1-.58.05,1.39,1.39,0,0,1-.3,0h-.24l-.91,0c-.33,0-.7,0-1.12,0h-1v2.19c0,.27.08.6.12,1s.09.77.14,1.13l.15,1.33c0,.09.09.16.21.21a1.8,1.8,0,0,0,.43.12,3,3,0,0,0,.52,0h.48l.87,0a8.93,8.93,0,0,0,1.17-.15,6.45,6.45,0,0,0,1.28-.39,3.84,3.84,0,0,0,1.14-.73h.21Z"/><path class="cls-5" d="M918.72,462.45l-.31,0-.91,0c-.35,0-.76,0-1.25.08h-.84a2.69,2.69,0,0,1-.83-.11q-.71,1.45-1,2.25a4,4,0,0,0-.31,1.23.61.61,0,0,0,.12.41.77.77,0,0,0,.34.2,3.19,3.19,0,0,0,.51.12c.2,0,.43.09.68.16v.36c-.56,0-1.06,0-1.5,0l-1.27.08-1.24.08c-.42,0-.89,0-1.39,0h-1l0-.38a5.25,5.25,0,0,0,1.3-.34,3.57,3.57,0,0,0,1-.63,5.2,5.2,0,0,0,.89-1c.28-.42.58-.94.91-1.55s.39-1.07.48-1.38c0,0,0,0,0,0h-.07a1.24,1.24,0,0,1-.42-.12,1.6,1.6,0,0,1-.58-.5l-.54-.83h.11a2.88,2.88,0,0,1,.36,0l.56.06.58.05.47,0c.18,0,.39-.25.63-.76a18.92,18.92,0,0,0,.75-1.81l.78-2.17a18.67,18.67,0,0,1,.78-1.88.88.88,0,0,0,.06-.21.57.57,0,0,0-.22-.41,2.86,2.86,0,0,0-.53-.35,4.59,4.59,0,0,0-.64-.28l-.56-.21v-.27c0-.09.17-.13.49-.13a6.53,6.53,0,0,1,.73,0c.27,0,.53.06.78.11l.86.15a3.23,3.23,0,0,0,.46-.07l.77-.16c.3-.07.63-.12,1-.17a11,11,0,0,1,1.18-.06v.16a1.07,1.07,0,0,0-.69.63,2.73,2.73,0,0,0-.23,1.12v.22a1.12,1.12,0,0,0,0,.22c0,.3.1.68.19,1.14s.19,1,.32,1.49.26,1.09.4,1.69.3,1.18.46,1.75a1.24,1.24,0,0,1,.27,0h.3a5.32,5.32,0,0,1,.78.06,3.64,3.64,0,0,1,.79.19l0,.32h-.19c-.32,0-.62.08-.89.14a1.61,1.61,0,0,0-.76.4.27.27,0,0,0-.08.16.57.57,0,0,0,0,.18.49.49,0,0,1,0,.15,1.2,1.2,0,0,0,.27.73,1.59,1.59,0,0,1,.32.64,1.45,1.45,0,0,0,.12.42,4,4,0,0,1,.19.46,3.88,3.88,0,0,1,.16.57,3.21,3.21,0,0,1,.07.74,8.53,8.53,0,0,1,0,.89,5.33,5.33,0,0,0-.06.7,9.29,9.29,0,0,0,.07,1.25c0,.36.09.82.12,1.4l-.38,0A14.36,14.36,0,0,0,921.2,468a4.34,4.34,0,0,1-.74-1.2,3.3,3.3,0,0,1-.38-.83c-.09-.29-.18-.62-.27-1s-.19-.73-.31-1.13a8.29,8.29,0,0,0-.52-1.34A.82.82,0,0,0,918.72,462.45Zm-3.33-1.57a2.46,2.46,0,0,0,1.05.24l1.13,0,.41,0h.29a.51.51,0,0,0,.26,0c.05,0,.07-.11.07-.26a6.06,6.06,0,0,0-.15-1.08c-.1-.48-.22-1-.35-1.55s-.28-1.07-.42-1.57-.25-.87-.32-1.14a1.38,1.38,0,0,1-.06-.19l-2,5.26Z"/><path class="cls-5" d="M923.57,452.52c.41.05.82.08,1.24.1l5.4-.19v.24a2.3,2.3,0,0,0-1,.23.85.85,0,0,0-.48.83,2.55,2.55,0,0,0,.26,1,10.82,10.82,0,0,0,.67,1.2c.28.42.59.85.94,1.28s.68.85,1,1.24.66.76.95,1.08l.7.81h.19v-3.7c0-.75,0-1.57,0-2.44s0-1.71.11-2.5a19.84,19.84,0,0,1,.28-2.15,3.57,3.57,0,0,1,.52-1.39h.27a10.12,10.12,0,0,0-.06,1.06v.86c0,.42,0,.81,0,1.19s0,.79.07,1.23.05.95.09,1.54.07,1.29.1,2.12,0,1.81.06,3,0,2.52,0,4.1c0,.86,0,1.68-.05,2.44s-.06,1.52-.06,2.26c0,.36,0,.71,0,1.07s0,.69.08,1l-.35,0c-.16,0-.3-.18-.42-.55a11.14,11.14,0,0,1-.32-1.24c-.1-.46-.19-.9-.27-1.31a1.43,1.43,0,0,0-.29-.76,20.92,20.92,0,0,0-1.62-2.39c-.59-.76-1.2-1.52-1.82-2.25L928,459.34c-.61-.74-1.19-1.5-1.73-2.29h-.24v7.07a2.73,2.73,0,0,0,.23,1.16,2.12,2.12,0,0,0,.63.81,3.17,3.17,0,0,0,.94.52,4.94,4.94,0,0,0,1.12.24l0,.32a5.82,5.82,0,0,0-.81-.05h-5.13a4.91,4.91,0,0,0-.73.05v-.32c0-.07.13-.15.38-.23a4.41,4.41,0,0,0,.85-.39,2.9,2.9,0,0,0,.85-.76,2.15,2.15,0,0,0,.38-1.35v-9.21a2.34,2.34,0,0,0-.38-1.08,1.72,1.72,0,0,0-.78-.67,3.56,3.56,0,0,0-.81-.28,1.17,1.17,0,0,1-.51-.21v-.27Z"/><path class="cls-5" d="M935.69,461.18a9.81,9.81,0,0,1,.65-3.84,8.18,8.18,0,0,1,1.75-2.67,7,7,0,0,1,2.62-1.67,8,8,0,0,1,3-.57,3.94,3.94,0,0,1,1.81.38,5.89,5.89,0,0,1,1.65,1.05,8.72,8.72,0,0,1,1.16,1.84,7.23,7.23,0,0,1,.4,2.59,12.32,12.32,0,0,1-.21,2.7,17.49,17.49,0,0,1-.84,2.51,13.93,13.93,0,0,1-1.46,2.13,5.82,5.82,0,0,1-2.13,1.35,9.52,9.52,0,0,1-4.24.38,3,3,0,0,1-1.62-.57,2.52,2.52,0,0,1-1.27-1.16,8.31,8.31,0,0,1-1-1.83A11.66,11.66,0,0,1,935.69,461.18Zm3,.24a5.5,5.5,0,0,0,.3,1.81,4.34,4.34,0,0,0,.78,1.35,2.56,2.56,0,0,0,1,.89,2.92,2.92,0,0,0,1.27.27,2.26,2.26,0,0,0,1.7-.7,5.23,5.23,0,0,0,1.16-1.51,14.25,14.25,0,0,0,.68-2.22c.12-1.17.19-2,.19-2.4,0-.27,0-.55,0-.84a8.71,8.71,0,0,1,0-.91c-.08-.31-.24-.89-.49-1.73a7.81,7.81,0,0,0-.78-1.35,2.19,2.19,0,0,0-1.27-.49,2.72,2.72,0,0,0-1.43.49,4.71,4.71,0,0,0-1.43,1.35,8.78,8.78,0,0,0-1.14,2.51A11.53,11.53,0,0,0,938.66,461.42Z"/><path class="cls-5" d="M952.32,455.89a5.84,5.84,0,0,0-.08-.93,4.14,4.14,0,0,0-.24-.86,1.88,1.88,0,0,0-.44-.62,1,1,0,0,0-.67-.24h-.11l-.21,0a2.52,2.52,0,0,0-1,.21.91.91,0,0,0-.59.79l-.44,3.67a.36.36,0,0,1-.39-.37c0-.26-.06-.54-.09-.87s-.07-.64-.1-1,0-.54-.06-.68a4.63,4.63,0,0,0-.25-.8c-.1-.26-.22-.51-.33-.76a5.21,5.21,0,0,1-.3-.74,2.54,2.54,0,0,1-.12-.78h.19l.25.09a2.4,2.4,0,0,0,.38.12l.39.11a1.1,1.1,0,0,0,.33.05c.88.06,1.72.1,2.52.13s1.63,0,2.48,0,1.78,0,2.69,0,1.84-.08,2.78-.15a2.71,2.71,0,0,0,.75-.15,3.13,3.13,0,0,0,.58-.23l.24,0a3.44,3.44,0,0,1-.11.83c-.07.29-.15.58-.24.88l-.27.89a4.87,4.87,0,0,0-.19.85q0,.22-.12.69c-.07.32-.13.64-.19,1s-.16.73-.28,1.22h-.44v-1.49c0-.4,0-.82-.05-1.28a9.09,9.09,0,0,0-.22-1.37.8.8,0,0,0-.19-.47,1,1,0,0,0-.39-.28,1.56,1.56,0,0,0-.48-.14l-.45,0h-.43a.85.85,0,0,0-.66.29,2,2,0,0,0-.41.71,4,4,0,0,0-.19,1c0,.35,0,.69,0,1l0,7.21a6.14,6.14,0,0,0,.16,1.53,5,5,0,0,0,.4,1.08,3.18,3.18,0,0,0,.52.71,3.1,3.1,0,0,0,.48.41v.19l-1.56-.1c-.54,0-1.08,0-1.6,0s-1,0-1.59.06l-1.62.1v-.21l.5-.29a2.22,2.22,0,0,0,.63-.55,3.21,3.21,0,0,0,.57-1,6.13,6.13,0,0,0,.27-1.84Z"/><path class="cls-5" d="M969,465l0-2.64a1.49,1.49,0,0,0,0-.46c0-.07-.06-.11-.1-.11a.42.42,0,0,0-.24.11l-.26.23-.22.23c-.08.07-.13.1-.17.1a.38.38,0,0,1-.19.06.22.22,0,0,1-.18-.06,5.87,5.87,0,0,0-1.44-1.1,9.59,9.59,0,0,0-1.35-.62l-.62-.26a5.47,5.47,0,0,0-.56-.2V465a1.52,1.52,0,0,0,.16.66,3.2,3.2,0,0,0,.4.63,3.87,3.87,0,0,0,.53.54,2.65,2.65,0,0,0,.53.38v.22q-.81-.06-1.62-.15a14.93,14.93,0,0,0-1.65-.09,14.44,14.44,0,0,0-1.63.09c-.54.06-1.09.11-1.66.15v-.22l.18-.08a2.57,2.57,0,0,0,.57-.34,2.23,2.23,0,0,0,.61-.67,4,4,0,0,0,.47-1.18,7.33,7.33,0,0,0,.19-1.86V460a5.21,5.21,0,0,0-.72.06c-.27,0-.62.1-1,.19V460a.94.94,0,0,1,.36-.24l.51-.22a4.35,4.35,0,0,1,.51-.17l.38-.12v-1.92c0-.5,0-1,0-1.42a4.79,4.79,0,0,0-.24-1.23,3.22,3.22,0,0,0-.61-1,3.82,3.82,0,0,0-1.13-.84v-.3a1.65,1.65,0,0,0,.32,0l.32,0H960l1.38,0,1.12,0,1.06,0,1.22-.06.46,0v.37a1.34,1.34,0,0,0-.67.23,2.28,2.28,0,0,0-.48.5,3.38,3.38,0,0,0-.33.62,2.14,2.14,0,0,0-.14.6v4.21a.37.37,0,0,0,.12.31l.17.12a1.78,1.78,0,0,1,.89.22c.27.05.51.11.71.16l.58.16a2.8,2.8,0,0,0,.56.12,4.33,4.33,0,0,0,.66,0,4.88,4.88,0,0,0,.53,0,3,3,0,0,0,.54-.11,1.11,1.11,0,0,0,.43-.23.45.45,0,0,0,.18-.36v-4.41a3.05,3.05,0,0,0-.15-.62,2.74,2.74,0,0,0-.32-.64,2.28,2.28,0,0,0-.5-.53,1.29,1.29,0,0,0-.68-.26v-.38c.6.09,1.14.16,1.64.21s1,.06,1.47.06,1.11,0,1.67-.06,1.16-.12,1.81-.21v.3a3.7,3.7,0,0,0-1.13.84,3,3,0,0,0-.61,1,4.07,4.07,0,0,0-.24,1.23c0,.44,0,.92,0,1.42V463a7,7,0,0,0,.2,1.89,4.24,4.24,0,0,0,.48,1.18,2.31,2.31,0,0,0,.61.66,4.46,4.46,0,0,0,.57.32l.16.08v.22a4.09,4.09,0,0,0-.92-.08c-.5,0-1.09,0-1.75.09s-1.38.1-2.14.1l-.87,0-.91-.08v-.22a4.16,4.16,0,0,0,.53-.36,3.27,3.27,0,0,0,.52-.53,3,3,0,0,0,.41-.62A1.42,1.42,0,0,0,969,465Z"/><path class="cls-5" d="M985.53,466.71a1.58,1.58,0,0,0-.16.49c-.08.29-.16.62-.25,1s-.18.73-.28,1.08a3.69,3.69,0,0,1-.28.77c-.2,0-.29-.07-.26-.21a2.64,2.64,0,0,0,0-.51c0-.11,0-.27,0-.46a4.44,4.44,0,0,0-.08-.61,2.93,2.93,0,0,0-.13-.53c-.06-.14-.13-.21-.22-.21h-5.24l-2.8,0-2.35,0v-.35c0-.11.15-.19.46-.24l1-.22a4,4,0,0,0,1.07-.42,1.11,1.11,0,0,0,.58-.85v-4.94c0-.05-.11-.08-.33-.08a2.72,2.72,0,0,0-.43,0l-.51.1-.43.09-.22,0,.33-1c0-.08.09-.17.23-.24a3.05,3.05,0,0,1,.47-.19c.18,0,.35-.1.51-.13a1.69,1.69,0,0,1,.38-.06v-2.51c0-.23,0-.48,0-.75a4.28,4.28,0,0,0-.11-.8,2.77,2.77,0,0,0-.31-.73,1.77,1.77,0,0,0-.6-.55l-.33-.2-.49-.33-.47-.31a1.19,1.19,0,0,1-.27-.19v-.32c.72.05,1.46.1,2.21.13s1.48.06,2.16.06c.85,0,1.68,0,2.5-.06s1.69-.08,2.6-.13a1.1,1.1,0,0,0,.31-.06l.4-.1a2.52,2.52,0,0,0,.33-.13.64.64,0,0,0,.21-.12l.24,0a3.09,3.09,0,0,1-.11.8c-.07.26-.16.51-.25.77s-.2.51-.29.79a3.64,3.64,0,0,0-.16.85,2.84,2.84,0,0,1-.18.56c-.1.24-.2.48-.32.71l-.32.62q-.15.27-.18.27h-.35l.35-3.1v-.24c0-.35-.14-.55-.42-.61a7,7,0,0,0-1.36-.1h-1.14c-.18,0-.31.11-.4.33a3,3,0,0,0-.2.81,6.79,6.79,0,0,0-.08,1c0,.38,0,.73,0,1.05V459c0,.06.2.1.6.13s.86.05,1.4.06l1.66.08c.57,0,1,.09,1.39.14l.38.43c0,.09-.07.18-.2.26a2,2,0,0,1-.49.2l-.62.14a4.69,4.69,0,0,1-.58.05,1.39,1.39,0,0,1-.3,0h-.24l-.9,0c-.34,0-.71,0-1.13,0h-1v2.19c0,.27.08.6.12,1s.09.77.14,1.13l.15,1.33a.31.31,0,0,0,.21.21,1.76,1.76,0,0,0,.44.12,2.78,2.78,0,0,0,.51,0h.48l.87,0a8.93,8.93,0,0,0,1.17-.15,6.54,6.54,0,0,0,1.29-.39,3.79,3.79,0,0,0,1.13-.73h.22Z"/><path class="cls-5" d="M992.58,467.52c-.53,0-1.06-.09-1.6-.1l-1.59,0-1.66,0c-.57,0-1.12.05-1.66.1v-.21a6.25,6.25,0,0,1,.55-.3,1.9,1.9,0,0,0,.66-.57,3.54,3.54,0,0,0,.56-1.12,6.83,6.83,0,0,0,.23-2v-3a1,1,0,0,1-.31-.09,4,4,0,0,1-.46-.23,3.58,3.58,0,0,1-.43-.29.73.73,0,0,1-.26-.28v-.3a3.26,3.26,0,0,1,.65.18,2.23,2.23,0,0,0,.81.12V453.7a1.67,1.67,0,0,0-.19-.78,3,3,0,0,0-.47-.64,3.62,3.62,0,0,0-.65-.5c-.25-.14-.47-.27-.69-.38v-.32l.32,0h1c.55,0,1,0,1.45,0L990,451l1.15-.08,1.36-.09v.43a1.36,1.36,0,0,0-1,.58,3.17,3.17,0,0,0-.51,1.09v1.49a6.24,6.24,0,0,1,.66-.87,4.44,4.44,0,0,1,1-.77,5.94,5.94,0,0,1,1.34-.55,6.82,6.82,0,0,1,1.79-.21,4.09,4.09,0,0,1,1.19.18,3.47,3.47,0,0,1,1.08.56,3.1,3.1,0,0,1,.8.89,2.32,2.32,0,0,1,.31,1.17,1.91,1.91,0,0,1-.52,1.26,12.18,12.18,0,0,1-1.12,1.16l-1.12,1a1.25,1.25,0,0,0-.51.85l3.89,7.83a3.56,3.56,0,0,0,.36,1.48,13.45,13.45,0,0,0,.8,1.46l0,.27a2.38,2.38,0,0,1-1.26-.65,10.65,10.65,0,0,1-1.35-1.4c-.44-.54-.86-1.1-1.27-1.66l-1-1.42-.12-.15-.27-.35c-.14-.17-.34-.42-.6-.76L994,462.39a1.91,1.91,0,0,1-.34-.42c-.13-.2-.27-.43-.4-.67s-.26-.47-.38-.69a3.79,3.79,0,0,0-.26-.43l-1.59.16v4.86a1.35,1.35,0,0,0,.16.64,3.69,3.69,0,0,0,.41.59,4.09,4.09,0,0,0,.51.51,3.31,3.31,0,0,0,.49.37ZM991,459.1a3.57,3.57,0,0,0,1.7-.46,7.27,7.27,0,0,0,1.55-1.11,5.8,5.8,0,0,0,1.12-1.39,2.67,2.67,0,0,0,.44-1.31,1,1,0,0,0-.18-.6,1.33,1.33,0,0,0-.46-.42,1.85,1.85,0,0,0-.62-.23,3,3,0,0,0-.66-.07,5,5,0,0,0-1.63.27,2.31,2.31,0,0,0-1.26,1Z"/><path class="cls-5" d="M712.51,484.92c.42.05.83.08,1.24.1l5.41-.19v.24a2.35,2.35,0,0,0-1,.23.85.85,0,0,0-.47.83,2.36,2.36,0,0,0,.26,1,9.41,9.41,0,0,0,.67,1.2c.28.42.59.85.93,1.28s.69.85,1,1.24l.94,1.08.71.81h.18V489c0-.75,0-1.57,0-2.44s0-1.71.11-2.5a17.19,17.19,0,0,1,.28-2.14,3.75,3.75,0,0,1,.51-1.4h.27c0,.38-.05.73-.05,1.06v.86c0,.42,0,.81,0,1.19s0,.79.06,1.23.06,1,.1,1.54.07,1.29.09,2.12.05,1.82.07,3,0,2.52,0,4.1c0,.86,0,1.68-.06,2.44s-.05,1.52-.05,2.26c0,.36,0,.71,0,1.07s0,.69.08,1l-.35,0c-.17,0-.31-.18-.42-.55s-.23-.78-.33-1.24-.19-.9-.27-1.31a1.45,1.45,0,0,0-.28-.76,23.89,23.89,0,0,0-1.62-2.39c-.59-.76-1.2-1.51-1.82-2.25L717,491.74c-.61-.74-1.19-1.5-1.73-2.29H715v7.07a2.58,2.58,0,0,0,.23,1.16,2.12,2.12,0,0,0,.63.81,3.24,3.24,0,0,0,.93.52,5.06,5.06,0,0,0,1.12.24l0,.32a6,6,0,0,0-.81-.05H712a4.91,4.91,0,0,0-.73.05v-.32c0-.07.13-.15.38-.23a4.7,4.7,0,0,0,.85-.39,2.88,2.88,0,0,0,.85-.76,2.15,2.15,0,0,0,.38-1.35v-9.21a2.34,2.34,0,0,0-.38-1.08,1.83,1.83,0,0,0-.78-.67,3.56,3.56,0,0,0-.81-.28,1.21,1.21,0,0,1-.52-.21v-.27Z"/><path class="cls-5" d="M729.79,487.42c-.07.87-.11,1.72-.13,2.55s0,1.69,0,2.56,0,1.62,0,2.43.06,1.62.13,2.43a2.4,2.4,0,0,0,1.49,2.16v.18l-1.46-.1c-.49,0-1-.06-1.49-.06s-1.05,0-1.6.07l-1.61.12v-.21l.11,0,.54-.38a1.71,1.71,0,0,0,.5-.62,4.54,4.54,0,0,0,.38-1.15,9.58,9.58,0,0,0,.15-1.9c.05-.51.09-1,.1-1.5s0-1,0-1.5,0-1.25,0-1.88l-.09-1.87c0-.47,0-.86,0-1.16a2.19,2.19,0,0,0-.19-.81,1.78,1.78,0,0,0-.5-.64,5.69,5.69,0,0,0-1-.63v-.3l.35,0,.6,0h3.07l1,0c.33,0,.71,0,1.14-.07v.3a1.17,1.17,0,0,0-.58.23,1.93,1.93,0,0,0-.44.5,2.81,2.81,0,0,0-.32.65A2.17,2.17,0,0,0,729.79,487.42Zm1.76-8.31a5.79,5.79,0,0,1-3,4.1,2,2,0,0,1-.23-3.13A2.76,2.76,0,0,1,731.55,479.11Z"/><path class="cls-5" d="M742.32,488.5a10.16,10.16,0,0,0-.07-1.39,1.65,1.65,0,0,0-.25-.75.89.89,0,0,0-.54-.33,5.56,5.56,0,0,0-.92-.07c-.18,0-.41,0-.69,0a7.88,7.88,0,0,0-.89.15,9.47,9.47,0,0,0-1,.29,3.32,3.32,0,0,0-.86.44,5,5,0,0,0-.91.93,5.68,5.68,0,0,0-.73,1.37,9.53,9.53,0,0,0-.48,1.93,17,17,0,0,0-.18,2.66,7.26,7.26,0,0,0,.39,2.36,4.65,4.65,0,0,0,1.18,1.9c.12.09.25.19.36.29a2.78,2.78,0,0,0,.42.28,2.53,2.53,0,0,0,.61.22,4.65,4.65,0,0,0,.93.08,3.31,3.31,0,0,0,1.58-.29,1.48,1.48,0,0,0,.61-1.17V495a1.91,1.91,0,0,0-.26-1,2.45,2.45,0,0,0-.7-.74,3.46,3.46,0,0,0-1-.47,4.16,4.16,0,0,0-1.16-.16,3.68,3.68,0,0,0-.53,0,3.35,3.35,0,0,0-.72.17v-.21a2.47,2.47,0,0,1,.49-.25c.2-.07.41-.13.65-.19s.46-.09.69-.12.43,0,.63,0a3.93,3.93,0,0,1,1.49.26,6.61,6.61,0,0,0,1.4.39c.14,0,.47-.1,1-.24a6.23,6.23,0,0,1,1.76-.22v.19a.81.81,0,0,0-.58.46,1.8,1.8,0,0,0-.21.89v3.73a1.89,1.89,0,0,1-.2.85,3.68,3.68,0,0,1-.55.82.56.56,0,0,0-.33.12l-.59.53a2.66,2.66,0,0,1-.61.44,1.61,1.61,0,0,1-.82.21H740a1.23,1.23,0,0,1-.27,0h-.92a18.78,18.78,0,0,1-1.93-.1,8.67,8.67,0,0,1-2-.49,5.77,5.77,0,0,1-1.12-.61,3.86,3.86,0,0,1-.93-.92,4.45,4.45,0,0,1-.64-1.29,6.06,6.06,0,0,1-.23-1.74v-2.14c0-.63,0-1.25.08-1.87a11.77,11.77,0,0,1,.33-1.85,9.24,9.24,0,0,1,.7-1.84,9.39,9.39,0,0,1,1.24-1.83,2.26,2.26,0,0,1,1.27-.72,8,8,0,0,1,1.73-.18h1.11c.68,0,1.36,0,2.05.06s1.31.05,1.89.05a2.5,2.5,0,0,0,.71-.13,2.22,2.22,0,0,0,.61-.25l.22,0a5.51,5.51,0,0,1-.31,1.74,8.7,8.7,0,0,0-.42,1.77c0,.15-.06.32-.11.53s-.11.4-.17.59-.12.36-.17.5-.07.22-.09.22h-.3Z"/><path class="cls-5" d="M755.47,497.41l0-2.64a1.91,1.91,0,0,0,0-.46c0-.07-.06-.11-.1-.11a.42.42,0,0,0-.24.11l-.26.23-.23.23c-.07.07-.12.11-.16.11a.49.49,0,0,1-.19.05.31.31,0,0,1-.19-.05,5.64,5.64,0,0,0-1.43-1.11,9.59,9.59,0,0,0-1.35-.62l-.62-.26a5.61,5.61,0,0,0-.57-.2v4.67a1.54,1.54,0,0,0,.17.66,2.59,2.59,0,0,0,.4.63,3.87,3.87,0,0,0,.53.54,2.94,2.94,0,0,0,.52.38v.22l-1.62-.15a14.88,14.88,0,0,0-1.64-.09,14.62,14.62,0,0,0-1.64.09c-.53.06-1.08.11-1.66.15v-.22a1,1,0,0,0,.19-.08,3.12,3.12,0,0,0,.57-.34,2.37,2.37,0,0,0,.61-.67,4.25,4.25,0,0,0,.47-1.18,7.82,7.82,0,0,0,.19-1.86v-3.08a5.21,5.21,0,0,0-.72.06c-.28,0-.62.1-1,.19v-.25a.89.89,0,0,1,.35-.24l.52-.22a4.35,4.35,0,0,1,.51-.17l.38-.12v-1.92c0-.5,0-1,0-1.42a4.41,4.41,0,0,0-.25-1.23,3.12,3.12,0,0,0-.6-1,3.75,3.75,0,0,0-1.14-.84v-.3a1.86,1.86,0,0,0,.33,0l.32,0h.68l1.37,0,1.12,0,1.07,0,1.21-.06.46,0v.37a1.34,1.34,0,0,0-.66.23,2.07,2.07,0,0,0-.48.5,2.86,2.86,0,0,0-.33.62,2.63,2.63,0,0,0-.15.6v4.21a.34.34,0,0,0,.13.31l.17.12a1.81,1.81,0,0,1,.89.22c.27.05.51.11.7.16l.58.16a2.9,2.9,0,0,0,.57.12,4.33,4.33,0,0,0,.66,0,5,5,0,0,0,.53,0,3,3,0,0,0,.54-.11,1.18,1.18,0,0,0,.43-.23.45.45,0,0,0,.18-.36v-4.41a3.05,3.05,0,0,0-.15-.62,2.43,2.43,0,0,0-.33-.64,2.09,2.09,0,0,0-.5-.53,1.23,1.23,0,0,0-.67-.26v-.38c.59.09,1.14.16,1.63.21s1,.06,1.48.06,1.11,0,1.67-.06,1.16-.12,1.81-.21v.3a3.75,3.75,0,0,0-1.14.84,3.12,3.12,0,0,0-.6,1,4.41,4.41,0,0,0-.25,1.23c0,.44,0,.92,0,1.42v5.75a6.94,6.94,0,0,0,.21,1.89,4.24,4.24,0,0,0,.48,1.18,2.31,2.31,0,0,0,.61.66,3.42,3.42,0,0,0,.57.32l.16.08v.22a4.09,4.09,0,0,0-.92-.08c-.5,0-1.09,0-1.76.09a20.3,20.3,0,0,1-2.13.1l-.88,0c-.29,0-.59,0-.9-.08v-.22a4.16,4.16,0,0,0,.53-.36,3.27,3.27,0,0,0,.52-.53,3.5,3.5,0,0,0,.41-.62A1.42,1.42,0,0,0,755.47,497.41Z"/><path class="cls-5" d="M764.27,488.29a5.84,5.84,0,0,0-.08-.93,4.14,4.14,0,0,0-.24-.86,1.88,1.88,0,0,0-.44-.62,1,1,0,0,0-.67-.24h-.11l-.21,0a2.52,2.52,0,0,0-.95.21.91.91,0,0,0-.59.79l-.44,3.67a.36.36,0,0,1-.39-.37c0-.26-.06-.54-.09-.87s-.07-.64-.1-1,0-.54-.06-.68a4.63,4.63,0,0,0-.25-.8c-.1-.26-.22-.51-.33-.76a5.21,5.21,0,0,1-.3-.74,2.54,2.54,0,0,1-.12-.78h.19l.25.09a2.4,2.4,0,0,0,.38.12l.39.11a1.16,1.16,0,0,0,.33.06l2.52.12c.8,0,1.63,0,2.48,0s1.78,0,2.69,0,1.84-.08,2.78-.15a2.71,2.71,0,0,0,.75-.15,3.13,3.13,0,0,0,.58-.23l.24,0a3.44,3.44,0,0,1-.11.83c-.07.29-.15.59-.24.88l-.27.89a6,6,0,0,0-.19.85q0,.23-.12.69c-.07.32-.13.64-.19,1s-.16.73-.28,1.22h-.44v-1.49c0-.4,0-.82,0-1.28a9.3,9.3,0,0,0-.22-1.37.8.8,0,0,0-.19-.47,1.15,1.15,0,0,0-.39-.28,1.56,1.56,0,0,0-.48-.14l-.45,0h-.43a.85.85,0,0,0-.66.29,2.14,2.14,0,0,0-.41.71,4,4,0,0,0-.19,1c0,.35,0,.69,0,1l0,7.21a6.14,6.14,0,0,0,.16,1.53,5,5,0,0,0,.4,1.08,3,3,0,0,0,.52.71,3.1,3.1,0,0,0,.48.41v.19l-1.56-.1c-.54,0-1.07,0-1.6,0s-1,0-1.59.06l-1.62.1v-.21l.5-.28a2.44,2.44,0,0,0,.63-.56,3.21,3.21,0,0,0,.57-1.05,6.13,6.13,0,0,0,.27-1.84Z"/><path class="cls-5" d="M770.62,500.19a5.75,5.75,0,0,1,2.94-4,2,2,0,0,1,.24,3.05A2.63,2.63,0,0,1,770.62,500.19Z"/><path class="cls-5" d="M775.12,500.19a5.74,5.74,0,0,1,3-4,2,2,0,0,1,.24,3.05A2.64,2.64,0,0,1,775.12,500.19Z"/><path class="cls-5" d="M779.63,500.19a5.74,5.74,0,0,1,3-4,2,2,0,0,1,.24,3.05A2.64,2.64,0,0,1,779.63,500.19Z"/><path class="cls-5" d="M784.14,500.19a5.75,5.75,0,0,1,2.94-4,2,2,0,0,1,.25,3.05A2.64,2.64,0,0,1,784.14,500.19Z"/><path class="cls-5" d="M802.37,499.3v.43l-2.76-.21-.24,0h-.68a14.13,14.13,0,0,0-1.9.12,12.24,12.24,0,0,1-1.66.12H795v-.35c0-.1.1-.18.32-.21a5.79,5.79,0,0,0,.74-.19,2.85,2.85,0,0,0,.78-.39,1.12,1.12,0,0,0,.45-.83v-4.94c0-.05-.11-.08-.32-.08a2.73,2.73,0,0,0-.44,0l-.51.1-.43.09-.22,0,.33-1c0-.08.09-.15.23-.23a1.78,1.78,0,0,1,.46-.21l.51-.13a1.85,1.85,0,0,1,.39-.06v-2.51c0-.23,0-.48,0-.75a4.28,4.28,0,0,0-.11-.8,2.47,2.47,0,0,0-.31-.73,1.68,1.68,0,0,0-.6-.55l-.32-.2-.5-.31-.47-.31a1.36,1.36,0,0,1-.27-.21v-.32c.72.05,1.46.1,2.21.13s1.48.06,2.16.06c.87,0,1.7,0,2.51-.06s1.68-.08,2.59-.13a1.23,1.23,0,0,0,.32-.06l.39-.1a2.06,2.06,0,0,0,.33-.13.64.64,0,0,0,.21-.12l.24,0a2.72,2.72,0,0,1-.12.8c-.08.26-.17.52-.26.78l-.27.8a3.39,3.39,0,0,0-.16.83,2.84,2.84,0,0,1-.18.56,6.43,6.43,0,0,1-.32.71c-.12.24-.22.44-.32.62s-.16.27-.18.27h-.35l.35-3.1v-.24c0-.35-.14-.55-.42-.61a7,7,0,0,0-1.36-.1h-1.14c-.18,0-.31.11-.4.33a3,3,0,0,0-.2.81,8.31,8.31,0,0,0-.08,1.05c0,.38,0,.73,0,1.05v2.51c0,.06.2.1.6.13l1.4.08,1.66.08a13.37,13.37,0,0,1,1.39.12l.38.43c0,.09-.07.18-.2.26a2,2,0,0,1-.49.2c-.19,0-.39.1-.62.14a4.54,4.54,0,0,1-.58.05,1,1,0,0,1-.3,0h-.24l-.9,0c-.34,0-.71,0-1.12,0h-1v4.65a1.39,1.39,0,0,0,.23.77,2.8,2.8,0,0,0,.56.58,2.34,2.34,0,0,0,.68.36A2.21,2.21,0,0,0,802.37,499.3Z"/><path class="cls-5" d="M805.39,493.58a10,10,0,0,1,.65-3.84,8.29,8.29,0,0,1,1.75-2.67,7,7,0,0,1,2.62-1.67,8,8,0,0,1,3-.57,3.91,3.91,0,0,1,1.81.38,5.89,5.89,0,0,1,1.65,1.05A8.72,8.72,0,0,1,818,488.1a7.23,7.23,0,0,1,.4,2.59,12.32,12.32,0,0,1-.21,2.7,16.33,16.33,0,0,1-.84,2.51,13.25,13.25,0,0,1-1.46,2.13,5.74,5.74,0,0,1-2.13,1.35,9.52,9.52,0,0,1-4.24.38,3,3,0,0,1-1.62-.57,2.52,2.52,0,0,1-1.27-1.16,8.31,8.31,0,0,1-1-1.83A11.66,11.66,0,0,1,805.39,493.58Zm3,.24a5.5,5.5,0,0,0,.3,1.81,4.34,4.34,0,0,0,.78,1.35,2.49,2.49,0,0,0,1,.89,2.92,2.92,0,0,0,1.27.27,2.24,2.24,0,0,0,1.7-.7,5.23,5.23,0,0,0,1.16-1.51,14.25,14.25,0,0,0,.68-2.22c.12-1.17.19-2,.19-2.4,0-.27,0-.55,0-.84a8.71,8.71,0,0,1,0-.91c-.08-.31-.24-.89-.49-1.73a7.81,7.81,0,0,0-.78-1.35,2.19,2.19,0,0,0-1.27-.49,2.72,2.72,0,0,0-1.43.49,4.71,4.71,0,0,0-1.43,1.35,9.06,9.06,0,0,0-1.14,2.51A11.53,11.53,0,0,0,808.36,493.82Z"/><path class="cls-5" d="M824.8,499.92c-.52-.05-1-.09-1.59-.1l-1.59,0-1.66,0c-.57,0-1.12.05-1.66.1v-.21a5.07,5.07,0,0,1,.55-.3,2.1,2.1,0,0,0,.66-.57,3.34,3.34,0,0,0,.55-1.12,6.49,6.49,0,0,0,.23-2v-3a1.19,1.19,0,0,1-.31-.09l-.46-.23c-.15-.09-.29-.19-.43-.29a.63.63,0,0,1-.25-.28v-.3a3,3,0,0,1,.64.18,2.23,2.23,0,0,0,.81.12V486.1a1.55,1.55,0,0,0-.19-.78,2.46,2.46,0,0,0-.47-.64,3.29,3.29,0,0,0-.65-.5l-.68-.38v-.32a1.66,1.66,0,0,0,.32,0h1c.56,0,1,0,1.46,0l1.19-.07,1.15-.08,1.36-.09v.43a1.33,1.33,0,0,0-1,.58,3.17,3.17,0,0,0-.51,1.09v1.49a6.24,6.24,0,0,1,.66-.87,4.13,4.13,0,0,1,1-.76,5.6,5.6,0,0,1,1.33-.56,6.9,6.9,0,0,1,1.8-.21,4.14,4.14,0,0,1,1.19.18,3.7,3.7,0,0,1,1.08.56,2.93,2.93,0,0,1,.79.89,2.23,2.23,0,0,1,.31,1.17,1.94,1.94,0,0,1-.51,1.26,12.18,12.18,0,0,1-1.12,1.16l-1.12,1a1.25,1.25,0,0,0-.51.85l3.89,7.83a3.53,3.53,0,0,0,.36,1.48,11.93,11.93,0,0,0,.8,1.46l0,.27a2.36,2.36,0,0,1-1.25-.65,10.65,10.65,0,0,1-1.35-1.4c-.44-.54-.87-1.1-1.27-1.66l-1-1.42-.13-.15c0-.06-.13-.18-.27-.35l-.59-.76c-.26-.33-.63-.79-1.09-1.39a1.77,1.77,0,0,1-.34-.41c-.14-.21-.27-.44-.41-.68s-.26-.47-.37-.69-.21-.36-.26-.43l-1.59.16v4.86a1.35,1.35,0,0,0,.16.64,3.61,3.61,0,0,0,.4.59,5,5,0,0,0,.52.51,3.92,3.92,0,0,0,.48.37Zm-1.56-8.42a3.59,3.59,0,0,0,1.7-.46,7.17,7.17,0,0,0,1.55-1.11,6.06,6.06,0,0,0,1.12-1.39,2.64,2.64,0,0,0,.43-1.31,1.08,1.08,0,0,0-.17-.6,1.43,1.43,0,0,0-.46-.42,1.93,1.93,0,0,0-.62-.23,3.09,3.09,0,0,0-.66-.07,5.08,5.08,0,0,0-1.64.27,2.29,2.29,0,0,0-1.25,1Z"/><path class="cls-5" d="M840.46,484.92c.42.05.83.08,1.24.1l5.4-.19v.24a2.33,2.33,0,0,0-1,.23.85.85,0,0,0-.47.83,2.36,2.36,0,0,0,.26,1,9.41,9.41,0,0,0,.67,1.2c.28.42.59.85.93,1.28s.69.85,1,1.24l.94,1.08.71.81h.18V489c0-.75,0-1.57,0-2.44s0-1.71.11-2.5a17.19,17.19,0,0,1,.28-2.14,3.75,3.75,0,0,1,.51-1.4h.27c0,.38,0,.73,0,1.06v.86c0,.42,0,.81,0,1.19s0,.79.07,1.23.06,1,.1,1.54.06,1.29.09,2.12,0,1.82.07,3,0,2.52,0,4.1c0,.86,0,1.68-.06,2.44s0,1.52,0,2.26c0,.36,0,.71,0,1.07s0,.69.08,1l-.36,0c-.16,0-.3-.18-.41-.55s-.23-.78-.33-1.24-.19-.9-.27-1.31a1.45,1.45,0,0,0-.28-.76,23.89,23.89,0,0,0-1.62-2.39c-.59-.76-1.2-1.51-1.82-2.25l-1.85-2.22c-.62-.74-1.19-1.5-1.73-2.29H843v7.07a2.58,2.58,0,0,0,.23,1.16,2.12,2.12,0,0,0,.63.81,3.24,3.24,0,0,0,.93.52,5.06,5.06,0,0,0,1.12.24l0,.32a6,6,0,0,0-.81-.05H840a4.91,4.91,0,0,0-.73.05v-.32c0-.07.13-.15.38-.23a4.7,4.7,0,0,0,.85-.39,2.88,2.88,0,0,0,.85-.76,2.15,2.15,0,0,0,.38-1.35v-9.21a2.34,2.34,0,0,0-.38-1.08,1.83,1.83,0,0,0-.78-.67,3.56,3.56,0,0,0-.81-.28,1.21,1.21,0,0,1-.52-.21v-.27Z"/><path class="cls-5" d="M852.58,493.58a10,10,0,0,1,.65-3.84,8.3,8.3,0,0,1,1.76-2.67,6.86,6.86,0,0,1,2.62-1.67,7.92,7.92,0,0,1,3-.57,3.94,3.94,0,0,1,1.81.38,5.85,5.85,0,0,1,1.64,1.05,8.33,8.33,0,0,1,1.16,1.84,7.21,7.21,0,0,1,.41,2.59,11.58,11.58,0,0,1-.22,2.7,17.56,17.56,0,0,1-.83,2.51,14.69,14.69,0,0,1-1.46,2.13,5.82,5.82,0,0,1-2.13,1.35,9.54,9.54,0,0,1-4.24.38,3,3,0,0,1-1.62-.57,2.52,2.52,0,0,1-1.27-1.16,7.89,7.89,0,0,1-1-1.83A11.63,11.63,0,0,1,852.58,493.58Zm3,.24a5.49,5.49,0,0,0,.29,1.81,4.34,4.34,0,0,0,.78,1.35,2.58,2.58,0,0,0,1.06.89,2.92,2.92,0,0,0,1.27.27,2.26,2.26,0,0,0,1.7-.7,5.41,5.41,0,0,0,1.16-1.51,14.49,14.49,0,0,0,.67-2.22c.13-1.17.19-2,.19-2.4a8.13,8.13,0,0,0,0-.84c0-.28,0-.59,0-.91s-.23-.89-.48-1.73a7.28,7.28,0,0,0-.79-1.35,2.17,2.17,0,0,0-1.27-.49,2.75,2.75,0,0,0-1.43.49,5,5,0,0,0-1.43,1.35,9,9,0,0,0-1.13,2.51A11.53,11.53,0,0,0,855.56,493.82Z"/><path class="cls-5" d="M880,488.15l2,5.83c.3-.77.59-1.54.86-2.32s.5-1.49.7-2.15.36-1.22.47-1.7a4.79,4.79,0,0,0,.18-1,1.69,1.69,0,0,0-.12-.68,1.27,1.27,0,0,0-.3-.43,1.08,1.08,0,0,0-.38-.23l-.36-.09-.06-.27h.22l1.58.09c.46,0,1,0,1.63,0H887l.13,0,.13,0a5,5,0,0,1,.59-.05v.29a1.59,1.59,0,0,0-1.17.49,5.18,5.18,0,0,0-.91,1.35c-.21.45-.42,1-.63,1.54s-.42,1.21-.63,1.92a16.31,16.31,0,0,0-1,2.7c-.28,1-.55,2.12-.78,3.22s-.44,2.18-.61,3.22-.32,1.92-.44,2.66h-.33a13.61,13.61,0,0,0-.45-3.26,30.18,30.18,0,0,0-1.14-3.4c-.47-1.18-1-2.43-1.61-3.74s-1.23-2.74-1.9-4.29a27.43,27.43,0,0,0-1,3,16.21,16.21,0,0,0-1,2.68c-.28,1-.53,2.08-.76,3.16s-.42,2.13-.59,3.14-.32,1.9-.45,2.63h-.32a14.45,14.45,0,0,0-.51-3.51,31.82,31.82,0,0,0-1.29-3.72c-.53-1.3-1.12-2.68-1.79-4.15s-1.35-3.05-2.05-4.76a1.31,1.31,0,0,0-.39-.53,3.06,3.06,0,0,0-.54-.32,3.37,3.37,0,0,0-.56-.19l-.43-.1-.05-.27q.68,0,1.71.06c.69,0,1.36.05,2,.05l.86,0a5.75,5.75,0,0,0,.7-.09h.72l.05,0,.19,0,.53,0v.29a1.36,1.36,0,0,0-.94.25.81.81,0,0,0-.25.62,2.65,2.65,0,0,0,.25,1c.18.38.32.75.45,1.09l2,5.83c.31-.77.6-1.55.87-2.32s.5-1.49.7-2.15.35-1.22.47-1.7a4.79,4.79,0,0,0,.18-1,1.53,1.53,0,0,0-.13-.68,1.41,1.41,0,0,0-.29-.43,1.17,1.17,0,0,0-.38-.23,2.18,2.18,0,0,0-.37-.09l-.05-.35c.45,0,1,0,1.72,0s1.35.05,2,.05l.86,0c.27,0,.51-.05.7-.08h.6a.22.22,0,0,0,.12,0l0,0,.19,0,.53,0v.29a1.36,1.36,0,0,0-.93.25.82.82,0,0,0-.26.62,2.64,2.64,0,0,0,.26,1C879.77,487.45,879.92,487.81,880,488.15Z"/><path class="cls-5" d="M886.44,500.19a5.74,5.74,0,0,1,2.95-4,2,2,0,0,1,.24,3.05A2.64,2.64,0,0,1,886.44,500.19Z"/><polygon class="cls-7" points="69.85 443.88 77.2 438.41 127.19 493.23 119.84 498.7 69.85 443.88"/><polygon class="cls-7" points="105.18 508.01 124.74 494.51 144.3 481.01 154.65 511.5 165 542 135.09 525 105.18 508.01"/><rect class="cls-8" x="70.14" y="320.53" width="15.81" height="120.72"/><polygon class="cls-7" points="160.4 497.89 167.68 489.44 215.46 512.39 208.18 520.84 160.4 497.89"/><polygon class="cls-7" points="1468.85 397.88 1476.2 392.41 1526.19 447.23 1518.84 452.7 1468.85 397.88"/><polygon class="cls-7" points="1504.18 462.01 1523.74 448.51 1543.3 435.01 1553.65 465.5 1564 496 1534.09 479 1504.18 462.01"/><rect class="cls-8" x="1468.57" y="252.76" width="18.9" height="144.36"/><polygon class="cls-9" points="1527 259.64 1478.15 259.2 1429.3 258.77 1454.57 163.83 1479.85 68.89 1503.42 164.27 1527 259.64"/><rect class="cls-8" x="1538.14" y="406.53" width="15.81" height="120.72"/><polygon class="cls-10" points="1587 412.28 1546.15 411.91 1505.3 411.55 1526.43 332.16 1547.57 252.77 1567.29 332.52 1587 412.28"/><polygon class="cls-7" points="1539.85 528.88 1547.29 523.51 1610.78 594.7 1603.35 600.07 1539.85 528.88"/><image class="cls-11" width="1033" height="762" transform="translate(309.15 28.36)" xlink:href="Victory1.png"/><circle class="cls-12" cx="132" cy="128" r="114"/><rect class="cls-13" x="235.58" y="255.87" width="174.27" height="34.35" rx="9.09" transform="matrix(0.74, -0.67, 0.67, 0.74, -99.77, 287.32)"/><rect class="cls-14" x="211.19" y="119.17" width="70.82" height="128.28" transform="translate(-59.23 212.99) rotate(-42.17)"/><path d="M330.57,318.76l29.6-51.08c14.38,8.43,12.92,38.32-3.24,66.3s-41.41,44.25-55.88,35.9Z"/><ellipse cx="402.14" cy="794.65" rx="32.78" ry="17.17"/><ellipse cx="335.01" cy="794.65" rx="32.78" ry="17.17"/><ellipse class="cls-5" cx="411.62" cy="785.26" rx="5.66" ry="8.5" transform="translate(-410.8 1116.45) rotate(-84.27)"/><ellipse class="cls-5" cx="322.87" cy="785.26" rx="8.5" ry="5.66" transform="translate(-120.48 61.16) rotate(-9.13)"/><ellipse class="cls-7" cx="374.04" cy="786.06" rx="171.73" ry="80.4"/><polygon class="cls-15" points="368.54 800.5 287.33 661.06 206.11 521.61 367.72 520.86 529.33 520.11 448.94 660.31 368.54 800.5"/><circle class="cls-5" cx="413.07" cy="410.61" r="28.1"/><circle class="cls-5" cx="320.96" cy="410.61" r="28.1"/><path class="cls-16" d="M296.05,396.4l53.65,16.89c-1.4-15.07-7.58-25.73-20.9-29.8C313.75,379.93,303.26,385.05,296.05,396.4Z"/><path class="cls-17" d="M384.71,412.41l55.11-10c-4.73-14.84-15.64-21.49-32.52-20.25C390.89,387.76,383.64,398,384.71,412.41Z"/><path class="cls-18" d="M386.86,420.76q13.68,26.1,41.78,13.78c10.5-8.76,16.65-19.59,8.62-37.2"/><path class="cls-18" d="M346.72,420.75c-8.26,20.21-23.23,22-42.27,12.6-12.1-11.81-17.3-25.22-2.79-43.16l28.88,18.6"/><ellipse cx="332.13" cy="422.58" rx="8.59" ry="10.15"/><ellipse cx="405.6" cy="419.75" rx="8.59" ry="10.15"/><polygon class="cls-19" points="331.35 734.75 251.76 735.22 172.17 735.69 211.56 666.53 250.94 597.37 291.15 666.06 331.35 734.75"/><polygon class="cls-20" points="565.52 734.75 485.93 735.22 406.34 735.69 445.73 666.53 485.11 597.37 525.32 666.06 565.52 734.75"/><line class="cls-21" x1="379.5" y1="522.23" x2="368.19" y2="793.76"/><circle class="cls-5" cx="355.3" cy="562.04" r="8.59"/><circle class="cls-5" cx="396.67" cy="561.26" r="8.59"/><circle class="cls-5" cx="356.08" cy="595.6" r="8.59"/><circle class="cls-5" cx="354.52" cy="595.6" r="0.78"/><circle class="cls-5" cx="395.11" cy="595.6" r="8.59"/><circle class="cls-5" cx="395.11" cy="628.39" r="8.59"/><circle class="cls-5" cx="356.08" cy="628.39" r="8.59"/><circle class="cls-5" cx="395.11" cy="665.85" r="8.59"/><circle class="cls-5" cx="354.52" cy="665.85" r="8.59"/><polygon points="348.53 473.12 355.69 443.82 362.85 414.52 404.12 440.13 445.39 465.73 396.96 469.42 348.53 473.12"/><polygon class="cls-4" points="346.04 476.24 353.27 444.01 360.49 411.78 393.76 436.17 427.03 460.55 386.54 468.39 346.04 476.24"/><rect class="cls-5" x="266.31" y="224.9" width="69.39" height="37.32" transform="translate(-85.6 265.11) rotate(-42.17)"/><polygon class="cls-22" points="119 326.28 78.15 325.91 37.3 325.55 58.43 246.16 79.57 166.77 99.28 246.52 119 326.28"/><rect class="cls-8" x="160.31" y="380.5" width="13.49" height="120.52"/><polygon class="cls-23" points="202 386.24 167.15 385.88 132.3 385.51 150.33 306.26 168.36 227 185.18 306.62 202 386.24"/><polygon class="cls-5" points="782 69.85 774.42 72.62 774.76 80.68 768.57 75.5 761.76 79.83 763.16 71.88 756 68.15 763.58 65.38 763.24 57.32 769.43 62.5 776.24 58.17 774.84 66.12 782 69.85"/><polygon class="cls-5" points="873 128.85 865.42 131.62 865.76 139.68 859.57 134.5 852.76 138.83 854.16 130.88 847 127.15 854.58 124.38 854.24 116.32 860.43 121.5 867.24 117.17 865.84 125.12 873 128.85"/><polygon class="cls-5" points="724.83 116.25 722.6 117.07 722.7 119.44 720.88 117.91 718.87 119.19 719.28 116.85 717.17 115.75 719.4 114.93 719.3 112.56 721.13 114.09 723.13 112.81 722.72 115.15 724.83 116.25"/><polygon class="cls-5" points="537.98 61.59 532.74 63.5 532.98 69.07 528.71 65.49 524 68.48 524.96 62.99 520.02 60.41 525.26 58.5 525.02 52.93 529.29 56.51 534 53.52 533.04 59.01 537.98 61.59"/><polygon class="cls-5" points="1032.98 99.59 1027.74 101.5 1027.98 107.07 1023.71 103.49 1019 106.48 1019.96 100.99 1015.02 98.41 1020.26 96.5 1020.02 90.93 1024.29 94.51 1029 91.52 1028.04 97.01 1032.98 99.59"/><polygon class="cls-5" points="768.83 185.25 766.6 186.07 766.7 188.44 764.88 186.91 762.87 188.19 763.28 185.85 761.17 184.75 763.4 183.93 763.3 181.56 765.13 183.09 767.13 181.81 766.72 184.15 768.83 185.25"/><polygon class="cls-5" points="1057.47 193.82 1050.19 196.47 1050.53 204.21 1044.59 199.23 1038.06 203.39 1039.4 195.76 1032.53 192.18 1039.81 189.53 1039.47 181.79 1045.41 186.77 1051.94 182.61 1050.6 190.24 1057.47 193.82"/><ellipse class="cls-7" cx="968.04" cy="677.06" rx="117.98" ry="55.24" transform="translate(-171.31 364.97) rotate(-19.65)"/><ellipse class="cls-7" cx="1180.04" cy="717.06" rx="98.6" ry="46.16" transform="translate(-188.75 535.14) rotate(-23.71)"/><image class="cls-11" width="1046" height="923" transform="translate(315.12 12.9)" xlink:href="Victory2.png"/><path class="cls-5" d="M852.6,552.57v-.06a3.65,3.65,0,0,0-.53-2.13,3.16,3.16,0,0,0-1.4-1.12,5.81,5.81,0,0,0-1.94-.43c-.72-.05-1.44-.07-2.17-.07A7.72,7.72,0,0,0,841,550.6a7.09,7.09,0,0,0-1.95,5.42h-.28a10.94,10.94,0,0,1-.15-1.09c0-.35,0-.7,0-1a6.91,6.91,0,0,1,.73-3.24,6.29,6.29,0,0,1,2.09-2.33,10.21,10.21,0,0,1,3.31-1.41,18.77,18.77,0,0,1,4.35-.47,16.94,16.94,0,0,1,2.87.23,5.78,5.78,0,0,1,2.22.85,4.12,4.12,0,0,1,1.44,1.77,7.32,7.32,0,0,1,.51,3,5.42,5.42,0,0,1-.71,2.63,10.84,10.84,0,0,1-1.84,2.45,14.51,14.51,0,0,1-2.57,2.06,14.24,14.24,0,0,1-2.87,1.39l.22,3.91a2,2,0,0,0,.34,1.19,2.83,2.83,0,0,0,.82.76,5.86,5.86,0,0,0,1,.47c.36.12.68.23,1,.34v.27l-1.14-.07-1.38-.07-1.4,0h-1.19c-.34,0-.75,0-1.24.06s-1,.1-1.53.17l-1.52.17c-.5.06-.92.09-1.27.11v-.27l.08,0a9.46,9.46,0,0,0,1.58-.49,3.24,3.24,0,0,0,1.22-.88,4.1,4.1,0,0,0,.78-1.55,9.69,9.69,0,0,0,.28-2.54v-6.88q0-1-.06-1.68a4,4,0,0,0-.29-1.25,3.09,3.09,0,0,0-.74-1,7.34,7.34,0,0,0-1.4-.94v-.38l.39,0,.42,0h.81c1.08,0,2.14,0,3.16-.07s2-.1,3.05-.18v.46a1.15,1.15,0,0,0-.67.33,2.58,2.58,0,0,0-.63,1.16,11.9,11.9,0,0,0-.48,2.48,40.6,40.6,0,0,0-.18,4.29V560a13.08,13.08,0,0,0,3.2-3.23A7.16,7.16,0,0,0,852.6,552.57Z"/><path class="cls-5" d="M858.67,556.7c0-2.65-.27-4.3-.81-5l-.32-.2-.56-.31-.55-.3a1.61,1.61,0,0,1-.31-.19v-.32l1.54-.07c.47,0,.94-.08,1.43-.15H864l0,.3a2.85,2.85,0,0,0-1.36.61,2.82,2.82,0,0,0-.78,1,4.06,4.06,0,0,0-.35,1.22,8.15,8.15,0,0,0-.09,1.15c0,1.6,0,2.87,0,3.82s.06,1.7.11,2.28.09,1,.14,1.39.09.73.12,1.15l-1.62.7,3.61-.68a1.08,1.08,0,0,0,.37-.09,2.17,2.17,0,0,1,.47-.12l.89-.11c.26,0,.49-.06.7-.08l.59,0a8.53,8.53,0,0,0,1.37-.09,1.8,1.8,0,0,0,1-.56h.26v0s-.06.12-.16.24l-.32.42-.32.46a.75.75,0,0,0-.15.34,2.53,2.53,0,0,0-.44,1c-.12.44-.23.89-.32,1.35s-.17.86-.24,1.2-.11.51-.15.51H867V567c0-.21,0-.44,0-.66a3.53,3.53,0,0,0-.07-.61,1.19,1.19,0,0,0-.18-.44.37.37,0,0,0-.32-.18h-.09l-1.5.15c-.47,0-1,.07-1.46.07l-.46,0-.46,0a3,3,0,0,1-1-.21,4.32,4.32,0,0,0-1.08-.25,3.35,3.35,0,0,0-.71.1,4.1,4.1,0,0,1-.88.09c-.64,0-1.3,0-2,.07s-1.29.11-1.82.2V565c0-.08.15-.15.45-.22s.65-.18,1-.31a6.85,6.85,0,0,0,1.17-.54,2,2,0,0,0,.83-.91c0-.73.07-1.55.1-2.45s0-1.74,0-2.51Z"/><path class="cls-5" d="M877.63,560.13l-.32,0-.93,0-1.3.08h-.87a3,3,0,0,1-.87-.11c-.48,1-.83,1.73-1.05,2.26a3.71,3.71,0,0,0-.32,1.22.61.61,0,0,0,.13.41.7.7,0,0,0,.35.2,3,3,0,0,0,.53.12,7,7,0,0,1,.7.17v.35c-.58,0-1.1,0-1.55,0l-1.32.08-1.28.08c-.44,0-.92,0-1.44,0h-1l0-.38a5.58,5.58,0,0,0,1.34-.34,3.92,3.92,0,0,0,1.08-.63,5.28,5.28,0,0,0,.92-1c.29-.42.6-.94.94-1.55s.41-1.07.5-1.38c0,0,0,0,0,0h-.07a1.32,1.32,0,0,1-.44-.12,1.62,1.62,0,0,1-.6-.5l-.56-.83h.11l.38,0,.57.06.61.05.48,0c.19,0,.41-.25.66-.76a17.58,17.58,0,0,0,.77-1.81l.81-2.17a18.12,18.12,0,0,1,.81-1.88.77.77,0,0,0,.06-.21.55.55,0,0,0-.23-.41,3.36,3.36,0,0,0-.54-.35,5.58,5.58,0,0,0-.67-.28l-.58-.2v-.27c0-.09.17-.14.51-.14a7,7,0,0,1,.75,0c.28,0,.55.06.81.11l.9.15a2.38,2.38,0,0,0,.47-.07l.8-.16c.31-.06.65-.12,1-.16a9.54,9.54,0,0,1,1.22-.07V550a1.07,1.07,0,0,0-.71.64,2.52,2.52,0,0,0-.24,1.12V552a1,1,0,0,0,0,.22c0,.3.1.69.19,1.15s.21,1,.34,1.48l.42,1.69c.15.59.3,1.18.47,1.75l.28,0H881a5.68,5.68,0,0,1,.81.05,4.34,4.34,0,0,1,.81.19l0,.32h-.19c-.34,0-.65.08-.93.14a1.67,1.67,0,0,0-.78.4.27.27,0,0,0-.08.17.55.55,0,0,0,0,.17,1,1,0,0,1,0,.15,1.22,1.22,0,0,0,.28.73,1.52,1.52,0,0,1,.34.65,1.23,1.23,0,0,0,.13.41l.19.46a3.43,3.43,0,0,1,.24,1.31,6.33,6.33,0,0,1-.06.89,5.18,5.18,0,0,0,0,.71,9.23,9.23,0,0,0,.07,1.24c0,.36.08.83.12,1.4l-.39.06a14.62,14.62,0,0,0-1.35-2.07,4.14,4.14,0,0,1-.77-1.2,3.46,3.46,0,0,1-.4-.82c-.09-.3-.18-.63-.27-1s-.21-.73-.33-1.13a8.53,8.53,0,0,0-.54-1.34Zm-3.45-1.57a2.86,2.86,0,0,0,1.09.25l1.18,0,.41,0h.31a.58.58,0,0,0,.27,0s.07-.11.07-.26a5.44,5.44,0,0,0-.16-1.08c-.1-.48-.22-1-.36-1.55s-.28-1.07-.43-1.57-.26-.87-.34-1.14a.71.71,0,0,1-.05-.19l-2.1,5.26Z"/><path class="cls-5" d="M886.9,557.35a3.28,3.28,0,0,0-.2-.37c-.13-.22-.29-.51-.5-.85l-.67-1.12c-.24-.4-.48-.8-.71-1.2s-.45-.76-.65-1.08l-.46-.76a3.3,3.3,0,0,0-2.62-1.56v-.27a3.41,3.41,0,0,0,.55.05h.54l.5,0,.84,0,.89.06c.3,0,.53,0,.7,0l2.71-.21v.27l-.28.05a1.65,1.65,0,0,0-.39.17,1.52,1.52,0,0,0-.35.26.55.55,0,0,0-.15.38.78.78,0,0,0,.05.3l2.35,4.32h.17a8.11,8.11,0,0,0,.61-1c.19-.37.36-.74.52-1.12s.3-.75.42-1.11.23-.69.32-1l.06-.27a1.24,1.24,0,0,0,0-.27.54.54,0,0,0-.19-.45,1.49,1.49,0,0,0-.79-.22v-.27q1-.1,1.83-.15c.57,0,1.08,0,1.55,0s.79,0,1.09,0a2.15,2.15,0,0,1,.67.15v.27a3,3,0,0,0-1,.43,3.32,3.32,0,0,0-1.06,1.08l-3.41,5.43v3.86a4.91,4.91,0,0,0,.08.89,3.66,3.66,0,0,0,.42,1.32,3.62,3.62,0,0,0,.67.83,4.19,4.19,0,0,0,.7.48l.56.29v.21l-1-.07-1.12-.06-1.13,0-1,0c-.52,0-1.06,0-1.62,0l-1.79.1V565l.2-.08a4.27,4.27,0,0,0,.58-.31,2,2,0,0,0,.63-.61,3.88,3.88,0,0,0,.52-1.06,6,6,0,0,0,.25-1.72Z"/><path class="cls-5" d="M910.53,560.13l-.32,0-.94,0-1.3.08h-.86a3,3,0,0,1-.87-.11c-.48,1-.83,1.73-1,2.26a3.71,3.71,0,0,0-.32,1.22.56.56,0,0,0,.13.41.7.7,0,0,0,.35.2,3,3,0,0,0,.53.12,7,7,0,0,1,.7.17v.35c-.58,0-1.1,0-1.55,0l-1.32.08-1.28.08c-.44,0-.92,0-1.44,0h-1l0-.38a5.58,5.58,0,0,0,1.34-.34,3.92,3.92,0,0,0,1.08-.63,5.28,5.28,0,0,0,.92-1c.29-.42.6-.94.94-1.55s.4-1.07.5-1.38a.05.05,0,0,1,0,0h-.07a1.34,1.34,0,0,1-.43-.12,1.62,1.62,0,0,1-.6-.5l-.56-.83h.11l.38,0,.57.06.6.05.49,0c.19,0,.41-.25.66-.76a17.58,17.58,0,0,0,.77-1.81l.81-2.17a18.12,18.12,0,0,1,.81-1.88.77.77,0,0,0,.06-.21.55.55,0,0,0-.23-.41,3.36,3.36,0,0,0-.54-.35,5.58,5.58,0,0,0-.67-.28l-.58-.2v-.27c0-.09.17-.14.51-.14a7,7,0,0,1,.75,0c.28,0,.55.06.81.11l.9.15a2.38,2.38,0,0,0,.47-.07l.8-.16c.31-.06.65-.12,1-.16a9.43,9.43,0,0,1,1.22-.07V550a1.07,1.07,0,0,0-.71.64,2.52,2.52,0,0,0-.24,1.12V552a1,1,0,0,0,0,.22c0,.3.1.69.19,1.15s.21,1,.34,1.48l.42,1.69c.15.59.3,1.18.47,1.75l.28,0h.31a5.68,5.68,0,0,1,.81.05,4.34,4.34,0,0,1,.81.19l0,.32h-.19c-.34,0-.65.08-.93.14a1.62,1.62,0,0,0-.78.4.27.27,0,0,0-.08.17.55.55,0,0,0,0,.17,1,1,0,0,1,0,.15,1.22,1.22,0,0,0,.28.73,1.52,1.52,0,0,1,.34.65,1.48,1.48,0,0,0,.12.41c.07.14.13.29.2.46a5.6,5.6,0,0,1,.17.57,3.88,3.88,0,0,1,.07.74,6.33,6.33,0,0,1-.06.89,5.18,5.18,0,0,0-.05.71,9.23,9.23,0,0,0,.07,1.24c0,.36.08.83.12,1.4l-.39.06a13.75,13.75,0,0,0-1.36-2.07,4.05,4.05,0,0,1-.76-1.2,3.46,3.46,0,0,1-.4-.82c-.09-.3-.18-.63-.28-1s-.2-.73-.32-1.13a8.53,8.53,0,0,0-.54-1.34Zm-3.45-1.57a2.86,2.86,0,0,0,1.09.25l1.17,0,.42,0h.31a.58.58,0,0,0,.27,0s.07-.11.07-.26a6.32,6.32,0,0,0-.16-1.08c-.1-.48-.22-1-.36-1.55s-.29-1.07-.43-1.57-.26-.87-.34-1.14a1,1,0,0,1-.06-.19L907,558.29Z"/><path class="cls-5" d="M925.58,553.78a10.16,10.16,0,0,0-.07-1.39,1.53,1.53,0,0,0-.26-.75.91.91,0,0,0-.56-.33,6,6,0,0,0-1-.06,6.85,6.85,0,0,0-.71,0,6.78,6.78,0,0,0-.93.14c-.32.08-.65.17-1,.29a3.89,3.89,0,0,0-.89.44,5.22,5.22,0,0,0-.94.94,5.13,5.13,0,0,0-.75,1.36,8.83,8.83,0,0,0-.51,1.93,17,17,0,0,0-.18,2.66,7,7,0,0,0,.41,2.36,4.6,4.6,0,0,0,1.21,1.9l.38.29a2.91,2.91,0,0,0,.43.28,2.71,2.71,0,0,0,.63.22,5.1,5.1,0,0,0,1,.08,3.67,3.67,0,0,0,1.63-.28,1.43,1.43,0,0,0,.63-1.18v-2.48a1.91,1.91,0,0,0-.26-1,2.57,2.57,0,0,0-.73-.74,3.86,3.86,0,0,0-1-.47,4.4,4.4,0,0,0-1.2-.16,4,4,0,0,0-.55,0,4.47,4.47,0,0,0-.74.17v-.21a2.42,2.42,0,0,1,.51-.25,5,5,0,0,1,.67-.18,6.27,6.27,0,0,1,.71-.13c.23,0,.45,0,.66,0a4.15,4.15,0,0,1,1.53.26,7.21,7.21,0,0,0,1.46.39c.15,0,.48-.1,1-.24a6.67,6.67,0,0,1,1.82-.22v.19a.89.89,0,0,0-.6.46,1.8,1.8,0,0,0-.21.89v3.73a1.87,1.87,0,0,1-.21.85,3.8,3.8,0,0,1-.57.82.59.59,0,0,0-.34.12c-.11.08-.32.26-.61.53a3.19,3.19,0,0,1-.63.45,1.84,1.84,0,0,1-.85.2h-.76a1.33,1.33,0,0,1-.28,0H922c-.63,0-1.3,0-2-.11a8.61,8.61,0,0,1-2.08-.49,5.58,5.58,0,0,1-1.16-.61,3.94,3.94,0,0,1-1-.91,4.42,4.42,0,0,1-.66-1.3,5.72,5.72,0,0,1-.24-1.74v-2.13c0-.63,0-1.26.08-1.88a10.74,10.74,0,0,1,.34-1.85,9.39,9.39,0,0,1,.73-1.84,8.84,8.84,0,0,1,1.28-1.83,2.37,2.37,0,0,1,1.32-.72,8.5,8.5,0,0,1,1.79-.17h1.14c.71,0,1.42,0,2.13.05s1.36,0,2,0a2.68,2.68,0,0,0,.74-.13,2.76,2.76,0,0,0,.63-.24l.23,0a5,5,0,0,1-.33,1.74,9.48,9.48,0,0,0-.43,1.77,3.6,3.6,0,0,1-.11.53c-.06.21-.12.4-.18.59s-.12.36-.17.5-.08.22-.1.22h-.31Z"/><path class="cls-5" d="M936.72,560.13l-.32,0-.93,0-1.3.08h-.87a3,3,0,0,1-.87-.11c-.48,1-.83,1.73-1,2.26a3.71,3.71,0,0,0-.32,1.22.56.56,0,0,0,.13.41.7.7,0,0,0,.35.2,3,3,0,0,0,.53.12,7,7,0,0,1,.7.17v.35c-.58,0-1.1,0-1.55,0l-1.32.08-1.28.08c-.44,0-.92,0-1.44,0h-1l0-.38a5.58,5.58,0,0,0,1.34-.34,3.92,3.92,0,0,0,1.08-.63,5.28,5.28,0,0,0,.92-1c.29-.42.6-.94.94-1.55s.41-1.07.5-1.38c0,0,0,0,0,0h-.07a1.32,1.32,0,0,1-.44-.12,1.62,1.62,0,0,1-.6-.5l-.56-.83h.11l.38,0,.57.06.61.05.48,0c.19,0,.41-.25.66-.76a17.58,17.58,0,0,0,.77-1.81l.81-2.17a18.12,18.12,0,0,1,.81-1.88.77.77,0,0,0,.06-.21.55.55,0,0,0-.23-.41,3.36,3.36,0,0,0-.54-.35,5.58,5.58,0,0,0-.67-.28l-.58-.2v-.27c0-.09.17-.14.51-.14a7,7,0,0,1,.75,0c.28,0,.55.06.81.11l.9.15a2.38,2.38,0,0,0,.47-.07l.8-.16c.31-.06.65-.12,1-.16a9.54,9.54,0,0,1,1.22-.07V550a1.07,1.07,0,0,0-.71.64,2.52,2.52,0,0,0-.24,1.12V552a1,1,0,0,0,0,.22c0,.3.1.69.19,1.15s.21,1,.34,1.48l.42,1.69c.15.59.3,1.18.47,1.75l.28,0h.31a5.68,5.68,0,0,1,.81.05,4.34,4.34,0,0,1,.81.19l0,.32h-.19c-.34,0-.65.08-.93.14a1.62,1.62,0,0,0-.78.4.27.27,0,0,0-.08.17.55.55,0,0,0,0,.17,1,1,0,0,1,0,.15,1.22,1.22,0,0,0,.28.73,1.52,1.52,0,0,1,.34.65,1.48,1.48,0,0,0,.12.41c.07.14.13.29.2.46a3.43,3.43,0,0,1,.24,1.31,6.33,6.33,0,0,1-.06.89,5.18,5.18,0,0,0,0,.71,9.23,9.23,0,0,0,.07,1.24c0,.36.08.83.12,1.4l-.39.06a13.75,13.75,0,0,0-1.36-2.07,4.28,4.28,0,0,1-.76-1.2,3.46,3.46,0,0,1-.4-.82c-.09-.3-.18-.63-.27-1s-.21-.73-.33-1.13a8.53,8.53,0,0,0-.54-1.34Zm-3.45-1.57a2.86,2.86,0,0,0,1.09.25l1.18,0,.41,0h.31a.58.58,0,0,0,.27,0s.07-.11.07-.26a5.44,5.44,0,0,0-.16-1.08c-.1-.48-.22-1-.36-1.55s-.28-1.07-.43-1.57-.26-.87-.34-1.14a.71.71,0,0,1,0-.19l-2.1,5.26Z"/><path class="cls-5" d="M946.21,552.7c-.07.87-.12,1.72-.14,2.55s0,1.69,0,2.56,0,1.62,0,2.43.07,1.62.14,2.43a2.35,2.35,0,0,0,.38,1.23,2.43,2.43,0,0,0,1.16.93V565l-1.51-.11c-.5,0-1-.06-1.54-.06s-1.09,0-1.66.07l-1.66.12v-.21l.11,0,.56-.38a1.65,1.65,0,0,0,.51-.62,4.48,4.48,0,0,0,.4-1.15,9.58,9.58,0,0,0,.15-1.9c.06-.5.09-1,.11-1.5s0-1,0-1.5,0-1.25,0-1.87-.06-1.25-.1-1.88c0-.47,0-.85,0-1.16a2.19,2.19,0,0,0-.19-.81,2,2,0,0,0-.52-.64,6.94,6.94,0,0,0-1-.63v-.3l.36,0,.62,0h3.18l1.05,0,1.19-.06v.29a1.13,1.13,0,0,0-.6.23,2,2,0,0,0-.46.5,3.64,3.64,0,0,0-.34.65A2.6,2.6,0,0,0,946.21,552.7Zm1.82-8.31a5.78,5.78,0,0,1-3.16,4.1,2,2,0,0,1-.24-3.13A2.93,2.93,0,0,1,948,544.39Z"/><path class="cls-5" d="M949.15,550.21c.43,0,.85.07,1.28.09l5.59-.19v.24a2.43,2.43,0,0,0-1,.23.84.84,0,0,0-.49.83,2.36,2.36,0,0,0,.26,1,8.59,8.59,0,0,0,.7,1.2c.29.42.61.85,1,1.28s.7.85,1.06,1.24.68.76,1,1.08l.72.81h.2v-3.7c0-.75,0-1.57,0-2.44s.05-1.71.11-2.5a19.37,19.37,0,0,1,.3-2.14,3.29,3.29,0,0,1,.53-1.39h.28a9.94,9.94,0,0,0-.06,1v.86c0,.42,0,.81,0,1.19s0,.79.07,1.23.06,1,.1,1.54.07,1.29.1,2.12,0,1.82.07,3,0,2.52,0,4.1c0,.87,0,1.68-.05,2.45s-.06,1.51-.06,2.25c0,.36,0,.72,0,1.07s0,.69.08,1l-.36,0c-.17,0-.31-.18-.43-.55a12.77,12.77,0,0,1-.34-1.24c-.1-.46-.19-.9-.28-1.31a1.43,1.43,0,0,0-.29-.76,21.47,21.47,0,0,0-1.68-2.39q-.91-1.14-1.89-2.25L953.76,557c-.63-.73-1.23-1.5-1.79-2.29h-.25v7.07A2.58,2.58,0,0,0,952,563a2.16,2.16,0,0,0,.65.81,3.33,3.33,0,0,0,1,.52,5.3,5.3,0,0,0,1.16.24l0,.32a6.53,6.53,0,0,0-.84-.05h-5.31a5.36,5.36,0,0,0-.76.05v-.32c0-.07.13-.15.39-.23a4.59,4.59,0,0,0,.88-.39,2.86,2.86,0,0,0,.88-.76,2.09,2.09,0,0,0,.4-1.35v-9.2a2.19,2.19,0,0,0-.4-1.08,1.75,1.75,0,0,0-.81-.68,3.52,3.52,0,0,0-.83-.28,1.19,1.19,0,0,1-.54-.21v-.27Z"/><polygon points="331.36 479.16 359.84 481.02 388.32 482.88 372.8 501.45 357.29 520.02 344.33 499.59 331.36 479.16"/><polygon points="320.59 475 336.8 478 353.01 481 341.43 498.32 329.85 515.66 325.22 495.33 320.59 475"/><polygon class="cls-5" points="320.68 475.25 336.03 478.08 351.38 480.92 340.69 495.79 330.01 510.67 325.34 492.95 320.68 475.25"/><polygon points="375.8 482.31 386.76 480.18 397.71 478.05 394.77 492.15 391.83 506.24 383.82 494.28 375.8 482.31"/><polygon class="cls-5" points="375.92 482.45 386.29 480.43 396.66 478.41 393.67 490.69 390.68 502.98 383.3 492.71 375.92 482.45"/><polygon class="cls-24" points="343.66 498.93 358.19 499.88 372.73 500.83 364.8 510.55 356.86 520.26 350.26 509.6 343.66 498.93"/><polygon points="352.44 497.88 357.9 497.13 363.37 496.38 361.32 501.76 359.27 507.15 355.86 502.51 352.44 497.88"/><polygon class="cls-25" points="334.17 518.76 329.98 518.79 325.79 518.81 327.87 515.29 329.94 511.77 332.06 515.27 334.17 518.76"/><ellipse class="cls-26" cx="330" cy="522.12" rx="5" ry="6.13"/><ellipse class="cls-5" cx="332.93" cy="520.39" rx="1.2" ry="2.65" transform="translate(-113.73 93.6) rotate(-13.69)"/><ellipse class="cls-5" cx="333.32" cy="524.04" rx="0.72" ry="0.81" transform="translate(-250.1 736.95) rotate(-77.59)"/><polygon class="cls-25" points="400.61 510.45 397.96 511.27 395.31 512.1 395.94 509.47 396.57 506.84 398.59 508.64 400.61 510.45"/><ellipse class="cls-27" cx="398.62" cy="513.38" rx="3.31" ry="4.06" transform="translate(-132.79 139.13) rotate(-17.02)"/><ellipse class="cls-5" cx="400.14" cy="511.72" rx="0.79" ry="1.76" transform="translate(-205.22 276.11) rotate(-30.71)"/><ellipse class="cls-5" cx="401.09" cy="513.95" rx="0.54" ry="0.48" transform="translate(-39.98 33.87) rotate(-4.61)"/><polygon class="cls-25" points="408.87 531.83 406.12 532.17 403.37 532.51 404.46 530.03 405.55 527.56 407.21 529.69 408.87 531.83"/><ellipse class="cls-28" cx="406.39" cy="534.36" rx="3.31" ry="4.06" transform="translate(-59.72 51.21) rotate(-6.72)"/><ellipse class="cls-5" cx="408.18" cy="533" rx="0.79" ry="1.76" transform="translate(-160.26 175.82) rotate(-20.41)"/><ellipse class="cls-5" cx="408.72" cy="535.36" rx="0.48" ry="0.54" transform="translate(-164.54 888.97) rotate(-84.31)"/><polygon class="cls-25" points="326.04 545.29 321.99 545.79 317.94 546.29 319.55 542.64 321.15 539 323.6 542.14 326.04 545.29"/><ellipse class="cls-29" cx="322.39" cy="549.01" rx="4.87" ry="5.97" transform="translate(-62.01 41.48) rotate(-6.72)"/><ellipse class="cls-5" cx="325.02" cy="547" rx="1.17" ry="2.59" transform="translate(-170.36 147.69) rotate(-20.41)"/><ellipse class="cls-5" cx="325.82" cy="550.48" rx="0.7" ry="0.79" transform="translate(-254.26 820.1) rotate(-84.31)"/></g></g></svg>
