<svg xmlns="http://www.w3.org/2000/svg" xmlns:xlink="http://www.w3.org/1999/xlink" width="300" height="100" viewBox="0 0 300 100"><defs><style>.cls-1{isolation:isolate;}.cls-2{fill:#0dff00;}.cls-3,.cls-4{mix-blend-mode:screen;}.cls-3{fill:url(#linear-gradient);}.cls-4{fill:url(#linear-gradient-2);}</style><linearGradient id="linear-gradient" x1="3104.3" y1="3279.98" x2="3104.3" y2="3302.43" gradientTransform="translate(-1241.42 -1669.71) scale(0.47 0.52)" gradientUnits="userSpaceOnUse"><stop offset="0" stop-color="#fff"/><stop offset="0.07" stop-color="#dedede"/><stop offset="0.22" stop-color="#a4a4a4"/><stop offset="0.36" stop-color="#727272"/><stop offset="0.5" stop-color="#494949"/><stop offset="0.64" stop-color="#292929"/><stop offset="0.77" stop-color="#121212"/><stop offset="0.89" stop-color="#050505"/><stop offset="1"/></linearGradient><linearGradient id="linear-gradient-2" x1="-2413.23" y1="1151.61" x2="-2413.23" y2="1174.06" gradientTransform="translate(7545.14 -859.45) scale(3.1 0.79)" xlink:href="#linear-gradient"/></defs><title>volume</title><g class="cls-1"><g id="Layer_1" data-name="Layer 1"><ellipse class="cls-2" cx="122.28" cy="64.21" rx="122.36" ry="20.09" transform="translate(-0.43 0.83) rotate(-0.39)"/><ellipse cx="228.4" cy="61.3" rx="18.8" ry="18.6" transform="translate(94.93 256.52) rotate(-70.66)"/><path d="M241.19,59.78a12.39,12.39,0,0,0,1,5.86c.75-5.46,4.6-9.66,8.94-9.56,4.59.1,8,5,7.59,10.89.4-5.91,4.45-10.62,9-10.52s8,5,7.59,10.89c.4-5.91,4.45-10.62,9.05-10.52s8,5,7.58,10.89a12.94,12.94,0,0,1-2.83,7.38c6.45-3.32,10.72-8.32,11.11-14C301,50.68,288.35,41.94,272,41.58S241.89,49.37,241.19,59.78Z"/><path d="M219.8,56.09A9.3,9.3,0,0,1,216,59.4c2.19-4.08,1.35-9.12-2.05-11.57-3.59-2.6-8.68-1.31-11.36,2.87,2.68-4.18,1.95-9.68-1.64-12.28s-8.68-1.31-11.37,2.88c2.69-4.19,2-9.68-1.63-12.28s-8.68-1.31-11.37,2.87a10.12,10.12,0,0,0-1.55,6.58c-3.29-6-4.05-11.78-1.47-15.79,4.74-7.37,18.92-5.87,31.68,3.36S224.53,48.72,219.8,56.09Z"/><ellipse class="cls-3" cx="225.05" cy="51.13" rx="10.78" ry="5.87" transform="translate(-5.73 49.23) rotate(-12.33)"/><ellipse class="cls-4" cx="71.81" cy="63.33" rx="70.7" ry="8.91" transform="translate(-4.63 5.67) rotate(-4.38)"/></g></g></svg>
