<svg xmlns="http://www.w3.org/2000/svg" xmlns:xlink="http://www.w3.org/1999/xlink" width="200" height="380" viewBox="0 0 200 380"><defs><style>.cls-1{fill:none;}.cls-2{isolation:isolate;}.cls-3{opacity:0.51;}.cls-4{fill:#e8a7e8;}.cls-5{fill:#8a1300;}.cls-6{fill:#060323;}.cls-7{fill:#fff;}.cls-8{fill:#160e5e;}.cls-9{fill:#01010f;}.cls-10{fill:url(#linear-gradient);}.cls-11{fill:#b41400;}.cls-12{fill:#11093f;}.cls-13{fill:url(#linear-gradient-2);}.cls-14{fill:#d89144;}.cls-15{fill:url(#linear-gradient-3);}.cls-16{clip-path:url(#clip-path);}.cls-17{clip-path:url(#clip-path-2);}.cls-18{mix-blend-mode:screen;}.cls-19{clip-path:url(#clip-path-5);}.cls-20{fill:url(#linear-gradient-4);}.cls-21{clip-path:url(#clip-path-6);}.cls-22{clip-path:url(#clip-path-7);}.cls-23{clip-path:url(#clip-path-10);}.cls-24{fill:url(#linear-gradient-5);}.cls-25{fill:#f2f2f1;}</style><linearGradient id="linear-gradient" x1="64.15" y1="88.27" x2="139.77" y2="88.27" gradientUnits="userSpaceOnUse"><stop offset="0.2" stop-color="#160e5e"/><stop offset="0.32" stop-color="#130c53"/><stop offset="0.76" stop-color="#0a0530"/><stop offset="1" stop-color="#060323"/></linearGradient><linearGradient id="linear-gradient-2" x1="43.92" y1="118.8" x2="184.69" y2="118.8" gradientTransform="translate(42.92 -29.8) rotate(18.24)" xlink:href="#linear-gradient"/><linearGradient id="linear-gradient-3" x1="84.97" y1="250.49" x2="177.6" y2="197.01" xlink:href="#linear-gradient"/><clipPath id="clip-path"><polygon class="cls-1" points="93.65 295.91 101.97 293.65 103.21 297.67 94.88 299.93 93.65 295.91"/></clipPath><clipPath id="clip-path-2"><polygon class="cls-1" points="94.88 299.93 103.21 297.67 101.97 293.65 93.65 295.91 94.88 299.93"/></clipPath><clipPath id="clip-path-5"><path class="cls-1" d="M102.73,296.15c.19,1.11-1.58,2.3-4,2.66s-4.46-.27-4.65-1.38,1.59-2.3,4-2.66,4.45.27,4.64,1.38"/></clipPath><linearGradient id="linear-gradient-4" x1="-2609" y1="-255" x2="-2608" y2="-255" gradientTransform="matrix(0.68, 4.03, 4.23, -0.63, 2955.58, 10657.98)" gradientUnits="userSpaceOnUse"><stop offset="0" stop-color="#fff"/><stop offset="0.07" stop-color="#dfdfdf"/><stop offset="0.22" stop-color="#a5a5a5"/><stop offset="0.36" stop-color="#727272"/><stop offset="0.5" stop-color="#494949"/><stop offset="0.64" stop-color="#292929"/><stop offset="0.77" stop-color="#121212"/><stop offset="0.89" stop-color="#050505"/><stop offset="1"/></linearGradient><clipPath id="clip-path-6"><polygon class="cls-1" points="133.62 294.22 142.16 295.58 141.41 299.7 132.87 298.34 133.62 294.22"/></clipPath><clipPath id="clip-path-7"><polygon class="cls-1" points="132.87 298.34 141.41 299.7 142.16 295.58 133.62 294.22 132.87 298.34"/></clipPath><clipPath id="clip-path-10"><path class="cls-1" d="M141.69,298.14c-.35,1.08-2.5,1.43-4.8.78s-3.89-2.06-3.55-3.14,2.5-1.43,4.8-.77,3.9,2.05,3.55,3.13"/></clipPath><linearGradient id="linear-gradient-5" x1="-2609" y1="-255" x2="-2608" y2="-255" gradientTransform="matrix(-1.26, 3.91, 4.1, 1.16, -2093.92, 10792.54)" xlink:href="#linear-gradient-4"/></defs><title>witch</title><g class="cls-2"><g id="Layer_1" data-name="Layer 1"><ellipse class="cls-3" cx="113.6" cy="315.42" rx="69.59" ry="32.58"/><polygon class="cls-4" points="179.09 201.74 117.36 200.95 55.63 200.16 87.22 150.4 118.81 100.64 148.95 151.19 179.09 201.74"/><ellipse cx="17.15" cy="128.03" rx="6.2" ry="8.58" transform="translate(-35.87 10.24) rotate(-16.6)"/><polygon points="21.24 123.11 16.09 125.33 10.94 127.54 10.99 121.25 11.04 114.97 16.14 119.04 21.24 123.11"/><ellipse class="cls-5" cx="152.18" cy="144.18" rx="5.43" ry="5.1"/><polygon class="cls-6" points="99.13 92.69 75.35 100.34 51.58 108 59.21 92.55 66.85 77.1 82.99 84.9 99.13 92.69"/><ellipse class="cls-7" cx="102.7" cy="157.77" rx="12.07" ry="11.32"/><ellipse class="cls-7" cx="134.68" cy="157.77" rx="12.07" ry="11.32"/><polygon class="cls-8" points="139.28 135.66 133.78 127.9 128.27 120.14 148.16 113.32 168.06 106.5 153.67 121.08 139.28 135.66"/><polygon class="cls-8" points="96.38 135.33 91.68 143.32 86.98 151.3 76.66 140.74 66.34 130.19 81.36 132.76 96.38 135.33"/><ellipse class="cls-9" cx="28.72" cy="144.04" rx="11" ry="17.11" transform="translate(-89.86 57.37) rotate(-42.56)"/><ellipse class="cls-6" cx="69.34" cy="114.65" rx="59.41" ry="18.15" transform="translate(-62.23 89.35) rotate(-47.95)"/><path class="cls-10" d="M104.16,108.93,68.93,121l-.37-1C58.48,91.28,66.27,62.72,85.8,56.68s43.89,12.57,54,41.24Z"/><path class="cls-11" d="M137.58,103.28,73.66,124.4a4.46,4.46,0,0,1-5.58-2.51L66,116.28A4.06,4.06,0,0,1,68.65,111l63.92-21.11a4.45,4.45,0,0,1,5.58,2.5l2.1,5.61A4,4,0,0,1,137.58,103.28Z"/><polygon class="cls-6" points="46.9 118.61 43.83 121.91 40.77 125.2 39.26 121.07 37.75 116.93 42.32 117.77 46.9 118.61"/><polygon class="cls-6" points="43.69 154.3 47.03 151.25 50.36 148.19 51.51 152.43 52.66 156.67 48.18 155.48 43.69 154.3"/><polygon class="cls-6" points="45.76 124.23 44.23 120.1 42.69 115.97 47.27 116.79 51.84 117.61 48.8 120.92 45.76 124.23"/><polygon class="cls-6" points="31.21 152.17 33.86 155.77 36.5 159.37 31.86 159.72 27.21 160.07 29.21 156.12 31.21 152.17"/><polygon class="cls-8" points="89.01 138.63 88.27 144.77 87.52 150.91 67.97 145.72 48.42 140.53 68.71 139.58 89.01 138.63"/><ellipse class="cls-12" cx="99.68" cy="157.2" rx="3.02" ry="2.83"/><ellipse class="cls-12" cx="131.06" cy="157.2" rx="3.02" ry="2.83"/><path class="cls-5" d="M135.67,128.65l12.58,19.78-.2.12c-4.21,2.3-13.26-4.78-20.06-15.69s-8.91-21.8-4.7-24.1l.09-.05Z"/><polygon points="146.33 149.52 147.85 151.13 154.57 145.56 153.05 143.95 146.33 149.52"/><polygon points="140.9 145.82 142.99 146.72 146.72 139.07 144.64 138.18 140.9 145.82"/><rect x="134.82" y="136.54" width="2.29" height="8.41" transform="translate(271.93 281.5) rotate(180)"/><path class="cls-5" d="M97.65,130.35l10.23-20.94.22.09c4.41,1.94,3.33,13-2.4,24.4s-14.08,19.25-18.49,17.3l-.09,0Z"/><polygon points="122.4 166.46 127.02 168.92 131.65 171.38 127.07 173.91 122.48 176.44 122.44 171.45 122.4 166.46"/><polygon class="cls-4" points="120.58 166.46 125.21 168.92 129.84 171.38 125.26 173.91 120.67 176.44 120.63 171.45 120.58 166.46"/><ellipse cx="111.75" cy="182.12" rx="3.02" ry="2.83"/><ellipse class="cls-5" cx="163.04" cy="144.75" rx="4.22" ry="3.96"/><ellipse class="cls-5" cx="172.7" cy="147.58" rx="3.62" ry="3.4"/><ellipse class="cls-5" cx="179.94" cy="152.68" rx="3.02" ry="2.83"/><polygon class="cls-5" points="177.62 159.19 182.46 156.17 187.3 153.16 187.9 158.92 188.49 164.69 183.05 161.94 177.62 159.19"/><ellipse class="cls-5" cx="82.21" cy="144.18" rx="5.43" ry="5.1"/><ellipse class="cls-5" cx="70.75" cy="148.15" rx="4.22" ry="3.96"/><ellipse class="cls-5" cx="61.69" cy="153.25" rx="3.62" ry="3.4"/><ellipse class="cls-5" cx="59.28" cy="161.74" rx="3.02" ry="2.83"/><polygon points="100.23 145.22 102.52 145.06 101.89 136.67 99.6 136.82 100.23 145.22"/><polygon points="93.8 147.01 95.82 146 91.62 138.57 89.6 139.58 93.8 147.01"/><polygon points="89.37 151.02 90.76 149.31 83.64 144.19 82.25 145.9 89.37 151.02"/><polygon class="cls-5" points="53.3 165.17 59.11 165.52 64.91 165.88 61.65 170.8 58.39 175.72 55.85 170.44 53.3 165.17"/><ellipse class="cls-13" cx="114.3" cy="118.8" rx="74.02" ry="10.63" transform="matrix(0.95, -0.31, 0.31, 0.95, -31.43, 41.74)"/><ellipse class="cls-14" cx="96.66" cy="171.36" rx="1.81" ry="1.7"/><ellipse class="cls-14" cx="90.03" cy="170.79" rx="1.21" ry="1.13"/><ellipse class="cls-14" cx="92.44" cy="174.76" rx="1.21" ry="1.13"/><ellipse class="cls-14" cx="143.13" cy="171.08" rx="1.81" ry="1.7"/><ellipse class="cls-14" cx="136.64" cy="172.47" rx="1.21" ry="1.13"/><ellipse class="cls-14" cx="140.24" cy="175.54" rx="1.21" ry="1.13"/><polygon class="cls-8" points="105.63 280.69 74.55 281.07 43.47 281.45 58.44 240.33 73.42 199.22 89.52 239.95 105.63 280.69"/><polygon class="cls-8" points="190.72 280.69 159.64 281.07 128.56 281.45 143.53 240.33 158.5 199.22 174.61 239.95 190.72 280.69"/><polygon class="cls-15" points="55.82 199.58 117.62 199.67 179.42 199.76 148.44 249.61 117.46 299.47 86.64 249.53 55.82 199.58"/><ellipse cx="131.66" cy="299.31" rx="12.67" ry="6.23"/><ellipse cx="102.7" cy="299.31" rx="12.67" ry="6.23"/><g id="shiny"><g class="cls-16"><g class="cls-17"><g class="cls-16"><g class="cls-18"><g class="cls-17"><g class="cls-19"><polygon class="cls-20" points="102.64 293.32 103.58 298.87 94.21 300.26 93.27 294.71 102.64 293.32"/></g></g></g></g></g></g></g><g id="shiny-2" data-name="shiny"><g class="cls-21"><g class="cls-22"><g class="cls-21"><g class="cls-18"><g class="cls-22"><g class="cls-23"><polygon class="cls-24" points="142.92 295.56 141.19 300.94 132.11 298.37 133.84 292.99 142.92 295.56"/></g></g></g></g></g></g></g><rect class="cls-5" x="116.58" y="199.67" width="1.81" height="97.95"/><ellipse class="cls-25" cx="126.23" cy="233.07" rx="4.83" ry="4.53"/><ellipse class="cls-25" cx="126.23" cy="214.95" rx="4.83" ry="4.53"/><ellipse class="cls-25" cx="108.73" cy="214.95" rx="4.83" ry="4.53"/><ellipse class="cls-25" cx="108.73" cy="233.07" rx="4.83" ry="4.53"/></g></g></svg>
