<svg xmlns="http://www.w3.org/2000/svg" xmlns:xlink="http://www.w3.org/1999/xlink" width="200" height="380" viewBox="0 0 200 380"><defs><style>.cls-1{fill:none;}.cls-2{isolation:isolate;}.cls-3{opacity:0.51;}.cls-4{fill:#e8a7e8;}.cls-5{fill:#8a1300;}.cls-6{fill:#060323;}.cls-7{fill:#01010f;}.cls-8{fill:#160e5e;}.cls-9{fill:url(#linear-gradient);}.cls-10{clip-path:url(#clip-path);}.cls-11{clip-path:url(#clip-path-2);}.cls-12{mix-blend-mode:screen;}.cls-13{clip-path:url(#clip-path-5);}.cls-14{fill:url(#linear-gradient-2);}.cls-15{clip-path:url(#clip-path-6);}.cls-16{clip-path:url(#clip-path-7);}.cls-17{clip-path:url(#clip-path-10);}.cls-18{fill:url(#linear-gradient-3);}.cls-19{fill:url(#linear-gradient-4);}.cls-20{fill:url(#linear-gradient-5);}.cls-21{fill:#b41400;}</style><linearGradient id="linear-gradient" x1="85.03" y1="253.4" x2="176.29" y2="200.72" gradientTransform="matrix(-1, -0.02, -0.02, 1, 204.05, 1.68)" gradientUnits="userSpaceOnUse"><stop offset="0.2" stop-color="#160e5e"/><stop offset="0.32" stop-color="#130c53"/><stop offset="0.76" stop-color="#0a0530"/><stop offset="1" stop-color="#060323"/></linearGradient><clipPath id="clip-path"><polygon class="cls-1" points="104.65 295.23 96.47 293.01 95.19 296.74 103.36 298.96 104.65 295.23"/></clipPath><clipPath id="clip-path-2"><polygon class="cls-1" points="103.36 298.96 95.19 296.74 96.47 293.01 104.65 295.23 103.36 298.96"/></clipPath><clipPath id="clip-path-5"><path class="cls-1" d="M95.68,295.33c-.2,1,1.53,2.17,3.87,2.53s4.4-.18,4.6-1.22-1.53-2.17-3.86-2.53-4.4.18-4.61,1.22"/></clipPath><linearGradient id="linear-gradient-2" x1="-2609" y1="150" x2="-2608" y2="150" gradientTransform="matrix(-0.74, 3.75, -4.16, -0.64, -1198.82, 10183.68)" gradientUnits="userSpaceOnUse"><stop offset="0" stop-color="#fff"/><stop offset="0.07" stop-color="#dfdfdf"/><stop offset="0.22" stop-color="#a5a5a5"/><stop offset="0.36" stop-color="#727272"/><stop offset="0.5" stop-color="#494949"/><stop offset="0.64" stop-color="#292929"/><stop offset="0.77" stop-color="#121212"/><stop offset="0.89" stop-color="#050505"/><stop offset="1"/></linearGradient><clipPath id="clip-path-6"><polygon class="cls-1" points="65.26 293.11 56.81 294.27 57.48 298.12 65.93 296.97 65.26 293.11"/></clipPath><clipPath id="clip-path-7"><polygon class="cls-1" points="65.93 296.97 57.48 298.12 56.81 294.27 65.26 293.11 65.93 296.97"/></clipPath><clipPath id="clip-path-10"><path class="cls-1" d="M57.23,296.66c.33,1,2.44,1.37,4.73.79s3.87-1.86,3.54-2.88-2.44-1.36-4.72-.78-3.87,1.86-3.55,2.87"/></clipPath><linearGradient id="linear-gradient-3" x1="-2609" y1="150" x2="-2608" y2="150" gradientTransform="matrix(1.18, 3.66, -4.07, 1.03, 3738.39, 9700.14)" xlink:href="#linear-gradient-2"/><linearGradient id="linear-gradient-4" x1="42.74" y1="132.2" x2="181.04" y2="132.2" gradientTransform="matrix(-0.41, -0.96, -1.28, 0.28, 302.71, 208.98)" xlink:href="#linear-gradient"/><linearGradient id="linear-gradient-5" x1="71.89" y1="107.24" x2="146.47" y2="107.24" xlink:href="#linear-gradient"/></defs><title>witch back</title><g class="cls-2"><g id="Layer_1" data-name="Layer 1"><ellipse class="cls-3" cx="85.51" cy="299.69" rx="27.14" ry="65.31" transform="translate(-215.26 381.32) rotate(-89.26)"/><polygon class="cls-4" points="21.92 206.23 82.8 206.33 143.69 206.43 113.34 159.58 83 112.73 52.46 159.48 21.92 206.23"/><ellipse cx="182.8" cy="139.66" rx="8.05" ry="6.07" transform="translate(-13.11 260.24) rotate(-68.99)"/><polygon points="178.84 135.02 183.89 137.15 188.94 139.28 188.99 133.42 189.04 127.56 183.94 131.29 178.84 135.02"/><ellipse class="cls-5" cx="49.38" cy="152.9" rx="5.36" ry="4.75"/><polygon class="cls-6" points="93.15 104.75 116.47 112.22 139.79 119.67 132.51 105.16 125.23 90.65 109.19 97.7 93.15 104.75"/><ellipse class="cls-7" cx="171.13" cy="154.43" rx="16.44" ry="10.54" transform="translate(-59.37 157.1) rotate(-42.73)"/><polygon class="cls-6" points="151.74 137.14 154.71 140.25 157.68 143.36 159.23 139.53 160.78 135.69 156.26 136.41 151.74 137.14"/><polygon class="cls-6" points="156.2 163.8 152.96 160.91 149.72 158.02 148.52 161.96 147.32 165.89 151.76 164.85 156.2 163.8"/><polygon class="cls-6" points="154.65 135.72 156.23 131.9 157.81 128.07 153.28 128.77 148.76 129.47 151.7 132.59 154.65 135.72"/><polygon class="cls-6" points="168.54 161.99 165.88 165.31 163.21 168.63 167.79 169.02 172.36 169.41 170.45 165.7 168.54 161.99"/><path class="cls-5" d="M66.27,139.35l-12.89,18.2.35.19c7.4,4,19.15-1.06,26-11.15s6.45-21.66-1-25.63l-.16-.08Z"/><path class="cls-5" d="M104.26,141.75,94.89,120.6l-.47.17c-9.74,3.6-13.32,16-7.92,27.54s17.86,18,27.6,14.41l.21-.08Z"/><ellipse class="cls-5" cx="38.66" cy="153.29" rx="4.17" ry="3.7"/><ellipse class="cls-5" cx="29.09" cy="155.8" rx="3.57" ry="3.17"/><ellipse class="cls-5" cx="21.87" cy="160.45" rx="2.98" ry="2.64"/><polygon class="cls-5" points="24.05 166.56 19.33 163.68 14.6 160.8 13.92 166.17 13.25 171.54 18.65 169.05 24.05 166.56"/><ellipse class="cls-5" cx="118.38" cy="153.85" rx="5.36" ry="4.75"/><ellipse class="cls-5" cx="129.62" cy="157.7" rx="4.17" ry="3.7"/><ellipse class="cls-5" cx="138.47" cy="162.58" rx="3.57" ry="3.17"/><ellipse class="cls-5" cx="140.71" cy="170.53" rx="2.98" ry="2.64"/><polygon class="cls-5" points="146.54 173.81 140.82 174.07 135.09 174.32 138.22 178.96 141.36 183.59 143.95 178.7 146.54 173.81"/><polygon class="cls-8" points="93.08 280.87 123.72 281.64 154.36 282.42 140.26 243.86 126.16 205.31 109.62 243.09 93.08 280.87"/><polygon class="cls-9" points="143.5 205.88 82.56 205.13 21.62 204.38 51.36 251.31 81.11 298.23 112.31 252.06 143.5 205.88"/><ellipse cx="67.1" cy="297.89" rx="5.81" ry="12.5" transform="translate(-231.62 361.22) rotate(-89.27)"/><ellipse cx="95.66" cy="298.28" rx="5.81" ry="12.5" transform="translate(-203.81 390.16) rotate(-89.27)"/><g id="shiny"><g class="cls-10"><g class="cls-11"><g class="cls-10"><g class="cls-12"><g class="cls-11"><g class="cls-13"><polygon class="cls-14" points="95.81 292.69 94.8 297.86 104.02 299.28 105.03 294.12 95.81 292.69"/></g></g></g></g></g></g></g><g id="shiny-2" data-name="shiny"><g class="cls-15"><g class="cls-16"><g class="cls-15"><g class="cls-12"><g class="cls-16"><g class="cls-17"><polygon class="cls-18" points="56.06 294.23 57.68 299.28 66.68 297 65.06 291.96 56.06 294.23"/></g></g></g></g></g></g></g><path class="cls-5" d="M83.56,157.49,54,156.4c0,.15,0,.31,0,.46-.26,9.36,12.88,17.35,29.1,17.7s29.78-7.07,30-16.43v-.2Z"/><rect class="cls-5" x="63.35" y="146.16" width="41.3" height="13.33"/><polygon class="cls-5" points="74.26 167.71 74.95 131.06 89.97 131.28 89.28 167.93 74.26 167.71"/><ellipse class="cls-19" cx="87.69" cy="138.75" rx="13.41" ry="72.55" transform="translate(-71.36 179.27) rotate(-72)"/><rect class="cls-8" x="42.7" y="206.14" width="74.15" height="74.97"/><polygon class="cls-8" points="9.17 279.72 39.81 280.5 70.45 281.27 56.35 242.71 42.26 204.16 25.71 241.94 9.17 279.72"/><ellipse class="cls-6" cx="126.86" cy="126.47" rx="17.48" ry="56.77" transform="translate(-52.18 120.71) rotate(-43.07)"/><path class="cls-20" d="M90.74,126.5l34.54,11.73.39-1c10.39-26.6,3.18-53.34-16-59.24S66.2,89.14,55.8,115.74Z"/><path class="cls-21" d="M56.94,122.44,119.63,143a4.48,4.48,0,0,0,5.54-2.26l2.17-5.2a3.73,3.73,0,0,0-2.56-4.92L62.09,110.05a4.48,4.48,0,0,0-5.54,2.27l-2.17,5.2A3.73,3.73,0,0,0,56.94,122.44Z"/></g></g></svg>