<svg xmlns="http://www.w3.org/2000/svg" xmlns:xlink="http://www.w3.org/1999/xlink" width="200" height="380" viewBox="0 0 200 380"><defs><style>.cls-1{fill:none;}.cls-2{isolation:isolate;}.cls-3{opacity:0.51;}.cls-4{fill:#e8a7e8;}.cls-5{fill:#8a1300;}.cls-6{fill:#060323;}.cls-7{fill:#fff;}.cls-8{fill:#160e5e;}.cls-9{fill:#01010f;}.cls-10{fill:url(#linear-gradient);}.cls-11{fill:#b41400;}.cls-12{fill:#11093f;}.cls-13{fill:url(#linear-gradient-2);}.cls-14{fill:#d89144;}.cls-15{fill:url(#linear-gradient-3);}.cls-16{clip-path:url(#clip-path);}.cls-17{clip-path:url(#clip-path-2);}.cls-18{mix-blend-mode:screen;}.cls-19{clip-path:url(#clip-path-5);}.cls-20{fill:url(#linear-gradient-4);}.cls-21{clip-path:url(#clip-path-6);}.cls-22{clip-path:url(#clip-path-10);}.cls-23{fill:url(#linear-gradient-5);}.cls-24{fill:#f2f2f1;}</style><linearGradient id="linear-gradient" x1="62.29" y1="77.19" x2="141.75" y2="77.19" gradientUnits="userSpaceOnUse"><stop offset="0.2" stop-color="#160e5e"/><stop offset="0.32" stop-color="#130c53"/><stop offset="0.76" stop-color="#0a0530"/><stop offset="1" stop-color="#060323"/></linearGradient><linearGradient id="linear-gradient-2" x1="41.04" y1="111.39" x2="188.95" y2="111.39" gradientTransform="matrix(0.94, 0.33, -0.33, 0.94, 43.53, -31.87)" xlink:href="#linear-gradient"/><linearGradient id="linear-gradient-3" x1="85.67" y1="257.95" x2="182.99" y2="201.76" xlink:href="#linear-gradient"/><clipPath id="clip-path"><rect class="cls-1" x="93.76" y="308.4" width="9.11" height="4.68" transform="matrix(0.96, -0.28, 0.28, 0.96, -82.5, 39.57)"/></clipPath><clipPath id="clip-path-2"><rect class="cls-1" x="93.76" y="308.4" width="9.11" height="4.68" transform="translate(-82.5 39.57) rotate(-16.14)"/></clipPath><clipPath id="clip-path-5"><path class="cls-1" d="M102.83,310c.2,1.25-1.66,2.58-4.16,3s-4.68-.3-4.88-1.54,1.67-2.58,4.16-3,4.69.3,4.88,1.54"/></clipPath><linearGradient id="linear-gradient-4" x1="-2609" y1="-255" x2="-2608" y2="-255" gradientTransform="matrix(0, 4.57, 4.5, 0, 1246.84, 12242.22)" gradientUnits="userSpaceOnUse"><stop offset="0" stop-color="#fff"/><stop offset="0.07" stop-color="#dfdfdf"/><stop offset="0.22" stop-color="#a5a5a5"/><stop offset="0.36" stop-color="#727272"/><stop offset="0.5" stop-color="#494949"/><stop offset="0.64" stop-color="#292929"/><stop offset="0.77" stop-color="#121212"/><stop offset="0.89" stop-color="#050505"/><stop offset="1"/></linearGradient><clipPath id="clip-path-6"><rect class="cls-1" x="137.05" y="306.38" width="4.68" height="9.11" transform="translate(-190.51 396.24) rotate(-80.35)"/></clipPath><clipPath id="clip-path-10"><path class="cls-1" d="M143.77,312.25c-.36,1.21-2.62,1.6-5,.87s-4.09-2.3-3.73-3.51,2.62-1.6,5.05-.87,4.09,2.3,3.72,3.51"/></clipPath><linearGradient id="linear-gradient-5" x1="-2609" y1="-255" x2="-2608" y2="-255" gradientTransform="matrix(-4.57, 0, 0, 4.5, -11792.09, 1459.46)" xlink:href="#linear-gradient-4"/></defs><title>witch</title><g class="cls-2"><g id="Layer_1" data-name="Layer 1"><ellipse class="cls-3" cx="113.6" cy="315.42" rx="69.59" ry="32.58"/><polygon class="cls-4" points="183.07 204.28 118.2 203.4 53.33 202.52 86.53 146.78 119.73 91.05 151.4 147.66 183.07 204.28"/><ellipse cx="12.9" cy="121.73" rx="6.54" ry="9.56" transform="translate(-28.79 6.64) rotate(-13.86)"/><polygon points="17.21 116.22 11.79 118.7 6.37 121.18 6.43 114.14 6.48 107.1 11.85 111.66 17.21 116.22"/><circle class="cls-5" cx="154.8" cy="139.82" r="5.71"/><polygon class="cls-6" points="99.05 82.15 74.06 90.72 49.08 99.29 57.1 81.99 65.13 64.69 82.09 73.42 99.05 82.15"/><circle class="cls-7" cx="102.8" cy="155.04" r="12.68"/><circle class="cls-7" cx="136.41" cy="155.04" r="12.68"/><polygon class="cls-8" points="141.24 130.28 135.46 121.59 129.67 112.9 150.57 105.25 171.48 97.61 156.36 113.95 141.24 130.28"/><polygon class="cls-8" points="96.16 129.91 91.22 138.85 86.28 147.79 75.44 135.97 64.59 124.14 80.37 127.03 96.16 129.91"/><ellipse class="cls-9" cx="25.06" cy="139.66" rx="11.87" ry="18.66" transform="translate(-81.09 45.52) rotate(-38.26)"/><ellipse class="cls-6" cx="67.74" cy="106.74" rx="64.74" ry="19.6" transform="translate(-57.6 90.3) rotate(-50.13)"/><path class="cls-10" d="M104.34,100.34l-37,13.51c-.14-.39-.27-.79-.4-1.18C56.34,80.57,64.52,48.59,85,41.82S131.17,55.9,141.75,88Z"/><rect class="cls-11" x="63.03" y="90.43" width="80.41" height="15.85" rx="4.6" transform="translate(-26.81 39.88) rotate(-19.4)"/><polygon class="cls-6" points="44.16 111.18 40.94 114.87 37.72 118.56 36.14 113.93 34.55 109.3 39.36 110.24 44.16 111.18"/><polygon class="cls-6" points="40.8 151.15 44.3 147.73 47.8 144.31 49.01 149.06 50.22 153.8 45.51 152.47 40.8 151.15"/><polygon class="cls-6" points="42.97 117.47 41.35 112.85 39.74 108.23 44.55 109.14 49.36 110.05 46.16 113.76 42.97 117.47"/><polygon class="cls-6" points="27.68 148.77 30.46 152.8 33.23 156.83 28.36 157.22 23.48 157.61 25.58 153.19 27.68 148.77"/><polygon class="cls-8" points="88.41 133.6 87.63 140.47 86.85 147.35 66.31 141.54 45.76 135.72 67.09 134.66 88.41 133.6"/><circle class="cls-12" cx="99.63" cy="154.4" r="3.17"/><circle class="cls-12" cx="132.6" cy="154.4" r="3.17"/><path class="cls-5" d="M137.45,122.42l13.22,22.15-.21.14c-4.43,2.58-13.94-5.35-21.08-17.58s-9.37-24.41-4.95-27l.1,0Z"/><rect x="151.77" y="138.87" width="2.41" height="9.42" transform="translate(146.6 353.29) rotate(-131.45)"/><rect x="144.8" y="133.16" width="2.41" height="9.42" transform="translate(221.29 324.04) rotate(-155.38)"/><rect x="136.55" y="131.26" width="2.41" height="9.42" transform="translate(275.52 271.95) rotate(180)"/><path class="cls-5" d="M97.5,124.33l10.74-23.45a1.57,1.57,0,0,1,.23.09c4.64,2.18,3.5,14.52-2.52,27.33s-14.79,21.56-19.43,19.38l-.1-.05Z"/><polygon points="123.5 164.77 128.36 167.52 133.22 170.28 128.41 173.11 123.59 175.95 123.54 170.36 123.5 164.77"/><polygon class="cls-4" points="121.59 164.77 126.46 167.52 131.32 170.28 126.5 173.11 121.68 175.95 121.64 170.36 121.59 164.77"/><circle cx="112.31" cy="182.31" r="3.17"/><circle class="cls-5" cx="166.21" cy="140.45" r="4.44"/><circle class="cls-5" cx="176.36" cy="143.62" r="3.8"/><circle class="cls-5" cx="183.97" cy="149.33" r="3.17"/><polygon class="cls-5" points="181.53 156.63 186.62 153.25 191.7 149.87 192.33 156.33 192.95 162.79 187.24 159.71 181.53 156.63"/><circle class="cls-5" cx="81.27" cy="139.82" r="5.71"/><circle class="cls-5" cx="69.22" cy="144.26" r="4.44"/><circle class="cls-5" cx="59.71" cy="149.97" r="3.8"/><circle class="cls-5" cx="57.17" cy="159.48" r="3.17"/><rect x="99.87" y="131.48" width="2.41" height="9.42" transform="translate(211.44 264.97) rotate(175.98)"/><rect x="91.1" y="133.55" width="2.41" height="9.42" transform="translate(238.65 217.13) rotate(152.05)"/><rect x="84.58" y="138.94" width="2.41" height="9.42" transform="translate(252 162.84) rotate(127.43)"/><polygon class="cls-5" points="50.9 163.32 56.99 163.72 63.09 164.12 59.66 169.63 56.24 175.15 53.57 169.23 50.9 163.32"/><ellipse class="cls-13" cx="114.99" cy="111.39" rx="78.3" ry="11.82" transform="translate(-30.47 44.52) rotate(-19.4)"/><circle class="cls-14" cx="96.46" cy="170.26" r="1.9"/><circle class="cls-14" cx="89.48" cy="169.62" r="1.27"/><circle class="cls-14" cx="92.02" cy="174.06" r="1.27"/><circle class="cls-14" cx="145.29" cy="169.94" r="1.9"/><circle class="cls-14" cx="138.46" cy="171.5" r="1.27"/><circle class="cls-14" cx="142.25" cy="174.94" r="1.27"/><polygon class="cls-8" points="105.88 292.71 73.22 293.13 40.56 293.56 56.3 247.51 72.03 201.46 88.95 247.08 105.88 292.71"/><polygon class="cls-8" points="195.29 292.71 162.63 293.13 129.97 293.56 145.71 247.51 161.44 201.46 178.37 247.08 195.29 292.71"/><polygon class="cls-15" points="53.54 201.87 118.48 201.96 183.42 202.06 150.86 257.9 118.31 313.74 85.93 257.8 53.54 201.87"/><ellipse cx="133.24" cy="313.57" rx="13.32" ry="6.98"/><ellipse cx="102.8" cy="313.57" rx="13.32" ry="6.98"/><g id="shiny"><g class="cls-16"><g class="cls-17"><g class="cls-17"><g class="cls-18"><g class="cls-17"><g class="cls-19"><rect class="cls-20" x="93.33" y="307.59" width="9.97" height="6.29" transform="translate(-47.44 19.22) rotate(-9.01)"/></g></g></g></g></g></g></g><g id="shiny-2" data-name="shiny"><g class="cls-21"><g class="cls-21"><g class="cls-21"><g class="cls-18"><g class="cls-21"><g class="cls-22"><rect class="cls-23" x="136.24" y="305.95" width="6.29" height="9.97" transform="translate(-198.55 354.62) rotate(-73.22)"/></g></g></g></g></g></g></g><rect class="cls-5" x="117.38" y="201.96" width="1.9" height="109.7"/><circle class="cls-24" cx="127.53" cy="239.38" r="5.07"/><circle class="cls-24" cx="127.53" cy="219.08" r="5.07"/><circle class="cls-24" cx="109.14" cy="219.08" r="5.07"/><circle class="cls-24" cx="109.14" cy="239.38" r="5.07"/></g></g></svg>
